<svg width="134" height="91" viewBox="0 0 134 91" fill="none" xmlns="http://www.w3.org/2000/svg">
<g clip-path="url(#clip0_196_2404)">
<path d="M7.77499 2.44V3.65H8.73499V4.37H2.33499V65.89H14.725V67.1H10.845L9.88499 68.01V83.19L10.635 83.93H14.725V85.06H17.745V88.56H109.305V85.06H110.205V65.89H115.345V61.09L116.555 57.74V55.14L131.665 46.46V38.19L124.715 34.27H122.125L116.555 24.5H91.775L90.865 25.1L66.695 25.21L65.885 23.96H60.955V4.37H56.935V3.65H57.635V2.44H7.77499Z" fill="#D4E9F4"/>
<g opacity="0.3">
<path d="M33.755 36.89H60.955L62.925 39V47.52L60.955 49.48V59.46L57.185 65.13H33.755V36.89Z" fill="white"/>
</g>
<g opacity="0.3">
<path d="M56.725 12.12H30.215V35.68H56.725V12.12Z" fill="white"/>
</g>
<g opacity="0.3">
<path d="M34.665 16.04H55.625V33.53C55.625 33.53 55.805 34.92 53.545 34.92H34.665V16.04Z" fill="white"/>
</g>
<g opacity="0.3">
<path d="M60.955 23.96V36.89L62.925 39V47.52L60.955 49.48V59.46L57.185 65.13L63.375 65.14H98.505L98.425 65.89H110.205H115.345V61.09L116.555 57.74V55.14L131.665 46.46V38.19L124.715 34.27H122.125L116.555 24.5H91.775L90.865 25.1L66.695 25.21L65.885 23.96H60.955Z" fill="white"/>
</g>
<path d="M23.005 2.44H22.755V3.65H23.005V2.44Z" fill="#00437F"/>
<path d="M57.755 3.77H22.885V3.52H57.505V2.56H22.885V2.31H57.755V3.77Z" fill="#00437F"/>
<path d="M60.955 5.64H15.635V5.89H60.955V5.64Z" fill="#00437F"/>
<path d="M53.545 35.04H34.545V15.91H55.755V33.52C55.755 33.52 55.815 33.99 55.445 34.41C55.075 34.83 54.445 35.04 53.555 35.04H53.545ZM34.795 34.79H53.545C54.355 34.79 54.935 34.61 55.245 34.25C55.545 33.92 55.505 33.55 55.495 33.54V16.16H34.785V34.79H34.795Z" fill="#00437F"/>
<path d="M56.845 35.8H33.765V35.55H56.595V12.25H33.765V12H56.845V35.8Z" fill="#00437F"/>
<path d="M33.885 12.12H33.635V35.68H33.885V12.12Z" fill="#00437F"/>
<path d="M31.845 28.8L30.915 27.87V21.12L31.855 20.18L32.035 20.36L31.165 21.23V27.77L32.015 28.62L31.845 28.8Z" fill="#00437F"/>
<path d="M32.975 28.84H31.925V28.59H32.725V20.39H31.945V20.14H32.975V28.84Z" fill="#00437F"/>
<path d="M63.375 65.77H27.715V66.02H63.375V65.77Z" fill="#00437F"/>
<path d="M27.845 36.96H27.595V65.89H27.845V36.96Z" fill="#00437F"/>
<path d="M15.755 4.37H15.505V26.83H15.755V4.37Z" fill="#00437F"/>
<path d="M69.205 85.18H33.765V84.93H68.955V77.07H69.205V85.18Z" fill="#00437F"/>
<path d="M33.885 65.89H33.635V85.05H33.885V65.89Z" fill="#00437F"/>
<path d="M20.775 84.02L19.995 83.24V67.96L20.985 67.01L21.155 67.19L20.245 68.06V83.14L20.945 83.84L20.775 84.02Z" fill="#00437F"/>
<path d="M29.055 84.06H20.855V83.81H28.805V67.23H21.065V66.98H29.055V84.06Z" fill="#00437F"/>
<path d="M65.1891 65.0176L65.188 65.2676L98.5176 65.4247L98.5188 65.1747L65.1891 65.0176Z" fill="#00437F"/>
<path d="M98.625 77.2H65.175V76.95H98.375V65.29H98.625V77.2Z" fill="#00437F"/>
<path d="M65.305 65.13H65.055V77.07H65.305V65.13Z" fill="#00437F"/>
<path d="M93.885 81.78H69.075V82.03H93.885V81.78Z" fill="#00437F"/>
<path d="M110.335 85.18H94.675V77.07H94.925V84.93H110.085V65.89H110.335V85.18Z" fill="#00437F"/>
<path d="M109.425 88.68H34.665V88.43H109.175V85.06H109.425V88.68Z" fill="#00437F"/>
<path d="M34.795 85.06H34.545V88.56H34.795V85.06Z" fill="#00437F"/>
<path d="M37.055 65.89H36.805V65.26H2.33499V65.01H37.055V65.89Z" fill="#00437F"/>
<path d="M15.755 65.13H15.505V26.7H30.135V26.95H15.755V65.13Z" fill="#00437F"/>
<path d="M27.605 36.94L22.765 26.97L22.995 26.86L27.825 36.83L27.605 36.94Z" fill="#00437F"/>
<path d="M68.635 49.88H68.385V58.04H68.635V49.88Z" fill="#00437F"/>
<path d="M73.9591 44.646L68.4175 49.7884L68.5875 49.9717L74.1291 44.8293L73.9591 44.646Z" fill="#00437F"/>
<path d="M74.175 37.07H73.925V44.73H74.175V37.07Z" fill="#00437F"/>
<path d="M73.945 37.14L65.815 24.09H60.955V23.84H65.955L65.995 23.9L74.155 37.01L73.945 37.14Z" fill="#00437F"/>
<path d="M110.205 65.77H98.505V66.02H110.205V65.77Z" fill="#00437F"/>
<path d="M115.345 65.77H110.205V66.02H115.345V65.77Z" fill="#00437F"/>
<path d="M116.675 57.74H116.425V50H60.955V49.75H116.675V57.74Z" fill="#00437F"/>
<path d="M115.345 60.97H59.865V61.22H115.345V60.97Z" fill="#00437F"/>
<path d="M116.555 57.76H60.955V58.01H116.555V57.76Z" fill="#00437F"/>
<path d="M90.935 25.21L90.795 25L91.735 24.37H116.555V24.62H91.815L90.935 25.21Z" fill="#00437F"/>
<path d="M90.8587 24.9922L66.6889 25.085L66.6899 25.335L90.8597 25.2422L90.8587 24.9922Z" fill="#00437F"/>
<path d="M90.9691 25.033L90.7521 25.1571L98.0067 37.8501L98.2238 37.7261L90.9691 25.033Z" fill="#00437F"/>
<path d="M123.805 37.06H99.025V37.31H123.805V37.06Z" fill="#00437F"/>
<path d="M123.805 44.86H99.025V45.11H123.805V44.86Z" fill="#00437F"/>
<path d="M90.995 65.13H90.745L90.755 61.05L91.955 57.86V49.81L92.005 49.78L98.955 44.94L99.095 45.15L92.205 49.95L92.195 57.93L90.995 61.12V65.13Z" fill="#00437F"/>
<path d="M115.465 65.89H115.215L115.225 60.9L116.435 57.7L116.665 57.78L115.465 60.97V65.89Z" fill="#00437F"/>
<path d="M98.245 37.73H97.995V44.74H98.245V37.73Z" fill="#00437F"/>
<path d="M98.115 37.92L73.945 37.86V37.61L98.125 37.67L98.115 37.92Z" fill="#00437F"/>
<path d="M98.115 44.61H63.065V44.86H98.115V44.61Z" fill="#00437F"/>
<path d="M61.075 36.89H60.825V4.49H15.635V4.24H61.075V36.89Z" fill="#00437F"/>
<path d="M74.045 36.95H61.135V37.2H74.045V36.95Z" fill="#00437F"/>
<path d="M37.6237 36.8502L37.447 37.027L39.4127 38.9928L39.5895 38.816L37.6237 36.8502Z" fill="#00437F"/>
<path d="M62.835 39L60.865 36.97L61.045 36.8L63.015 38.82L62.835 39Z" fill="#00437F"/>
<path d="M62.925 38.78H39.505V39.03H62.925V38.78Z" fill="#00437F"/>
<path d="M62.925 47.34H39.505V47.59H62.925V47.34Z" fill="#00437F"/>
<path d="M116.615 55.25L116.495 55.03L131.535 46.39V38.19H131.785V46.54L116.615 55.25Z" fill="#00437F"/>
<path d="M131.595 38.3L124.675 34.4H121.995V34.15H124.745L124.775 34.16L131.725 38.08L131.595 38.3Z" fill="#00437F"/>
<path d="M123.815 38.82L123.795 38.58L131.645 38.07L131.655 38.32L123.815 38.82Z" fill="#00437F"/>
<path d="M91.325 35.5H72.985V35.25H91.325C91.675 35.25 92.485 35.25 92.665 34.93C92.735 34.8 92.705 34.62 92.565 34.38L88.945 28.63C88.675 28.23 87.805 27.64 86.785 27.64H68.045V27.39H86.785C87.905 27.39 88.845 28.04 89.145 28.5L92.775 34.25C92.965 34.58 92.995 34.84 92.875 35.05C92.615 35.49 91.775 35.49 91.315 35.49L91.325 35.5Z" fill="#00437F"/>
<path d="M33.765 35.8H30.095V12H33.765V12.25H30.345V35.55H33.765V35.8Z" fill="#00437F"/>
<path d="M31.945 20.14H30.215V20.39H31.945V20.14Z" fill="#00437F"/>
<path d="M31.925 28.59H30.215V28.84H31.925V28.59Z" fill="#00437F"/>
<path d="M15.635 5.64H2.33499V5.89H15.635V5.64Z" fill="#00437F"/>
<path d="M2.45499 5.76H2.20499V4.24H15.635V4.49H2.45499V5.76Z" fill="#00437F"/>
<path d="M27.715 66.02H15.505V65.13H15.755V65.77H27.715V66.02Z" fill="#00437F"/>
<path d="M15.635 66.02H2.20499V5.76H2.45499V65.77H15.635V66.02Z" fill="#00437F"/>
<path d="M33.885 36.89H33.635V65.14H33.885V36.89Z" fill="#00437F"/>
<path d="M65.185 65.01H36.925V65.26H65.185V65.01Z" fill="#00437F"/>
<path d="M60.955 36.76H37.535V37.01H60.955V36.76Z" fill="#00437F"/>
<path d="M60.955 49.36H37.535V49.61H60.955V49.36Z" fill="#00437F"/>
<path d="M60.955 59.33H37.535V59.58H60.955V59.33Z" fill="#00437F"/>
<path d="M37.535 36.76H27.715V37.01H37.535V36.76Z" fill="#00437F"/>
<path d="M20.855 84.06H10.585L9.76498 83.24V67.96L10.795 66.98H21.065V67.23H10.895L10.015 68.06V83.14L10.685 83.81H20.855V84.06Z" fill="#00437F"/>
<path d="M20.115 67.88H9.88499V68.13H20.115V67.88Z" fill="#00437F"/>
<path d="M20.115 83.06H9.88499V83.31H20.115V83.06Z" fill="#00437F"/>
<path d="M33.755 84.93H28.925V85.18H33.755V84.93Z" fill="#00437F"/>
<path d="M28.925 85.18H14.595V83.93H14.845V84.93H28.925V85.18Z" fill="#00437F"/>
<path d="M14.845 65.89H14.595V67.1H14.845V65.89Z" fill="#00437F"/>
<path d="M34.665 88.68H17.625V85.06H17.875V88.43H34.665V88.68Z" fill="#00437F"/>
<path d="M116.625 49.98L116.485 49.78L123.665 44.92V37.22L116.445 24.56L116.665 24.44L123.915 37.16V45.05L123.865 45.09L116.625 49.98Z" fill="#00437F"/>
<path d="M99.155 44.99H98.905V37.22L91.675 24.56L91.895 24.44L99.155 37.16V44.99Z" fill="#00437F"/>
<path d="M91.815 49.1H69.415V48.85H91.735L98.055 44.64L98.185 44.85L91.815 49.1Z" fill="#00437F"/>
<path d="M67.125 65.14H66.875L66.885 61.04L68.395 57.98L68.625 58.09L67.125 61.12V65.14Z" fill="#00437F"/>
<path d="M65.175 77.2H63.245V65.13H63.495V76.95H65.175V77.2Z" fill="#00437F"/>
<path d="M22.885 3.77H7.64499V2.31H22.885V2.56H7.89499V3.52H22.885V3.77Z" fill="#00437F"/>
<path d="M94.795 85.18H93.765V77.07H94.015V84.93H94.795V85.18Z" fill="#00437F"/>
<path d="M8.86499 3.65H8.61499V4.37H8.86499V3.65Z" fill="#00437F"/>
<path d="M57.065 3.65H56.815V4.37H57.065V3.65Z" fill="#00437F"/>
<path d="M33.285 65.89H33.035V85.05H33.285V65.89Z" fill="#00437F"/>
<path d="M34.185 85.06H33.935V88.56H34.185V85.06Z" fill="#00437F"/>
<path d="M65.905 65.13H65.655V77.07H65.905V65.13Z" fill="#00437F"/>
<path d="M33.585 12.12H33.335V35.68H33.585V12.12Z" fill="#00437F"/>
<path d="M52.935 35.04V34.79C53.595 34.79 54.095 34.61 54.435 34.24C54.955 33.67 54.895 32.85 54.895 32.84V16.04H55.145V32.84C55.145 32.84 55.215 33.77 54.625 34.42C54.245 34.84 53.675 35.05 52.945 35.05L52.935 35.04Z" fill="#00437F"/>
<path d="M27.235 36.96H26.985V65.89H27.235V36.96Z" fill="#00437F"/>
<path d="M26.995 36.94L22.165 26.97L22.385 26.86L27.225 36.83L26.995 36.94Z" fill="#00437F"/>
<path d="M16.355 4.37H16.105V26.83H16.355V4.37Z" fill="#00437F"/>
<path d="M39.625 39H39.375V47.46H39.625V39Z" fill="#00437F"/>
<path d="M63.045 39H62.795V47.46H63.045V39Z" fill="#00437F"/>
<path d="M33.865 65.2L33.655 65.07L37.405 59.42V49.43L39.415 47.37L39.595 47.55L37.655 49.54V59.49L33.865 65.2Z" fill="#00437F"/>
<path d="M57.285 65.2L57.075 65.07L60.825 59.42V49.43L62.835 47.43L63.015 47.61L61.075 49.54V59.49L57.285 65.2Z" fill="#00437F"/>
<path d="M57.635 2.44V3.65H56.945V4.37H60.965V23.96H65.895L66.705 25.21L90.875 25.1L91.785 24.5H116.565L122.145 34.27H124.725L131.675 38.19V46.46L116.565 55.14V57.74L115.355 61.09V65.89H110.215V85.05H109.305V88.55H17.745V85.05H14.725V83.93H10.635L9.89499 83.19V68.01L10.845 67.1H14.725V65.89H2.33499V4.37H8.73499V3.65H7.77499V2.44H57.635ZM59.635 0.439999H5.77499V2.37H0.334991V67.89H7.88499V84.01L8.47499 84.6L9.21499 85.34L9.80499 85.93H12.725V87.05H15.745V90.55H111.305V87.05H112.215V67.89H117.355V61.44L118.445 58.41L118.565 58.08V56.29L132.665 48.19L133.665 47.61V37.01L132.645 36.44L125.695 32.52L125.235 32.26H123.285L118.285 23.49L117.705 22.48H91.165L90.665 22.82L90.255 23.09L67.775 23.19L67.565 22.86L66.975 21.95H62.955V2.37H59.635V0.439999Z" fill="#00437F"/>
<path d="M56.725 12.12V35.68H30.215V12.12H56.725ZM57.725 11.12H29.215V36.68H57.725V11.12Z" fill="#00437F"/>
<path d="M109.805 89.06H17.245V85.56H14.225V84.44H10.425L9.38499 83.4V67.8L10.635 66.61H14.215V65.4H63.875V76.58H98.005V65.4H110.705V85.56H109.795V89.06H109.805ZM18.245 88.06H108.805V84.56H109.715V66.4H99.015V77.58H62.875V66.4H15.225V67.61H11.045L10.395 68.23V82.99L10.845 83.44H15.225V84.56H18.245V88.06Z" fill="#00437F"/>
<path d="M16.135 65.89H15.135V26.33H30.135V27.33H16.135V65.89Z" fill="#00437F"/>
<path d="M57.445 65.63H33.255V36.38H61.165L63.415 38.8V47.72L61.445 49.69V59.61L57.445 65.64V65.63ZM34.255 64.63H56.905L60.445 59.3V49.27L62.415 47.3V39.19L60.725 37.38H34.245V64.63H34.255Z" fill="#00437F"/>
</g>
<defs>
<clipPath id="clip0_196_2404">
<rect width="133.33" height="90.12" fill="white" transform="translate(0.334991 0.439999)"/>
</clipPath>
</defs>
</svg>
