<svg width="166" height="93" viewBox="0 0 166 93" fill="none" xmlns="http://www.w3.org/2000/svg">
<g clip-path="url(#clip0_196_2245)">
<path d="M146.27 2.65C146.64 2.65 146.95 2.95 146.95 3.33V3.56C146.95 3.82 146.82 4.07 146.61 4.22L138.61 9.95C137.6 10.67 136.39 11.06 135.15 11.06H133.9V11.92H152.12V21.76C152.12 22.52 152.74 23.14 153.5 23.14H155.66V27.28H159.8V43.23H163.34V86.36H160.39V90.36H117.99V86.36H114.31V82.5H72.36V86.36H70.23V90.36H6.33002V86.36H2.65002V4.23H59.37V8.55H61.18C63.77 8.55 65.87 11.38 65.87 14.87C65.87 18.36 63.77 21.19 61.18 21.19H59.37V27.28H85.37V23.74H89.12V20.46H89.88V18.17H89.12V16.33H111.96V18.17H111.47V20.46H111.96V23.74H114.32V27.28H130.86V17.83H126.72V16.3L125.1 15.18C125.01 15.12 124.95 15 124.95 14.87C124.95 14.74 125.01 14.62 125.1 14.56L126.72 13.45V11.91H130.95V11.05H130.46C129.91 11.05 129.47 10.61 129.47 10.06C129.47 9.51 129.91 9.07 130.46 9.07H133.3C134.24 9.07 135.16 8.78 135.93 8.24L143.13 3.2C143.64 2.84 144.25 2.65 144.87 2.65H146.27ZM72.37 79.13H114.32V65.09H72.37V79.13ZM146.27 0.650001H144.87C143.83 0.650001 142.83 0.960001 141.98 1.56L134.78 6.6C134.34 6.91 133.83 7.07 133.29 7.07H130.45C128.85 7.07 127.54 8.33 127.46 9.91H124.71V12.39L123.96 12.9C123.32 13.35 122.94 14.07 122.94 14.86C122.94 15.65 123.32 16.37 123.95 16.81L124.71 17.34V19.82H128.85V25.27H116.31V21.73H113.95V14.31H87.11V21.73H83.36V25.27H61.36V23.18C65.02 23.06 67.86 19.45 67.86 14.86C67.86 10.27 65.02 6.67 61.36 6.54V2.23H0.650024V88.35H4.33002V92.35H72.24V88.35H74.37V84.49H112.32V88.35H116V92.35H162.4V88.35H165.35V41.23H161.81V25.28H157.67V21.14H154.13V9.91H142.1L147.78 5.84C148.52 5.31 148.95 4.46 148.95 3.55V3.32C148.95 1.84 147.75 0.640001 146.27 0.640001V0.650001ZM74.37 67.09H112.32V77.13H74.37V67.09Z" fill="#00437F"/>
<path d="M159.81 43.23V27.28H155.67V23.14H153.51C152.75 23.14 152.13 22.52 152.13 21.76V11.91H133.91V11.05H135.16C136.4 11.05 137.61 10.66 138.62 9.94L146.62 4.21C146.83 4.06 146.96 3.81 146.96 3.55V3.32C146.96 2.95 146.66 2.64 146.28 2.64H144.88C144.26 2.64 143.65 2.83 143.14 3.19L135.94 8.23C135.17 8.77 134.25 9.06 133.31 9.06H130.47C129.92 9.06 129.48 9.5 129.48 10.05C129.48 10.6 129.92 11.04 130.47 11.04H130.96V11.9H126.73V13.44L125.11 14.55C125.02 14.61 124.96 14.73 124.96 14.86C124.96 14.99 125.02 15.11 125.11 15.17L126.73 16.29V17.82H130.87V27.27H114.33V23.73H111.97V20.45H111.48V18.16H111.97V16.32H89.13V18.16H89.89V20.45H89.13V23.73H85.38V27.27H59.38V21.18H61.19C63.78 21.18 65.88 18.35 65.88 14.86C65.88 11.37 63.78 8.54 61.19 8.54H59.38V4.23H2.65002V86.35H6.33002V90.35H70.24V86.35H72.37V82.49H114.32V86.35H118V90.35H160.4V86.35H163.35V43.23H159.81ZM114.32 79.13H72.37V65.09H114.32V79.13Z" fill="#D4E9F4"/>
<g opacity="0.3">
<path d="M144.44 46.18H65.72V65.09H144.44V46.18Z" fill="white"/>
</g>
<path d="M144.95 65.59H65.22V45.68H144.94V65.59H144.95ZM66.23 64.59H143.95V46.68H66.22V64.59H66.23Z" fill="#00437F"/>
<path d="M144.95 65.59H67.14V45.68H144.95V65.59ZM68.14 64.59H143.95V46.68H68.14V64.59Z" fill="#00437F"/>
<path d="M67.64 65.21H65.6V46.05H67.64V46.3H65.85V64.96H67.64V65.21Z" fill="#00437F"/>
<path d="M72.49 86.48H29.11V43.1H72.49V46.2H72.24V43.35H29.36V86.23H72.24V65.09H72.49V86.48Z" fill="#00437F"/>
<path d="M163.48 86.48H140.78V65.07H141.03V86.23H163.23V43.35H141.03V46.17H140.78V43.1H163.48V86.48Z" fill="#00437F"/>
<path d="M70.36 90.48H6.21002V86.35H6.46002V90.23H70.11V86.35H70.36V90.48Z" fill="#00437F"/>
<path d="M114.44 46.16H114.19V43.1H140.9V43.35H114.44V46.16Z" fill="#00437F"/>
<path d="M114.44 65.04H114.19V79.13H114.44V65.04Z" fill="#00437F"/>
<path d="M140.9 86.48H114.19V82.49H114.44V86.23H140.9V86.48Z" fill="#00437F"/>
<path d="M29.36 86.35H29.11V90.35H29.36V86.35Z" fill="#00437F"/>
<path d="M160.52 90.48H117.87V86.35H118.12V90.23H160.27V86.35H160.52V90.48Z" fill="#00437F"/>
<path d="M141.03 86.35H140.78V90.35H141.03V86.35Z" fill="#00437F"/>
<path d="M29.24 86.48H2.52002V43.1H29.24V43.35H2.77002V86.23H29.24V86.48Z" fill="#00437F"/>
<path d="M29.36 4.23H29.11V43.22H29.36V4.23Z" fill="#00437F"/>
<path d="M2.77002 4.23H2.52002V43.22H2.77002V4.23Z" fill="#00437F"/>
<path d="M59.49 4.23H59.24V43.22H59.49V4.23Z" fill="#00437F"/>
<path d="M59.37 4.11H2.65002V4.36H59.37V4.11Z" fill="#00437F"/>
<path d="M59.37 7.06H2.65002V7.31H59.37V7.06Z" fill="#00437F"/>
<path d="M61.17 21.31H59.36V21.06H61.17C63.69 21.06 65.74 18.28 65.74 14.87C65.74 11.46 63.69 8.68 61.17 8.68H59.36V8.43H61.17C63.83 8.43 65.99 11.32 65.99 14.87C65.99 18.42 63.83 21.31 61.17 21.31Z" fill="#00437F"/>
<path d="M114.44 41.58H96.47V23.6H114.44V41.57V41.58ZM96.72 41.33H114.19V23.85H96.72V41.32V41.33Z" fill="#00437F"/>
<path d="M158.62 30.1H114.32V30.35H158.62V30.1Z" fill="#00437F"/>
<path d="M158.62 33.06H114.32V33.31H158.62V33.06Z" fill="#00437F"/>
<path d="M93.72 30.1H59.37V30.35H93.72V30.1Z" fill="#00437F"/>
<path d="M93.72 33.06H59.37V33.31H93.72V33.06Z" fill="#00437F"/>
<path d="M156.39 27.27H156.14V30.22H156.39V27.27Z" fill="#00437F"/>
<path d="M158.75 27.27H158.5V43.22H158.75V27.27Z" fill="#00437F"/>
<path d="M159.93 43.23H159.68V27.4H158.63V27.15H159.93V43.23Z" fill="#00437F"/>
<path d="M158.62 27.15H114.31V27.4H158.62V27.15Z" fill="#00437F"/>
<path d="M155.8 27.27H155.55V23.26H153.51C152.68 23.26 152 22.58 152 21.75V11.91H152.25V21.75C152.25 22.44 152.81 23.01 153.51 23.01H155.8V27.27Z" fill="#00437F"/>
<path d="M152.13 11.79H131.45V12.04H152.13V11.79Z" fill="#00437F"/>
<path d="M131.57 11.91H131.32V17.82H131.57V11.91Z" fill="#00437F"/>
<path d="M135.59 17.69H131.45V17.94H135.59V17.69Z" fill="#00437F"/>
<path d="M145.75 17.82H145.5V23.14H145.75V17.82Z" fill="#00437F"/>
<path d="M138.07 23.14H137.82V27.28H138.07V23.14Z" fill="#00437F"/>
<path d="M131.45 17.94H126.6V16.29H126.85V17.69H131.45V17.94Z" fill="#00437F"/>
<path d="M126.85 13.45H126.6V11.79H131.45V12.04H126.85V13.45Z" fill="#00437F"/>
<path d="M146.34 23.26H136.22C135.47 23.26 134.86 22.65 134.86 21.9V17.81H135.11V21.9C135.11 22.51 135.61 23.01 136.22 23.01H146.09V17.94H135.58V17.69H146.34V23.26Z" fill="#00437F"/>
<path d="M130.98 17.82H130.73V27.27H130.98V17.82Z" fill="#00437F"/>
<path d="M96.59 41.33H93.64V41.58H96.59V41.33Z" fill="#00437F"/>
<path d="M93.76 41.45H93.51V27.4H59.37V27.15H93.76V41.45Z" fill="#00437F"/>
<path d="M96.59 23.6H85.36V23.85H96.59V23.6Z" fill="#00437F"/>
<path d="M85.49 23.73H85.24V27.27H85.49V23.73Z" fill="#00437F"/>
<path d="M129.08 16.76V16.51C129.83 16.51 130.43 15.77 130.43 14.86C130.43 13.95 129.82 13.21 129.08 13.21V12.96C129.96 12.96 130.68 13.81 130.68 14.86C130.68 15.91 129.96 16.76 129.08 16.76Z" fill="#00437F"/>
<path d="M127.61 16.76C127.33 16.76 127.05 16.67 126.8 16.5L126.94 16.29C127.14 16.43 127.37 16.5 127.61 16.5C128.36 16.5 128.96 15.76 128.96 14.85C128.96 13.94 128.35 13.2 127.61 13.2C127.38 13.2 127.15 13.27 126.94 13.41L126.8 13.2C127.05 13.03 127.32 12.94 127.61 12.94C128.49 12.94 129.21 13.79 129.21 14.84C129.21 15.89 128.49 16.74 127.61 16.74V16.76Z" fill="#00437F"/>
<path d="M125.24 15.35C125.01 15.35 124.82 15.13 124.82 14.87C124.82 14.61 125.01 14.39 125.24 14.39C125.47 14.39 125.66 14.61 125.66 14.87C125.66 15.13 125.47 15.35 125.24 15.35ZM125.24 14.64C125.15 14.64 125.07 14.74 125.07 14.87C125.07 15 125.15 15.1 125.24 15.1C125.33 15.1 125.41 15 125.41 14.87C125.41 14.74 125.33 14.64 125.24 14.64Z" fill="#00437F"/>
<path d="M41.77 88.84H34.87V86.41H35.12V88.59H41.52V86.29H41.77V88.84Z" fill="#00437F"/>
<path d="M65.99 88.84H59.1V86.41H59.35V88.59H65.74V86.29H65.99V88.84Z" fill="#00437F"/>
<path d="M65.4 86.35H65.15V88.71H65.4V86.35Z" fill="#00437F"/>
<path d="M155.21 88.84H148.31V86.41H148.56V88.59H154.96V86.29H155.21V88.84Z" fill="#00437F"/>
<path d="M154.62 86.35H154.37V88.71H154.62V86.35Z" fill="#00437F"/>
<path d="M41.18 86.35H40.93V88.71H41.18V86.35Z" fill="#00437F"/>
<path d="M153.9 23.01H146.22V23.26H153.9V23.01Z" fill="#00437F"/>
<path d="M114.32 43.1H72.37V43.35H114.32V43.1Z" fill="#00437F"/>
<path d="M93.65 40.44H59.37V40.69H93.65V40.44Z" fill="#00437F"/>
<path d="M93.65 39.26H59.37V39.51H93.65V39.26Z" fill="#00437F"/>
<path d="M93.65 36.9H59.37V37.15H93.65V36.9Z" fill="#00437F"/>
<path d="M93.65 35.72H59.37V35.97H93.65V35.72Z" fill="#00437F"/>
<path d="M156.27 36.9H114.32V37.15H156.27V36.9Z" fill="#00437F"/>
<path d="M156.27 35.72H114.32V35.97H156.27V35.72Z" fill="#00437F"/>
<path d="M156.26 37.15V36.9C156.52 36.9 156.73 36.69 156.73 36.43C156.73 36.17 156.52 35.96 156.26 35.96V35.71C156.65 35.71 156.98 36.03 156.98 36.43C156.98 36.83 156.66 37.15 156.26 37.15Z" fill="#00437F"/>
<path d="M156.26 39.85H117.28V40.1H156.26V39.85Z" fill="#00437F"/>
<path d="M115.53 39.85H114.32V40.1H115.53V39.85Z" fill="#00437F"/>
<path d="M156.27 38.67H115.13V38.92H156.27V38.67Z" fill="#00437F"/>
<path d="M156.26 40.1V39.85C156.52 39.85 156.73 39.64 156.73 39.38C156.73 39.12 156.52 38.91 156.26 38.91V38.66C156.65 38.66 156.98 38.98 156.98 39.38C156.98 39.78 156.66 40.1 156.26 40.1Z" fill="#00437F"/>
<path d="M129.09 16.51H127.61V16.76H129.09V16.51Z" fill="#00437F"/>
<path d="M129.09 12.97H127.61V13.22H129.09V12.97Z" fill="#00437F"/>
<path d="M126.8 16.5L125.03 15.28L125.17 15.07L126.94 16.3L126.8 16.5Z" fill="#00437F"/>
<path d="M125.17 14.66L125.03 14.46L126.8 13.23L126.94 13.43L125.17 14.66Z" fill="#00437F"/>
<path d="M28.18 4.23H27.93V43.22H28.18V4.23Z" fill="#00437F"/>
<path d="M28.18 86.35H27.93V90.35H28.18V86.35Z" fill="#00437F"/>
<path d="M28.18 43.23H27.93V86.36H28.18V43.23Z" fill="#00437F"/>
<path d="M142.21 65.07H141.96V86.35H142.21V65.07Z" fill="#00437F"/>
<path d="M142.21 43.23H141.96V46.18H142.21V43.23Z" fill="#00437F"/>
<path d="M142.21 86.35H141.96V90.35H142.21V86.35Z" fill="#00437F"/>
<path d="M108.7 40.4C106.19 40.4 104.14 38.22 104.14 35.55C104.14 32.88 106.18 30.7 108.7 30.7C111.22 30.7 113.26 32.88 113.26 35.55C113.26 38.22 111.22 40.4 108.7 40.4ZM108.7 30.95C106.33 30.95 104.39 33.01 104.39 35.55C104.39 38.09 106.32 40.15 108.7 40.15C111.08 40.15 113.01 38.09 113.01 35.55C113.01 33.01 111.08 30.95 108.7 30.95Z" fill="#00437F"/>
<path d="M108.7 39.14C106.84 39.14 105.33 37.53 105.33 35.55C105.33 33.57 106.84 31.96 108.7 31.96C110.56 31.96 112.07 33.57 112.07 35.55C112.07 37.53 110.56 39.14 108.7 39.14ZM108.7 32.21C106.98 32.21 105.58 33.71 105.58 35.55C105.58 37.39 106.98 38.89 108.7 38.89C110.42 38.89 111.82 37.39 111.82 35.55C111.82 33.71 110.42 32.21 108.7 32.21Z" fill="#00437F"/>
<path d="M108.11 37.25C107.23 37.25 106.51 36.49 106.51 35.55C106.51 34.61 107.23 33.85 108.11 33.85C108.99 33.85 109.71 34.61 109.71 35.55C109.71 36.49 108.99 37.25 108.11 37.25ZM108.11 34.1C107.36 34.1 106.76 34.75 106.76 35.55C106.76 36.35 107.37 37 108.11 37C108.85 37 109.46 36.35 109.46 35.55C109.46 34.75 108.85 34.1 108.11 34.1Z" fill="#00437F"/>
<path d="M108.457 32.0458L108.12 33.9766L108.366 34.0196L108.703 32.0888L108.457 32.0458Z" fill="#00437F"/>
<path d="M111.95 35.42H109.59V35.67H111.95V35.42Z" fill="#00437F"/>
<path d="M108.222 37.0823L107.984 37.1568L108.574 39.0467L108.813 38.9722L108.222 37.0823Z" fill="#00437F"/>
<path d="M106.63 35.42H105.45V35.67H106.63V35.42Z" fill="#00437F"/>
<path d="M108.41 36.3C108.02 36.3 107.69 35.96 107.69 35.54C107.69 35.12 108.01 34.78 108.41 34.78C108.81 34.78 109.13 35.12 109.13 35.54C109.13 35.96 108.81 36.3 108.41 36.3ZM108.41 35.04C108.15 35.04 107.94 35.27 107.94 35.55C107.94 35.83 108.15 36.06 108.41 36.06C108.67 36.06 108.88 35.83 108.88 35.55C108.88 35.27 108.67 35.04 108.41 35.04Z" fill="#00437F"/>
<path d="M103.68 28.91C103.29 28.91 102.96 28.57 102.96 28.15C102.96 27.73 103.28 27.4 103.68 27.4C104.08 27.4 104.4 27.74 104.4 28.15C104.4 28.56 104.08 28.91 103.68 28.91ZM103.68 27.65C103.42 27.65 103.21 27.88 103.21 28.15C103.21 28.42 103.42 28.66 103.68 28.66C103.94 28.66 104.15 28.43 104.15 28.15C104.15 27.87 103.94 27.65 103.68 27.65Z" fill="#00437F"/>
<path d="M101.91 28.91C101.52 28.91 101.19 28.57 101.19 28.15C101.19 27.73 101.51 27.4 101.91 27.4C102.31 27.4 102.63 27.74 102.63 28.15C102.63 28.56 102.31 28.91 101.91 28.91ZM101.91 27.65C101.65 27.65 101.44 27.88 101.44 28.15C101.44 28.42 101.65 28.66 101.91 28.66C102.17 28.66 102.38 28.43 102.38 28.15C102.38 27.87 102.17 27.65 101.91 27.65Z" fill="#00437F"/>
<path d="M101.51 37.44C100.9 37.44 100.4 36.91 100.4 36.26C100.4 35.61 100.9 35.08 101.51 35.08C102.12 35.08 102.62 35.61 102.62 36.26C102.62 36.91 102.12 37.44 101.51 37.44ZM101.51 35.33C101.03 35.33 100.65 35.75 100.65 36.26C100.65 36.77 101.04 37.19 101.51 37.19C101.98 37.19 102.37 36.77 102.37 36.26C102.37 35.75 101.98 35.33 101.51 35.33Z" fill="#00437F"/>
<path d="M104.99 29.76H99.67V29.51H104.74V26.81H99.08V28.16H98.83V26.56H104.99V29.76Z" fill="#00437F"/>
<path d="M98.47 29.76H97.65V26.56H98.95V26.81H97.9V29.51H98.47V29.76Z" fill="#00437F"/>
<path d="M112.08 18.28H97.85V16.19H112.08V18.28ZM98.1 18.03H111.83V16.44H98.1V18.03Z" fill="#00437F"/>
<path d="M103.09 18.28H88.99V16.18H103.09V16.43H89.24V18.03H103.09V18.28Z" fill="#00437F"/>
<path d="M112.08 23.73H111.83V20.57H98.1V23.73H97.85V20.32H112.08V23.73Z" fill="#00437F"/>
<path d="M89.24 23.73H88.99V20.32H98.36V20.57H89.24V23.73Z" fill="#00437F"/>
<path d="M90 18.08H89.75V20.44H90V18.08Z" fill="#00437F"/>
<path d="M98.1 18.08H97.85V20.44H98.1V18.08Z" fill="#00437F"/>
<path d="M111.59 18.08H111.34V20.44H111.59V18.08Z" fill="#00437F"/>
<path d="M119.2 42.34C119.07 42.34 118.95 42.3 118.84 42.23L114.25 39.31L114.38 39.1L118.97 42.02C119.07 42.08 119.18 42.1 119.3 42.07C119.41 42.04 119.51 41.97 119.57 41.87C119.63 41.77 119.64 41.65 119.61 41.54C119.58 41.43 119.51 41.33 119.4 41.28L114.24 38.45L114.36 38.23L119.52 41.06C119.68 41.15 119.8 41.3 119.85 41.48C119.9 41.66 119.87 41.84 119.78 42C119.69 42.16 119.53 42.27 119.35 42.31C119.3 42.32 119.24 42.33 119.19 42.33L119.2 42.34Z" fill="#00437F"/>
<path d="M100.26 33.31C100.15 33.31 100.03 33.29 99.92 33.24C99.68 33.14 99.5 32.94 99.42 32.7L97.95 28.51C97.85 28.23 97.98 27.93 98.24 27.8C98.38 27.73 98.54 27.72 98.69 27.76C98.84 27.81 98.96 27.91 99.03 28.05L101.04 32.02C101.15 32.23 101.17 32.47 101.1 32.69C101.03 32.92 100.87 33.1 100.66 33.21C100.53 33.27 100.4 33.31 100.26 33.31ZM98.51 27.98C98.46 27.98 98.41 27.99 98.36 28.02C98.21 28.1 98.14 28.27 98.2 28.43L99.67 32.63C99.73 32.81 99.86 32.95 100.03 33.02C100.2 33.09 100.39 33.08 100.56 33C100.71 32.92 100.82 32.79 100.87 32.63C100.92 32.47 100.91 32.3 100.83 32.15L98.82 28.18C98.78 28.1 98.71 28.04 98.63 28.01C98.6 28 98.56 27.99 98.53 27.99L98.51 27.98Z" fill="#00437F"/>
<path d="M135.16 11.18H130.47C129.85 11.18 129.35 10.68 129.35 10.06C129.35 9.44 129.85 8.94 130.47 8.94H133.31C134.23 8.94 135.12 8.66 135.87 8.13L143.07 3.09C143.6 2.72 144.23 2.52 144.88 2.52H146.28C146.72 2.52 147.08 2.88 147.08 3.32V3.55C147.08 3.85 146.93 4.14 146.69 4.31L138.69 10.04C137.65 10.78 136.43 11.17 135.16 11.17V11.18ZM130.47 9.19C129.99 9.19 129.6 9.58 129.6 10.06C129.6 10.54 129.99 10.93 130.47 10.93H135.16C136.38 10.93 137.55 10.55 138.54 9.84L146.54 4.11C146.72 3.98 146.83 3.77 146.83 3.55V3.32C146.83 3.01 146.58 2.77 146.28 2.77H144.88C144.28 2.77 143.7 2.95 143.21 3.3L136.01 8.34C135.21 8.9 134.28 9.19 133.3 9.19H130.46H130.47Z" fill="#00437F"/>
<path d="M131.08 11.05H130.83V11.91H131.08V11.05Z" fill="#00437F"/>
<path d="M134.03 11.05H133.78V11.91H134.03V11.05Z" fill="#00437F"/>
<path d="M135.98 9.19H133.31V8.94H135.98C136.82 8.94 137.63 8.69 138.33 8.23L146.17 3.02C146.25 2.97 146.23 2.89 146.22 2.87C146.22 2.85 146.18 2.77 146.09 2.77H144.87V2.52H146.09C146.26 2.52 146.41 2.63 146.46 2.79C146.51 2.96 146.45 3.12 146.31 3.22L138.47 8.43C137.73 8.92 136.87 9.18 135.98 9.18V9.19Z" fill="#00437F"/>
<path d="M65.32 11.79H59.37V12.04H65.32V11.79Z" fill="#00437F"/>
<path d="M65.42 12.2H59.37V12.45H65.42V12.2Z" fill="#00437F"/>
<path d="M65.24 17.91H59.37V18.16H65.24V17.91Z" fill="#00437F"/>
<path d="M65.4 17.49H59.37V17.74H65.4V17.49Z" fill="#00437F"/>
<path d="M42.64 21.82C42.24 21.82 41.86 21.66 41.57 21.38L35.4 15.21C34.81 14.62 34.81 13.66 35.4 13.08C35.99 12.5 36.95 12.49 37.53 13.08L43.7 19.25C43.98 19.53 44.14 19.91 44.14 20.32C44.14 20.73 43.98 21.1 43.7 21.39C43.42 21.67 43.04 21.83 42.63 21.83L42.64 21.82ZM36.47 12.89C36.15 12.89 35.83 13.01 35.58 13.26C35.09 13.75 35.09 14.55 35.58 15.04L41.75 21.21C41.99 21.45 42.3 21.58 42.64 21.58C42.98 21.58 43.29 21.45 43.53 21.21C43.77 20.97 43.9 20.66 43.9 20.32C43.9 19.98 43.77 19.67 43.53 19.43L37.36 13.26C37.11 13.01 36.79 12.89 36.47 12.89Z" fill="#00437F"/>
<path d="M41.23 21.82C40.83 21.82 40.45 21.66 40.16 21.38L33.99 15.21C33.71 14.93 33.55 14.55 33.55 14.14C33.55 13.73 33.71 13.36 33.99 13.07C34.27 12.78 34.65 12.63 35.06 12.63V12.88C34.72 12.88 34.41 13.01 34.17 13.25C33.93 13.49 33.8 13.8 33.8 14.14C33.8 14.48 33.93 14.79 34.17 15.03L40.34 21.2C40.58 21.44 40.89 21.57 41.23 21.57V21.82Z" fill="#00437F"/>
<path d="M42.64 21.57H41.23V21.82H42.64V21.57Z" fill="#00437F"/>
<path d="M36.47 12.64H35.06V12.89H36.47V12.64Z" fill="#00437F"/>
<path d="M53.94 21.82C53.54 21.82 53.16 21.66 52.87 21.38L46.7 15.21C46.11 14.62 46.11 13.66 46.7 13.08C46.98 12.8 47.36 12.64 47.77 12.64C48.18 12.64 48.55 12.8 48.84 13.08L55.01 19.25C55.29 19.53 55.45 19.91 55.45 20.32C55.45 20.73 55.29 21.1 55.01 21.39C54.73 21.67 54.35 21.83 53.94 21.83V21.82ZM47.77 12.89C47.43 12.89 47.12 13.02 46.88 13.26C46.39 13.75 46.39 14.55 46.88 15.04L53.05 21.21C53.29 21.45 53.6 21.58 53.94 21.58C54.28 21.58 54.59 21.45 54.83 21.21C55.07 20.97 55.2 20.66 55.2 20.32C55.2 19.98 55.07 19.67 54.83 19.43L48.66 13.26C48.42 13.02 48.11 12.89 47.77 12.89Z" fill="#00437F"/>
<path d="M52.53 21.82C52.13 21.82 51.75 21.66 51.46 21.38L45.29 15.21C44.7 14.62 44.7 13.66 45.29 13.08C45.57 12.8 45.95 12.64 46.36 12.64V12.89C46.02 12.89 45.71 13.02 45.47 13.26C44.98 13.75 44.98 14.55 45.47 15.04L51.64 21.21C51.88 21.45 52.19 21.58 52.53 21.58V21.83V21.82Z" fill="#00437F"/>
<path d="M53.94 21.57H52.53V21.82H53.94V21.57Z" fill="#00437F"/>
<path d="M47.77 12.64H46.36V12.89H47.77V12.64Z" fill="#00437F"/>
<path d="M36.47 36.66C36.07 36.66 35.69 36.5 35.4 36.22C35.12 35.94 34.96 35.56 34.96 35.15C34.96 34.74 35.12 34.37 35.4 34.08L41.57 27.91C41.85 27.63 42.23 27.47 42.64 27.47C43.05 27.47 43.42 27.63 43.71 27.91C44 28.19 44.15 28.57 44.15 28.98C44.15 29.39 43.99 29.76 43.71 30.05L37.54 36.22C37.26 36.5 36.88 36.66 36.47 36.66ZM42.64 27.73C42.3 27.73 41.99 27.86 41.75 28.1L35.58 34.27C35.34 34.51 35.21 34.82 35.21 35.16C35.21 35.5 35.34 35.81 35.58 36.05C35.82 36.29 36.13 36.42 36.47 36.42C36.81 36.42 37.12 36.29 37.36 36.05L43.53 29.88C43.77 29.64 43.9 29.33 43.9 28.99C43.9 28.65 43.77 28.34 43.53 28.1C43.29 27.86 42.98 27.73 42.64 27.73Z" fill="#00437F"/>
<path d="M35.06 36.66C34.66 36.66 34.28 36.5 33.99 36.22C33.71 35.94 33.55 35.56 33.55 35.15C33.55 34.74 33.71 34.37 33.99 34.08L40.16 27.91C40.44 27.63 40.82 27.47 41.23 27.47V27.72C40.89 27.72 40.58 27.85 40.34 28.09L34.17 34.26C33.93 34.5 33.8 34.81 33.8 35.15C33.8 35.49 33.93 35.8 34.17 36.04C34.41 36.28 34.72 36.41 35.06 36.41V36.66Z" fill="#00437F"/>
<path d="M42.64 27.48H41.23V27.73H42.64V27.48Z" fill="#00437F"/>
<path d="M36.47 36.41H35.06V36.66H36.47V36.41Z" fill="#00437F"/>
<path d="M53.94 32.75C53.54 32.75 53.16 32.59 52.87 32.31L46.7 26.14C46.11 25.55 46.11 24.59 46.7 24.01C46.98 23.73 47.36 23.57 47.77 23.57C48.18 23.57 48.55 23.73 48.84 24.01L55.01 30.18C55.29 30.46 55.45 30.84 55.45 31.25C55.45 31.66 55.29 32.03 55.01 32.32C54.73 32.6 54.35 32.76 53.94 32.76V32.75ZM47.77 23.82C47.43 23.82 47.12 23.95 46.88 24.19C46.39 24.68 46.39 25.48 46.88 25.97L53.05 32.14C53.29 32.38 53.6 32.51 53.94 32.51C54.28 32.51 54.59 32.38 54.83 32.14C55.07 31.9 55.2 31.59 55.2 31.25C55.2 30.91 55.07 30.6 54.83 30.36L48.66 24.19C48.42 23.95 48.11 23.82 47.77 23.82Z" fill="#00437F"/>
<path d="M52.53 32.75C52.13 32.75 51.75 32.59 51.46 32.31L45.29 26.14C44.7 25.55 44.7 24.59 45.29 24.01C45.57 23.73 45.95 23.57 46.36 23.57V23.82C46.02 23.82 45.71 23.95 45.47 24.19C44.98 24.68 44.98 25.48 45.47 25.97L51.64 32.14C51.88 32.38 52.19 32.51 52.53 32.51V32.76V32.75Z" fill="#00437F"/>
<path d="M53.94 32.5H52.53V32.75H53.94V32.5Z" fill="#00437F"/>
<path d="M47.77 23.57H46.36V23.82H47.77V23.57Z" fill="#00437F"/>
<path d="M137.62 82.62H72.24V79.01H132.5C133.42 79.01 134.33 79.18 135.19 79.51L138.33 80.73V81.91C138.33 82.3 138.01 82.62 137.62 82.62ZM72.49 82.37H137.62C137.87 82.37 138.08 82.16 138.08 81.91V80.9L135.1 79.74C134.27 79.42 133.39 79.25 132.5 79.25H72.49V82.36V82.37Z" fill="#00437F"/>
<path d="M138.21 80.69H72.37V80.94H138.21V80.69Z" fill="#00437F"/>
<path d="M13.19 68.77H4.91003V67.2H13.19V68.77ZM5.15003 68.52H12.94V67.45H5.16003V68.52H5.15003Z" fill="#00437F"/>
<path d="M25.69 68.77H16.93V67.2H25.69V68.77ZM17.18 68.52H25.44V67.45H17.18V68.52Z" fill="#00437F"/>
<path d="M13.19 70.94H4.91003V69.37H13.19V70.94ZM5.15003 70.69H12.94V69.62H5.16003V70.69H5.15003Z" fill="#00437F"/>
<path d="M25.69 70.94H16.93V69.37H25.69V70.94ZM17.18 70.69H25.44V69.62H17.18V70.69Z" fill="#00437F"/>
<path d="M13.19 73.12H4.91003V71.55H13.19V73.12ZM5.15003 72.87H12.94V71.8H5.16003V72.87H5.15003Z" fill="#00437F"/>
<path d="M25.69 73.12H16.93V71.55H25.69V73.12ZM17.18 72.87H25.44V71.8H17.18V72.87Z" fill="#00437F"/>
<path d="M13.19 75.29H4.91003V73.72H13.19V75.29ZM5.15003 75.04H12.94V73.97H5.16003V75.04H5.15003Z" fill="#00437F"/>
<path d="M25.69 75.29H16.93V73.72H25.69V75.29ZM17.18 75.04H25.44V73.97H17.18V75.04Z" fill="#00437F"/>
<path d="M13.19 77.47H4.91003V75.9H13.19V77.47ZM5.15003 77.22H12.94V76.15H5.16003V77.22H5.15003Z" fill="#00437F"/>
<path d="M25.69 77.47H16.93V75.9H25.69V77.47ZM17.18 77.22H25.44V76.15H17.18V77.22Z" fill="#00437F"/>
<path d="M13.19 79.64H4.91003V78.07H13.19V79.64ZM5.15003 79.39H12.94V78.32H5.16003V79.39H5.15003Z" fill="#00437F"/>
<path d="M25.69 79.64H16.93V78.07H25.69V79.64ZM17.18 79.39H25.44V78.32H17.18V79.39Z" fill="#00437F"/>
<path d="M13.19 81.81H4.91003V80.24H13.19V81.81ZM5.15003 81.56H12.94V80.49H5.16003V81.56H5.15003Z" fill="#00437F"/>
<path d="M25.69 81.81H16.93V80.24H25.69V81.81ZM17.18 81.56H25.44V80.49H17.18V81.56Z" fill="#00437F"/>
<path d="M13.19 83.99H4.91003V82.42H13.19V83.99ZM5.15003 83.74H12.94V82.67H5.16003V83.74H5.15003Z" fill="#00437F"/>
<path d="M25.69 83.99H16.93V82.42H25.69V83.99ZM17.18 83.74H25.44V82.67H17.18V83.74Z" fill="#00437F"/>
<path d="M111.95 16.31V18.15H111.46V20.44H111.95V23.72H114.31V38.34L119.47 41.17C119.74 41.32 119.84 41.67 119.68 41.94C119.58 42.12 119.39 42.21 119.2 42.21C119.1 42.21 119 42.18 118.9 42.12L114.31 39.2V41.44H93.63V27.26H85.36V23.89H89.11V20.43H89.87V18.14H89.11V16.3H111.95M112.7 15.55H88.36V18.89H89.12V19.68H88.36V23.14H84.61V28.01H92.88V42.19H115.06V40.56L118.5 42.75C118.71 42.88 118.95 42.95 119.2 42.95C119.66 42.95 120.09 42.7 120.32 42.31C120.5 42 120.55 41.65 120.45 41.3C120.36 40.96 120.13 40.67 119.82 40.5L115.05 37.89V22.96H112.69V19.68H112.2V18.89H112.69V15.55H112.7Z" fill="#00437F"/>
<g opacity="0.3">
<path d="M114.32 39.21L118.91 42.13C119.17 42.3 119.52 42.21 119.68 41.94C119.84 41.67 119.74 41.32 119.47 41.17L114.31 38.34V23.72H111.95V20.44H111.46V18.15H111.95V16.31H89.11V18.15H89.87V20.44H89.11V23.9H85.36V27.27H93.63V41.45H114.31V39.21H114.32Z" fill="white"/>
</g>
<g opacity="0.2">
<path d="M111.52 18.15H89.87V20.46H111.52V18.15Z" fill="#00437F"/>
</g>
<g opacity="0.2">
<path d="M59.37 4.23H2.63V43.22H59.37V4.23Z" fill="#00437F"/>
</g>
<g opacity="0.2">
<path d="M155.67 27.27V23.13H153.51C152.75 23.13 152.13 22.51 152.13 21.75V11.91H133.91V11.05H135.16C136.4 11.05 137.61 10.66 138.62 9.94L146.62 4.21C146.83 4.06 146.96 3.81 146.96 3.55V3.32C146.96 2.95 146.66 2.64 146.28 2.64H144.88C144.26 2.64 143.65 2.83 143.14 3.19L135.94 8.23C135.17 8.77 134.25 9.06 133.31 9.06H130.47C129.92 9.06 129.48 9.5 129.48 10.05C129.48 10.6 129.92 11.04 130.47 11.04H130.96V11.9H126.73V13.44L125.11 14.55C125.02 14.61 124.96 14.73 124.96 14.86C124.96 14.99 125.02 15.11 125.11 15.17L126.73 16.29V17.82H130.87V27.27H155.68H155.67Z" fill="#00437F"/>
</g>
</g>
<defs>
<clipPath id="clip0_196_2245">
<rect width="164.7" height="91.7" fill="white" transform="translate(0.650024 0.650002)"/>
</clipPath>
</defs>
</svg>
