<svg width="210" height="91" viewBox="0 0 210 91" fill="none" xmlns="http://www.w3.org/2000/svg">
<g clip-path="url(#clip0_196_2641)">
<path d="M100.63 2.505V6.155H122.29L125.93 4.325H167.92V55.565V55.535L173.89 42.245H170.69L174.7 33.305H207.58V42.245H203.54V51.275H190.47L179.38 75.975H186.68V85.005H167.92V88.485H13.94V85.005H2.41998V4.335H57.55L61.19 2.505H100.63ZM102.63 0.505001H60.72L60.3 0.715001L57.08 2.325H0.419983V87.025H11.94V90.505H169.93V87.025H188.69V73.995H182.48L191.77 53.295H205.54V44.265H209.58V31.325H174.7H173.41L172.88 32.505L169.93 39.085V2.335H125.46L125.04 2.545L121.82 4.155H102.63V0.505001ZM169.93 44.245H170.81L169.93 46.205V44.245Z" fill="#00437F"/>
<path d="M13.94 88.495V85.025H2.41998V4.335H38.68H54.65H57.55L61.2 2.505H67.57H73.37H100.63V6.155H122.19H122.29L125.94 4.335H132.24H167.93V55.565H167.92L173.9 42.245H170.69L174.71 33.315H207.58V42.255H203.55V49.215V51.285H190.48L179.39 75.985H186.69V85.025H167.93V88.495H13.94Z" fill="#D4E9F4"/>
<g opacity="0.5">
<path d="M167.92 55.565L167.93 4.335H132.24H125.94L122.29 6.155H122.19H100.63V2.505H73.37H67.57H61.2L57.55 4.335H54.65H38.68H17.16V55.495H96.45V57.725H131.79L132.39 55.555L167.92 55.565Z" fill="white"/>
</g>
<g opacity="0.5">
<path d="M38.7 4.375H16.96V55.685H38.7V4.375Z" fill="white"/>
</g>
<g opacity="0.8">
<path d="M2.50998 84.915L13.94 85.025L11.49 82.385V66.955L13.94 64.315L16.96 64.305V4.375H2.50998V84.915Z" fill="white"/>
</g>
<g opacity="0.15">
<path d="M16.99 55.555L54.61 55.565L54.69 84.855L13.94 85.025L11.49 82.385V66.955L13.94 64.315L16.96 64.305L16.99 55.555Z" fill="white"/>
</g>
<g opacity="0.2">
<path d="M192.49 42.315H189.41V49.175H192.49V42.315Z" fill="#00437F"/>
</g>
<g opacity="0.2">
<path d="M174.56 33.445L170.55 42.375H173.75L167.77 55.695L167.76 76.085L183 42.265H185.73L189.52 33.475L174.56 33.445Z" fill="#00437F"/>
</g>
<g opacity="0.2">
<path d="M54.65 4.335L59.41 4.165L62.62 51.205H97.56L96.45 55.495L54.61 55.565L54.65 4.335Z" fill="#00437F"/>
</g>
<path d="M100.76 44.995H73.25V2.375H100.76V44.995ZM73.5 44.745H100.51V2.625H73.5V44.745Z" fill="#00437F"/>
<path d="M98.69 42.375H79.83V42.125H98.42L97.18 16.665L98.42 5.125H79.83V4.875H98.69L97.43 16.665L98.69 42.375Z" fill="#00437F"/>
<path d="M79.7 42.255L78.45 16.665L78.7 16.655L79.95 42.245L79.7 42.255Z" fill="#00437F"/>
<path d="M78.7 16.665L78.45 16.645L79.7 4.985L79.95 5.015L78.7 16.665Z" fill="#00437F"/>
<path d="M97.31 16.535H78.58V16.785H97.31V16.535Z" fill="#00437F"/>
<path d="M79.83 4.875H76.73V5.125H79.83V4.875Z" fill="#00437F"/>
<path d="M79.83 42.125H76.73V42.375H79.83V42.125Z" fill="#00437F"/>
<path d="M76.85 5.005H76.6V42.255H76.85V5.005Z" fill="#00437F"/>
<path d="M98.56 4.875H79.83V5.125H98.56V4.875Z" fill="#00437F"/>
<path d="M95.24 15.815H81.15C80.73 15.815 80.32 15.635 80.04 15.325C79.76 15.015 79.62 14.595 79.67 14.175L80.43 7.115C80.51 6.355 81.15 5.785 81.91 5.785H96C96.42 5.785 96.83 5.965 97.11 6.275C97.39 6.585 97.53 7.005 97.48 7.425L96.72 14.485C96.64 15.245 96 15.815 95.24 15.815ZM81.91 6.025C81.28 6.025 80.75 6.505 80.68 7.135L79.92 14.195C79.88 14.545 80 14.895 80.23 15.155C80.46 15.415 80.8 15.565 81.15 15.565H95.24C95.87 15.565 96.4 15.085 96.47 14.455L97.23 7.395C97.27 7.045 97.15 6.695 96.92 6.435C96.69 6.175 96.35 6.025 96 6.025H81.91Z" fill="#00437F"/>
<path d="M97.89 28.985H79.2V29.235H97.89V28.985Z" fill="#00437F"/>
<path d="M73.37 44.995H69.42L69.25 41.435L69.5 41.425L69.66 44.745H73.37V44.995Z" fill="#00437F"/>
<path d="M67.7835 4.32601L67.5338 4.33761L68.7725 30.9989L69.0222 30.9872L67.7835 4.32601Z" fill="#00437F"/>
<path d="M73.37 2.375H67.57V2.625H73.37V2.375Z" fill="#00437F"/>
<path d="M68.11 41.555H67.06V30.865H68.11V41.555ZM67.31 41.305H67.86V31.115H67.31V41.305Z" fill="#00437F"/>
<path d="M70.1 41.555H67.86V30.865H70.1V41.555ZM68.11 41.305H69.85V31.115H68.11V41.305Z" fill="#00437F"/>
<path d="M72 34.825H69.85V31.795H72V34.825ZM70.1 34.575H71.75V32.045H70.1V34.575Z" fill="#00437F"/>
<path d="M72 25.205H69.85V19.455H72V25.205ZM70.1 24.955H71.75V19.705H70.1V24.955Z" fill="#00437F"/>
<path d="M72 40.625H69.85V37.595H72V40.625ZM70.1 40.375H71.75V37.845H70.1V40.375Z" fill="#00437F"/>
<path d="M70.1 25.205H68.85V19.455H70.1V25.205ZM69.1 24.955H69.85V19.705H69.1V24.955Z" fill="#00437F"/>
<path d="M72 13.465H69.85V7.715H72V13.465ZM70.1 13.215H71.75V7.965H70.1V13.215Z" fill="#00437F"/>
<path d="M70.1 13.465H68.85V7.715H70.1V13.465ZM69.1 13.215H69.85V7.965H69.1V13.215Z" fill="#00437F"/>
<path d="M97.78 51.365H62.44L59.3 4.205H67.65V4.455H59.57L62.68 51.115H97.53V44.875H97.78V51.365Z" fill="#00437F"/>
<path d="M57.61 4.445L57.5 4.225L61.2 2.375H67.57V2.625H61.23L57.61 4.445Z" fill="#00437F"/>
<path d="M122.35 6.275L122.24 6.045L125.94 4.205H132.31V4.455H125.97L122.35 6.275Z" fill="#00437F"/>
<path d="M96.57 55.695H54.52V4.205H59.43V4.455H54.77V55.445H96.38L97.54 51.215L97.78 51.275L96.57 55.695Z" fill="#00437F"/>
<path d="M54.65 55.695H38.55V4.205H54.65V4.455H38.8V55.445H54.65V55.695Z" fill="#00437F"/>
<path d="M38.68 4.205H2.41998V4.455H38.68V4.205Z" fill="#00437F"/>
<path d="M167.93 55.445H132.39V55.695H167.93V55.445Z" fill="#00437F"/>
<path d="M167.93 4.205H132.24V4.455H167.93V4.205Z" fill="#00437F"/>
<path d="M38.68 55.445H17V55.695H38.68V55.445Z" fill="#00437F"/>
<path d="M17.12 4.335H16.87V55.575H17.12V4.335Z" fill="#00437F"/>
<path d="M2.53998 4.335H2.28998V85.025H2.53998V4.335Z" fill="#00437F"/>
<path d="M36.55 23.755H18.48V6.885H36.56V23.755H36.55ZM18.72 23.505H36.3V7.135H18.73V23.505H18.72Z" fill="#00437F"/>
<path d="M27.64 44.995H18.48V26.315H27.64V44.995ZM18.73 44.745H27.39V26.565H18.73V44.745Z" fill="#00437F"/>
<path d="M46.17 30.075C44.76 30.075 43.61 28.925 43.61 27.515C43.61 26.105 44.76 24.955 46.17 24.955C47.58 24.955 48.73 26.105 48.73 27.515C48.73 28.925 47.58 30.075 46.17 30.075ZM46.17 25.205C44.9 25.205 43.86 26.245 43.86 27.515C43.86 28.785 44.9 29.825 46.17 29.825C47.44 29.825 48.48 28.785 48.48 27.515C48.48 26.245 47.44 25.205 46.17 25.205Z" fill="#00437F"/>
<path d="M49.45 22.105C48.72 22.105 48.12 21.515 48.12 20.775C48.12 20.035 48.71 19.445 49.45 19.445C50.19 19.445 50.78 20.035 50.78 20.775C50.78 21.515 50.19 22.105 49.45 22.105ZM49.45 19.705C48.86 19.705 48.37 20.185 48.37 20.785C48.37 21.385 48.85 21.865 49.45 21.865C50.05 21.865 50.53 21.385 50.53 20.785C50.53 20.185 50.05 19.705 49.45 19.705Z" fill="#00437F"/>
<path d="M51.39 18.905C50.66 18.905 50.06 18.315 50.06 17.575C50.06 16.835 50.65 16.245 51.39 16.245C52.13 16.245 52.72 16.835 52.72 17.575C52.72 18.315 52.13 18.905 51.39 18.905ZM51.39 16.505C50.8 16.505 50.31 16.985 50.31 17.585C50.31 18.185 50.79 18.665 51.39 18.665C51.99 18.665 52.47 18.185 52.47 17.585C52.47 16.985 51.99 16.505 51.39 16.505Z" fill="#00437F"/>
<path d="M47.4 18.905C46.67 18.905 46.07 18.315 46.07 17.575C46.07 16.835 46.66 16.245 47.4 16.245C48.14 16.245 48.73 16.835 48.73 17.575C48.73 18.315 48.14 18.905 47.4 18.905ZM47.4 16.505C46.81 16.505 46.32 16.985 46.32 17.585C46.32 18.185 46.8 18.665 47.4 18.665C48 18.665 48.48 18.185 48.48 17.585C48.48 16.985 48 16.505 47.4 16.505Z" fill="#00437F"/>
<path d="M54.77 55.575H54.52V85.025H54.77V55.575Z" fill="#00437F"/>
<path d="M57.68 55.575H57.43V85.025H57.68V55.575Z" fill="#00437F"/>
<path d="M186.69 84.895H2.41998V85.145H186.69V84.895Z" fill="#00437F"/>
<path d="M186.69 75.865H85.67V76.115H186.69V75.865Z" fill="#00437F"/>
<path d="M207.59 33.185H174.71V33.435H207.59V33.185Z" fill="#00437F"/>
<path d="M207.59 42.125H183.09V42.375H207.59V42.125Z" fill="#00437F"/>
<path d="M173.89 42.125H170.69V42.375H173.89V42.125Z" fill="#00437F"/>
<path d="M17.12 55.575H16.87V64.315H17.12V55.575Z" fill="#00437F"/>
<path d="M37.4 64.315H37.15V85.015H37.4V64.315Z" fill="#00437F"/>
<path d="M37.27 64.195H25.5V64.445H37.27V64.195Z" fill="#00437F"/>
<path d="M11.58 67.035L11.4 66.865L13.85 64.235L14.03 64.405L11.58 67.035Z" fill="#00437F"/>
<path d="M23.18 66.955H22.93V82.385H23.18V66.955Z" fill="#00437F"/>
<path d="M25.71 64.195H13.94V64.445H25.71V64.195Z" fill="#00437F"/>
<path d="M23.15 67.035L22.97 66.865L25.41 64.235L25.6 64.405L23.15 67.035Z" fill="#00437F"/>
<path d="M11.62 66.955H11.37V82.385H11.62V66.955Z" fill="#00437F"/>
<path d="M25.41 85.105L22.97 82.465L23.15 82.295L25.6 84.935L25.41 85.105Z" fill="#00437F"/>
<path d="M13.85 85.105L11.4 82.465L11.58 82.295L14.03 84.935L13.85 85.105Z" fill="#00437F"/>
<path d="M133.1 53.285H132.85V6.285H100.63V6.035H133.1V53.285Z" fill="#00437F"/>
<path d="M132.98 53.155H97.09V53.405H132.98V53.155Z" fill="#00437F"/>
<path d="M131.92 57.775L131.67 57.705L132.86 53.255L133.1 53.315L131.92 57.775Z" fill="#00437F"/>
<path d="M131.8 57.865H96.35V55.575H96.6V57.615H131.8V57.865Z" fill="#00437F"/>
<path d="M168.05 4.335H167.8V75.985H168.05V4.335Z" fill="#00437F"/>
<path d="M135.93 4.335H135.68V55.515H135.93V4.335Z" fill="#00437F"/>
<path d="M167.93 52.395H148.01L155.04 47.515H167.93V47.765H155.12L148.81 52.145H167.93V52.395Z" fill="#00437F"/>
<path d="M85.8 75.985H85.55V85.015H85.8V75.985Z" fill="#00437F"/>
<path d="M186.81 75.985H186.56V85.015H186.81V75.985Z" fill="#00437F"/>
<path d="M190.322 51.2003L179.325 75.9468L179.554 76.0483L190.551 51.3018L190.322 51.2003Z" fill="#00437F"/>
<path d="M189.655 33.2587L185.642 42.1996L185.871 42.3019L189.883 33.361L189.655 33.2587Z" fill="#00437F"/>
<path d="M174.599 33.2685L170.586 42.2093L170.814 42.3117L174.827 33.3708L174.599 33.2685Z" fill="#00437F"/>
<path d="M182.888 42.1678L167.871 75.9612L168.099 76.0627L183.117 42.2693L182.888 42.1678Z" fill="#00437F"/>
<path d="M173.793 42.1991L167.815 55.5191L168.043 55.6215L174.021 42.3014L173.793 42.1991Z" fill="#00437F"/>
<path d="M207.71 33.315H207.46V42.255H207.71V33.315Z" fill="#00437F"/>
<path d="M203.67 49.335H192.29V42.125H203.67V49.335ZM192.54 49.085H203.42V42.375H192.54V49.085Z" fill="#00437F"/>
<path d="M168.05 88.625H85.55V84.895H168.06V88.625H168.05ZM85.79 88.375H167.8V85.145H85.8V88.375H85.79Z" fill="#00437F"/>
<path d="M192.54 49.335H189.29V42.125H192.54V49.335ZM189.54 49.085H192.29V42.375H189.54V49.085Z" fill="#00437F"/>
<path d="M203.67 51.415H189.29V49.085H203.67V51.415ZM189.54 51.165H203.42V49.335H189.54V51.165Z" fill="#00437F"/>
<path d="M85.8 88.625H13.81V84.895H85.8V88.625ZM14.07 88.375H85.55V85.145H14.06V88.375H14.07Z" fill="#00437F"/>
<path d="M86.1 88.925H85.1V75.505H187.17V76.505H86.1V88.925Z" fill="#00437F"/>
<path d="M14.52 88.435H13.52V85.265L11.1 82.535L11.01 66.815L13.76 63.865H16.53V55.035L97 55.005V57.225H131.48L132.08 55.095H167.92V56.095H132.84L132.24 58.225H96V56.005L17.53 56.035V64.865H14.19L12.01 67.205L12.1 82.145L14.52 84.885V88.435Z" fill="#00437F"/>
<path d="M101.09 45.395H68.97L68.86 41.965H66.64V30.465H68.37L67.13 4.595H55.73V3.595H68.08L69.42 31.465H67.64V40.965H69.83L69.94 44.395H100.09V2.475H101.09V45.395Z" fill="#00437F"/>
<path d="M132.94 55.715L131.97 55.485L132.5 53.315L132.44 6.435L120.29 6.415V5.415L133.44 5.435L133.5 53.435L132.94 55.715Z" fill="#00437F"/>
<path d="M38.86 3.475H37.86V55.325H38.86V3.475Z" fill="#00437F"/>
</g>
<defs>
<clipPath id="clip0_196_2641">
<rect width="209.16" height="89.99" fill="white" transform="translate(0.419983 0.505001)"/>
</clipPath>
</defs>
</svg>
