<svg width="96" height="91" viewBox="0 0 96 91" fill="none" xmlns="http://www.w3.org/2000/svg">
<g clip-path="url(#clip0_196_2516)">
<path d="M81.02 2.56C81.43 2.56 81.77 2.9 81.77 3.31V13.16C81.77 13.28 81.87 13.38 81.99 13.38H82.59C82.71 13.38 82.81 13.48 82.81 13.6V23.63C82.81 23.63 82.81 23.67 82.81 23.69L80.51 32.12C80.47 32.26 80.58 32.4 80.73 32.4H85.04C85.16 32.4 85.26 32.5 85.26 32.62V57.26C85.26 57.38 85.36 57.48 85.48 57.48H92.97C93.09 57.48 93.19 57.58 93.19 57.7V58.39C93.19 58.51 93.09 58.61 92.97 58.61H85.48C85.36 58.61 85.26 58.71 85.26 58.83V80.77C85.26 80.89 85.16 80.99 85.04 80.99H82.27C82.15 80.99 82.05 81.09 82.05 81.21V88.16C82.05 88.28 81.95 88.38 81.83 88.38H28.9C28.78 88.38 28.68 88.28 28.68 88.16V81.21C28.68 81.09 28.58 80.99 28.46 80.99H25.45C25.33 80.99 25.23 80.89 25.23 80.77V77.72C25.23 77.6 25.33 77.5 25.45 77.5H28.53C28.62 77.5 28.7 77.45 28.74 77.36L31.32 71.11C31.38 70.96 31.27 70.8 31.11 70.8H25.45C25.33 70.8 25.23 70.7 25.23 70.58V62.26C25.23 62.14 25.13 62.04 25.01 62.04H15.39C15.27 62.04 15.17 61.94 15.17 61.82V57.68C15.17 57.57 15.09 57.47 14.98 57.46L3.01 55.78C2.9 55.76 2.82 55.67 2.82 55.56V47.36C2.82 47.24 2.92 47.14 3.04 47.14L28.62 47.4C28.74 47.4 28.84 47.5 28.84 47.62V55.77C28.84 55.89 28.94 55.99 29.06 55.99H31.21C31.33 55.99 31.43 55.89 31.43 55.77V32.62C31.43 32.5 31.53 32.4 31.65 32.4H40.18C40.33 32.4 40.43 32.26 40.4 32.12L40.24 31.51C40.21 31.41 40.12 31.34 40.02 31.34H39.34C39.22 31.34 39.12 31.24 39.12 31.12V5.27C39.12 5.15 39.22 5.05 39.34 5.05H57.72C57.84 5.05 57.94 4.95 57.94 4.83V3.54C57.94 3 58.37 2.57 58.91 2.57H62.97C63.55 2.57 64.02 3.04 64.02 3.62V13.16C64.02 13.28 64.12 13.38 64.24 13.38H71.29C71.41 13.38 71.51 13.28 71.51 13.16V12.57H71.97L72.01 6.45H71.51V3.31C71.51 2.9 71.85 2.56 72.26 2.56H80.99M80.99 0.560001H72.26C70.74 0.560001 69.51 1.79 69.51 3.31V8.45H69.99V10.57H69.51V11.38H66.01V3.61C66.01 1.93 64.64 0.560001 62.96 0.560001H58.9C57.43 0.560001 56.2 1.63 55.97 3.04H39.32C38.09 3.04 37.1 4.04 37.1 5.26V30.42H31.64C30.41 30.42 29.42 31.42 29.42 32.64V45.57C29.17 45.47 28.9 45.41 28.62 45.41L3.04 45.15C1.79 45.15 0.790001 46.15 0.790001 47.37V55.57C0.790001 56.67 1.61 57.62 2.71 57.77L13.15 59.24V61.84C13.15 63.07 14.15 64.06 15.37 64.06H23.19V70.6C23.19 71.83 24.19 72.82 25.41 72.82H28.42L27.31 75.52H25.41C24.18 75.52 23.19 76.52 23.19 77.74V80.79C23.19 82.02 24.19 83.01 25.41 83.01H26.64V88.18C26.64 89.41 27.64 90.4 28.86 90.4H81.77C83 90.4 83.99 89.4 83.99 88.18V83.01H84.99C86.22 83.01 87.21 82.01 87.21 80.79V60.62H92.92C94.15 60.62 95.14 59.62 95.14 58.4V57.71C95.14 56.48 94.14 55.49 92.92 55.49H87.21V32.62C87.21 31.39 86.21 30.4 84.99 30.4H83.01L84.7 24.21C84.75 24.02 84.78 23.82 84.78 23.62V13.61C84.78 12.82 84.36 12.12 83.73 11.72V3.31C83.73 1.79 82.5 0.560001 80.98 0.560001H80.99Z" fill="#00437F"/>
<path d="M57.75 5.04H39.34C39.22 5.04 39.13 5.13 39.13 5.25V31.14C39.13 31.26 39.22 31.35 39.34 31.35H40.05C40.15 31.35 40.23 31.41 40.25 31.51L40.42 32.15C40.45 32.28 40.35 32.41 40.22 32.41H31.66C31.54 32.41 31.45 32.5 31.45 32.62V55.8C31.45 55.92 31.36 56.01 31.24 56.01H29.06C28.94 56.01 28.85 55.92 28.85 55.8V47.62C28.85 47.5 28.76 47.41 28.64 47.41L3.03 47.15C2.91 47.15 2.82 47.24 2.82 47.36V55.59C2.82 55.7 2.9 55.78 3 55.8L15 57.48C15.1 57.49 15.18 57.58 15.18 57.69V61.86C15.18 61.98 15.27 62.07 15.39 62.07H25.02C25.14 62.07 25.23 62.16 25.23 62.28V70.62C25.23 70.74 25.32 70.83 25.44 70.83H31.14C31.29 70.83 31.39 70.98 31.34 71.12L28.75 77.4C28.72 77.48 28.64 77.53 28.55 77.53H25.44C25.32 77.53 25.23 77.62 25.23 77.74V80.82C25.23 80.94 25.32 81.03 25.44 81.03H28.48C28.6 81.03 28.69 81.12 28.69 81.24V88.22C28.69 88.34 28.78 88.43 28.9 88.43H81.84C81.96 88.43 82.05 88.34 82.05 88.22V81.24C82.05 81.12 82.14 81.03 82.26 81.03H85.06C85.18 81.03 85.27 80.94 85.27 80.82V58.85C85.27 58.73 85.36 58.64 85.48 58.64H92.99C93.11 58.64 93.2 58.55 93.2 58.43V57.71C93.2 57.59 93.11 57.5 92.99 57.5H85.48C85.36 57.5 85.27 57.41 85.27 57.29V32.62C85.27 32.5 85.18 32.41 85.06 32.41H80.72C80.58 32.41 80.48 32.28 80.52 32.14L82.83 23.69C82.83 23.69 82.83 23.65 82.83 23.63V13.6C82.83 13.48 82.74 13.39 82.62 13.39H81.99C81.87 13.39 81.78 13.3 81.78 13.18V3.3C81.78 2.89 81.45 2.56 81.04 2.56H72.03C71.76 2.56 71.55 2.78 71.55 3.04V6.45H72.05L72.01 12.57H71.55V13.17C71.55 13.29 71.46 13.38 71.34 13.38H64.27C64.15 13.38 64.06 13.29 64.06 13.17V3.6C64.06 3.02 63.59 2.56 63.02 2.56H58.93C58.4 2.56 57.97 2.99 57.97 3.52V4.83C57.97 4.95 57.88 5.04 57.76 5.04H57.75Z" fill="#D4E9F4"/>
<g opacity="0.4">
<path d="M85.26 77.54H71.89V77.52L69.42 70.84H31.44L28.68 77.54H25.22V81.04H28.68V88.44H82.04V81.04H85.26V77.54Z" fill="white"/>
</g>
<g opacity="0.5">
<path d="M48.82 5.04H39.13V31.35H48.82V5.04Z" fill="white"/>
</g>
<g opacity="0.5">
<path d="M60.81 5.04V35.38H52.03C52.03 35.38 50.72 34.07 49.62 32.97L49.57 33.15H49.23L48.13 37.53H47.75L47.58 38.15H42.64L42.47 37.53H42.09L40.99 33.15H40.65L40.18 31.36H39.1V5.04H48.79H60.78H60.81Z" fill="white"/>
</g>
<g opacity="0.2">
<path d="M15.17 57.63L2.68 55.88V47.02L22.15 47.29L22.18 55.89H51.9V47.34H69.4V55.92L74.69 57.63H15.17Z" fill="#00437F"/>
<path d="M2.81 47.15L22.03 47.42L22.06 56.02H52.03V47.47H69.28V56.02L73.9 57.52H15.17L2.81 55.78V47.16M2.56 46.91V56L2.78 56.03L15.14 57.77H73.91H75.5L73.99 57.28L69.54 55.84V47.22H51.79V55.77H22.31L22.28 47.42V47.17H22.03L2.81 46.9H2.56V46.91Z" fill="#00437F"/>
</g>
<g opacity="0.4">
<path d="M28.85 47.38H22.03V55.98H28.85V47.38Z" fill="#00437F"/>
</g>
<g opacity="0.4">
<path d="M80.37 57.51H73.9L69.28 56.01V47.38H80.37V57.51Z" fill="#00437F"/>
</g>
<path d="M47.97 38.65H42.27L42.1 38.03H41.71L40.62 33.65H40.29L39.82 31.86H38.62V4.54H61.3V35.88H51.81L49.6 33.67L48.51 38.03H48.12L47.95 38.65H47.97ZM43.03 37.65H47.2L47.37 37.03H47.74L48.84 32.65H49.19L49.37 32.01L52.24 34.88H60.31V5.54H39.63V30.86H40.6L41.07 32.65H41.41L42.5 37.03H42.87L43.04 37.65H43.03Z" fill="#00437F"/>
<path d="M40.49 32.29H31.44V32.54H40.49V32.29Z" fill="#00437F"/>
<path d="M84.26 32.29H80.43V32.54H84.26V32.29Z" fill="#00437F"/>
<path d="M31.57 32.41H31.32V56.01H31.57V32.41Z" fill="#00437F"/>
<path d="M84.39 77.66H28.68V77.41H84.14V58.64H84.39V77.66Z" fill="#00437F"/>
<path d="M84.39 32.41H84.14V57.5H84.39V32.41Z" fill="#00437F"/>
<path d="M85.39 77.66H84.26V77.41H85.14V58.64H85.39V77.66Z" fill="#00437F"/>
<path d="M85.39 57.51H85.14V32.54H84.26V32.29H85.39V57.51Z" fill="#00437F"/>
<path d="M48.94 31.48H39V4.92H48.94V31.48ZM39.25 31.23H48.69V5.17H39.25V31.23Z" fill="#00437F"/>
<path d="M51.21 5.04H50.96V31.37H51.21V5.04Z" fill="#00437F"/>
<path d="M60.93 5.04H60.68V35.38H60.93V5.04Z" fill="#00437F"/>
<path d="M60.72 35.47L56.7 31.44L56.87 31.27L60.9 35.29L60.72 35.47Z" fill="#00437F"/>
<path d="M51.94 35.47L49.53 33.06L49.71 32.88L52.12 35.29L51.94 35.47Z" fill="#00437F"/>
<path d="M56.79 31.23H48.82V31.48H56.79V31.23Z" fill="#00437F"/>
<path d="M60.81 35.25H52.03V35.5H60.81V35.25Z" fill="#00437F"/>
<path d="M47.69 38.27H42.56L42.39 37.66H42.01L40.92 33.27H40.58L40.09 31.39L40.33 31.32L40.77 33.02H41.11L42.21 37.41H42.59L42.75 38.02H47.5L47.66 37.41H48.04L49.13 33.02H49.47L49.95 31.32L50.19 31.39L49.67 33.27H49.33L48.23 37.66H47.85L47.69 38.27Z" fill="#00437F"/>
<path d="M60.81 4.92H48.82V5.17H60.81V4.92Z" fill="#00437F"/>
<path d="M79.68 35.52H60.68V13.26H82.94V23.7L79.68 35.52ZM60.93 35.27H79.49L82.69 23.65V13.51H60.93V35.27Z" fill="#00437F"/>
<path d="M75.38 13.39H75.13V35.4H75.38V13.39Z" fill="#00437F"/>
<path d="M73.63 24.52H70.88C70.34 24.52 69.9 24.08 69.9 23.54V16.57C69.9 16.03 70.34 15.59 70.88 15.59H73.63C74.17 15.59 74.61 16.03 74.61 16.57V23.54C74.61 24.08 74.17 24.52 73.63 24.52ZM70.88 15.84C70.48 15.84 70.15 16.17 70.15 16.57V23.54C70.15 23.94 70.48 24.27 70.88 24.27H73.63C74.03 24.27 74.36 23.94 74.36 23.54V16.57C74.36 16.17 74.03 15.84 73.63 15.84H70.88Z" fill="#00437F"/>
<path d="M67.41 22.49H64.06C63.46 22.49 62.98 22 62.98 21.41V18.29C62.98 17.69 63.47 17.21 64.06 17.21H67.41C68.01 17.21 68.49 17.7 68.49 18.29V21.41C68.49 22.01 68 22.49 67.41 22.49ZM64.06 17.46C63.6 17.46 63.23 17.83 63.23 18.29V21.41C63.23 21.87 63.6 22.24 64.06 22.24H67.41C67.87 22.24 68.24 21.87 68.24 21.41V18.29C68.24 17.83 67.87 17.46 67.41 17.46H64.06Z" fill="#00437F"/>
<path d="M68.42 24.11H62.36C61.82 24.11 61.38 23.67 61.38 23.13V16.56C61.38 16.02 61.82 15.58 62.36 15.58H68.42C68.96 15.58 69.4 16.02 69.4 16.56V23.13C69.4 23.67 68.96 24.11 68.42 24.11ZM62.36 15.83C61.96 15.83 61.63 16.16 61.63 16.56V23.13C61.63 23.53 61.96 23.86 62.36 23.86H68.42C68.82 23.86 69.15 23.53 69.15 23.13V16.56C69.15 16.16 68.82 15.83 68.42 15.83H62.36Z" fill="#00437F"/>
<path d="M73.4 34.83H62.59C61.92 34.83 61.38 34.29 61.38 33.62V26.43C61.38 25.76 61.92 25.22 62.59 25.22H73.4C74.07 25.22 74.61 25.76 74.61 26.43V33.62C74.61 34.29 74.07 34.83 73.4 34.83ZM62.59 25.46C62.06 25.46 61.63 25.89 61.63 26.42V33.61C61.63 34.14 62.06 34.57 62.59 34.57H73.4C73.93 34.57 74.36 34.14 74.36 33.61V26.42C74.36 25.89 73.93 25.46 73.4 25.46H62.59Z" fill="#00437F"/>
<path d="M72.27 23.38C72.02 23.38 71.81 23.17 71.81 22.92V22.83C71.81 22.71 71.72 22.62 71.6 22.62H71.53C71.28 22.62 71.07 22.41 71.07 22.16C71.07 21.91 71.28 21.7 71.53 21.7H71.6C71.72 21.7 71.81 21.61 71.81 21.49V21.32C71.81 21.07 72.02 20.86 72.27 20.86C72.52 20.86 72.73 21.07 72.73 21.32V21.49C72.73 21.61 72.82 21.7 72.94 21.7H73.05C73.3 21.7 73.51 21.91 73.51 22.16C73.51 22.43 73.3 22.64 73.05 22.64H72.94C72.82 22.64 72.73 22.73 72.73 22.85V22.93C72.73 23.18 72.52 23.39 72.27 23.39V23.38ZM71.53 21.94C71.41 21.94 71.32 22.03 71.32 22.15C71.32 22.27 71.41 22.36 71.53 22.36H71.6C71.85 22.36 72.06 22.57 72.06 22.82V22.91C72.06 23.03 72.15 23.12 72.27 23.12C72.39 23.12 72.48 23.03 72.48 22.91V22.83C72.48 22.58 72.69 22.37 72.94 22.37H73.05C73.17 22.37 73.26 22.28 73.26 22.16C73.26 22.02 73.17 21.93 73.05 21.93H72.94C72.69 21.93 72.48 21.72 72.48 21.47V21.3C72.48 21.18 72.39 21.09 72.27 21.09C72.15 21.09 72.06 21.18 72.06 21.3V21.47C72.06 21.72 71.85 21.93 71.6 21.93H71.53V21.94Z" fill="#00437F"/>
<path d="M75.82 13.51H71.42V12.45H75.82V13.51ZM71.67 13.26H75.57V12.7H71.67V13.26Z" fill="#00437F"/>
<path d="M75.82 6.58H72.04C71.7 6.58 71.42 6.3 71.42 5.96V3.06C71.42 2.72 71.7 2.44 72.04 2.44H75.82V6.58ZM72.04 2.69C71.84 2.69 71.67 2.86 71.67 3.06V5.96C71.67 6.16 71.84 6.33 72.04 6.33H75.57V2.68H72.04V2.69Z" fill="#00437F"/>
<path d="M81.9 6.58H75.57V2.43H81.02C81.51 2.43 81.9 2.83 81.9 3.31V6.57V6.58ZM75.82 6.33H81.65V3.32C81.65 2.97 81.37 2.69 81.02 2.69H75.82V6.33Z" fill="#00437F"/>
<path d="M75.36 12.7H71.87V6.33H75.36V12.7ZM72.12 12.45H75.11V6.58H72.12V12.45Z" fill="#00437F"/>
<path d="M15.15 57.63L2.68 55.88V47.02H2.81L22.15 47.29L22.18 55.89H51.9V47.34H69.4V56.01H69.15V47.59H52.15V56.14H21.93L21.9 47.54L2.93 47.28V55.66L15.19 57.38L15.15 57.63Z" fill="#00437F"/>
<path d="M81.9 13.51H78.41V6.33H81.9V13.51ZM78.66 13.26H81.65V6.58H78.66V13.26Z" fill="#00437F"/>
<path d="M64.17 13.51H60.68V3.69H64.17V13.51ZM60.93 13.26H63.92V3.94H60.93V13.26Z" fill="#00437F"/>
<path d="M64.17 47.54H51.9V35.27H64.17V47.54ZM52.15 47.29H63.92V35.52H52.15V47.29Z" fill="#00437F"/>
<path d="M60.81 5.17H57.84V3.47C57.84 2.9 58.3 2.44 58.87 2.44H63.15C63.72 2.44 64.18 2.9 64.18 3.47V3.82H63.93V3.47C63.93 3.04 63.58 2.69 63.15 2.69H58.87C58.44 2.69 58.09 3.04 58.09 3.47V4.92H60.81V5.17Z" fill="#00437F"/>
<path d="M64.05 47.29H52.03V47.54H64.05V47.29Z" fill="#00437F"/>
<path d="M64.05 46.54H52.03V46.79H64.05V46.54Z" fill="#00437F"/>
<path d="M64.05 45.79H52.03V46.04H64.05V45.79Z" fill="#00437F"/>
<path d="M64.05 45.03H52.03V45.28H64.05V45.03Z" fill="#00437F"/>
<path d="M64.05 44.28H52.03V44.53H64.05V44.28Z" fill="#00437F"/>
<path d="M64.05 43.53H52.03V43.78H64.05V43.53Z" fill="#00437F"/>
<path d="M64.05 42.78H52.03V43.03H64.05V42.78Z" fill="#00437F"/>
<path d="M64.05 42.03H52.03V42.28H64.05V42.03Z" fill="#00437F"/>
<path d="M64.05 41.27H52.03V41.52H64.05V41.27Z" fill="#00437F"/>
<path d="M64.05 40.52H52.03V40.77H64.05V40.52Z" fill="#00437F"/>
<path d="M64.05 39.77H52.03V40.02H64.05V39.77Z" fill="#00437F"/>
<path d="M64.05 39.02H52.03V39.27H64.05V39.02Z" fill="#00437F"/>
<path d="M64.05 38.26H52.03V38.51H64.05V38.26Z" fill="#00437F"/>
<path d="M64.05 37.51H52.03V37.76H64.05V37.51Z" fill="#00437F"/>
<path d="M64.05 36.76H52.03V37.01H64.05V36.76Z" fill="#00437F"/>
<path d="M64.05 36.01H52.03V36.26H64.05V36.01Z" fill="#00437F"/>
<path d="M49.23 33.02H41.02V33.27H49.23V33.02Z" fill="#00437F"/>
<path d="M47.76 37.41H42.49V37.66H47.76V37.41Z" fill="#00437F"/>
<path d="M46.96 38.27H45.89L46.13 37.41H46.5L47.6 33.02H47.94L48.41 31.32L48.66 31.39L48.13 33.27H47.79L46.7 37.66H46.32L46.22 38.02H46.76L46.93 37.41H47.31L48.4 33.02H48.74L49.22 31.32L49.46 31.39L48.93 33.27H48.6L47.5 37.66H47.12L46.96 38.27Z" fill="#00437F"/>
<path d="M80.56 57.63H73.86L69.15 56.1V47.33H80.56V57.62V57.63ZM73.92 57.38H80.31V47.59H69.4V55.92L73.92 57.38Z" fill="#00437F"/>
<path d="M93.32 58.77H81.91V57.38H93.32V58.77ZM82.16 58.52H93.07V57.63H82.16V58.52Z" fill="#00437F"/>
<path d="M93.32 58.77H15.04V57.38H93.32V58.77ZM15.3 58.52H93.07V57.63H15.29V58.52H15.3Z" fill="#00437F"/>
<path d="M28.97 56.01H28.72V47.54H22.03V47.29H28.97V56.01Z" fill="#00437F"/>
<path d="M80.56 62.2H15.04V58.52H80.56V62.2ZM15.3 61.95H80.31V58.77H15.29V61.95H15.3Z" fill="#00437F"/>
<path d="M69.4 58.64H69.15V62.07H69.4V58.64Z" fill="#00437F"/>
<path d="M69.4 70.96H25.09V61.94H69.4V70.96ZM25.34 70.71H69.15V62.19H25.34V70.71Z" fill="#00437F"/>
<path d="M81 69.52H72.82L70.5 66.63L70.56 66.55L72.82 63.46H81L83.42 66.49L81 69.52ZM72.94 69.27H80.88L83.1 66.49L80.88 63.71H72.94L70.81 66.62L72.93 69.26L72.94 69.27Z" fill="#00437F"/>
<path d="M72.78 69.47L70.56 66.7L70.75 66.55L72.98 69.31L72.78 69.47Z" fill="#00437F"/>
<path d="M70.76 66.7L70.56 66.55L72.78 63.52L72.98 63.66L70.76 66.7Z" fill="#00437F"/>
<path d="M76.55 69.47L74.32 66.7L74.52 66.55L76.74 69.31L76.55 69.47Z" fill="#00437F"/>
<path d="M74.52 66.7L74.32 66.55L76.54 63.52L76.75 63.66L74.52 66.7Z" fill="#00437F"/>
<path d="M77.97 69.47L75.75 66.7L75.94 66.55L78.17 69.31L77.97 69.47Z" fill="#00437F"/>
<path d="M75.95 66.7L75.75 66.55L77.97 63.52L78.17 63.66L75.95 66.7Z" fill="#00437F"/>
<path d="M80.56 62.07H80.31V63.59H80.56V62.07Z" fill="#00437F"/>
<path d="M80.44 70.71H69.28V70.96H80.44V70.71Z" fill="#00437F"/>
<path d="M80.56 69.39H80.31V70.84H80.56V69.39Z" fill="#00437F"/>
<path d="M49.8 70.96H27.14V67.39H49.8V70.96ZM27.39 70.71H49.55V67.64H27.39V70.71Z" fill="#00437F"/>
<path d="M48.75 67.52H48.5V70.84H48.75V67.52Z" fill="#00437F"/>
<path d="M49.8 66.45H49.55V67.51H49.8V66.45Z" fill="#00437F"/>
<path d="M51.49 70.84H51.24V66.58H28.55V67.52H28.3V66.33H51.49V70.84Z" fill="#00437F"/>
<path d="M51.49 65.41H51.24V66.47H51.49V65.41Z" fill="#00437F"/>
<path d="M53.17 70.84H52.92V65.54H30.23V66.48H29.98V65.29H53.17V70.84Z" fill="#00437F"/>
<path d="M53.17 64.34H52.92V65.4H53.17V64.34Z" fill="#00437F"/>
<path d="M57.98 70.84H57.73V64.46H31.92V65.4H31.67V64.21H57.98V70.84Z" fill="#00437F"/>
<path d="M31.3235 70.7933L28.5602 77.4744L28.7912 77.57L31.5545 70.8889L31.3235 70.7933Z" fill="#00437F"/>
<path d="M48.67 77.56L46.2 70.88L46.43 70.79L48.91 77.47L48.67 77.56Z" fill="#00437F"/>
<path d="M71.78 77.56L69.3 70.88L69.54 70.79L72.01 77.47L71.78 77.56Z" fill="#00437F"/>
<path d="M85.39 81.16H25.09V77.41H85.38V81.16H85.39ZM25.35 80.91H85.14V77.66H25.34V80.91H25.35Z" fill="#00437F"/>
<path d="M82.16 88.56H28.55V80.91H82.16V88.56ZM28.8 88.31H81.91V81.16H28.8V88.31Z" fill="#00437F"/>
<path d="M48.75 81.04H48.5V88.44H48.75V81.04Z" fill="#00437F"/>
<path d="M60.58 88.51L57.75 84.81L57.95 84.66L60.78 88.36L60.58 88.51Z" fill="#00437F"/>
<path d="M65.01 88.51L62.18 84.81L62.38 84.66L65.21 88.36L65.01 88.51Z" fill="#00437F"/>
<path d="M62.28 84.61H57.85V84.86H62.28V84.61Z" fill="#00437F"/>
<path d="M57.98 84.74H57.73V88.44H57.98V84.74Z" fill="#00437F"/>
<path d="M73.38 88.51L70.56 84.81L70.76 84.66L73.58 88.36L73.38 88.51Z" fill="#00437F"/>
<path d="M77.81 88.51L74.99 84.81L75.19 84.66L78.01 88.36L77.81 88.51Z" fill="#00437F"/>
<path d="M75.09 84.61H70.66V84.86H75.09V84.61Z" fill="#00437F"/>
<path d="M70.78 84.74H70.53V88.44H70.78V84.74Z" fill="#00437F"/>
<path d="M63.49 53.38H57.06V51.13H63.49V53.38ZM57.31 53.13H63.24V51.38H57.31V53.13Z" fill="#00437F"/>
<path d="M41.02 49.13H38.77V42.7H41.02V49.13ZM39.02 48.88H40.77V42.95H39.02V48.88Z" fill="#00437F"/>
<path d="M78.47 53.38H72.04V51.13H78.47V53.38ZM72.29 53.13H78.22V51.38H72.29V53.13Z" fill="#00437F"/>
<g opacity="0.2">
<path d="M48.53 31.36L48.04 33.15H47.7L46.6 37.53H46.22L46.06 38.15H46.86L47.03 37.53H47.4L48.5 33.15H48.84L49.34 31.36" fill="#00437F"/>
</g>
<g opacity="0.2">
<path d="M60.81 13.39H82.82V23.67L79.59 35.4H60.81V13.39Z" fill="#00437F"/>
</g>
<g opacity="0.4">
<path d="M72.88 63.59L70.66 66.63L72.88 69.39H80.94L83.26 66.49L80.94 63.59H72.88Z" fill="white"/>
</g>
<g opacity="0.4">
<path d="M76.64 63.59L74.42 66.63L76.64 69.39H80.94L83.26 66.49L80.94 63.59H76.64Z" fill="#00437F"/>
</g>
<path d="M79.97 35.9H60.31V12.89H83.32L83.3 23.81L79.97 35.9ZM61.31 34.9H79.21L82.32 23.61V13.89H61.31V34.9Z" fill="#00437F"/>
<path d="M81.18 69.89H72.64L70.03 66.64L72.63 63.09H81.18L83.9 66.49L81.18 69.89ZM73.12 68.89H80.7L82.62 66.49L80.7 64.09H73.13L71.28 66.61L73.11 68.89H73.12Z" fill="#00437F"/>
<path d="M80.87 58.01H15.17L2.31 56.21V46.64L21.6 46.91L22.02 46.88H29.34V55.48L51.53 55.52V46.97H69.28L80.87 46.88V58.01ZM3.31 55.34L15.24 57.01H79.87V47.88L69.28 47.96H52.53V56.51L28.34 56.47V47.88L22.02 47.92L3.31 47.66V55.34Z" fill="#00437F"/>
<path d="M53.54 77.54H53.29V81.04H53.54V77.54Z" fill="#00437F"/>
</g>
<defs>
<clipPath id="clip0_196_2516">
<rect width="94.38" height="89.88" fill="white" transform="translate(0.809998 0.560001)"/>
</clipPath>
</defs>
</svg>
