<svg width="379" height="122" viewBox="0 0 379 122" fill="none" xmlns="http://www.w3.org/2000/svg">
<rect x="0.5" width="378" height="122" rx="8" fill="#00437F"/>
<path d="M21.812 34.224C20.4253 34.224 19.3267 33.84 18.516 33.072C17.7053 32.2933 17.3 31.184 17.3 29.744V27.056C17.3 25.616 17.7053 24.512 18.516 23.744C19.3267 22.9653 20.4253 22.576 21.812 22.576C23.188 22.576 24.2493 22.9547 24.996 23.712C25.7533 24.4587 26.132 25.488 26.132 26.8V26.896H24.052V26.736C24.052 26.0747 23.8653 25.5307 23.492 25.104C23.1293 24.6773 22.5693 24.464 21.812 24.464C21.0653 24.464 20.4787 24.6933 20.052 25.152C19.6253 25.6107 19.412 26.2347 19.412 27.024V29.776C19.412 30.5547 19.6253 31.1787 20.052 31.648C20.4787 32.1067 21.0653 32.336 21.812 32.336C22.5693 32.336 23.1293 32.1227 23.492 31.696C23.8653 31.2587 24.052 30.7147 24.052 30.064V29.776H26.132V30C26.132 31.312 25.7533 32.3467 24.996 33.104C24.2493 33.8507 23.188 34.224 21.812 34.224ZM30.5309 34.224C29.9655 34.224 29.4589 34.128 29.0109 33.936C28.5629 33.7333 28.2055 33.4453 27.9389 33.072C27.6829 32.688 27.5549 32.224 27.5549 31.68C27.5549 31.136 27.6829 30.6827 27.9389 30.32C28.2055 29.9467 28.5682 29.6693 29.0269 29.488C29.4962 29.296 30.0295 29.2 30.6269 29.2H32.8029V28.752C32.8029 28.3787 32.6855 28.0747 32.4509 27.84C32.2162 27.5947 31.8429 27.472 31.3309 27.472C30.8295 27.472 30.4562 27.5893 30.2109 27.824C29.9655 28.048 29.8055 28.3413 29.7309 28.704L27.8749 28.08C28.0029 27.6747 28.2055 27.3067 28.4829 26.976C28.7709 26.6347 29.1495 26.3627 29.6189 26.16C30.0989 25.9467 30.6802 25.84 31.3629 25.84C32.4082 25.84 33.2349 26.1013 33.8429 26.624C34.4509 27.1467 34.7549 27.904 34.7549 28.896V31.856C34.7549 32.176 34.9042 32.336 35.2029 32.336H35.8429V34H34.4989C34.1042 34 33.7789 33.904 33.5229 33.712C33.2669 33.52 33.1389 33.264 33.1389 32.944V32.928H32.8349C32.7922 33.056 32.6962 33.2267 32.5469 33.44C32.3975 33.6427 32.1629 33.824 31.8429 33.984C31.5229 34.144 31.0855 34.224 30.5309 34.224ZM30.8829 32.592C31.4482 32.592 31.9069 32.4373 32.2589 32.128C32.6215 31.808 32.8029 31.3867 32.8029 30.864V30.704H30.7709C30.3975 30.704 30.1042 30.784 29.8909 30.944C29.6775 31.104 29.5709 31.328 29.5709 31.616C29.5709 31.904 29.6829 32.1387 29.9069 32.32C30.1309 32.5013 30.4562 32.592 30.8829 32.592ZM40.7004 34.224C39.6657 34.224 38.8177 34 38.1564 33.552C37.495 33.104 37.095 32.464 36.9564 31.632L38.8124 31.152C38.887 31.5253 39.0097 31.8187 39.1804 32.032C39.3617 32.2453 39.5804 32.4 39.8364 32.496C40.103 32.5813 40.391 32.624 40.7004 32.624C41.1697 32.624 41.5164 32.544 41.7404 32.384C41.9644 32.2133 42.0764 32.0053 42.0764 31.76C42.0764 31.5147 41.9697 31.328 41.7564 31.2C41.543 31.0613 41.2017 30.9493 40.7324 30.864L40.2844 30.784C39.7297 30.6773 39.223 30.5333 38.7644 30.352C38.3057 30.16 37.9377 29.8987 37.6604 29.568C37.383 29.2373 37.2444 28.8107 37.2444 28.288C37.2444 27.4987 37.5324 26.896 38.1084 26.48C38.6844 26.0533 39.4417 25.84 40.3804 25.84C41.2657 25.84 42.0017 26.0373 42.5884 26.432C43.175 26.8267 43.559 27.344 43.7404 27.984L41.8684 28.56C41.783 28.1547 41.607 27.8667 41.3404 27.696C41.0844 27.5253 40.7644 27.44 40.3804 27.44C39.9964 27.44 39.703 27.5093 39.5004 27.648C39.2977 27.776 39.1964 27.9573 39.1964 28.192C39.1964 28.448 39.303 28.64 39.5164 28.768C39.7297 28.8853 40.0177 28.976 40.3804 29.04L40.8284 29.12C41.4257 29.2267 41.9644 29.3707 42.4444 29.552C42.935 29.7227 43.319 29.9733 43.5964 30.304C43.8844 30.624 44.0284 31.0613 44.0284 31.616C44.0284 32.448 43.7244 33.0933 43.1164 33.552C42.519 34 41.7137 34.224 40.7004 34.224ZM49.241 34.224C48.2063 34.224 47.3583 34 46.697 33.552C46.0357 33.104 45.6357 32.464 45.497 31.632L47.353 31.152C47.4277 31.5253 47.5503 31.8187 47.721 32.032C47.9023 32.2453 48.121 32.4 48.377 32.496C48.6437 32.5813 48.9317 32.624 49.241 32.624C49.7103 32.624 50.057 32.544 50.281 32.384C50.505 32.2133 50.617 32.0053 50.617 31.76C50.617 31.5147 50.5103 31.328 50.297 31.2C50.0837 31.0613 49.7423 30.9493 49.273 30.864L48.825 30.784C48.2703 30.6773 47.7637 30.5333 47.305 30.352C46.8463 30.16 46.4783 29.8987 46.201 29.568C45.9237 29.2373 45.785 28.8107 45.785 28.288C45.785 27.4987 46.073 26.896 46.649 26.48C47.225 26.0533 47.9823 25.84 48.921 25.84C49.8063 25.84 50.5423 26.0373 51.129 26.432C51.7157 26.8267 52.0997 27.344 52.281 27.984L50.409 28.56C50.3237 28.1547 50.1477 27.8667 49.881 27.696C49.625 27.5253 49.305 27.44 48.921 27.44C48.537 27.44 48.2437 27.5093 48.041 27.648C47.8383 27.776 47.737 27.9573 47.737 28.192C47.737 28.448 47.8437 28.64 48.057 28.768C48.2703 28.8853 48.5583 28.976 48.921 29.04L49.369 29.12C49.9663 29.2267 50.505 29.3707 50.985 29.552C51.4757 29.7227 51.8597 29.9733 52.137 30.304C52.425 30.624 52.569 31.0613 52.569 31.616C52.569 32.448 52.265 33.0933 51.657 33.552C51.0597 34 50.2543 34.224 49.241 34.224ZM54.4856 34V26.064H56.5016V34H54.4856ZM55.4936 25.136C55.131 25.136 54.8216 25.0187 54.5656 24.784C54.3203 24.5493 54.1976 24.24 54.1976 23.856C54.1976 23.472 54.3203 23.1627 54.5656 22.928C54.8216 22.6933 55.131 22.576 55.4936 22.576C55.867 22.576 56.1763 22.6933 56.4216 22.928C56.667 23.1627 56.7896 23.472 56.7896 23.856C56.7896 24.24 56.667 24.5493 56.4216 24.784C56.1763 25.0187 55.867 25.136 55.4936 25.136ZM62.6616 34.224C61.8723 34.224 61.163 34.064 60.5336 33.744C59.9043 33.424 59.4083 32.96 59.0456 32.352C58.683 31.744 58.5016 31.0133 58.5016 30.16V29.904C58.5016 29.0507 58.683 28.32 59.0456 27.712C59.4083 27.104 59.9043 26.64 60.5336 26.32C61.163 26 61.8723 25.84 62.6616 25.84C63.451 25.84 64.1603 26 64.7896 26.32C65.419 26.64 65.915 27.104 66.2776 27.712C66.6403 28.32 66.8216 29.0507 66.8216 29.904V30.16C66.8216 31.0133 66.6403 31.744 66.2776 32.352C65.915 32.96 65.419 33.424 64.7896 33.744C64.1603 34.064 63.451 34.224 62.6616 34.224ZM62.6616 32.432C63.2803 32.432 63.7923 32.2347 64.1976 31.84C64.603 31.4347 64.8056 30.8587 64.8056 30.112V29.952C64.8056 29.2053 64.603 28.6347 64.1976 28.24C63.803 27.8347 63.291 27.632 62.6616 27.632C62.043 27.632 61.531 27.8347 61.1256 28.24C60.7203 28.6347 60.5176 29.2053 60.5176 29.952V30.112C60.5176 30.8587 60.7203 31.4347 61.1256 31.84C61.531 32.2347 62.043 32.432 62.6616 32.432ZM72.981 34V22.8H77.845C78.549 22.8 79.1623 22.9227 79.685 23.168C80.2077 23.4133 80.613 23.76 80.901 24.208C81.189 24.656 81.333 25.184 81.333 25.792V25.984C81.333 26.656 81.173 27.2 80.853 27.616C80.533 28.032 80.1383 28.336 79.669 28.528V28.816C80.0957 28.8373 80.4263 28.9867 80.661 29.264C80.8957 29.5307 81.013 29.888 81.013 30.336V34H78.901V30.64C78.901 30.384 78.8317 30.176 78.693 30.016C78.565 29.856 78.3463 29.776 78.037 29.776H75.093V34H72.981ZM75.093 27.856H77.621C78.1223 27.856 78.5117 27.7227 78.789 27.456C79.077 27.1787 79.221 26.816 79.221 26.368V26.208C79.221 25.76 79.0823 25.4027 78.805 25.136C78.5277 24.8587 78.133 24.72 77.621 24.72H75.093V27.856ZM86.9204 34.224C86.131 34.224 85.4324 34.0587 84.8244 33.728C84.227 33.3867 83.7577 32.912 83.4164 32.304C83.0857 31.6853 82.9204 30.96 82.9204 30.128V29.936C82.9204 29.104 83.0857 28.384 83.4164 27.776C83.747 27.1573 84.211 26.6827 84.8084 26.352C85.4057 26.0107 86.099 25.84 86.8884 25.84C87.667 25.84 88.3444 26.016 88.9204 26.368C89.4964 26.7093 89.9444 27.1893 90.2644 27.808C90.5844 28.416 90.7444 29.1253 90.7444 29.936V30.624H84.9684C84.9897 31.168 85.1924 31.6107 85.5764 31.952C85.9604 32.2933 86.4297 32.464 86.9844 32.464C87.5497 32.464 87.9657 32.3413 88.2324 32.096C88.499 31.8507 88.7017 31.5787 88.8404 31.28L90.4884 32.144C90.339 32.4213 90.1204 32.7253 89.8324 33.056C89.555 33.376 89.1817 33.6533 88.7124 33.888C88.243 34.112 87.6457 34.224 86.9204 34.224ZM84.9844 29.12H88.6964C88.6537 28.6613 88.467 28.2933 88.1364 28.016C87.8164 27.7387 87.395 27.6 86.8724 27.6C86.3284 27.6 85.8964 27.7387 85.5764 28.016C85.2564 28.2933 85.059 28.6613 84.9844 29.12ZM92.6887 34V26.064H94.7047V34H92.6887ZM93.6967 25.136C93.3341 25.136 93.0247 25.0187 92.7687 24.784C92.5234 24.5493 92.4007 24.24 92.4007 23.856C92.4007 23.472 92.5234 23.1627 92.7687 22.928C93.0247 22.6933 93.3341 22.576 93.6967 22.576C94.0701 22.576 94.3794 22.6933 94.6247 22.928C94.8701 23.1627 94.9927 23.472 94.9927 23.856C94.9927 24.24 94.8701 24.5493 94.6247 24.784C94.3794 25.0187 94.0701 25.136 93.6967 25.136ZM100.385 34.224C99.3501 34.224 98.5021 34 97.8408 33.552C97.1794 33.104 96.7794 32.464 96.6408 31.632L98.4968 31.152C98.5714 31.5253 98.6941 31.8187 98.8648 32.032C99.0461 32.2453 99.2648 32.4 99.5208 32.496C99.7874 32.5813 100.075 32.624 100.385 32.624C100.854 32.624 101.201 32.544 101.425 32.384C101.649 32.2133 101.761 32.0053 101.761 31.76C101.761 31.5147 101.654 31.328 101.441 31.2C101.227 31.0613 100.886 30.9493 100.417 30.864L99.9688 30.784C99.4141 30.6773 98.9074 30.5333 98.4488 30.352C97.9901 30.16 97.6221 29.8987 97.3448 29.568C97.0674 29.2373 96.9288 28.8107 96.9288 28.288C96.9288 27.4987 97.2168 26.896 97.7928 26.48C98.3688 26.0533 99.1261 25.84 100.065 25.84C100.95 25.84 101.686 26.0373 102.273 26.432C102.859 26.8267 103.243 27.344 103.425 27.984L101.553 28.56C101.467 28.1547 101.291 27.8667 101.025 27.696C100.769 27.5253 100.449 27.44 100.065 27.44C99.6808 27.44 99.3874 27.5093 99.1848 27.648C98.9821 27.776 98.8808 27.9573 98.8808 28.192C98.8808 28.448 98.9874 28.64 99.2008 28.768C99.4141 28.8853 99.7021 28.976 100.065 29.04L100.513 29.12C101.11 29.2267 101.649 29.3707 102.129 29.552C102.619 29.7227 103.003 29.9733 103.281 30.304C103.569 30.624 103.713 31.0613 103.713 31.616C103.713 32.448 103.409 33.0933 102.801 33.552C102.203 34 101.398 34.224 100.385 34.224Z" fill="#F7F9FB"/>
<path d="M179.46 32.5V24.1H182.676C183.18 24.1 183.628 24.2 184.02 24.4C184.42 24.592 184.736 24.868 184.968 25.228C185.2 25.588 185.316 26.024 185.316 26.536V26.692C185.316 27.196 185.196 27.632 184.956 28C184.724 28.36 184.408 28.636 184.008 28.828C183.608 29.02 183.164 29.116 182.676 29.116H180.468V32.5H179.46ZM180.468 28.204H182.568C183.104 28.204 183.528 28.072 183.84 27.808C184.152 27.536 184.308 27.156 184.308 26.668V26.548C184.308 26.06 184.152 25.684 183.84 25.42C183.536 25.148 183.112 25.012 182.568 25.012H180.468V28.204ZM187.067 32.5V24.1H192.239V25.012H188.075V27.82H191.903V28.732H188.075V31.588H192.299V32.5H187.067ZM194.229 32.5V24.1H199.401V25.012H195.237V27.82H199.065V28.732H195.237V31.588H199.461V32.5H194.229ZM201.39 32.5V24.1H204.786C205.306 24.1 205.762 24.192 206.154 24.376C206.554 24.552 206.866 24.808 207.09 25.144C207.314 25.472 207.426 25.868 207.426 26.332V26.464C207.426 27.016 207.294 27.452 207.03 27.772C206.766 28.092 206.454 28.308 206.094 28.42V28.588C206.382 28.596 206.618 28.692 206.802 28.876C206.994 29.052 207.09 29.32 207.09 29.68V32.5H206.094V29.8C206.094 29.56 206.026 29.376 205.89 29.248C205.762 29.12 205.566 29.056 205.302 29.056H202.398V32.5H201.39ZM202.398 28.144H204.69C205.242 28.144 205.666 28.012 205.962 27.748C206.266 27.476 206.418 27.1 206.418 26.62V26.536C206.418 26.056 206.27 25.684 205.974 25.42C205.678 25.148 205.25 25.012 204.69 25.012H202.398V28.144ZM208.965 32.5V31.6H210.141V25H208.965V24.1H212.241C213.345 24.1 214.197 24.38 214.797 24.94C215.405 25.5 215.709 26.36 215.709 27.52V29.08C215.709 30.248 215.405 31.112 214.797 31.672C214.197 32.224 213.345 32.5 212.241 32.5H208.965ZM211.149 31.588H212.241C213.057 31.588 213.673 31.388 214.089 30.988C214.505 30.588 214.713 29.968 214.713 29.128V27.484C214.713 26.628 214.505 26.004 214.089 25.612C213.673 25.22 213.057 25.024 212.241 25.024H211.149V31.588ZM220.754 32.668C220.13 32.668 219.586 32.556 219.122 32.332C218.658 32.108 218.298 31.776 218.042 31.336C217.786 30.888 217.658 30.34 217.658 29.692V24.1H218.654V29.704C218.654 30.392 218.838 30.908 219.206 31.252C219.574 31.596 220.09 31.768 220.754 31.768C221.418 31.768 221.934 31.596 222.302 31.252C222.67 30.908 222.854 30.392 222.854 29.704V24.1H223.862V29.692C223.862 30.34 223.734 30.888 223.478 31.336C223.222 31.776 222.858 32.108 222.386 32.332C221.922 32.556 221.378 32.668 220.754 32.668ZM228.906 32.668C228.298 32.668 227.754 32.56 227.274 32.344C226.794 32.128 226.414 31.804 226.134 31.372C225.862 30.932 225.726 30.384 225.726 29.728V29.476H226.722V29.728C226.722 30.424 226.926 30.944 227.334 31.288C227.742 31.624 228.266 31.792 228.906 31.792C229.562 31.792 230.062 31.644 230.406 31.348C230.75 31.052 230.922 30.68 230.922 30.232C230.922 29.92 230.842 29.672 230.682 29.488C230.53 29.304 230.314 29.156 230.034 29.044C229.754 28.924 229.426 28.82 229.05 28.732L228.426 28.576C227.938 28.448 227.506 28.292 227.13 28.108C226.754 27.924 226.458 27.684 226.242 27.388C226.034 27.084 225.93 26.696 225.93 26.224C225.93 25.752 226.046 25.344 226.278 25C226.518 24.656 226.85 24.392 227.274 24.208C227.706 24.024 228.202 23.932 228.762 23.932C229.33 23.932 229.838 24.032 230.286 24.232C230.742 24.424 231.098 24.712 231.354 25.096C231.618 25.472 231.75 25.948 231.75 26.524V27.028H230.754V26.524C230.754 26.116 230.666 25.788 230.49 25.54C230.322 25.292 230.086 25.108 229.782 24.988C229.486 24.868 229.146 24.808 228.762 24.808C228.21 24.808 227.766 24.932 227.43 25.18C227.094 25.42 226.926 25.764 226.926 26.212C226.926 26.508 226.998 26.748 227.142 26.932C227.286 27.116 227.49 27.268 227.754 27.388C228.018 27.5 228.334 27.6 228.702 27.688L229.326 27.844C229.814 27.948 230.25 28.092 230.634 28.276C231.026 28.452 231.338 28.696 231.57 29.008C231.802 29.312 231.918 29.712 231.918 30.208C231.918 30.704 231.794 31.136 231.546 31.504C231.298 31.872 230.946 32.16 230.49 32.368C230.042 32.568 229.514 32.668 228.906 32.668ZM235.57 32.5V25.012H232.87V24.1H239.278V25.012H236.578V32.5H235.57ZM240.961 32.5V24.1H244.357C244.877 24.1 245.333 24.192 245.725 24.376C246.125 24.552 246.437 24.808 246.661 25.144C246.885 25.472 246.997 25.868 246.997 26.332V26.464C246.997 27.016 246.865 27.452 246.601 27.772C246.337 28.092 246.025 28.308 245.665 28.42V28.588C245.953 28.596 246.189 28.692 246.373 28.876C246.565 29.052 246.661 29.32 246.661 29.68V32.5H245.665V29.8C245.665 29.56 245.597 29.376 245.461 29.248C245.333 29.12 245.137 29.056 244.873 29.056H241.969V32.5H240.961ZM241.969 28.144H244.261C244.813 28.144 245.237 28.012 245.533 27.748C245.837 27.476 245.989 27.1 245.989 26.62V26.536C245.989 26.056 245.841 25.684 245.545 25.42C245.249 25.148 244.821 25.012 244.261 25.012H241.969V28.144ZM250.963 32.5V29.296L247.975 24.1H249.127L251.383 28.132H251.551L253.807 24.1H254.959L251.971 29.296V32.5H250.963Z" fill="white"/>
<rect x="335.5" y="17" width="26" height="26" rx="13" fill="#D1E7D8"/>
<path d="M345.829 33.2291L342.354 29.7541L341.171 30.9291L345.829 35.5875L355.829 25.5875L354.654 24.4125L345.829 33.2291Z" fill="#0F5132"/>
<rect x="335.5" y="17" width="26" height="26" rx="13" stroke="#0F5132" stroke-width="2"/>
<path d="M24.4773 52.2727V61H23.4545L18.6989 54.1477H18.6136V61H17.5568V52.2727H18.5795L23.3523 59.142H23.4375V52.2727H24.4773ZM26.4556 61V54.4545H27.4613V61H26.4556ZM26.967 53.3636C26.771 53.3636 26.6019 53.2969 26.4599 53.1634C26.3207 53.0298 26.2511 52.8693 26.2511 52.6818C26.2511 52.4943 26.3207 52.3338 26.4599 52.2003C26.6019 52.0668 26.771 52 26.967 52C27.163 52 27.3306 52.0668 27.4698 52.2003C27.6119 52.3338 27.6829 52.4943 27.6829 52.6818C27.6829 52.8693 27.6119 53.0298 27.4698 53.1634C27.3306 53.2969 27.163 53.3636 26.967 53.3636ZM34.6555 54.4545L32.2351 61H31.2124L28.7919 54.4545H29.8828L31.6896 59.6705H31.7578L33.5646 54.4545H34.6555ZM38.4929 61.1364C37.8622 61.1364 37.3182 60.9972 36.8608 60.7188C36.4062 60.4375 36.0554 60.0455 35.8082 59.5426C35.5639 59.0369 35.4418 58.4489 35.4418 57.7784C35.4418 57.108 35.5639 56.517 35.8082 56.0057C36.0554 55.4915 36.3991 55.0909 36.8395 54.804C37.2827 54.5142 37.7997 54.3693 38.3906 54.3693C38.7315 54.3693 39.0682 54.4261 39.4006 54.5398C39.733 54.6534 40.0355 54.8381 40.3082 55.0938C40.581 55.3466 40.7983 55.6818 40.9602 56.0994C41.1222 56.517 41.2031 57.0312 41.2031 57.642V58.0682H36.1577V57.1989H40.1804C40.1804 56.8295 40.1065 56.5 39.9588 56.2102C39.8139 55.9205 39.6065 55.6918 39.3366 55.5241C39.0696 55.3565 38.7543 55.2727 38.3906 55.2727C37.9901 55.2727 37.6435 55.3722 37.3509 55.571C37.0611 55.767 36.8381 56.0227 36.6818 56.3381C36.5256 56.6534 36.4474 56.9915 36.4474 57.3523V57.9318C36.4474 58.4261 36.5327 58.8452 36.7031 59.1889C36.8764 59.5298 37.1165 59.7898 37.4233 59.9688C37.7301 60.1449 38.0866 60.233 38.4929 60.233C38.7571 60.233 38.9957 60.196 39.2088 60.1222C39.4247 60.0455 39.6108 59.9318 39.767 59.7812C39.9233 59.6278 40.044 59.4375 40.1293 59.2102L41.1009 59.483C40.9986 59.8125 40.8267 60.1023 40.5852 60.3523C40.3438 60.5994 40.0455 60.7926 39.6903 60.9318C39.3352 61.0682 38.9361 61.1364 38.4929 61.1364ZM43.7386 52.2727V61H42.733V52.2727H43.7386ZM51.4272 61.1364C50.8817 61.1364 50.4002 60.9986 49.9826 60.723C49.565 60.4446 49.2383 60.0526 49.0025 59.5469C48.7667 59.0384 48.6488 58.4375 48.6488 57.7443C48.6488 57.0568 48.7667 56.4602 49.0025 55.9545C49.2383 55.4489 49.5664 55.0582 49.9869 54.7827C50.4073 54.5071 50.8931 54.3693 51.4442 54.3693C51.8704 54.3693 52.207 54.4403 52.4542 54.5824C52.7042 54.7216 52.8945 54.8807 53.0252 55.0597C53.1587 55.2358 53.2624 55.3807 53.3363 55.4943H53.4215V52.2727H54.4272V61H53.4556V59.9943H53.3363C53.2624 60.1136 53.1573 60.2642 53.021 60.446C52.8846 60.625 52.69 60.7855 52.4371 60.9276C52.1843 61.0668 51.8477 61.1364 51.4272 61.1364ZM51.5636 60.233C51.967 60.233 52.3079 60.1278 52.5863 59.9176C52.8647 59.7045 53.0763 59.4105 53.2212 59.0355C53.3661 58.6577 53.4386 58.2216 53.4386 57.7273C53.4386 57.2386 53.3675 56.8111 53.2255 56.4446C53.0835 56.0753 52.8732 55.7884 52.5948 55.5838C52.3164 55.3764 51.9727 55.2727 51.5636 55.2727C51.1374 55.2727 50.7823 55.3821 50.4982 55.6009C50.217 55.8168 50.0053 56.1108 49.8633 56.483C49.7241 56.8523 49.6545 57.267 49.6545 57.7273C49.6545 58.1932 49.7255 58.6165 49.8675 58.9972C50.0124 59.375 50.2255 59.6761 50.5067 59.9006C50.7908 60.1222 51.1431 60.233 51.5636 60.233ZM59.1531 61.1364C58.5224 61.1364 57.9783 60.9972 57.521 60.7188C57.0664 60.4375 56.7156 60.0455 56.4684 59.5426C56.2241 59.0369 56.1019 58.4489 56.1019 57.7784C56.1019 57.108 56.2241 56.517 56.4684 56.0057C56.7156 55.4915 57.0593 55.0909 57.4996 54.804C57.9428 54.5142 58.4599 54.3693 59.0508 54.3693C59.3917 54.3693 59.7283 54.4261 60.0607 54.5398C60.3931 54.6534 60.6957 54.8381 60.9684 55.0938C61.2411 55.3466 61.4585 55.6818 61.6204 56.0994C61.7823 56.517 61.8633 57.0312 61.8633 57.642V58.0682H56.8178V57.1989H60.8406C60.8406 56.8295 60.7667 56.5 60.619 56.2102C60.4741 55.9205 60.2667 55.6918 59.9968 55.5241C59.7298 55.3565 59.4144 55.2727 59.0508 55.2727C58.6502 55.2727 58.3036 55.3722 58.011 55.571C57.7212 55.767 57.4982 56.0227 57.342 56.3381C57.1857 56.6534 57.1076 56.9915 57.1076 57.3523V57.9318C57.1076 58.4261 57.1928 58.8452 57.3633 59.1889C57.5366 59.5298 57.7766 59.7898 58.0835 59.9688C58.3903 60.1449 58.7468 60.233 59.1531 60.233C59.4173 60.233 59.6559 60.196 59.869 60.1222C60.0849 60.0455 60.271 59.9318 60.4272 59.7812C60.5835 59.6278 60.7042 59.4375 60.7894 59.2102L61.761 59.483C61.6587 59.8125 61.4869 60.1023 61.2454 60.3523C61.0039 60.5994 60.7056 60.7926 60.3505 60.9318C59.9954 61.0682 59.5962 61.1364 59.1531 61.1364ZM69.5124 61.1364C68.8817 61.1364 68.3377 60.9972 67.8803 60.7188C67.4258 60.4375 67.0749 60.0455 66.8278 59.5426C66.5835 59.0369 66.4613 58.4489 66.4613 57.7784C66.4613 57.108 66.5835 56.517 66.8278 56.0057C67.0749 55.4915 67.4187 55.0909 67.859 54.804C68.3022 54.5142 68.8192 54.3693 69.4102 54.3693C69.7511 54.3693 70.0877 54.4261 70.4201 54.5398C70.7525 54.6534 71.055 54.8381 71.3278 55.0938C71.6005 55.3466 71.8178 55.6818 71.9798 56.0994C72.1417 56.517 72.2227 57.0312 72.2227 57.642V58.0682H67.1772V57.1989H71.1999C71.1999 56.8295 71.1261 56.5 70.9783 56.2102C70.8335 55.9205 70.6261 55.6918 70.3562 55.5241C70.0891 55.3565 69.7738 55.2727 69.4102 55.2727C69.0096 55.2727 68.663 55.3722 68.3704 55.571C68.0806 55.767 67.8576 56.0227 67.7013 56.3381C67.5451 56.6534 67.467 56.9915 67.467 57.3523V57.9318C67.467 58.4261 67.5522 58.8452 67.7227 59.1889C67.896 59.5298 68.136 59.7898 68.4428 59.9688C68.7496 60.1449 69.1062 60.233 69.5124 60.233C69.7766 60.233 70.0153 60.196 70.2283 60.1222C70.4442 60.0455 70.6303 59.9318 70.7866 59.7812C70.9428 59.6278 71.0636 59.4375 71.1488 59.2102L72.1204 59.483C72.0181 59.8125 71.8462 60.1023 71.6048 60.3523C71.3633 60.5994 71.065 60.7926 70.7099 60.9318C70.3548 61.0682 69.9556 61.1364 69.5124 61.1364ZM74.7582 57.0625V61H73.7525V54.4545H74.7241V55.4773H74.8093C74.9627 55.1449 75.1957 54.8778 75.5082 54.6761C75.8207 54.4716 76.2241 54.3693 76.7184 54.3693C77.1616 54.3693 77.5494 54.4602 77.8817 54.642C78.2141 54.821 78.4727 55.0938 78.6573 55.4602C78.842 55.8239 78.9343 56.2841 78.9343 56.8409V61H77.9286V56.9091C77.9286 56.3949 77.7951 55.9943 77.5281 55.7074C77.261 55.4176 76.8945 55.2727 76.4286 55.2727C76.1076 55.2727 75.8207 55.3423 75.5678 55.4815C75.3178 55.6207 75.1204 55.8239 74.9755 56.0909C74.8306 56.358 74.7582 56.6818 74.7582 57.0625ZM83.4141 63.5909C82.9283 63.5909 82.5107 63.5284 82.1612 63.4034C81.8118 63.2812 81.5206 63.1193 81.2876 62.9176C81.0575 62.7188 80.8743 62.5057 80.7379 62.2784L81.5391 61.7159C81.63 61.8352 81.745 61.9716 81.8842 62.125C82.0234 62.2812 82.2138 62.4162 82.4553 62.5298C82.6996 62.6463 83.0192 62.7045 83.4141 62.7045C83.9425 62.7045 84.3786 62.5767 84.7223 62.321C85.0661 62.0653 85.2379 61.6648 85.2379 61.1193V59.7898H85.1527C85.0788 59.9091 84.9737 60.0568 84.8374 60.233C84.7038 60.4062 84.5107 60.5611 84.2578 60.6974C84.0078 60.831 83.6697 60.8977 83.2436 60.8977C82.7152 60.8977 82.2408 60.7727 81.8203 60.5227C81.4027 60.2727 81.0717 59.9091 80.8274 59.4318C80.5859 58.9545 80.4652 58.375 80.4652 57.6932C80.4652 57.0227 80.5831 56.4389 80.8189 55.9418C81.0547 55.4418 81.3828 55.0554 81.8033 54.7827C82.2237 54.5071 82.7095 54.3693 83.2607 54.3693C83.6868 54.3693 84.0249 54.4403 84.2749 54.5824C84.5277 54.7216 84.7209 54.8807 84.8544 55.0597C84.9908 55.2358 85.0959 55.3807 85.1697 55.4943H85.272V54.4545H86.2436V61.1875C86.2436 61.75 86.1158 62.2074 85.8601 62.5597C85.6072 62.9148 85.2663 63.1747 84.8374 63.3395C84.4112 63.5071 83.9368 63.5909 83.4141 63.5909ZM83.38 59.9943C83.7834 59.9943 84.1243 59.902 84.4027 59.7173C84.6811 59.5327 84.8928 59.267 85.0376 58.9205C85.1825 58.5739 85.255 58.1591 85.255 57.6761C85.255 57.2045 85.1839 56.7884 85.0419 56.4276C84.8999 56.0668 84.6896 55.7841 84.4112 55.5795C84.1328 55.375 83.7891 55.2727 83.38 55.2727C82.9538 55.2727 82.5987 55.3807 82.3146 55.5966C82.0334 55.8125 81.8217 56.1023 81.6797 56.4659C81.5405 56.8295 81.4709 57.233 81.4709 57.6761C81.4709 58.1307 81.5419 58.5327 81.6839 58.8821C81.8288 59.2287 82.0419 59.5014 82.3232 59.7003C82.6072 59.8963 82.9595 59.9943 83.38 59.9943ZM90.0107 61.1534C89.5959 61.1534 89.2195 61.0753 88.8814 60.919C88.5433 60.7599 88.2749 60.5312 88.076 60.233C87.8771 59.9318 87.7777 59.5682 87.7777 59.142C87.7777 58.767 87.8516 58.4631 87.9993 58.2301C88.147 57.9943 88.3445 57.8097 88.5916 57.6761C88.8388 57.5426 89.1115 57.4432 89.4098 57.3778C89.7109 57.3097 90.0135 57.2557 90.3175 57.2159C90.7152 57.1648 91.0376 57.1264 91.2848 57.1009C91.5348 57.0724 91.7166 57.0256 91.8303 56.9602C91.9467 56.8949 92.005 56.7812 92.005 56.6193V56.5852C92.005 56.1648 91.8899 55.8381 91.6598 55.6051C91.4325 55.3722 91.0874 55.2557 90.6243 55.2557C90.1442 55.2557 89.7678 55.3608 89.495 55.571C89.2223 55.7812 89.0305 56.0057 88.9197 56.2443L87.9652 55.9034C88.1357 55.5057 88.3629 55.196 88.647 54.9744C88.9339 54.75 89.2464 54.5937 89.5845 54.5057C89.9254 54.4148 90.2607 54.3693 90.5902 54.3693C90.8004 54.3693 91.0419 54.3949 91.3146 54.446C91.5902 54.4943 91.8558 54.5952 92.1115 54.7486C92.37 54.902 92.5845 55.1335 92.755 55.4432C92.9254 55.7528 93.0107 56.1676 93.0107 56.6875V61H92.005V60.1136H91.9538C91.8857 60.2557 91.772 60.4077 91.6129 60.5696C91.4538 60.7315 91.2422 60.8693 90.978 60.983C90.7138 61.0966 90.3913 61.1534 90.0107 61.1534ZM90.1641 60.25C90.5618 60.25 90.897 60.1719 91.1697 60.0156C91.4453 59.8594 91.6527 59.6577 91.7919 59.4105C91.9339 59.1634 92.005 58.9034 92.005 58.6307V57.7102C91.9624 57.7614 91.8686 57.8082 91.7237 57.8509C91.5817 57.8906 91.4169 57.9261 91.2294 57.9574C91.0447 57.9858 90.8643 58.0114 90.6882 58.0341C90.5149 58.054 90.3743 58.071 90.2663 58.0852C90.005 58.1193 89.7607 58.1747 89.5334 58.2514C89.3089 58.3253 89.1271 58.4375 88.9879 58.5881C88.8516 58.7358 88.7834 58.9375 88.7834 59.1932C88.7834 59.5426 88.9126 59.8068 89.1712 59.9858C89.4325 60.1619 89.7635 60.25 90.1641 60.25ZM94.8462 54.4545H95.8519V61.4773C95.8519 61.8807 95.7823 62.2301 95.6431 62.5256C95.5067 62.821 95.2994 63.0497 95.021 63.2116C94.7454 63.3736 94.3974 63.4545 93.9769 63.4545C93.9428 63.4545 93.9087 63.4545 93.8746 63.4545C93.8406 63.4545 93.8065 63.4545 93.7724 63.4545V62.517C93.8065 62.517 93.8377 62.517 93.8661 62.517C93.8945 62.517 93.9258 62.517 93.9599 62.517C94.2667 62.517 94.4911 62.4261 94.6332 62.2443C94.7752 62.0653 94.8462 61.8097 94.8462 61.4773V54.4545ZM95.3406 53.3636C95.1445 53.3636 94.9755 53.2969 94.8335 53.1634C94.6942 53.0298 94.6246 52.8693 94.6246 52.6818C94.6246 52.4943 94.6942 52.3338 94.8335 52.2003C94.9755 52.0668 95.1445 52 95.3406 52C95.5366 52 95.7042 52.0668 95.8434 52.2003C95.9854 52.3338 96.0565 52.4943 96.0565 52.6818C96.0565 52.8693 95.9854 53.0298 95.8434 53.1634C95.7042 53.2969 95.5366 53.3636 95.3406 53.3636ZM99.62 61.1534C99.2053 61.1534 98.8288 61.0753 98.4908 60.919C98.1527 60.7599 97.8842 60.5312 97.6854 60.233C97.4865 59.9318 97.3871 59.5682 97.3871 59.142C97.3871 58.767 97.4609 58.4631 97.6087 58.2301C97.7564 57.9943 97.9538 57.8097 98.201 57.6761C98.4482 57.5426 98.7209 57.4432 99.0192 57.3778C99.3203 57.3097 99.6229 57.2557 99.9268 57.2159C100.325 57.1648 100.647 57.1264 100.894 57.1009C101.144 57.0724 101.326 57.0256 101.44 56.9602C101.556 56.8949 101.614 56.7812 101.614 56.6193V56.5852C101.614 56.1648 101.499 55.8381 101.269 55.6051C101.042 55.3722 100.697 55.2557 100.234 55.2557C99.7536 55.2557 99.3771 55.3608 99.1044 55.571C98.8317 55.7812 98.6399 56.0057 98.5291 56.2443L97.5746 55.9034C97.745 55.5057 97.9723 55.196 98.2564 54.9744C98.5433 54.75 98.8558 54.5937 99.1939 54.5057C99.5348 54.4148 99.87 54.3693 100.2 54.3693C100.41 54.3693 100.651 54.3949 100.924 54.446C101.2 54.4943 101.465 54.5952 101.721 54.7486C101.979 54.902 102.194 55.1335 102.364 55.4432C102.535 55.7528 102.62 56.1676 102.62 56.6875V61H101.614V60.1136H101.563C101.495 60.2557 101.381 60.4077 101.222 60.5696C101.063 60.7315 100.852 60.8693 100.587 60.983C100.323 61.0966 100.001 61.1534 99.62 61.1534ZM99.7734 60.25C100.171 60.25 100.506 60.1719 100.779 60.0156C101.055 59.8594 101.262 59.6577 101.401 59.4105C101.543 59.1634 101.614 58.9034 101.614 58.6307V57.7102C101.572 57.7614 101.478 57.8082 101.333 57.8509C101.191 57.8906 101.026 57.9261 100.839 57.9574C100.654 57.9858 100.474 58.0114 100.298 58.0341C100.124 58.054 99.9837 58.071 99.8757 58.0852C99.6143 58.1193 99.37 58.1747 99.1428 58.2514C98.9183 58.3253 98.7365 58.4375 98.5973 58.5881C98.4609 58.7358 98.3928 58.9375 98.3928 59.1932C98.3928 59.5426 98.522 59.8068 98.7805 59.9858C99.0419 60.1619 99.3729 60.25 99.7734 60.25ZM104.456 61V54.4545H105.427V55.4773H105.512C105.649 55.1278 105.869 54.8565 106.173 54.6634C106.477 54.4673 106.842 54.3693 107.268 54.3693C107.7 54.3693 108.059 54.4673 108.346 54.6634C108.636 54.8565 108.862 55.1278 109.024 55.4773H109.092C109.26 55.1392 109.511 54.8707 109.846 54.6719C110.181 54.4702 110.583 54.3693 111.052 54.3693C111.637 54.3693 112.116 54.5526 112.488 54.919C112.86 55.2827 113.047 55.8494 113.047 56.6193V61H112.041V56.6193C112.041 56.1364 111.909 55.7912 111.645 55.5838C111.38 55.3764 111.069 55.2727 110.711 55.2727C110.251 55.2727 109.895 55.4119 109.642 55.6903C109.389 55.9659 109.262 56.3153 109.262 56.7386V61H108.24V56.517C108.24 56.1449 108.119 55.8452 107.877 55.6179C107.636 55.3878 107.325 55.2727 106.944 55.2727C106.683 55.2727 106.439 55.3423 106.211 55.4815C105.987 55.6207 105.805 55.8139 105.666 56.0611C105.529 56.3054 105.461 56.5881 105.461 56.9091V61H104.456ZM117.63 61.1364C116.999 61.1364 116.455 60.9972 115.998 60.7188C115.543 60.4375 115.192 60.0455 114.945 59.5426C114.701 59.0369 114.578 58.4489 114.578 57.7784C114.578 57.108 114.701 56.517 114.945 56.0057C115.192 55.4915 115.536 55.0909 115.976 54.804C116.419 54.5142 116.936 54.3693 117.527 54.3693C117.868 54.3693 118.205 54.4261 118.537 54.5398C118.87 54.6534 119.172 54.8381 119.445 55.0938C119.718 55.3466 119.935 55.6818 120.097 56.0994C120.259 56.517 120.34 57.0312 120.34 57.642V58.0682H115.294V57.1989H119.317C119.317 56.8295 119.243 56.5 119.096 56.2102C118.951 55.9205 118.743 55.6918 118.473 55.5241C118.206 55.3565 117.891 55.2727 117.527 55.2727C117.127 55.2727 116.78 55.3722 116.488 55.571C116.198 55.767 115.975 56.0227 115.819 56.3381C115.662 56.6534 115.584 56.9915 115.584 57.3523V57.9318C115.584 58.4261 115.669 58.8452 115.84 59.1889C116.013 59.5298 116.253 59.7898 116.56 59.9688C116.867 60.1449 117.223 60.233 117.63 60.233C117.894 60.233 118.132 60.196 118.346 60.1222C118.561 60.0455 118.748 59.9318 118.904 59.7812C119.06 59.6278 119.181 59.4375 119.266 59.2102L120.238 59.483C120.135 59.8125 119.963 60.1023 119.722 60.3523C119.48 60.5994 119.182 60.7926 118.827 60.9318C118.472 61.0682 118.073 61.1364 117.63 61.1364ZM122.875 57.0625V61H121.87V54.4545H122.841V55.4773H122.926C123.08 55.1449 123.313 54.8778 123.625 54.6761C123.938 54.4716 124.341 54.3693 124.836 54.3693C125.279 54.3693 125.667 54.4602 125.999 54.642C126.331 54.821 126.59 55.0938 126.775 55.4602C126.959 55.8239 127.051 56.2841 127.051 56.8409V61H126.046V56.9091C126.046 56.3949 125.912 55.9943 125.645 55.7074C125.378 55.4176 125.012 55.2727 124.546 55.2727C124.225 55.2727 123.938 55.3423 123.685 55.4815C123.435 55.6207 123.238 55.8239 123.093 56.0909C122.948 56.358 122.875 56.6818 122.875 57.0625ZM131.736 54.4545V55.3068H128.344V54.4545H131.736ZM129.332 52.8864H130.338V59.125C130.338 59.4091 130.379 59.6222 130.462 59.7642C130.547 59.9034 130.655 59.9972 130.786 60.0455C130.919 60.0909 131.06 60.1136 131.207 60.1136C131.318 60.1136 131.409 60.108 131.48 60.0966C131.551 60.0824 131.608 60.071 131.651 60.0625L131.855 60.9659C131.787 60.9915 131.692 61.017 131.57 61.0426C131.447 61.071 131.293 61.0852 131.105 61.0852C130.821 61.0852 130.543 61.0241 130.27 60.902C130 60.7798 129.776 60.5938 129.597 60.3438C129.42 60.0938 129.332 59.7784 129.332 59.3977V52.8864ZM135.837 61.1364C135.246 61.1364 134.728 60.9957 134.282 60.7145C133.839 60.4332 133.492 60.0398 133.242 59.5341C132.995 59.0284 132.871 58.4375 132.871 57.7614C132.871 57.0795 132.995 56.4844 133.242 55.9759C133.492 55.4673 133.839 55.0724 134.282 54.7912C134.728 54.5099 135.246 54.3693 135.837 54.3693C136.428 54.3693 136.945 54.5099 137.388 54.7912C137.835 55.0724 138.181 55.4673 138.428 55.9759C138.678 56.4844 138.803 57.0795 138.803 57.7614C138.803 58.4375 138.678 59.0284 138.428 59.5341C138.181 60.0398 137.835 60.4332 137.388 60.7145C136.945 60.9957 136.428 61.1364 135.837 61.1364ZM135.837 60.233C136.286 60.233 136.656 60.1179 136.945 59.8878C137.235 59.6577 137.45 59.3551 137.589 58.9801C137.728 58.6051 137.798 58.1989 137.798 57.7614C137.798 57.3239 137.728 56.9162 137.589 56.5384C137.45 56.1605 137.235 55.8551 136.945 55.6222C136.656 55.3892 136.286 55.2727 135.837 55.2727C135.388 55.2727 135.019 55.3892 134.729 55.6222C134.44 55.8551 134.225 56.1605 134.086 56.5384C133.947 56.9162 133.877 57.3239 133.877 57.7614C133.877 58.1989 133.947 58.6051 134.086 58.9801C134.225 59.3551 134.44 59.6577 134.729 59.8878C135.019 60.1179 135.388 60.233 135.837 60.233Z" fill="#E6ECF2"/>
<path d="M149.763 61H147.786L150.798 52.2727H153.176L156.185 61H154.207L152.021 54.267H151.953L149.763 61ZM149.639 57.5696H154.31V59.0099H149.639V57.5696ZM159.016 52.2727V61H157.201V52.2727H159.016ZM163.952 54.4545V55.8182H160.01V54.4545H163.952ZM160.905 52.8864H162.721V58.9886C162.721 59.1562 162.746 59.2869 162.797 59.3807C162.848 59.4716 162.919 59.5355 163.01 59.5724C163.104 59.6094 163.212 59.6278 163.334 59.6278C163.419 59.6278 163.505 59.6207 163.59 59.6065C163.675 59.5895 163.74 59.5767 163.786 59.5682L164.071 60.919C163.98 60.9474 163.853 60.9801 163.688 61.017C163.523 61.0568 163.323 61.081 163.087 61.0895C162.65 61.1065 162.266 61.0483 161.936 60.9148C161.61 60.7812 161.355 60.5739 161.174 60.2926C160.992 60.0114 160.902 59.6562 160.905 59.2273V52.8864ZM168.022 61.1278C167.36 61.1278 166.787 60.9872 166.304 60.706C165.824 60.4219 165.453 60.027 165.192 59.5213C164.931 59.0128 164.8 58.4233 164.8 57.7528C164.8 57.0767 164.931 56.4858 165.192 55.9801C165.453 55.4716 165.824 55.0767 166.304 54.7955C166.787 54.5114 167.36 54.3693 168.022 54.3693C168.684 54.3693 169.255 54.5114 169.735 54.7955C170.218 55.0767 170.59 55.4716 170.851 55.9801C171.113 56.4858 171.243 57.0767 171.243 57.7528C171.243 58.4233 171.113 59.0128 170.851 59.5213C170.59 60.027 170.218 60.4219 169.735 60.706C169.255 60.9872 168.684 61.1278 168.022 61.1278ZM168.03 59.7216C168.331 59.7216 168.583 59.6364 168.784 59.4659C168.986 59.2926 169.138 59.0568 169.24 58.7585C169.346 58.4602 169.398 58.1207 169.398 57.7401C169.398 57.3594 169.346 57.0199 169.24 56.7216C169.138 56.4233 168.986 56.1875 168.784 56.0142C168.583 55.8409 168.331 55.7543 168.03 55.7543C167.726 55.7543 167.471 55.8409 167.263 56.0142C167.059 56.1875 166.904 56.4233 166.799 56.7216C166.696 57.0199 166.645 57.3594 166.645 57.7401C166.645 58.1207 166.696 58.4602 166.799 58.7585C166.904 59.0568 167.059 59.2926 167.263 59.4659C167.471 59.6364 167.726 59.7216 168.03 59.7216Z" fill="#34AD75"/>
<rect x="16.5" y="72" width="346" height="11" rx="5.5" fill="black" fill-opacity="0.15"/>
<rect x="16.5" y="72" width="317" height="11" rx="5.5" fill="#34AD75"/>
<rect x="17.5" y="73" width="315" height="9" rx="4.5" stroke="black" stroke-opacity="0.1" stroke-width="2"/>
<path d="M17.9148 94.2727L20.5057 101.619H20.608L23.1989 94.2727H24.3068L21.1023 103H20.0114L16.8068 94.2727H17.9148ZM27.5795 103.136C26.9886 103.136 26.4702 102.996 26.0241 102.714C25.581 102.433 25.2344 102.04 24.9844 101.534C24.7372 101.028 24.6136 100.437 24.6136 99.7614C24.6136 99.0795 24.7372 98.4844 24.9844 97.9759C25.2344 97.4673 25.581 97.0724 26.0241 96.7912C26.4702 96.5099 26.9886 96.3693 27.5795 96.3693C28.1705 96.3693 28.6875 96.5099 29.1307 96.7912C29.5767 97.0724 29.9233 97.4673 30.1705 97.9759C30.4205 98.4844 30.5455 99.0795 30.5455 99.7614C30.5455 100.437 30.4205 101.028 30.1705 101.534C29.9233 102.04 29.5767 102.433 29.1307 102.714C28.6875 102.996 28.1705 103.136 27.5795 103.136ZM27.5795 102.233C28.0284 102.233 28.3977 102.118 28.6875 101.888C28.9773 101.658 29.1918 101.355 29.331 100.98C29.4702 100.605 29.5398 100.199 29.5398 99.7614C29.5398 99.3239 29.4702 98.9162 29.331 98.5384C29.1918 98.1605 28.9773 97.8551 28.6875 97.6222C28.3977 97.3892 28.0284 97.2727 27.5795 97.2727C27.1307 97.2727 26.7614 97.3892 26.4716 97.6222C26.1818 97.8551 25.9673 98.1605 25.8281 98.5384C25.6889 98.9162 25.6193 99.3239 25.6193 99.7614C25.6193 100.199 25.6889 100.605 25.8281 100.98C25.9673 101.355 26.1818 101.658 26.4716 101.888C26.7614 102.118 27.1307 102.233 27.5795 102.233ZM34.7397 103.136C34.1261 103.136 33.5977 102.991 33.1545 102.702C32.7113 102.412 32.3704 102.013 32.1317 101.504C31.8931 100.996 31.7738 100.415 31.7738 99.7614C31.7738 99.0966 31.896 98.5099 32.1403 98.0014C32.3874 97.4901 32.7312 97.0909 33.1715 96.804C33.6147 96.5142 34.1317 96.3693 34.7227 96.3693C35.1829 96.3693 35.5977 96.4545 35.967 96.625C36.3363 96.7955 36.6388 97.0341 36.8746 97.3409C37.1104 97.6477 37.2567 98.0057 37.3136 98.4148H36.3079C36.2312 98.1165 36.0607 97.8523 35.7965 97.6222C35.5352 97.3892 35.1829 97.2727 34.7397 97.2727C34.3477 97.2727 34.0039 97.375 33.7085 97.5795C33.4158 97.7812 33.1871 98.0668 33.0224 98.4361C32.8604 98.8026 32.7795 99.233 32.7795 99.7273C32.7795 100.233 32.859 100.673 33.0181 101.048C33.18 101.423 33.4073 101.714 33.6999 101.922C33.9954 102.129 34.342 102.233 34.7397 102.233C35.0011 102.233 35.2383 102.188 35.4513 102.097C35.6644 102.006 35.8448 101.875 35.9925 101.705C36.1403 101.534 36.2454 101.33 36.3079 101.091H37.3136C37.2567 101.477 37.1161 101.825 36.8917 102.135C36.6701 102.442 36.3761 102.686 36.0096 102.868C35.646 103.047 35.2227 103.136 34.7397 103.136ZM41.5281 103.136C40.8974 103.136 40.3533 102.997 39.896 102.719C39.4414 102.438 39.0906 102.045 38.8434 101.543C38.5991 101.037 38.4769 100.449 38.4769 99.7784C38.4769 99.108 38.5991 98.517 38.8434 98.0057C39.0906 97.4915 39.4343 97.0909 39.8746 96.804C40.3178 96.5142 40.8349 96.3693 41.4258 96.3693C41.7667 96.3693 42.1033 96.4261 42.4357 96.5398C42.7681 96.6534 43.0707 96.8381 43.3434 97.0938C43.6161 97.3466 43.8335 97.6818 43.9954 98.0994C44.1573 98.517 44.2383 99.0312 44.2383 99.642V100.068H39.1928V99.1989H43.2156C43.2156 98.8295 43.1417 98.5 42.994 98.2102C42.8491 97.9205 42.6417 97.6918 42.3718 97.5241C42.1048 97.3565 41.7894 97.2727 41.4258 97.2727C41.0252 97.2727 40.6786 97.3722 40.386 97.571C40.0962 97.767 39.8732 98.0227 39.717 98.3381C39.5607 98.6534 39.4826 98.9915 39.4826 99.3523V99.9318C39.4826 100.426 39.5678 100.845 39.7383 101.189C39.9116 101.53 40.1516 101.79 40.4585 101.969C40.7653 102.145 41.1218 102.233 41.5281 102.233C41.7923 102.233 42.0309 102.196 42.244 102.122C42.4599 102.045 42.646 101.932 42.8022 101.781C42.9585 101.628 43.0792 101.437 43.1644 101.21L44.136 101.483C44.0337 101.812 43.8619 102.102 43.6204 102.352C43.3789 102.599 43.0806 102.793 42.7255 102.932C42.3704 103.068 41.9712 103.136 41.5281 103.136ZM42.261 95.6705L41.3746 94.4773L40.4883 95.6705H39.5337V95.6023L40.9144 93.8295H41.8349L43.2156 95.6023V95.6705H42.261ZM51.8874 103.136C51.2567 103.136 50.7127 102.997 50.2553 102.719C49.8008 102.438 49.4499 102.045 49.2028 101.543C48.9585 101.037 48.8363 100.449 48.8363 99.7784C48.8363 99.108 48.9585 98.517 49.2028 98.0057C49.4499 97.4915 49.7937 97.0909 50.234 96.804C50.6772 96.5142 51.1942 96.3693 51.7852 96.3693C52.1261 96.3693 52.4627 96.4261 52.7951 96.5398C53.1275 96.6534 53.43 96.8381 53.7028 97.0938C53.9755 97.3466 54.1928 97.6818 54.3548 98.0994C54.5167 98.517 54.5977 99.0312 54.5977 99.642V100.068H49.5522V99.1989H53.5749C53.5749 98.8295 53.5011 98.5 53.3533 98.2102C53.2085 97.9205 53.0011 97.6918 52.7312 97.5241C52.4641 97.3565 52.1488 97.2727 51.7852 97.2727C51.3846 97.2727 51.038 97.3722 50.7454 97.571C50.4556 97.767 50.2326 98.0227 50.0763 98.3381C49.9201 98.6534 49.842 98.9915 49.842 99.3523V99.9318C49.842 100.426 49.9272 100.845 50.0977 101.189C50.271 101.53 50.511 101.79 50.8178 101.969C51.1246 102.145 51.4812 102.233 51.8874 102.233C52.1516 102.233 52.3903 102.196 52.6033 102.122C52.8192 102.045 53.0053 101.932 53.1616 101.781C53.3178 101.628 53.4386 101.437 53.5238 101.21L54.4954 101.483C54.3931 101.812 54.2212 102.102 53.9798 102.352C53.7383 102.599 53.44 102.793 53.0849 102.932C52.7298 103.068 52.3306 103.136 51.8874 103.136ZM57.1332 99.0625V103H56.1275V96.4545H57.0991V97.4773H57.1843C57.3377 97.1449 57.5707 96.8778 57.8832 96.6761C58.1957 96.4716 58.5991 96.3693 59.0934 96.3693C59.5366 96.3693 59.9244 96.4602 60.2567 96.642C60.5891 96.821 60.8477 97.0938 61.0323 97.4602C61.217 97.8239 61.3093 98.2841 61.3093 98.8409V103H60.3036V98.9091C60.3036 98.3949 60.1701 97.9943 59.9031 97.7074C59.636 97.4176 59.2695 97.2727 58.8036 97.2727C58.4826 97.2727 58.1957 97.3423 57.9428 97.4815C57.6928 97.6207 57.4954 97.8239 57.3505 98.0909C57.2056 98.358 57.1332 98.6818 57.1332 99.0625ZM65.7891 105.591C65.3033 105.591 64.8857 105.528 64.5362 105.403C64.1868 105.281 63.8956 105.119 63.6626 104.918C63.4325 104.719 63.2493 104.506 63.1129 104.278L63.9141 103.716C64.005 103.835 64.12 103.972 64.2592 104.125C64.3984 104.281 64.5888 104.416 64.8303 104.53C65.0746 104.646 65.3942 104.705 65.7891 104.705C66.3175 104.705 66.7536 104.577 67.0973 104.321C67.4411 104.065 67.6129 103.665 67.6129 103.119V101.79H67.5277C67.4538 101.909 67.3487 102.057 67.2124 102.233C67.0788 102.406 66.8857 102.561 66.6328 102.697C66.3828 102.831 66.0447 102.898 65.6186 102.898C65.0902 102.898 64.6158 102.773 64.1953 102.523C63.7777 102.273 63.4467 101.909 63.2024 101.432C62.9609 100.955 62.8402 100.375 62.8402 99.6932C62.8402 99.0227 62.9581 98.4389 63.1939 97.9418C63.4297 97.4418 63.7578 97.0554 64.1783 96.7827C64.5987 96.5071 65.0845 96.3693 65.6357 96.3693C66.0618 96.3693 66.3999 96.4403 66.6499 96.5824C66.9027 96.7216 67.0959 96.8807 67.2294 97.0597C67.3658 97.2358 67.4709 97.3807 67.5447 97.4943H67.647V96.4545H68.6186V103.188C68.6186 103.75 68.4908 104.207 68.2351 104.56C67.9822 104.915 67.6413 105.175 67.2124 105.339C66.7862 105.507 66.3118 105.591 65.7891 105.591ZM65.755 101.994C66.1584 101.994 66.4993 101.902 66.7777 101.717C67.0561 101.533 67.2678 101.267 67.4126 100.92C67.5575 100.574 67.63 100.159 67.63 99.6761C67.63 99.2045 67.5589 98.7884 67.4169 98.4276C67.2749 98.0668 67.0646 97.7841 66.7862 97.5795C66.5078 97.375 66.1641 97.2727 65.755 97.2727C65.3288 97.2727 64.9737 97.3807 64.6896 97.5966C64.4084 97.8125 64.1967 98.1023 64.0547 98.4659C63.9155 98.8295 63.8459 99.233 63.8459 99.6761C63.8459 100.131 63.9169 100.533 64.0589 100.882C64.2038 101.229 64.4169 101.501 64.6982 101.7C64.9822 101.896 65.3345 101.994 65.755 101.994ZM72.3857 103.153C71.9709 103.153 71.5945 103.075 71.2564 102.919C70.9183 102.76 70.6499 102.531 70.451 102.233C70.2521 101.932 70.1527 101.568 70.1527 101.142C70.1527 100.767 70.2266 100.463 70.3743 100.23C70.522 99.9943 70.7195 99.8097 70.9666 99.6761C71.2138 99.5426 71.4865 99.4432 71.7848 99.3778C72.0859 99.3097 72.3885 99.2557 72.6925 99.2159C73.0902 99.1648 73.4126 99.1264 73.6598 99.1009C73.9098 99.0724 74.0916 99.0256 74.2053 98.9602C74.3217 98.8949 74.38 98.7812 74.38 98.6193V98.5852C74.38 98.1648 74.2649 97.8381 74.0348 97.6051C73.8075 97.3722 73.4624 97.2557 72.9993 97.2557C72.5192 97.2557 72.1428 97.3608 71.87 97.571C71.5973 97.7812 71.4055 98.0057 71.2947 98.2443L70.3402 97.9034C70.5107 97.5057 70.7379 97.196 71.022 96.9744C71.3089 96.75 71.6214 96.5937 71.9595 96.5057C72.3004 96.4148 72.6357 96.3693 72.9652 96.3693C73.1754 96.3693 73.4169 96.3949 73.6896 96.446C73.9652 96.4943 74.2308 96.5952 74.4865 96.7486C74.745 96.902 74.9595 97.1335 75.13 97.4432C75.3004 97.7528 75.3857 98.1676 75.3857 98.6875V103H74.38V102.114H74.3288C74.2607 102.256 74.147 102.408 73.9879 102.57C73.8288 102.732 73.6172 102.869 73.353 102.983C73.0888 103.097 72.7663 103.153 72.3857 103.153ZM72.5391 102.25C72.9368 102.25 73.272 102.172 73.5447 102.016C73.8203 101.859 74.0277 101.658 74.1669 101.411C74.3089 101.163 74.38 100.903 74.38 100.631V99.7102C74.3374 99.7614 74.2436 99.8082 74.0987 99.8509C73.9567 99.8906 73.7919 99.9261 73.6044 99.9574C73.4197 99.9858 73.2393 100.011 73.0632 100.034C72.8899 100.054 72.7493 100.071 72.6413 100.085C72.38 100.119 72.1357 100.175 71.9084 100.251C71.6839 100.325 71.5021 100.437 71.3629 100.588C71.2266 100.736 71.1584 100.937 71.1584 101.193C71.1584 101.543 71.2876 101.807 71.5462 101.986C71.8075 102.162 72.1385 102.25 72.5391 102.25ZM77.2212 96.4545H78.2269V103.477C78.2269 103.881 78.1573 104.23 78.0181 104.526C77.8817 104.821 77.6744 105.05 77.396 105.212C77.1204 105.374 76.7724 105.455 76.3519 105.455C76.3178 105.455 76.2837 105.455 76.2496 105.455C76.2156 105.455 76.1815 105.455 76.1474 105.455V104.517C76.1815 104.517 76.2127 104.517 76.2411 104.517C76.2695 104.517 76.3008 104.517 76.3349 104.517C76.6417 104.517 76.8661 104.426 77.0082 104.244C77.1502 104.065 77.2212 103.81 77.2212 103.477V96.4545ZM77.7156 95.3636C77.5195 95.3636 77.3505 95.2969 77.2085 95.1634C77.0692 95.0298 76.9996 94.8693 76.9996 94.6818C76.9996 94.4943 77.0692 94.3338 77.2085 94.2003C77.3505 94.0668 77.5195 94 77.7156 94C77.9116 94 78.0792 94.0668 78.2184 94.2003C78.3604 94.3338 78.4315 94.4943 78.4315 94.6818C78.4315 94.8693 78.3604 95.0298 78.2184 95.1634C78.0792 95.2969 77.9116 95.3636 77.7156 95.3636ZM82.728 103.136C82.1371 103.136 81.6186 102.996 81.1726 102.714C80.7294 102.433 80.3828 102.04 80.1328 101.534C79.8857 101.028 79.7621 100.437 79.7621 99.7614C79.7621 99.0795 79.8857 98.4844 80.1328 97.9759C80.3828 97.4673 80.7294 97.0724 81.1726 96.7912C81.6186 96.5099 82.1371 96.3693 82.728 96.3693C83.3189 96.3693 83.8359 96.5099 84.2791 96.7912C84.7251 97.0724 85.0717 97.4673 85.3189 97.9759C85.5689 98.4844 85.6939 99.0795 85.6939 99.7614C85.6939 100.437 85.5689 101.028 85.3189 101.534C85.0717 102.04 84.7251 102.433 84.2791 102.714C83.8359 102.996 83.3189 103.136 82.728 103.136ZM82.728 102.233C83.1768 102.233 83.5462 102.118 83.8359 101.888C84.1257 101.658 84.3402 101.355 84.4794 100.98C84.6186 100.605 84.6882 100.199 84.6882 99.7614C84.6882 99.3239 84.6186 98.9162 84.4794 98.5384C84.3402 98.1605 84.1257 97.8551 83.8359 97.6222C83.5462 97.3892 83.1768 97.2727 82.728 97.2727C82.2791 97.2727 81.9098 97.3892 81.62 97.6222C81.3303 97.8551 81.1158 98.1605 80.9766 98.5384C80.8374 98.9162 80.7678 99.3239 80.7678 99.7614C80.7678 100.199 80.8374 100.605 80.9766 100.98C81.1158 101.355 81.3303 101.658 81.62 101.888C81.9098 102.118 82.2791 102.233 82.728 102.233ZM91.354 100.324V96.4545H92.3597V103H91.354V101.892H91.2859C91.1325 102.224 90.8938 102.507 90.57 102.74C90.2461 102.97 89.837 103.085 89.3427 103.085C88.9336 103.085 88.57 102.996 88.2518 102.817C87.9336 102.635 87.6836 102.362 87.5018 101.999C87.32 101.632 87.229 101.17 87.229 100.614V96.4545H88.2347V100.545C88.2347 101.023 88.3683 101.403 88.6353 101.688C88.9052 101.972 89.2489 102.114 89.6665 102.114C89.9165 102.114 90.1708 102.05 90.4293 101.922C90.6907 101.794 90.9094 101.598 91.0856 101.334C91.2646 101.07 91.354 100.733 91.354 100.324ZM100.236 103.136C99.6222 103.136 99.0938 102.991 98.6506 102.702C98.2074 102.412 97.8665 102.013 97.6278 101.504C97.3892 100.996 97.2699 100.415 97.2699 99.7614C97.2699 99.0966 97.392 98.5099 97.6364 98.0014C97.8835 97.4901 98.2273 97.0909 98.6676 96.804C99.1108 96.5142 99.6278 96.3693 100.219 96.3693C100.679 96.3693 101.094 96.4545 101.463 96.625C101.832 96.7955 102.135 97.0341 102.371 97.3409C102.607 97.6477 102.753 98.0057 102.81 98.4148H101.804C101.727 98.1165 101.557 97.8523 101.293 97.6222C101.031 97.3892 100.679 97.2727 100.236 97.2727C99.8438 97.2727 99.5 97.375 99.2045 97.5795C98.9119 97.7812 98.6832 98.0668 98.5185 98.4361C98.3565 98.8026 98.2756 99.233 98.2756 99.7273C98.2756 100.233 98.3551 100.673 98.5142 101.048C98.6761 101.423 98.9034 101.714 99.196 101.922C99.4915 102.129 99.8381 102.233 100.236 102.233C100.497 102.233 100.734 102.188 100.947 102.097C101.161 102.006 101.341 101.875 101.489 101.705C101.636 101.534 101.741 101.33 101.804 101.091H102.81C102.753 101.477 102.612 101.825 102.388 102.135C102.166 102.442 101.872 102.686 101.506 102.868C101.142 103.047 100.719 103.136 100.236 103.136ZM106.939 103.136C106.348 103.136 105.83 102.996 105.384 102.714C104.94 102.433 104.594 102.04 104.344 101.534C104.097 101.028 103.973 100.437 103.973 99.7614C103.973 99.0795 104.097 98.4844 104.344 97.9759C104.594 97.4673 104.94 97.0724 105.384 96.7912C105.83 96.5099 106.348 96.3693 106.939 96.3693C107.53 96.3693 108.047 96.5099 108.49 96.7912C108.936 97.0724 109.283 97.4673 109.53 97.9759C109.78 98.4844 109.905 99.0795 109.905 99.7614C109.905 100.437 109.78 101.028 109.53 101.534C109.283 102.04 108.936 102.433 108.49 102.714C108.047 102.996 107.53 103.136 106.939 103.136ZM106.939 102.233C107.388 102.233 107.757 102.118 108.047 101.888C108.337 101.658 108.551 101.355 108.69 100.98C108.83 100.605 108.899 100.199 108.899 99.7614C108.899 99.3239 108.83 98.9162 108.69 98.5384C108.551 98.1605 108.337 97.8551 108.047 97.6222C107.757 97.3892 107.388 97.2727 106.939 97.2727C106.49 97.2727 106.121 97.3892 105.831 97.6222C105.541 97.8551 105.327 98.1605 105.188 98.5384C105.048 98.9162 104.979 99.3239 104.979 99.7614C104.979 100.199 105.048 100.605 105.188 100.98C105.327 101.355 105.541 101.658 105.831 101.888C106.121 102.118 106.49 102.233 106.939 102.233ZM111.44 103V96.4545H112.412V97.4773H112.497C112.633 97.1278 112.853 96.8565 113.157 96.6634C113.461 96.4673 113.826 96.3693 114.252 96.3693C114.684 96.3693 115.044 96.4673 115.331 96.6634C115.62 96.8565 115.846 97.1278 116.008 97.4773H116.076C116.244 97.1392 116.495 96.8707 116.831 96.6719C117.166 96.4702 117.568 96.3693 118.037 96.3693C118.622 96.3693 119.1 96.5526 119.473 96.919C119.845 97.2827 120.031 97.8494 120.031 98.6193V103H119.025V98.6193C119.025 98.1364 118.893 97.7912 118.629 97.5838C118.365 97.3764 118.054 97.2727 117.696 97.2727C117.235 97.2727 116.879 97.4119 116.626 97.6903C116.373 97.9659 116.247 98.3153 116.247 98.7386V103H115.224V98.517C115.224 98.1449 115.103 97.8452 114.862 97.6179C114.62 97.3878 114.309 97.2727 113.929 97.2727C113.667 97.2727 113.423 97.3423 113.196 97.4815C112.971 97.6207 112.789 97.8139 112.65 98.0611C112.514 98.3054 112.446 98.5881 112.446 98.9091V103H111.44ZM127.592 94.1534C128.04 94.1534 128.472 94.2287 128.887 94.3793C129.305 94.5298 129.677 94.7699 130.004 95.0994C130.333 95.429 130.593 95.8665 130.783 96.4119C130.977 96.9545 131.075 97.6207 131.077 98.4105C131.077 99.152 130.994 99.8139 130.826 100.396C130.661 100.976 130.424 101.469 130.114 101.875C129.805 102.281 129.431 102.591 128.994 102.804C128.556 103.014 128.067 103.119 127.528 103.119C126.945 103.119 126.431 103.007 125.985 102.783C125.539 102.555 125.18 102.247 124.907 101.858C124.637 101.466 124.474 101.026 124.417 100.537H126.237C126.308 100.855 126.457 101.102 126.684 101.278C126.911 101.452 127.192 101.538 127.528 101.538C128.096 101.538 128.528 101.291 128.823 100.797C129.119 100.3 129.268 99.6193 129.271 98.7557H129.211C129.08 99.0114 128.904 99.2315 128.683 99.4162C128.461 99.598 128.207 99.7386 127.92 99.8381C127.636 99.9375 127.333 99.9872 127.012 99.9872C126.498 99.9872 126.039 99.8665 125.636 99.625C125.232 99.3835 124.914 99.0511 124.681 98.6278C124.448 98.2045 124.332 97.7216 124.332 97.179C124.329 96.5938 124.464 96.0724 124.737 95.6151C125.009 95.1577 125.39 94.7997 125.879 94.5412C126.37 94.2798 126.941 94.1506 127.592 94.1534ZM127.604 95.6023C127.317 95.6023 127.062 95.6705 126.837 95.8068C126.616 95.9432 126.44 96.1264 126.309 96.3565C126.181 96.5866 126.119 96.8437 126.121 97.1278C126.121 97.4148 126.184 97.6733 126.309 97.9034C126.437 98.1307 126.61 98.3125 126.829 98.4489C127.05 98.5824 127.303 98.6491 127.587 98.6491C127.8 98.6491 127.998 98.6094 128.18 98.5298C128.362 98.4503 128.519 98.3409 128.653 98.2017C128.789 98.0597 128.896 97.8963 128.972 97.7116C129.049 97.527 129.087 97.331 129.087 97.1236C129.085 96.848 129.019 96.5952 128.891 96.3651C128.763 96.1349 128.587 95.9503 128.363 95.8111C128.138 95.6719 127.886 95.6023 127.604 95.6023ZM132.356 103V101.67L135.462 98.794C135.727 98.5384 135.948 98.3082 136.127 98.1037C136.309 97.8991 136.447 97.6989 136.54 97.5028C136.634 97.304 136.681 97.0895 136.681 96.8594C136.681 96.6037 136.623 96.3835 136.506 96.1989C136.39 96.0114 136.231 95.8679 136.029 95.7685C135.827 95.6662 135.599 95.6151 135.343 95.6151C135.076 95.6151 134.843 95.669 134.644 95.777C134.445 95.8849 134.292 96.0398 134.184 96.2415C134.076 96.4432 134.022 96.6832 134.022 96.9616H132.271C132.271 96.3906 132.4 95.8949 132.658 95.4744C132.917 95.054 133.279 94.7287 133.745 94.4986C134.211 94.2685 134.748 94.1534 135.356 94.1534C135.981 94.1534 136.525 94.2642 136.988 94.4858C137.454 94.7045 137.816 95.0085 138.075 95.3977C138.333 95.7869 138.462 96.233 138.462 96.7358C138.462 97.0653 138.397 97.3906 138.266 97.7116C138.138 98.0327 137.91 98.3892 137.58 98.7812C137.251 99.1705 136.786 99.6378 136.187 100.183L134.913 101.432V101.491H138.577V103H132.356ZM144.691 101.364V100.903C144.691 100.554 144.765 100.233 144.913 99.9403C145.064 99.6449 145.281 99.4091 145.565 99.233C145.852 99.054 146.201 98.9645 146.613 98.9645C147.031 98.9645 147.382 99.0526 147.666 99.2287C147.953 99.4048 148.169 99.6406 148.314 99.9361C148.461 100.229 148.535 100.551 148.535 100.903V101.364C148.535 101.713 148.461 102.036 148.314 102.331C148.166 102.624 147.949 102.858 147.662 103.034C147.375 103.213 147.025 103.303 146.613 103.303C146.196 103.303 145.845 103.213 145.561 103.034C145.277 102.858 145.061 102.624 144.913 102.331C144.765 102.036 144.691 101.713 144.691 101.364ZM145.931 100.903V101.364C145.931 101.565 145.98 101.756 146.076 101.935C146.176 102.114 146.355 102.203 146.613 102.203C146.872 102.203 147.048 102.115 147.142 101.939C147.238 101.763 147.287 101.571 147.287 101.364V100.903C147.287 100.696 147.241 100.503 147.15 100.324C147.059 100.145 146.88 100.055 146.613 100.055C146.358 100.055 146.18 100.145 146.081 100.324C145.981 100.503 145.931 100.696 145.931 100.903ZM140.213 96.3693V95.9091C140.213 95.5568 140.288 95.2344 140.439 94.9418C140.589 94.6463 140.806 94.4105 141.091 94.2344C141.377 94.0582 141.724 93.9702 142.13 93.9702C142.551 93.9702 142.903 94.0582 143.187 94.2344C143.471 94.4105 143.687 94.6463 143.835 94.9418C143.983 95.2344 144.056 95.5568 144.056 95.9091V96.3693C144.056 96.7216 143.981 97.044 143.831 97.3366C143.683 97.6293 143.466 97.8636 143.179 98.0398C142.895 98.2131 142.545 98.2997 142.13 98.2997C141.716 98.2997 141.365 98.2116 141.078 98.0355C140.794 97.8565 140.578 97.6222 140.43 97.3324C140.285 97.0398 140.213 96.7187 140.213 96.3693ZM141.461 95.9091V96.3693C141.461 96.5767 141.51 96.7685 141.606 96.9446C141.706 97.1207 141.88 97.2088 142.13 97.2088C142.392 97.2088 142.569 97.1207 142.663 96.9446C142.76 96.7685 142.808 96.5767 142.808 96.3693V95.9091C142.808 95.7017 142.762 95.5085 142.672 95.3295C142.581 95.1506 142.4 95.0611 142.13 95.0611C141.877 95.0611 141.703 95.152 141.606 95.3338C141.51 95.5156 141.461 95.7074 141.461 95.9091ZM140.775 103L146.775 94.2727H147.892L141.892 103H140.775ZM156.287 103.136C155.741 103.136 155.26 102.999 154.842 102.723C154.424 102.445 154.098 102.053 153.862 101.547C153.626 101.038 153.508 100.438 153.508 99.7443C153.508 99.0568 153.626 98.4602 153.862 97.9545C154.098 97.4489 154.426 97.0582 154.846 96.7827C155.267 96.5071 155.752 96.3693 156.304 96.3693C156.73 96.3693 157.066 96.4403 157.314 96.5824C157.564 96.7216 157.754 96.8807 157.885 97.0597C158.018 97.2358 158.122 97.3807 158.196 97.4943H158.281V94.2727H159.287V103H158.315V101.994H158.196C158.122 102.114 158.017 102.264 157.88 102.446C157.744 102.625 157.549 102.786 157.297 102.928C157.044 103.067 156.707 103.136 156.287 103.136ZM156.423 102.233C156.826 102.233 157.167 102.128 157.446 101.918C157.724 101.705 157.936 101.411 158.081 101.036C158.225 100.658 158.298 100.222 158.298 99.7273C158.298 99.2386 158.227 98.8111 158.085 98.4446C157.943 98.0753 157.733 97.7884 157.454 97.5838C157.176 97.3764 156.832 97.2727 156.423 97.2727C155.997 97.2727 155.642 97.3821 155.358 97.6009C155.076 97.8168 154.865 98.1108 154.723 98.483C154.583 98.8523 154.514 99.267 154.514 99.7273C154.514 100.193 154.585 100.616 154.727 100.997C154.872 101.375 155.085 101.676 155.366 101.901C155.65 102.122 156.002 102.233 156.423 102.233ZM163.194 103.153C162.779 103.153 162.403 103.075 162.065 102.919C161.727 102.76 161.458 102.531 161.26 102.233C161.061 101.932 160.961 101.568 160.961 101.142C160.961 100.767 161.035 100.463 161.183 100.23C161.331 99.9943 161.528 99.8097 161.775 99.6761C162.022 99.5426 162.295 99.4432 162.593 99.3778C162.895 99.3097 163.197 99.2557 163.501 99.2159C163.899 99.1648 164.221 99.1264 164.468 99.1009C164.718 99.0724 164.9 99.0256 165.014 98.9602C165.13 98.8949 165.189 98.7812 165.189 98.6193V98.5852C165.189 98.1648 165.074 97.8381 164.843 97.6051C164.616 97.3722 164.271 97.2557 163.808 97.2557C163.328 97.2557 162.951 97.3608 162.679 97.571C162.406 97.7812 162.214 98.0057 162.103 98.2443L161.149 97.9034C161.319 97.5057 161.547 97.196 161.831 96.9744C162.118 96.75 162.43 96.5937 162.768 96.5057C163.109 96.4148 163.444 96.3693 163.774 96.3693C163.984 96.3693 164.225 96.3949 164.498 96.446C164.774 96.4943 165.039 96.5952 165.295 96.7486C165.554 96.902 165.768 97.1335 165.939 97.4432C166.109 97.7528 166.194 98.1676 166.194 98.6875V103H165.189V102.114H165.137C165.069 102.256 164.956 102.408 164.797 102.57C164.637 102.732 164.426 102.869 164.162 102.983C163.897 103.097 163.575 103.153 163.194 103.153ZM163.348 102.25C163.745 102.25 164.081 102.172 164.353 102.016C164.629 101.859 164.836 101.658 164.975 101.411C165.118 101.163 165.189 100.903 165.189 100.631V99.7102C165.146 99.7614 165.052 99.8082 164.907 99.8509C164.765 99.8906 164.6 99.9261 164.413 99.9574C164.228 99.9858 164.048 100.011 163.872 100.034C163.699 100.054 163.558 100.071 163.45 100.085C163.189 100.119 162.944 100.175 162.717 100.251C162.493 100.325 162.311 100.437 162.172 100.588C162.035 100.736 161.967 100.937 161.967 101.193C161.967 101.543 162.096 101.807 162.355 101.986C162.616 102.162 162.947 102.25 163.348 102.25ZM172.666 97.9205L171.763 98.1761C171.706 98.0256 171.622 97.8793 171.511 97.7372C171.403 97.5923 171.256 97.473 171.068 97.3793C170.881 97.2855 170.641 97.2386 170.348 97.2386C169.947 97.2386 169.614 97.331 169.347 97.5156C169.082 97.6974 168.95 97.929 168.95 98.2102C168.95 98.4602 169.041 98.6577 169.223 98.8026C169.405 98.9474 169.689 99.0682 170.075 99.1648L171.047 99.4034C171.632 99.5455 172.068 99.7628 172.355 100.055C172.642 100.345 172.786 100.719 172.786 101.176C172.786 101.551 172.678 101.886 172.462 102.182C172.249 102.477 171.95 102.71 171.567 102.881C171.183 103.051 170.737 103.136 170.229 103.136C169.561 103.136 169.009 102.991 168.571 102.702C168.134 102.412 167.857 101.989 167.74 101.432L168.695 101.193C168.786 101.545 168.957 101.81 169.21 101.986C169.466 102.162 169.8 102.25 170.212 102.25C170.68 102.25 171.053 102.151 171.328 101.952C171.607 101.75 171.746 101.509 171.746 101.227C171.746 101 171.666 100.81 171.507 100.656C171.348 100.5 171.104 100.384 170.774 100.307L169.683 100.051C169.084 99.9091 168.643 99.6889 168.362 99.3906C168.084 99.0895 167.945 98.7131 167.945 98.2614C167.945 97.892 168.048 97.5653 168.256 97.2812C168.466 96.9972 168.751 96.7741 169.112 96.6122C169.476 96.4503 169.888 96.3693 170.348 96.3693C170.996 96.3693 171.504 96.5114 171.874 96.7955C172.246 97.0795 172.51 97.4545 172.666 97.9205ZM180.333 103.136C179.743 103.136 179.224 102.996 178.778 102.714C178.335 102.433 177.988 102.04 177.738 101.534C177.491 101.028 177.368 100.437 177.368 99.7614C177.368 99.0795 177.491 98.4844 177.738 97.9759C177.988 97.4673 178.335 97.0724 178.778 96.7912C179.224 96.5099 179.743 96.3693 180.333 96.3693C180.924 96.3693 181.441 96.5099 181.885 96.7912C182.331 97.0724 182.677 97.4673 182.924 97.9759C183.174 98.4844 183.299 99.0795 183.299 99.7614C183.299 100.437 183.174 101.028 182.924 101.534C182.677 102.04 182.331 102.433 181.885 102.714C181.441 102.996 180.924 103.136 180.333 103.136ZM180.333 102.233C180.782 102.233 181.152 102.118 181.441 101.888C181.731 101.658 181.946 101.355 182.085 100.98C182.224 100.605 182.294 100.199 182.294 99.7614C182.294 99.3239 182.224 98.9162 182.085 98.5384C181.946 98.1605 181.731 97.8551 181.441 97.6222C181.152 97.3892 180.782 97.2727 180.333 97.2727C179.885 97.2727 179.515 97.3892 179.225 97.6222C178.936 97.8551 178.721 98.1605 178.582 98.5384C178.443 98.9162 178.373 99.3239 178.373 99.7614C178.373 100.199 178.443 100.605 178.582 100.98C178.721 101.355 178.936 101.658 179.225 101.888C179.515 102.118 179.885 102.233 180.333 102.233ZM187.749 96.4545V97.3068H184.221V96.4545H187.749ZM185.278 103V95.5511C185.278 95.1761 185.366 94.8636 185.542 94.6136C185.718 94.3636 185.947 94.1761 186.228 94.0511C186.509 93.9261 186.806 93.8636 187.119 93.8636C187.366 93.8636 187.567 93.8835 187.724 93.9233C187.88 93.9631 187.996 94 188.073 94.0341L187.783 94.9034C187.732 94.8864 187.661 94.8651 187.57 94.8395C187.482 94.8139 187.366 94.8011 187.221 94.8011C186.888 94.8011 186.648 94.8849 186.501 95.0526C186.356 95.2202 186.283 95.4659 186.283 95.7898V103H185.278ZM191.634 103.136C191.003 103.136 190.459 102.997 190.001 102.719C189.547 102.438 189.196 102.045 188.949 101.543C188.705 101.037 188.582 100.449 188.582 99.7784C188.582 99.108 188.705 98.517 188.949 98.0057C189.196 97.4915 189.54 97.0909 189.98 96.804C190.423 96.5142 190.94 96.3693 191.531 96.3693C191.872 96.3693 192.209 96.4261 192.541 96.5398C192.874 96.6534 193.176 96.8381 193.449 97.0938C193.722 97.3466 193.939 97.6818 194.101 98.0994C194.263 98.517 194.344 99.0312 194.344 99.642V100.068H189.298V99.1989H193.321C193.321 98.8295 193.247 98.5 193.099 98.2102C192.955 97.9205 192.747 97.6918 192.477 97.5241C192.21 97.3565 191.895 97.2727 191.531 97.2727C191.131 97.2727 190.784 97.3722 190.491 97.571C190.202 97.767 189.979 98.0227 189.822 98.3381C189.666 98.6534 189.588 98.9915 189.588 99.3523V99.9318C189.588 100.426 189.673 100.845 189.844 101.189C190.017 101.53 190.257 101.79 190.564 101.969C190.871 102.145 191.227 102.233 191.634 102.233C191.898 102.233 192.136 102.196 192.349 102.122C192.565 102.045 192.751 101.932 192.908 101.781C193.064 101.628 193.185 101.437 193.27 101.21L194.241 101.483C194.139 101.812 193.967 102.102 193.726 102.352C193.484 102.599 193.186 102.793 192.831 102.932C192.476 103.068 192.077 103.136 191.634 103.136ZM195.874 103V96.4545H196.845V97.4432H196.913C197.033 97.1193 197.249 96.8565 197.561 96.6548C197.874 96.4531 198.226 96.3523 198.618 96.3523C198.692 96.3523 198.784 96.3537 198.895 96.3565C199.006 96.3594 199.089 96.3636 199.146 96.3693V97.392C199.112 97.3835 199.034 97.3707 198.912 97.3537C198.793 97.3338 198.666 97.3239 198.533 97.3239C198.214 97.3239 197.93 97.3906 197.68 97.5241C197.433 97.6548 197.237 97.8366 197.092 98.0696C196.95 98.2997 196.879 98.5625 196.879 98.858V103H195.874ZM203.595 96.4545V97.3068H200.203V96.4545H203.595ZM201.192 94.8864H202.197V101.125C202.197 101.409 202.239 101.622 202.321 101.764C202.406 101.903 202.514 101.997 202.645 102.045C202.778 102.091 202.919 102.114 203.067 102.114C203.178 102.114 203.268 102.108 203.339 102.097C203.411 102.082 203.467 102.071 203.51 102.062L203.714 102.966C203.646 102.991 203.551 103.017 203.429 103.043C203.307 103.071 203.152 103.085 202.964 103.085C202.68 103.085 202.402 103.024 202.129 102.902C201.859 102.78 201.635 102.594 201.456 102.344C201.28 102.094 201.192 101.778 201.192 101.398V94.8864ZM207.034 103.153C206.619 103.153 206.243 103.075 205.905 102.919C205.567 102.76 205.298 102.531 205.099 102.233C204.901 101.932 204.801 101.568 204.801 101.142C204.801 100.767 204.875 100.463 205.023 100.23C205.17 99.9943 205.368 99.8097 205.615 99.6761C205.862 99.5426 206.135 99.4432 206.433 99.3778C206.734 99.3097 207.037 99.2557 207.341 99.2159C207.739 99.1648 208.061 99.1264 208.308 99.1009C208.558 99.0724 208.74 99.0256 208.854 98.9602C208.97 98.8949 209.028 98.7812 209.028 98.6193V98.5852C209.028 98.1648 208.913 97.8381 208.683 97.6051C208.456 97.3722 208.111 97.2557 207.648 97.2557C207.168 97.2557 206.791 97.3608 206.518 97.571C206.246 97.7812 206.054 98.0057 205.943 98.2443L204.989 97.9034C205.159 97.5057 205.386 97.196 205.67 96.9744C205.957 96.75 206.27 96.5937 206.608 96.5057C206.949 96.4148 207.284 96.3693 207.614 96.3693C207.824 96.3693 208.065 96.3949 208.338 96.446C208.614 96.4943 208.879 96.5952 209.135 96.7486C209.393 96.902 209.608 97.1335 209.778 97.4432C209.949 97.7528 210.034 98.1676 210.034 98.6875V103H209.028V102.114H208.977C208.909 102.256 208.795 102.408 208.636 102.57C208.477 102.732 208.266 102.869 208.001 102.983C207.737 103.097 207.415 103.153 207.034 103.153ZM207.188 102.25C207.585 102.25 207.92 102.172 208.193 102.016C208.469 101.859 208.676 101.658 208.815 101.411C208.957 101.163 209.028 100.903 209.028 100.631V99.7102C208.986 99.7614 208.892 99.8082 208.747 99.8509C208.605 99.8906 208.44 99.9261 208.253 99.9574C208.068 99.9858 207.888 100.011 207.712 100.034C207.538 100.054 207.398 100.071 207.29 100.085C207.028 100.119 206.784 100.175 206.557 100.251C206.332 100.325 206.151 100.437 206.011 100.588C205.875 100.736 205.807 100.937 205.807 101.193C205.807 101.543 205.936 101.807 206.195 101.986C206.456 102.162 206.787 102.25 207.188 102.25ZM216.506 97.9205L215.603 98.1761C215.546 98.0256 215.462 97.8793 215.351 97.7372C215.243 97.5923 215.096 97.473 214.908 97.3793C214.721 97.2855 214.48 97.2386 214.188 97.2386C213.787 97.2386 213.453 97.331 213.186 97.5156C212.922 97.6974 212.79 97.929 212.79 98.2102C212.79 98.4602 212.881 98.6577 213.063 98.8026C213.245 98.9474 213.529 99.0682 213.915 99.1648L214.887 99.4034C215.472 99.5455 215.908 99.7628 216.195 100.055C216.482 100.345 216.625 100.719 216.625 101.176C216.625 101.551 216.517 101.886 216.301 102.182C216.088 102.477 215.79 102.71 215.407 102.881C215.023 103.051 214.577 103.136 214.069 103.136C213.401 103.136 212.848 102.991 212.411 102.702C211.973 102.412 211.696 101.989 211.58 101.432L212.534 101.193C212.625 101.545 212.797 101.81 213.05 101.986C213.306 102.162 213.64 102.25 214.051 102.25C214.52 102.25 214.892 102.151 215.168 101.952C215.446 101.75 215.586 101.509 215.586 101.227C215.586 101 215.506 100.81 215.347 100.656C215.188 100.5 214.944 100.384 214.614 100.307L213.523 100.051C212.924 99.9091 212.483 99.6889 212.202 99.3906C211.924 99.0895 211.784 98.7131 211.784 98.2614C211.784 97.892 211.888 97.5653 212.096 97.2812C212.306 96.9972 212.591 96.7741 212.952 96.6122C213.316 96.4503 213.728 96.3693 214.188 96.3693C214.836 96.3693 215.344 96.5114 215.713 96.7955C216.086 97.0795 216.35 97.4545 216.506 97.9205ZM223.986 103.136C223.44 103.136 222.959 102.999 222.541 102.723C222.124 102.445 221.797 102.053 221.561 101.547C221.325 101.038 221.207 100.438 221.207 99.7443C221.207 99.0568 221.325 98.4602 221.561 97.9545C221.797 97.4489 222.125 97.0582 222.545 96.7827C222.966 96.5071 223.452 96.3693 224.003 96.3693C224.429 96.3693 224.766 96.4403 225.013 96.5824C225.263 96.7216 225.453 96.8807 225.584 97.0597C225.717 97.2358 225.821 97.3807 225.895 97.4943H225.98V94.2727H226.986V103H226.014V101.994H225.895C225.821 102.114 225.716 102.264 225.58 102.446C225.443 102.625 225.249 102.786 224.996 102.928C224.743 103.067 224.406 103.136 223.986 103.136ZM224.122 102.233C224.526 102.233 224.866 102.128 225.145 101.918C225.423 101.705 225.635 101.411 225.78 101.036C225.925 100.658 225.997 100.222 225.997 99.7273C225.997 99.2386 225.926 98.8111 225.784 98.4446C225.642 98.0753 225.432 97.7884 225.153 97.5838C224.875 97.3764 224.531 97.2727 224.122 97.2727C223.696 97.2727 223.341 97.3821 223.057 97.6009C222.776 97.8168 222.564 98.1108 222.422 98.483C222.283 98.8523 222.213 99.267 222.213 99.7273C222.213 100.193 222.284 100.616 222.426 100.997C222.571 101.375 222.784 101.676 223.065 101.901C223.349 102.122 223.702 102.233 224.122 102.233ZM231.712 103.136C231.081 103.136 230.537 102.997 230.08 102.719C229.625 102.438 229.274 102.045 229.027 101.543C228.783 101.037 228.661 100.449 228.661 99.7784C228.661 99.108 228.783 98.517 229.027 98.0057C229.274 97.4915 229.618 97.0909 230.058 96.804C230.501 96.5142 231.018 96.3693 231.609 96.3693C231.95 96.3693 232.287 96.4261 232.619 96.5398C232.952 96.6534 233.254 96.8381 233.527 97.0938C233.8 97.3466 234.017 97.6818 234.179 98.0994C234.341 98.517 234.422 99.0312 234.422 99.642V100.068H229.376V99.1989H233.399C233.399 98.8295 233.325 98.5 233.178 98.2102C233.033 97.9205 232.825 97.6918 232.555 97.5241C232.288 97.3565 231.973 97.2727 231.609 97.2727C231.209 97.2727 230.862 97.3722 230.57 97.571C230.28 97.767 230.057 98.0227 229.901 98.3381C229.744 98.6534 229.666 98.9915 229.666 99.3523V99.9318C229.666 100.426 229.751 100.845 229.922 101.189C230.095 101.53 230.335 101.79 230.642 101.969C230.949 102.145 231.305 102.233 231.712 102.233C231.976 102.233 232.214 102.196 232.428 102.122C232.643 102.045 232.83 101.932 232.986 101.781C233.142 101.628 233.263 101.437 233.348 101.21L234.32 101.483C234.217 101.812 234.045 102.102 233.804 102.352C233.563 102.599 233.264 102.793 232.909 102.932C232.554 103.068 232.155 103.136 231.712 103.136ZM242.173 96.4545V97.3068H238.781V96.4545H242.173ZM239.77 94.8864H240.776V101.125C240.776 101.409 240.817 101.622 240.899 101.764C240.984 101.903 241.092 101.997 241.223 102.045C241.357 102.091 241.497 102.114 241.645 102.114C241.756 102.114 241.847 102.108 241.918 102.097C241.989 102.082 242.045 102.071 242.088 102.062L242.293 102.966C242.224 102.991 242.129 103.017 242.007 103.043C241.885 103.071 241.73 103.085 241.543 103.085C241.259 103.085 240.98 103.024 240.707 102.902C240.438 102.78 240.213 102.594 240.034 102.344C239.858 102.094 239.77 101.778 239.77 101.398V94.8864ZM243.686 103V96.4545H244.658V97.4432H244.726C244.845 97.1193 245.061 96.8565 245.374 96.6548C245.686 96.4531 246.038 96.3523 246.43 96.3523C246.504 96.3523 246.597 96.3537 246.707 96.3565C246.818 96.3594 246.902 96.3636 246.959 96.3693V97.392C246.925 97.3835 246.847 97.3707 246.724 97.3537C246.605 97.3338 246.479 97.3239 246.345 97.3239C246.027 97.3239 245.743 97.3906 245.493 97.5241C245.246 97.6548 245.05 97.8366 244.905 98.0696C244.763 98.2997 244.692 98.5625 244.692 98.858V103H243.686ZM250.077 103.153C249.662 103.153 249.286 103.075 248.948 102.919C248.61 102.76 248.341 102.531 248.142 102.233C247.944 101.932 247.844 101.568 247.844 101.142C247.844 100.767 247.918 100.463 248.066 100.23C248.213 99.9943 248.411 99.8097 248.658 99.6761C248.905 99.5426 249.178 99.4432 249.476 99.3778C249.777 99.3097 250.08 99.2557 250.384 99.2159C250.782 99.1648 251.104 99.1264 251.351 99.1009C251.601 99.0724 251.783 99.0256 251.897 98.9602C252.013 98.8949 252.071 98.7812 252.071 98.6193V98.5852C252.071 98.1648 251.956 97.8381 251.726 97.6051C251.499 97.3722 251.154 97.2557 250.691 97.2557C250.211 97.2557 249.834 97.3608 249.561 97.571C249.289 97.7812 249.097 98.0057 248.986 98.2443L248.032 97.9034C248.202 97.5057 248.429 97.196 248.713 96.9744C249 96.75 249.313 96.5937 249.651 96.5057C249.992 96.4148 250.327 96.3693 250.657 96.3693C250.867 96.3693 251.108 96.3949 251.381 96.446C251.657 96.4943 251.922 96.5952 252.178 96.7486C252.436 96.902 252.651 97.1335 252.821 97.4432C252.992 97.7528 253.077 98.1676 253.077 98.6875V103H252.071V102.114H252.02C251.952 102.256 251.838 102.408 251.679 102.57C251.52 102.732 251.309 102.869 251.044 102.983C250.78 103.097 250.458 103.153 250.077 103.153ZM250.23 102.25C250.628 102.25 250.963 102.172 251.236 102.016C251.512 101.859 251.719 101.658 251.858 101.411C252 101.163 252.071 100.903 252.071 100.631V99.7102C252.029 99.7614 251.935 99.8082 251.79 99.8509C251.648 99.8906 251.483 99.9261 251.296 99.9574C251.111 99.9858 250.931 100.011 250.755 100.034C250.581 100.054 250.441 100.071 250.333 100.085C250.071 100.119 249.827 100.175 249.6 100.251C249.375 100.325 249.194 100.437 249.054 100.588C248.918 100.736 248.85 100.937 248.85 101.193C248.85 101.543 248.979 101.807 249.238 101.986C249.499 102.162 249.83 102.25 250.23 102.25ZM255.049 103V94.2727H256.055V97.4943H256.14C256.214 97.3807 256.316 97.2358 256.447 97.0597C256.58 96.8807 256.771 96.7216 257.018 96.5824C257.268 96.4403 257.606 96.3693 258.032 96.3693C258.583 96.3693 259.069 96.5071 259.489 96.7827C259.91 97.0582 260.238 97.4489 260.474 97.9545C260.71 98.4602 260.827 99.0568 260.827 99.7443C260.827 100.438 260.71 101.038 260.474 101.547C260.238 102.053 259.911 102.445 259.494 102.723C259.076 102.999 258.594 103.136 258.049 103.136C257.629 103.136 257.292 103.067 257.039 102.928C256.786 102.786 256.592 102.625 256.455 102.446C256.319 102.264 256.214 102.114 256.14 101.994H256.021V103H255.049ZM256.038 99.7273C256.038 100.222 256.11 100.658 256.255 101.036C256.4 101.411 256.612 101.705 256.89 101.918C257.168 102.128 257.509 102.233 257.913 102.233C258.333 102.233 258.684 102.122 258.965 101.901C259.249 101.676 259.462 101.375 259.604 100.997C259.749 100.616 259.822 100.193 259.822 99.7273C259.822 99.267 259.751 98.8523 259.609 98.483C259.469 98.1108 259.258 97.8168 258.974 97.6009C258.692 97.3821 258.339 97.2727 257.913 97.2727C257.504 97.2727 257.16 97.3764 256.881 97.5838C256.603 97.7884 256.393 98.0753 256.251 98.4446C256.109 98.8111 256.038 99.2386 256.038 99.7273ZM264.292 103.153C263.877 103.153 263.501 103.075 263.163 102.919C262.825 102.76 262.556 102.531 262.357 102.233C262.158 101.932 262.059 101.568 262.059 101.142C262.059 100.767 262.133 100.463 262.281 100.23C262.428 99.9943 262.626 99.8097 262.873 99.6761C263.12 99.5426 263.393 99.4432 263.691 99.3778C263.992 99.3097 264.295 99.2557 264.599 99.2159C264.996 99.1648 265.319 99.1264 265.566 99.1009C265.816 99.0724 265.998 99.0256 266.112 98.9602C266.228 98.8949 266.286 98.7812 266.286 98.6193V98.5852C266.286 98.1648 266.171 97.8381 265.941 97.6051C265.714 97.3722 265.369 97.2557 264.906 97.2557C264.425 97.2557 264.049 97.3608 263.776 97.571C263.504 97.7812 263.312 98.0057 263.201 98.2443L262.246 97.9034C262.417 97.5057 262.644 97.196 262.928 96.9744C263.215 96.75 263.528 96.5937 263.866 96.5057C264.207 96.4148 264.542 96.3693 264.871 96.3693C265.082 96.3693 265.323 96.3949 265.596 96.446C265.871 96.4943 266.137 96.5952 266.393 96.7486C266.651 96.902 266.866 97.1335 267.036 97.4432C267.207 97.7528 267.292 98.1676 267.292 98.6875V103H266.286V102.114H266.235C266.167 102.256 266.053 102.408 265.894 102.57C265.735 102.732 265.523 102.869 265.259 102.983C264.995 103.097 264.673 103.153 264.292 103.153ZM264.445 102.25C264.843 102.25 265.178 102.172 265.451 102.016C265.727 101.859 265.934 101.658 266.073 101.411C266.215 101.163 266.286 100.903 266.286 100.631V99.7102C266.244 99.7614 266.15 99.8082 266.005 99.8509C265.863 99.8906 265.698 99.9261 265.511 99.9574C265.326 99.9858 265.146 100.011 264.969 100.034C264.796 100.054 264.656 100.071 264.548 100.085C264.286 100.119 264.042 100.175 263.815 100.251C263.59 100.325 263.408 100.437 263.269 100.588C263.133 100.736 263.065 100.937 263.065 101.193C263.065 101.543 263.194 101.807 263.452 101.986C263.714 102.162 264.045 102.25 264.445 102.25ZM270.133 94.2727V103H269.127V94.2727H270.133ZM272.981 99.0625V103H271.975V94.2727H272.981V97.4773H273.066C273.219 97.1392 273.45 96.8707 273.756 96.6719C274.066 96.4702 274.478 96.3693 274.992 96.3693C275.438 96.3693 275.829 96.4588 276.164 96.6378C276.499 96.8139 276.759 97.0852 276.944 97.4517C277.131 97.8153 277.225 98.2784 277.225 98.8409V103H276.219V98.9091C276.219 98.3892 276.085 97.9872 275.815 97.7031C275.548 97.4162 275.177 97.2727 274.702 97.2727C274.373 97.2727 274.077 97.3423 273.816 97.4815C273.558 97.6207 273.353 97.8239 273.202 98.0909C273.055 98.358 272.981 98.6818 272.981 99.0625ZM281.724 103.136C281.133 103.136 280.615 102.996 280.169 102.714C279.725 102.433 279.379 102.04 279.129 101.534C278.882 101.028 278.758 100.437 278.758 99.7614C278.758 99.0795 278.882 98.4844 279.129 97.9759C279.379 97.4673 279.725 97.0724 280.169 96.7912C280.615 96.5099 281.133 96.3693 281.724 96.3693C282.315 96.3693 282.832 96.5099 283.275 96.7912C283.721 97.0724 284.068 97.4673 284.315 97.9759C284.565 98.4844 284.69 99.0795 284.69 99.7614C284.69 100.437 284.565 101.028 284.315 101.534C284.068 102.04 283.721 102.433 283.275 102.714C282.832 102.996 282.315 103.136 281.724 103.136ZM281.724 102.233C282.173 102.233 282.542 102.118 282.832 101.888C283.122 101.658 283.336 101.355 283.475 100.98C283.615 100.605 283.684 100.199 283.684 99.7614C283.684 99.3239 283.615 98.9162 283.475 98.5384C283.336 98.1605 283.122 97.8551 282.832 97.6222C282.542 97.3892 282.173 97.2727 281.724 97.2727C281.275 97.2727 280.906 97.3892 280.616 97.6222C280.326 97.8551 280.112 98.1605 279.973 98.5384C279.833 98.9162 279.764 99.3239 279.764 99.7614C279.764 100.199 279.833 100.605 279.973 100.98C280.112 101.355 280.326 101.658 280.616 101.888C280.906 102.118 281.275 102.233 281.724 102.233Z" fill="#E6ECF2"/>
<rect x="1" y="0.5" width="377" height="121" rx="7.5" stroke="white" stroke-opacity="0.6"/>
</svg>
