<svg width="16" height="16" viewBox="0 0 16 16" fill="none" xmlns="http://www.w3.org/2000/svg">
<circle cx="8" cy="8" r="8" fill="#D9D9D9"/>
<path d="M6.42224 10.5567C6.42224 11.0974 5.98394 11.5357 5.44324 11.5357C4.90255 11.5357 4.46424 11.0974 4.46424 10.5567C4.46424 10.016 4.90255 9.57772 5.44324 9.57772C5.98394 9.57772 6.42224 10.016 6.42224 10.5567Z" fill="#00437F"/>
<path d="M9.57771 5.44324C9.57771 5.98393 10.016 6.42224 10.5567 6.42224C11.0974 6.42224 11.5357 5.98393 11.5357 5.44324C11.5357 4.90255 11.0974 4.46424 10.5567 4.46424C10.016 4.46424 9.57771 4.90255 9.57771 5.44324Z" fill="#00437F"/>
<path fill-rule="evenodd" clip-rule="evenodd" d="M7.99999 16C12.4183 16 16 12.4183 16 8C16 3.58172 12.4183 0 7.99999 0C3.58171 0 0 3.58172 0 8C0 12.4183 3.58171 16 7.99999 16ZM5.11438 8.47765C4.67534 8.59159 4.25024 8.77763 3.92951 9.09836L3.92977 9.09862C3.13657 9.92132 3.14573 11.2313 3.9572 12.0428C4.76867 12.8542 6.07865 12.8634 6.90134 12.0702L6.9016 12.0705C7.22232 11.7497 7.40838 11.3246 7.52232 10.8856C7.72559 10.1023 8.13401 9.36121 8.74762 8.74762C9.36781 8.12742 10.1182 7.71683 10.9109 7.51583C11.3341 7.40848 11.7432 7.22885 12.052 6.92003C12.8635 6.09859 12.8604 4.77484 12.0428 3.95719C11.2251 3.13956 9.90136 3.13648 9.0799 3.94797C8.7711 4.25675 8.59147 4.66581 8.48413 5.0891C8.28313 5.88173 7.87254 6.63215 7.25235 7.25234C6.63874 7.86594 5.89769 8.27438 5.11438 8.47765ZM6.76183 5.05045C6.76183 5.97698 6.01073 6.72807 5.0842 6.72807C4.15767 6.72807 3.40656 5.97698 3.40656 5.05045C3.40656 4.12392 4.15767 3.37282 5.0842 3.37282C6.01073 3.37282 6.76183 4.12392 6.76183 5.05045ZM10.9559 12.5998C11.8824 12.5998 12.6335 11.8487 12.6335 10.9221C12.6335 9.99561 11.8824 9.24451 10.9559 9.24451C10.0293 9.24451 9.27827 9.99561 9.27827 10.9221C9.27827 11.8487 10.0293 12.5998 10.9559 12.5998Z" fill="#00437F"/>
</svg>
