<?xml version="1.0" encoding="UTF-8"?>
<svg id="Layer_1" data-name="Layer 1" xmlns="http://www.w3.org/2000/svg" viewBox="0 0 868.11 513.21">
  <defs>
    <style>
      .cls-1 {
        fill: #fff;
      }

      .cls-2 {
        opacity: .3;
      }
    </style>
  </defs>
  <g class="cls-2">
    <path class="cls-1" d="M383.65,125.37l4.98-2.88c.15-.09,.15-.22,0-.31-.15-.09-.39-.09-.53,0l-4.98,2.88c-.15,.09-.15,.22,0,.31s.39,.09,.53,0Z"/>
    <path class="cls-1" d="M375.59,129.71c.15,.09,.39,.09,.53,0l4.98-2.88c.15-.09,.15-.22,0-.31-.15-.09-.39-.09-.53,0l-4.98,2.88c-.15,.09-.15,.22,0,.31Z"/>
    <path class="cls-1" d="M368.07,134.06c.15,.09,.39,.09,.53,0l5.03-2.9c.15-.09,.15-.22,0-.31-.15-.09-.39-.09-.53,0l-5.03,2.9c-.15,.09-.15,.22,0,.31Z"/>
    <path class="cls-1" d="M360.55,138.4c.15,.09,.39,.09,.53,0l5.03-2.9c.15-.09,.15-.22,0-.31-.15-.09-.39-.09-.53,0l-5.03,2.9c-.15,.09-.15,.22,0,.31Z"/>
    <path class="cls-1" d="M353.08,142.71c.15,.09,.39,.09,.53,0l4.98-2.88c.15-.09,.15-.22,0-.31-.15-.09-.39-.09-.53,0l-4.98,2.88c-.15,.09-.15,.22,0,.31Z"/>
    <path class="cls-1" d="M350.54,143.87l-4.98,2.88c-.15,.09-.15,.22,0,.31,.15,.09,.39,.09,.53,0l4.98-2.88c.15-.09,.15-.22,0-.31-.15-.09-.39-.09-.53,0Z"/>
    <path class="cls-1" d="M343.6,148.18c-.15-.09-.39-.09-.53,0l-5.03,2.9c-.15,.09-.15,.22,0,.31,.15,.09,.39,.09,.53,0l5.03-2.9c.15-.09,.15-.22,0-.31Z"/>
    <path class="cls-1" d="M330.52,155.74c.15,.09,.39,.09,.53,0l5.03-2.9c.15-.09,.15-.22,0-.31-.15-.09-.39-.09-.53,0l-5.03,2.9c-.15,.09-.15,.22,0,.31Z"/>
    <path class="cls-1" d="M328.03,156.87l-4.98,2.88c-.15,.09-.15,.22,0,.31,.15,.09,.39,.09,.53,0l4.98-2.88c.15-.09,.15-.22,0-.31-.15-.09-.39-.09-.53,0Z"/>
    <path class="cls-1" d="M315.52,164.4c.15,.09,.39,.09,.53,0l4.98-2.88c.15-.09,.15-.22,0-.31-.15-.09-.39-.09-.53,0l-4.98,2.88c-.15,.09-.15,.22,0,.31Z"/>
    <path class="cls-1" d="M394.73,108.65l-5.03,2.9c-.15,.09-.15,.22,0,.31,.15,.09,.39,.09,.53,0l5.03-2.9c.15-.09,.15-.22,0-.31-.15-.09-.39-.09-.53,0Z"/>
    <path class="cls-1" d="M375.24,120.52l4.98-2.88c.15-.09,.15-.22,0-.31-.15-.09-.39-.09-.53,0l-4.98,2.88c-.15,.09-.15,.22,0,.31,.15,.09,.39,.09,.53,0Z"/>
    <path class="cls-1" d="M367.72,124.86l4.98-2.88c.15-.09,.15-.22,0-.31-.15-.09-.39-.09-.53,0l-4.98,2.88c-.15,.09-.15,.22,0,.31,.15,.09,.39,.09,.53,0Z"/>
    <path class="cls-1" d="M360.2,129.2l5.03-2.9c.15-.09,.15-.22,0-.31-.15-.09-.39-.09-.53,0l-5.03,2.9c-.15,.09-.15,.22,0,.31,.15,.09,.39,.09,.53,0Z"/>
    <path class="cls-1" d="M352.68,133.54l5.03-2.9c.15-.09,.15-.22,0-.31-.15-.09-.39-.09-.53,0l-5.03,2.9c-.15,.09-.15,.22,0,.31,.15,.09,.39,.09,.53,0Z"/>
    <path class="cls-1" d="M345.2,137.86l4.98-2.88c.15-.09,.15-.22,0-.31-.15-.09-.39-.09-.53,0l-4.98,2.88c-.15,.09-.15,.22,0,.31,.15,.09,.39,.09,.53,0Z"/>
    <path class="cls-1" d="M342.67,139.01c-.15-.09-.39-.09-.53,0l-4.98,2.88c-.15,.09-.15,.22,0,.31s.39,.09,.53,0l4.98-2.88c.15-.09,.15-.22,0-.31Z"/>
    <path class="cls-1" d="M330.16,146.54l5.03-2.9c.15-.09,.15-.22,0-.31-.15-.09-.39-.09-.53,0l-5.03,2.9c-.15,.09-.15,.22,0,.31,.15,.09,.39,.09,.53,0Z"/>
    <path class="cls-1" d="M322.64,150.88l5.03-2.9c.15-.09,.15-.22,0-.31-.15-.09-.39-.09-.53,0l-5.03,2.9c-.15,.09-.15,.22,0,.31,.15,.09,.39,.09,.53,0Z"/>
    <path class="cls-1" d="M315.17,155.2l4.98-2.88c.15-.09,.15-.22,0-.31-.15-.09-.39-.09-.53,0l-4.98,2.88c-.15,.09-.15,.22,0,.31,.15,.09,.39,.09,.53,0Z"/>
    <path class="cls-1" d="M307.65,159.54l4.98-2.88c.15-.09,.15-.22,0-.31-.15-.09-.39-.09-.53,0l-4.98,2.88c-.15,.09-.15,.22,0,.31,.15,.09,.39,.09,.53,0Z"/>
    <path class="cls-1" d="M297.1,165.01l-5.03,2.9c-.15,.09-.15,.22,0,.31,.15,.09,.39,.09,.53,0l5.03-2.9c.15-.09,.15-.22,0-.31-.15-.09-.39-.09-.53,0Z"/>
    <path class="cls-1" d="M289.58,169.35l-5.86,3.39-.54,.28-.72,.22-.67,.17-.79,.07h-.74s-.76-.06-.76-.06l-.72-.17-.69-.21-.61-.3-6.22-3.59c-.15-.09-.39-.09-.53,0-.15,.09-.15,.22,0,.31l6.23,3.6s.01,0,.02,.01l.69,.33,.79,.24,.84,.19,.9,.08h.86s.93-.09,.93-.09l.79-.19,.83-.26,.62-.31s0,0,0,0c0,0,0,0,.01,0l5.87-3.39c.15-.09,.15-.22,0-.31-.15-.09-.39-.09-.53,0Z"/>
    <path class="cls-1" d="M367.62,159.02l-6.85,1.03c-.2,.03-.32,.15-.27,.27,.02,.04,.05,.07,.1,.1,.09,.05,.23,.08,.36,.06l6.85-1.03c.2-.03,.32-.15,.27-.27-.05-.12-.26-.19-.46-.16Z"/>
    <path class="cls-1" d="M357.35,160.54l-6.9,1c-.2,.03-.33,.15-.27,.26,.02,.04,.05,.07,.1,.1,.09,.05,.23,.08,.36,.06l6.9-1c.2-.03,.33-.15,.27-.26-.05-.12-.25-.19-.46-.16Z"/>
    <path class="cls-1" d="M347.02,162.02l-6.85,.98c-.2,.03-.33,.15-.28,.26,.02,.04,.05,.07,.1,.1,.09,.05,.22,.08,.36,.06l6.85-.98c.2-.03,.33-.15,.28-.26-.05-.12-.25-.19-.46-.16Z"/>
    <path class="cls-1" d="M336.74,163.49l-6.9,1c-.2,.03-.33,.15-.27,.26,.02,.04,.05,.07,.1,.1,.09,.05,.23,.08,.36,.06l6.9-1c.2-.03,.33-.15,.27-.26-.05-.12-.25-.19-.46-.16Z"/>
    <path class="cls-1" d="M326.42,164.98l-6.9,1c-.2,.03-.33,.15-.27,.26,.02,.04,.05,.07,.1,.1,.09,.05,.23,.08,.36,.06l6.9-1c.2-.03,.33-.15,.27-.26-.05-.12-.25-.19-.46-.16Z"/>
    <path class="cls-1" d="M316.1,166.47l-4.83,.69,2.29-1.32c.15-.09,.15-.22,0-.31-.15-.09-.39-.09-.53,0l-2.98,1.72-2.71-1.57c-.15-.09-.39-.09-.53,0-.15,.09-.15,.22,0,.31l2.98,1.72s.1,.04,.15,.05c.01,0,.03,0,.04,0,.05,0,.09,0,.14,0,0,0,.02,0,.03,0l6.14-.87c.2-.03,.33-.15,.28-.26-.05-.12-.25-.19-.46-.16Z"/>
    <path class="cls-1" d="M377.77,157.84l1.44-3.49c.05-.12-.08-.24-.28-.26-.2-.03-.41,.04-.45,.16l-1.33,3.23-.71-.41c-.15-.09-.39-.09-.53,0-.15,.09-.15,.22,0,.31l.65,.38-5.5,.77c-.2,.03-.33,.15-.28,.26,.02,.04,.05,.08,.1,.1,.09,.05,.22,.08,.36,.06l5.95-.83,2.46,1.42c.15,.09,.39,.09,.53,0s.15-.22,0-.31l-2.4-1.39Z"/>
    <path class="cls-1" d="M381.56,148.15c-.2-.03-.41,.04-.46,.16l-1.78,3.96c-.03,.08,0,.16,.1,.21,.05,.03,.1,.05,.17,.06,.2,.03,.41-.04,.46-.16l1.78-3.96c.05-.12-.07-.24-.27-.27Z"/>
    <path class="cls-1" d="M384.14,142.19c-.2-.03-.41,.04-.46,.16l-1.74,3.98c-.03,.08,0,.16,.1,.21,.05,.03,.11,.05,.17,.06,.2,.03,.41-.04,.46-.16l1.74-3.98c.05-.12-.07-.24-.27-.26Z"/>
    <path class="cls-1" d="M386.67,136.26c-.2-.03-.41,.04-.46,.16l-1.69,3.96c-.03,.08,0,.15,.1,.21,.05,.03,.11,.05,.18,.06,.2,.03,.41-.04,.46-.16l1.69-3.96c.05-.12-.07-.23-.28-.26Z"/>
    <path class="cls-1" d="M389.26,130.3c-.2-.03-.41,.04-.46,.16l-1.74,3.98c-.03,.08,0,.16,.1,.21,.05,.03,.11,.05,.18,.06,.2,.03,.41-.04,.46-.16l1.74-3.98c.05-.12-.07-.24-.27-.26Z"/>
    <path class="cls-1" d="M391.84,124.34c-.2-.03-.41,.04-.46,.16l-1.73,3.98c-.03,.08,0,.16,.1,.21,.05,.03,.11,.05,.18,.06,.2,.03,.41-.04,.46-.16l1.73-3.98c.05-.12-.07-.24-.27-.26Z"/>
    <path class="cls-1" d="M394.44,118.93s-.03-.03-.04-.04c0,0-.01-.01-.02-.02l-2.98-1.72c-.15-.09-.39-.09-.53,0-.15,.09-.15,.22,0,.31l2.71,1.57-2.98,1.72c-.15,.09-.15,.22,0,.31,.15,.09,.39,.09,.53,0l2.29-1.32-1.19,2.79c-.03,.08,0,.15,.1,.21,.05,.03,.11,.05,.18,.06,.2,.03,.41-.04,.46-.16l1.51-3.55s0-.01,0-.02c0-.02,0-.03,0-.05,0-.01,0-.03-.01-.04,0-.01-.01-.03-.02-.04Z"/>
    <path class="cls-1" d="M404.95,101.22l-.33-.46-.45-.48-.53-.36s0,0,0,0c0,0,0,0-.01-.01l-6.23-3.6c-.15-.09-.39-.09-.53,0-.15,.09-.15,.22,0,.31l6.22,3.59,.48,.31,.39,.42,.29,.39,.13,.45v.43s-.1,.44-.1,.44l-.3,.42-.35,.4-.52,.35-5.86,3.38c-.15,.09-.15,.22,0,.31,.15,.09,.39,.09,.53,0l5.87-3.39s0,0,0,0c0,0,0,0,.01,0l.58-.4,.42-.46,.34-.49,.14-.52v-.5s-.16-.54-.16-.54Z"/>
    <path class="cls-1" d="M319.26,51.82c.15,.09,.39,.09,.53,0,.15-.09,.15-.22,0-.31l-4.98-2.88c-.15-.09-.39-.09-.53,0-.15,.09-.15,.22,0,.31l4.98,2.88Z"/>
    <path class="cls-1" d="M337.33,61.64c-.15-.09-.39-.09-.53,0-.15,.09-.15,.22,0,.31l5.03,2.9c.15,.09,.39,.09,.53,0,.15-.09,.15-.22,0-.31l-5.03-2.9Z"/>
    <path class="cls-1" d="M356.81,73.5c.15,.09,.39,.09,.53,0,.15-.09,.15-.22,0-.31l-4.98-2.88c-.15-.09-.39-.09-.53,0-.15,.09-.15,.22,0,.31l4.98,2.88Z"/>
    <path class="cls-1" d="M364.33,77.85c.15,.09,.39,.09,.53,0,.15-.09,.15-.22,0-.31l-5.03-2.9c-.15-.09-.39-.09-.53,0-.15,.09-.15,.22,0,.31l5.03,2.9Z"/>
    <path class="cls-1" d="M371.85,82.19c.15,.09,.39,.09,.53,0,.15-.09,.15-.22,0-.31l-5.03-2.9c-.15-.09-.39-.09-.53,0-.15,.09-.15,.22,0,.31l5.03,2.9Z"/>
    <path class="cls-1" d="M379.33,86.5c.15,.09,.39,.09,.53,0,.15-.09,.15-.22,0-.31l-4.98-2.88c-.15-.09-.39-.09-.53,0-.15,.09-.15,.22,0,.31l4.98,2.88Z"/>
    <path class="cls-1" d="M394.9,95.19c.15-.09,.15-.22,0-.31l-5.03-2.9c-.15-.09-.39-.09-.53,0-.15,.09-.15,.22,0,.31l5.03,2.9c.15,.09,.39,.09,.53,0Z"/>
    <path class="cls-1" d="M193.11,124.65c.15,.09,.39,.09,.53,0,.15-.09,.15-.22,0-.31l-4.98-2.88c-.15-.09-.39-.09-.53,0-.15,.09-.15,.22,0,.31l4.98,2.88Z"/>
    <path class="cls-1" d="M211.18,134.47c-.15-.09-.39-.09-.53,0-.15,.09-.15,.22,0,.31l5.03,2.9c.15,.09,.39,.09,.53,0,.15-.09,.15-.22,0-.31l-5.03-2.9Z"/>
    <path class="cls-1" d="M230.67,146.34c.15,.09,.39,.09,.53,0,.15-.09,.15-.22,0-.31l-4.98-2.88c-.15-.09-.39-.09-.53,0-.15,.09-.15,.22,0,.31l4.98,2.88Z"/>
    <path class="cls-1" d="M238.19,150.68c.15,.09,.39,.09,.53,0,.15-.09,.15-.22,0-.31l-5.03-2.9c-.15-.09-.39-.09-.53,0-.15,.09-.15,.22,0,.31l5.03,2.9Z"/>
    <path class="cls-1" d="M245.71,155.02c.15,.09,.39,.09,.53,0,.15-.09,.15-.22,0-.31l-5.03-2.9c-.15-.09-.39-.09-.53,0-.15,.09-.15,.22,0,.31l5.03,2.9Z"/>
    <path class="cls-1" d="M253.18,159.33c.15,.09,.39,.09,.53,0,.15-.09,.15-.22,0-.31l-4.98-2.88c-.15-.09-.39-.09-.53,0-.15,.09-.15,.22,0,.31l4.98,2.88Z"/>
    <path class="cls-1" d="M263.73,164.81c-.15-.09-.39-.09-.53,0s-.15,.22,0,.31l5.03,2.9c.15,.09,.39,.09,.53,0,.15-.09,.15-.22,0-.31l-5.03-2.9Z"/>
    <path class="cls-1" d="M325.71,196.02l5.03-2.9c.15-.09,.15-.22,0-.31-.15-.09-.39-.09-.53,0l-5.03,2.9c-.15,.09-.15,.22,0,.31,.15,.09,.39,.09,.53,0Z"/>
    <path class="cls-1" d="M333.23,191.68l5.03-2.9c.15-.09,.15-.22,0-.31-.15-.09-.39-.09-.53,0l-5.03,2.9c-.15,.09-.15,.22,0,.31,.15,.09,.39,.09,.53,0Z"/>
    <path class="cls-1" d="M340.75,187.34l5.03-2.9c.15-.09,.15-.22,0-.31-.15-.09-.39-.09-.53,0l-5.03,2.9c-.15,.09-.15,.22,0,.31,.15,.09,.39,.09,.53,0Z"/>
    <path class="cls-1" d="M348.27,182.99l4.98-2.88c.15-.09,.15-.22,0-.31-.15-.09-.39-.09-.53,0l-4.98,2.88c-.15,.09-.15,.22,0,.31,.15,.09,.39,.09,.53,0Z"/>
    <path class="cls-1" d="M355.79,178.65l4.98-2.88c.15-.09,.15-.22,0-.31-.15-.09-.39-.09-.53,0l-4.98,2.88c-.15,.09-.15,.22,0,.31,.15,.09,.39,.09,.53,0Z"/>
    <path class="cls-1" d="M363.27,174.34l5.03-2.9c.15-.09,.15-.22,0-.31s-.39-.09-.53,0l-5.03,2.9c-.15,.09-.15,.22,0,.31,.15,.09,.39,.09,.53,0Z"/>
    <path class="cls-1" d="M370.79,170l5.03-2.9c.15-.09,.15-.22,0-.31-.15-.09-.39-.09-.53,0l-5.03,2.9c-.15,.09-.15,.22,0,.31,.15,.09,.39,.09,.53,0Z"/>
    <path class="cls-1" d="M378.31,165.65l4.98-2.88c.15-.09,.15-.22,0-.31-.15-.09-.39-.09-.53,0l-4.98,2.88c-.15,.09-.15,.22,0,.31,.15,.09,.39,.09,.53,0Z"/>
    <path class="cls-1" d="M385.83,161.31l4.98-2.88c.15-.09,.15-.22,0-.31-.15-.09-.39-.09-.53,0l-4.98,2.88c-.15,.09-.15,.22,0,.31,.15,.09,.39,.09,.53,0Z"/>
    <path class="cls-1" d="M393.3,157l5.03-2.9c.15-.09,.15-.22,0-.31-.15-.09-.39-.09-.53,0l-5.03,2.9c-.15,.09-.15,.22,0,.31,.15,.09,.39,.09,.53,0Z"/>
    <path class="cls-1" d="M400.82,152.65l5.03-2.9c.15-.09,.15-.22,0-.31-.15-.09-.39-.09-.53,0l-5.03,2.9c-.15,.09-.15,.22,0,.31,.15,.09,.39,.09,.53,0Z"/>
    <path class="cls-1" d="M408.34,148.31l4.98-2.88c.15-.09,.15-.22,0-.31-.15-.09-.39-.09-.53,0l-4.98,2.88c-.15,.09-.15,.22,0,.31,.15,.09,.39,.09,.53,0Z"/>
    <path class="cls-1" d="M415.86,143.97l4.98-2.88c.15-.09,.15-.22,0-.31-.15-.09-.39-.09-.53,0l-4.98,2.88c-.15,.09-.15,.22,0,.31,.15,.09,.39,.09,.53,0Z"/>
    <path class="cls-1" d="M423.34,139.66l5.03-2.9c.15-.09,.15-.22,0-.31-.15-.09-.39-.09-.53,0l-5.03,2.9c-.15,.09-.15,.22,0,.31,.15,.09,.39,.09,.53,0Z"/>
    <path class="cls-1" d="M430.86,135.31l5.03-2.9c.15-.09,.15-.22,0-.31-.15-.09-.39-.09-.53,0l-5.03,2.9c-.15,.09-.15,.22,0,.31,.15,.09,.39,.09,.53,0Z"/>
    <path class="cls-1" d="M438.38,130.97l5.03-2.9c.15-.09,.15-.22,0-.31-.15-.09-.39-.09-.53,0l-5.03,2.9c-.15,.09-.15,.22,0,.31s.39,.09,.53,0Z"/>
    <path class="cls-1" d="M236.99,77.18c.15,.09,.39,.09,.53,0,.15-.09,.15-.22,0-.31l-19.09-11.02c-.15-.09-.39-.09-.53,0-.15,.09-.15,.22,0,.31l19.09,11.02Z"/>
    <path class="cls-1" d="M275.08,98.55c-.15-.09-.39-.09-.53,0-.15,.09-.15,.22,0,.31l3.74,2.16c.15,.09,.39,.09,.53,0,.15-.09,.15-.22,0-.31l-3.74-2.16Z"/>
    <path class="cls-1" d="M308.85,118.05c-.15-.09-.39-.09-.53,0-.15,.09-.15,.22,0,.31l3.78,2.18c.15,.09,.39,.09,.53,0,.15-.09,.15-.22,0-.31l-3.78-2.18Z"/>
    <path class="cls-1" d="M345.87,140.04c.15,.09,.39,.09,.53,0,.15-.09,.15-.22,0-.31l-3.74-2.16c-.15-.09-.39-.09-.53,0-.15,.09-.15,.22,0,.31l3.74,2.16Z"/>
    <path class="cls-1" d="M372.66,155.2c.15-.09,.15-.22,0-.31l-22.52-13c-.15-.09-.39-.09-.53,0-.15,.09-.15,.22,0,.31l22.52,13c.15,.09,.39,.09,.53,0Z"/>
    <path class="cls-1" d="M413.46,179.06c.15,.09,.39,.09,.53,0,.15-.09,.15-.22,0-.31l-3.78-2.18c-.15-.09-.39-.09-.53,0-.15,.09-.15,.22,0,.31l3.78,2.18Z"/>
    <path class="cls-1" d="M444.03,196.1c-.15-.09-.39-.09-.53,0-.15,.09-.15,.22,0,.31l3.74,2.16c.15,.09,.39,.09,.53,0,.15-.09,.15-.22,0-.31l-3.74-2.16Z"/>
    <path class="cls-1" d="M514.82,237.59c.15,.09,.39,.09,.53,0,.15-.09,.15-.22,0-.31l-3.78-2.18c-.15-.09-.39-.09-.53,0-.15,.09-.15,.22,0,.31l3.78,2.18Z"/>
    <path class="cls-1" d="M655.43,269.6l-59.27-34.22c-.15-.09-.39-.09-.53,0-.15,.09-.15,.22,0,.31l55.04,31.78-8.28,3.39,.98,.57s0,0,0,0l-69.37,40.05-.98-.57-5.92,4.8-55.04-31.78c-.15-.09-.39-.09-.53,0l-95.53,55.16-5.87-4.78-.98,.56-69.37-40.05h0l.98-.57-8.27-3.39,74.53-43.03c.15-.09,.15-.22,0-.31-.15-.09-.39-.09-.53,0l-73.95,42.7-5.92-4.8-.98,.56-69.37-40.05,.98-.56-8.28-3.39,31.9-18.42,4.27-2.47,9.74-5.63,28.69-16.57c1.22,.15,2.27,.6,2.88,1.23,0,.03,.02,.05,.04,.07l2.76,3.03s.04,.04,.07,.05l30.97,17.88,24.85,14.35-2.9,6.23c-.13-.02-.27,0-.36,.05l-14.51,8.37-7.07-4.08c-.15-.09-.39-.09-.53,0l-14.73,8.5c-.15,.09-.15,.22,0,.31l14.73,8.5c.15,.09,.39,.09,.53,0l14.73-8.5c.15-.09,.15-.22,0-.31l-7.12-4.11,14.51-8.37c.1-.06,.12-.14,.09-.21l10.83-1.65,4.74,2.74,4.18,2.41s.08,.04,.12,.05c.05,.01,.09,.02,.14,.02h8.45c.06,0,.1-.02,.14-.03,.02,0,.04,0,.07-.02,.02,0,.05-.01,.06-.03,.01,0,.03,0,.04-.01l22.78-13.15,8.03,4.64,.04,7.18s0,0,0,0c0,.06,.04,.11,.11,.15l65.14,37.61s.08,.04,.12,.05c.05,.01,.1,.02,.15,.02l8.4,.03c.1,0,.2-.02,.27-.06l37.55-21.68,17.53,10.12c.15,.09,.39,.09,.53,0,.15-.09,.15-.22,0-.31l-17.53-10.12,37.6-21.71c.07-.04,.11-.1,.11-.16l-.04-4.85c0-.06-.04-.11-.11-.16l-65.14-37.61c-.07-.04-.17-.06-.26-.06,0,0,0,0,0,0l-12.44-.03-8.03-4.64,22.83-13.18c.07-.04,.09-.09,.1-.13,0,0,.01-.01,.01-.02v-4.88c0-.06-.04-.11-.11-.15l-4.18-2.41-6.39-3.69,42.1-6.52,21.92,12.65c.15,.09,.39,.09,.53,0,.15-.09,.15-.22,0-.31l-22.07-12.74c-.1-.06-.23-.08-.36-.06l-25.33,3.92-12.62-7.29c-.1-.06-.24-.08-.36-.06-.13,.02-.23,.08-.27,.15l-4.46,9.7-26.01-15.02,43.34-25.02c.15-.09,.15-.22,0-.31s-.39-.09-.53,0l-43.34,25.02-3.92-2.26-30.97-17.88s-.04-.01-.05-.02c-.01,0-.02-.01-.04-.02l-5.12-1.55s-.06-.04-.1-.05c-1.15-.34-1.97-.98-2.25-1.7l38.44-22.19c.07-.04,.09-.09,.1-.13,0,0,.02-.01,.02-.02v-4.88c0-.06-.04-.11-.11-.15l-62.21-35.91,55.71-32.16c.15-.09,.15-.22,0-.31-.15-.09-.39-.09-.53,0l-55.71,32.16-36.93-21.32c-.15-.09-.39-.09-.53,0l-10.23,5.91-10.23-5.91L426.32,7.17c.15-.09,.15-.22,0-.31-.15-.09-.39-.09-.53,0l-60.11,34.71-10.95-6.32,10.23-5.91c.15-.09,.15-.22,0-.31l-16.82-9.71c-.07-.04-.17-.06-.27-.06h-8.45c-.06,0-.1,.02-.14,.03-.02,0-.04,0-.07,.02-.02,0-.05,.01-.06,.03-.01,0-.03,0-.04,.01l-37.51,21.66-44.17-25.5,42.14-6.5,21.92,12.65c.15,.09,.39,.09,.53,0,.15-.09,.15-.22,0-.31l-22.07-12.74c-.1-.06-.23-.08-.36-.06l-25.36,3.91-12.59-7.27c-.1-.06-.23-.08-.37-.06-.13,.02-.23,.08-.27,.15l-4.5,9.68-3.72-2.15-17.18-9.92c-.15-.09-.39-.09-.53,0-.15,.09-.15,.22,0,.31l4.14,2.39-8.28,3.44,.93,.54L120.45,73.91l-.93-.54-5.92,4.75-4.14-2.39c-.15-.09-.39-.09-.53,0s-.15,.22,0,.31l4.14,2.39-8.23,3.42,.93,.54-16.15,9.33c-.15,.09-.15,.22,0,.31l7.12,4.11-7.07,4.08c-.15,.09-.15,.22,0,.31l48.1,27.77c.15,.09,.39,.09,.53,0l14.68-8.48c.15-.09,.15-.22,0-.31l-48.1-27.77c-.15-.09-.39-.09-.53,0l-7.07,4.08-6.85-3.96,15.89-9.17,.98,.57,5.87-4.78,61.76,35.66-37.55,21.68c-.05,.03-.08,.07-.09,.1l-4.09,2.36-24.12,13.92-31.06-17.93c-.15-.09-.39-.09-.53,0-.15,.09-.15,.22,0,.31l31.06,17.93-3.92,2.26-30.7,17.73-25.32,14.62-22.65,13.08L0,215.18c-.15,.09-.15,.22,0,.31,.15,.09,.39,.09,.53,0l4.14-2.39,5.92,4.75,.93-.54,300.62,173.56-.93,.54,8.23,3.42-4.14,2.39c-.15,.09-.15,.22,0,.31,.15,.09,.39,.09,.53,0l25.94-14.98,70.53-40.72,99.49-57.44,59,34.06c.15,.09,.39,.09,.53,0,.15-.09,.15-.22,0-.31l-4.14-2.39,8.32-3.42-.98-.56,69.37-40.05h0s.98,.56,.98,.56l5.87-4.78,4.14,2.39c.15,.09,.39,.09,.53,0,.15-.09,.15-.22,0-.31Zm-281.22-14.85l-14.19,8.2-14.19-8.19,14.19-8.19,14.19,8.19ZM152.18,119.67l-14.15,8.17-10.01-5.78,14.15-8.17,10.01,5.78Zm-10.55-6.09l-14.15,8.17-22.29-12.87,14.15-8.17,22.29,12.87Zm-37.02-21.37l14.19,8.2-14.15,8.17-14.19-8.2,14.15-8.17Zm212.52,109.79l1.59-1.8,.38-.32,.4-.28,.64-.33,.69-.21,.83-.15,.84-.08h.1s-5.48,3.17-5.48,3.17Zm10.1-1.92s-.02-.06-.04-.09c-.63-.7-1.72-1.22-3-1.45l61.5-35.51,6.41,3.7-62.42,36.04-2.45-2.69Zm83.58,44.94h-7.39l62.14-35.88,3.69,2.13-58.45,33.74Zm105.1,36.43l-7.35-.02,36.32-20.97,1.55,3.37-30.53,17.62Zm25.16-28.71s.07,.03,.11,.04l-2.13,1.23,.83-1.96,1.19,.69Zm-.71-1.02l3.5-.48-2.19,1.26s-.04-.04-.07-.06l-1.24-.72Zm4.71-.57l5.29,3.06-2.85,1.64-2.14-1.23c-.15-.09-.39-.09-.53,0-.15,.09-.15,.22,0,.31l2.14,1.23-2.8,1.62-5.29-3.06,6.18-3.57Zm2.45,5.32l1.07,.62c.15,.09,.39,.09,.53,0,.15-.09,.15-.22,0-.31l-1.07-.62,2.96-1.71,2.53,.39-8.27,4.77-.67-1.46,2.92-1.68Zm6.36,3.06l-1.02-.59c-.15-.09-.39-.09-.53,0-.15,.09-.15,.22,0,.31l1.02,.59-6.3,3.64-1.55-3.37,8.89-5.13,5.84,.89-6.34,3.66Zm37.49-21.64l-30.53,17.62-5.84-.89,36.32-20.97,.04,4.24Zm-.2-4.77l-37.01,21.37-3.07-.47-5.76-3.32s-.03,0-.04-.02c-.02,0-.04-.02-.06-.02-.02,0-.05-.01-.07-.02-.02,0-.04,0-.06,0-.03,0-.05,0-.08,0-.01,0-.03,0-.04,0l-5.25,.73-20.65-11.92c-.15-.09-.39-.09-.53,0-.15,.09-.15,.22,0,.31l20.7,11.95-1.27,2.97s0,.01,0,.02c0,.03,0,.05,0,.08,0,0,0,.02,0,.02,.02,.03,.04,.06,.09,.09l5.76,3.32,.81,1.77-37.01,21.37-64.61-37.3,41.73-24.09c-.14,.09-.14,.22,0,.31l22.52,13c.15,.09,.39,.09,.53,0,.15-.09,.15-.22,0-.31l-22.52-13c-.15-.08-.38-.08-.53,0l41.78-24.12,64.61,37.3Zm-65.52-37.39l-82.77,47.79-.04-6.66,35.35-20.41,2.8,1.62c.15,.09,.39,.09,.53,0,.15-.09,.15-.22,0-.31l-2.8-1.62,35.4-20.44,11.53,.02Zm-12.22-.24l-35.24,20.35-.4-.23c-.15-.09-.39-.09-.53,0-.15,.09-.15,.22,0,.31l.4,.23-35.2,20.32-7.88-4.55,35.2-20.32,3.74,2.16c.15,.09,.39,.09,.53,0,.15-.09,.15-.22,0-.31l-3.74-2.16,35.24-20.35,7.88,4.55Zm14.84-18.28l-58.49,33.77-3.69-2.13,62.18-35.9v4.26Zm-5.83-20.81l11.85,6.84-16.14,2.5,4.29-9.34Zm-5.09,9.8h0s6.85,3.96,6.85,3.96l3.92,2.26-62.56,36.12-14.06-8.12c-.15-.09-.39-.09-.53,0-.15,.09-.15,.22,0,.31l14.06,8.12-62.52,36.09-3.92-2.26-33.55-19.37,8.28-3.39-.98-.56,55.44-32.01,11.92,6.88c.15,.09,.39,.09,.53,0,.15-.09,.15-.22,0-.31l-11.92-6.88,55.44-32.01,.98,.56,5.92-4.8,26.7,15.41Zm-30.93-17.85l4.14,2.39-8.28,3.44,.93,.54-55.44,32.01-10.06-5.81c-.15-.09-.39-.09-.53,0-.15,.09-.15,.22,0,.31l10.06,5.81-55.44,32.01-.93-.54-5.92,4.75-4.14-2.39-30.7-17.73,62.52-36.09,13.3,7.68c.15,.09,.39,.09,.53,0,.15-.09,.15-.22,0-.31l-13.3-7.68,62.56-36.12,30.7,17.73Zm-37.35-19.97c.33,.19,.7,.35,1.11,.48,0,0,0,.01,.02,.02,.03,.01,.06,.03,.09,.04l4.8,1.46-62.47,36.06-6.41-3.7,61.59-35.56c.25,.45,.68,.87,1.26,1.2Zm-.81-2.08h0s.12-.52,.12-.52l.24-.47,.35-.4,.56-.37,.04-.02,.49-.24,.56-.22,3.13-.93-5.49,3.17Zm37.96-21.92l-30.73,17.74-5.24,1.55s-.01,0-.02,0c0,0-.02,0-.02,0l-.6,.24-.54,.26s-.02,0-.02,0l-3.69,2.13c-.15,.09-.15,.22,0,.31,.15,.09,.39,.09,.53,0l1.81-1.04-.04,.09-.14,.59,.07,.41-61.9,35.74-1.73-1c-.15-.09-.39-.09-.53,0-.15,.09-.15,.22,0,.31l1.73,1-61.86,35.71-.8-.04-.99,.08-.09,.02,1.8-1.04c.15-.09,.15-.22,0-.31-.15-.09-.39-.09-.53,0l-3.69,2.13s0,0,0,0h-.01s-.46,.33-.46,.33l-.43,.36-2.69,3.03-21.05,12.15-9.68,5.59h-7.38s208.95-120.64,208.95-120.64v4.26Zm-4.12-7.03c.05,.03,.12,.05,.18,.05l3.78,2.18-209.71,121.08-3.92-2.26-24.96-14.41,58.6-33.83c.15-.09,.15-.22,0-.31-.15-.09-.39-.09-.53,0l-58.6,33.83-7.88-4.55,40.94-23.63c.15-.09,.15-.22,0-.31-.15-.09-.39-.09-.53,0l-40.94,23.63-24.34-14.05,8.28-3.44-.93-.54h0l34.39-19.86,4.76,2.75c.15,.09,.39,.09,.53,0,.15-.09,.15-.22,0-.31l-4.76-2.75,20.47-11.82,24.12,13.92-1.47,.85c-.15,.09-.15,.22,0,.31,.15,.09,.39,.09,.53,0l1.47-.85,3.96,2.29c.15,.09,.39,.09,.53,0,.15-.09,.15-.22,0-.31l-1.15-.66s-.04-.08-.09-.11l-2.67-1.54,2.98-1.72c.15-.09,.15-.22,0-.31-.15-.09-.39-.09-.53,0l-3.03,1.75-24.12-13.92,41.51-23.97,19.36,11.18c.15,.09,.39,.09,.53,0,.15-.09,.15-.22,0-.31l-19.36-11.18,41.51-23.97,24.12,13.92-2.98,1.72c-.15,.09-.15,.22,0,.31,.15,.09,.39,.09,.53,0l2.98-1.72,2.67,1.54,1.29,.74c.15,.09,.39,.09,.53,0,.15-.09,.15-.22,0-.31l-1.29-.74-2.67-1.54,1.51-.87c.15-.09,.15-.22,0-.31-.15-.09-.39-.09-.53,0l-1.51,.87-24.12-13.92,20.51-11.84,4.76,2.75c.15,.09,.39,.09,.53,0,.15-.09,.15-.22,0-.31l-4.76-2.75,34.4-19.86,.93,.54,5.92-4.75,58.25,33.63ZM130.37,164.78l20.16-11.64,4.18-2.42,6.32-3.65,3.92-2.26,3.96,2.29,11.48,6.63,6.27,3.62-10.23,5.91c-.05,.03-.08,.07-.09,.11l-24.2,13.97-5.87-4.78-.98,.56-7.56-4.37,.98-.56-8.32-3.42Zm55.75-44.78l-5.92-3.42,20.47-11.82,16.28,9.4-20.47,11.82-.36-.21c-.15-.09-.39-.09-.53,0-.15,.09-.15,.22,0,.31l.36,.21-35.46,20.47-6.05,3.49-16.28-9.4,41.51-23.97,5.92,3.42c.15,.09,.39,.09,.53,0,.15-.09,.15-.22,0-.31Zm-17.04-42.31l69.37-40.05h0s.93,.54,.93,.54l5.92-4.75,34.71,20.04-83.56,48.25-34.71-20.04,8.28-3.44-.93-.54Zm111.46-23.92l3.69,2.13-41.51,23.97-1.47-.85c-.15-.09-.39-.09-.53,0-.15,.09-.15,.22,0,.31l1.47,.85-41.51,23.97-3.69-2.13,83.56-48.25Zm35.29,68.93l2.63,1.52-41.51,23.97-36.66-21.17,41.78-24.12c-.14,.09-.14,.22,0,.31l22.52,13c.15,.09,.39,.09,.53,0,.15-.09,.15-.22,0-.31l-22.52-13c-.15-.08-.38-.08-.53,0l41.78-24.12,36.66,21.17-41.51,23.97-2.62-1.52c-.15-.09-.39-.09-.53,0-.15,.09-.15,.22,0,.31Zm-76.09,4.01l-10.23-5.91,83.56-48.25,10.23,5.91-83.56,48.25Zm-21.58,12.41l.04,.03-31.01,17.91-6.27-3.62-4.18-2.41,8.32-3.42-.98-.56h0s23.89-13.8,23.89-13.8l.18,.1c.15,.09,.39,.09,.53,0,.15-.09,.15-.22,0-.31l-.18-.1,20.47-11.82,10.23,5.91-20.47,11.82-.04-.03c-.15-.09-.39-.09-.53,0-.15,.09-.15,.22,0,.31Zm-17-10.43l-4.14-2.39,20.47-11.82,10.95,6.32-20.47,11.82-4.32-2.49c-.15-.09-.39-.09-.53,0-.15,.09-.15,.22,0,.31l4.32,2.49-23.89,13.79h0s-.93-.54-.93-.54l-5.96,4.78-7.21-4.16-3.96-2.29,31.01-17.91,4.14,2.39c.15,.09,.39,.09,.53,0,.15-.09,.15-.22,0-.31Zm16.86-14.51l41.51-23.97,10.95,6.32-41.51,23.97-10.95-6.32Zm52.99-17.96l-10.95-6.32,41.51-23.97,10.95,6.32-41.51,23.97Zm-11.48-6.63l-10.77-6.22c-.15-.09-.39-.09-.53,0-.15,.09-.15,.22,0,.31l10.77,6.22-41.51,23.97-16.28-9.4,41.51-23.97,1.78,1.03c.15,.09,.39,.09,.53,0,.15-.09,.15-.22,0-.31l-1.78-1.03,41.51-23.97,16.29,9.4-41.51,23.97Zm-76.22,70.36c.05-.03,.08-.07,.09-.11l35.32-20.39,4.4,2.54c.15,.09,.39,.09,.53,0,.15-.09,.15-.22,0-.31l-4.4-2.54,20.47-11.82,36.66,21.17-55.4,31.98h0l-.98-.56-5.92,4.8-4.18-2.41-32.66-18.86,6.05-3.49ZM386.94,42.34l32.56,18.8s.04,.08,.09,.11l4.18,2.41-8.27,3.39,.98,.57-55.44,32.01-36.67-21.17,20.51-11.84,4.4,2.54c.15,.09,.39,.09,.53,0,.15-.09,.15-.22,0-.31l-4.4-2.54,41.51-23.97Zm-17.35,2.16c.05,.03,.12,.05,.18,.05l6.13,3.54-31.01,17.91-.04-.03c-.15-.09-.39-.09-.53,0-.15,.09-.15,.22,0,.31l.04,.03-20.51,11.84-10.23-5.91,20.51-11.84,.18,.1c.15,.09,.39,.09,.53,0,.15-.09,.15-.22,0-.31l-.18-.1,23.89-13.8,.98,.56,5.87-4.78,4.18,2.41Zm-11.57-6.73s.04,.08,.09,.11l7.21,4.16-8.23,3.42,.93,.54-23.89,13.8-4.32-2.49c-.15-.09-.39-.09-.53,0-.15,.09-.15,.22,0,.31l4.32,2.49-20.51,11.84-10.95-6.32,20.51-11.84,4.14,2.39c.15,.09,.39,.09,.53,0,.15-.09,.15-.22,0-.31l-4.14-2.39,31.01-17.91,3.82,2.21Zm-18.44-18.07h7.39l-40.76,23.54-.04-4.24,33.42-19.29Zm-27.83,27.78c.15,.09,.39,.09,.53,0,.15-.09,.15-.22,0-.31l-5.92-3.42,41.51-23.97,16.28,9.4-41.51,23.97-.36-.21c-.15-.09-.39-.09-.53,0-.15,.09-.15,.22,0,.31l.36,.21-20.51,11.84-16.29-9.4,20.51-11.84,5.92,3.42Zm-10.02-5.93c.07,0,.13-.02,.18-.05s.08-.07,.09-.11l3.4-1.97,.04,4.24-20.67,11.93-3.69-2.13,20.64-11.92ZM261.56,5.77l11.82,6.83-16.15,2.49,4.33-9.32ZM113.69,78.18l8.28-3.39-.98-.57L232.4,9.9l.98,.56,5.92-4.8,12.95,7.48,48.81,28.18-20.51,11.84-38.98-22.5c-.15-.09-.39-.09-.53,0-.15,.09-.15,.22,0,.31l4.18,2.41-8.28,3.39,.98,.57h0s-69.37,40.05-69.37,40.05l-.98-.57-5.92,4.8-4.18-2.41c-.15-.09-.39-.09-.53,0-.15,.09-.15,.22,0,.31l38.98,22.5-20.47,11.82-61.76-35.66Zm61.89,36.2c.07,0,.13-.02,.18-.05s.08-.07,.09-.11l20.6-11.89,3.69,2.13-20.62,11.91-7.35-.02,3.4-1.97Zm-8.23,4.8c.05-.03,.08-.07,.09-.11l3.98-2.3,7.35,.02-40.76,23.53v-4.21s29.34-16.94,29.34-16.94Zm-33.64,19.42l3.54-2.04v4.3c0,.06,.04,.11,.11,.15l16.55,9.56-3.92,2.26-20.16,11.64-5.87-4.78-.98,.56h0s-6.32-3.65-6.32-3.65l.98-.56-8.28-3.39,24.34-14.05Zm-28.57,16.49l4.14-2.39,5.92,4.75,.93-.54,6.32,3.65h0s-.93,.54-.93,.54l8.23,3.42-4.14,2.39c-.15,.09-.15,.22,0,.31,.15,.09,.39,.09,.53,0l4.14-2.39,5.96,4.78,.93-.54,7.56,4.37-.93,.54,8.23,3.42-4.14,2.39c-.15,.09-.15,.22,0,.31,.15,.09,.39,.09,.53,0l3.92-2.26,50.99,29.44c.15,.09,.39,.09,.53,0,.15-.09,.15-.22,0-.31l-50.99-29.44,23.85-13.77,32.66,18.86,28.61,16.52-54.73,31.6-5.92-4.75-.93,.54-90.42-52.2,.93-.54-8.23-3.42,26.43-15.26Zm-30.7,17.73l4.18-2.41,5.87,4.78,.98-.56,90.42,52.2-.98,.56,8.28,3.39-4.18,2.41c-.15,.09-.15,.22,0,.31,.15,.09,.39,.09,.53,0l59-34.06,7.88,4.55-80.05,46.22-5.92-4.75-.93,.54-98.83-57.06,.93-.54-8.23-3.42,21.05-12.15Zm-25.32,14.62l4.18-2.41,5.87,4.78,.98-.57,98.83,57.06-.98,.56,8.28,3.39-4.18,2.41c-.15,.09-.15,.22,0,.31,.15,.09,.39,.09,.53,0l84.32-48.68,24.96,14.41,4.18,2.42s.08,.04,.12,.05c.05,.01,.09,.02,.14,.02h7.54l-3.58,2.07-36.18,20.89-66.79,38.56-5.92-4.75-.93,.54L38.04,202l.93-.54-8.23-3.42,18.38-10.61Zm292.12,194.81l-21.71,12.54-5.87-4.78-.98,.56L12.06,217.01l.98-.56-8.28-3.39,21.71-12.54,4.18-2.41,5.87,4.78,.98-.56,132.47,76.48-.98,.57,8.27,3.39-4.18,2.41c-.15,.09-.15,.22,0,.31,.15,.09,.39,.09,.53,0l4.18-2.41,5.87,4.78,.98-.57,153.47,88.6-.98,.57,8.27,3.39-4.18,2.41Zm70.53-40.72l-66.26,38.25-5.92-4.75-.93,.54-153.47-88.6,.93-.54-8.23-3.42,66.79-38.56,4.18-2.41,5.87,4.78,.98-.56,69.37,40.05-.98,.57,8.32,3.42-4.18,2.41-.53,.31c-.15,.09-.15,.22,0,.31,.15,.09,.39,.09,.53,0l.53-.31,3.6-2.08,5.92,4.75,.93-.54h0s69.37,40.05,69.37,40.05l-.93,.54,8.23,3.42-4.14,2.39Z"/>
    <path class="cls-1" d="M592.2,295.93l-7.36-4.25-1.31,.76,3.36,3.97c.34,.4,.6,.7,.79,.91-.31-.1-.79-.24-1.44-.43l-6.95-2-1.46,.85,7.36,4.25,.94-.54-6.26-3.62,8.39,2.39,.88-.51-4.02-4.79,6.16,3.56,.94-.54Z"/>
    <path class="cls-1" d="M588.46,289.56c-.7,.4-1.07,.83-1.13,1.28-.05,.45,.24,.89,.87,1.33l1.02-.48c-.46-.27-.69-.55-.69-.85,0-.3,.22-.58,.65-.83,.41-.24,.87-.36,1.37-.37,.5,0,.93,.09,1.29,.3,.34,.2,.56,.49,.66,.87,.1,.38,.08,1-.06,1.84-.09,.54-.12,.98-.07,1.33,.05,.34,.18,.65,.38,.91,.12,.16,.3,.3,.52,.42l4.86-2.81-.87-.5-3.61,2.08c-.06-.15-.1-.32-.11-.5,0-.18,.03-.56,.12-1.14,.1-.69,.13-1.21,.1-1.55-.03-.34-.13-.63-.3-.86-.16-.23-.39-.44-.69-.61-.58-.33-1.27-.5-2.07-.48-.8,.01-1.56,.22-2.26,.63Z"/>
    <path class="cls-1" d="M595.49,289.84c1.38,.8,2.62,1.23,3.72,1.31,.91,.06,1.72-.11,2.43-.52,.54-.31,.84-.65,.9-1.02,.06-.37-.08-.76-.43-1.17-.35-.41-.96-.86-1.82-1.36-.73-.42-1.36-.72-1.9-.91-.54-.18-1.06-.31-1.55-.37s-.97-.05-1.42,.03c-.46,.08-.88,.23-1.28,.46-.54,.31-.84,.65-.9,1.02-.07,.37,.08,.76,.43,1.17,.35,.41,.96,.87,1.83,1.37Zm-.62-3.12c.42-.24,.97-.33,1.65-.27,.68,.07,1.63,.45,2.84,1.15,1.2,.7,1.87,1.24,1.99,1.64,.12,.4-.03,.71-.44,.95-.42,.24-.96,.33-1.65,.26-.68-.07-1.63-.45-2.84-1.15-1.21-.7-1.88-1.27-2.02-1.7-.1-.35,.05-.64,.47-.88Z"/>
    <path class="cls-1" d="M600.43,285.02l-1.13,.65,4.36,.44,.82,2.72,1.09-.63-.7-2.02,.74,.09,2.75,.32,1.11-.64-4.8-.48-.67-2.51-1.08,.62,.36,1.25c.05,.17,.11,.36,.18,.57-.25-.04-.58-.08-.97-.13l-2.07-.25Z"/>
    <path class="cls-1" d="M610.35,281.32c-.03-.34-.13-.63-.3-.86-.16-.23-.39-.44-.69-.61-.58-.33-1.27-.5-2.07-.48-.8,.01-1.56,.22-2.26,.63-.7,.4-1.07,.83-1.13,1.28-.05,.45,.24,.89,.87,1.33l1.02-.48c-.46-.27-.69-.55-.69-.85,0-.3,.22-.58,.65-.83,.41-.24,.87-.36,1.37-.37,.5,0,.93,.09,1.29,.3,.34,.2,.56,.49,.67,.87,.1,.38,.08,1-.06,1.84-.09,.54-.12,.98-.07,1.33,.05,.34,.18,.65,.38,.91,.12,.16,.3,.3,.52,.42l4.86-2.81-.87-.5-3.61,2.08c-.06-.15-.1-.32-.11-.5,0-.18,.03-.56,.12-1.14,.1-.69,.13-1.21,.1-1.55Z"/>
    <path class="cls-1" d="M617.82,282.82c.16-.24,.2-.47,.1-.68s-.34-.43-.72-.64l-1.03-.59-1.03,.59,1.03,.59,.51-.3c.29,.18,.48,.35,.55,.49,.07,.15,.06,.3-.05,.46l.64,.08Z"/>
    <path class="cls-1" d="M615.82,273.91l-3.66,2.11,3.07,2.59,.96-.43c-.08-.2-.06-.4,.04-.62,.1-.21,.3-.4,.59-.57,.47-.27,1-.4,1.58-.4,.59,0,1.14,.16,1.65,.45,.54,.31,.83,.65,.85,1.01,.03,.36-.18,.67-.61,.92-.36,.21-.79,.32-1.27,.33-.49,.01-1-.09-1.53-.32l-.87,.59c.68,.32,1.42,.47,2.22,.44,.8-.03,1.53-.24,2.2-.62,.82-.47,1.16-1.02,1.04-1.63-.1-.5-.48-.95-1.14-1.33-.7-.4-1.49-.61-2.38-.61-.89,0-1.65,.18-2.29,.55-.49,.28-.79,.64-.93,1.07l-1.58-1.37,2.94-1.7-.86-.5Z"/>
    <path class="cls-1" d="M494.32,140.43c.5,.29,.97,.5,1.44,.64,.46,.14,1.11,.26,1.93,.36l.11,1.08,.92-.04-.1-1.03c.67-.06,1.2-.14,1.59-.25,.5-.14,.99-.34,1.45-.61,.62-.36,1.05-.78,1.3-1.27,.25-.49,.23-1-.05-1.51-.28-.52-.8-.99-1.56-1.43-.52-.3-1.06-.53-1.62-.7-.42-.13-.99-.23-1.71-.31l-.11-1.08-.92,.04,.1,1.03c-.68,.05-1.25,.14-1.71,.27-.46,.13-.91,.32-1.35,.58-.67,.38-1.12,.82-1.36,1.31-.24,.49-.21,.99,.08,1.51s.81,.99,1.57,1.43Zm6.05-3.47c.93,.54,1.42,1.09,1.46,1.66,.04,.57-.3,1.07-1.03,1.49-.33,.19-.7,.34-1.09,.44-.3,.08-.69,.13-1.15,.16l-.45-4.56c.82,.14,1.57,.42,2.27,.82Zm-5.5-.29c.32-.18,.64-.32,.97-.4,.33-.08,.77-.15,1.33-.18l.45,4.58c-.5-.09-.89-.19-1.16-.28-.37-.13-.76-.31-1.14-.53-.99-.57-1.49-1.14-1.51-1.7-.02-.56,.34-1.06,1.07-1.48Z"/>
    <path class="cls-1" d="M500.55,134.73l1.06-.43c-.38-.29-.56-.57-.54-.83,.01-.26,.2-.5,.55-.7,.35-.2,.75-.31,1.19-.31,.44,0,.83,.09,1.16,.28,.42,.24,.57,.51,.47,.8-.11,.29-.35,.55-.74,.77-.04,.02-.09,.05-.16,.08l.69,.52c.19-.19,.37-.33,.54-.43,.42-.24,.9-.36,1.44-.36,.54,0,1.02,.12,1.43,.36,.44,.25,.65,.55,.65,.89,0,.34-.21,.63-.64,.88-.36,.21-.77,.32-1.25,.33-.48,.01-1.02-.1-1.64-.33l-.78,.59c.67,.32,1.41,.47,2.23,.44s1.54-.22,2.19-.6c.72-.41,1.08-.88,1.11-1.41,.02-.53-.29-.98-.93-1.35-.48-.27-.99-.43-1.55-.48-.56-.04-1.1,.03-1.64,.22,.18-.28,.23-.55,.13-.8-.09-.25-.29-.47-.61-.65-.33-.19-.74-.32-1.22-.39-.48-.07-.97-.05-1.48,.04-.51,.1-.97,.26-1.37,.49-.58,.34-.9,.71-.96,1.13-.06,.42,.16,.83,.65,1.25Z"/>
    <path class="cls-1" d="M508.02,132.56c1.38,.8,2.62,1.23,3.72,1.31,.91,.06,1.72-.12,2.43-.52,.54-.31,.84-.65,.9-1.02,.06-.37-.08-.76-.43-1.17-.35-.41-.96-.86-1.82-1.36-.73-.42-1.37-.72-1.91-.91-.54-.18-1.06-.31-1.55-.37-.49-.06-.97-.05-1.43,.03-.46,.08-.88,.23-1.28,.46-.54,.31-.84,.65-.9,1.02-.06,.37,.08,.76,.43,1.17,.35,.41,.96,.87,1.83,1.37Zm-.62-3.12c.42-.24,.97-.33,1.65-.27,.68,.07,1.63,.45,2.84,1.15,1.2,.7,1.86,1.24,1.98,1.64,.12,.39-.03,.71-.44,.95-.41,.24-.96,.33-1.65,.26-.68-.07-1.63-.45-2.83-1.15-1.21-.7-1.88-1.27-2.02-1.7-.1-.35,.05-.64,.47-.88Z"/>
    <path class="cls-1" d="M518.52,130.69l-2.92-1.68c-.42-.24-.7-.46-.83-.66-.14-.19-.16-.4-.06-.62s.28-.4,.55-.56c.36-.21,.74-.31,1.14-.3,.4,0,.83,.14,1.28,.4l3.38,1.95,.9-.52-3.38-1.95c-.52-.3-.98-.5-1.38-.58-.4-.09-.82-.09-1.27-.01-.45,.08-.87,.23-1.26,.46-.64,.37-.93,.82-.86,1.34l-2.64-1.52-.9,.52,7.36,4.25,.9-.52Z"/>
    <path class="cls-1" d="M520.35,122.25c.06,.57,.27,1.19,.63,1.86s.83,1.31,1.44,1.91c.6,.6,1.19,1.07,1.76,1.41l.93-.54c-.68-.45-1.24-.91-1.68-1.37-.62-.65-1.12-1.34-1.48-2.09-.37-.74-.56-1.39-.59-1.95l-.7-.41-4.76,2.75,.87,.5,3.6-2.08Z"/>
    <path class="cls-1" d="M434.7,49.17c.49,.29,.97,.5,1.44,.64,.46,.14,1.11,.26,1.94,.36l.1,1.08,.92-.04-.1-1.03c.67-.06,1.2-.14,1.59-.25,.5-.14,.99-.34,1.45-.61,.62-.36,1.05-.78,1.3-1.27s.23-1-.05-1.51c-.29-.52-.8-.99-1.56-1.43-.52-.3-1.06-.53-1.62-.7-.42-.13-.99-.23-1.71-.31l-.11-1.08-.92,.04,.1,1.03c-.68,.05-1.25,.14-1.71,.27-.46,.13-.91,.32-1.35,.58-.67,.38-1.12,.82-1.36,1.31-.24,.49-.21,.99,.07,1.51,.29,.52,.81,.99,1.57,1.43Zm6.05-3.47c.93,.54,1.42,1.09,1.46,1.66s-.3,1.07-1.03,1.49c-.33,.19-.69,.34-1.09,.44-.3,.08-.69,.13-1.15,.16l-.45-4.56c.82,.14,1.57,.42,2.27,.82Zm-5.5-.29c.32-.18,.64-.32,.97-.4,.33-.08,.77-.15,1.33-.18l.45,4.58c-.5-.09-.89-.19-1.17-.28-.37-.13-.76-.31-1.14-.53-.99-.57-1.49-1.14-1.51-1.7s.34-1.06,1.07-1.48Z"/>
    <path class="cls-1" d="M443.95,44.18c-.08-.2-.06-.4,.04-.62,.1-.21,.3-.4,.59-.57,.47-.27,1-.4,1.58-.4,.59,0,1.14,.16,1.65,.45,.54,.31,.83,.65,.85,1.01,.03,.36-.18,.67-.61,.92-.36,.21-.79,.32-1.28,.33-.49,.01-1-.09-1.53-.32l-.87,.59c.68,.32,1.42,.47,2.22,.44,.8-.03,1.53-.24,2.2-.62,.82-.47,1.16-1.01,1.04-1.63-.1-.5-.48-.95-1.15-1.33-.7-.4-1.49-.61-2.38-.61-.89,0-1.65,.18-2.29,.55-.48,.28-.79,.64-.93,1.07l-1.58-1.37,2.94-1.7-.86-.5-3.66,2.11,3.07,2.59,.96-.43Z"/>
    <path class="cls-1" d="M448.4,41.31c1.38,.8,2.62,1.23,3.72,1.31,.91,.06,1.72-.11,2.43-.52,.54-.31,.84-.65,.9-1.02,.06-.37-.08-.76-.43-1.17-.35-.41-.96-.86-1.82-1.36-.73-.42-1.36-.72-1.9-.91-.54-.18-1.06-.31-1.55-.37-.49-.06-.97-.05-1.42,.03-.46,.08-.88,.23-1.28,.46-.54,.31-.84,.65-.9,1.02-.06,.37,.08,.76,.43,1.17,.35,.41,.96,.87,1.83,1.37Zm-.62-3.12c.42-.24,.97-.33,1.65-.27,.68,.07,1.63,.45,2.84,1.15,1.2,.7,1.87,1.24,1.98,1.64,.12,.4-.03,.71-.44,.95-.41,.24-.96,.33-1.65,.26-.68-.07-1.63-.45-2.84-1.15s-1.88-1.27-2.02-1.7c-.1-.35,.05-.64,.47-.88Z"/>
    <path class="cls-1" d="M449.92,33.41c.99,.57,1.87,.88,2.66,.93,.65,.04,1.23-.08,1.74-.37,.38-.22,.6-.47,.65-.73,.05-.26-.06-.54-.31-.83s-.69-.62-1.3-.97c-.52-.3-.97-.52-1.36-.65-.39-.13-.75-.22-1.11-.26-.35-.04-.69-.04-1.02,.02-.33,.06-.63,.17-.91,.33-.38,.22-.6,.46-.64,.73-.05,.26,.06,.54,.31,.83,.25,.29,.69,.62,1.31,.98Zm-.44-2.23c.3-.17,.7-.24,1.18-.19,.49,.05,1.16,.32,2.03,.82,.86,.5,1.33,.89,1.42,1.17s-.02,.51-.32,.68c-.3,.17-.69,.23-1.18,.18-.49-.05-1.16-.32-2.02-.82-.86-.5-1.34-.9-1.44-1.22-.07-.25,.04-.46,.33-.63Z"/>
    <polygon class="cls-1" points="457.7 38.3 457.05 37.93 455.07 39.07 455.72 39.45 457.7 38.3"/>
    <path class="cls-1" d="M457.22,37.41c.99,.57,1.87,.88,2.66,.93,.65,.04,1.23-.08,1.74-.37,.38-.22,.6-.47,.64-.73,.05-.26-.06-.54-.31-.83s-.69-.62-1.3-.97c-.52-.3-.97-.52-1.36-.65-.39-.13-.75-.22-1.11-.26-.35-.04-.69-.04-1.02,.02-.33,.06-.63,.17-.91,.33-.38,.22-.6,.46-.64,.73s.06,.54,.31,.83c.25,.29,.69,.62,1.31,.98Zm-.44-2.23c.3-.17,.69-.24,1.18-.19,.49,.05,1.16,.32,2.03,.82,.86,.5,1.33,.89,1.42,1.17,.08,.28-.02,.51-.32,.68-.3,.17-.69,.23-1.18,.18-.49-.05-1.16-.32-2.02-.82-.86-.5-1.34-.9-1.44-1.22-.07-.25,.04-.46,.33-.63Z"/>
    <polygon class="cls-1" points="464.26 36.34 464.99 35.92 464.26 35.49 463.52 35.92 464.26 36.34"/>
    <path class="cls-1" d="M463.34,33.88c.99,.57,1.87,.88,2.65,.93,.65,.04,1.23-.08,1.74-.37,.38-.22,.6-.46,.64-.73,.05-.26-.06-.54-.31-.83-.25-.29-.69-.62-1.3-.97-.52-.3-.97-.52-1.36-.65-.39-.13-.75-.22-1.11-.26-.35-.04-.69-.04-1.02,.02-.33,.06-.63,.17-.91,.33-.38,.22-.6,.46-.64,.73-.05,.26,.06,.54,.31,.83,.25,.29,.69,.62,1.31,.98Zm-.44-2.23c.3-.17,.69-.24,1.18-.19,.48,.05,1.16,.32,2.03,.82,.86,.5,1.33,.89,1.42,1.17,.08,.28-.02,.51-.32,.68-.3,.17-.69,.23-1.18,.18-.49-.05-1.16-.32-2.02-.82-.86-.5-1.34-.9-1.44-1.22-.07-.25,.04-.46,.33-.63Z"/>
    <path class="cls-1" d="M468.33,31.21c-.06-.14-.05-.29,.03-.44,.07-.15,.21-.29,.42-.41,.33-.19,.71-.29,1.13-.28,.42,0,.81,.11,1.18,.32,.39,.22,.59,.47,.61,.72,.02,.26-.13,.48-.44,.66-.26,.15-.56,.23-.91,.24-.35,0-.71-.07-1.09-.23l-.62,.42c.48,.23,1.01,.34,1.58,.32,.57-.02,1.09-.17,1.57-.44,.58-.34,.83-.72,.74-1.16-.07-.36-.34-.68-.82-.95-.5-.29-1.07-.43-1.7-.43-.63,0-1.18,.13-1.64,.4-.35,.2-.57,.45-.66,.76l-1.13-.98,2.1-1.21-.62-.36-2.61,1.51,2.19,1.85,.68-.3Z"/>
    <path class="cls-1" d="M390.38,21.83l3.19-1.84,1.76,1.02,.9-.52-1.76-1.02,.99-.57-.83-.48-.99,.57-4.77-2.75-.74,.43,1.41,4.69,.83,.48Zm2.36-2.32l-2.3,1.33-1.01-3.25,3.32,1.92Z"/>
    <path class="cls-1" d="M395.79,16.85c-.08-.2-.06-.4,.04-.62,.1-.21,.3-.4,.59-.57,.47-.27,1-.4,1.58-.4,.59,0,1.14,.16,1.65,.45,.54,.31,.83,.65,.85,1.01,.03,.36-.18,.67-.61,.92-.36,.21-.79,.32-1.28,.33-.49,.01-1-.09-1.53-.32l-.87,.59c.68,.32,1.42,.47,2.22,.44,.8-.03,1.53-.24,2.2-.62,.82-.47,1.16-1.01,1.04-1.63-.1-.5-.48-.95-1.15-1.33-.7-.4-1.49-.61-2.38-.61-.89,0-1.65,.18-2.29,.55-.49,.28-.8,.64-.93,1.07l-1.58-1.37,2.94-1.7-.86-.5-3.66,2.11,3.07,2.59,.96-.43Z"/>
    <polygon class="cls-1" points="396.74 10.15 396.09 9.77 394.11 10.92 394.76 11.29 396.74 10.15"/>
    <path class="cls-1" d="M396.26,9.25c.99,.57,1.87,.88,2.66,.93,.65,.04,1.23-.08,1.74-.37,.38-.22,.6-.47,.65-.73,.05-.26-.06-.54-.31-.83-.25-.29-.69-.62-1.3-.97-.52-.3-.97-.52-1.36-.65-.39-.13-.76-.22-1.11-.26-.35-.04-.69-.04-1.02,.02-.33,.06-.63,.17-.91,.33-.38,.22-.6,.46-.64,.73-.05,.26,.06,.54,.31,.83,.25,.29,.69,.62,1.31,.98Zm-.44-2.23c.3-.17,.7-.24,1.18-.19,.49,.05,1.16,.32,2.03,.82,.86,.5,1.33,.89,1.42,1.17,.08,.28-.02,.51-.32,.68-.3,.17-.69,.23-1.18,.18-.49-.05-1.16-.32-2.02-.82-.86-.5-1.34-.9-1.44-1.22-.07-.25,.04-.46,.33-.63Z"/>
    <polygon class="cls-1" points="403.3 7.34 402.56 7.76 403.3 8.18 404.03 7.76 403.3 7.34"/>
    <path class="cls-1" d="M402.38,5.72c.99,.57,1.87,.88,2.66,.93,.65,.04,1.23-.08,1.74-.37,.38-.22,.6-.47,.65-.73s-.06-.54-.31-.83c-.25-.29-.69-.62-1.3-.97-.52-.3-.97-.52-1.36-.65-.39-.13-.76-.22-1.11-.26-.35-.04-.69-.04-1.02,.02-.33,.06-.63,.17-.91,.33-.38,.22-.6,.46-.64,.73-.05,.26,.05,.54,.31,.83,.25,.29,.69,.62,1.31,.98Zm-.44-2.23c.3-.17,.7-.24,1.18-.19,.49,.05,1.16,.32,2.03,.82,.86,.5,1.33,.89,1.42,1.17,.08,.28-.02,.51-.32,.68-.3,.17-.69,.23-1.18,.18-.49-.05-1.16-.32-2.02-.82s-1.34-.9-1.44-1.22c-.07-.25,.04-.46,.33-.63Z"/>
    <path class="cls-1" d="M407.37,3.06c-.06-.14-.05-.29,.03-.44,.07-.15,.21-.29,.42-.41,.33-.19,.71-.29,1.13-.28,.42,0,.81,.11,1.18,.32,.39,.22,.59,.46,.61,.72s-.13,.48-.44,.66c-.26,.15-.56,.23-.91,.24-.35,0-.71-.07-1.09-.23l-.62,.42c.49,.23,1.01,.34,1.58,.32,.57-.02,1.09-.17,1.57-.44,.58-.34,.83-.73,.74-1.17-.07-.36-.34-.68-.82-.95-.5-.29-1.07-.43-1.7-.43-.63,0-1.18,.13-1.64,.4-.35,.2-.57,.45-.66,.76l-1.13-.98,2.1-1.21-.62-.36-2.61,1.51,2.19,1.85,.68-.3Z"/>
    <polygon class="cls-1" points="401.23 15.03 401.88 15.4 403.86 14.26 403.21 13.88 401.23 15.03"/>
    <path class="cls-1" d="M407.77,13.92c.38-.22,.6-.47,.64-.73,.05-.26-.06-.54-.31-.83s-.69-.62-1.3-.97c-.52-.3-.97-.52-1.36-.65-.39-.13-.75-.22-1.11-.26-.35-.04-.69-.04-1.02,.02-.33,.06-.63,.17-.91,.33-.38,.22-.6,.46-.64,.73s.06,.54,.31,.83c.25,.29,.69,.62,1.31,.98,.99,.57,1.87,.88,2.66,.93,.65,.04,1.23-.08,1.74-.37Zm-5.17-2.16c-.07-.25,.04-.46,.33-.63,.3-.17,.69-.24,1.18-.19,.49,.05,1.16,.32,2.03,.82,.86,.5,1.33,.89,1.42,1.17,.08,.28-.02,.51-.32,.68-.3,.17-.69,.23-1.18,.18-.49-.05-1.16-.32-2.03-.82-.86-.5-1.34-.9-1.44-1.22Z"/>
    <polygon class="cls-1" points="410.42 12.29 411.15 11.87 410.42 11.45 409.68 11.87 410.42 12.29"/>
    <path class="cls-1" d="M414.52,9.92l-5.27-3.05-.42,.24c.11,.2,.16,.44,.13,.74-.03,.3-.14,.6-.33,.9l.62,.36c.13-.16,.24-.35,.35-.58,.1-.23,.16-.43,.17-.61l4.11,2.37,.65-.37Z"/>
    <path class="cls-1" d="M150.99,48.4c.49,.29,.97,.5,1.44,.64,.46,.14,1.11,.26,1.94,.36l.1,1.08,.92-.04-.1-1.03c.67-.06,1.2-.14,1.59-.25,.5-.14,.99-.34,1.45-.61,.62-.36,1.05-.78,1.3-1.27,.25-.49,.23-1-.05-1.51-.28-.52-.8-.99-1.56-1.43-.52-.3-1.06-.54-1.62-.7-.42-.13-.99-.23-1.71-.31l-.11-1.08-.92,.04,.1,1.03c-.68,.05-1.25,.14-1.71,.27-.45,.13-.91,.32-1.35,.58-.67,.38-1.12,.82-1.36,1.31-.24,.49-.21,.99,.07,1.51,.29,.52,.81,.99,1.57,1.43Zm6.05-3.47c.93,.54,1.42,1.09,1.46,1.66,.04,.57-.3,1.07-1.03,1.49-.33,.19-.69,.34-1.09,.44-.3,.08-.69,.13-1.15,.16l-.45-4.56c.82,.14,1.57,.42,2.27,.82Zm-5.5-.29c.32-.18,.64-.32,.97-.4,.33-.08,.77-.15,1.33-.18l.45,4.58c-.5-.09-.89-.19-1.16-.28-.38-.13-.76-.31-1.14-.53-.99-.57-1.49-1.14-1.51-1.7-.02-.56,.34-1.06,1.07-1.48Z"/>
    <path class="cls-1" d="M157.21,42.71l1.06-.43c-.37-.29-.55-.57-.54-.83,.01-.26,.2-.5,.55-.7,.35-.2,.75-.31,1.19-.31,.44,0,.83,.09,1.16,.28,.42,.24,.57,.51,.47,.8-.11,.29-.35,.55-.74,.77-.04,.02-.09,.05-.16,.08l.69,.52c.19-.19,.37-.33,.54-.43,.42-.24,.9-.36,1.44-.36,.54,0,1.02,.12,1.43,.36,.44,.25,.65,.55,.66,.89,0,.34-.21,.63-.64,.88-.36,.21-.77,.32-1.25,.33-.48,.01-1.02-.1-1.64-.33l-.78,.59c.67,.32,1.41,.47,2.23,.44,.81-.02,1.54-.22,2.19-.6,.72-.41,1.09-.88,1.11-1.41,.02-.53-.29-.98-.93-1.35-.48-.27-.99-.43-1.55-.48-.56-.04-1.1,.03-1.64,.22,.18-.28,.23-.55,.14-.8-.09-.25-.29-.47-.61-.65-.33-.19-.74-.32-1.22-.39s-.97-.05-1.48,.04c-.51,.1-.97,.26-1.37,.49-.58,.34-.9,.71-.96,1.13-.06,.42,.16,.83,.66,1.25Z"/>
    <path class="cls-1" d="M164.69,40.54c1.38,.8,2.62,1.23,3.72,1.31,.91,.06,1.72-.11,2.43-.52,.54-.31,.84-.65,.9-1.02,.06-.37-.08-.76-.43-1.17-.35-.41-.96-.86-1.82-1.36-.73-.42-1.36-.72-1.9-.91-.54-.18-1.06-.31-1.55-.37-.49-.06-.97-.05-1.43,.03-.46,.08-.88,.23-1.28,.46-.54,.31-.84,.65-.9,1.02-.07,.37,.08,.76,.43,1.17,.35,.41,.96,.87,1.83,1.37Zm-.62-3.12c.42-.24,.97-.33,1.65-.27,.68,.07,1.63,.45,2.84,1.15,1.2,.7,1.87,1.24,1.98,1.64,.12,.4-.03,.71-.44,.95-.42,.24-.96,.33-1.65,.26-.68-.07-1.63-.45-2.84-1.15-1.21-.7-1.88-1.27-2.02-1.7-.1-.35,.05-.64,.47-.88Z"/>
    <polygon class="cls-1" points="164.18 34.16 165.61 33.33 167.05 34.16 167.66 33.81 166.22 32.98 167.65 32.15 167.04 31.81 165.61 32.63 164.19 31.81 163.58 32.16 165.01 32.98 163.58 33.81 164.18 34.16"/>
    <path class="cls-1" d="M168.06,31.57c.99,.57,1.87,.88,2.66,.93,.65,.04,1.23-.08,1.74-.37,.38-.22,.6-.46,.64-.73,.05-.26-.06-.54-.31-.84-.25-.29-.69-.62-1.3-.97-.52-.3-.97-.52-1.36-.65-.39-.13-.75-.22-1.11-.26-.35-.04-.69-.04-1.02,.02-.33,.06-.63,.17-.91,.33-.38,.22-.6,.46-.64,.73s.06,.54,.31,.83c.25,.29,.69,.62,1.31,.98Zm-.44-2.23c.3-.17,.69-.24,1.18-.19,.49,.05,1.16,.32,2.03,.82,.86,.5,1.33,.89,1.42,1.17,.08,.28-.02,.51-.32,.68-.3,.17-.69,.23-1.18,.18-.49-.05-1.16-.32-2.02-.82s-1.34-.9-1.44-1.22c-.07-.25,.04-.46,.33-.63Z"/>
    <polygon class="cls-1" points="175.09 29.65 174.36 30.07 175.09 30.5 175.83 30.07 175.09 29.65"/>
    <path class="cls-1" d="M174.18,28.03c.99,.57,1.87,.88,2.65,.93,.65,.04,1.23-.08,1.74-.37,.38-.22,.6-.46,.64-.73,.05-.26-.06-.54-.31-.83-.25-.29-.69-.62-1.3-.97-.52-.3-.97-.52-1.36-.65-.39-.13-.75-.22-1.11-.26-.35-.04-.69-.04-1.02,.02-.33,.06-.63,.17-.91,.33-.38,.22-.6,.46-.64,.73-.05,.26,.06,.54,.31,.83,.25,.29,.69,.62,1.31,.98Zm-.44-2.23c.3-.17,.69-.24,1.18-.19,.48,.05,1.16,.32,2.03,.82,.86,.5,1.33,.89,1.42,1.17,.08,.28-.02,.51-.32,.68-.3,.17-.69,.23-1.18,.18s-1.16-.32-2.02-.82c-.86-.5-1.34-.9-1.44-1.22-.07-.25,.04-.46,.33-.63Z"/>
    <path class="cls-1" d="M179.17,25.37c-.06-.14-.05-.29,.03-.44,.07-.15,.21-.29,.42-.41,.33-.19,.71-.29,1.13-.28,.42,0,.81,.11,1.18,.32,.39,.22,.59,.46,.61,.72,.02,.26-.13,.48-.44,.66-.26,.15-.56,.23-.91,.24-.35,0-.71-.07-1.09-.23l-.62,.42c.48,.23,1.01,.34,1.58,.32,.57-.02,1.09-.17,1.57-.44,.58-.34,.83-.72,.74-1.16-.07-.36-.34-.68-.82-.95-.5-.29-1.07-.43-1.7-.43-.63,0-1.18,.13-1.64,.4-.35,.2-.57,.45-.66,.76l-1.13-.98,2.1-1.21-.62-.36-2.61,1.51,2.19,1.85,.68-.3Z"/>
    <path class="cls-1" d="M173.27,33.88c-.33,.06-.63,.17-.91,.33-.38,.22-.6,.46-.64,.73-.05,.26,.06,.54,.31,.83,.25,.29,.69,.62,1.31,.98,.99,.57,1.87,.88,2.66,.93,.65,.04,1.23-.08,1.74-.37,.38-.22,.6-.47,.65-.73,.05-.26-.06-.54-.31-.83-.25-.29-.69-.62-1.3-.97-.52-.3-.97-.52-1.36-.65-.39-.13-.76-.22-1.11-.26s-.69-.04-1.02,.02Zm2.82,1.27c.86,.5,1.33,.89,1.42,1.17,.08,.28-.02,.51-.32,.68-.3,.17-.69,.23-1.18,.18-.49-.05-1.16-.32-2.02-.82-.86-.5-1.34-.9-1.44-1.22-.07-.25,.04-.46,.33-.63,.3-.17,.7-.24,1.18-.19,.49,.05,1.16,.32,2.03,.82Z"/>
    <path class="cls-1" d="M377.13,310.26c1.2,.06,2.09,.08,2.69,.06,.59-.02,1.09-.08,1.5-.17,.41-.09,.76-.23,1.05-.4,.58-.33,.86-.73,.84-1.2-.02-.46-.38-.9-1.09-1.31-.7-.4-1.44-.62-2.22-.65-.78-.03-1.54,.14-2.3,.5l.83,.59c.46-.26,.96-.4,1.48-.4,.52,0,1,.13,1.43,.38,.41,.24,.62,.5,.63,.79,0,.29-.16,.54-.52,.74-.34,.2-.84,.32-1.51,.38-.66,.06-1.72,.05-3.18-.04-.94-.05-1.7-.07-2.3-.04-.59,.03-1.12,.1-1.57,.22-.28,.07-.52,.17-.73,.3l4.86,2.81,.87-.5-3.61-2.08c.26-.04,.55-.06,.87-.06,.32,0,.97,.02,1.97,.07Z"/>
    <path class="cls-1" d="M380.27,314.86c.54,.31,1.13,.48,1.77,.52,.64,.04,1.32-.05,2.03-.25,.71-.2,1.49-.55,2.36-1.05,.73-.42,1.25-.79,1.57-1.1,.32-.31,.53-.61,.64-.9,.1-.28,.09-.56-.05-.82-.14-.26-.4-.51-.8-.74-.54-.31-1.12-.48-1.76-.52-.64-.04-1.32,.05-2.03,.25-.71,.2-1.5,.56-2.37,1.06-1.38,.8-2.14,1.51-2.26,2.15-.1,.53,.2,1,.91,1.41Zm.3-1.38c.12-.39,.78-.94,1.99-1.64s2.19-1.09,2.95-1.16c.6-.06,1.11,.03,1.52,.27,.42,.24,.57,.56,.46,.96-.12,.39-.78,.94-1.99,1.64-1.2,.7-2.15,1.08-2.83,1.15-.68,.07-1.23-.02-1.65-.26-.42-.24-.56-.56-.45-.95Z"/>
    <path class="cls-1" d="M266.19,327.29l4.77-2.75-.74-.43-8.12,.81-.83,.48,3.19,1.84-1.76,1.02,.9,.52,1.76-1.02,.99,.57,.83-.48-.99-.57Zm-.9-.52l-2.3-1.33,5.62-.58-3.32,1.92Z"/>
    <path class="cls-1" d="M275.3,327.01c-.54-.31-1.12-.48-1.76-.52-.64-.04-1.32,.05-2.03,.25-.71,.2-1.5,.56-2.37,1.06-1.38,.8-2.14,1.51-2.26,2.15-.1,.53,.2,1,.91,1.41,.54,.31,1.13,.48,1.77,.52,.64,.04,1.32-.05,2.03-.25s1.49-.55,2.36-1.05c.73-.42,1.25-.79,1.57-1.1,.32-.31,.53-.61,.64-.9,.1-.28,.09-.56-.05-.82-.14-.26-.4-.51-.8-.74Zm-.3,1.38c-.12,.39-.78,.94-1.99,1.64-1.2,.7-2.15,1.08-2.83,1.15-.68,.07-1.23-.02-1.65-.26-.42-.24-.56-.56-.45-.95,.12-.39,.78-.94,1.99-1.64,1.21-.7,2.19-1.09,2.95-1.16,.6-.06,1.11,.03,1.52,.27,.42,.24,.57,.56,.46,.96Z"/>
    <path class="cls-1" d="M285.29,256.57c1.2,.06,2.09,.08,2.69,.06,.59-.02,1.09-.08,1.5-.17,.41-.09,.76-.23,1.05-.4,.58-.33,.86-.73,.84-1.2-.02-.46-.38-.9-1.09-1.31-.7-.4-1.44-.62-2.22-.65-.78-.03-1.54,.14-2.3,.5l.83,.59c.46-.26,.96-.4,1.48-.4,.52,0,1,.13,1.43,.38,.41,.24,.62,.5,.63,.79,0,.29-.16,.54-.52,.74-.34,.2-.84,.32-1.51,.38-.66,.06-1.72,.05-3.18-.04-.94-.05-1.7-.07-2.3-.04-.59,.03-1.12,.1-1.57,.22-.28,.07-.52,.17-.73,.3l4.86,2.81,.87-.5-3.61-2.08c.26-.04,.55-.06,.87-.06,.32,0,.97,.02,1.97,.07Z"/>
    <path class="cls-1" d="M288.43,261.16c.54,.31,1.13,.48,1.77,.52,.64,.04,1.32-.05,2.03-.25,.71-.2,1.49-.55,2.36-1.05,.73-.42,1.25-.79,1.57-1.1,.32-.31,.53-.61,.64-.9s.09-.56-.05-.82-.41-.51-.8-.74c-.54-.31-1.12-.48-1.76-.52-.64-.04-1.32,.05-2.03,.25-.71,.2-1.5,.56-2.37,1.06-1.38,.8-2.14,1.51-2.26,2.15-.1,.53,.2,1,.91,1.41Zm.3-1.38c.12-.39,.78-.94,1.99-1.64s2.19-1.09,2.95-1.16c.6-.06,1.11,.03,1.52,.27,.42,.24,.57,.56,.46,.96-.12,.39-.78,.94-1.99,1.64-1.2,.7-2.15,1.08-2.83,1.15-.68,.07-1.23-.02-1.65-.26-.42-.24-.56-.56-.45-.95Z"/>
    <path class="cls-1" d="M303.8,261.42c.46,.03,.94-.03,1.45-.18,.5-.15,1.06-.4,1.68-.75,.52-.3,.9-.56,1.12-.79,.23-.22,.38-.44,.46-.64,.08-.2,.06-.4-.04-.59-.1-.19-.29-.36-.57-.53-.38-.22-.8-.34-1.26-.37-.46-.03-.94,.03-1.45,.18-.51,.15-1.07,.4-1.69,.76-.99,.57-1.53,1.08-1.62,1.53-.07,.38,.14,.71,.65,1,.38,.22,.81,.35,1.27,.37Zm-1.05-1.36c.08-.28,.56-.67,1.42-1.17,.86-.5,1.56-.78,2.11-.83,.43-.04,.79,.02,1.09,.19,.3,.17,.41,.4,.33,.68-.08,.28-.56,.67-1.42,1.17-.86,.5-1.53,.77-2.02,.82-.49,.05-.88-.01-1.18-.18-.3-.17-.4-.4-.32-.68Z"/>
    <polygon class="cls-1" points="295.67 262.63 293.69 261.48 293.04 261.86 295.02 263 295.67 262.63"/>
    <path class="cls-1" d="M301.12,263.92c.23-.22,.38-.44,.45-.64,.08-.2,.06-.4-.04-.59-.1-.19-.29-.36-.57-.53-.38-.22-.8-.34-1.26-.37-.46-.03-.94,.03-1.45,.18-.51,.15-1.07,.4-1.69,.76-.99,.57-1.52,1.08-1.62,1.53-.07,.38,.14,.71,.65,1,.38,.22,.81,.35,1.27,.37,.46,.03,.94-.03,1.45-.18,.5-.15,1.07-.4,1.68-.75,.52-.3,.9-.56,1.12-.79Zm-3.81,1.22c-.49,.05-.88-.01-1.18-.18-.3-.17-.4-.4-.32-.68,.08-.28,.56-.67,1.42-1.17,.86-.5,1.56-.78,2.11-.83,.43-.04,.79,.02,1.09,.19,.3,.17,.41,.4,.33,.68-.08,.28-.56,.67-1.42,1.17-.86,.5-1.53,.77-2.02,.82Z"/>
    <polygon class="cls-1" points="299.15 267.21 299.89 266.79 299.15 266.36 298.42 266.79 299.15 267.21"/>
    <path class="cls-1" d="M301.72,268.79c.38,.22,.81,.35,1.27,.37,.46,.03,.94-.03,1.45-.18,.5-.15,1.07-.4,1.68-.75,.52-.3,.9-.56,1.12-.79,.23-.22,.38-.44,.46-.64,.08-.2,.06-.4-.04-.59-.1-.19-.29-.36-.57-.53-.38-.22-.8-.34-1.26-.37-.46-.03-.94,.03-1.45,.18-.51,.15-1.07,.4-1.69,.76-.99,.57-1.53,1.08-1.62,1.53-.07,.38,.14,.71,.65,1Zm.21-.98c.08-.28,.56-.67,1.42-1.17,.86-.5,1.56-.78,2.11-.83,.43-.04,.79,.02,1.09,.19,.3,.17,.41,.4,.33,.68-.08,.28-.56,.67-1.42,1.17-.86,.5-1.53,.77-2.02,.82-.49,.05-.88-.01-1.18-.18-.3-.17-.4-.4-.32-.68Z"/>
    <path class="cls-1" d="M311.98,269.34l.62-.36-2.61-1.51-3.21,1.26,.53,.4c.25-.03,.5-.03,.76,.02,.26,.04,.5,.12,.7,.24,.33,.19,.5,.41,.49,.65,0,.24-.19,.47-.56,.68-.39,.22-.8,.34-1.25,.35-.45,.01-.83-.07-1.14-.25-.26-.15-.4-.32-.41-.53-.02-.2,.11-.41,.39-.63l-.73-.36c-.4,.28-.58,.58-.55,.91,.03,.33,.29,.63,.77,.91,.58,.34,1.26,.48,2.02,.43,.62-.04,1.17-.2,1.65-.47,.5-.29,.75-.62,.75-.98,0-.37-.23-.68-.68-.95-.35-.2-.79-.33-1.32-.38l1.7-.65,2.1,1.21Z"/>
    <path class="cls-1" d="M86.41,135.79c.82,.47,1.76,.67,2.83,.6,.87-.06,1.64-.28,2.31-.66,.7-.4,1.05-.86,1.05-1.37,0-.51-.32-.95-.96-1.32-.49-.28-1.1-.46-1.85-.54l2.37-.91,2.94,1.7,.86-.5-3.66-2.11-4.49,1.77,.74,.55c.34-.04,.7-.04,1.07,.02,.37,.06,.7,.17,.99,.34,.47,.27,.7,.58,.69,.91,0,.34-.27,.66-.78,.96-.54,.31-1.13,.48-1.76,.49-.63,.02-1.16-.1-1.6-.35-.36-.21-.55-.45-.58-.74-.02-.28,.16-.58,.55-.88l-1.03-.5c-.56,.39-.81,.82-.77,1.28,.05,.46,.41,.88,1.08,1.27Z"/>
    <path class="cls-1" d="M173.64,180.38c-.49-.28-1.1-.46-1.85-.54l2.37-.91,2.94,1.7,.86-.5-3.66-2.11-4.49,1.77,.74,.55c.34-.04,.7-.04,1.07,.02,.37,.06,.7,.17,.99,.34,.47,.27,.7,.58,.69,.91,0,.34-.27,.66-.79,.95-.54,.31-1.13,.48-1.76,.49-.63,.02-1.16-.1-1.6-.35-.36-.21-.55-.45-.58-.74-.02-.28,.16-.58,.55-.88l-1.03-.5c-.56,.39-.81,.82-.77,1.28,.05,.46,.41,.88,1.08,1.27,.82,.47,1.76,.67,2.83,.6,.87-.06,1.64-.28,2.31-.66,.7-.4,1.05-.86,1.05-1.37,0-.51-.32-.95-.96-1.32Z"/>
    <polygon class="cls-1" points="172.4 185.29 173.43 185.89 174.46 185.29 173.43 184.7 172.4 185.29"/>
    <path class="cls-1" d="M182.57,187.28c.08-.32-.05-.64-.39-.95,.49,.1,.95,.13,1.38,.08,.43-.05,.81-.17,1.12-.35,.33-.19,.56-.43,.68-.7,.12-.28,.1-.56-.07-.86-.17-.29-.45-.56-.85-.79-.58-.34-1.24-.52-1.96-.55-.72-.03-1.44,.09-2.16,.38l.74,.61c.51-.22,.99-.32,1.45-.31,.45,0,.86,.11,1.21,.32,.35,.2,.54,.43,.54,.69,0,.26-.16,.48-.49,.67-.42,.24-.88,.33-1.39,.27-.51-.06-.96-.2-1.34-.43-.04-.02-.08-.05-.14-.09l-.89,.4c.32,.11,.57,.21,.74,.31,.42,.24,.63,.52,.63,.83s-.21,.59-.62,.83c-.44,.25-.95,.38-1.53,.38-.59,0-1.09-.12-1.52-.37-.36-.21-.55-.45-.57-.72-.02-.27,.17-.59,.58-.94l-1.02-.45c-.55,.39-.81,.82-.77,1.28,.04,.47,.39,.89,1.03,1.26,.72,.41,1.53,.63,2.45,.64,.92,.01,1.69-.17,2.34-.54,.48-.27,.75-.57,.83-.89Z"/>
    <path class="cls-1" d="M188.89,190.62c.73-.42,1.25-.79,1.57-1.1,.32-.31,.53-.61,.64-.9,.1-.28,.09-.56-.05-.82-.14-.26-.4-.51-.8-.74-.54-.31-1.12-.48-1.76-.52-.64-.04-1.32,.05-2.03,.25-.71,.2-1.5,.56-2.37,1.06-1.38,.8-2.14,1.51-2.26,2.15-.1,.53,.2,1,.91,1.41,.54,.31,1.13,.48,1.77,.52,.64,.04,1.32-.05,2.03-.25s1.49-.55,2.36-1.05Zm-5.41,.35c-.42-.24-.56-.56-.45-.95,.12-.39,.78-.94,1.99-1.64,1.21-.7,2.19-1.09,2.95-1.16,.6-.06,1.11,.03,1.52,.27,.42,.24,.57,.56,.46,.96-.11,.39-.78,.94-1.99,1.64-1.2,.7-2.15,1.08-2.83,1.15-.68,.07-1.23-.02-1.65-.26Z"/>
    <polygon class="cls-1" points="192.45 193.43 191.02 192.61 192.45 191.78 191.84 191.43 190.41 192.26 188.98 191.43 188.38 191.78 189.81 192.6 188.37 193.44 188.98 193.79 190.42 192.95 191.85 193.78 192.45 193.43"/>
    <polygon class="cls-1" points="186.01 193.15 189.48 195.15 190.08 194.8 186.61 192.8 186.01 193.15"/>
    <path class="cls-1" d="M197.65,194.55c.08-.2,.06-.4-.04-.59-.1-.19-.29-.36-.57-.53-.38-.22-.8-.34-1.26-.37-.46-.03-.94,.03-1.45,.18s-1.07,.4-1.69,.76c-.99,.57-1.52,1.08-1.62,1.53-.07,.38,.14,.71,.65,1,.38,.22,.81,.35,1.27,.37,.46,.03,.94-.03,1.45-.18,.5-.15,1.07-.4,1.68-.75,.52-.3,.9-.56,1.12-.79,.23-.22,.38-.44,.46-.64Zm-.82-.13c-.08,.28-.56,.67-1.42,1.17-.86,.5-1.53,.77-2.02,.82-.49,.05-.88-.01-1.18-.18-.3-.17-.4-.4-.32-.68,.08-.28,.56-.67,1.42-1.17,.86-.5,1.56-.78,2.11-.83,.43-.04,.79,.02,1.09,.19,.3,.17,.41,.4,.33,.68Z"/>
    <polygon class="cls-1" points="194.5 198.05 195.24 198.48 195.97 198.05 195.24 197.63 194.5 198.05"/>
    <path class="cls-1" d="M203.32,198.72c.23-.22,.38-.44,.45-.64,.08-.2,.06-.4-.04-.59-.1-.19-.29-.36-.57-.53-.38-.22-.8-.34-1.26-.37-.46-.03-.94,.03-1.45,.18-.51,.14-1.07,.4-1.69,.76-.99,.57-1.52,1.08-1.62,1.53-.07,.38,.14,.71,.65,1,.38,.22,.81,.35,1.26,.37,.46,.03,.94-.03,1.45-.18,.5-.15,1.06-.4,1.68-.75,.52-.3,.9-.56,1.12-.79Zm-3.81,1.22c-.49,.05-.88-.01-1.18-.18-.3-.17-.4-.4-.32-.68,.08-.28,.56-.67,1.42-1.17,.86-.5,1.57-.77,2.11-.83,.43-.04,.79,.02,1.09,.19,.3,.17,.41,.4,.33,.68-.08,.28-.56,.67-1.42,1.17-.86,.5-1.53,.77-2.02,.82Z"/>
    <path class="cls-1" d="M206.28,201.38c0-.37-.23-.68-.68-.95-.35-.2-.79-.33-1.32-.38l1.7-.65,2.1,1.21,.62-.36-2.61-1.51-3.21,1.26,.53,.4c.25-.03,.5-.03,.76,.02,.26,.04,.5,.12,.7,.24,.33,.19,.5,.41,.49,.65,0,.24-.19,.47-.56,.68-.39,.22-.8,.34-1.25,.35-.45,.01-.83-.07-1.14-.25-.26-.15-.4-.32-.41-.53-.02-.2,.12-.41,.39-.63l-.73-.36c-.4,.28-.58,.58-.55,.91,.03,.33,.29,.63,.77,.91,.58,.34,1.26,.48,2.02,.43,.62-.04,1.17-.2,1.65-.47,.5-.29,.75-.62,.75-.98Z"/>
    <path class="cls-1" d="M104.18,236.9c.72,.41,1.53,.63,2.45,.64,.91,.01,1.69-.17,2.34-.54,.48-.27,.75-.57,.83-.89,.08-.32-.05-.64-.39-.95,.49,.1,.95,.13,1.38,.08,.43-.05,.81-.17,1.12-.35,.33-.19,.56-.43,.68-.7s.1-.56-.07-.85c-.17-.29-.45-.56-.85-.79-.58-.34-1.24-.52-1.96-.55-.72-.03-1.44,.09-2.16,.38l.74,.61c.51-.22,.99-.32,1.45-.31,.46,0,.86,.11,1.21,.32,.35,.2,.54,.43,.54,.69,0,.26-.16,.48-.49,.67-.42,.24-.88,.33-1.39,.27-.51-.06-.96-.2-1.34-.43-.04-.02-.08-.05-.14-.09l-.89,.4c.32,.11,.57,.21,.74,.31,.42,.24,.63,.52,.63,.83,0,.31-.21,.59-.62,.83-.44,.25-.95,.38-1.53,.38-.59,0-1.09-.12-1.52-.37-.36-.21-.55-.45-.57-.72-.02-.27,.17-.59,.58-.94l-1.02-.45c-.55,.39-.81,.82-.77,1.28,.04,.47,.39,.89,1.03,1.26Z"/>
    <path class="cls-1" d="M112.06,237.41c.34-.04,.7-.04,1.07,.02,.37,.06,.7,.17,.99,.34,.47,.27,.7,.58,.69,.91,0,.34-.27,.66-.79,.95-.54,.31-1.13,.48-1.76,.49-.63,.01-1.16-.1-1.6-.35-.36-.21-.55-.45-.58-.74-.02-.28,.16-.58,.55-.88l-1.03-.5c-.56,.39-.81,.82-.76,1.28,.05,.46,.41,.88,1.08,1.27,.82,.47,1.76,.67,2.83,.6,.87-.06,1.64-.28,2.31-.66,.7-.4,1.05-.86,1.05-1.37s-.32-.95-.96-1.32c-.49-.28-1.1-.46-1.85-.54l2.37-.91,2.94,1.7,.86-.5-3.66-2.11-4.49,1.77,.74,.55Z"/>
    <path class="cls-1" d="M171.46,297.97l.7-.41-4.76-2.75-.87,.5,3.6,2.08c-.98,.04-2.05,.16-3.22,.36s-2.27,.48-3.31,.83c-1.04,.35-1.85,.69-2.44,1.01l.93,.54c.78-.39,1.57-.72,2.37-.97,1.12-.36,2.33-.64,3.62-.86,1.29-.21,2.41-.33,3.38-.34Z"/>
    <path class="cls-1" d="M169.44,300.36l.74,.55c.34-.04,.7-.04,1.07,.02,.37,.06,.69,.17,.99,.34,.47,.27,.7,.58,.69,.91,0,.34-.27,.66-.79,.96-.54,.31-1.13,.48-1.76,.49-.63,.02-1.16-.1-1.6-.35-.36-.21-.55-.45-.58-.74-.02-.28,.16-.58,.55-.88l-1.03-.5c-.56,.39-.81,.82-.77,1.28,.05,.46,.41,.88,1.08,1.27,.82,.47,1.76,.67,2.83,.6,.87-.06,1.64-.28,2.31-.66,.7-.4,1.05-.86,1.05-1.37,0-.51-.32-.95-.96-1.32-.49-.28-1.1-.46-1.85-.54l2.37-.91,2.94,1.7,.86-.5-3.66-2.11-4.49,1.77Z"/>
    <path class="cls-1" d="M134.59,197.91l-3.61-2.08c.26-.04,.55-.06,.87-.06,.32,0,.97,.02,1.97,.07,1.2,.06,2.09,.08,2.69,.06,.59-.02,1.09-.08,1.5-.17,.41-.09,.76-.23,1.05-.4,.58-.33,.86-.73,.84-1.2-.02-.46-.38-.9-1.09-1.31-.7-.4-1.44-.62-2.22-.65-.78-.03-1.54,.14-2.3,.5l.83,.59c.46-.26,.96-.4,1.48-.4,.52,0,1,.13,1.43,.38,.41,.24,.62,.5,.63,.79,0,.29-.16,.54-.52,.74-.34,.2-.84,.32-1.51,.38-.66,.06-1.72,.05-3.18-.04-.94-.05-1.7-.07-2.3-.04-.59,.03-1.12,.1-1.57,.22-.28,.07-.52,.17-.73,.3l4.86,2.81,.87-.5Z"/>
    <path class="cls-1" d="M139.07,197.61c.34-.04,.7-.04,1.07,.02,.37,.06,.69,.17,.99,.34,.47,.27,.7,.58,.69,.91,0,.34-.27,.66-.79,.95-.54,.31-1.13,.48-1.76,.49-.63,.02-1.16-.1-1.6-.35-.36-.21-.55-.45-.58-.74-.02-.28,.16-.58,.55-.88l-1.03-.5c-.56,.39-.81,.82-.76,1.28,.05,.46,.41,.88,1.08,1.27,.82,.47,1.76,.67,2.83,.6,.87-.06,1.64-.28,2.31-.66,.7-.4,1.05-.86,1.05-1.37,0-.51-.32-.95-.96-1.32-.48-.28-1.1-.46-1.85-.54l2.37-.91,2.94,1.7,.86-.5-3.66-2.11-4.49,1.77,.74,.55Z"/>
    <path class="cls-1" d="M564.88,166.14c-.48,.09-1.07,.13-1.79,.1-.72-.02-1.45-.11-2.19-.27l-.87,.5c.38,.1,.86,.2,1.42,.28,.56,.08,1.05,.13,1.48,.13l-5.76,3.32,.9,.52,7.39-4.27-.58-.34Z"/>
    <path class="cls-1" d="M559.75,172.94l-.14,.37c.42,.09,.81,.11,1.18,.06,.37-.06,.74-.19,1.12-.41l1.03-.59-1.03-.59-1.03,.59,.51,.3c-.31,.17-.6,.28-.85,.32-.25,.04-.52,.03-.79-.03Z"/>
    <path class="cls-1" d="M573.49,173.23c.5-.37,.73-.76,.68-1.16-.05-.4-.36-.77-.94-1.1-.78-.45-1.67-.64-2.69-.58-1.17,.07-2.47,.52-3.89,1.34-1.27,.73-1.95,1.4-2.03,1.99-.08,.59,.26,1.11,1.01,1.54,.44,.25,.94,.42,1.5,.5,.56,.08,1.14,.06,1.73-.05,.6-.11,1.12-.3,1.59-.57,.7-.41,1.06-.86,1.08-1.36,.02-.5-.27-.92-.87-1.27-.34-.2-.75-.34-1.23-.43-.48-.09-.99-.1-1.54-.03,.74-.42,1.39-.7,1.96-.83,.56-.14,1.09-.18,1.58-.14,.38,.03,.71,.13,1,.3,.36,.21,.53,.46,.52,.74-.01,.18-.16,.39-.43,.64l.97,.48Zm-5.28-.72c.58,0,1.07,.11,1.48,.35,.41,.24,.61,.52,.58,.84-.02,.33-.29,.63-.8,.93-.53,.31-1.08,.47-1.67,.49-.58,.02-1.06-.08-1.44-.3-.26-.15-.44-.34-.52-.56-.09-.22-.06-.46,.1-.69,.15-.24,.38-.45,.7-.63,.47-.27,1-.41,1.58-.42Z"/>
    <path class="cls-1" d="M187.17,58.71c.49,.29,.97,.5,1.44,.64,.46,.14,1.11,.26,1.94,.36l.11,1.08,.92-.04-.1-1.03c.67-.06,1.2-.14,1.59-.25,.5-.14,.99-.34,1.45-.61,.62-.36,1.05-.78,1.3-1.27,.25-.49,.23-1-.05-1.51-.28-.52-.8-.99-1.56-1.43-.52-.3-1.06-.54-1.62-.7-.42-.13-.99-.23-1.71-.31l-.11-1.08-.92,.04,.1,1.03c-.68,.05-1.25,.14-1.71,.27-.45,.13-.91,.32-1.35,.58-.67,.38-1.12,.82-1.36,1.31-.24,.49-.21,.99,.07,1.51,.29,.52,.81,.99,1.57,1.43Zm6.05-3.47c.93,.54,1.42,1.09,1.46,1.66,.04,.57-.3,1.07-1.03,1.49-.33,.19-.69,.34-1.09,.44-.3,.08-.69,.13-1.15,.16l-.45-4.56c.82,.14,1.57,.42,2.27,.82Zm-5.5-.29c.32-.18,.64-.32,.97-.4,.33-.08,.77-.15,1.33-.18l.45,4.58c-.5-.09-.89-.19-1.16-.28-.38-.13-.76-.31-1.14-.53-.99-.57-1.49-1.14-1.51-1.7-.02-.56,.34-1.06,1.07-1.48Z"/>
    <path class="cls-1" d="M193.57,53.16l1.02-.48c-.46-.27-.69-.55-.69-.85,0-.3,.22-.58,.65-.83,.41-.24,.87-.36,1.37-.37,.5,0,.93,.09,1.29,.3,.34,.2,.56,.49,.67,.87s.08,1-.06,1.84c-.09,.54-.12,.98-.07,1.33,.05,.34,.18,.65,.38,.91,.12,.16,.3,.3,.52,.42l4.86-2.81-.87-.5-3.61,2.08c-.06-.15-.1-.32-.11-.5,0-.18,.03-.56,.12-1.14,.1-.69,.13-1.21,.1-1.55-.04-.34-.13-.63-.3-.86-.16-.23-.39-.44-.69-.61-.58-.33-1.27-.5-2.07-.48-.8,.01-1.56,.22-2.26,.63-.7,.4-1.08,.83-1.13,1.28-.05,.45,.24,.89,.87,1.33Z"/>
    <path class="cls-1" d="M200.86,50.84c1.38,.8,2.62,1.23,3.72,1.31,.91,.06,1.72-.11,2.43-.52,.54-.31,.84-.65,.9-1.02,.06-.37-.08-.76-.43-1.17-.35-.41-.96-.86-1.82-1.36-.73-.42-1.36-.72-1.9-.91-.54-.18-1.06-.31-1.55-.37-.49-.06-.97-.05-1.43,.03-.46,.08-.88,.23-1.28,.46-.54,.31-.84,.65-.9,1.02-.07,.37,.08,.76,.43,1.17s.96,.87,1.83,1.37Zm-.62-3.12c.42-.24,.97-.33,1.65-.27,.68,.07,1.63,.45,2.84,1.15,1.2,.7,1.87,1.24,1.98,1.64,.12,.4-.03,.71-.44,.95-.42,.24-.96,.33-1.65,.26-.68-.07-1.63-.45-2.84-1.15-1.21-.7-1.88-1.27-2.02-1.7-.1-.35,.05-.64,.47-.88Z"/>
    <path class="cls-1" d="M113.41,215.02l-3.61-2.08c.26-.04,.55-.06,.87-.06,.32,0,.97,.02,1.97,.07,1.2,.06,2.09,.08,2.69,.06,.59-.02,1.09-.08,1.5-.17,.41-.09,.76-.23,1.05-.4,.58-.33,.86-.73,.84-1.2-.02-.46-.38-.9-1.09-1.31-.7-.4-1.44-.62-2.22-.65-.78-.03-1.54,.14-2.3,.5l.83,.59c.46-.26,.96-.4,1.48-.4,.52,0,1,.13,1.44,.38,.41,.24,.62,.5,.63,.79,0,.29-.16,.54-.52,.74-.34,.2-.84,.32-1.51,.38-.66,.06-1.72,.05-3.18-.04-.94-.05-1.7-.07-2.3-.04-.59,.03-1.12,.1-1.57,.22-.28,.07-.52,.17-.73,.3l4.86,2.81,.87-.5Z"/>
    <path class="cls-1" d="M120.35,214.87c-1.17,.2-2.27,.48-3.31,.83-1.04,.35-1.85,.69-2.44,1.01l.93,.54c.78-.39,1.57-.72,2.37-.97,1.12-.36,2.33-.64,3.62-.86,1.29-.21,2.41-.33,3.38-.34l.7-.41-4.76-2.75-.87,.5,3.6,2.08c-.98,.04-2.05,.16-3.22,.36Z"/>
    <path class="cls-1" d="M304,15.52c-.48,.09-1.07,.13-1.79,.1-.72-.02-1.45-.11-2.19-.27l-.87,.5c.38,.1,.86,.2,1.42,.28,.56,.08,1.05,.13,1.48,.13l-5.76,3.32,.9,.52,7.39-4.27-.58-.34Z"/>
    <path class="cls-1" d="M298.86,22.32l-.14,.37c.42,.09,.81,.11,1.18,.06,.37-.06,.74-.19,1.12-.41l1.03-.59-1.03-.59-1.03,.59,.51,.3c-.31,.17-.6,.28-.85,.32-.25,.04-.52,.03-.79-.03Z"/>
    <path class="cls-1" d="M312.6,22.61c.5-.37,.73-.76,.68-1.16-.05-.4-.36-.77-.94-1.1-.78-.45-1.67-.64-2.69-.58-1.17,.07-2.47,.52-3.89,1.34-1.27,.73-1.95,1.4-2.02,1.99-.08,.59,.26,1.11,1.01,1.54,.44,.25,.94,.42,1.5,.5,.56,.08,1.14,.06,1.73-.05,.6-.11,1.12-.3,1.59-.57,.7-.41,1.06-.86,1.08-1.36,.02-.5-.27-.92-.87-1.27-.34-.2-.75-.34-1.23-.43-.48-.09-.99-.1-1.54-.03,.74-.42,1.4-.7,1.96-.83s1.09-.18,1.58-.14c.38,.03,.71,.13,1,.3,.36,.21,.53,.46,.52,.74-.01,.18-.16,.39-.43,.64l.97,.48Zm-5.28-.72c.58,0,1.07,.11,1.48,.35,.41,.24,.61,.52,.58,.84-.02,.33-.29,.63-.79,.93-.53,.31-1.08,.47-1.67,.49-.58,.02-1.06-.08-1.44-.3-.26-.15-.44-.34-.52-.56-.09-.22-.06-.45,.1-.69,.15-.24,.38-.45,.7-.63,.48-.27,1-.41,1.58-.42Z"/>
    <path class="cls-1" d="M353.92,255.46l3.04-.82,3.08,1.78-1.37,1.78,1.11,.64,4.35-5.99-1.05-.61-10.18,2.62,1.03,.6Zm7.08-1.89c.64-.17,1.24-.36,1.8-.58-.28,.3-.62,.69-1,1.18l-1.27,1.62-2.49-1.44,2.97-.78Z"/>
    <path class="cls-1" d="M101.16,102.29c1.88,1.08,4.93,1.08,6.81,0,1.88-1.08,1.88-2.85,0-3.93-1.88-1.08-4.93-1.08-6.81,0-1.88,1.08-1.88,2.85,0,3.93Zm.53-3.62c1.58-.91,4.16-.91,5.74,0s1.58,2.4,0,3.31c-1.58,.91-4.16,.91-5.74,0-1.58-.91-1.58-2.4,0-3.31Z"/>
    <path class="cls-1" d="M98.85,103.73c3.2,1.85,8.41,1.85,11.61,0,3.2-1.85,3.2-4.86,0-6.71-3.2-1.85-8.41-1.85-11.61,0-3.2,1.85-3.2,4.86,0,6.71Zm.53-6.4c2.91-1.68,7.64-1.68,10.54,0,2.91,1.68,2.91,4.41,0,6.09-2.91,1.68-7.64,1.68-10.54,0-2.91-1.68-2.91-4.41,0-6.09Z"/>
    <path class="cls-1" d="M113.1,108.86c.54,.31,1.13,.48,1.77,.52,.64,.04,1.32-.05,2.02-.25s1.49-.55,2.36-1.05c.73-.42,1.25-.79,1.57-1.1,.32-.31,.53-.61,.64-.9,.1-.28,.09-.56-.05-.82-.14-.26-.41-.51-.8-.74-.54-.31-1.12-.48-1.76-.52-.64-.04-1.31,.05-2.02,.25-.71,.2-1.5,.56-2.37,1.06-1.38,.8-2.14,1.51-2.26,2.15-.1,.53,.2,1,.91,1.4Zm.3-1.38c.12-.39,.78-.94,1.99-1.64,1.21-.7,2.19-1.09,2.95-1.17,.6-.06,1.11,.03,1.52,.27,.42,.24,.58,.56,.46,.96-.12,.39-.78,.94-1.99,1.64-1.2,.7-2.15,1.08-2.83,1.15-.68,.07-1.23-.02-1.65-.26-.42-.24-.56-.56-.45-.95Z"/>
    <path class="cls-1" d="M117.02,110.99l.51,.3c-.31,.17-.6,.28-.85,.32-.25,.04-.52,.03-.79-.03l-.14,.37c.42,.09,.81,.11,1.18,.06,.37-.06,.74-.19,1.12-.41l1.03-.59-1.03-.59-1.03,.59Z"/>
    <path class="cls-1" d="M120.76,112.41c-.1,.53,.2,1,.91,1.4,.54,.31,1.13,.48,1.77,.52,.64,.04,1.32-.05,2.02-.25,.71-.2,1.49-.55,2.36-1.05,.73-.42,1.25-.79,1.57-1.1,.32-.31,.53-.61,.64-.9,.1-.28,.09-.56-.05-.82-.14-.26-.41-.51-.8-.74-.54-.31-1.12-.48-1.76-.52-.64-.04-1.32,.05-2.02,.25-.71,.2-1.5,.56-2.37,1.06-1.38,.8-2.14,1.51-2.26,2.15Zm1.2,.03c.12-.39,.78-.94,1.99-1.64s2.19-1.09,2.95-1.16c.6-.06,1.11,.03,1.52,.27,.42,.24,.58,.56,.46,.96-.12,.39-.78,.94-1.99,1.64-1.2,.7-2.15,1.08-2.83,1.15s-1.23-.02-1.65-.26-.56-.56-.45-.95Z"/>
    <path class="cls-1" d="M129.49,114.29c.34-.04,.7-.04,1.07,.02,.37,.06,.7,.17,.99,.34,.47,.27,.7,.58,.69,.91,0,.34-.27,.66-.79,.95-.54,.31-1.13,.48-1.76,.49-.63,.02-1.16-.1-1.6-.35-.36-.21-.55-.45-.58-.74-.02-.28,.16-.58,.55-.88l-1.03-.5c-.56,.39-.81,.82-.77,1.28,.05,.46,.41,.88,1.08,1.27,.82,.47,1.76,.67,2.83,.6,.87-.06,1.64-.28,2.31-.66,.7-.4,1.05-.86,1.05-1.37,0-.51-.32-.95-.96-1.32-.49-.28-1.1-.46-1.85-.54l2.37-.91,2.94,1.69,.86-.5-3.66-2.11-4.49,1.77,.74,.55Z"/>
    <path class="cls-1" d="M133.97,121.59l3.04-.82,3.08,1.78-1.37,1.78,1.11,.64,4.35-5.99-1.05-.61-10.18,2.62,1.03,.6Zm7.08-1.89c.64-.17,1.24-.36,1.8-.58-.28,.3-.62,.69-1,1.18l-1.27,1.62-2.49-1.44,2.97-.78Z"/>
  </g>
  <g>
    <path class="cls-1" d="M698.08,455.28c0-25.16-17.7-55.82-39.47-68.35-10.62-6.11-20.62-7.07-28.18-2.7-7.58,4.38-11.75,13.57-11.75,25.88,0,25.16,17.7,55.82,39.47,68.35,6.23,3.59,12.26,5.4,17.7,5.4,3.83,0,7.36-.9,10.49-2.7,7.58-4.38,11.75-13.57,11.75-25.88Zm-.95-1.45h-.07c-.3,10.66-4.15,18.57-10.82,22.25-6.88,3.8-15.99,2.75-25.65-2.96-19.72-11.64-35.91-39.74-36.07-62.64-.08-11.22,3.58-19.63,10.32-23.67,6.54-3.92,15.3-3.28,24.68,1.81l.03-.06c20.45,12.61,36.94,41.22,37.58,65.26Zm-38.53,23.83c-21.51-12.38-39.01-42.69-39.01-67.56,0-11.96,4.01-20.87,11.3-25.08,2.98-1.72,6.36-2.58,10.03-2.58,2.79,0,5.75,.51,8.82,1.5-5.76-1.2-11.03-.52-15.38,2.09-7.02,4.22-10.85,12.9-10.76,24.46,.17,23.19,16.55,51.64,36.52,63.42,6,3.54,11.8,5.33,17.04,5.33,3.46,0,6.67-.78,9.53-2.36,4.44-2.45,7.68-6.68,9.53-12.27-1.58,7.26-5.11,12.72-10.35,15.74-7.26,4.2-16.95,3.24-27.27-2.7Z"/>
    <path class="cls-1" d="M859.53,316.86c-7.93-13.78-20.26-23.03-30.68-23.03-2.84,0-5.45,.67-7.76,2l-27.8,16.49-1.09-.64-2.4-1.41-.05,.09c-5.32-2.69-10.61-4.11-15.44-4.11-4.01,0-7.68,.95-10.92,2.81l-12.71,7.3c-12.43-8.89-24.94-13.57-36.28-13.57-6.37,0-12.2,1.5-17.32,4.45l-2.04,1.17v.03s-53.67,30.9-53.67,30.9h0s-2.39,1.34-2.39,1.34c-2.16,1.24-4.18,2.76-6.03,4.5-2.43,.73-4.77,1.73-6.94,2.98l-9.83,5.65c-12.52,7.22-19.42,22.21-19.43,42.21v.05s.05,2.75,.05,2.75c.01,18.64,6.26,39.72,17.61,59.37,11.35,19.65,26.47,35.59,42.58,44.88l2.12,1.29,.03,.02,.03,.02c9.93,5.76,19.93,8.8,28.93,8.8,6.39,0,12.21-1.48,17.3-4.41l9.86-5.67c2.18-1.26,4.23-2.78,6.08-4.52,2.27-.68,4.45-1.59,6.48-2.72l.19-.06,.23-.13,58.09-33.45,1.06-.61,.02-.08c6.92-4.36,12.17-11.4,15.21-20.44,2.85-8.49,3.79-18.81,2.73-29.94l12.68-7.27c7.98-4.59,12.37-14.39,12.19-27.04l28.24-16.2c11.09-6.39,11.57-25.63,1.1-43.81Zm-2.49,41.43l-.23-.4-28.85,16.61c-.02-3.56-.45-7.24-1.22-10.96h.01c-.3-15.42-10.86-33.77-24.05-41.77-2.83-2.54-5.79-4.76-8.86-6.56l.46-.27,28.35-16.32-.21-.37,.04-.02,.23,.4c4.49-2.59,10.49-1.98,16.9,1.72l-.02,.04,1.6,.93c5.89,3.83,11.37,9.86,15.58,17.16,4.29,7.45,6.62,15.17,7.02,21.89v2.01h.06c0,7.1-2.34,12.83-7,15.51l.23,.4h0s-.02,.01-.02,.01Zm-40.43,43.24l-.21-.37-13.34,7.69c-3.19-32.91-24.55-70.01-51.41-89.31l13.34-7.71,.02,.03c14.13-8.14,37.16,5.26,51.33,29.87s14.21,51.26,.07,59.39l.23,.4h-.02Zm-86.98,79c14.89-16.86,12.16-52.58-6.56-85.07-18.72-32.5-48.25-52.8-70.31-48.37-5.96-1.32-11.61-1.42-16.79-.29,1.45-1.27,3-2.37,4.63-3.31v.02s.62-.35,.62-.35c14.4-7.8,35.08-2.94,55.12,13.61,23.43,19.36,41.79,51.25,46.78,81.23,4.81,28.94-3.67,51.13-21.67,57.21,3.58-3.92,6.33-8.85,8.17-14.68Zm.63-2.21c1.38-5.16,2.12-10.93,2.13-17.25,.04-18.99-6.33-40.53-17.92-60.66s-27.03-36.44-43.47-45.94c-5.48-3.16-10.84-5.43-16.01-6.82,21.45-2.75,49.33,17.1,67.28,48.26,17.94,31.16,21.12,65.23,7.99,82.4Zm76.77-152.28c9.08,7.64,16.2,20.01,18.22,31.7-3.47-11.49-10.04-22.91-18.22-31.7Zm-22.32,133.44l-51.88,29.87c10.64-10.19,14.97-28.82,11.2-51.51-5.02-30.19-23.51-62.29-47.1-81.79-17.63-14.57-35.81-20.19-49.93-16.23l51.7-29.77-.23-.4v-.03s.22,.4,.22,.4c11.45-6.6,26.7-5.07,42.93,4.3,.02,0,.03,.02,.05,.03v.02s1.27,.75,1.27,.75c15.81,9.52,30.61,25.36,41.81,44.8,11.31,19.64,17.6,40.61,17.78,59.2v.9h.02s0,.06,0,.09c-.04,18.74-6.37,32.69-17.82,39.29l.23,.4v.05s-.24-.4-.24-.4Zm-157.33-108.91l.23,.4c11.45-6.6,26.7-5.07,42.93,4.3,16.3,9.42,31.62,25.61,43.14,45.6,11.51,19.99,17.83,41.37,17.8,60.2-.01,7.06-.92,13.44-2.66,19.01,0,0,0,0,0,0h0c-2.88,9.2-8.02,16.16-15.16,20.27l.23,.4-.03,.02-.21-.37-3.63,2.09c3.13-2.99,5.75-6.73,7.77-11.14,9.66-21.18,4.51-54.66-13.14-85.29-17.64-30.64-44.02-51.9-67.18-54.17-5.57-.54-10.76,.05-15.41,1.74l5.34-3.06Zm31.25,149.76c-32.31-18.61-58.6-64.15-58.61-101.51,0-18.02,6.04-31.45,17.03-37.8,10.95-6.33,25.55-4.89,41.09,4.07,32.31,18.62,58.6,64.15,58.61,101.51,0,18.02-6.04,31.45-17.03,37.8-10.95,6.33-25.55,4.89-41.09-4.07Zm18.14,8.08c2.68,.52,5.3,.79,7.82,.79,5.69,0,10.95-1.33,15.58-4.01,11.28-6.52,17.49-20.23,17.49-38.59,0-37.65-26.51-83.55-59.07-102.31-15.84-9.13-30.76-10.57-42.01-4.07-6.75,3.9-11.67,10.39-14.54,18.89,2.1-7.85,5.73-14.31,10.74-18.86,6.42-5.82,14.92-8.39,24.58-7.45,22.88,2.24,48.97,23.32,66.47,53.71,17.5,30.39,22.64,63.54,13.1,84.45-4.03,8.83-10.53,14.9-18.78,17.53-6.36,2.03-13.66,1.95-21.39-.09Z"/>
  </g>
</svg>