<?xml version="1.0" encoding="UTF-8"?>
<svg id="Layer_1" data-name="Layer 1" xmlns="http://www.w3.org/2000/svg" viewBox="0 0 930.55 529.83">
  <defs>
    <style>
      .cls-1, .cls-2 {
        fill: #fff;
      }

      .cls-2 {
        opacity: .3;
      }
    </style>
  </defs>
  <path class="cls-2" d="M115,151.28l3.97,2.29-1.77,2.3,1.43,.83,5.61-7.73-1.35-.78-13.15,3.38,1.33,.77,3.92-1.06Zm5.22-1.39c.82-.22,1.6-.47,2.33-.75-.37,.38-.8,.89-1.3,1.53l-1.64,2.09-3.22-1.86,3.83-1.01Z"/>
  <path class="cls-2" d="M410.77,322.04l3.97,2.29-1.77,2.3,1.43,.83,5.61-7.73-1.35-.78-13.15,3.38,1.34,.77,3.92-1.06Zm5.22-1.39c.82-.22,1.6-.47,2.33-.75-.37,.38-.8,.89-1.3,1.53l-1.64,2.09-3.22-1.86,3.83-1.01Z"/>
  <path class="cls-2" d="M476.32,35.31l3.97,2.29-1.77,2.3,1.43,.83,5.61-7.73-1.35-.78-13.15,3.38,1.33,.77,3.92-1.06Zm5.22-1.39c.82-.22,1.6-.47,2.33-.75-.37,.38-.8,.89-1.3,1.53l-1.64,2.09-3.22-1.86,3.83-1.01Z"/>
  <polygon class="cls-2" points="483.24 39.33 486.82 41.4 488 40.73 484.41 38.66 483.24 39.33"/>
  <path class="cls-2" d="M485.71,44.05l3.92-1.06,3.97,2.29-1.77,2.3,1.43,.83,5.61-7.73-1.35-.78-13.15,3.38,1.33,.77Zm9.14-2.45c.82-.22,1.6-.47,2.33-.75-.37,.38-.8,.89-1.3,1.53l-1.64,2.09-3.22-1.86,3.83-1.01Z"/>
  <path class="cls-2" d="M497.24,53.93l.84,.48c.78-1.94,2.21-3.51,4.29-4.71,.82-.47,1.72-.89,2.71-1.25,.8-.29,1.63-.53,2.49-.72,.55-.12,1.54-.3,2.96-.51l-.84-.48c-1.9,.16-3.59,.44-5.07,.85-1.27,.35-2.43,.82-3.45,1.42-1.17,.67-2.07,1.45-2.72,2.34-.64,.89-1.05,1.75-1.22,2.59Z"/>
  <path class="cls-2" d="M508.83,50.44c.5,.13,1.11,.25,1.83,.36,.72,.11,1.36,.17,1.91,.17l-7.43,4.29,1.17,.67,9.54-5.51-.75-.43c-.61,.12-1.38,.16-2.31,.14-.92-.03-1.87-.14-2.82-.34l-1.13,.65Z"/>
  <polygon class="cls-2" points="511.28 57.28 509.95 58.05 511.28 58.81 512.61 58.05 511.28 57.28"/>
  <path class="cls-2" d="M516.8,59.01l-1.33-.65c-.72,.51-1.05,1.06-.99,1.65,.06,.6,.53,1.14,1.39,1.64,1.05,.61,2.27,.87,3.65,.77,1.13-.07,2.12-.36,2.98-.85,.9-.52,1.36-1.11,1.36-1.77s-.41-1.23-1.24-1.71c-.63-.36-1.42-.59-2.39-.69l3.06-1.18,3.79,2.19,1.11-.64-4.72-2.73-5.8,2.29,.95,.71c.45-.06,.9-.05,1.38,.03,.47,.08,.9,.22,1.27,.44,.6,.35,.9,.74,.89,1.18-.01,.44-.35,.85-1.01,1.23-.7,.4-1.46,.62-2.27,.64s-1.5-.13-2.06-.46c-.47-.27-.72-.59-.75-.95-.03-.36,.21-.74,.71-1.14Z"/>
  <polygon class="cls-2" points="522.34 63.66 521.01 64.43 522.34 65.2 523.67 64.43 522.34 63.66"/>
  <polygon class="cls-2" points="526.56 61.23 527.89 61.99 529.22 61.23 527.89 60.46 526.56 61.23"/>
  <path class="cls-2" d="M534.71,63.76l-7.43,4.29,1.17,.67,9.54-5.51-.75-.43c-.61,.12-1.38,.16-2.31,.13-.92-.03-1.87-.14-2.82-.34l-1.13,.65c.5,.13,1.11,.25,1.83,.36,.72,.11,1.36,.17,1.91,.17Z"/>
  <path class="cls-2" d="M528.89,72.21l.84,.48c1.45-.1,2.94-.33,4.48-.7,1.54-.37,2.89-.89,4.05-1.57,1.03-.59,1.85-1.26,2.46-1.99,.7-.86,1.19-1.83,1.46-2.93l-.84-.48c-.38,.83-.68,1.4-.9,1.72-.33,.5-.75,.97-1.25,1.43-.61,.57-1.33,1.09-2.14,1.56-2.08,1.2-4.8,2.03-8.16,2.48Z"/>
  <path class="cls-2" d="M490.02,144.19l3.42-1.97c.13-.08,.13-.2,0-.28-.13-.08-.35-.08-.48,0l-3.42,1.97c-.13,.08-.13,.2,0,.28,.13,.08,.35,.08,.48,0Z"/>
  <path class="cls-2" d="M531.07,110.85c.2-.22,.36-.52,.49-.89l1.7-.06-.07-.48-1.61,.05c-.09-.36-.23-.65-.42-.89-.2-.24-.5-.47-.9-.71-.6-.35-1.29-.58-2.05-.71-.77-.12-1.55-.11-2.36,.04-.81,.15-1.55,.42-2.23,.82-.45,.26-.78,.51-1,.75-.22,.24-.41,.58-.56,1.01l-1.69,.06,.07,.48,1.61-.05c.09,.35,.22,.62,.39,.83,.22,.26,.54,.52,.96,.76,.56,.32,1.22,.55,1.99,.68,.77,.13,1.56,.12,2.37-.03,.81-.15,1.55-.42,2.23-.81,.47-.27,.84-.55,1.1-.84Zm-7.38-1.71c.21-.2,.48-.39,.84-.6,.89-.52,1.78-.78,2.66-.79,.88,0,1.65,.18,2.32,.56,.29,.17,.5,.33,.63,.5,.13,.17,.23,.4,.29,.7l-7.17,.23c.14-.26,.29-.46,.44-.61Zm5.35,2.04c-.84,.49-1.71,.74-2.6,.76-.9,.02-1.67-.16-2.33-.54-.3-.17-.53-.36-.68-.57-.12-.16-.2-.36-.24-.6l7.14-.23c-.22,.43-.65,.82-1.28,1.18Z"/>
  <path class="cls-2" d="M535.44,113.88c.39-.05,.73-.15,1.02-.32,.3-.17,.51-.39,.61-.63,.11-.25,.09-.51-.06-.77-.15-.27-.41-.5-.77-.71-.53-.3-1.12-.47-1.77-.5-.65-.03-1.3,.08-1.95,.34l.67,.56c.46-.2,.89-.29,1.31-.28,.41,0,.78,.1,1.09,.29,.32,.19,.48,.39,.49,.62,0,.23-.14,.43-.44,.6-.38,.22-.8,.3-1.26,.24s-.86-.18-1.21-.39c-.03-.02-.07-.05-.12-.08l-.81,.36c.29,.1,.51,.19,.67,.28,.38,.22,.57,.47,.57,.75,0,.28-.18,.53-.56,.75-.39,.23-.85,.34-1.39,.34-.53,0-.99-.11-1.37-.33-.32-.19-.5-.4-.52-.65-.02-.25,.15-.53,.52-.85l-.92-.41c-.5,.35-.73,.74-.69,1.16,.04,.42,.35,.8,.93,1.14,.65,.37,1.38,.57,2.21,.58,.83,.01,1.53-.15,2.11-.49,.43-.25,.68-.52,.75-.81,.07-.29-.05-.58-.35-.85,.44,.09,.86,.12,1.25,.07Z"/>
  <path class="cls-2" d="M542.39,114.99l-.53-.3c-.43,.08-.97,.12-1.61,.09-.65-.02-1.31-.1-1.98-.24l-.79,.46c.35,.09,.77,.18,1.28,.25,.51,.08,.95,.12,1.34,.12l-5.2,3,.82,.47,6.68-3.85Z"/>
  <polygon class="cls-2" points="543.38 123.27 550.03 119.43 549.15 118.92 546.42 120.5 542.96 118.51 545.69 116.93 544.81 116.42 538.16 120.26 539.04 120.77 542.18 118.96 545.63 120.95 542.5 122.76 543.38 123.27"/>
  <path class="cls-2" d="M548.48,124.1c1.02-.32,2.1-.58,3.27-.77,1.16-.19,2.18-.29,3.05-.31l.64-.37-4.3-2.49-.78,.45,3.26,1.88c-.89,.03-1.86,.14-2.91,.33-1.06,.19-2.05,.43-2.99,.75-.94,.31-1.67,.62-2.2,.92l.84,.48c.71-.36,1.42-.65,2.14-.87Z"/>
  <path class="cls-2" d="M593.25,134.23l-86.46-49.92s0,0,0,0l.88-.51-7.48-3.06,3.78-2.18c.13-.08,.13-.2,0-.28-.13-.08-.35-.08-.48,0l-38.08,21.99c-.13,.08-.13,.2,0,.28,.13,.08,.35,.08,.48,0l34.22-19.76,5.35,4.3,.84-.49h0s86.46,49.92,86.46,49.92l-.84,.49,7.44,3.09-34.22,19.76c-.13,.08-.13,.2,0,.28,.13,.08,.35,.08,.48,0l38.08-21.99c.13-.08,.13-.2,0-.28-.13-.08-.35-.08-.48,0l-3.78,2.18-5.31-4.32-.88,.51Z"/>
  <path class="cls-2" d="M540.7,99.39l-1.69,.05,.07,.48,1.62-.05c.09,.35,.22,.62,.39,.83,.22,.26,.54,.52,.96,.76,.56,.32,1.22,.55,1.99,.68,.77,.13,1.56,.12,2.36-.03,.81-.15,1.55-.42,2.23-.81,.47-.27,.84-.55,1.1-.84,.2-.22,.36-.52,.49-.89l1.7-.06-.07-.48-1.62,.05c-.08-.36-.23-.65-.42-.89s-.5-.47-.9-.71c-.6-.35-1.29-.58-2.05-.71-.77-.12-1.55-.11-2.36,.04-.81,.15-1.55,.42-2.23,.82-.45,.26-.78,.51-1,.75-.22,.24-.41,.58-.56,1.01Zm1.65-.65c.21-.2,.48-.39,.83-.6,.89-.51,1.78-.78,2.66-.79,.88,0,1.65,.18,2.32,.56,.29,.17,.5,.33,.63,.5,.13,.17,.23,.4,.29,.7l-7.17,.23c.14-.26,.29-.46,.45-.61Zm6.63,.86c-.22,.43-.65,.82-1.28,1.18-.84,.49-1.71,.74-2.6,.76-.89,.02-1.67-.16-2.33-.54-.3-.17-.53-.36-.68-.57-.12-.16-.2-.36-.25-.6l7.14-.23Z"/>
  <path class="cls-2" d="M551.84,101.43c.46-.2,.9-.29,1.31-.28,.41,0,.78,.1,1.09,.29,.32,.18,.48,.39,.49,.62,0,.23-.14,.43-.44,.6-.38,.22-.8,.3-1.26,.24-.46-.06-.86-.18-1.21-.38-.03-.02-.07-.05-.12-.08l-.81,.36c.29,.1,.51,.19,.67,.28,.38,.22,.57,.47,.57,.75s-.19,.53-.56,.75c-.39,.23-.86,.34-1.39,.34-.53,0-.99-.11-1.37-.33-.32-.19-.5-.4-.52-.65-.02-.25,.15-.53,.52-.85l-.93-.41c-.5,.35-.73,.74-.69,1.16,.04,.42,.35,.8,.93,1.14,.65,.37,1.38,.57,2.21,.58,.83,.01,1.53-.15,2.11-.49,.43-.25,.68-.52,.75-.81,.07-.29-.05-.58-.35-.85,.44,.09,.86,.12,1.25,.07,.39-.05,.73-.15,1.02-.32,.3-.17,.51-.39,.61-.64,.11-.25,.09-.51-.06-.77-.15-.27-.41-.5-.77-.71-.53-.3-1.12-.47-1.77-.5-.65-.03-1.31,.08-1.95,.34l.67,.55Z"/>
  <path class="cls-2" d="M555.25,105.44c.31-.04,.63-.03,.96,.02,.33,.05,.63,.16,.89,.31,.42,.24,.63,.52,.62,.83,0,.31-.24,.59-.71,.86-.49,.28-1.02,.43-1.59,.45-.57,.01-1.05-.09-1.44-.32-.33-.19-.5-.41-.52-.67-.02-.26,.14-.52,.5-.8l-.93-.45c-.51,.35-.74,.74-.69,1.16,.04,.42,.37,.8,.97,1.15,.74,.43,1.59,.61,2.55,.54,.79-.05,1.48-.25,2.09-.6,.63-.36,.95-.78,.95-1.24,0-.46-.29-.86-.87-1.2-.44-.25-1-.41-1.67-.48l2.15-.82,2.65,1.53,.78-.45-3.31-1.91-4.06,1.6,.67,.5Z"/>
  <path class="cls-2" d="M566.07,107.86c.35,.2,.73,.31,1.14,.34,.41,.02,.85-.03,1.31-.16,.46-.13,.96-.36,1.52-.68,.47-.27,.81-.51,1.02-.71,.21-.2,.34-.39,.41-.58,.07-.18,.06-.36-.03-.53-.09-.17-.26-.33-.52-.48-.34-.2-.72-.31-1.14-.34s-.85,.03-1.31,.16c-.46,.13-.97,.36-1.53,.68-.89,.51-1.38,.98-1.46,1.39-.07,.34,.13,.64,.59,.91Zm.19-.89c.08-.25,.5-.61,1.28-1.06,.78-.45,1.41-.7,1.9-.75,.39-.04,.71,.02,.98,.17,.27,.16,.37,.36,.3,.62-.07,.25-.5,.61-1.28,1.06-.78,.45-1.39,.7-1.83,.74-.44,.04-.8-.01-1.06-.17-.27-.15-.36-.36-.29-.61Z"/>
  <polygon class="cls-2" points="559.87 109.29 558.07 108.26 557.49 108.6 559.28 109.63 559.87 109.29"/>
  <path class="cls-2" d="M559.22,110.77c-.07,.34,.13,.64,.59,.91,.35,.2,.73,.31,1.14,.34,.41,.02,.85-.03,1.31-.16,.46-.13,.96-.36,1.52-.68,.47-.27,.81-.51,1.02-.71,.21-.2,.34-.39,.41-.58,.07-.18,.06-.36-.03-.53-.09-.17-.26-.33-.52-.48-.34-.2-.72-.31-1.14-.33-.41-.02-.85,.03-1.31,.16-.46,.13-.97,.36-1.53,.68-.89,.51-1.38,.98-1.46,1.39Zm3.96-1.79c.39-.04,.71,.02,.98,.17,.27,.16,.37,.36,.3,.62-.07,.25-.5,.61-1.28,1.06-.78,.45-1.39,.7-1.83,.74s-.8-.01-1.06-.17c-.27-.15-.36-.36-.29-.61,.08-.25,.5-.61,1.28-1.06s1.41-.7,1.9-.75Z"/>
  <polygon class="cls-2" points="563.02 112.67 562.35 113.05 563.02 113.43 563.68 113.05 563.02 112.67"/>
  <path class="cls-2" d="M563.79,113.88l3.14,1.81,.56-.32-2.33-1.34c.17-.02,.36-.04,.56-.04,.2,0,.63,.01,1.27,.04,.77,.04,1.35,.05,1.73,.04,.38-.01,.71-.05,.97-.11,.26-.06,.49-.15,.68-.26,.37-.22,.55-.47,.54-.77-.01-.3-.25-.58-.7-.84-.45-.26-.93-.4-1.43-.42-.5-.02-1,.09-1.48,.32l.54,.38c.3-.17,.62-.26,.96-.26s.65,.08,.93,.24c.27,.15,.4,.32,.41,.51,0,.19-.11,.35-.34,.48-.22,.13-.55,.21-.97,.25-.43,.04-1.11,.03-2.05-.02-.6-.04-1.1-.04-1.48-.03-.38,.02-.72,.07-1.02,.14-.18,.05-.34,.11-.47,.19Z"/>
  <path class="cls-2" d="M587.56,206.25c-.32,.19-.7,.29-1.13,.3-.43,.01-.92-.09-1.48-.3l-.71,.53c.61,.29,1.28,.42,2.01,.4,.73-.02,1.39-.2,1.97-.54,.65-.37,.98-.8,1-1.28,.02-.48-.26-.88-.84-1.22-.43-.25-.9-.39-1.4-.43-.5-.04-1,.03-1.48,.2,.16-.25,.2-.49,.12-.72-.08-.23-.27-.42-.55-.59-.3-.17-.67-.29-1.1-.35-.43-.06-.88-.05-1.34,.04-.46,.09-.87,.23-1.24,.44-.53,.3-.82,.64-.87,1.02-.05,.38,.14,.75,.59,1.13l.96-.39c-.34-.27-.5-.52-.49-.75,.01-.24,.18-.45,.49-.63,.32-.19,.68-.28,1.08-.28,.4,0,.75,.08,1.05,.25,.38,.22,.52,.46,.42,.73-.1,.27-.32,.5-.67,.7-.03,.02-.08,.04-.14,.07l.63,.47c.17-.17,.33-.3,.49-.39,.38-.22,.81-.33,1.3-.33s.92,.11,1.29,.32c.39,.23,.59,.49,.59,.8,0,.31-.19,.57-.57,.79Z"/>
  <path class="cls-2" d="M396.61,13.69l6.68-3.85-.53-.3c-.43,.08-.97,.11-1.61,.09-.65-.02-1.31-.1-1.98-.24l-.79,.46c.35,.09,.77,.18,1.28,.25,.51,.08,.95,.12,1.34,.12l-5.2,3,.82,.47Z"/>
  <path class="cls-2" d="M402.66,13.67c.31-.04,.63-.03,.96,.02,.33,.05,.63,.16,.89,.31,.42,.24,.63,.52,.62,.83,0,.31-.24,.59-.71,.86-.49,.28-1.02,.43-1.59,.45-.57,.01-1.05-.09-1.44-.32-.33-.19-.5-.41-.52-.67-.02-.26,.14-.52,.5-.8l-.93-.45c-.51,.35-.74,.74-.69,1.16,.04,.42,.37,.8,.97,1.15,.74,.43,1.59,.61,2.55,.54,.79-.05,1.48-.25,2.09-.6,.63-.36,.95-.78,.95-1.24,0-.46-.29-.86-.87-1.2-.44-.25-1-.42-1.67-.48l2.15-.82,2.65,1.53,.78-.45-3.31-1.91-4.06,1.6,.67,.5Z"/>
  <polygon class="cls-2" points="404.32 18.14 405.25 18.68 406.18 18.15 405.25 17.61 404.32 18.14"/>
  <path class="cls-2" d="M409.64,19.02c-.94,.31-1.67,.62-2.2,.92l.84,.48c.71-.36,1.42-.65,2.14-.87,1.02-.32,2.11-.58,3.27-.77,1.16-.19,2.18-.29,3.05-.31l.64-.37-4.3-2.49-.78,.45,3.26,1.88c-.89,.03-1.86,.14-2.91,.33-1.06,.18-2.05,.44-2.99,.75Z"/>
  <path class="cls-2" d="M415.57,21.12c.31-.04,.63-.03,.96,.02,.33,.05,.63,.16,.89,.31,.42,.24,.63,.52,.62,.83,0,.31-.24,.59-.71,.86-.49,.28-1.02,.43-1.59,.45-.57,.01-1.05-.09-1.44-.32-.33-.19-.5-.41-.52-.67-.02-.26,.14-.52,.5-.8l-.93-.45c-.51,.35-.74,.74-.69,1.16,.04,.42,.37,.8,.97,1.15,.74,.43,1.59,.61,2.55,.54,.79-.05,1.48-.25,2.09-.6,.63-.36,.95-.78,.95-1.24,0-.46-.29-.86-.87-1.2-.44-.25-1-.41-1.67-.48l2.15-.82,2.65,1.53,.78-.45-3.31-1.91-4.06,1.6,.67,.5Z"/>
  <polygon class="cls-2" points="421.92 23.71 420.62 24.45 419.33 23.71 418.79 24.02 420.08 24.76 418.78 25.52 419.33 25.84 420.63 25.08 421.93 25.83 422.47 25.52 421.18 24.77 422.47 24.02 421.92 23.71"/>
  <polygon class="cls-2" points="416.64 25.26 419.78 27.07 420.32 26.75 417.19 24.94 416.64 25.26"/>
  <path class="cls-2" d="M421.19,27.41c-.07,.34,.13,.64,.59,.91,.35,.2,.73,.31,1.14,.34,.41,.02,.85-.03,1.31-.16,.46-.13,.96-.36,1.52-.68,.47-.27,.81-.51,1.02-.71,.21-.2,.34-.39,.41-.58,.07-.18,.06-.36-.03-.53-.09-.17-.26-.33-.52-.48-.34-.2-.72-.31-1.14-.33-.41-.02-.85,.03-1.31,.16-.46,.13-.97,.36-1.53,.68-.89,.51-1.38,.98-1.46,1.39Zm.78,.02c.08-.25,.5-.61,1.28-1.06,.78-.45,1.41-.7,1.9-.75,.39-.04,.71,.02,.98,.17,.27,.16,.37,.36,.3,.62-.07,.25-.5,.61-1.28,1.06-.78,.45-1.39,.7-1.83,.74-.44,.04-.8-.01-1.06-.17-.27-.15-.36-.36-.29-.61Z"/>
  <polygon class="cls-2" points="424.99 30.07 425.65 29.69 424.99 29.31 424.32 29.69 424.99 30.07"/>
  <path class="cls-2" d="M426.72,30.6c-.07,.34,.13,.64,.59,.91,.35,.2,.73,.31,1.14,.34,.41,.02,.85-.03,1.31-.16,.46-.13,.96-.36,1.52-.68,.47-.27,.81-.51,1.02-.71,.21-.2,.34-.39,.41-.58,.07-.18,.06-.36-.03-.53s-.26-.33-.52-.48c-.35-.2-.73-.31-1.14-.34-.41-.02-.85,.03-1.31,.16-.46,.13-.97,.36-1.53,.68-.89,.51-1.38,.98-1.46,1.39Zm.78,.02c.08-.25,.5-.61,1.28-1.06s1.41-.7,1.9-.75c.39-.04,.71,.02,.98,.17,.27,.16,.37,.36,.3,.62-.08,.25-.5,.61-1.28,1.06-.78,.45-1.39,.69-1.83,.74-.44,.04-.8-.01-1.06-.17-.27-.15-.36-.36-.29-.61Z"/>
  <path class="cls-2" d="M434.45,30.88c.34,0,.65,.08,.93,.24,.26,.15,.4,.32,.41,.51,0,.19-.11,.35-.34,.48-.22,.13-.54,.21-.97,.25-.43,.04-1.11,.03-2.05-.02-.6-.04-1.1-.04-1.48-.03s-.72,.07-1.02,.14c-.18,.05-.34,.11-.47,.19l3.14,1.81,.56-.32-2.33-1.34c.17-.02,.36-.04,.56-.04s.63,.01,1.27,.04c.77,.04,1.35,.05,1.73,.04,.38-.01,.71-.05,.97-.11,.26-.06,.49-.15,.68-.26,.37-.22,.55-.47,.54-.77-.01-.3-.25-.58-.7-.84-.45-.26-.93-.4-1.43-.42s-1,.09-1.49,.32l.54,.38c.3-.17,.62-.26,.95-.26Z"/>
  <path class="cls-2" d="M403.24,43.62l6.68-3.85-.53-.3c-.43,.08-.97,.12-1.61,.09-.65-.02-1.31-.1-1.98-.24l-.79,.46c.35,.09,.77,.18,1.28,.25,.51,.08,.95,.12,1.34,.12l-5.2,3,.82,.47Z"/>
  <path class="cls-2" d="M406.57,44.87c-.09,.48,.18,.9,.82,1.27,.49,.28,1.02,.44,1.6,.47,.58,.03,1.19-.04,1.83-.23s1.35-.5,2.13-.95c.66-.38,1.13-.71,1.42-.99,.29-.28,.48-.55,.58-.81,.1-.26,.08-.51-.04-.74-.13-.24-.37-.46-.72-.67-.48-.28-1.02-.44-1.59-.47-.58-.03-1.19,.04-1.83,.22-.64,.18-1.35,.5-2.14,.96-1.25,.72-1.93,1.37-2.05,1.94Zm1.09,.02c.11-.36,.71-.85,1.8-1.48,1.09-.63,1.98-.98,2.67-1.05,.54-.05,1,.03,1.37,.24,.38,.22,.52,.51,.42,.86-.1,.36-.7,.85-1.8,1.48-1.09,.63-1.94,.97-2.56,1.04-.62,.06-1.11-.02-1.49-.23s-.51-.5-.4-.86Z"/>
  <path class="cls-2" d="M345.3,20.57c.06,.51,.25,1.07,.57,1.68,.32,.61,.75,1.18,1.3,1.73,.54,.54,1.07,.97,1.59,1.27l.84-.48c-.62-.41-1.12-.82-1.51-1.24-.56-.59-1.01-1.22-1.34-1.89s-.51-1.26-.54-1.76l-.64-.37-4.3,2.49,.78,.45,3.26-1.88Z"/>
  <polygon class="cls-2" points="353.39 22.57 354.32 22.03 353.39 21.5 352.47 22.03 353.39 22.57"/>
  <path class="cls-2" d="M352.24,19.45c1.25,.72,2.37,1.11,3.36,1.18,.83,.05,1.56-.1,2.2-.47,.49-.28,.76-.59,.82-.92,.06-.33-.07-.69-.39-1.06-.32-.37-.87-.78-1.65-1.23-.66-.38-1.23-.65-1.72-.82-.49-.17-.96-.28-1.4-.33-.45-.05-.88-.05-1.29,.03-.41,.07-.8,.21-1.15,.42-.48,.28-.76,.59-.81,.92-.06,.33,.07,.69,.39,1.06,.32,.37,.87,.78,1.66,1.24Zm-.56-2.82c.38-.22,.88-.3,1.49-.24,.62,.06,1.47,.41,2.57,1.04,1.09,.63,1.69,1.12,1.79,1.48,.11,.36-.03,.64-.4,.86s-.87,.29-1.49,.23c-.62-.06-1.47-.41-2.56-1.04-1.09-.63-1.7-1.14-1.82-1.54-.09-.31,.05-.58,.42-.79Z"/>
  <path class="cls-2" d="M357.4,16.47c1.25,.72,2.37,1.11,3.36,1.18,.83,.05,1.56-.1,2.2-.47,.49-.28,.76-.59,.82-.92,.06-.33-.07-.69-.39-1.06-.32-.37-.87-.78-1.65-1.23-.66-.38-1.23-.65-1.72-.82-.49-.17-.96-.28-1.4-.33-.45-.05-.88-.05-1.29,.03-.41,.07-.8,.21-1.15,.42-.48,.28-.76,.59-.81,.92-.06,.33,.07,.69,.39,1.06,.32,.37,.87,.78,1.66,1.24Zm-.56-2.82c.38-.22,.88-.3,1.5-.24,.62,.06,1.47,.41,2.56,1.04,1.09,.63,1.69,1.12,1.79,1.48,.11,.36-.03,.64-.4,.86-.38,.22-.87,.29-1.49,.23-.62-.06-1.47-.41-2.56-1.04s-1.7-1.14-1.82-1.54c-.09-.31,.05-.58,.42-.79Z"/>
  <polygon class="cls-2" points="356.48 10.39 357.03 10.7 358.32 9.96 359.62 10.71 360.17 10.39 358.87 9.64 360.16 8.89 359.62 8.58 358.32 9.32 357.03 8.58 356.48 8.9 357.77 9.64 356.48 10.39"/>
  <path class="cls-2" d="M360.53,8.36c.89,.51,1.69,.8,2.4,.84,.59,.04,1.11-.07,1.57-.34,.35-.2,.54-.42,.58-.66,.04-.24-.05-.49-.28-.75-.23-.26-.62-.56-1.18-.88-.47-.27-.88-.47-1.23-.59-.35-.12-.68-.2-1-.24-.32-.04-.62-.03-.92,.02s-.57,.15-.82,.3c-.35,.2-.54,.42-.58,.66-.04,.24,.05,.49,.28,.75,.23,.26,.62,.56,1.18,.88Zm-.4-2.01c.27-.16,.63-.21,1.07-.17,.44,.04,1.05,.29,1.83,.74,.78,.45,1.2,.8,1.28,1.06,.08,.26-.02,.46-.29,.61s-.62,.21-1.06,.17c-.44-.04-1.05-.29-1.83-.74-.78-.45-1.21-.82-1.3-1.1-.07-.22,.03-.41,.3-.57Z"/>
  <polygon class="cls-2" points="366.89 7.4 367.55 7.01 366.89 6.63 366.23 7.01 366.89 7.4"/>
  <path class="cls-2" d="M366.06,5.17c.89,.51,1.69,.8,2.4,.84,.59,.04,1.11-.07,1.57-.34,.35-.2,.54-.42,.58-.66s-.05-.49-.28-.75-.62-.56-1.18-.88c-.47-.27-.88-.47-1.23-.59-.35-.12-.68-.2-1-.24-.32-.04-.62-.03-.92,.02-.3,.05-.57,.15-.82,.3-.35,.2-.54,.42-.58,.66-.04,.24,.05,.49,.28,.75,.23,.26,.62,.56,1.18,.88Zm-.4-2.01c.27-.16,.63-.21,1.07-.17,.44,.04,1.05,.29,1.83,.74,.78,.45,1.2,.8,1.28,1.06,.08,.25-.02,.46-.29,.61-.27,.15-.62,.21-1.06,.17-.44-.04-1.05-.29-1.83-.74-.78-.45-1.21-.82-1.3-1.1-.07-.22,.03-.41,.3-.57Z"/>
  <path class="cls-2" d="M370.57,2.76c-.05-.13-.04-.26,.02-.4,.07-.14,.19-.26,.38-.37,.3-.17,.64-.26,1.02-.26,.38,0,.73,.1,1.07,.29,.35,.2,.53,.42,.55,.65,.02,.23-.11,.43-.39,.59-.23,.13-.51,.21-.82,.22-.31,0-.64-.06-.99-.21l-.56,.38c.44,.21,.92,.3,1.43,.29,.52-.02,.99-.15,1.42-.4,.53-.3,.75-.66,.67-1.05-.06-.32-.31-.61-.74-.86-.45-.26-.96-.39-1.53-.39-.57,0-1.07,.12-1.48,.36-.31,.18-.51,.41-.6,.69l-1.02-.88,1.89-1.09L370.34,0l-2.36,1.36,1.98,1.67,.62-.27Z"/>
  <path class="cls-2" d="M372.13,9.05c-.47-.27-.88-.47-1.23-.59-.35-.12-.68-.2-1-.24-.32-.04-.62-.03-.92,.02s-.57,.15-.82,.3c-.35,.2-.54,.42-.58,.66-.04,.24,.05,.49,.28,.75,.23,.26,.62,.56,1.18,.88,.89,.51,1.69,.8,2.4,.84,.59,.04,1.11-.07,1.57-.34,.35-.2,.54-.42,.58-.66s-.05-.49-.28-.75-.62-.56-1.18-.88Zm.4,2.02c-.27,.15-.62,.21-1.06,.17-.44-.04-1.05-.29-1.83-.74-.78-.45-1.21-.82-1.3-1.1-.07-.22,.03-.41,.3-.57,.27-.16,.63-.21,1.07-.17,.44,.04,1.05,.29,1.83,.74,.78,.45,1.2,.8,1.28,1.06,.08,.25-.02,.46-.29,.61Z"/>
  <polygon class="cls-2" points="375.39 9.87 376.06 9.49 375.39 9.1 374.73 9.49 375.39 9.87"/>
  <path class="cls-2" d="M373.11,6.01c-.04,.24,.05,.49,.28,.75,.23,.26,.62,.56,1.18,.88,.89,.51,1.69,.8,2.4,.84,.59,.04,1.11-.07,1.57-.34,.35-.2,.54-.42,.58-.66,.04-.24-.05-.49-.28-.75-.23-.26-.62-.56-1.18-.88-.47-.27-.88-.47-1.23-.59-.35-.12-.68-.2-1-.24s-.62-.03-.92,.02c-.3,.05-.57,.15-.82,.3-.34,.2-.54,.42-.58,.66Zm1.06-.37c.27-.16,.63-.21,1.07-.17,.44,.04,1.05,.29,1.83,.74,.78,.45,1.2,.8,1.28,1.06,.08,.26-.02,.46-.29,.61-.27,.15-.62,.21-1.06,.17-.44-.04-1.05-.29-1.83-.74-.78-.45-1.21-.82-1.3-1.1-.07-.22,.03-.41,.3-.57Z"/>
  <path class="cls-2" d="M378.26,5.51c.89,.51,1.69,.8,2.4,.84,.59,.04,1.11-.07,1.57-.34,.35-.2,.54-.42,.58-.66s-.05-.49-.28-.75c-.23-.26-.62-.56-1.18-.88-.47-.27-.88-.47-1.23-.59-.35-.12-.68-.2-1-.24-.32-.04-.62-.03-.92,.02-.3,.05-.57,.15-.82,.3-.34,.2-.54,.42-.58,.66-.04,.24,.05,.49,.28,.75,.23,.26,.62,.56,1.18,.88Zm-.4-2.01c.27-.16,.63-.21,1.07-.17,.44,.04,1.05,.29,1.83,.74,.78,.45,1.2,.8,1.28,1.06s-.02,.46-.29,.61-.62,.21-1.06,.17c-.44-.04-1.05-.29-1.83-.74-.78-.45-1.21-.82-1.3-1.1-.07-.22,.03-.41,.3-.57Z"/>
  <path class="cls-2" d="M829.54,274.09c.74,.43,1.59,.61,2.55,.54,.79-.05,1.48-.25,2.09-.6,.63-.36,.95-.78,.95-1.24,0-.46-.29-.86-.87-1.2-.44-.25-1-.42-1.67-.48l2.15-.82,2.65,1.53,.78-.45-3.31-1.91-4.06,1.6,.67,.5c.31-.04,.63-.03,.96,.02,.33,.05,.63,.16,.89,.31,.42,.24,.63,.52,.62,.83,0,.31-.24,.59-.71,.86-.49,.28-1.02,.43-1.59,.45-.57,.01-1.05-.09-1.44-.32-.33-.19-.5-.41-.52-.67-.02-.25,.15-.52,.5-.8l-.93-.45c-.51,.35-.74,.74-.69,1.16,.04,.42,.37,.8,.97,1.15Z"/>
  <path class="cls-2" d="M835.97,273.88c-1.25,.72-1.93,1.37-2.05,1.94-.09,.48,.18,.9,.82,1.27,.49,.28,1.02,.44,1.6,.47,.58,.03,1.19-.04,1.83-.23,.64-.18,1.35-.5,2.13-.95,.66-.38,1.13-.71,1.42-.99,.29-.28,.48-.55,.58-.81,.09-.26,.08-.51-.05-.74-.12-.24-.37-.46-.72-.67-.48-.28-1.01-.44-1.59-.47-.58-.03-1.19,.04-1.83,.22-.64,.18-1.35,.5-2.14,.96Zm4.88-.32c.38,.22,.52,.51,.41,.86-.1,.36-.7,.85-1.8,1.48-1.09,.63-1.94,.97-2.56,1.04-.62,.06-1.12-.02-1.49-.23-.37-.22-.51-.5-.4-.86,.11-.36,.7-.85,1.8-1.48s1.98-.98,2.67-1.05c.54-.05,1,.03,1.38,.24Z"/>
  <path class="cls-2" d="M323.5,239.78l-20.63,11.91c-.13,.08-.13,.2,0,.28s.35,.08,.48,0l20.63-11.91c.13-.08,.13-.2,0-.28-.13-.08-.35-.08-.48,0Z"/>
  <path class="cls-2" d="M330.3,235.86l-3.42,1.97c-.13,.08-.13,.2,0,.28,.13,.08,.35,.08,.48,0l3.42-1.97c.13-.08,.13-.2,0-.28-.13-.08-.35-.08-.48,0Z"/>
  <path class="cls-2" d="M316.02,316.77c.13,.08,.35,.08,.48,0l1.49-.86,1.45,.84c.13,.08,.35,.08,.48,0s.13-.2,0-.28l-1.45-.84,1.45-.84c.13-.08,.13-.2,0-.28s-.35-.08-.48,0l-1.45,.84-1.45-.84c-.13-.08-.35-.08-.48,0-.13,.08-.13,.2,0,.28l1.45,.84-1.49,.86c-.13,.08-.13,.2,0,.28Z"/>
  <path class="cls-2" d="M143.22,196.06c-.13-.08-.35-.08-.48,0l-1.45,.84-1.45-.84c-.13-.08-.35-.08-.48,0-.13,.08-.13,.2,0,.28l1.45,.84-1.45,.84c-.13,.08-.13,.2,0,.28,.13,.08,.35,.08,.48,0l1.45-.84,1.45,.84c.13,.08,.35,.08,.48,0,.13-.08,.13-.2,0-.28l-1.45-.84,1.45-.84c.13-.08,.13-.2,0-.28Z"/>
  <path class="cls-2" d="M66.39,229.8l.67,.5c.31-.04,.63-.03,.96,.02,.33,.05,.63,.16,.89,.31,.42,.24,.63,.52,.62,.83,0,.31-.24,.59-.71,.86-.49,.28-1.02,.43-1.59,.45-.57,.01-1.05-.09-1.44-.32-.33-.19-.5-.41-.52-.67-.02-.26,.14-.52,.5-.8l-.93-.45c-.51,.35-.74,.74-.69,1.16,.04,.42,.37,.8,.97,1.15,.74,.43,1.59,.61,2.55,.54,.79-.05,1.49-.25,2.09-.6,.63-.36,.95-.78,.95-1.24,0-.46-.29-.86-.87-1.2-.44-.25-1-.41-1.67-.48l2.15-.82,2.65,1.53,.78-.45-3.31-1.91-4.06,1.6Z"/>
  <path class="cls-2" d="M64.93,182.94c.16-.2,.31-.45,.44-.74,.13-.29,.2-.55,.21-.77l5.2,3,.82-.47-6.68-3.85-.53,.3c.14,.25,.2,.56,.16,.93s-.18,.75-.42,1.14l.79,.46Z"/>
  <path class="cls-2" d="M71.56,180.47c-.07-.18-.06-.36,.03-.56,.09-.19,.27-.36,.53-.51,.42-.24,.9-.36,1.43-.36,.53,0,1.03,.14,1.49,.41,.49,.28,.75,.59,.77,.92,.02,.33-.16,.61-.55,.83-.33,.19-.71,.29-1.15,.3-.44,.01-.9-.08-1.38-.29l-.78,.54c.61,.29,1.28,.42,2,.4,.72-.03,1.38-.21,1.99-.56,.74-.43,1.05-.92,.94-1.47-.09-.46-.43-.86-1.03-1.2-.63-.36-1.35-.55-2.15-.55-.8,0-1.49,.17-2.07,.5-.44,.25-.72,.58-.84,.97l-1.43-1.24,2.65-1.53-.78-.45-3.31,1.91,2.77,2.34,.87-.39Z"/>
  <path class="cls-2" d="M73.63,155.34l.96-.39c-.34-.27-.5-.52-.49-.75,.01-.24,.18-.45,.49-.63,.32-.19,.68-.28,1.08-.28,.4,0,.75,.08,1.05,.25,.38,.22,.52,.46,.42,.73-.1,.27-.32,.5-.67,.7-.03,.02-.08,.04-.14,.07l.63,.47c.17-.17,.33-.3,.49-.39,.38-.22,.81-.33,1.3-.33,.49,0,.92,.11,1.29,.32,.39,.23,.59,.49,.59,.8,0,.31-.19,.57-.57,.79-.32,.19-.7,.29-1.13,.3-.43,.01-.92-.09-1.48-.3l-.71,.53c.61,.29,1.28,.42,2.01,.4,.73-.02,1.39-.2,1.97-.54,.65-.37,.98-.8,1-1.28,.02-.48-.26-.88-.84-1.22-.43-.25-.9-.39-1.4-.43-.5-.04-1,.03-1.48,.2,.16-.25,.2-.5,.12-.72-.08-.23-.27-.42-.55-.59-.3-.17-.67-.29-1.1-.35s-.88-.05-1.34,.04c-.46,.09-.87,.23-1.24,.44-.53,.3-.82,.64-.87,1.02-.05,.38,.14,.75,.59,1.13Z"/>
  <path class="cls-2" d="M81.53,152.98c-.07-.18-.06-.36,.03-.56,.09-.19,.27-.36,.53-.51,.42-.24,.9-.36,1.43-.36,.53,0,1.03,.14,1.49,.41,.49,.28,.75,.59,.77,.92,.02,.33-.16,.61-.55,.83-.33,.19-.71,.29-1.15,.3-.44,.01-.9-.08-1.38-.29l-.78,.54c.61,.29,1.28,.42,2,.4,.72-.03,1.38-.21,1.99-.56,.74-.43,1.05-.92,.94-1.47-.09-.46-.43-.86-1.03-1.2-.63-.36-1.35-.55-2.15-.55-.8,0-1.49,.17-2.07,.5-.44,.25-.72,.58-.84,.97l-1.43-1.24,2.65-1.53-.78-.45-3.31,1.91,2.77,2.34,.87-.39Z"/>
  <path class="cls-2" d="M110.77,279.5c0-.46-.29-.86-.87-1.2-.44-.25-1-.41-1.67-.48l2.14-.82,2.65,1.53,.78-.45-3.31-1.91-4.06,1.6,.67,.5c.31-.04,.63-.03,.96,.02,.33,.05,.63,.16,.89,.31,.42,.24,.63,.52,.62,.83,0,.31-.24,.59-.71,.86-.49,.28-1.02,.43-1.59,.45-.57,.01-1.05-.09-1.44-.32-.33-.19-.5-.41-.52-.67-.02-.25,.15-.52,.5-.8l-.93-.45c-.51,.35-.74,.74-.69,1.16,.04,.42,.37,.8,.97,1.15,.74,.43,1.59,.61,2.55,.54,.79-.05,1.48-.25,2.09-.6,.63-.36,.95-.78,.95-1.24Z"/>
  <path class="cls-2" d="M117.16,279.87c-.48-.28-1.02-.44-1.59-.47-.58-.03-1.19,.04-1.83,.22-.64,.18-1.35,.5-2.14,.96-1.25,.72-1.93,1.37-2.05,1.94-.09,.48,.18,.9,.82,1.27,.49,.28,1.02,.44,1.6,.47,.58,.03,1.19-.04,1.83-.23,.64-.18,1.35-.5,2.13-.95,.66-.38,1.13-.71,1.42-.99,.29-.28,.48-.55,.58-.81s.08-.51-.05-.74c-.13-.24-.37-.46-.72-.67Zm-.27,1.25c-.1,.35-.7,.85-1.8,1.48-1.09,.63-1.94,.97-2.56,1.04-.62,.06-1.12-.02-1.49-.23s-.51-.5-.4-.86c.11-.36,.7-.85,1.8-1.48s1.98-.98,2.67-1.05c.54-.05,1,.03,1.37,.24,.38,.22,.52,.51,.42,.86Z"/>
  <path class="cls-2" d="M366.31,365.12l.79,.46c.16-.2,.31-.45,.44-.74,.13-.29,.2-.55,.21-.77l5.2,3,.82-.47-6.68-3.85-.53,.3c.14,.25,.2,.56,.16,.93-.04,.37-.18,.75-.42,1.14Z"/>
  <path class="cls-2" d="M372.58,363.49c1.25,.72,2.37,1.11,3.36,1.18,.83,.05,1.56-.1,2.2-.47,.49-.28,.76-.59,.82-.92,.06-.34-.07-.69-.39-1.06-.32-.37-.87-.78-1.65-1.23-.66-.38-1.23-.65-1.72-.82-.49-.17-.96-.28-1.4-.33-.45-.05-.88-.05-1.29,.03-.41,.07-.8,.21-1.16,.42-.48,.28-.75,.59-.81,.92-.06,.33,.07,.69,.39,1.06,.32,.37,.87,.78,1.66,1.24Zm-.56-2.82c.38-.22,.88-.3,1.49-.24,.62,.06,1.47,.41,2.57,1.04,1.09,.63,1.69,1.12,1.79,1.48,.11,.36-.03,.64-.4,.86-.37,.22-.87,.29-1.49,.23-.62-.06-1.47-.41-2.56-1.04-1.09-.63-1.7-1.14-1.82-1.54-.09-.31,.05-.58,.42-.79Z"/>
  <path class="cls-2" d="M400.11,355.38l72.18-41.68,.84,.49,5.39-4.32,3.74,2.16c.13,.08,.35,.08,.48,0,.13-.08,.13-.2,0-.28l-55.98-32.32,11.94-6.89,90.07,15.51c.18,.03,.37-.03,.42-.13,.06-.1-.05-.21-.23-.24l-89.71-15.45,7.22-4.17c.06-.04,.1-.09,.1-.14v-9.89h0c0-.05-.04-.1-.1-.14l-146.06-84.33-44.88-25.91-19.95-11.52c-.06-.04-.15-.06-.24-.06h-17.13c-.09,0-.18,.02-.24,.06l-16.68,9.63,3.81-26.62,21.19,12.23-4.5,2.6c-.13,.08-.13,.2,0,.28,.13,.08,.35,.08,.48,0l4.5-2.6,4.5,2.6c.13,.08,.35,.08,.48,0,.13-.08,.13-.2,0-.28l-4.5-2.6,18.34-10.59,8.04,4.64-14.76,8.52c-.13,.08-.13,.2,0,.28s.35,.08,.48,0l14.96-8.64,5.35,4.34,.88-.51,35.19,20.32c.13,.08,.35,.08,.48,0,.13-.08,.13-.2,0-.28l-35.19-20.32,.84-.49-7.48-3.11,3.74-2.16c.13-.08,.13-.2,0-.28s-.35-.08-.48,0l-3.54,2.04-8.04-4.64,3.54-2.04c.13-.08,.13-.2,0-.28-.13-.08-.35-.08-.48,0l-3.74,2.16-5.39-4.32-.84,.49-6.64-3.83c-.13-.08-.35-.08-.48,0-.13,.08-.13,.2,0,.28l6.64,3.83-.88,.51,7.52,3.09-18.54,10.7-21.6-12.47,11.88-83.03c.02-.11-.12-.2-.31-.21-.19,0-.35,.07-.37,.18l-11.84,82.7-48.02-27.73c-.13-.08-.35-.08-.48,0-.13,.08-.13,.2,0,.28l3.74,2.16-7.44,3.09,.84,.49L23.99,171.15l-.84-.49-5.35,4.3-3.74-2.16c-.13-.08-.35-.08-.48,0-.13,.08-.13,.2,0,.28l37.6,21.71h0l32.65,18.85-28.79,16.62-5.35-4.34-.88,.51-6.64-3.83c-.13-.08-.35-.08-.48,0-.13,.08-.13,.2,0,.28l6.64,3.83-.84,.49,7.48,3.11-3.74,2.16h0l-21.55,12.44h0L.1,261.98c-.13,.08-.13,.2,0,.28,.13,.08,.35,.08,.48,0l3.78-2.18,5.31,4.32,.88-.51,214.66,123.93h0l-.88,.51,7.52,3.09-3.78,2.18c-.13,.08-.13,.2,0,.28,.13,.08,.35,.08,.48,0l56.9-32.85,41.54,23.98c.13,.08,.35,.08,.48,0s.13-.2,0-.28l-41.54-23.98,26.34-15.21,55.74,32.18c.13,.08,.35,.08,.48,0,.13-.08,.13-.2,0-.28l-3.74-2.16,7.44-3.09-.84-.49,15.2-8.78h0s.84,.49,.84,.49l5.39-4.32,3.74,2.16h0l.24,.14c.13,.08,.35,.08,.48,0s.13-.2,0-.28l-3.74-2.16,7.44-3.09-.84-.49Zm26.18-76.22l-7.15-4.13-.9-.52c2.35-1.4,3.98-3.04,4.9-4.79l8.18,2.32,.37-.7s0,0,.01,0l6.27,1.08-11.68,6.74Zm-113.64,33.67c.13,.08,.35,.08,.48,0,.13-.08,.13-.2,0-.28l-8.87-5.12c7.66-4.26,19.82-4.26,27.48,0l-8.91,5.15c-.13,.08-.13,.2,0,.28,.13,.08,.35,.08,.48,0l8.92-5.15c7.42,4.42,7.43,11.46,.04,15.89l-1.23-.71-7.72-4.46h0l-1.29-.74c-.13-.08-.35-.08-.48,0-.13,.08-.13,.2,0,.28l10.24,5.91c-7.67,4.29-19.89,4.29-27.56,0l10.2-5.89c.13-.08,.13-.2,0-.28s-.35-.08-.48,0l-10.2,5.89c-7.39-4.43-7.38-11.47,.04-15.89l8.88,5.12Zm-8.92,11.32c7.94,4.44,20.59,4.44,28.53,0l2.38,1.38,3.98,2.3h0l1.69,.97-19.64,11.34h-16.85l-13.89-8.02,13.8-7.97Zm29.01-.28c7.66-4.58,7.65-11.87-.04-16.45l6.41-3.7c.13-.08,.13-.2,0-.28s-.35-.08-.48,0l-6.41,3.7c-7.92-4.41-20.52-4.41-28.45,0l-6.45-3.72c-.13-.08-.35-.08-.48,0s-.13,.2,0,.28l6.45,3.72c-7.68,4.57-7.7,11.86-.04,16.45l-5.42,3.13-.99,.57h0l-7.4,4.27-62.21-35.92,14.52-8.38h0l6.4-3.69c27.58,15.79,72.22,15.79,99.8,0l6.36,3.67h0l28.75,16.6-42.26,24.4-8.06-4.65Zm-156.74,1.08l-5.39-4.32-.84,.49L40.6,246.54l.84-.49-7.44-3.09,17.69-10.22h0l3.54-2.04,13.75,7.94-3.54,2.04c-.13,.08-.13,.2,0,.28,.13,.08,.35,.08,.48,0l3.74-2.16,5.35,4.3,.84-.49,6.68,3.85c.13,.08,.35,.08,.48,0,.13-.08,.13-.2,0-.28l-6.68-3.85,.88-.51-7.48-3.06,28.75-16.6,13.99,8.08,44.88,25.91,68.89,39.77-50.27,29.02ZM44.17,182.8l-.88-.51,86.46-49.92h0l.88,.51,5.31-4.32,47.57,27.47-27.99,16.16-17.21-9.93c.06-.13,0-.27-.17-.38l-9.49-5.48c-.27-.15-.7-.15-.96,0s-.27,.4,0,.56l4.67,2.69-10.54,4.36,1.33,.77-9.49,5.48c-.13,.08-.13,.2,0,.28s.35,.08,.48,0l9.49-5.48,1.37,.79,7.52-6.11,4.66,2.69c.18,.1,.42,.13,.65,.1l17.21,9.93-28.03,16.18-32.61-18.83c-.13-.08-.35-.08-.48,0-.13,.08-.13,.2,0,.28l3.78,2.18-7.48,3.06,.88,.51-29.48,17.02-.88-.51-5.31,4.32-18.74-10.82,7.48-3.06Zm154.73-25.87c-3.42-.1-6.84,.6-9.4,2l-5.03-2.9,15.99-9.23-.89,6.2s0,0,0,.01l-1.23-.06,.55,3.99Zm-7.28,11.46l1.82-1.05c.13-.08,.13-.2,0-.28-.13-.08-.35-.08-.48,0l-1.84,1.06c-3.52-2.17-3.53-5.54-.04-7.72l1.84,1.06h0l1.29,.74c.13,.08,.35,.08,.48,0s.13-.2,0-.28l-3.11-1.8c2.01-1.09,4.6-1.59,7.17-1.51l-.76,5.22-1.17-.67c-.13-.08-.35-.08-.48,0-.13,.08-.13,.2,0,.28l1.45,.84-1.45,.84c-.13,.08-.13,.2,0,.28s.35,.08,.48,0l1.03-.59-.73,5.05c-2-.14-3.92-.62-5.5-1.46Zm6.93-3.68l1.17,.67c.13,.08,.35,.08,.48,0s.13-.2,0-.28l-1.45-.84,1.45-.84c.13-.08,.13-.2,0-.28s-.35-.08-.48,0l-1.03,.59,.74-5.1c2.01,.14,3.96,.62,5.54,1.48l-1.83,1.05c-.13,.08-.13,.2,0,.28s.35,.08,.48,0l1.84-1.06c3.49,2.17,3.48,5.55-.04,7.72l-1.84-1.06c-.13-.08-.35-.08-.48,0s-.13,.2,0,.28l1.82,1.05c-2,1.07-4.57,1.57-7.12,1.49l.75-5.17Zm-1.1,5.57s.01,0,.02,0c2.83,.12,5.73-.41,7.94-1.61l1.09,.63c-2.44,1.32-5.69,1.97-8.93,1.86l-.13-.89Zm8.45-1.89c3.78-2.32,3.8-5.95,.04-8.27l1.09-.63c1.6,.98,2.67,2.2,3.08,3.55,.56,1.83-.15,3.67-1.99,5.19-.35,.29-.73,.55-1.14,.79l-1.08-.63Zm-.44-8.55c-1.77-.96-3.98-1.51-6.24-1.62l.38-.87c1.94,.12,3.86,.52,5.58,1.21,.49,.2,.94,.42,1.37,.66l-1.09,.63Zm-6.37-1.63c-2.85-.13-5.77,.42-8,1.63l-1.09-.63c2.44-1.34,5.71-1.99,8.97-1.89l.12,.89Zm-14.89-1.79h0l4.84,2.79c-.42,.26-.82,.52-1.18,.82-.11,.09-.08,.21,.08,.27,.15,.06,.37,.04,.48-.05,.34-.28,.71-.53,1.1-.77l1.08,.63c-3.76,2.33-3.75,5.96,.04,8.27l-6.45,3.72c-.13,.08-.13,.2,0,.28,.13,.08,.35,.08,.48,0l6.45-3.72c1.76,.95,3.96,1.49,6.21,1.6,0,0,0,0,.01,0l-.38,.87c-1.95-.12-3.88-.52-5.6-1.21-.15-.06-.37-.04-.48,.05-.1,.08-.08,.19,.04,.25,.01,0,.03,.01,.05,.02,1.79,.72,3.79,1.14,5.82,1.28l-1.7,3.9,1.23,.05-.76,5.41c0,.06,.03,.12,.1,.16,.06,.03,.13,.05,.21,.06,.19,0,.35-.07,.37-.18l.76-5.41s0,0,0,0l1.23,.05-.59-4.01c3.4,.09,6.8-.59,9.35-1.98l4.87,2.81c.06,.04,.14,.05,.23,.05l-28.05,16.2-28.03-16.18,27.99-16.16,.2,.12Zm71.1-8.36l44.4,25.63-70.78,40.86-44.4-25.63,70.78-40.86Zm-97.68,107.66l-44.4-25.63,70.82-40.89,44.4,25.63-70.82,40.89Zm-44.88-25.91l-13.75-7.94,32.99-19.05,2.17-1.25c4.02,2.16,10.27,2.16,14.29,0l1.09,.63c-4.06,2.21-10.39,2.55-15.14,.63-.15-.06-.37-.04-.48,.05-.1,.08-.08,.19,.04,.25,.01,0,.03,.02,.05,.02,5.02,2.03,11.72,1.67,16.01-.67l4.87,2.81c.06,.04,.14,.05,.23,.05l-42.37,24.46Zm-43.27,8.54l-13.75-7.94,28.59-16.51,4.5,2.6c.13,.08,.35,.08,.48,0,.13-.08,.13-.2,0-.28l-4.5-2.6,4.5-2.6c.13-.08,.13-.2,0-.28s-.35-.08-.48,0l-4.5,2.6-28.79-16.62,7.44-3.09-.84-.49,29.48-17.02,.84,.49,5.35-4.3,28.75,16.6-33.98,19.62c-.06,.04-.1,.09-.1,.14v9.89c0,.05,.04,.1,.1,.14l5.47,3.16-28.55,16.48Zm23.67-19.86v-9.73l33.88-19.56,5.04,2.91c-.42,.26-.82,.53-1.17,.82-.11,.09-.07,.21,.08,.27,.15,.06,.37,.04,.48-.05,.33-.28,.71-.53,1.1-.77l1.09,.63c-3.76,2.33-3.75,5.96,.04,8.27l-2.16,1.25-4.28,2.47h0l-28.71,16.58-5.37-3.1Zm62.33-13.35s-.03-.09-.09-.13l-4.88-2.82c.43-.26,.85-.54,1.22-.84,1.95-1.61,2.7-3.55,2.11-5.48-.44-1.43-1.58-2.73-3.27-3.76l4.83-2.79c.13-.08,.13-.2,0-.28-.13-.08-.35-.08-.48,0l-4.84,2.79c-.46-.25-.94-.49-1.46-.7-2.78-1.12-6.15-1.56-9.5-1.22-2.5,.25-4.76,.92-6.56,1.91l-5.03-2.9,28.03-16.18,28.03,16.18-28.09,16.22Zm-8.86-5.19c-.13-.08-.35-.08-.48,0-.13,.08-.13,.2,0,.28l1.82,1.05c-3.75,2.01-9.55,2.01-13.3,0l1.78-1.03h0s1.29-.74,1.29-.74c.13-.08,.13-.2,0-.28s-.35-.08-.48,0l-3.08,1.78c-3.52-2.17-3.53-5.54-.04-7.72l3.12,1.8c.13,.08,.35,.08,.48,0,.13-.08,.13-.2,0-.28l-3.11-1.8c3.76-2.04,9.62-2.04,13.39,0l-1.83,1.05c-.13,.08-.13,.2,0,.28s.35,.08,.48,0l1.84-1.06c3.49,2.17,3.48,5.55-.04,7.72l-1.84-1.06Zm1.88-7.21c-4.03-2.19-10.34-2.19-14.37,0l-1.1-.63c1.7-.93,3.83-1.56,6.19-1.8,3.16-.32,6.36,.09,8.99,1.15,.49,.2,.94,.42,1.37,.66l-1.08,.63Zm.48,.28l1.09-.63c1.6,.98,2.67,2.2,3.08,3.55,.56,1.83-.15,3.67-1.99,5.19-.35,.29-.73,.55-1.14,.79l-1.08-.63c3.78-2.32,3.8-5.95,.04-8.27Zm9.14,62.98l70.82-40.89,13.41,7.74,5.38,3.1c-27.33,15.92-27.34,41.67-.04,57.6l-20.92,12.08-68.65-39.63Zm209.54,3.89l-1.42-.25c-.18-.03-.37,.03-.43,.13-.04,.07,0,.15,.09,.2,.04,.02,.09,.04,.14,.05l1.53,.27c-1.98,8.41-8.52,16.52-19.62,22.99l-5.23-3.02c24.15-14.11,24.14-36.9-.04-51l5.23-3.02c15.78,9.19,22.35,21.7,19.74,33.65Zm-33.97-25.72c.13,.08,.35,.08,.48,0l8.04-4.64c23.92,13.95,23.93,36.49,.04,50.44l-1.88-1.09-6.19-3.58h0l-5.03-2.9-1.73-1h0l-3.42-1.97h0l-5.16-2.98-20.29-11.72,1.45-.84c.13-.08,.13-.2,0-.28s-.35-.08-.48,0l-1.45,.84-4.87-2.81h0l-17.52-10.11-6.49-3.75h0s-3.38-1.95-3.38-1.95h0l-3.42-1.97h0l-8-4.62c24.16-13.78,63.17-13.78,87.33,0l-8.04,4.64c-.13,.08-.13,.2,0,.28Zm-71.3,41.44h0l3.38-1.95h0l3.42-1.97h0s11.82-6.82,11.82-6.82l12.19-7.04h0s1.29-.74,1.29-.74c.13-.08,.13-.2,0-.28-.13-.08-.35-.08-.48,0l-13.48,7.78-8.44,4.87h0l-18.21,10.51c-23.89-13.96-23.88-36.5,.04-50.44l8,4.62h0l3.66,2.11,3.14,1.81h0l3.38,1.95h0l20.63,11.91h0l3.42,1.97h0l1.45,.84-1.49,.86c-.13,.08-.13,.2,0,.28,.13,.08,.35,.08,.48,0l1.49-.86,1.45,.84h0l3.38,1.95h0l15.47,8.93,10.31,5.95,1.65,.95h0l9.57,5.53,1.88,1.09c-24.17,13.81-63.24,13.81-87.41,0l8.04-4.64Zm-8.96-46.36c-24.18,14.1-24.19,36.89-.04,51l-5.23,3.02c-27.04-15.77-27.03-41.27,.04-57.04l5.23,3.02Zm.44,51.28c24.43,13.97,63.94,13.97,88.38,0l5.23,3.02c-27.32,15.63-71.52,15.63-98.83,0l5.23-3.02Zm88.34-51.56c-24.42-13.94-63.87-13.94-88.3,0l-5.23-3.02c27.31-15.6,71.44-15.6,98.75,0l-5.23,3.02Zm6.23,54.58c11.18-6.52,17.77-14.69,19.8-23.15l6.81,1.19s0,0,.01,0l-.36,.67,9.12,.65s0,.06,.01,.09c-1.94,3.93-.28,8.33,4.95,11.47l-6.45,3.72c-.13,.08-.13,.2,0,.28s.35,.08,.48,0l6.45-3.72c7.92,4.44,20.55,4.44,28.49,.02l.91,.52,5.46,3.15h0l1.69,.98-42.26,24.4-35.11-20.27Zm49.71-20.1c.13,.08,.35,.08,.48,0,.13-.08,.13-.2,0-.28l-8.88-5.12c7.66-4.28,19.85-4.29,27.52-.02l-8.95,5.17c-.13,.08-.13,.2,0,.28,.13,.08,.35,.08,.48,0l8.96-5.17c5.07,3.02,6.68,7.26,4.84,11.06l-18.48-3.19,1.3-.75c.13-.08,.13-.2,0-.28-.13-.08-.35-.08-.48,0l-1.45,.84-1.45-.84c-.13-.08-.35-.08-.48,0-.13,.08-.13,.2,0,.28l.77,.45-17.69-3.05c.89-1.64,2.43-3.18,4.62-4.49l8.87,5.12Zm10.66,5.59h0l-1.29-.74c-.13-.08-.35-.08-.48,0s-.13,.2,0,.28l10.24,5.91c-7.67,4.27-19.87,4.26-27.52-.02l8.88-5.12c.13-.08,.13-.2,0-.28s-.35-.08-.48,0l-8.87,5.12c-5.02-3.01-6.62-7.22-4.82-11l18.37,3.17-1.3,.75c-.13,.08-.13,.2,0,.28s.35,.08,.48,0l1.49-.86,1.45,.84c.13,.08,.35,.08,.48,0s.13-.2,0-.28l-.7-.4,17.67,3.05c-.9,1.63-2.44,3.17-4.64,4.48l-8.96-5.17Zm29.72,3.04l-6.62-1.14s0,0-.01,0l.36-.67-9.06-.65c2.03-3.97,.38-8.44-4.94-11.61l6.36-3.67c.13-.08,.13-.2,0-.28-.13-.08-.35-.08-.48,0l-6.37,3.68c-7.94-4.42-20.57-4.41-28.49,.02l-6.45-3.72c-.13-.08-.35-.08-.48,0-.13,.08-.13,.2,0,.28l6.45,3.72c-2.32,1.39-3.94,3.02-4.85,4.76-.03,.02-.06,.03-.07,.05l-8.23-2.33-.37,.7s0,0-.01,0l-6.93-1.21c2.68-12.09-3.95-24.75-19.92-34.05l6.4-3.69c.13-.08,.13-.2,0-.28s-.35-.08-.48,0l-6.4,3.7c-27.57-15.76-72.14-15.76-99.72,0l-6.44-3.72h0l-12.35-7.13,70.78-40.86,145.72,84.13v9.73l-7.38,4.26ZM218.36,136.47h16.85l19.6,11.32-42.37,24.46s-.03-.09-.09-.13l-4.88-2.82c.43-.26,.85-.54,1.22-.84,1.95-1.61,2.7-3.55,2.11-5.48-.44-1.43-1.58-2.73-3.27-3.76l4.83-2.79c.13-.08,.13-.2,0-.28-.13-.08-.35-.08-.48,0l-4.84,2.79c-.46-.25-.94-.49-1.46-.7-1.78-.72-3.78-1.14-5.8-1.27l1.69-3.86-1.2-.06s.01,0,.01-.01l.95-6.66,17.15-9.9ZM25.35,171.94l-.88-.51L153.68,96.83l.88,.51,5.31-4.32,44.61,25.76-3.92,27.42-16.56,9.56-51.39-29.67c-.13-.08-.35-.08-.48,0s-.13,.2,0,.28l3.74,2.16-7.44,3.09,.84,.49h0l-86.46,49.92-.84-.49-5.35,4.3-3.74-2.16h0l-15-8.66,7.48-3.06Zm201.23,215.09l-.88,.51h0L11.04,263.6l.88-.51-7.48-3.06,29.48-17.02,5.31,4.32,.88-.51,129.17,74.57-.88,.51,7.52,3.09-3.78,2.18c-.13,.08-.13,.2,0,.28,.13,.08,.35,.08,.48,0l54.13-31.25,62.21,35.92-30.32,17.51c-.13,.08-.13,.2,0,.28s.35,.08,.48,0l3.74-2.16,5.31,4.32,.88-.51,9.49,5.48h0l-.88,.51,7.52,3.09-53.24,30.74-5.35-4.34Zm158.6-24.89l.88,.51s0,0,0,0l-15.2,8.78-.88-.51-5.31,4.32-51.92-29.97,4.5-2.6c.13-.08,.13-.2,0-.28-.13-.08-.35-.08-.48,0l-4.5,2.6-4.5-2.6c-.13-.08-.35-.08-.48,0-.13,.08-.13,.2,0,.28l4.5,2.6-26.54,15.32-5.35-4.34-.88,.51h0s-9.49-5.48-9.49-5.48l.88-.51-7.48-3.06,26.5-15.3,13.99,8.08c.06,.04,.15,.06,.24,.06h17.13c.09,0,.18-.02,.24-.06l19.74-11.4,51.92,29.97-7.52,3.09Zm8.24-3.23l-52.16-30.11,42.26-24.4,11.86,6.85c-.06,.13,0,.27,.17,.37l4.7,2.72-10.58,4.34,1.37,.79-9.49,5.48c-.13,.08-.13,.2,0,.28s.35,.08,.48,0l9.49-5.48,1.33,.77,7.56-6.08,4.67,2.69c.27,.15,.7,.15,.96,0s.27-.4,0-.56l-9.53-5.5c-.18-.1-.42-.13-.65-.1l-11.86-6.85,42.26-24.4,52.16,30.11-7.52,3.09,.88,.51-72.18,41.68-.88-.51-5.31,4.32Z"/>
  <path class="cls-2" d="M422.27,336.6c-.43-.25-.9-.39-1.4-.43-.5-.04-1,.03-1.48,.2,.16-.26,.2-.49,.12-.72-.08-.23-.27-.42-.55-.59-.3-.17-.67-.29-1.1-.35-.43-.06-.88-.05-1.34,.04-.46,.09-.87,.23-1.24,.44-.53,.3-.82,.64-.87,1.02-.05,.38,.14,.75,.59,1.13l.96-.39c-.34-.26-.5-.52-.49-.75,.01-.24,.18-.45,.49-.63,.32-.19,.68-.28,1.08-.28,.4,0,.75,.08,1.05,.25,.38,.22,.52,.46,.42,.73-.1,.27-.32,.5-.67,.7-.03,.02-.08,.04-.14,.07l.63,.47c.17-.17,.33-.3,.49-.39,.38-.22,.81-.33,1.3-.33,.49,0,.92,.11,1.29,.32,.39,.23,.59,.49,.59,.8,0,.31-.19,.57-.57,.79-.32,.19-.7,.29-1.13,.3-.43,.01-.92-.09-1.48-.3l-.71,.53c.61,.29,1.28,.42,2.01,.4,.73-.02,1.39-.2,1.98-.54,.65-.37,.98-.8,1-1.28,.02-.48-.26-.88-.84-1.22Z"/>
  <path class="cls-2" d="M419.72,333.08c-.06,.33,.07,.69,.39,1.06,.32,.37,.87,.78,1.66,1.24,1.25,.72,2.37,1.11,3.36,1.18,.83,.05,1.56-.1,2.2-.47,.49-.28,.76-.59,.82-.92,.06-.34-.07-.69-.39-1.06-.32-.37-.87-.78-1.65-1.23-.66-.38-1.23-.65-1.72-.82-.49-.17-.96-.28-1.4-.33-.45-.05-.88-.05-1.29,.03-.41,.07-.8,.21-1.16,.42-.48,.28-.75,.59-.81,.92Zm1.48-.52c.38-.22,.88-.3,1.49-.24,.62,.06,1.47,.41,2.57,1.04,1.09,.63,1.69,1.12,1.79,1.48,.11,.36-.03,.64-.4,.86-.37,.22-.87,.29-1.49,.23-.62-.06-1.47-.41-2.56-1.04s-1.7-1.14-1.82-1.54c-.09-.31,.05-.58,.42-.79Z"/>
  <polygon class="cls-2" points="429.53 334.05 430.08 334.36 433.21 332.55 432.67 332.24 429.53 334.05"/>
  <polygon class="cls-2" points="427.93 333.12 429.22 332.38 430.53 333.13 431.08 332.81 429.77 332.06 431.07 331.31 430.52 331 429.23 331.75 427.94 331 427.39 331.32 428.68 332.06 427.39 332.81 427.93 333.12"/>
  <path class="cls-2" d="M431.4,330.89c.89,.51,1.69,.8,2.4,.84,.59,.04,1.11-.07,1.57-.34,.35-.2,.54-.42,.58-.66,.04-.24-.05-.49-.28-.75-.23-.26-.62-.56-1.18-.88-.47-.27-.88-.47-1.23-.59-.35-.12-.68-.2-1-.24-.32-.04-.63-.03-.92,.02-.3,.05-.57,.15-.82,.3-.35,.2-.54,.42-.58,.66-.04,.24,.05,.49,.28,.75,.23,.26,.62,.56,1.18,.88Zm-.4-2.01c.27-.16,.63-.21,1.07-.17,.44,.04,1.05,.29,1.83,.74,.78,.45,1.2,.8,1.28,1.06,.08,.26-.02,.46-.29,.61-.27,.15-.62,.21-1.06,.17s-1.05-.29-1.83-.74-1.21-.82-1.3-1.1c-.07-.22,.03-.41,.3-.57Z"/>
  <polygon class="cls-2" points="437.09 329.55 437.76 329.93 438.42 329.54 437.76 329.16 437.09 329.55"/>
  <path class="cls-2" d="M436.93,327.7c.89,.51,1.69,.8,2.4,.84,.59,.04,1.11-.07,1.57-.34,.35-.2,.54-.42,.58-.66,.04-.24-.05-.49-.28-.75-.23-.26-.62-.56-1.18-.88-.47-.27-.88-.47-1.23-.59-.35-.12-.68-.2-1-.24-.32-.04-.62-.03-.92,.02-.29,.05-.57,.15-.82,.3-.35,.2-.54,.42-.58,.66-.04,.24,.05,.49,.28,.75,.23,.26,.62,.56,1.18,.88Zm-.4-2.01c.27-.16,.63-.21,1.07-.17,.44,.04,1.05,.29,1.83,.74,.78,.45,1.2,.8,1.28,1.06,.08,.26-.02,.46-.29,.61-.27,.15-.62,.21-1.06,.17-.44-.04-1.05-.29-1.83-.74-.78-.45-1.21-.82-1.3-1.1-.07-.22,.03-.41,.3-.57Z"/>
  <path class="cls-2" d="M441.44,325.29c-.05-.13-.04-.26,.02-.4s.19-.26,.38-.37c.3-.17,.64-.26,1.02-.26,.38,0,.73,.1,1.07,.29,.35,.2,.53,.42,.55,.65,.02,.23-.12,.43-.4,.59-.23,.13-.51,.21-.82,.22-.32,0-.64-.06-.99-.21l-.56,.38c.44,.21,.91,.3,1.43,.29,.51-.02,.99-.15,1.42-.4,.53-.3,.75-.66,.67-1.05-.06-.33-.31-.61-.74-.86-.45-.26-.96-.39-1.53-.39-.57,0-1.07,.12-1.48,.36-.31,.18-.51,.41-.6,.69l-1.02-.88,1.89-1.09-.56-.32-2.36,1.36,1.98,1.67,.62-.27Z"/>
  <path class="cls-2" d="M479.65,270.88l-1.38,.49c-.37-.29-.74-.51-1.1-.67-.37-.15-.83-.28-1.38-.37-.82-.14-1.61-.16-2.39-.06-.78,.1-1.46,.33-2.04,.68-.58,.35-1.01,.8-1.29,1.33-.18,.35-.27,.66-.26,.93,0,.27,.12,.62,.34,1.04l-1.44,.51,.46,.4,1.38-.49c.37,.28,.71,.49,1.02,.62,.41,.17,.9,.31,1.47,.4,.76,.13,1.53,.15,2.31,.05,.78-.1,1.47-.32,2.06-.67,.59-.35,1.02-.79,1.29-1.33,.19-.37,.28-.72,.27-1.04,0-.25-.11-.55-.3-.92l1.44-.52-.45-.4Zm-8.59,2.36c.02-.23,.1-.48,.24-.75,.36-.7,.92-1.17,1.69-1.42,.77-.25,1.6-.3,2.5-.14,.39,.07,.71,.16,.97,.27,.26,.11,.53,.29,.83,.53l-6.12,2.17c-.09-.27-.13-.49-.11-.66Zm6.39,.33c-.34,.66-.89,1.12-1.67,1.38-.77,.26-1.6,.32-2.49,.17-.41-.07-.76-.17-1.07-.31-.24-.1-.47-.26-.71-.46l6.09-2.17c.15,.44,.1,.9-.15,1.39Z"/>
  <path class="cls-2" d="M482.63,277.26l2.7-5.22-.71-.12c-.31,.19-.76,.37-1.34,.53-.59,.16-1.23,.27-1.94,.33l-.32,.62c.38-.01,.83-.06,1.33-.13,.51-.07,.93-.16,1.28-.26l-2.1,4.07,1.11,.19Z"/>
  <path class="cls-2" d="M492.29,273.42c-.31-.18-.7-.3-1.19-.39-.66-.11-1.25-.1-1.79,.02-.54,.13-1.01,.36-1.43,.7-.41,.34-.78,.81-1.1,1.43-.5,.98-.57,1.73-.2,2.27,.31,.44,.9,.74,1.77,.89,.66,.11,1.26,.11,1.8-.02,.54-.13,1.01-.36,1.42-.7,.41-.34,.77-.81,1.09-1.42,.27-.52,.41-.94,.43-1.26,.02-.33-.03-.62-.16-.87s-.35-.47-.65-.64Zm-.76,2.58c-.44,.85-.91,1.39-1.4,1.61-.49,.22-.99,.29-1.5,.2-.51-.09-.86-.3-1.06-.64-.2-.34-.08-.94,.36-1.79,.44-.85,.93-1.41,1.48-1.66,.43-.2,.9-.25,1.41-.16,.52,.09,.87,.3,1.08,.65,.2,.34,.08,.94-.36,1.8Z"/>
  <polygon class="cls-2" points="500.02 280.26 502.71 275.05 501.51 274.85 500.41 276.98 495.73 276.18 496.83 274.04 495.64 273.84 492.95 279.04 494.14 279.24 495.41 276.79 500.09 277.6 498.83 280.05 500.02 280.26"/>
  <path class="cls-2" d="M505.19,279.59c.63-.56,1.37-1.09,2.24-1.58,.86-.49,1.68-.86,2.43-1.11l.26-.5-5.83-1-.32,.61,4.41,.76c-.75,.27-1.52,.63-2.29,1.09-.78,.45-1.45,.95-2.01,1.48-.57,.53-.96,1-1.19,1.41l1.14,.2c.33-.51,.72-.96,1.16-1.36Z"/>
  <path class="cls-2" d="M520.99,278.2l-2.53,1.07c-.38,.16-.72,.31-1.02,.47-.07-.17-.2-.43-.4-.76l-.94-1.62-1.42-.24,1.79,3.02-4.89,2.11,1.43,.25,3.2-1.42c.12-.06,.33-.16,.63-.32,.07,.15,.14,.29,.21,.42l1.31,2.25,1.48,.25-1.99-3.34,4.43-1.91-1.3-.22Z"/>
  <path class="cls-2" d="M524.43,282.7c1-.25,1.72-.46,2.18-.62,.46-.16,.81-.33,1.06-.51,.25-.18,.43-.37,.54-.58,.21-.41,.14-.8-.22-1.16-.36-.36-.97-.62-1.84-.77-.86-.15-1.61-.14-2.25,.03-.64,.17-1.13,.49-1.46,.97l1.1,.26c.17-.33,.47-.55,.88-.68,.42-.13,.89-.15,1.42-.06,.5,.09,.87,.24,1.09,.47,.22,.23,.27,.47,.14,.72-.12,.24-.43,.47-.91,.68-.48,.21-1.34,.47-2.55,.76-.79,.19-1.4,.37-1.85,.54-.45,.17-.81,.36-1.09,.57-.17,.13-.29,.27-.36,.42l5.96,1.03,.32-.61-4.42-.76c.18-.09,.4-.18,.65-.27,.25-.08,.79-.23,1.62-.44Z"/>
  <path class="cls-2" d="M123.4,321.89c.08-.29-.01-.6-.29-.91,.45,.12,.88,.16,1.27,.12,.39-.04,.74-.15,1.05-.32,.48-.28,.72-.62,.7-1.02-.02-.4-.31-.77-.9-1.1-.58-.33-1.21-.51-1.88-.52-.68-.01-1.26,.12-1.74,.4-.32,.19-.51,.39-.58,.62-.07,.23,0,.47,.22,.74-.51-.17-1.02-.24-1.53-.2-.51,.04-.98,.19-1.42,.44-.58,.34-.86,.73-.85,1.19,.01,.46,.35,.87,1,1.25,.66,.38,1.38,.57,2.17,.58,.79,0,1.47-.15,2.04-.48,.41-.24,.66-.5,.74-.8Zm-1.59,.32c-.39,.22-.83,.33-1.34,.33-.51,0-.95-.11-1.34-.34-.25-.14-.42-.31-.52-.51-.1-.19-.09-.39,.01-.58,.11-.19,.28-.35,.51-.49,.38-.22,.82-.33,1.33-.33,.51,0,.95,.11,1.34,.33,.39,.23,.59,.49,.6,.79,0,.3-.19,.56-.58,.79Zm.68-1.95c-.32-.19-.49-.4-.49-.63,0-.23,.15-.44,.47-.62,.28-.16,.62-.24,1.03-.24,.41,0,.76,.1,1.07,.28,.31,.18,.46,.39,.47,.62s-.14,.44-.44,.62c-.29,.17-.63,.25-1.03,.25-.4,0-.76-.09-1.07-.27Z"/>
  <path class="cls-2" d="M130.39,321.64c-.48-.28-1.02-.44-1.59-.47-.58-.03-1.19,.04-1.83,.22-.64,.18-1.35,.5-2.14,.96-1.25,.72-1.93,1.37-2.05,1.94-.09,.48,.18,.9,.82,1.27,.49,.28,1.02,.44,1.6,.47,.58,.03,1.19-.04,1.83-.23,.64-.18,1.35-.5,2.13-.95,.66-.38,1.13-.71,1.42-.99,.29-.28,.48-.55,.58-.81,.09-.26,.08-.51-.05-.74-.12-.24-.37-.46-.72-.67Zm-.27,1.25c-.1,.35-.7,.85-1.8,1.48-1.09,.63-1.94,.97-2.56,1.04-.62,.06-1.12-.02-1.49-.23-.38-.22-.51-.5-.4-.86,.11-.36,.7-.85,1.8-1.48,1.09-.63,1.98-.98,2.67-1.05,.54-.05,1,.03,1.37,.24,.38,.22,.52,.51,.42,.86Z"/>
  <path class="cls-2" d="M79.02,132.75c-.07-.18-.06-.37,.03-.56,.09-.19,.27-.36,.53-.51,.42-.24,.9-.36,1.43-.36,.53,0,1.03,.14,1.49,.41,.49,.28,.75,.59,.77,.92,.02,.33-.16,.61-.55,.83-.33,.19-.71,.29-1.15,.3-.44,.01-.9-.08-1.38-.29l-.78,.54c.61,.29,1.28,.42,2,.4,.72-.03,1.38-.21,1.99-.56,.74-.43,1.05-.92,.94-1.47-.09-.46-.43-.86-1.03-1.2-.63-.36-1.35-.55-2.15-.55-.8,0-1.49,.16-2.07,.5-.44,.25-.72,.58-.84,.97l-1.43-1.24,2.65-1.53-.78-.45-3.31,1.91,2.77,2.34,.87-.38Z"/>
  <path class="cls-2" d="M83.04,130.16c1.25,.72,2.37,1.11,3.36,1.18,.83,.05,1.56-.1,2.2-.47,.49-.28,.76-.59,.82-.92,.06-.34-.07-.69-.39-1.06-.32-.37-.87-.78-1.65-1.23-.66-.38-1.23-.65-1.72-.82-.49-.17-.96-.28-1.4-.33-.45-.06-.88-.05-1.29,.03-.41,.07-.8,.21-1.15,.42-.48,.28-.75,.59-.81,.92-.06,.33,.07,.69,.39,1.06,.32,.37,.87,.78,1.66,1.24Zm-.56-2.82c.38-.22,.88-.3,1.49-.24,.62,.06,1.47,.41,2.57,1.04,1.09,.63,1.69,1.12,1.79,1.48,.11,.36-.03,.64-.4,.86-.37,.22-.87,.29-1.49,.23-.62-.06-1.47-.41-2.56-1.04-1.09-.63-1.7-1.14-1.82-1.54-.09-.31,.05-.58,.42-.79Z"/>
  <path class="cls-2" d="M275.94,132.44l-.92-.41c-.5,.35-.73,.74-.69,1.16,.04,.42,.35,.8,.93,1.14,.65,.37,1.38,.57,2.21,.58,.83,.01,1.53-.15,2.11-.49,.43-.25,.68-.52,.75-.81,.07-.29-.05-.58-.35-.85,.44,.09,.86,.12,1.25,.07,.39-.05,.73-.15,1.02-.32,.3-.17,.51-.39,.62-.64,.11-.25,.09-.51-.06-.77-.15-.27-.41-.5-.77-.71-.53-.3-1.12-.47-1.77-.5-.66-.03-1.31,.08-1.95,.34l.67,.56c.46-.2,.89-.29,1.31-.28,.41,0,.78,.1,1.09,.29,.32,.19,.48,.39,.49,.62,0,.23-.14,.43-.44,.6-.38,.22-.8,.3-1.26,.24s-.86-.18-1.21-.39c-.03-.02-.07-.05-.12-.08l-.81,.36c.29,.1,.51,.19,.67,.28,.38,.22,.57,.47,.57,.75,0,.28-.19,.53-.56,.75-.39,.23-.86,.34-1.39,.34-.53,0-.99-.11-1.37-.33-.32-.19-.5-.4-.52-.65s.15-.53,.52-.85Z"/>
  <path class="cls-2" d="M281.61,137.86l1,.58,.76-2.51,3.93-.35-.98-.56-1.95,.19c-.27,.02-.57,.06-.9,.09,.06-.13,.13-.3,.2-.51l.39-1.08-1.02-.59-.69,2.28-4.26,.43,.99,.57,3.17-.37-.14,.38-.51,1.43Z"/>
  <path class="cls-2" d="M286.5,140.69l1.59-.92,.9,.52,.75-.43-.9-.52,4.31-2.49-.67-.39-7.34,.74-.75,.43,2.88,1.67-1.59,.92,.82,.47Zm-.56-3.02l5.08-.53-3,1.73-2.08-1.2Z"/>
  <path class="cls-2" d="M298.11,140.72l.78-.45-3.31-1.91-4.06,1.6,.67,.5c.31-.04,.63-.03,.96,.02,.33,.05,.63,.16,.89,.31,.42,.24,.63,.52,.62,.83,0,.31-.24,.59-.71,.86-.49,.28-1.02,.43-1.59,.45-.57,.01-1.05-.09-1.44-.32-.33-.19-.5-.41-.52-.67-.02-.25,.15-.52,.5-.8l-.93-.45c-.51,.35-.74,.74-.69,1.16,.04,.42,.37,.8,.97,1.15,.74,.43,1.59,.61,2.55,.54,.79-.05,1.48-.25,2.09-.6,.63-.36,.95-.78,.95-1.24,0-.46-.29-.86-.87-1.2-.44-.25-1-.42-1.67-.48l2.14-.82,2.65,1.53Z"/>
  <path class="cls-2" d="M299.09,143.06c.35,.2,.77,.3,1.26,.3s.91-.1,1.26-.3c.35-.2,.52-.44,.52-.73s-.18-.53-.53-.73c-.34-.2-.76-.3-1.25-.3-.49,0-.91,.1-1.26,.3-.35,.2-.53,.45-.52,.73,0,.28,.17,.52,.52,.72Zm.5-1.17c.21-.12,.47-.18,.77-.18,.3,0,.55,.06,.77,.18,.21,.12,.31,.27,.31,.44s-.11,.32-.32,.44c-.21,.12-.47,.18-.77,.18s-.55-.06-.76-.18c-.21-.12-.32-.27-.32-.44,0-.17,.11-.32,.32-.44Z"/>
  <path class="cls-2" d="M229.32,42.72l-6.33-1.61c-.64-.16-1.13-.28-1.46-.36,.31-.04,.79-.1,1.42-.19l6.82-.96,.15-1.08-9.37-.45-.1,.69,7.98,.38-8.2,1.18-.09,.65,7.62,1.95-7.84-.37-.1,.69,9.37,.45,.14-.96Z"/>
  <path class="cls-2" d="M220.61,47.51c.48,.17,1.02,.27,1.61,.3,.9,.04,1.65-.08,2.26-.36,.61-.28,.95-.65,1.01-1.09,.04-.25-.03-.5-.2-.74-.17-.24-.46-.45-.86-.63,.94,.05,1.65,.15,2.14,.29,.49,.14,.85,.33,1.09,.55,.18,.17,.26,.36,.23,.57-.04,.26-.23,.48-.59,.64-.22,.1-.56,.17-1.02,.2v.66c.73-.02,1.33-.15,1.78-.41,.45-.25,.71-.59,.77-1.02,.08-.57-.21-1.04-.88-1.41-.77-.43-2.06-.68-3.87-.77-1.62-.08-2.81,.04-3.56,.36-.76,.32-1.17,.75-1.25,1.3-.05,.32,.05,.62,.28,.89,.23,.27,.59,.49,1.07,.66Zm-.04-2.05c.22-.17,.51-.29,.89-.37,.38-.08,.76-.11,1.16-.09,.6,.03,1.08,.16,1.42,.38,.34,.23,.49,.49,.45,.79-.04,.3-.27,.54-.67,.73-.4,.18-.93,.26-1.57,.23-.67-.03-1.19-.16-1.56-.38-.36-.22-.52-.47-.48-.75,.03-.19,.15-.37,.36-.54Z"/>
  <path class="cls-2" d="M227.8,53.3l.11-.78-2.33-1.21c-.35-.18-.68-.34-1.01-.48,.28-.07,.68-.2,1.21-.38l2.54-.87,.12-.85-4.75,1.63-4.58-2.33-.12,.86,3.07,1.51c.12,.06,.34,.16,.67,.29-.24,.07-.46,.14-.66,.21l-3.54,1.2-.13,.89,5.25-1.81,4.14,2.11Z"/>
  <path class="cls-2" d="M227.47,55.89c-.39-.14-.78-.35-1.17-.65-.39-.3-.71-.64-.96-1.03l-1.11-.05c.1,.21,.27,.46,.49,.73,.23,.27,.46,.49,.7,.67l-7.33-.35-.1,.66,9.41,.45,.06-.43Z"/>
  <path class="cls-2" d="M220.93,62.22c-.11,.77,.09,1.31,.6,1.63s1.16,.5,1.96,.54c.46,.02,.9-.01,1.3-.1,.4-.09,.73-.22,.97-.39,.24-.17,.42-.39,.53-.65,.09-.19,.16-.46,.21-.82l.29-2.04-9.37-.45-.1,.72,3.81,.18-.2,1.39Zm1.1,.06l.2-1.4,3.35,.16-.2,1.38c-.05,.32-.11,.55-.18,.66-.12,.18-.32,.32-.62,.43-.3,.1-.64,.14-1.03,.12-.54-.03-.95-.14-1.22-.35-.27-.21-.37-.54-.31-1.01Z"/>
  <path class="cls-2" d="M225.85,66.91l-9.07-2.53-.11,.76,2.75,.73-.32,2.26-2.93,.5-.12,.82,9.69-1.77,.11-.77Zm-3.03,.61l-2.68,.44,.26-1.83,2.66,.73c.57,.15,1.16,.28,1.75,.38-.52,.06-1.18,.16-2,.29Z"/>
  <path class="cls-2" d="M225.24,72.34c.05-.36,0-.7-.18-1.01-.17-.31-.45-.55-.84-.72-.39-.17-.82-.27-1.29-.3-.43-.02-.83,.02-1.19,.13-.37,.11-.68,.29-.96,.54-.21,.19-.46,.53-.73,1.02-.28,.49-.48,.8-.6,.94-.18,.22-.39,.37-.62,.46-.23,.09-.5,.12-.79,.11-.29-.01-.55-.08-.78-.19-.23-.11-.4-.28-.51-.49-.11-.22-.15-.46-.11-.73,.04-.31,.18-.58,.4-.82,.22-.24,.49-.41,.81-.51,.32-.1,.71-.16,1.19-.17v-.68c-.63-.02-1.21,.05-1.73,.22-.52,.16-.93,.41-1.23,.73-.29,.32-.48,.72-.55,1.21-.05,.39,.02,.74,.22,1.06,.2,.32,.51,.57,.93,.76,.42,.19,.88,.29,1.37,.31,.5,.02,.96-.03,1.37-.16,.41-.13,.76-.35,1.06-.65,.2-.21,.46-.6,.77-1.17,.31-.57,.59-.92,.82-1.05,.24-.13,.52-.19,.86-.17,.39,.02,.71,.13,.95,.34,.25,.21,.34,.53,.28,.97-.06,.42-.26,.72-.59,.92-.33,.2-.8,.3-1.4,.31v.69c.54,.01,1.05-.05,1.51-.2,.46-.14,.82-.36,1.09-.66,.27-.3,.43-.64,.49-1.05Z"/>
  <path class="cls-2" d="M224.51,77.39c.05-.36,0-.7-.18-1.01-.17-.31-.45-.55-.84-.72-.39-.17-.82-.27-1.29-.3-.43-.02-.83,.02-1.19,.13-.36,.11-.68,.29-.95,.54-.21,.19-.46,.53-.74,1.02-.28,.49-.48,.8-.6,.94-.18,.22-.39,.37-.62,.46-.23,.09-.5,.13-.79,.11-.29-.01-.55-.08-.78-.19-.23-.11-.4-.28-.51-.5-.11-.22-.15-.46-.11-.73,.04-.31,.18-.58,.4-.82,.22-.24,.49-.41,.81-.51,.32-.1,.71-.16,1.19-.17v-.68c-.63-.02-1.21,.05-1.73,.22-.52,.16-.93,.41-1.23,.73-.29,.32-.48,.72-.55,1.21-.06,.39,.02,.74,.22,1.06,.2,.32,.51,.57,.93,.76,.42,.19,.88,.29,1.37,.31,.5,.02,.96-.03,1.37-.16,.41-.13,.76-.35,1.06-.65,.2-.21,.46-.6,.77-1.17,.31-.57,.59-.92,.82-1.05,.24-.13,.52-.19,.86-.17,.39,.02,.7,.13,.95,.34,.25,.21,.34,.53,.28,.97-.06,.42-.26,.72-.59,.92-.33,.2-.8,.3-1.4,.31v.69c.54,.01,1.05-.05,1.51-.19,.46-.14,.82-.36,1.09-.66,.27-.3,.43-.64,.49-1.05Z"/>
  <path class="cls-2" d="M223.69,82.04l-9.07-2.53-.11,.76,2.75,.73-.32,2.26-2.93,.5-.12,.82,9.69-1.77,.11-.77Zm-3.03,.61l-2.68,.44,.26-1.83,2.66,.73c.57,.15,1.16,.28,1.75,.38-.52,.06-1.18,.16-2,.29Z"/>
  <polygon class="cls-2" points="223.18 85.59 213.81 85.14 213.71 85.82 221.07 86.18 213.3 88.67 213.2 89.4 222.57 89.85 222.67 89.16 215.31 88.81 223.07 86.32 223.18 85.59"/>
  <polygon class="cls-2" points="222.45 90.65 221.35 90.59 221.09 92.38 212.83 91.98 212.72 92.7 220.99 93.09 220.73 94.88 221.84 94.93 222.45 90.65"/>
  <polygon class="cls-2" points="221.73 95.68 212.36 95.24 211.78 99.27 212.89 99.33 213.36 96.01 216.55 96.16 216.12 99.15 217.22 99.2 217.65 96.21 220.52 96.35 220.06 99.54 221.17 99.6 221.73 95.68"/>
  <path class="cls-2" d="M220.63,103.36l.12-.85-4.75,1.63-4.58-2.33-.12,.86,3.07,1.51c.12,.06,.34,.15,.67,.29-.24,.07-.46,.14-.66,.21l-3.54,1.2-.13,.89,5.25-1.81,4.15,2.11,.11-.78-2.33-1.21c-.35-.18-.68-.34-1.01-.48,.28-.07,.68-.2,1.21-.38l2.54-.87Z"/>
  <path class="cls-2" d="M218.28,110.04c-.34,.17-.74,.25-1.19,.23-.44-.02-.88-.15-1.34-.38-.46-.23-1.06-.66-1.81-1.29-.48-.4-.91-.72-1.29-.94-.38-.22-.77-.39-1.18-.5-.25-.07-.51-.11-.79-.12l-.51,3.58,1.11,.05,.38-2.65c.2,.08,.39,.19,.58,.31,.19,.12,.55,.4,1.07,.82,.63,.51,1.13,.88,1.5,1.1,.37,.22,.73,.39,1.08,.5,.35,.11,.71,.17,1.09,.19,.74,.03,1.38-.09,1.92-.37,.54-.28,.85-.68,.92-1.2,.07-.51-.1-.94-.52-1.26-.42-.33-1.07-.53-1.94-.62l-.22,.68c.59,.03,1.03,.15,1.34,.36,.3,.21,.44,.47,.39,.79-.04,.3-.24,.54-.58,.71Z"/>
  <path class="cls-2" d="M308.23,368.23c-.58,.34-.86,.73-.85,1.19,.01,.46,.35,.87,1,1.25,.66,.38,1.38,.57,2.17,.58,.79,0,1.47-.15,2.04-.48,.41-.24,.66-.5,.74-.8,.08-.29-.01-.6-.29-.91,.45,.12,.88,.16,1.27,.12,.39-.04,.74-.15,1.05-.33,.48-.28,.72-.62,.7-1.02-.02-.4-.31-.77-.9-1.1-.58-.33-1.2-.51-1.88-.52-.68-.01-1.26,.12-1.74,.4-.32,.19-.51,.39-.58,.62-.07,.23,0,.47,.22,.74-.51-.17-1.02-.24-1.53-.2-.51,.04-.98,.19-1.42,.44Zm4.17-1.13c.28-.16,.62-.24,1.03-.24,.41,0,.76,.1,1.07,.28,.31,.18,.46,.39,.47,.62,0,.24-.15,.44-.45,.62-.29,.17-.63,.25-1.03,.25-.4,0-.76-.09-1.07-.27-.32-.19-.49-.4-.49-.63,0-.23,.15-.44,.47-.62Zm-.67,1.62c.39,.23,.59,.49,.6,.79,0,.3-.19,.56-.58,.79-.39,.22-.83,.33-1.34,.33-.51,0-.95-.11-1.34-.34-.25-.15-.43-.32-.52-.51-.1-.2-.09-.39,.01-.58,.11-.19,.28-.35,.51-.49,.38-.22,.82-.33,1.33-.33,.51,0,.95,.11,1.34,.33Z"/>
  <polygon class="cls-2" points="315.01 373.74 311.87 371.93 311.33 372.24 314.46 374.05 315.01 373.74"/>
  <polygon class="cls-2" points="316.61 372.81 317.15 372.5 315.86 371.75 317.15 371.01 316.6 370.69 315.31 371.44 314.01 370.69 313.47 371 314.77 371.75 313.46 372.5 314.01 372.82 315.32 372.07 316.61 372.81"/>
  <path class="cls-2" d="M321.44,374.08c.21-.2,.34-.39,.41-.58,.07-.18,.06-.36-.03-.53-.09-.17-.26-.33-.52-.48-.35-.2-.73-.31-1.14-.34-.41-.02-.85,.03-1.31,.16-.46,.13-.97,.36-1.53,.68-.89,.51-1.38,.98-1.46,1.39-.07,.34,.13,.64,.59,.91,.35,.2,.73,.31,1.14,.34,.42,.02,.85-.03,1.31-.16,.46-.13,.96-.36,1.52-.68,.47-.27,.81-.51,1.02-.71Zm-3.44,1.1c-.44,.04-.8-.01-1.06-.17-.27-.15-.36-.36-.29-.61,.08-.25,.5-.61,1.28-1.06s1.41-.7,1.9-.75c.39-.04,.71,.02,.98,.17,.27,.16,.37,.36,.3,.62-.07,.25-.5,.61-1.28,1.06-.78,.45-1.39,.7-1.83,.74Z"/>
  <polygon class="cls-2" points="319.67 377.06 320.33 376.68 319.67 376.29 319 376.67 319.67 377.06"/>
  <path class="cls-2" d="M321.99,378.49c.35,.2,.73,.31,1.14,.34,.42,.02,.85-.03,1.31-.16,.46-.13,.96-.36,1.52-.68,.47-.27,.81-.51,1.02-.71,.21-.2,.34-.39,.41-.58,.07-.18,.06-.36-.03-.53-.09-.17-.26-.33-.52-.48-.35-.2-.73-.31-1.14-.34-.41-.02-.85,.03-1.31,.16-.46,.13-.97,.36-1.53,.68-.89,.51-1.38,.98-1.46,1.39-.07,.34,.13,.64,.59,.91Zm.19-.89c.08-.25,.5-.61,1.28-1.06,.78-.45,1.41-.7,1.9-.75,.39-.04,.71,.02,.98,.17,.27,.16,.37,.36,.3,.62-.07,.25-.5,.61-1.28,1.06-.78,.45-1.39,.7-1.83,.74s-.8-.01-1.06-.17-.36-.36-.29-.61Z"/>
  <path class="cls-2" d="M326.56,378.44l.48,.36c.22-.03,.45-.02,.69,.01s.45,.11,.64,.22c.3,.17,.45,.37,.45,.59,0,.22-.17,.42-.51,.62-.35,.2-.73,.31-1.13,.32-.41,0-.75-.07-1.03-.23-.23-.13-.36-.29-.37-.47-.01-.18,.1-.37,.36-.57l-.66-.32c-.36,.25-.53,.53-.49,.83,.03,.3,.26,.57,.69,.82,.53,.3,1.14,.43,1.82,.39,.56-.04,1.06-.18,1.49-.43,.45-.26,.68-.56,.68-.89,0-.33-.2-.62-.62-.85-.31-.18-.71-.3-1.2-.35l1.53-.59,1.89,1.09,.56-.32-2.36-1.36-2.9,1.14Z"/>
  <path class="cls-2" d="M872.1,339.15c-.13-.08-.35-.08-.48,0-.13,.08-.13,.2,0,.28l33.78,19.5-7.44,3.09,.84,.49-29.48,17.02-.84-.49-5.35,4.3-33.78-19.5c-.13-.08-.35-.08-.48,0-.13,.08-.13,.2,0,.28l37.64,21.73c.13,.08,.35,.08,.48,0,.13-.08,.13-.2,0-.28l-3.78-2.18,7.48-3.06-.88-.51,29.48-17.02,.88,.51,5.31-4.32,3.78,2.18c.13,.08,.35,.08,.48,0s.13-.2,0-.28l-37.64-21.73Z"/>
  <path class="cls-2" d="M872.67,369.61c.16-.2,.31-.45,.44-.74,.13-.29,.2-.55,.21-.77l5.2,3,.82-.47-6.68-3.85-.53,.3c.15,.25,.2,.56,.16,.93-.04,.37-.18,.75-.42,1.14l.79,.46Z"/>
  <path class="cls-2" d="M878.97,363.28l-3.31,1.91,2.77,2.34,.87-.39c-.07-.18-.06-.36,.03-.56,.09-.19,.27-.36,.53-.51,.42-.24,.9-.36,1.43-.36,.53,0,1.03,.14,1.49,.41,.49,.28,.75,.59,.77,.92,.02,.33-.16,.61-.55,.83-.33,.19-.71,.29-1.15,.3-.44,.01-.9-.08-1.38-.29l-.78,.54c.61,.29,1.28,.42,2,.4,.72-.02,1.38-.21,1.99-.56,.74-.43,1.05-.92,.94-1.47-.09-.46-.43-.86-1.03-1.2-.63-.37-1.35-.55-2.15-.55-.8,0-1.49,.16-2.07,.5-.44,.25-.72,.58-.84,.97l-1.43-1.24,2.65-1.53-.78-.45Z"/>
  <path class="cls-2" d="M906.19,334.1l-2.95-1.7-6.65,3.84,.88,.51,2.95-1.71,1.02,.59c.23,.13,.38,.23,.46,.3,.1,.1,.18,.21,.22,.33,.05,.13,.05,.3,0,.51-.05,.22-.14,.52-.28,.9l-.5,1.31,1.11,.64,.65-1.71c.12-.34,.18-.65,.15-.93-.01-.13-.08-.3-.2-.5,.73,.32,1.4,.47,2.03,.46,.63-.01,1.18-.15,1.65-.42,.37-.21,.61-.46,.73-.74,.12-.28,.08-.55-.11-.79-.19-.25-.58-.54-1.17-.88Zm-.35,1.89c-.21,.12-.47,.2-.77,.24-.3,.04-.61,.02-.92-.07-.31-.08-.67-.24-1.07-.47l-1.89-1.09,2.2-1.27,2.1,1.21c.49,.28,.75,.55,.78,.8,.03,.25-.12,.46-.43,.65Z"/>
  <path class="cls-2" d="M906.49,341.95l.85,.49c.08-.17,.21-.32,.37-.45,.17-.14,.63-.42,1.39-.86l1.09-.63c.36-.21,.6-.36,.71-.46,.18-.16,.28-.31,.3-.47,.03-.15-.04-.33-.2-.54-.16-.2-.45-.43-.86-.66-.41-.24-.84-.42-1.26-.53-.43-.12-.83-.16-1.21-.14-.38,.03-.77,.12-1.19,.27l.69,.52c.43-.15,.8-.21,1.12-.18,.32,.03,.67,.15,1.05,.37,.41,.24,.63,.47,.65,.7,.02,.17-.14,.35-.47,.54-.03,.02-.1,.06-.22,.12-.42-.12-1-.34-1.74-.68-.36-.16-.65-.28-.85-.35-.28-.09-.56-.15-.86-.18-.29-.03-.59-.02-.89,.03-.3,.05-.57,.14-.81,.28-.4,.23-.59,.51-.57,.82,.03,.31,.3,.62,.83,.93,.32,.19,.67,.33,1.06,.43,.39,.1,.86,.16,1.42,.19-.2,.14-.35,.29-.43,.44Zm-.17-.95c-.38-.06-.73-.18-1.05-.37-.32-.18-.49-.36-.51-.54-.02-.18,.08-.33,.3-.46,.14-.08,.31-.14,.5-.16,.19-.02,.39-.01,.59,.03,.2,.05,.49,.15,.88,.32,.68,.29,1.22,.49,1.64,.59l-.3,.17c-.36,.21-.68,.34-.95,.4-.35,.07-.72,.08-1.1,.01Z"/>
  <path class="cls-2" d="M917.38,342.44c.45-.34,.66-.69,.62-1.05-.04-.36-.32-.69-.85-1-.7-.41-1.51-.58-2.44-.53-1.06,.06-2.23,.47-3.52,1.21-1.15,.66-1.76,1.26-1.83,1.8-.07,.54,.23,1,.91,1.39,.4,.23,.85,.38,1.36,.45,.51,.07,1.03,.06,1.56-.05,.54-.1,1.02-.27,1.43-.52,.63-.37,.96-.78,.98-1.23,.02-.45-.24-.84-.79-1.15-.31-.18-.68-.31-1.11-.39-.43-.08-.89-.09-1.39-.03,.67-.38,1.26-.63,1.77-.75,.51-.12,.98-.16,1.43-.12,.34,.03,.64,.12,.9,.27,.32,.19,.48,.41,.47,.67-.01,.16-.14,.35-.39,.58l.88,.43Zm-4.77-.65c.52,0,.97,.1,1.34,.31,.37,.21,.55,.47,.53,.76-.02,.29-.26,.57-.72,.84-.48,.28-.98,.42-1.51,.44-.53,.02-.96-.07-1.31-.27-.24-.14-.39-.3-.47-.51-.08-.2-.05-.41,.09-.63,.14-.22,.35-.41,.63-.57,.43-.25,.9-.37,1.43-.38Z"/>
  <path class="cls-2" d="M913.73,346.13l.46,.27c-.28,.15-.54,.25-.77,.29-.23,.04-.47,.03-.71-.03l-.12,.33c.38,.09,.73,.1,1.06,.05,.33-.05,.67-.18,1.01-.37l.93-.54-.93-.54-.93,.54Z"/>
  <path class="cls-2" d="M924.63,344.71c-.53-.3-1.12-.47-1.77-.5-.65-.03-1.31,.08-1.95,.34l.67,.56c.46-.2,.89-.29,1.31-.28,.41,0,.77,.1,1.09,.29,.32,.19,.48,.39,.49,.62,0,.23-.14,.43-.44,.61-.38,.22-.8,.3-1.26,.24-.46-.06-.86-.18-1.21-.39-.03-.02-.07-.05-.12-.08l-.81,.36c.29,.1,.51,.19,.67,.28,.38,.22,.57,.47,.57,.75,0,.28-.19,.53-.56,.75-.39,.23-.85,.34-1.39,.34-.53,0-.99-.11-1.37-.33-.32-.19-.5-.4-.52-.65-.02-.25,.15-.53,.52-.85l-.93-.41c-.5,.35-.73,.74-.69,1.16,.04,.42,.35,.8,.93,1.14,.65,.37,1.38,.57,2.21,.58,.83,.01,1.53-.15,2.11-.49,.43-.25,.68-.52,.75-.81,.07-.29-.05-.58-.35-.85,.44,.09,.86,.12,1.25,.07,.39-.05,.73-.15,1.02-.32,.3-.17,.51-.39,.61-.63s.09-.51-.06-.77c-.15-.27-.41-.5-.77-.71Z"/>
  <path class="cls-2" d="M930.45,343.98l-28.95-16.72c-.09-.05-.21-.07-.33-.05l-21.15,3.28,24.57-14.19c.13-.08,.13-.2,0-.28-.13-.08-.35-.08-.48,0l-3.74,2.16-5.35-4.3-.84,.49-129.21-74.6,.84-.49-7.44-3.09,3.74-2.16c.13-.08,.13-.2,0-.28s-.35-.08-.48,0l-36.13,20.86s-.1,.01-.14,.03l-42.83,24.73c-.13,.08-.13,.2,0,.28l8.57,4.95,125.43,72.42,8.57,4.95c.13,.08,.35,.08,.48,0l42.83-24.73s.04-.05,.06-.08l10.6-6.12,22.1-3.42,28.81,16.64c.13,.08,.35,.08,.48,0s.13-.2,0-.28Zm-166.85-103.41l.88-.51,129.21,74.6-.88,.51,7.48,3.07-21.59,12.46-15.77,2.44,4.07-8.75c.05-.11-.06-.21-.24-.24-.18-.03-.37,.03-.42,.14l-4.07,8.75-.59-.34c-.13-.08-.35-.08-.48,0-.04,.02-.04,.05-.06,.08l-1.31-.76-125.43-72.42-8.28-4.78,32.17-18.57,5.31,4.32Zm53.16,116.04l-124.94-72.14,42.34-24.45,124.94,72.14-42.34,24.45Zm-129.99-79.11s.1-.01,.14-.03l38.73-22.36,8.04,4.64-42.34,24.45-8.08-4.67,3.52-2.03Zm138.55,84.06l-8.08-4.67,42.34-24.45,8.04,4.64-38.73,22.36s-.04,.05-.06,.08l-3.52,2.03Zm42.79-24.75l-4.68-2.7s.1-.01,.14-.03c.13-.08,.13-.2,0-.28l-.47-.27,14.63-2.27-9.61,5.55Z"/>
  <path class="cls-2" d="M477.49,178.34c.32-.19,.71-.28,1.17-.27,.28,0,.61,.08,1.01,.23l.75-.51c-.58-.26-1.19-.38-1.82-.35-.63,.02-1.2,.19-1.73,.49-.7,.41-1.01,.87-.91,1.41,.11,.61,.81,1.29,2.09,2.03,1.15,.66,2.19,1.02,3.12,1.06,.93,.04,1.73-.14,2.41-.53,.4-.23,.66-.49,.78-.78,.12-.29,.1-.59-.08-.9-.18-.31-.48-.59-.89-.83-.64-.37-1.34-.56-2.13-.57-.78-.01-1.45,.14-1.99,.46-.31,.18-.54,.39-.68,.64-.14,.25-.16,.51-.06,.8-.66-.39-1.09-.73-1.31-1.02-.21-.29-.28-.57-.21-.82,.05-.2,.21-.37,.47-.52Zm2.34,1.44c.37-.21,.81-.32,1.32-.3,.51,.01,.99,.15,1.45,.41,.48,.28,.73,.57,.76,.87,.03,.3-.13,.56-.47,.75-.24,.14-.53,.23-.88,.27-.35,.05-.71,.03-1.09-.05-.38-.08-.71-.2-.99-.36-.43-.25-.65-.52-.66-.82,0-.3,.17-.56,.54-.77Z"/>
  <path class="cls-2" d="M488.29,180.56c.15-.22,.18-.42,.09-.61-.09-.19-.31-.39-.65-.58l-.93-.54-.93,.54,.93,.54,.46-.27c.27,.16,.43,.31,.5,.44,.07,.13,.05,.27-.05,.41l.58,.07Z"/>
  <path class="cls-2" d="M488.58,174.07c-.08-.23-.27-.42-.55-.59-.3-.17-.67-.29-1.1-.35s-.88-.05-1.34,.04c-.46,.09-.87,.23-1.24,.44-.53,.3-.82,.64-.87,1.02-.05,.38,.14,.75,.59,1.13l.96-.39c-.34-.27-.5-.52-.49-.75,.01-.24,.18-.45,.49-.63,.32-.18,.68-.28,1.08-.28,.4,0,.75,.08,1.05,.25,.38,.22,.52,.46,.42,.73-.1,.27-.32,.5-.67,.7-.03,.02-.08,.04-.14,.07l.63,.47c.17-.17,.33-.3,.48-.39,.38-.22,.81-.33,1.3-.33,.49,0,.92,.11,1.29,.32,.39,.23,.59,.49,.59,.8,0,.31-.19,.57-.57,.79-.32,.19-.7,.29-1.13,.3-.43,.01-.92-.09-1.48-.3l-.71,.53c.61,.29,1.28,.42,2.01,.4,.73-.02,1.39-.2,1.97-.54,.65-.37,.98-.8,1-1.28,.02-.48-.26-.88-.84-1.22-.43-.25-.9-.39-1.4-.43-.5-.04-1,.03-1.48,.2,.16-.25,.2-.5,.12-.72Z"/>
  <path class="cls-2" d="M509.61,183.59c-.13-.08-.35-.08-.48,0l-32.72,18.89-10.17-21.99,19.81-11.44c.13-.08,.13-.2,0-.28-.13-.08-.35-.08-.48,0l-19.95,11.52c-.09,.05-.12,.12-.09,.19l6.12,13.23-11.38,6.57c-.09,.05-.12,.12-.09,.19,.02,.03,.05,.06,.09,.09s.09,.04,.15,.05l15.15,2.35-3.36,1.94c-.13,.08-.13,.2,0,.28,.13,.08,.35,.08,.48,0l3.78-2.18h0l33.14-19.13c.13-.08,.13-.2,0-.28Zm-37.76,10.56l3.9,8.43-14.58-2.26,10.68-6.17Z"/>
  <path class="cls-2" d="M314.84,18.08c.45-.34,.66-.69,.61-1.05-.04-.36-.32-.69-.85-1-.7-.4-1.51-.58-2.44-.53-1.06,.06-2.23,.47-3.51,1.21-1.15,.66-1.76,1.26-1.83,1.8-.07,.54,.23,1,.92,1.39,.4,.23,.85,.38,1.36,.45,.5,.07,1.03,.06,1.56-.05,.54-.1,1.02-.28,1.43-.52,.63-.37,.96-.78,.98-1.23,.02-.45-.25-.84-.79-1.15-.31-.18-.68-.31-1.11-.39-.43-.08-.89-.09-1.39-.03,.67-.38,1.26-.63,1.77-.75,.51-.12,.98-.16,1.43-.12,.34,.03,.64,.12,.9,.27,.32,.19,.48,.41,.47,.67-.01,.16-.14,.35-.39,.58l.88,.43Zm-4.77-.65c.52,0,.97,.1,1.34,.31,.37,.22,.55,.47,.53,.76-.02,.29-.26,.57-.72,.84-.48,.28-.98,.42-1.51,.44-.53,.02-.96-.07-1.31-.27-.24-.14-.39-.31-.47-.51-.08-.2-.05-.41,.09-.63,.14-.22,.35-.41,.63-.57,.43-.25,.9-.37,1.43-.38Z"/>
  <path class="cls-2" d="M310.17,22.29l-.12,.33c.38,.09,.73,.1,1.06,.05,.33-.05,.67-.18,1.01-.37l.93-.54-.93-.54-.93,.54,.46,.27c-.28,.15-.54,.25-.77,.29s-.47,.03-.71-.03Z"/>
  <path class="cls-2" d="M321.3,22.8c.39-.05,.73-.15,1.02-.32,.3-.17,.51-.39,.62-.63,.11-.25,.09-.51-.06-.77-.15-.27-.41-.5-.77-.71-.53-.3-1.12-.47-1.77-.5-.66-.03-1.31,.08-1.95,.34l.67,.56c.46-.2,.89-.29,1.31-.28,.41,0,.78,.1,1.09,.29,.32,.19,.48,.39,.49,.62,0,.23-.14,.43-.44,.6-.38,.22-.8,.3-1.26,.24s-.86-.18-1.21-.39c-.03-.02-.07-.05-.12-.08l-.81,.36c.29,.1,.51,.19,.67,.28,.38,.22,.57,.47,.57,.75,0,.28-.19,.53-.56,.75-.39,.23-.86,.34-1.39,.34-.53,0-.99-.11-1.37-.33-.32-.19-.5-.4-.52-.65-.02-.25,.15-.53,.52-.85l-.92-.41c-.5,.35-.73,.74-.69,1.16,.04,.42,.35,.8,.93,1.14,.65,.37,1.38,.57,2.21,.58,.83,.01,1.53-.15,2.11-.49,.43-.25,.68-.52,.75-.81,.07-.29-.05-.58-.35-.85,.44,.09,.86,.12,1.25,.07Z"/>
  <path class="cls-2" d="M271.18,15.8h0l77.61,44.81-22.6,13.05c-.13,.08-.13,.2,0,.28l98.32,56.77,43.95,25.38-6.35,3.67c-.13,.08-.13,.2,0,.28,.13,.08,.35,.08,.48,0l6.35-3.67,43.91,25.35,41.34,23.87c.13,.08,.35,.08,.48,0l16.25-9.38h0l17.05-9.84h0l.68-.39,20.51,11.84-7.48,3.07,.88,.51h0l-16.69,9.64c-.13,.08-.13,.2,0,.28,.13,.08,.35,.08,.48,0l16.69-9.64h0l.88,.51,5.31-4.32,3.74,2.16c.13,.08,.35,.08,.48,0,.13-.08,.13-.2,0-.28l-3.54-2.04,8.08-4.67,3.54,2.04c.13,.08,.35,.08,.48,0s.13-.2,0-.28l-3.74-2.16,7.48-3.07-.88-.51h0l6.68-3.85c.13-.08,.13-.2,0-.28-.13-.08-.35-.08-.48,0l-6.68,3.85h0l-.88-.51-5.31,4.32-20.65-11.92s-.02-.06-.06-.08l-41.1-23.73,23.24-13.42c.13-.08,.13-.2,0-.28s-.35-.08-.48,0l-3.74,2.16-5.35-4.3-.84,.49h0s-75.04-43.32-75.04-43.32l.84-.49-7.48-3.11,3.74-2.16c.13-.08,.13-.2,0-.28s-.35-.08-.48,0l-23.24,13.42-5.47-3.16-18.98-10.96,44.92-25.93c.13-.08,.13-.2,0-.28-.13-.08-.35-.08-.48,0l-3.78,2.18-5.31-4.32-.88,.51-31.57-18.23,.88-.51-7.52-3.09,3.78-2.18c.13-.08,.13-.2,0-.28-.13-.08-.35-.08-.48,0l-3.58,2.07-50.55-29.18c-.13-.08-.35-.08-.48,0-.13,.08-.13,.2,0,.28l50.55,29.18-22.28,12.86-5.35-4.3-.84,.49-15.2-8.78,.84-.49-7.44-3.09,3.74-2.16c.13-.08,.13-.2,0-.28s-.35-.08-.48,0l-18.82,10.87c-.13,.08-.13,.2,0,.28,.13,.08,.35,.08,.48,0l15-8.66,5.31,4.32,.88-.51,15.2,8.78-.88,.51,7.48,3.06-18.5,10.68-28.27-16.32s-.09-.02-.14-.03l-27.57-15.92,45.88-26.49c.13-.08,.13-.2,0-.28-.13-.08-.35-.08-.48,0l-45.88,26.49-3.54-2.04c-.13-.08-.35-.08-.48,0-.13,.08-.13,.2,0,.28l3.74,2.16-7.44,3.09,.84,.49-6.68,3.85h0s-.84-.49-.84-.49l-5.35,4.3-3.74-2.16h0l-45.75-26.41,38.04-5.89,19.81,11.44c.13,.08,.35,.08,.48,0,.13-.08,.13-.2,0-.28l-19.95-11.52c-.09-.05-.21-.07-.33-.05l-22.89,3.55-11.36-6.56c-.09-.05-.21-.07-.33-.05-.12,.02-.21,.07-.24,.14l-4.07,8.75-3.4-1.96c-.13-.08-.35-.08-.48,0-.13,.08-.13,.2,0,.28l3.82,2.21Zm4.64-8.84l10.67,6.16-14.58,2.26,3.92-8.42Zm99.77,46.09h-12.75l6.37-3.68,6.37,3.68Zm-13.43,.39h14.11l7.84,4.53h-29.8l7.84-4.53Zm-8.53,4.92h31.16l7.84,4.53h-38.93l-3.96-2.29,3.88-2.24Zm31.16,14.37h-14.03l-7.84-4.53h29.72s-7.84,4.53-7.84,4.53Zm-48.22-4.53h25.37l7.84,4.53h-41.06l7.84-4.53Zm8.52-4.92h8.32l7.84,4.53h-24.01l7.84-4.53Zm7.64-.39h-6.96l3.48-2.01,3.48,2.01Zm-24.69,10.24h42.42l3.28,1.89c.13,.08,.35,.08,.48,0,.13-.08,.13-.2,0-.28l-2.79-1.61h12.67l-2.79,1.61h0l-3.78,2.18c-.13,.08-.13,.2,0,.28l.78,.45h-44.72s-6.7-3.87-6.7-3.87l1.15-.66Zm116.54,19.71l7.84,4.53-19.55-.02,5.53-3.2,2.31-1.33,3.86,.02Zm-3.18-.41l1.24-.71,1.26,.73h-2.5Zm-14.73,8.49h0l5.53-3.19,20.91,.02,7.84,4.53-36.6-.02,2.31-1.34Zm-2.99,1.73l37.44,.02-7.84,4.53h-68.48l-7.84-4.53h44.72s.74,.43,.74,.43c.13,.08,.35,.08,.48,0l.79-.45Zm1.06,27.62l-5.17-2.98h10.33l-5.17,2.98Zm5.85-3.38h-11.7l-7.84-4.53h27.39l-7.84,4.53Zm8.53-4.92h-28.75l-7.84-4.53h44.44s-7.84,4.53-7.84,4.53Zm8.52-4.92h-45.8s-7.84-4.53-7.84-4.53h61.49s-7.84,4.53-7.84,4.53Zm8.53-4.92h-62.85s-7.84-4.53-7.84-4.53h67.57s0,0,0,.01l5.47,3.16-2.35,1.36Zm-79.9-9.84l-7.84-4.53h44.72s7.84,4.53,7.84,4.53h-44.72Zm-8.53-4.92l-7.84-4.53,44.68-.02,7.88,4.55h-44.72Zm-8.52-4.92l-7.88-4.55h44.72s7.84,4.53,7.84,4.53l-44.68,.02Zm-8.57-4.95l-7.84-4.53h44.72s7.84,4.53,7.84,4.53h-44.72Zm-8.53-4.92l-7.84-4.53h44.72s7.84,4.53,7.84,4.53h-44.72Zm144.51,63.28c-.13-.08-.35-.08-.48,0l-17.21,9.94-43.71-25.24,14.28-8.24h0s19.5-11.26,19.5-11.26l43.71,25.24-6.39,3.69c-.13,.08-.13,.2,0,.28,.13,.08,.35,.08,.48,0l6.39-3.69,43.67,25.21-25.01,14.44s0,0,0,0l-8.53,4.92h0l-.24,.14-43.67-25.21,17.21-9.94c.13-.08,.13-.2,0-.28Zm72.65,15.92h4.7l1.09,.63s.02,.06,.06,.08l6.61,3.82h-31.73s7.34-4.24,7.34-4.24l5.47,3.16c.13,.08,.35,.08,.48,0l5.97-3.45Zm36.84,19.32h-14.92l-7.84-4.53h16.16l7.22,4.17-.62,.36Zm-.68,.39l-6.78,3.91-6.78-3.91h13.55Zm-56.1-14.79h33.09s7.88,4.55,7.88,4.55h-16.18s-7.09-4.1-7.09-4.1c-.13-.08-.35-.08-.48,0-.13,.08-.13,.2,0,.28l6.6,3.81h-31.68s7.84-4.54,7.84-4.54Zm49.5,9.47h-16.16l-7.86-4.54h16.18s7.84,4.54,7.84,4.54Zm-58.03-4.55l33.04,.02,7.86,4.54h-48.78l7.88-4.55Zm-8.57,4.95h50.15l7.84,4.53h-65.83s7.84-4.53,7.84-4.53Zm56.82,14.37h-49.26s-7.84-4.53-7.84-4.53h64.94s-7.84,4.53-7.84,4.53Zm-8.53,4.92h-32.21l-7.84-4.53h47.89l-7.84,4.53Zm-8.57,4.95l-15.12-.02-7.84-4.53h30.84l-7.88,4.55Zm-7.54,4.35l-6.9-3.98,13.75,.02-6.86,3.96Zm33.16-19.14h-66.31s-7.7-4.45-7.7-4.45l.14-.08h67.2s7.26,4.19,7.26,4.19l-.58,.34Zm21.86,11.39l-20.31-11.72,7.36-4.25h0l.72-.42,20.31,11.72-8.08,4.67Zm-46.15-36.02h-3.34l1.67-.96,1.67,.96Zm-2.15-1.24l-2.25,1.3h0l-5.83,3.37-5.47-3.16-43.91-25.35,8.08-4.67,43.67,25.21-4.54,2.62c-.13,.08-.13,.2,0,.28,.13,.08,.35,.08,.48,0l4.54-2.62,5.23,3.02Zm-73.67-65.52l5.35,4.34,.88-.51,75.04,43.32s0,0,0,0l-.88,.51,7.48,3.06-19.42,11.21-43.67-25.21,8.61-4.97c.13-.08,.13-.2,0-.28s-.35-.08-.48,0l-8.61,4.97-43.71-25.24,19.42-11.21Zm-24.93,14.12c.13,.08,.35,.08,.48,0l4.54-2.62,43.71,25.24-8.08,4.67-43.95-25.38-5.44-3.14s.01-.03,.02-.04l8.04-4.64,5.23,3.02-4.54,2.62c-.13,.08-.13,.2,0,.28Zm-17.01-63.08l31.57,18.23-.84,.49,7.44,3.09-49.45,28.55-10.17-21.99,19.81-11.44c.13-.08,.13-.2,0-.28s-.35-.08-.48,0l-19.95,11.52c-.09,.05-.12,.12-.09,.19l6.12,13.23-11.38,6.57c-.09,.05-.12,.12-.09,.19,.02,.03,.05,.06,.09,.09,.04,.02,.09,.04,.15,.05l15.15,2.35-7.22,4.17h0s-3.54,2.04-3.54,2.04l-.6-.35s0,0,0,0l-8.52-4.92h0l-8.57-4.95s0,0,0,0l-8.52-4.92s0,0,0,0l-8.53-4.92s0,0,0,0l-8.53-4.92s0,0,0,0l-1.13-.65,19.74-11.4h0l3.74-2.16h0l18.82-10.87h0l18.74-10.82,5.39,4.32,.84-.49Zm-11.94,50.45l-14.58-2.26,10.68-6.17,3.9,8.43Zm-40.28-28.29h-31.08s-7.84-4.53-7.84-4.53h38.93l.38,.22s.09,.02,.14,.03l3.44,1.99-3.96,2.29Zm-64.2-26.5l-.88-.51h0l6.68-3.85,.88,.51,5.31-4.32,27.63,15.95-19.46,11.24-27.63-15.95,7.48-3.07Z"/>
  <path class="cls-2" d="M441.25,72.9c-.64-.37-1.34-.55-2.13-.57-.78-.01-1.45,.14-1.99,.46-.31,.18-.54,.39-.68,.64-.14,.25-.16,.52-.05,.8-.66-.39-1.09-.73-1.31-1.02-.21-.29-.28-.57-.21-.83,.05-.2,.21-.37,.47-.52,.32-.19,.71-.28,1.17-.27,.28,0,.61,.08,1.01,.23l.75-.51c-.58-.26-1.19-.38-1.82-.36-.63,.02-1.2,.19-1.73,.49-.7,.4-1.01,.87-.91,1.41,.11,.61,.81,1.29,2.09,2.03,1.15,.66,2.19,1.02,3.12,1.06,.93,.04,1.74-.14,2.42-.53,.4-.23,.66-.49,.78-.78,.12-.29,.1-.59-.08-.9-.18-.31-.48-.59-.89-.83Zm-.49,2.13c-.24,.14-.53,.23-.88,.27-.35,.05-.71,.03-1.09-.05-.38-.08-.71-.2-.99-.36-.43-.25-.65-.52-.66-.82,0-.3,.17-.56,.54-.77,.37-.22,.81-.32,1.32-.3,.51,.01,.99,.15,1.45,.42,.48,.28,.73,.57,.76,.87,.03,.3-.13,.56-.47,.75Z"/>
  <path class="cls-2" d="M445.59,72.89l-.93-.54-.93,.54,.93,.54,.46-.27c.27,.16,.43,.31,.5,.44,.06,.13,.05,.27-.05,.41l.58,.07c.15-.22,.18-.42,.09-.61-.09-.19-.3-.39-.65-.58Z"/>
  <path class="cls-2" d="M442.21,67.13c-.53,.3-.82,.64-.87,1.02-.05,.38,.14,.75,.59,1.13l.96-.39c-.34-.27-.5-.52-.49-.75,.01-.24,.18-.45,.49-.63,.32-.19,.68-.28,1.08-.28,.4,0,.75,.08,1.05,.25,.38,.22,.52,.46,.42,.73-.1,.27-.32,.5-.67,.7-.03,.02-.08,.04-.14,.07l.63,.47c.17-.17,.33-.3,.49-.39,.38-.22,.81-.33,1.3-.33,.49,0,.92,.11,1.3,.32,.39,.23,.59,.49,.59,.8,0,.31-.19,.57-.57,.79-.32,.19-.7,.29-1.13,.3-.43,.01-.92-.09-1.48-.3l-.71,.53c.61,.29,1.28,.42,2.01,.4,.73-.02,1.39-.2,1.98-.54,.65-.37,.98-.8,1-1.28,.02-.48-.26-.88-.84-1.22-.43-.25-.9-.39-1.4-.43-.5-.04-1,.03-1.48,.2,.16-.25,.2-.49,.12-.72-.08-.23-.27-.42-.55-.59-.3-.17-.67-.29-1.1-.35-.43-.06-.88-.05-1.34,.04-.46,.09-.87,.23-1.24,.44Z"/>
  <path class="cls-1" d="M469.04,420.82c-3.78-2.18-9.92-2.18-13.69,0-1.92,1.11-2.98,2.62-2.98,4.25s1.06,3.13,2.98,4.25c1.89,1.09,4.37,1.64,6.85,1.64s4.96-.55,6.85-1.64c1.92-1.11,2.98-2.62,2.98-4.25s-1.06-3.13-2.98-4.25Zm-.5,7.63c-3.5,2.02-9.19,2.02-12.69,0-1.6-.93-2.48-2.13-2.48-3.38s.88-2.46,2.48-3.38c3.5-2.02,9.19-2.02,12.69,0,1.6,.93,2.48,2.13,2.48,3.38s-.88,2.46-2.48,3.38Z"/>
  <path class="cls-1" d="M521.64,451.13c-3.77-2.18-9.92-2.18-13.69,0-1.92,1.11-2.98,2.62-2.98,4.25s1.06,3.13,2.98,4.25c1.89,1.09,4.37,1.64,6.85,1.64s4.96-.55,6.85-1.64c1.92-1.11,2.98-2.62,2.98-4.25s-1.06-3.13-2.98-4.25Zm-.5,7.63c-3.5,2.02-9.19,2.02-12.69,0-1.6-.93-2.48-2.13-2.48-3.38s.88-2.46,2.48-3.38c1.75-1.01,4.05-1.52,6.35-1.52s4.6,.51,6.35,1.52c1.6,.93,2.48,2.13,2.48,3.38s-.88,2.46-2.48,3.38Z"/>
  <path class="cls-1" d="M560.64,345.12c-12.39,7.14-19.24,16.67-19.31,26.82-.01,1.6,.17,3.19,.49,4.76,0,.04,.01,.07,.02,.1,1.28,6.05,5.02,11.77,10.94,16.77,.04,.04,.08,.08,.13,.11,2.09,1.75,4.42,3.41,7.03,4.96,0,0,0,0,0,0l.69,.41c12.76,7.35,29.51,11.03,46.26,11.03s33.51-3.68,46.26-11.03c.24-.13,.47-.27,.7-.41,0,0,0,0,0,0,2.6-1.54,4.93-3.2,7.01-4.95,.03-.01,.05-.04,.07-.06,5.96-5.01,9.73-10.75,11.01-16.83,.01-.04,.02-.07,.02-.11,.32-1.57,.5-3.15,.49-4.75-.07-10.15-6.92-19.68-19.31-26.82-25.51-14.71-67.02-14.71-92.53,0Zm93,52.48c-10.92-8.53-28.35-13.62-46.73-13.62s-35.82,5.09-46.73,13.62c-2.46-1.48-4.68-3.06-6.66-4.73-3.63-5.41-4.67-11.28-3.01-16.99,2.4-8.26,10.16-15.61,21.83-20.69,20.36-8.85,48.79-8.86,69.15,0,11.67,5.08,19.42,12.42,21.83,20.69,1.66,5.7,.62,11.57-3.01,16.99-1.98,1.66-4.2,3.24-6.66,4.73Zm-5.69,.27c-11.38,5.65-25.78,8.73-41.05,8.73s-29.67-3.08-41.05-8.73c10.37-6.56,25.31-10.38,41.05-10.38s30.68,3.83,41.05,10.38Zm14.78-7.18c2.46-4.88,3-10.04,1.54-15.08-2.49-8.55-10.44-16.13-22.39-21.32-20.59-8.96-49.36-8.96-69.95,0-11.95,5.2-19.9,12.77-22.39,21.32-1.47,5.04-.93,10.2,1.54,15.08-4.38-4.3-7.17-9.06-8.24-14.04,4.04-18.5,31.54-32.44,64.07-32.44s60.03,13.94,64.07,32.44c-1.07,4.98-3.86,9.74-8.24,14.05Zm8.74-18.74c0,.77-.05,1.53-.12,2.3-5.72-17.85-32.74-31.04-64.45-31.04s-58.73,13.19-64.45,31.04c-.08-.76-.13-1.53-.12-2.3,.06-9.78,6.74-19,18.81-25.96,25.23-14.55,66.29-14.55,91.53,0,12.07,6.96,18.75,16.18,18.81,25.96Z"/>
  <path class="cls-1" d="M690.8,369.48c3.7,2.14,8.56,3.2,13.42,3.2,4.86,0,9.72-1.07,13.42-3.2,3.68-2.12,5.7-4.98,5.7-8.03s-2.03-5.91-5.7-8.03c-7.4-4.27-19.43-4.27-26.83,0-3.68,2.12-5.7,4.98-5.7,8.03s2.03,5.91,5.7,8.03Zm.5-15.2c3.56-2.06,8.24-3.08,12.92-3.08s9.35,1.03,12.92,3.08c3.36,1.94,5.2,4.48,5.2,7.17s-1.85,5.23-5.2,7.17c-7.12,4.11-18.71,4.11-25.83,0-3.36-1.94-5.2-4.48-5.2-7.17s1.85-5.23,5.2-7.17Z"/>
  <path class="cls-1" d="M611.83,307.99c-3.68,2.12-5.7,4.98-5.7,8.03,0,3.06,2.03,5.91,5.7,8.03,3.7,2.13,8.56,3.2,13.42,3.2s9.72-1.07,13.42-3.2c3.68-2.12,5.7-4.98,5.7-8.03s-2.03-5.91-5.7-8.03c-7.4-4.27-19.43-4.27-26.83,0Zm31.54,8.03c0,2.68-1.85,5.23-5.2,7.17-7.12,4.11-18.71,4.11-25.83,0-3.36-1.94-5.2-4.48-5.2-7.17,0-2.68,1.85-5.23,5.2-7.17,7.12-4.11,18.71-4.11,25.83,0,3.36,1.94,5.2,4.48,5.2,7.17Z"/>
  <path class="cls-1" d="M745.12,357.39l-115.74-66.69c-.46-.26-.97-.4-1.5-.4h-15.83c-.53,0-1.04,.14-1.5,.4l-134.79,77.63c-.93,.54-1.5,1.53-1.5,2.6v19.6l-19.91,11.49-17-9.84c-.46-.27-.98-.4-1.5-.4s-1.04,.13-1.5,.4l-18.42,10.63c-.93,.54-1.5,1.53-1.5,2.6v54.72c0,1.07,.57,2.06,1.5,2.6l115.74,66.69c.46,.26,.97,.4,1.5,.4h15.82c.53,0,1.04-.14,1.5-.4l194.62-112.11c.93-.54,1.5-1.53,1.5-2.6v-54.72c0-1.07-.57-2.06-1.5-2.6Zm-195.62,168.57v-44.51l17.34-9.97v20.39s0,.02,0,.03c0,.03,.01,.06,.02,.1,0,.03,.02,.06,.03,.09,0,0,0,.02,0,.03,0,.01,.02,.02,.03,.03,.04,.05,.08,.09,.13,.13,.02,.01,.03,.03,.05,.03,.07,.03,.14,.06,.22,.06s.16-.02,.23-.06c0,0,.02,0,.02,0l41.49-23.86s.02-.02,.03-.03c.05-.03,.09-.08,.13-.12,.01-.02,.03-.03,.04-.05,.04-.07,.06-.14,.06-.23v-20.97l133.79-77.13v44.51l-193.62,111.54Zm193.62-157.2l-134.29,77.42-130.56-75.24,133.92-77.13h15.56l115.37,66.47v8.48Zm-175.29,101.83c0-.08-.02-.15-.06-.23h0s0,0,0,0c-.04-.07-.1-.12-.16-.16,0,0-.01-.01-.02-.02l-112.2-64.7,21.88-12.63,130.56,75.16-39.99,22.99v-20.39s0-.01,0-.02Zm-90.06-78.6v-20.18l130.56,75.24v20.1l-130.56-75.16Zm-59.84,23.43l114.74,66.03v44.51l-114.74-66.11v-44.43Zm115.37,65.24l-115.37-66.4v-8.55l17.92-10.34,18.16,10.47c.06,.06,.13,.1,.21,.12l112.1,64.64-17.48,10.05h-15.56Zm.37,1h14.83v45.16h-14.83v-45.16Z"/>
</svg>