<?xml version="1.0" encoding="UTF-8"?>
<svg id="Layer_1" data-name="Layer 1" xmlns="http://www.w3.org/2000/svg" viewBox="0 0 930.55 559.11">
  <defs>
    <style>
      .cls-1 {
        fill: #fff;
      }

      .cls-2 {
        opacity: .3;
      }
    </style>
  </defs>
  <g class="cls-2">
    <path class="cls-1" d="M362.25,114.49l3.96,2.28c.12,.07,.31,.07,.42,0s.12-.18,0-.24l-3.96-2.28c-.12-.07-.31-.07-.42,0s-.12,.18,0,.24Z"/>
    <path class="cls-1" d="M368.21,117.93l3.96,2.29c.12,.07,.31,.07,.42,0s.12-.18,0-.24l-3.96-2.29c-.12-.07-.31-.07-.42,0s-.12,.18,0,.24Z"/>
    <path class="cls-1" d="M380.12,124.81l3.99,2.3c.12,.07,.31,.07,.42,0s.12-.18,0-.24l-3.99-2.3c-.12-.07-.31-.07-.42,0s-.12,.18,0,.24Z"/>
    <path class="cls-1" d="M386.09,128.25l3.96,2.28c.12,.07,.31,.07,.42,0s.12-.18,0-.24l-3.96-2.28c-.12-.07-.31-.07-.42,0s-.12,.18,0,.24Z"/>
    <path class="cls-1" d="M392.05,131.7l3.96,2.29c.12,.07,.31,.07,.42,0s.12-.18,0-.24l-3.96-2.29c-.12-.07-.31-.07-.42,0s-.12,.18,0,.24Z"/>
    <path class="cls-1" d="M397.99,135.12l3.99,2.3c.12,.07,.31,.07,.42,0s.12-.18,0-.24l-3.99-2.3c-.12-.07-.31-.07-.42,0s-.12,.18,0,.24Z"/>
    <path class="cls-1" d="M409.93,142.01l3.96,2.28c.12,.07,.31,.07,.42,0s.12-.18,0-.24l-3.96-2.28c-.12-.07-.31-.07-.42,0s-.12,.18,0,.24Z"/>
    <path class="cls-1" d="M415.9,145.46l3.96,2.29c.12,.07,.31,.07,.42,0s.12-.18,0-.24l-3.96-2.29c-.12-.07-.31-.07-.42,0s-.12,.18,0,.24Z"/>
    <path class="cls-1" d="M296.13,69.67l55.56-32.07,1.55-.9c.12-.07,.12-.18,0-.24l-21.19-12.23c-.12-.07-.31-.07-.42,0l-1.55,.9-55.77,32.2-16.71,9.65c-.12,.07-.12,.18,0,.24l237.38,137.05c.12,.07,.31,.07,.42,0l74.03-42.74c.12-.07,.12-.18,0-.24l-21.19-12.23c-.12-.07-.31-.07-.42,0l-57.11,32.97-145.83-84.2,7.91,.19h.06s-.13-.63-.13-.63l31.89-2.31,56.76,32.77c.12,.07,.31,.07,.42,0s.12-.18,0-.24l-51.45-29.7,34.16-5.28,38.94,22.48c.12,.07,.31,.07,.42,0s.12-.18,0-.24l-39.06-22.55c-.08-.04-.19-.06-.29-.04l-34.32,5.31,3.57-7.68c.04-.09-.05-.19-.21-.21-.16-.02-.32,.03-.37,.12l-3.57,7.68-4.68-2.7c-.07-.04-.16-.06-.25-.05l-32.03,2.32-.13-.62v-.03s-7.83,1.33-7.83,1.33l-48.55-28.03Zm61.56,41.95c-.12,.07-.12,.18,0,.24l2.58,1.49c.12,.07,.31,.07,.42,0s.12-.18,0-.24l-2.37-1.37,4.91-2.84,16.25,9.38-4.91,2.84c-.12-.07-.31-.07-.42,0s-.12,.18,0,.24l3.99,2.3c.12,.07,.31,.07,.42,0s.12-.18,0-.24l-3.57-2.06,4.91-2.84,3,1.73-4.17,2.41c-.12,.07-.12,.18,0,.24s.31,.07,.42,0l4.17-2.41,26.1,15.07-4.17,2.41c-.12,.07-.12,.18,0,.24s.31,.07,.42,0l4.17-2.41,3,1.73-4.91,2.84-3.57-2.06c-.12-.07-.31-.07-.42,0s-.12,.18,0,.24l3.99,2.3c.12,.07,.31,.07,.42,0s.12-.18,0-.24l4.91-2.84,16.25,9.38-4.91,2.84-2.33-1.35c-.12-.07-.31-.07-.42,0s-.12,.18,0,.24l2.54,1.47c.12,.07,.31,.07,.42,0l5.12-2.96,23.8,13.74-4.17,2.41c-.12,.07-.12,.18,0,.24s.31,.07,.42,0l4.17-2.41,.85,.49-4.17,2.41c-.12,.07-.12,.18,0,.24s.31,.07,.42,0l4.17-2.41,10.7,6.18-4.17,2.41c-.12,.07-.12,.18,0,.24s.31,.07,.42,0l4.17-2.41,.88,.51-4.17,2.41c-.12,.07-.12,.18,0,.24s.31,.07,.42,0l4.17-2.41,43.58,25.16-16.28,9.4-43.58-25.16,4.17-2.41c.12-.07,.12-.18,0-.24s-.31-.07-.42,0l-4.17,2.41-.88-.51,4.17-2.41c.12-.07,.12-.18,0-.24s-.31-.07-.42,0l-4.17,2.41-10.7-6.18,4.17-2.41c.12-.07,.12-.18,0-.24s-.31-.07-.42,0l-4.17,2.41-.85-.49,4.17-2.41c.12-.07,.12-.18,0-.24s-.31-.07-.42,0l-4.17,2.41-43.9-25.35,4.17-2.41c.12-.07,.12-.18,0-.24s-.31-.07-.42,0l-4.17,2.41-26.1-15.07,4.17-2.41c.12-.07,.12-.18,0-.24s-.31-.07-.42,0l-4.17,2.41-50.68-29.26,4.17-2.41c.12-.07,.12-.18,0-.24s-.31-.07-.42,0l-4.17,2.41-.85-.49,4.17-2.41c.12-.07,.12-.18,0-.24s-.31-.07-.42,0l-4.17,2.41-10.7-6.18,4.17-2.41c.12-.07,.12-.18,0-.24s-.31-.07-.42,0l-4.17,2.41-.88-.51,4.17-2.41c.12-.07,.12-.18,0-.24s-.31-.07-.42,0l-4.17,2.41-43.58-25.16,16.28-9.4,20.98,12.11,22.6,13.05-4.17,2.41c-.12,.07-.12,.18,0,.24s.31,.07,.42,0l4.17-2.41,.88,.51-4.17,2.41c-.12,.07-.12,.18,0,.24s.31,.07,.42,0l4.17-2.41,10.7,6.18-4.17,2.41c-.12,.07-.12,.18,0,.24s.31,.07,.42,0l4.17-2.41,.85,.49-4.17,2.41c-.12,.07-.12,.18,0,.24s.31,.07,.42,0l4.17-2.41,30.59,17.66-5.12,2.96Zm-6.43-74.27l-55.56,32.07-20.77-11.99,55.56-32.07,1.34-.78,20.77,11.99-1.34,.78Zm196.76,112.05l20.77,11.99-56.9,32.85-20.77-11.99,56.9-32.85Z"/>
    <path class="cls-1" d="M372.77,126.35c.12,.07,.31,.07,.42,0l3.99-2.3c.12-.07,.12-.18,0-.24s-.31-.07-.42,0l-3.99,2.3c-.12,.07-.12,.18,0,.24Z"/>
    <path class="cls-1" d="M399.3,141.67c.12,.07,.31,.07,.42,0l3.99-2.3c.12-.07,.12-.18,0-.24s-.31-.07-.42,0l-3.99,2.3c-.12,.07-.12,.18,0,.24Z"/>
    <path class="cls-1" d="M444.89,167.99c.12,.07,.31,.07,.42,0l3.99-2.3c.12-.07,.12-.18,0-.24s-.31-.07-.42,0l-3.99,2.3c-.12,.07-.12,.18,0,.24Z"/>
    <path class="cls-1" d="M456.02,174.42c.12,.07,.31,.07,.42,0l3.99-2.3c.12-.07,.12-.18,0-.24s-.31-.07-.42,0l-3.99,2.3c-.12,.07-.12,.18,0,.24Z"/>
    <path class="cls-1" d="M313.68,87.14c-.12-.07-.31-.07-.42,0l-3.99,2.3c-.12,.07-.12,.18,0,.24s.31,.07,.42,0l3.99-2.3c.12-.07,.12-.18,0-.24Z"/>
    <path class="cls-1" d="M324.81,93.56c-.12-.07-.31-.07-.42,0l-3.99,2.3c-.12,.07-.12,.18,0,.24s.31,.07,.42,0l3.99-2.3c.12-.07,.12-.18,0-.24Z"/>
    <path class="cls-1" d="M443.62,167.26c.12,.07,.31,.07,.42,0l3.99-2.3c.12-.07,.12-.18,0-.24s-.31-.07-.42,0l-3.99,2.3c-.12,.07-.12,.18,0,.24Z"/>
    <path class="cls-1" d="M457.33,175.17c.12,.07,.31,.07,.42,0l3.99-2.3c.12-.07,.12-.18,0-.24s-.31-.07-.42,0l-3.99,2.3c-.12,.07-.12,.18,0,.24Z"/>
    <path class="cls-1" d="M312.38,86.39c-.12-.07-.31-.07-.42,0l-3.99,2.3c-.12,.07-.12,.18,0,.24s.31,.07,.42,0l3.99-2.3c.12-.07,.12-.18,0-.24Z"/>
    <path class="cls-1" d="M326.08,94.3c-.12-.07-.31-.07-.42,0l-3.99,2.3c-.12,.07-.12,.18,0,.24s.31,.07,.42,0l3.99-2.3c.12-.07,.12-.18,0-.24Z"/>
    <path class="cls-1" d="M208.24,154.44c3.18,1.84,8.36,1.84,11.55,0s3.18-4.83,0-6.67-8.36-1.84-11.55,0-3.18,4.83,0,6.67Zm11.12-6.42c2.95,1.7,2.95,4.47,0,6.18s-7.75,1.7-10.7,0-2.95-4.47,0-6.18,7.75-1.7,10.7,0Z"/>
    <path class="cls-1" d="M205.81,154.43c.34,.28,.72,.54,1.14,.78,1.44,.83,3.28,1.39,5.33,1.6,2.63,.27,5.29-.07,7.48-.96,4.52-1.83,5.62-5.44,2.46-8.05-.1-.08-.28-.1-.42-.04s-.17,.16-.07,.24c2.98,2.46,1.94,5.85-2.31,7.57-2.06,.83-4.56,1.15-7.04,.9-2.48-.25-4.63-1.04-6.08-2.24-1.44-1.19-2-2.63-1.56-4.06,.44-1.43,1.81-2.68,3.87-3.51,.14-.05,.17-.16,.07-.24-.1-.08-.28-.1-.42-.04-2.19,.89-3.65,2.21-4.12,3.73-.46,1.52,.12,3.06,1.66,4.32Z"/>
    <path class="cls-1" d="M221.25,87.94c-.12,.07-.12,.18,0,.24s.31,.07,.42,0l3.28-1.9,4.69,3.82,.82-.47,225.62,130.26-.82,.47,6.61,2.71-3.28,1.9c-.12,.07-.12,.18,0,.24s.31,.07,.42,0l3.35-1.94h0s0,0,0,0l29.67-17.13c.12-.07,.12-.18,0-.24s-.31-.07-.42,0l-29.6,17.09-4.69-3.77-.03-.03-.78,.45L230.9,89.38l.78-.45-6.58-2.73,29.6-17.09c.12-.07,.12-.18,0-.24s-.31-.07-.42,0l-29.67,17.13h0s0,0,0,0l-3.35,1.94Z"/>
    <path class="cls-1" d="M341.72,148.84c-.82,.28-1.47,.54-1.93,.81l.74,.42c.62-.32,1.25-.57,1.89-.77,.89-.29,1.84-.52,2.86-.68,1.02-.17,1.92-.26,2.69-.27l.56-.32-3.78-2.18-.69,.4,2.86,1.65c-.78,.03-1.64,.13-2.57,.29-.93,.16-1.8,.38-2.62,.65Z"/>
    <path class="cls-1" d="M346.15,153.32l5.87-3.39-.46-.27c-.38,.08-.86,.11-1.43,.09-.57-.02-1.14-.09-1.73-.21l-.69,.4c.3,.08,.67,.15,1.11,.22,.45,.07,.84,.1,1.19,.11l-4.57,2.64,.71,.41Z"/>
    <polygon class="cls-1" points="349.21 155.08 350.03 154.61 349.22 154.14 348.4 154.62 349.21 155.08"/>
    <path class="cls-1" d="M352.96,157.25l5.87-3.39-.46-.27c-.38,.08-.86,.11-1.43,.09-.57-.02-1.14-.09-1.73-.21l-.69,.4c.3,.08,.67,.15,1.11,.22,.45,.07,.84,.1,1.19,.11l-4.57,2.64,.71,.41Z"/>
    <path class="cls-1" d="M328.73,22.54c.12-.07,.12-.18,0-.24l-29.7-17.15h0s0,0,0,0l-3.35-1.94c-.12-.07-.31-.07-.42,0s-.12,.18,0,.24l3.28,1.9-6.6,2.71-.05,.02,.82,.47-62.23,35.93-.82-.47-4.69,3.82-3.28-1.9c-.12-.07-.31-.07-.42,0s-.12,.18,0,.24l3.35,1.94h0s0,0,0,0l29.7,17.15c.12,.07,.31,.07,.42,0s.12-.18,0-.24l-29.63-17.11,6.53-2.71,.05-.02-.78-.45,62.23-35.93,.78,.45,4.76-3.82,29.63,17.11c.12,.07,.31,.07,.42,0Z"/>
    <path class="cls-1" d="M251.7,29.57l3.86-2.23-.69-.4-2.87,1.66c-.05-.12-.08-.25-.08-.4,0-.14,.02-.44,.09-.9,.08-.55,.11-.96,.07-1.23-.03-.27-.11-.5-.23-.68-.13-.19-.31-.35-.54-.48-.46-.27-1.01-.39-1.66-.38-.64,0-1.24,.17-1.79,.49s-.86,.66-.9,1.02c-.04,.36,.2,.7,.7,1.05l.81-.38c-.36-.21-.54-.43-.54-.67,0-.24,.17-.46,.52-.66,.32-.19,.69-.28,1.09-.29,.4,0,.75,.07,1.03,.23s.44,.39,.52,.7c.08,.3,.06,.79-.05,1.45-.07,.43-.08,.78-.05,1.06,.04,.27,.14,.51,.3,.72,.1,.13,.24,.24,.41,.33Z"/>
    <path class="cls-1" d="M252.2,24.47l.81-.38c-.36-.21-.54-.43-.54-.67,0-.24,.17-.46,.52-.66,.32-.19,.69-.28,1.09-.29,.4,0,.75,.07,1.03,.23s.44,.39,.52,.7c.08,.3,.06,.79-.05,1.45-.07,.43-.08,.78-.05,1.06,.04,.27,.14,.51,.3,.72,.1,.13,.24,.24,.41,.33l3.86-2.23-.69-.4-2.87,1.66c-.05-.12-.08-.25-.08-.4,0-.14,.02-.44,.09-.9,.08-.55,.11-.96,.07-1.23-.03-.27-.11-.5-.23-.68-.13-.19-.31-.35-.54-.48-.46-.27-1.01-.39-1.66-.38-.64,0-1.24,.17-1.79,.49s-.86,.66-.9,1.02c-.04,.36,.2,.7,.7,1.05Z"/>
    <polygon class="cls-1" points="260.45 23.58 261.27 24.05 262.08 23.58 261.26 23.11 260.45 23.58"/>
    <path class="cls-1" d="M259,20.54l.81-.38c-.36-.21-.54-.43-.54-.67,0-.24,.17-.46,.52-.66,.32-.19,.69-.28,1.09-.29,.4,0,.75,.07,1.03,.23s.44,.39,.52,.7c.08,.3,.06,.79-.06,1.46-.07,.43-.08,.78-.05,1.06,.04,.27,.14,.51,.3,.72,.1,.13,.24,.24,.41,.33l3.86-2.23-.69-.4-2.87,1.66c-.05-.12-.08-.25-.08-.4,0-.14,.03-.44,.09-.9,.08-.55,.11-.96,.07-1.23-.03-.27-.11-.5-.23-.68-.13-.19-.31-.35-.54-.48-.46-.27-1.01-.39-1.66-.38-.64,0-1.24,.17-1.79,.49s-.86,.66-.9,1.02c-.04,.36,.2,.7,.7,1.05Z"/>
    <path class="cls-1" d="M513.06,323.78c.12-.07,.12-.18,0-.24l-3.32-1.92h0s0,0,0,0l-108.82-62.83,25.22-14.56c.12-.07,.12-.18,0-.24l-60.99-35.21,44.76,1.15c.17,0,.3-.07,.31-.17,0-.1-.12-.18-.29-.18l-45.42-1.16L209.95,119.18l-21.19-12.23c-.12-.07-.31-.07-.42,0l-64.85,37.44-29.7,17.15-9.11,5.26-55.73,32.18c-.12,.07-.12,.18,0,.24l21.19,12.23,29.46,17.01L3.41,272.44h0s0,0,0,0l-3.32,1.92c-.12,.07-.12,.18,0,.24s.31,.07,.42,0l3.25-1.88,4.69,3.77,.03,.03,.78-.45,174.76,100.9-.78,.45,6.58,2.73-3.25,1.88c-.12,.07-.12,.18,0,.24s.31,.07,.42,0l3.32-1.92h0s0,0,0,0l23.52-13.58,3.35-1.94h0s0,0,0,0l13.17-7.6,3.32-1.92h0s0,0,0,0l29.7-17.15c.12-.07,.12-.18,0-.24s-.31-.07-.42,0l-29.63,17.11-4.69-3.82-.82,.47-39.13-22.59,.82-.47-6.61-2.71,32.74-18.9,50.68,29.26c.12,.07,.31,.07,.42,0l25.25-14.58,49.23,28.43-6.65,2.73,.82,.47-13.67,7.89-.82-.47-4.69,3.82-46.16-26.65c-.12-.07-.31-.07-.42,0s-.12,.18,0,.24l49.55,28.61,25.78,14.89h0s0,0,0,0l3.32,1.91,27.09,15.64h0s0,0,0,0l3.32,1.92c.12,.07,.31,.07,.42,0s.12-.18,0-.24l-3.25-1.88,6.53-2.71,.05-.02-.78-.45,122.17-70.53,.78,.45,4.76-3.82,3.25,1.88c.12,.07,.31,.07,.42,0Zm-264.61-27.73c3.17-1.95,3.66-4.99,.9-7.27-.1-.08-.28-.1-.42-.04-.14,.05-.17,.16-.07,.24,2.59,2.14,2.14,4.99-.83,6.83l-.89-.51c2.96-1.85,2.89-4.74-.22-6.53s-8.37-1.84-11.55,0-3.17,4.66-.25,6.51l-.88,.51c-.28-.18-.55-.36-.8-.56-2.98-2.46-1.94-5.85,2.31-7.57,.14-.05,.17-.16,.07-.24-.1-.08-.28-.1-.42-.04-4.52,1.83-5.62,5.44-2.46,8.05,.27,.22,.56,.42,.87,.61l-18.16,10.49-64-36.95,76.47-44.15c18.45,10.55,48.26,10.56,66.74,.04l60.29,34.81-15.47,8.93c-.12,.07-.12,.18,0,.24l20.98,12.11-29.28,16.9-20.98-12.11c-.12-.07-.31-.07-.42,0l-39.17,22.61-22.36-12.91Zm-4.23-1.96l2.08,1.2c-2.91,1.56-7.44,1.56-10.33-.02l2.01-1.16c.12-.07,.12-.18,0-.24s-.31-.07-.42,0l-2,1.15c-2.69-1.71-2.61-4.37,.25-6.02s7.75-1.7,10.7,0,2.94,4.33,.22,6.04l-2.07-1.2c-.12-.07-.31-.07-.42,0s-.12,.18,0,.24Zm-8.68,1.42c3.13,1.71,8.04,1.72,11.18,.02l.88,.51c-.33,.18-.67,.35-1.05,.5-3.73,1.51-8.72,1.23-11.9-.52l.89-.51Zm-7.16-108.71c6.66-3.85,14.85-6.28,23.45-7.33l2.97,8.42-1.05,.13h-.06s2.92,4.39,2.92,4.39c-.03,0-.05,.02-.07,.04-4.37,.53-8.52,1.77-11.91,3.73-.49,.28-.95,.58-1.39,.88l-2.24-1.4-.71,.53-15.56-7.01c1.13-.82,2.33-1.62,3.65-2.38Zm16.67,9.62c3.27-1.89,7.27-3.09,11.49-3.62l.84,2.4c-3.42,.44-6.67,1.42-9.33,2.95-.51,.29-.98,.6-1.42,.92-.05,0-.09,.01-.13,.03l-2.85-1.79c.44-.31,.91-.6,1.4-.89Zm3.43,1.98c2.57-1.48,5.72-2.43,9.02-2.86l3.5,9.95-13.84-6.24c.41-.29,.85-.58,1.32-.85Zm16.12,9.57l9.74,5.63c-2.56,1.43-5.66,2.34-8.91,2.74l-3.52-10.01,3,1.35c-.11-.02-.23,0-.31,.04-.12,.07-.12,.18,0,.24Zm.51-.2l10.78,4.86c-.35,.25-.72,.49-1.11,.72l-9.66-5.58Zm-2.7-1.65l17.53,.45c-.21,2.05-1.44,4.07-3.69,5.78l-13.84-6.24Zm-.7-.36l-3.62-10.29c5.8-.63,12.02,.35,16.49,2.93,3.73,2.15,5.52,5,5.38,7.83l-18.26-.47Zm-1.15-.03l-17.44-.45c.22-2.04,1.44-4.05,3.67-5.76l13.77,6.21Zm.65,.36l3.63,10.32c-5.69,.6-11.77-.36-16.2-2.85l9.67-5.59c.12-.07,.12-.18,0-.24s-.31-.07-.42,0l-9.67,5.58c-3.55-2.14-5.26-4.92-5.13-7.69l18.12,.47Zm-13,7.71c4.58,2.58,10.86,3.56,16.74,2.95l.84,2.4c-7.23,.77-14.97-.43-20.59-3.61l3-1.73Zm18.18,5.28l-.84-2.4c3.37-.42,6.57-1.36,9.22-2.84l3,1.73c-3.26,1.83-7.22,3-11.37,3.51Zm8.8-5.48c.45-.27,.88-.55,1.28-.84l2.88,1.83c-.37,.25-.76,.5-1.16,.74l-3-1.73Zm1.41-.94c2.4-1.79,3.71-3.91,3.93-6.07l4.24,.11c-.25,2.52-1.72,5.02-4.41,7.15l-3.76-1.19Zm3.96-6.42c.14-2.92-1.71-5.87-5.56-8.09-4.62-2.67-11.05-3.68-17.03-3.02l-.84-2.4c7.33-.81,15.21,.42,20.88,3.69,4.73,2.73,6.99,6.35,6.8,9.93l-4.24-.11Zm-34.17-7.05s-.03,.05-.02,.07c-2.34,1.77-3.63,3.87-3.85,6l-4.24-.11c.25-2.51,1.71-4.99,4.38-7.12l3.73,1.16Zm-3.9,6.41c-.14,2.86,1.62,5.74,5.3,7.95l-3,1.73c-4.55-2.71-6.73-6.27-6.54-9.79l4.24,.11Zm2.3,10.17c5.82,3.3,13.85,4.53,21.32,3.69l.27,4.65v.03s1.11-.13,1.11-.13l1.65,4.64s.04,.06,.08,.09c.07,.04,.17,.06,.27,.05,.16-.02,.27-.11,.23-.2l-1.65-4.64,1.05-.13h.06s-2.87-4.38-2.87-4.38c4.34-.51,8.48-1.72,11.87-3.62l16.25,9.38c-18.24,10.39-47.68,10.38-65.89-.04l16.25-9.38Zm33.82-.21c.4-.24,.78-.48,1.14-.73l2.11,1.34,.73-.52,6.46,2.92c.13,.06,.32,.05,.42-.03,.1-.07,.09-.18-.05-.24l-6.46-2.92,.7-.5-2.78-.88c2.74-2.18,4.23-4.73,4.48-7.3l22.95,.59c-.56,6.42-5.05,12.74-13.46,17.65l-16.25-9.38Zm6.78-9.21c.2-3.68-2.12-7.39-6.97-10.19-5.84-3.37-13.99-4.63-21.54-3.77-.03,0-.05-.01-.08-.02l-.31-4.66v-.03s-1.11,.13-1.11,.13l-2.97-8.43c14.82-1.68,30.8,.78,42.26,7.4,9.59,5.54,14.14,12.89,13.66,20.16l-22.94-.59Zm-45.47-9.91l-.69,.51,2.9,.9c-2.71,2.17-4.2,4.7-4.45,7.27l-22.94-.59c.47-5.36,3.69-10.64,9.63-15.1l15.56,7.01Zm-2.27,9.03c-.2,3.61,2.04,7.26,6.71,10.05l-16.25,9.38c-9.41-5.52-13.88-12.81-13.41-20.02l22.94,.59Zm72.54,81.22l20.77,11.99-38.96,22.49-20.77-11.99,38.96-22.49Zm50.89-5.4l-20.77-11.99,15.26-8.81,20.77,11.99-15.26,8.81Zm-5.09-21.04l23.31-13.46,20.77,11.99-23.31,13.46-20.77-11.99Zm23.73-13.7l25.01-14.44,20.77,11.99-25.01,14.44-20.77-11.99Zm24.58-14.68l-25.01,14.44-22.36-12.91c3.2-1.95,3.7-5.01,.93-7.29-.1-.08-.28-.1-.42-.04-.14,.05-.17,.16-.07,.24,2.6,2.15,2.14,5.01-.86,6.85l-.89-.51c2.99-1.85,2.93-4.75-.19-6.55s-8.36-1.84-11.55,0-3.18,4.83,0,6.67,8.11,1.83,11.31,.13l.88,.51c-.32,.17-.65,.34-1.02,.48-4.25,1.72-10.13,1.12-13.11-1.34-1.44-1.19-2-2.63-1.56-4.06,.44-1.43,1.81-2.68,3.87-3.51,.14-.05,.17-.16,.07-.24-.1-.08-.28-.1-.42-.04-2.19,.89-3.65,2.21-4.12,3.73s.13,3.06,1.66,4.32c.34,.28,.72,.54,1.14,.78,1.44,.83,3.28,1.39,5.33,1.6,2.63,.27,5.29-.07,7.48-.96,.39-.16,.75-.34,1.1-.52l22.37,12.91-23.31,13.46-60.29-34.81c8.57-5,13.12-11.45,13.64-17.99l7.83,.97h.06s.04-.65,.04-.65l47.42,1.21,40.05,23.12Zm-51.6-.43l2.07,1.2c-2.96,1.57-7.59,1.53-10.46-.13s-2.95-4.47,0-6.18,7.75-1.7,10.7,0,2.94,4.35,.19,6.06l-2.08-1.2c-.12-.07-.31-.07-.42,0s-.12,.18,0,.24ZM209.32,119.3l-64.42,37.19-20.77-11.99,64.42-37.19,20.77,11.99Zm-124.21,47.74l8.9-5.14,20.77,11.99-8.9,5.14-55.52,32.05-20.77-11.99,55.52-32.05Zm-34.33,44.29l55.52-32.05,9.11-5.26c.12-.07,.12-.18,0-.24l-20.98-12.11,29.28-16.9,20.98,12.11c.12,.07,.31,.07,.42,0l64.63-37.32,153.9,88.85-46.77-1.2,.04-.64v-.03s-7.99,.57-7.99,.57c.53-7.4-4.08-14.9-13.84-20.53-11.61-6.7-27.79-9.2-42.8-7.5l-10.01-28.42c-.03-.09-.19-.15-.35-.14-.16,.02-.27,.11-.23,.2l10.01,28.42c-8.71,1.05-17,3.52-23.75,7.42-1.33,.77-2.56,1.58-3.7,2.41l-41.59-18.75c-.13-.06-.32-.05-.42,.03-.09,.07-.08,.17,.02,.23,0,0,.02,0,.03,.01l41.59,18.75c-6.04,4.53-9.3,9.9-9.76,15.34-.04,.02-.06,.04-.08,.07l-7.93-.99h-.06s-.04,.65-.04,.65l-8.2-.2c-.17,0-.31,.07-.31,.17,0,.05,.03,.1,.09,.13,.05,.03,.12,.05,.2,.05l8.2,.2-.04,.64v.03s8.07-.57,8.07-.57c.01,.03,.04,.05,.07,.07,0,0,.02,0,.03,0-.5,7.31,4.03,14.72,13.58,20.32l-76.47,44.15-70.78-40.86,18.16-10.48c3.38,1.85,8.67,2.14,12.62,.54,4.52-1.83,5.62-5.44,2.46-8.05-.1-.08-.28-.1-.42-.04s-.17,.16-.07,.24c2.98,2.46,1.94,5.85-2.31,7.57-3.72,1.5-8.68,1.23-11.86-.5l.89-.51c3.2,1.73,8.23,1.69,11.34-.11s3.19-4.83,0-6.67c0,0-.02,0-.02-.01l4.53-3.88,.03-.03-1-.27,10.56-13.29,60.66,35.02c.12,.07,.31,.07,.42,0s.12-.18,0-.24l-60.96-35.2c-.07-.04-.17-.06-.27-.05s-.18,.05-.22,.1l-10.74,13.52-.98-.26h-.05s-2.14,4.49-2.14,4.49c-3.2-1.74-8.24-1.71-11.37,.1s-3.17,4.68-.22,6.53l-.88,.51c-.3-.18-.58-.38-.84-.59-2.98-2.46-1.94-5.85,2.31-7.57,.14-.05,.17-.16,.07-.24-.1-.08-.28-.1-.42-.04-2.19,.89-3.65,2.21-4.12,3.73s.12,3.06,1.66,4.32c.28,.23,.58,.44,.9,.63l-18.16,10.49-29.24-16.88Zm60.06-.64c2.95,1.7,2.95,4.48,0,6.18-2.88,1.67-7.53,1.7-10.5,.11l2-1.16c.12-.07,.12-.18,0-.24s-.31-.07-.42,0l-2,1.16c-2.72-1.71-2.65-4.38,.22-6.04s7.75-1.7,10.7,0Zm102.58,155.84l-23.45,13.54-4.69-3.82-.82,.47L9.69,275.82l.82-.47-6.61-2.71,76.11-43.94,70.78,40.86-49.31,28.47h0s0,0,0,0l-3.36,1.94c-.12,.07-.12,.18,0,.24s.31,.07,.42,0l3.28-1.9,4.69,3.81,.82-.47,103.56,59.79-.82,.47,6.61,2.71-3.28,1.9Zm-31.01-40.82h0s0,0,0,0l-3.32,1.92c-.12,.07-.12,.18,0,.24s.31,.07,.42,0l3.25-1.88,4.69,3.77,.03,.03,.78-.45,39.13,22.59-.78,.45,6.58,2.73-3.25,1.88-13.1,7.56-4.69-3.77-.03-.03-.78,.45-103.56-59.79,.78-.45-6.58-2.73,49.24-28.43,64,36.95-32.81,18.94Zm51.82-29.43c3.38,1.87,8.69,2.17,12.66,.56,.41-.17,.78-.35,1.13-.54l22.37,12.91-25.04,14.46-29.28-16.9,18.16-10.48Zm32.31,39.62l-20.77-11.99,25.04-14.46,20.77,11.99-25.04,14.46Zm53.08,30.61l-3.25-1.88,6.56-2.69,.05-.02-.82-.47,13.67-7.89,.82,.47,4.73-3.84,3.25,1.88c.12,.07,.31,.07,.42,0s.12-.18,0-.24l-3.32-1.92h0s0,0,0,0l-49.31-28.47,39.17-22.61,45.17-26.08,78.34,45.23-6.6,2.71-.05,.02,.82,.47-98.43,56.83-.82-.47-4.69,3.82-25.71-14.84Zm61.63,29.06l-.82-.47-4.69,3.82-27.02-15.6-3.25-1.87,6.53-2.71,.05-.02-.78-.45,98.43-56.83,.78,.45,4.76-3.82,3.25,1.87c.12,.07,.31,.07,.42,0s.12-.18,0-.24l-3.32-1.91h0s0,0,0,0l-78.41-45.27,23.31-13.46,108.75,62.79-6.6,2.71-.05,.02,.82,.47-122.17,70.53Z"/>
    <path class="cls-1" d="M435.45,359.88l-.65-.38-.78,.45-3.79-2.19-.59,.34,1.12,3.73,.65,.38,2.54-1.47,1.4,.81,.72-.41-1.4-.81,.78-.45Zm-3.98,1.55l-.81-2.58,2.64,1.52-1.83,1.06Z"/>
    <path class="cls-1" d="M439.97,357.49c-.28-.33-.77-.69-1.45-1.08-.58-.34-1.09-.58-1.52-.72-.43-.15-.84-.24-1.22-.29-.39-.05-.77-.04-1.14,.02-.36,.06-.7,.18-1.01,.36-.42,.24-.66,.52-.71,.81-.06,.29,.06,.6,.34,.93,.28,.32,.76,.68,1.45,1.08,1.1,.63,2.08,.98,2.95,1.04,.72,.05,1.37-.09,1.93-.41,.43-.25,.67-.52,.72-.81,.05-.3-.06-.61-.34-.93Zm-2.28,1.6c-.54-.06-1.29-.36-2.24-.91s-1.49-1-1.61-1.35c-.08-.27,.05-.5,.38-.7s.78-.26,1.32-.21c.54,.05,1.29,.35,2.25,.91s1.48,.99,1.57,1.3c.1,.31-.02,.56-.35,.75s-.77,.26-1.32,.21Z"/>
    <polygon class="cls-1" points="441.71 356.94 442.53 357.41 443.34 356.94 442.52 356.47 441.71 356.94"/>
    <path class="cls-1" d="M440.54,353.48l.69,.4c.14-.17,.27-.39,.38-.64,.11-.26,.18-.49,.19-.69l4.57,2.64,.71-.41-5.87-3.39-.46,.27c.13,.22,.19,.49,.16,.82-.04,.33-.16,.66-.37,1Z"/>
    <path class="cls-1" d="M395.59,347.4c-.37-.22-.78-.34-1.22-.38-.44-.03-.88,.03-1.31,.18,.15-.23,.19-.44,.12-.63-.07-.2-.24-.37-.5-.52s-.58-.25-.96-.31c-.38-.06-.77-.05-1.18,.03-.41,.08-.78,.2-1.09,.39-.46,.27-.71,.57-.75,.9-.05,.33,.12,.66,.51,.99l.85-.34c-.29-.23-.43-.45-.42-.66,0-.21,.15-.39,.43-.56s.6-.24,.95-.25c.35,0,.66,.07,.92,.22,.33,.19,.45,.41,.37,.64-.08,.24-.28,.44-.59,.62-.03,.02-.07,.04-.12,.06l.54,.41c.15-.14,.3-.26,.43-.33,.33-.19,.71-.29,1.14-.29,.42,0,.8,.09,1.13,.28,.35,.2,.52,.44,.52,.71,0,.27-.16,.5-.5,.69-.29,.17-.62,.26-.99,.27-.38,0-.82-.08-1.31-.27l-.63,.47c.54,.26,1.13,.37,1.78,.36,.64-.02,1.21-.18,1.73-.48,.57-.33,.86-.7,.88-1.11,.02-.42-.23-.78-.75-1.08Z"/>
    <path class="cls-1" d="M400.13,344.78c-.37-.22-.78-.34-1.22-.38-.44-.03-.88,.03-1.31,.18,.15-.23,.19-.44,.12-.63-.07-.2-.24-.37-.5-.52s-.58-.25-.96-.31c-.38-.06-.77-.05-1.18,.03-.41,.08-.78,.2-1.09,.39-.46,.27-.71,.57-.75,.9-.05,.33,.12,.66,.51,.99l.85-.34c-.29-.23-.43-.45-.42-.66,0-.21,.15-.39,.43-.56s.6-.24,.95-.25c.35,0,.66,.07,.92,.22,.33,.19,.45,.41,.37,.64-.08,.24-.28,.44-.59,.62-.03,.02-.07,.04-.12,.06l.54,.41c.15-.14,.3-.26,.43-.33,.33-.19,.71-.29,1.14-.29,.42,0,.8,.09,1.13,.28,.35,.2,.52,.44,.52,.71,0,.27-.16,.5-.5,.69-.29,.17-.62,.26-.99,.27-.38,0-.82-.08-1.31-.27l-.63,.47c.54,.26,1.13,.37,1.78,.36,.64-.02,1.21-.18,1.73-.48,.57-.33,.86-.7,.88-1.11,.02-.42-.23-.78-.75-1.08Z"/>
    <path class="cls-1" d="M319.92,355.28c-.29-.59-.44-1.11-.46-1.55l-.56-.32-3.78,2.18,.69,.4,2.86-1.65c.06,.45,.22,.94,.51,1.48,.28,.54,.65,1.04,1.13,1.51,.48,.48,.94,.85,1.4,1.12l.74-.42c-.54-.36-.99-.72-1.33-1.09-.5-.51-.89-1.06-1.19-1.65Z"/>
    <polygon class="cls-1" points="325.77 355.15 324.96 355.62 325.78 356.09 326.59 355.63 325.77 355.15"/>
    <path class="cls-1" d="M326.3,350.77l.65-.44c-.52-.23-1.05-.34-1.6-.32-.55,.02-1.06,.16-1.52,.43-.61,.35-.88,.77-.8,1.24,.1,.54,.71,1.13,1.84,1.78,1.01,.58,1.92,.89,2.73,.93,.82,.04,1.53-.12,2.13-.47,.35-.2,.58-.43,.69-.69,.11-.26,.08-.52-.07-.8-.15-.27-.41-.52-.78-.73-.56-.32-1.18-.49-1.87-.49-.69,0-1.28,.12-1.76,.4-.28,.16-.48,.35-.6,.57-.12,.22-.13,.45-.04,.7-.58-.34-.97-.64-1.15-.9-.19-.26-.25-.5-.19-.73,.05-.17,.19-.32,.41-.45,.29-.17,.63-.25,1.02-.24,.24,0,.54,.07,.89,.2Zm.14,1.3c.33-.19,.72-.28,1.17-.27,.45,.01,.87,.13,1.28,.37s.64,.5,.66,.76c.03,.27-.11,.49-.41,.66-.21,.12-.47,.2-.77,.24-.31,.04-.63,.03-.96-.04-.33-.07-.62-.18-.87-.32-.37-.22-.56-.46-.57-.72,0-.26,.15-.49,.47-.67Z"/>
    <path class="cls-1" d="M205.54,336.04l5.87-3.39-.46-.27c-.38,.08-.86,.11-1.43,.09-.57-.02-1.14-.09-1.73-.21l-.69,.4c.3,.08,.67,.15,1.11,.22,.45,.07,.84,.1,1.19,.11l-4.57,2.64,.71,.41Z"/>
    <path class="cls-1" d="M209.74,337.9c-.29-.17-.44-.36-.46-.58-.02-.22,.13-.46,.44-.7l-.82-.4c-.44,.31-.65,.65-.62,1.01,.04,.36,.33,.7,.86,1.01,.64,.37,1.39,.53,2.24,.48,.69-.05,1.3-.22,1.83-.53,.56-.32,.83-.69,.83-1.09,0-.41-.25-.76-.75-1.05-.39-.22-.88-.36-1.47-.42l1.89-.72,2.33,1.34,.68-.39-2.91-1.68-3.56,1.41,.59,.44c.27-.04,.55-.03,.84,.02,.29,.05,.56,.14,.79,.28,.37,.21,.55,.45,.53,.72,0,.27-.21,.52-.62,.76s-.9,.38-1.4,.39c-.5,.01-.92-.08-1.26-.28Z"/>
    <polygon class="cls-1" points="213.13 340.42 213.95 339.95 213.14 339.48 212.32 339.95 213.13 340.42"/>
    <path class="cls-1" d="M217.74,340.59c-.74-.04-1.35-.05-1.83-.03-.47,.02-.88,.08-1.24,.18-.22,.06-.42,.14-.58,.24l3.86,2.23,.69-.4-2.87-1.66c.21-.03,.44-.05,.69-.05,.25,0,.77,.02,1.56,.05,.95,.05,1.66,.06,2.13,.04,.47-.02,.87-.06,1.19-.13,.32-.07,.6-.18,.84-.31,.46-.27,.68-.58,.66-.96-.01-.37-.3-.71-.86-1.04s-1.15-.5-1.77-.52c-.62-.02-1.22,.11-1.82,.4l.66,.47c.36-.21,.75-.31,1.17-.31s.8,.1,1.14,.3c.32,.19,.49,.4,.5,.63,0,.23-.12,.43-.4,.59s-.67,.26-1.21,.3c-.52,.05-1.36,.04-2.52-.03Z"/>
    <path class="cls-1" d="M156.67,326.35c-.29-.17-.44-.36-.46-.57-.01-.22,.14-.47,.46-.75l-.81-.36c-.44,.31-.65,.65-.62,1.02,.03,.37,.31,.7,.83,1,.57,.33,1.21,.5,1.93,.51,.73,.01,1.35-.13,1.87-.43,.37-.22,.59-.45,.65-.71,.06-.25-.04-.51-.31-.75,.39,.08,.76,.11,1.09,.07,.34-.04,.64-.14,.9-.29s.44-.34,.53-.55c.1-.22,.08-.45-.06-.68-.13-.24-.35-.45-.67-.63-.46-.27-.98-.41-1.56-.44-.58-.03-1.15,.07-1.71,.3l.59,.49c.4-.17,.78-.25,1.14-.24,.36,0,.68,.09,.97,.25s.42,.34,.43,.55c0,.2-.12,.38-.39,.53-.33,.19-.7,.26-1.1,.21-.41-.05-.76-.16-1.07-.34-.03-.02-.07-.04-.1-.07l-.71,.31c.25,.09,.44,.17,.58,.25,.33,.19,.49,.41,.5,.66,0,.24-.16,.46-.49,.65-.35,.2-.76,.3-1.22,.3-.46,0-.86-.09-1.19-.29Z"/>
    <path class="cls-1" d="M161.15,329.5l.72,.41,1.4-.81,.78,.45,.65-.38-.78-.45,3.79-2.19-.59-.34-6.46,.65-.65,.38,2.54,1.47-1.4,.81Zm.22-2.24l4.47-.47-2.64,1.52-1.83-1.06Z"/>
    <polygon class="cls-1" points="165.42 331.02 164.61 330.55 163.79 331.02 164.6 331.49 165.42 331.02"/>
    <path class="cls-1" d="M168.02,332.9c-.29-.17-.44-.36-.46-.58-.02-.22,.13-.46,.44-.7l-.82-.4c-.44,.31-.65,.65-.62,1.01,.04,.36,.33,.7,.86,1.01,.64,.37,1.39,.53,2.24,.48,.69-.05,1.3-.22,1.83-.53,.56-.32,.83-.69,.83-1.09,0-.41-.25-.76-.75-1.05-.39-.22-.88-.36-1.47-.42l1.89-.72,2.33,1.34,.68-.39-2.91-1.68-3.56,1.41,.59,.44c.27-.04,.55-.03,.84,.02,.29,.05,.56,.14,.79,.28,.37,.21,.55,.45,.53,.72,0,.27-.21,.52-.62,.76-.43,.25-.9,.38-1.4,.39-.5,.01-.92-.08-1.26-.28Z"/>
    <path class="cls-1" d="M97.83,319.46c-.39-.22-.88-.36-1.47-.42l1.89-.72,2.33,1.34,.68-.39-2.91-1.68-3.56,1.41,.59,.44c.27-.04,.55-.03,.84,.02,.29,.05,.56,.14,.79,.28,.37,.21,.55,.45,.53,.72,0,.27-.21,.52-.62,.76-.43,.25-.9,.38-1.4,.39-.5,.01-.92-.08-1.26-.28-.29-.17-.44-.36-.46-.58-.02-.22,.13-.46,.44-.7l-.82-.4c-.44,.31-.65,.65-.62,1.01,.04,.36,.33,.7,.86,1.01,.64,.37,1.39,.53,2.24,.48,.69-.05,1.3-.22,1.83-.53,.56-.32,.83-.69,.83-1.09,0-.41-.25-.76-.75-1.05Z"/>
    <path class="cls-1" d="M102.37,322.08c-.39-.22-.88-.36-1.47-.42l1.89-.72,2.33,1.34,.68-.39-2.91-1.68-3.56,1.41,.59,.44c.27-.04,.55-.03,.84,.02,.29,.05,.55,.14,.79,.28,.37,.21,.54,.45,.53,.72,0,.27-.21,.52-.62,.76-.43,.25-.9,.38-1.4,.39-.5,.01-.92-.08-1.26-.28-.29-.17-.44-.36-.46-.58-.02-.22,.13-.46,.44-.7l-.82-.4c-.45,.31-.65,.65-.62,1.01,.04,.36,.33,.7,.86,1.01,.64,.37,1.39,.53,2.24,.48,.69-.05,1.3-.22,1.83-.53,.56-.32,.83-.69,.83-1.09,0-.41-.25-.76-.75-1.05Z"/>
    <polygon class="cls-1" points="101.38 325.98 102.19 326.45 103.01 325.98 102.2 325.51 101.38 325.98"/>
    <path class="cls-1" d="M111.67,325.51c-.11-.3-.35-.56-.73-.78-.52-.3-1.14-.45-1.85-.44-.71,0-1.37,.18-1.96,.53s-.87,.69-.89,1.09c-.01,.4,.22,.73,.71,1.01,.29,.17,.62,.28,1.01,.34,.4,.06,.78,.06,1.15,.02-.06,.04-.11,.07-.14,.09-.29,.17-.62,.32-.98,.44-.36,.12-.68,.21-.96,.24-.27,.03-.54,.04-.81,0-.26-.04-.51-.12-.73-.25-.26-.15-.4-.31-.41-.49-.02-.18,.1-.38,.37-.61l-.74-.36c-.41,.3-.59,.6-.56,.92,.03,.31,.29,.6,.75,.87,.43,.25,.92,.4,1.47,.45,.55,.05,1.13,0,1.73-.17,.61-.16,1.28-.45,2.02-.88s1.18-.78,1.4-1.09c.22-.31,.27-.62,.16-.92Zm-2.74,1.41c-.45,.01-.84-.08-1.17-.27s-.5-.42-.49-.69c.01-.26,.2-.5,.58-.72,.41-.24,.86-.36,1.35-.38,.5-.01,.91,.07,1.23,.25s.45,.4,.42,.67c-.02,.27-.23,.52-.64,.75s-.84,.36-1.29,.37Z"/>
    <path class="cls-1" d="M196.91,168c-.22-.19-.52-.38-.92-.56-.58-.27-1.22-.43-1.91-.49-.69-.06-1.37,0-2.05,.18-.67,.18-1.27,.47-1.79,.85-.34,.25-.59,.49-.74,.71-.14,.22-.24,.53-.3,.92l-1.45,.16,.14,.41,1.42-.15c.13,.3,.29,.53,.48,.7,.24,.22,.56,.42,.97,.6,.55,.25,1.17,.41,1.87,.47,.7,.07,1.39,.01,2.06-.17,.67-.18,1.27-.47,1.79-.86,.36-.27,.63-.53,.8-.8,.13-.2,.22-.47,.27-.8l1.46-.15-.15-.41-1.4,.14c-.14-.3-.32-.55-.53-.74Zm-6.4,.95c.15-.18,.35-.37,.63-.57,.69-.5,1.41-.79,2.17-.85,.77-.06,1.48,.05,2.12,.34,.29,.13,.5,.27,.65,.41,.14,.14,.27,.34,.37,.58l-6.2,.65c.08-.24,.17-.42,.27-.56Zm5.06,1.44c-.64,.48-1.36,.75-2.13,.83-.77,.07-1.48-.04-2.13-.33-.29-.13-.53-.28-.71-.44-.14-.14-.25-.31-.33-.52l6.19-.64c-.11,.38-.41,.75-.88,1.1Z"/>
    <path class="cls-1" d="M202.38,171.21c-.76,.09-1.59,.25-2.47,.47-.89,.23-1.71,.51-2.46,.84-.76,.33-1.35,.64-1.75,.93l.82,.37c.54-.36,1.11-.65,1.71-.89,.82-.35,1.72-.64,2.7-.88,.98-.24,1.85-.39,2.61-.46l.48-.36-4.21-1.9-.6,.44,3.18,1.43Z"/>
    <polygon class="cls-1" points="201.15 175.91 201.86 175.39 200.95 174.98 200.24 175.5 201.15 175.91"/>
    <path class="cls-1" d="M205.07,175.08c.06,.4,.36,.72,.9,.96,.32,.15,.68,.24,1.08,.27,.4,.03,.78,0,1.14-.07-.05,.05-.09,.08-.12,.1-.26,.19-.55,.36-.88,.51-.33,.15-.63,.25-.9,.31-.26,.06-.53,.08-.8,.06-.26-.02-.52-.08-.76-.2-.29-.13-.45-.28-.51-.46-.06-.18,.01-.39,.23-.63l-.81-.3c-.34,.33-.47,.64-.37,.95,.1,.31,.41,.58,.92,.81,.48,.22,.99,.33,1.55,.34,.56,0,1.12-.09,1.68-.29,.57-.2,1.18-.54,1.84-1.02,.62-.46,1-.86,1.15-1.18,.15-.33,.13-.63-.05-.92-.17-.29-.47-.53-.89-.73-.58-.26-1.23-.36-1.93-.31-.7,.06-1.31,.28-1.82,.66-.49,.37-.71,.75-.64,1.15Zm2.7-1.23c.5-.05,.93,0,1.28,.16,.34,.16,.53,.37,.56,.63,.03,.27-.12,.53-.48,.8-.36,.27-.76,.42-1.2,.46-.44,.04-.85-.02-1.21-.19-.37-.16-.58-.38-.63-.64-.05-.26,.09-.51,.42-.75,.35-.27,.77-.42,1.26-.47Z"/>
    <path class="cls-1" d="M211.43,177.36c.3,.02,.58,.1,.84,.22,.42,.18,.64,.41,.69,.67,.06,.27-.1,.53-.45,.8-.37,.27-.81,.43-1.3,.48-.49,.05-.93-.01-1.32-.19-.31-.15-.51-.33-.58-.55-.07-.22,.03-.47,.29-.73l-.89-.33c-.38,.34-.52,.69-.4,1.05,.11,.36,.47,.67,1.06,.94,.72,.32,1.5,.43,2.35,.31,.67-.09,1.24-.31,1.7-.64,.49-.36,.69-.74,.6-1.15-.09-.4-.41-.73-.97-.99-.43-.19-.95-.3-1.56-.32l1.73-.85,2.59,1.17,.59-.44-3.24-1.47-3.23,1.65,.67,.39c.26-.05,.54-.07,.84-.04Z"/>
    <path class="cls-1" d="M247.51,153c-.23,.27-.37,.51-.42,.71-.06,.25-.03,.52,.06,.82,.14,.39,.44,.74,.89,1.06,.46,.31,1.03,.52,1.75,.64,.72,.12,1.49,.13,2.32,.03,.58-.07,1.09-.17,1.52-.31,.34-.1,.7-.27,1.1-.51l1.3,.43,.35-.37-1.22-.41c.24-.29,.38-.55,.44-.78,.06-.23,.04-.48-.06-.77-.15-.42-.45-.78-.91-1.09-.46-.31-1.05-.52-1.78-.63-.71-.11-1.49-.12-2.33-.03-.54,.06-.99,.15-1.35,.27-.36,.12-.78,.31-1.26,.58l-1.28-.43-.36,.38,1.24,.41Zm4.37,2.63c-1.03,.12-1.88,.06-2.55-.17-.67-.24-1.09-.58-1.26-1.05-.07-.21-.08-.42-.03-.61,.04-.15,.15-.32,.31-.51l5.44,1.84c-.52,.25-1.16,.42-1.92,.5Zm-2.23-2.99c.32-.09,.69-.15,1.11-.2,1.09-.13,1.96-.07,2.62,.16,.66,.24,1.06,.59,1.22,1.05,.08,.21,.09,.39,.04,.55-.05,.16-.18,.36-.38,.59l-5.45-1.84c.32-.15,.6-.26,.83-.32Z"/>
    <path class="cls-1" d="M254.3,157.69c.31,.2,.6,.36,.87,.47l-6.33,.74,.2,.56,8.13-.96-.14-.37c-.39-.05-.81-.18-1.26-.38-.46-.2-.87-.44-1.24-.73l-.97,.11c.18,.16,.43,.34,.73,.54Z"/>
    <path class="cls-1" d="M250.42,161.32c-.47,.33-.62,.71-.47,1.16,.13,.34,.39,.61,.78,.79,.39,.19,.9,.31,1.53,.35,.63,.04,1.41,0,2.36-.1,.8-.1,1.43-.21,1.88-.33,.45-.13,.82-.27,1.1-.44s.47-.35,.58-.56c.11-.21,.13-.44,.04-.69-.12-.34-.38-.6-.77-.79-.4-.19-.91-.3-1.53-.35-.62-.05-1.41-.01-2.36,.1-1.52,.18-2.57,.46-3.14,.84Zm6.17-.28c.45,.11,.72,.3,.81,.56,.09,.27-.06,.52-.43,.75-.37,.23-1.23,.42-2.56,.58-1.32,.15-2.24,.17-2.75,.04-.51-.12-.81-.32-.9-.58-.09-.27,.05-.51,.43-.74,.38-.23,1.24-.42,2.57-.58,1.32-.16,2.27-.17,2.83-.03Z"/>
    <path class="cls-1" d="M379.57,206.83c.69,.02,1.35-.06,1.99-.24,.64-.18,1.14-.45,1.51-.83,.37-.38,.57-.81,.62-1.29,.02-.34-.03-.65-.17-.92-.09-.21-.29-.46-.6-.74l1.05-.63-.53-.28-1.01,.58c-.41-.2-.8-.35-1.17-.43-.37-.09-.81-.14-1.32-.15-.74-.02-1.43,.07-2.05,.25-.63,.18-1.13,.46-1.5,.83-.37,.37-.57,.8-.6,1.29-.03,.32,.02,.59,.13,.83,.11,.23,.33,.51,.67,.84l-1.04,.62,.53,.29,.99-.59c.41,.19,.77,.33,1.09,.41,.42,.09,.88,.14,1.4,.16Zm-2.59-1.86c-.07-.19-.09-.42-.07-.67,.04-.64,.35-1.11,.91-1.42,.57-.31,1.25-.46,2.07-.44,.36,.01,.68,.05,.94,.12,.26,.06,.56,.18,.89,.36l-4.41,2.6c-.17-.21-.28-.39-.33-.54Zm.79,.89l4.39-2.61c.29,.35,.42,.75,.39,1.2-.05,.61-.35,1.07-.9,1.39s-1.24,.47-2.07,.45c-.38-.01-.72-.06-1.03-.14-.25-.06-.5-.16-.77-.3Z"/>
    <path class="cls-1" d="M385.25,205.85c-.32,.19-.56,.4-.71,.62-.1,.12-.15,.25-.16,.4l5.46,.14,.04-.56-4.06-.1c.12-.11,.27-.21,.46-.31,.18-.1,.58-.29,1.2-.57,.76-.34,1.3-.61,1.63-.8,.33-.2,.57-.39,.72-.56,.15-.18,.24-.37,.26-.55,.02-.37-.19-.69-.63-.96-.44-.27-1.06-.41-1.84-.44-.79-.02-1.43,.09-1.9,.31-.48,.22-.77,.55-.88,1l1.04,.09c.02-.29,.18-.52,.49-.69,.31-.16,.7-.24,1.19-.23,.46,.01,.83,.1,1.11,.27,.28,.17,.4,.37,.39,.59-.01,.22-.18,.45-.52,.69-.34,.24-.98,.56-1.91,.96-.59,.26-1.05,.5-1.37,.7Z"/>
    <path class="cls-1" d="M393.61,207.18c.6,.02,1.11-.06,1.52-.24,.42-.18,.74-.44,.96-.78,.23-.34,.36-.78,.41-1.34,.03-.48-.01-.86-.12-1.14-.11-.28-.26-.51-.46-.71-.21-.2-.48-.35-.8-.46-.32-.11-.7-.18-1.14-.19-.6-.01-1.11,.07-1.52,.25-.41,.17-.73,.43-.96,.76-.23,.34-.36,.79-.4,1.35-.07,.89,.15,1.54,.68,1.95,.41,.34,1.02,.52,1.82,.54Zm-1.46-2.47c.06-.78,.27-1.31,.64-1.6,.29-.22,.68-.32,1.14-.31,.48,.02,.87,.16,1.17,.42,.31,.26,.43,.79,.37,1.57-.06,.78-.27,1.3-.61,1.55-.34,.25-.74,.37-1.21,.36-.47-.01-.86-.15-1.15-.42-.3-.27-.41-.79-.35-1.57Z"/>
    <polygon class="cls-1" points="397.36 201.1 398.96 201.14 398.89 202.08 399.58 202.1 399.64 201.17 401.24 201.21 401.28 200.82 399.68 200.78 399.74 199.85 399.06 199.83 399 200.76 397.39 200.72 397.36 201.1"/>
    <polygon class="cls-1" points="403.21 202.27 402.38 202.25 402.33 202.72 403.17 202.74 403.21 202.27"/>
    <path class="cls-1" d="M404.99,200.22l-.04,.4c.23-.04,.49-.1,.77-.19,.29-.09,.52-.18,.71-.27l-.21,2.66,.73,.02,.27-3.41h-.46c-.14,.13-.36,.28-.67,.43-.32,.15-.68,.27-1.09,.37Z"/>
    <path class="cls-1" d="M399.61,205.57c-.04,.63,.12,1.1,.49,1.4,.29,.24,.73,.37,1.31,.38,.43,.01,.8-.05,1.09-.18,.3-.13,.52-.31,.67-.56,.16-.24,.25-.56,.29-.95,.02-.34,0-.61-.08-.81-.08-.2-.19-.37-.33-.51-.14-.14-.33-.26-.56-.33-.24-.08-.51-.12-.82-.13-.42-.01-.78,.05-1.08,.17-.3,.12-.53,.31-.69,.55-.16,.24-.25,.57-.28,.97Zm2-1.35c.35,0,.62,.11,.84,.3,.21,.19,.29,.57,.26,1.13-.04,.56-.19,.92-.43,1.1-.24,.18-.52,.26-.85,.25-.33,0-.61-.11-.83-.3-.21-.19-.3-.56-.26-1.12,.04-.56,.19-.94,.46-1.15,.21-.16,.48-.23,.81-.22Z"/>
    <path class="cls-1" d="M134.3,194.17l-.65,.38,2.54,1.47-1.4,.81,.72,.41,1.4-.81,.78,.45,.65-.38-.78-.45,3.79-2.19-.59-.34-6.46,.65Zm2.54,1.47l-1.83-1.06,4.47-.47-2.64,1.52Z"/>
    <path class="cls-1" d="M137.61,198.45l2.78-.32-.12,.33-.45,1.26,.88,.51,.66-2.2,3.46-.31-.86-.49-1.72,.16c-.24,.02-.5,.05-.78,.08,.05-.11,.11-.26,.17-.44l.35-.95-.9-.52-.6,2-3.75,.37,.87,.5Z"/>
    <path class="cls-1" d="M149.36,199.49l-3.29,3.84,.7,.4,6.59-1.84-4.88,2.82,.75,.43,5.84-3.37-1.04-.6-5.46,1.54c-.55,.15-.97,.28-1.25,.36,.13-.15,.33-.37,.59-.66l2.75-3.19-1.16-.67-5.84,3.37,.75,.43,4.98-2.87Z"/>
    <path class="cls-1" d="M152.46,207.03l.72,.41,1.4-.81,.78,.45,.65-.38-.78-.45,3.79-2.19-.59-.34-6.46,.65-.65,.38,2.54,1.47-1.4,.81Zm.22-2.24l4.47-.47-2.64,1.52-1.83-1.06Z"/>
    <path class="cls-1" d="M157.56,209.97l2.78-.32-.12,.33-.45,1.26,.88,.51,.66-2.2,3.46-.31-.86-.49-1.72,.16c-.23,.02-.5,.05-.78,.08,.05-.11,.11-.26,.17-.44l.35-.95-.9-.52-.6,2-3.75,.37,.87,.5Z"/>
    <path class="cls-1" d="M165.12,214.45c.43,.25,.89,.39,1.4,.41,.51,.03,1.05-.04,1.61-.2,.56-.16,1.19-.44,1.88-.84,.58-.34,1-.63,1.24-.88,.26-.25,.42-.48,.51-.71,.09-.23,.07-.45-.04-.66-.11-.21-.31-.4-.63-.58-.42-.24-.89-.38-1.41-.41-.51-.03-1.05,.03-1.61,.2-.56,.16-1.18,.44-1.88,.84-1.1,.63-1.7,1.2-1.79,1.7-.09,.42,.15,.79,.72,1.12Zm4.16-3.32c.47-.05,.87,.03,1.2,.22s.46,.45,.36,.76c-.09,.31-.61,.75-1.57,1.3s-1.71,.85-2.25,.91c-.54,.06-.98-.01-1.31-.2s-.45-.44-.36-.76c.1-.31,.63-.74,1.58-1.3s1.74-.86,2.35-.93Z"/>
    <polygon class="cls-1" points="169.89 216.14 169.08 215.67 168.26 216.15 169.07 216.61 169.89 216.14"/>
    <path class="cls-1" d="M175.54,216.26c-.93,.16-1.8,.38-2.62,.65-.82,.28-1.47,.54-1.93,.81l.74,.42c.62-.31,1.25-.57,1.89-.77,.89-.29,1.84-.51,2.86-.68,1.02-.17,1.92-.25,2.69-.27l.56-.32-3.78-2.18-.69,.4,2.86,1.65c-.78,.03-1.63,.13-2.57,.29Z"/>
    <path class="cls-1" d="M177.77,219.1c.38-.22,.71-.36,.99-.43,.28-.07,.56-.09,.84-.06,.28,.03,.52,.11,.73,.23,.27,.16,.38,.31,.34,.47-.05,.16-.23,.33-.54,.52l-2.75,1.59,.72,.41,2.46-1.42c.43-.25,.85-.38,1.24-.38,.4,0,.75,.08,1.04,.25,.17,.1,.27,.2,.31,.32,.05,.11,.03,.22-.06,.32-.08,.1-.25,.23-.54,.4l-2.67,1.54,.72,.41,2.91-1.68c.48-.28,.72-.55,.73-.81,0-.27-.2-.52-.62-.76-.54-.31-1.22-.42-2.04-.33,.14-.18,.18-.37,.11-.56-.07-.19-.26-.37-.57-.55-.28-.16-.6-.27-.95-.32-.34-.06-.69-.06-1.03-.02l.6-.35-.64-.37-4.23,2.44,.72,.41,2.2-1.27Z"/>
    <path class="cls-1" d="M184.56,223.02c.38-.22,.71-.36,.99-.43,.28-.07,.56-.09,.84-.06,.28,.03,.52,.11,.73,.23,.27,.16,.38,.31,.34,.47-.05,.16-.23,.33-.54,.52l-2.75,1.59,.72,.41,2.46-1.42c.43-.25,.85-.38,1.24-.38,.4,0,.75,.08,1.04,.25,.17,.1,.27,.2,.31,.32,.05,.11,.03,.22-.06,.32-.08,.1-.25,.23-.54,.4l-2.67,1.54,.72,.41,2.91-1.68c.48-.28,.72-.55,.73-.81,0-.27-.2-.52-.62-.76-.54-.31-1.22-.42-2.04-.33,.14-.18,.18-.37,.11-.56-.07-.19-.26-.37-.57-.55-.28-.16-.6-.27-.95-.32-.34-.06-.69-.06-1.03-.02l.6-.35-.64-.37-4.23,2.44,.72,.41,2.2-1.27Z"/>
    <path class="cls-1" d="M370.16,1.97l-35.21,20.33c-.12,.07-.12,.18,0,.24s.31,.07,.42,0L370.51,2.25l4.66,3.79,.03,.03,.82-.47,9.46,5.46-.82,.47,6.61,2.71-35.14,20.29c-.12,.07-.12,.18,0,.24s.31,.07,.42,0l35-20.21,48.91,28.24c.12,.07,.31,.07,.42,0s.12-.18,0-.24l-48.91-28.24,3.11-1.79c.12-.07,.12-.18,0-.24s-.31-.07-.42,0l-3.25,1.87-4.69-3.77-.03-.03-.78,.45-9.46-5.46,.78-.45-6.57-2.73,3.25-1.87c.12-.07,.12-.18,0-.24s-.31-.07-.42,0l-3.32,1.91h0s0,0,0,0Z"/>
    <path class="cls-1" d="M419.14,26.47l-2.87-1.66c.21-.03,.44-.05,.69-.05,.25,0,.77,.01,1.56,.05,.95,.05,1.66,.06,2.13,.04,.47-.02,.87-.06,1.19-.13,.32-.07,.6-.18,.84-.31,.46-.27,.68-.58,.66-.96-.01-.37-.3-.71-.86-1.04s-1.15-.5-1.77-.52c-.62-.02-1.22,.11-1.82,.4l.66,.47c.36-.21,.75-.31,1.17-.31,.41,0,.8,.1,1.14,.3,.32,.19,.49,.4,.5,.63,0,.23-.12,.43-.4,.59s-.67,.26-1.21,.3c-.52,.05-1.36,.04-2.52-.03-.74-.04-1.35-.05-1.83-.03-.47,.02-.88,.08-1.24,.18-.22,.06-.42,.14-.58,.24l3.86,2.23,.69-.4Z"/>
    <path class="cls-1" d="M419.81,27.65l2.78-.32-.12,.33-.45,1.26,.88,.51,.66-2.2,3.46-.31-.86-.49-1.72,.16c-.23,.02-.5,.05-.78,.08,.05-.11,.11-.26,.17-.44l.35-.95-.9-.52-.6,2-3.75,.37,.87,.5Z"/>
    <path class="cls-1" d="M427.46,32.19c.35,.2,.74,.33,1.19,.4,.45,.06,.91,.05,1.38-.04,.47-.09,.89-.24,1.26-.45,.56-.32,.84-.68,.86-1.08,.02-.4-.21-.74-.69-1.01-.28-.16-.6-.28-.98-.35-.37-.07-.78-.07-1.21-.02,.59-.34,1.11-.56,1.55-.66,.45-.11,.87-.15,1.26-.11,.29,.03,.55,.11,.78,.24,.29,.17,.43,.36,.41,.59-.01,.14-.13,.31-.34,.52l.76,.38c.4-.3,.59-.61,.55-.92-.04-.32-.29-.61-.75-.88-.61-.35-1.33-.51-2.14-.46-.93,.06-1.96,.41-3.09,1.06-1.01,.58-1.54,1.11-1.61,1.58-.06,.47,.21,.88,.81,1.23Zm2.04-2.18c.46,0,.85,.09,1.17,.27s.49,.42,.47,.67c-.02,.26-.23,.5-.63,.74s-.86,.37-1.32,.38c-.46,.02-.84-.06-1.14-.23-.21-.12-.35-.27-.42-.45-.07-.18-.04-.37,.07-.55,.12-.19,.31-.36,.56-.5,.37-.22,.79-.33,1.25-.33Z"/>
    <polygon class="cls-1" points="432.13 33.83 431.32 33.36 430.51 33.83 431.31 34.3 432.13 33.83"/>
    <path class="cls-1" d="M434.73,35.7c-.29-.17-.44-.36-.46-.57-.01-.22,.14-.47,.46-.75l-.81-.36c-.44,.31-.65,.65-.62,1.02,.03,.37,.31,.7,.83,1,.57,.33,1.21,.5,1.93,.51,.73,.01,1.35-.13,1.87-.43,.37-.22,.59-.45,.65-.71,.06-.25-.04-.51-.31-.75,.39,.08,.76,.11,1.1,.07,.34-.04,.64-.14,.9-.29s.44-.34,.53-.55c.1-.22,.08-.45-.06-.68-.13-.24-.35-.45-.67-.63-.46-.27-.98-.41-1.56-.44-.58-.03-1.15,.07-1.71,.3l.59,.49c.4-.17,.78-.25,1.14-.24,.36,0,.68,.09,.97,.25s.42,.35,.43,.55c0,.2-.12,.38-.39,.53-.33,.19-.7,.26-1.1,.21-.41-.05-.76-.16-1.07-.34-.03-.02-.07-.04-.1-.07l-.71,.31c.25,.09,.44,.17,.58,.25,.33,.19,.49,.41,.5,.66,0,.24-.16,.46-.49,.65-.35,.2-.76,.3-1.22,.3-.46,0-.86-.09-1.19-.29Z"/>
    <path class="cls-1" d="M439.27,38.33c-.29-.17-.44-.36-.46-.58-.02-.22,.13-.46,.44-.7l-.82-.4c-.44,.31-.65,.65-.62,1.01,.04,.36,.33,.7,.86,1.01,.64,.37,1.39,.53,2.24,.48,.69-.05,1.3-.22,1.83-.53,.56-.32,.83-.69,.83-1.09,0-.41-.25-.76-.75-1.05-.39-.22-.88-.36-1.47-.42l1.89-.72,2.33,1.34,.68-.39-2.91-1.68-3.56,1.41,.59,.43c.27-.04,.55-.03,.84,.02,.29,.05,.56,.14,.79,.28,.37,.21,.55,.45,.53,.72,0,.27-.21,.52-.62,.76-.43,.25-.9,.38-1.4,.39-.5,.01-.92-.08-1.26-.28Z"/>
    <path class="cls-1" d="M498.3,205.88c-.12,.07-.12,.18,0,.24l29.7,17.15h0s0,0,0,0l3.36,1.94c.12,.07,.31,.07,.42,0s.12-.18,0-.24l-3.29-1.9,6.56-2.69,.05-.02-.82-.47,4.94-2.85,.82,.47,4.73-3.84,3.29,1.9c.12,.07,.31,.07,.42,0s.12-.18,0-.24l-3.36-1.94h0s0,0,0,0l-29.7-17.15c-.12-.07-.31-.07-.42,0s-.12,.18,0,.24l29.63,17.11-6.56,2.73-.05,.02,.78,.45-4.94,2.85-.78-.45-4.73,3.79-29.63-17.11c-.12-.07-.31-.07-.42,0Z"/>
    <path class="cls-1" d="M529.89,212.56l-2.91,1.68,2.44,2.06,.75-.34c-.06-.16-.05-.32,.03-.48,.08-.17,.24-.32,.48-.46,.37-.21,.78-.31,1.25-.31,.47,0,.91,.12,1.31,.36,.43,.25,.66,.52,.68,.81,.02,.29-.14,.53-.49,.73-.29,.17-.63,.26-1.01,.27-.39,.01-.79-.07-1.21-.25l-.69,.47c.54,.26,1.13,.37,1.76,.36,.63-.02,1.21-.19,1.75-.5,.64-.37,.92-.8,.83-1.3-.08-.4-.38-.75-.91-1.06-.56-.32-1.19-.48-1.89-.48-.7,0-1.31,.14-1.82,.44-.39,.22-.63,.51-.74,.85l-1.25-1.09,2.33-1.34-.68-.39Z"/>
    <path class="cls-1" d="M336.68,162l-4.06,2.34c-.23,.14-.23,.35,0,.49s.61,.13,.85,0l8.34-4.81c.23-.14,.23-.35,0-.49s-.61-.13-.85,0l-4.06,2.35-6.6-5.32-.03-.03-1.21,.7-8.3-4.79c-.12-.07-.31-.07-.42,0s-.12,.18,0,.24l8.3,4.79-1.24,.72,9.29,3.81Z"/>
    <path class="cls-1" d="M464.5,69.44l8.3,4.79-1.21,.7,9.26,3.83-4.06,2.35c-.23,.14-.23,.35,0,.49s.61,.13,.85,0l8.34-4.81c.23-.14,.23-.35,0-.49s-.61-.13-.85,0l-4.06,2.34-6.6-5.37-1.24,.72-8.3-4.79c-.12-.07-.31-.07-.42,0s-.12,.18,0,.24Z"/>
    <path class="cls-1" d="M321.21,169.32l3.49,2.01-1.55,2.02,1.26,.73,4.93-6.79-1.2-.69-11.54,2.97,1.18,.68,3.44-.93Zm4.57-1.22c.72-.19,1.41-.41,2.05-.66-.33,.34-.7,.78-1.13,1.34l-1.45,1.84-2.82-1.63,3.36-.89Z"/>
    <path class="cls-1" d="M490.43,71.62l3.49,2.01-1.55,2.02,1.26,.73,4.93-6.79-1.2-.69-11.54,2.97,1.18,.68,3.44-.93Zm4.57-1.22c.72-.19,1.41-.41,2.05-.66-.33,.34-.7,.78-1.13,1.34l-1.45,1.84-2.82-1.63,3.36-.89Z"/>
    <path class="cls-1" d="M790.25,248.11l3.49,2.01-1.55,2.02,1.26,.73,4.93-6.79-1.2-.69-11.54,2.97,1.18,.68,3.44-.93Zm4.57-1.22c.72-.19,1.41-.41,2.05-.66-.33,.34-.7,.78-1.13,1.34l-1.45,1.84-2.82-1.63,3.36-.89Z"/>
    <polygon class="cls-1" points="800.47 252.85 797.32 251.04 796.29 251.63 799.44 253.45 800.47 252.85"/>
    <path class="cls-1" d="M801.91,254.84l3.49,2.01-1.55,2.02,1.26,.73,4.93-6.79-1.2-.69-11.54,2.97,1.18,.68,3.44-.93Zm4.57-1.22c.72-.19,1.41-.41,2.05-.66-.33,.34-.7,.78-1.13,1.34l-1.45,1.84-2.82-1.63,3.36-.89Z"/>
    <path class="cls-1" d="M808.62,264.47l.74,.42c.69-1.71,1.94-3.09,3.77-4.14,.72-.41,1.51-.78,2.38-1.09,.7-.25,1.43-.47,2.19-.64,.48-.11,1.35-.26,2.59-.45l-.74-.42c-1.66,.14-3.14,.38-4.44,.74-1.12,.31-2.12,.73-3.03,1.25-1.03,.59-1.83,1.28-2.4,2.06-.56,.77-.91,1.53-1.07,2.27Z"/>
    <path class="cls-1" d="M819.06,266.53l-4.09-2.36c.3-.04,.63-.06,.99-.07,.35,0,1.1,.02,2.23,.08,1.36,.06,2.38,.08,3.04,.06,.67-.02,1.24-.08,1.69-.19,.46-.11,.87-.26,1.2-.45,.66-.38,.97-.83,.94-1.36-.02-.53-.43-1.02-1.22-1.48s-1.63-.7-2.52-.73c-.89-.04-1.75,.15-2.61,.56l.96,.67c.52-.3,1.08-.45,1.66-.45,.59,0,1.14,.15,1.63,.43,.46,.27,.7,.57,.72,.89,.02,.33-.18,.61-.59,.85-.39,.22-.96,.37-1.71,.43-.75,.06-1.95,.05-3.61-.04-1.06-.06-1.93-.08-2.6-.05-.67,.03-1.26,.12-1.78,.26-.31,.08-.59,.2-.83,.34l5.52,3.19,.98-.57Z"/>
    <polygon class="cls-1" points="826.95 265.24 825.78 264.57 824.61 265.24 825.78 265.92 826.95 265.24"/>
    <polygon class="cls-1" points="822.08 268.06 820.91 267.38 819.74 268.06 820.91 268.73 822.08 268.06"/>
    <path class="cls-1" d="M831.78,267.47l-6.53,3.77,1.02,.59,8.38-4.84-.66-.38c-.54,.11-1.22,.15-2.03,.12-.81-.03-1.63-.13-2.47-.3l-.99,.57c.44,.11,.97,.22,1.61,.31,.63,.1,1.19,.15,1.68,.15Z"/>
    <path class="cls-1" d="M827.41,275.32c1.27-.09,2.58-.3,3.93-.62,1.35-.33,2.54-.79,3.57-1.38,.9-.52,1.62-1.1,2.16-1.75,.61-.75,1.04-1.6,1.28-2.56l-.74-.42c-.34,.73-.6,1.23-.79,1.51-.3,.44-.66,.86-1.09,1.26-.54,.5-1.17,.96-1.88,1.37-1.83,1.06-4.22,1.78-7.17,2.18l.74,.42Z"/>
    <path class="cls-1" d="M678.39,205.41l98.89,57.1-18.47,10.67c-.12,.07-.12,.18,0,.24s.31,.07,.42,0l18.61-10.75,4.73,3.84,.82-.47,17.91,10.34-.82,.47,6.61,2.71-18.61,10.75c-.12,.07-.12,.18,0,.24s.31,.07,.42,0l18.68-10.79h0s0,0,0,0l3.32-1.92c.12-.07,.12-.18,0-.24s-.31-.07-.42,0l-3.25,1.88-4.69-3.77-.03-.03-.78,.45-17.91-10.34,.78-.45-6.61-2.75,3.25-1.88c.12-.07,.12-.18,0-.24s-.31-.07-.42,0l-3.11,1.79-98.89-57.1c-.12-.07-.31-.07-.42,0s-.12,.18,0,.24Z"/>
    <path class="cls-1" d="M686.98,203.32c-.52,.3-.77,.65-.76,1.05,.02,.4,.32,.77,.89,1.1s1.21,.5,1.89,.51c.7,0,1.3-.13,1.79-.42,.36-.21,.57-.44,.64-.7,.08-.26,0-.52-.24-.8,.4,.1,.76,.14,1.1,.11,.34-.04,.65-.13,.93-.29,.42-.24,.63-.54,.61-.89,0-.35-.27-.67-.77-.97s-1.06-.44-1.66-.45c-.59,0-1.09,.11-1.52,.36-.28,.16-.46,.34-.51,.54-.06,.2,0,.42,.19,.65-.45-.15-.9-.21-1.35-.18-.44,.04-.85,.16-1.23,.38Zm3.65-.99c.24-.14,.54-.21,.89-.21,.36,0,.68,.08,.96,.24s.4,.34,.4,.54c0,.21-.12,.39-.39,.54s-.56,.22-.91,.22c-.34,0-.65-.08-.93-.24s-.44-.35-.44-.55c0-.21,.14-.39,.41-.55Zm-1.76,1.13c.45,0,.84,.09,1.18,.29s.52,.43,.52,.7c0,.27-.16,.5-.51,.7s-.74,.29-1.19,.29c-.44,0-.83-.1-1.18-.3-.22-.13-.38-.28-.46-.45-.09-.17-.08-.34,0-.5,.1-.17,.25-.31,.45-.43,.34-.19,.73-.29,1.17-.29Z"/>
    <polygon class="cls-1" points="691.87 207.15 691.06 206.68 690.24 207.16 691.05 207.62 691.87 207.15"/>
    <path class="cls-1" d="M695.81,208.09c.29,.17,.62,.28,1.01,.34,.4,.06,.78,.06,1.15,.02-.06,.04-.11,.07-.14,.09-.29,.17-.62,.32-.99,.44-.36,.12-.68,.21-.96,.24-.27,.03-.54,.04-.81,0-.26-.04-.51-.12-.73-.25-.26-.15-.4-.31-.41-.49-.02-.18,.1-.38,.37-.61l-.74-.36c-.41,.3-.59,.6-.56,.92,.03,.31,.29,.6,.75,.87,.43,.25,.92,.4,1.47,.45,.55,.05,1.13,0,1.73-.17,.61-.16,1.28-.45,2.02-.88s1.18-.78,1.4-1.09c.22-.31,.27-.62,.16-.92-.11-.3-.35-.56-.73-.78-.52-.3-1.14-.45-1.85-.44-.71,0-1.37,.18-1.96,.53s-.87,.69-.89,1.09c-.01,.4,.22,.73,.71,1.01Zm2.25-2.04c.5-.01,.91,.07,1.23,.25s.45,.4,.42,.67c-.02,.27-.23,.52-.64,.75s-.84,.36-1.29,.37c-.45,.01-.84-.08-1.17-.27s-.5-.42-.49-.68c.01-.26,.2-.5,.58-.72,.41-.24,.86-.36,1.35-.38Z"/>
    <polygon class="cls-1" points="703.76 207.66 704.24 207.94 705.39 207.28 706.52 207.93 706.99 207.66 705.86 207 707 206.35 706.52 206.07 705.38 206.73 704.24 206.07 703.77 206.34 704.91 207 703.76 207.66"/>
    <polygon class="cls-1" points="706.72 209.48 706.13 209.14 705.55 209.47 706.14 209.81 706.72 209.48"/>
    <path class="cls-1" d="M711.57,209.18l-3.27,1.89,.52,.3,4.19-2.42-.33-.19c-.27,.05-.61,.07-1.02,.06-.4-.01-.81-.06-1.23-.15l-.5,.29c.22,.06,.48,.11,.8,.15,.32,.05,.6,.07,.85,.07Z"/>
    <path class="cls-1" d="M701.55,209.94c-.4,.12-.85,.32-1.34,.61-.78,.45-1.2,.86-1.28,1.22-.06,.3,.11,.56,.52,.8,.31,.18,.64,.27,1,.29,.37,.02,.75-.03,1.15-.14,.4-.11,.85-.31,1.33-.59,.42-.24,.71-.45,.88-.63,.18-.18,.31-.35,.37-.51,.06-.16,.06-.31-.03-.46-.08-.15-.23-.29-.45-.42-.3-.17-.64-.27-1-.29-.36-.02-.75,.02-1.15,.13Zm1.72,.4c.24,.14,.32,.32,.26,.54-.06,.23-.44,.54-1.12,.93s-1.22,.61-1.61,.64c-.39,.04-.7,0-.93-.14s-.32-.31-.26-.54c.06-.22,.44-.53,1.12-.92s1.24-.62,1.67-.66c.34-.04,.63,.01,.86,.15Z"/>
    <path class="cls-1" d="M705.88,218.17l.52,.3c.49-1.19,1.37-2.16,2.65-2.9,.5-.29,1.05-.54,1.66-.77,.49-.17,1.01-.32,1.54-.44,.34-.08,.95-.18,1.82-.32l-.52-.3c-1.17,.1-2.2,.27-3.12,.53-.78,.22-1.48,.51-2.12,.87-.72,.41-1.28,.89-1.67,1.43-.39,.54-.64,1.08-.75,1.59Z"/>
    <path class="cls-1" d="M710.57,219c.46,.27,.98,.41,1.57,.44,.59,.02,1.17-.08,1.74-.32l-.62-.45c-.41,.17-.8,.26-1.16,.24-.36,0-.68-.09-.96-.25-.35-.2-.51-.44-.47-.72,.04-.27,.35-.57,.91-.9s1.09-.5,1.56-.52c.48-.02,.91,.08,1.27,.29,.24,.14,.37,.3,.39,.48,.03,.18-.06,.37-.28,.57l.81,.34c.34-.3,.48-.6,.41-.9-.06-.3-.31-.58-.77-.85-.36-.21-.79-.35-1.27-.44-.48-.08-.97-.06-1.46,.05-.49,.11-.96,.3-1.42,.56-.71,.41-1.07,.82-1.1,1.24-.03,.42,.25,.79,.84,1.13Z"/>
    <path class="cls-1" d="M714.72,221.39c.49,.28,1.01,.45,1.56,.49,.56,.05,1.11-.02,1.66-.2l-.65-.48c-.41,.11-.77,.15-1.1,.13-.32-.03-.61-.12-.87-.27-.36-.21-.53-.45-.52-.73,0-.28,.24-.56,.68-.84l3.16,1.82,.19-.11c.7-.4,1.06-.82,1.09-1.24,.03-.43-.24-.81-.81-1.14s-1.25-.5-2.01-.48c-.76,.01-1.5,.23-2.21,.64s-1.04,.81-1.06,1.24c-.01,.43,.29,.83,.91,1.18Zm2.62-2.52c.45,0,.84,.1,1.17,.29,.37,.21,.53,.46,.48,.75-.03,.19-.21,.39-.53,.62l-2.36-1.36c.39-.2,.81-.3,1.25-.3Z"/>
    <path class="cls-1" d="M720.59,222.01c.54-.31,1.02-.46,1.43-.45,.42,.02,.79,.11,1.1,.29,.19,.11,.31,.23,.37,.36,.05,.13,.04,.26-.06,.37-.09,.12-.28,.26-.57,.42l-2.58,1.49,.72,.41,2.6-1.5c.33-.19,.55-.33,.66-.42,.16-.14,.26-.29,.3-.44,.04-.15,0-.31-.12-.48-.12-.17-.3-.33-.56-.48-.59-.34-1.27-.47-2.03-.38l.6-.34-.65-.38-4.23,2.44,.72,.41,2.31-1.33Z"/>
    <path class="cls-1" d="M723.48,224.91c-.43,.25-.69,.43-.76,.54-.08,.11-.09,.23-.03,.37,.07,.13,.23,.27,.49,.42,.16,.09,.36,.18,.61,.28l.53-.42c-.15-.07-.27-.13-.35-.17-.11-.06-.17-.11-.19-.16-.02-.05-.02-.1,0-.15,.03-.05,.16-.13,.36-.25l2.47-1.43,.73,.42,.56-.32-.73-.42,1.48-.86-1.14-.16-1.05,.61-.52-.3-.56,.32,.52,.3-2.43,1.4Z"/>
    <path class="cls-1" d="M727.3,225.99c.3-.17,.62-.31,.96-.41,.21-.07,.43-.09,.64-.07,.23,.02,.42,.07,.57,.16,.18,.1,.3,.23,.38,.4l.91-.24c-.1-.23-.27-.42-.52-.56-.17-.1-.37-.16-.61-.18-.23-.03-.57,0-1.04,.08l.64-.37-.64-.37-4.23,2.44,.72,.41,2.22-1.28Z"/>
    <path class="cls-1" d="M730.95,227.84c-.32-.14-.57-.24-.74-.3-.24-.08-.49-.14-.75-.16-.26-.03-.52-.02-.79,.02-.26,.05-.5,.13-.71,.25-.35,.2-.52,.44-.5,.71,.02,.28,.27,.55,.74,.82,.28,.16,.59,.29,.93,.38,.34,.09,.75,.14,1.25,.17-.18,.13-.31,.25-.39,.38l.75,.44c.07-.14,.17-.28,.32-.4,.14-.12,.55-.37,1.22-.76l.96-.55c.32-.18,.52-.32,.63-.4,.15-.14,.24-.28,.26-.41,.02-.14-.04-.29-.18-.47-.14-.18-.38-.37-.75-.58s-.73-.36-1.1-.47c-.37-.1-.73-.14-1.06-.12-.33,.02-.68,.1-1.05,.23l.61,.47c.37-.13,.7-.18,.98-.16,.29,.03,.6,.13,.94,.33,.36,.21,.55,.41,.56,.61,.02,.15-.11,.31-.41,.48-.03,.01-.09,.05-.19,.1-.37-.1-.88-.3-1.53-.59Zm.7,1.07c-.31,.18-.59,.3-.83,.35-.32,.06-.64,.06-.97,.01-.33-.06-.63-.17-.91-.32s-.44-.32-.46-.48c-.01-.16,.08-.29,.27-.4,.13-.07,.27-.12,.44-.14,.17-.02,.34-.01,.52,.03,.18,.04,.43,.13,.77,.28,.6,.25,1.08,.43,1.44,.52l-.27,.15Z"/>
    <polygon class="cls-1" points="738.17 228.08 737.45 227.67 731.61 231.04 732.33 231.46 738.17 228.08"/>
    <polygon class="cls-1" points="740 229.14 739.28 228.73 738.45 229.2 739.17 229.62 740 229.14"/>
    <polygon class="cls-1" points="738.39 230.07 737.67 229.66 733.44 232.1 734.16 232.51 738.39 230.07"/>
    <path class="cls-1" d="M739.23,234.73l-1.95-1.13c-.28-.16-.6-.33-.95-.5l.95-.03,4.97-.22,.48-.28-3.46-2-.58,.33,1.72,.99c.23,.13,.51,.29,.83,.46l-5.79,.23-.58,.33,3.74,2.16,.62-.36Z"/>
    <path class="cls-1" d="M743.18,234.91c-.32-.14-.57-.24-.74-.3-.24-.08-.49-.14-.75-.16-.26-.03-.52-.02-.79,.02-.26,.05-.5,.13-.71,.25-.35,.2-.52,.44-.5,.71,.02,.28,.27,.55,.74,.82,.28,.16,.59,.29,.93,.38,.34,.09,.75,.14,1.25,.17-.18,.13-.31,.25-.39,.38l.75,.44c.07-.14,.17-.28,.32-.4,.15-.12,.55-.37,1.22-.76l.96-.55c.32-.18,.52-.32,.63-.4,.15-.14,.24-.28,.26-.41,.02-.14-.04-.29-.18-.47-.14-.18-.38-.37-.75-.58s-.73-.36-1.1-.47c-.37-.1-.73-.14-1.06-.12-.33,.02-.68,.1-1.05,.23l.61,.47c.37-.13,.7-.18,.98-.16,.29,.03,.6,.13,.94,.33,.36,.21,.55,.41,.56,.61,.02,.15-.11,.31-.41,.48-.03,.01-.09,.05-.19,.1-.37-.1-.88-.3-1.53-.59Zm.7,1.07c-.31,.18-.59,.3-.83,.35-.31,.06-.64,.06-.97,.01-.33-.06-.63-.17-.91-.32s-.44-.32-.46-.48c-.01-.16,.08-.29,.27-.4,.13-.07,.27-.12,.44-.14,.17-.02,.34-.01,.51,.03,.18,.04,.43,.13,.77,.28,.6,.25,1.08,.43,1.44,.52l-.27,.15Z"/>
    <path class="cls-1" d="M744.67,238.37c.1,.27,.32,.5,.65,.7,.52,.3,1.12,.41,1.81,.32l-.53,.31,.66,.38,5.84-3.37-.71-.41-2.1,1.21c.04-.17,.01-.35-.08-.53-.09-.18-.26-.34-.51-.48-.35-.2-.76-.33-1.22-.39-.46-.06-.94-.03-1.43,.09-.49,.12-.94,.3-1.35,.54-.44,.25-.75,.52-.93,.8-.17,.28-.21,.56-.11,.83Zm3.32-1.73c.48-.03,.88,.05,1.2,.23s.46,.42,.4,.71c-.05,.29-.35,.6-.93,.93-.53,.31-1.03,.47-1.51,.49-.47,.02-.86-.06-1.17-.24s-.46-.41-.42-.7c.04-.29,.34-.59,.88-.9s1.07-.5,1.55-.52Z"/>
    <path class="cls-1" d="M750.02,241.78c.37,.21,.8,.36,1.28,.44,.48,.08,.96,.08,1.43-.01,.48-.08,.99-.28,1.53-.59,.67-.39,1.02-.8,1.03-1.23,.01-.43-.27-.82-.86-1.15-.52-.3-1.12-.47-1.8-.5-.81-.04-1.61,.17-2.39,.63-.72,.41-1.08,.84-1.09,1.27,0,.43,.28,.81,.87,1.15Zm2.53-2.49c.51-.02,.94,.08,1.3,.28s.51,.45,.48,.74c-.03,.29-.31,.59-.83,.89-.56,.32-1.09,.49-1.6,.51-.51,.02-.93-.07-1.29-.28s-.52-.45-.49-.75c.03-.29,.33-.59,.86-.9s1.06-.48,1.56-.5Z"/>
    <path class="cls-1" d="M751.69,244.62c.89-.06,1.81-.21,2.75-.44,.94-.23,1.78-.55,2.49-.96,.63-.36,1.13-.77,1.51-1.22,.43-.53,.74-1.13,.91-1.8l-.52-.3c-.23,.51-.42,.86-.56,1.06-.2,.31-.46,.6-.76,.89-.38,.35-.82,.66-1.32,.95-1.28,.74-2.95,1.25-5.02,1.53l.52,.3Z"/>
    <path class="cls-1" d="M846.75,387.53l-3.26-1.88,6.23-2.93,.05-.02-.85-.44s.01,0,.01,0c13.88-10.42,17.08-24.44,8.37-36.58-8.71-12.14-28.15-20.74-50.72-22.45,0,0-.01,0-.02,0l.06-.65-8.03,.45v-27.52s.06-.04,.06-.06c0-.38-.1-.76-.26-1.12l7.97-.45h.06s-.31-.64-.31-.64l36.95-5.68c.16-.02,.26-.12,.21-.21-.04-.09-.21-.15-.37-.12l-36.96,5.68-.3-.62-7.31,1.91c-.65-1.31-2.28-2.41-4.55-2.95-2.95-.71-6.32-.32-8.57,.98,0,0,0,0,0,0,0,0,0,0-.01,0l-51.78,29.89-2.11-1.22s-.08-.08-.17-.1l-7.32-4.23s-.09-.08-.17-.1l-2.04-1.18-16.67-9.62-.81-.47,51.68-29.84c.05,0,.11-.02,.15-.04,2.26-1.3,2.93-3.25,1.7-4.95-1.22-1.7-4.08-2.8-7.27-2.8-.01,0-.02,0-.03,0,0,0,0,0,0,0l-111.31,.02-17.11-9.88,6.56-2.69,.05-.02-.82-.47,5.79-3.34c.12-.07,.12-.18,0-.24s-.31-.07-.42,0l-5.79,3.34-.78-.45-4.73,3.8-3.25-1.88c-.12-.07-.31-.07-.42,0s-.12,.18,0,.24l3.11,1.79-4.91,2.83-3.11-1.79c-.12-.07-.31-.07-.42,0s-.12,.18,0,.24l3.25,1.88-6.57,2.73-.05,.02,.78,.45-30.87,17.82c-.12,.07-.12,.18,0,.24s.31,.07,.42,0l30.87-17.82,.82,.47,4.73-3.84,16.95,9.79-11.2,6.47c-.12,.07-.12,.18,0,.24l35.92,20.74,26.52,15.31,96.95,55.97c.12,.07,.31,.07,.42,0l16.71-9.65c.06-.03,.09-.08,.09-.12l.02-36.67,7.83,1.07h.06s.06-.66,.06-.66c22.35,1.69,41.59,10.21,50.21,22.24,8.63,12.02,5.46,25.9-8.28,36.22l-.84-.43-4.28,3.97-41.52-23.97c-.12-.07-.31-.07-.42,0s-.12,.18,0,.24l41.62,24.03h0s0,0,0,0l3.31,1.91c.12,.07,.31,.07,.42,0s.12-.18,0-.24Zm-101.52-58.09h-32.57s-6.89-3.98-6.89-3.98h32.57s6.89,3.98,6.89,3.98Zm7.49,4.32h-32.57s-6.89-3.98-6.89-3.98h32.57s6.89,3.98,6.89,3.98Zm7.49,4.32l-32.53,.02-6.92-4h32.57s6.89,3.98,6.89,3.98Zm7.49,4.32l-32.53,.02-6.89-3.98,32.53-.02,6.89,3.98Zm7.52,4.34h-32.57s-6.89-3.98-6.89-3.98l32.53-.02,6.92,4Zm7.49,4.32h-32.57s-6.89-3.98-6.89-3.98h32.57s6.89,3.98,6.89,3.98Zm7.49,4.32h-32.57s-6.89-3.98-6.89-3.98h32.57s6.89,3.98,6.89,3.98Zm7.49,4.32h-32.57s-6.89-3.98-6.89-3.98h32.57s6.89,3.98,6.89,3.98Zm-24.48,4.67h16.71s-6.89,3.98-6.89,3.98h-2.93s-6.89-3.98-6.89-3.98Zm-7.49-4.32h31.68s-6.89,3.98-6.89,3.98h-17.91s-6.89-3.98-6.89-3.98Zm-60.54-34.95l-6.89-3.98h32.57s6.89,3.98,6.89,3.98h-32.57Zm-14.38-8.3h21.9s3.16,1.83,3.16,1.83c.12,.07,.31,.07,.42,0l3.16-1.83h3.92s6.89,3.98,6.89,3.98h-32.57s-6.89-3.98-6.89-3.98Zm14.84-4.57c-.03-.05-.09-.09-.18-.1l-5.63-3.25,4.91-2.84,16.25,9.38-4.91,2.84-2.91-1.68c-.03-.05-.09-.09-.18-.1l-7.34-4.24Zm-59.8-21.39l24.44,.02-6.89,3.98-10.67-.02-6.89-3.98Zm-7.49-4.32h21.9s5.53,3.19,5.53,3.19c.12,.07,.31,.07,.42,0l5.12-2.96,3.04,1.75-3.48,2.01-25.64-.02-6.89-3.98Zm-7.49-4.32l21.86-.02,6.92,4h-21.9s-6.89-3.98-6.89-3.98Zm-7.49-4.32h21.97s.47,.27,.47,.27c.12,.07,.31,.07,.42,0s.12-.18,0-.24l-.05-.03h6.39s-3.44,1.99-3.44,1.99c-.12,.07-.12,.18,0,.24l2.98,1.72-21.86,.02-6.89-3.98Zm16.96-9.01h-2.94s1.47-.85,1.47-.85l1.47,.85Zm-3.54,.35h4.14s6.89,3.98,6.89,3.98h-9.75s-4.08-2.36-4.08-2.36l2.81-1.62Zm11.62,4.32l5.85,3.38-1.08,.62h-7.59s-6.93-4-6.93-4h9.75Zm22.48,12.98l-4.91,2.84-5.28-3.05c-.03-.05-.09-.09-.18-.1l-7.34-4.24c-.03-.05-.09-.09-.18-.1l-3.23-1.86,4.91-2.84,16.21,9.36Zm-8.1,8.68l-4.72,2.72-4.75-2.74,9.47,.02Zm11.99-6.43l26.1,15.07-16.28,9.4-26.1-15.07,16.28-9.4Zm19.44,19.4h6s-1.04,.6-1.04,.6c-.12,.07-.12,.18,0,.24l5.38,3.11-17.23,.02,6.89-3.98Zm27.18,7.51l1.36,.79h-2.72s1.36-.79,1.36-.79Zm-20.58-7.86h-6s6.48-3.74,6.48-3.74l3,1.73-3.48,2.01Zm49.53-39.89s.02,0,.03,0c0,0,0,0,0,0,2.95,0,5.59,1.02,6.71,2.59,1.11,1.55,.52,3.32-1.5,4.52-.05,0-.09,.02-.13,.04l-51.78,29.89-2.19-1.26-26.52-15.31-3.46-2-16.63-9.6-3.25-1.88s-.03-.06-.07-.08l-11.92-6.88,110.71-.02Zm-133.61-7.04l4.91-2.83,16.81,9.71-4.91,2.83-16.81-9.71Zm20.47,12.31h-7.31s3.66-2.11,3.66-2.11l3.66,2.11Zm-7.91,.35h8.51s6.93,4,6.93,4h-21.97s-.19-.11-.19-.11l6.73-3.89Zm57.43,38.95l18.43-.02,6.92,4h-21.9s-5.17-2.99-5.17-2.99l1.72-.99Zm93.94,56.22h1.73s-.87,.5-.87,.5l-.87-.5Zm17.28-9.32l-6.72-3.88s-.08-.08-.17-.1l-7.32-4.23s-.08-.08-.17-.1l-7.32-4.23s-.08-.08-.17-.1l-7.36-4.25s-.08-.08-.17-.1l-7.32-4.23s-.08-.08-.17-.1l-7.32-4.23s-.08-.08-.17-.1l-7.32-4.23s-.08-.08-.17-.1l-7.32-4.23s-.08-.08-.17-.1l-4.79-2.77,51.78-29.89s0,0,0,0c0,0,0,0,.01,0,2.09-1.2,5.2-1.56,7.92-.91,2.03,.48,3.52,1.45,4.15,2.62l-7.08,1.07c-.16,.02-.26,.12-.21,.21,.01,.03,.04,.06,.08,.08,.07,.04,.18,.06,.29,.04l7.07-1.07c.11,.28,.18,.57,.19,.87-.01,.02-.04,.03-.04,.05v27.62s-.04,0-.04,0h.02s-.02,36.34-.02,36.34Z"/>
    <path class="cls-1" d="M861.89,335.86c.57-.05,1.15-.07,1.71-.06,.37,0,1.01,.04,1.9,.11l-.28-.39c-1.15-.17-2.23-.23-3.24-.2-.86,.03-1.71,.14-2.54,.34-.94,.22-1.77,.54-2.49,.95-.72,.42-1.31,.85-1.76,1.3l.28,.39c1.25-1,2.7-1.69,4.38-2.09,.65-.16,1.32-.27,2.03-.35Z"/>
    <path class="cls-1" d="M859.54,340.28l7.67-1.83-.24-.35c-.42-.01-.88-.09-1.39-.24-.5-.14-.99-.33-1.45-.57l-.89,.22c.21,.14,.5,.29,.86,.45,.37,.16,.72,.28,1.04,.37l-5.98,1.42,.38,.54Z"/>
    <path class="cls-1" d="M868.13,342.98c.35-.08,.63-.21,.86-.39,.23-.18,.36-.4,.4-.64,.04-.24-.02-.49-.19-.73-.25-.34-.64-.59-1.17-.75-.52-.16-1.1-.19-1.77-.11l.22,.58c.48-.07,.88-.06,1.21,.03,.33,.08,.58,.23,.74,.45,.15,.21,.15,.41,.03,.6-.13,.19-.36,.32-.7,.4-.44,.1-.83,.09-1.17-.05-.34-.14-.59-.32-.75-.55-.02-.03-.04-.05-.05-.08l-.86,.13c.17,.14,.29,.26,.37,.36,.18,.25,.19,.49,.03,.72-.15,.23-.45,.4-.88,.5-.46,.11-.9,.11-1.33,0-.43-.1-.73-.27-.91-.53-.16-.22-.17-.43-.05-.63,.13-.2,.44-.4,.92-.59l-.51-.52c-.61,.2-1.02,.46-1.23,.81-.21,.35-.18,.72,.09,1.11,.31,.43,.8,.73,1.45,.89,.66,.17,1.32,.18,2,.02,.48-.12,.84-.29,1.07-.51,.23-.22,.31-.47,.22-.76,.3,.17,.63,.27,.97,.31,.34,.04,.68,.01,1.02-.07Z"/>
    <path class="cls-1" d="M871.56,346.22l.88-.21-1.57-2.19-4.22,.52,.27,.54c.27,.02,.52,.09,.76,.2,.24,.11,.42,.25,.54,.43,.19,.28,.2,.54,0,.78-.19,.25-.54,.44-1.08,.57-.57,.14-1.08,.15-1.55,.05-.47-.1-.79-.28-.97-.54-.16-.22-.17-.44-.05-.64,.13-.21,.42-.39,.87-.55l-.49-.55c-.62,.19-1.03,.46-1.23,.8-.21,.35-.17,.72,.13,1.13,.34,.49,.92,.8,1.75,.93,.66,.11,1.34,.09,2.03-.08,.73-.17,1.23-.45,1.5-.82,.27-.38,.27-.76,0-1.14-.21-.29-.57-.53-1.08-.72l2.24-.24,1.25,1.75Z"/>
    <path class="cls-1" d="M870.99,348.31c.16,.23,.45,.39,.85,.49,.4,.09,.81,.09,1.21,0,.4-.1,.68-.26,.84-.48,.17-.23,.17-.46,0-.7-.17-.23-.45-.39-.85-.49-.4-.1-.8-.1-1.2,0-.41,.09-.69,.25-.86,.49-.17,.23-.17,.46,0,.69Zm1.1-.85c.24-.06,.48-.06,.72,0,.24,.06,.42,.16,.52,.3,.09,.14,.08,.28-.02,.41-.09,.14-.26,.24-.5,.3-.25,.06-.5,.06-.75,0-.24-.06-.4-.16-.5-.3-.11-.14-.11-.28,0-.42,.1-.14,.27-.24,.52-.3Z"/>
    <path class="cls-1" d="M868.14,352.22c1.02,0,2-.11,2.93-.33,.83-.2,1.57-.46,2.21-.8,.75-.39,1.44-.88,2.05-1.46l-.28-.39c-.55,.42-.96,.7-1.21,.85-.4,.24-.83,.46-1.31,.65-.58,.24-1.2,.43-1.85,.59-1.68,.4-3.56,.5-5.66,.3l.28,.39c.87,.14,1.81,.21,2.83,.2Z"/>
    <path class="cls-1" d="M581.61,277.96l-5.87-3.39-.46,.27c.13,.22,.19,.49,.16,.82-.04,.33-.16,.66-.37,1l.69,.4c.14-.17,.27-.39,.38-.64,.12-.26,.18-.49,.19-.68l4.57,2.64,.71-.41Z"/>
    <polygon class="cls-1" points="584.67 276.2 583.85 275.73 583.04 276.2 583.86 276.67 584.67 276.2"/>
    <path class="cls-1" d="M588.51,273.81c.11-.26,.08-.52-.07-.8-.15-.27-.41-.51-.78-.73-.56-.32-1.18-.49-1.87-.49-.69,0-1.28,.12-1.76,.4-.28,.16-.48,.35-.6,.57-.12,.22-.13,.45-.04,.7-.58-.34-.97-.64-1.15-.9-.19-.26-.26-.5-.19-.73,.05-.17,.19-.32,.41-.45,.29-.17,.63-.25,1.02-.24,.24,0,.54,.07,.89,.2l.65-.44c-.51-.23-1.05-.34-1.6-.32-.55,.02-1.06,.16-1.52,.43-.61,.35-.88,.77-.8,1.24,.1,.54,.71,1.13,1.84,1.78,1.01,.58,1.92,.89,2.73,.93,.82,.04,1.53-.12,2.13-.47,.35-.2,.58-.43,.69-.68Zm-2.06,.59c-.31,.04-.63,.03-.96-.04-.33-.07-.62-.18-.87-.32-.37-.22-.56-.46-.57-.72,0-.26,.15-.49,.47-.67s.72-.28,1.17-.27c.45,.01,.87,.13,1.28,.37s.64,.5,.66,.76c.03,.27-.11,.49-.4,.66-.21,.12-.47,.2-.77,.24Z"/>
    <path class="cls-1" d="M587.59,268.07c.31-.18,.47-.37,.51-.58,.04-.21-.05-.43-.25-.66-.2-.23-.54-.49-1.02-.77-.42-.24-.78-.41-1.09-.51-.31-.1-.6-.18-.88-.21-.28-.04-.54-.03-.8,.02-.27,.05-.51,.13-.73,.26-.3,.17-.47,.37-.51,.58-.04,.21,.03,.43,.23,.66,.2,.23,.55,.49,1.05,.78,.78,.45,1.48,.7,2.11,.74,.52,.04,.98-.06,1.38-.3Zm-1.36-.1c-.39-.04-.92-.25-1.6-.65s-1.07-.72-1.14-.97c-.06-.2,.02-.36,.26-.5s.55-.19,.94-.15c.39,.04,.93,.25,1.62,.65s1.05,.7,1.11,.93c.07,.22-.02,.4-.25,.54s-.55,.18-.94,.15Z"/>
    <polygon class="cls-1" points="588.67 272.44 590.24 271.54 589.73 271.24 588.15 272.15 588.67 272.44"/>
    <polygon class="cls-1" points="591.62 271.52 592.2 271.85 592.79 271.51 592.21 271.18 591.62 271.52"/>
    <path class="cls-1" d="M595.48,269.76c.04-.21-.05-.43-.25-.66-.2-.23-.54-.49-1.02-.77-.42-.24-.78-.41-1.09-.51-.31-.11-.6-.18-.88-.21-.28-.04-.54-.03-.8,.02-.26,.05-.51,.13-.73,.26-.3,.17-.47,.37-.51,.58-.04,.21,.03,.43,.23,.66,.2,.23,.55,.49,1.05,.78,.78,.45,1.48,.7,2.11,.74,.51,.04,.97-.06,1.38-.3,.31-.18,.47-.37,.51-.58Zm-1.87,.48c-.39-.04-.92-.25-1.6-.65s-1.07-.72-1.14-.97c-.06-.2,.02-.36,.26-.5s.55-.19,.94-.15c.39,.04,.93,.25,1.62,.65s1.05,.7,1.11,.93c.07,.22-.02,.4-.25,.54s-.55,.18-.94,.15Z"/>
    <path class="cls-1" d="M598.78,267.55c-.06-.29-.27-.54-.65-.76s-.84-.34-1.34-.34c-.5,0-.94,.1-1.3,.31-.28,.16-.45,.36-.53,.61l-.89-.78,1.66-.96-.49-.28-2.07,1.19,1.74,1.47,.54-.24c-.04-.12-.04-.23,.02-.35,.06-.12,.17-.23,.34-.32,.26-.15,.57-.23,.9-.22,.33,0,.64,.08,.93,.25,.31,.18,.47,.37,.49,.58,.01,.21-.11,.38-.35,.52-.21,.12-.45,.19-.73,.2-.28,0-.56-.06-.86-.19l-.5,.34c.39,.18,.81,.26,1.26,.25,.46-.01,.87-.13,1.25-.35,.46-.27,.66-.57,.59-.92Z"/>
    <path class="cls-1" d="M816.48,289.27l1.05-.16-.94-2.05,1.22-.19c.28-.04,.48-.06,.61-.06,.17,0,.34,.01,.52,.05,.19,.03,.42,.11,.68,.22,.28,.12,.63,.29,1.07,.52l1.49,.8,1.32-.2-1.96-1.05c-.39-.2-.78-.36-1.17-.47-.17-.06-.42-.1-.74-.13,.75-.18,1.25-.4,1.52-.69,.26-.28,.31-.59,.16-.92-.12-.25-.34-.47-.65-.64-.32-.18-.68-.28-1.09-.3-.4-.03-.96,.01-1.67,.12l-3.53,.54,2.11,4.61Zm1.69-4.65c.59-.09,1.06-.08,1.41,.02,.34,.1,.56,.26,.65,.47,.07,.15,.06,.3-.03,.45-.09,.15-.26,.27-.5,.37-.25,.1-.61,.19-1.09,.26l-2.27,.35-.7-1.53,2.53-.39Z"/>
    <path class="cls-1" d="M823.28,284.52l.24,.54c.28-.11,.58-.26,.9-.45,.32-.19,.57-.37,.75-.54l1.66,3.61,.97-.14-2.13-4.63-.63,.1c-.07,.23-.26,.48-.57,.75-.32,.27-.71,.52-1.19,.76Z"/>
    <polygon class="cls-1" points="830.58 286.42 830.87 287.07 831.98 286.9 831.68 286.25 830.58 286.42"/>
    <path class="cls-1" d="M832.38,284.53c.37,.79,.89,1.33,1.55,1.6,.67,.27,1.42,.34,2.25,.22,.47-.07,.86-.21,1.18-.4,.32-.19,.53-.43,.63-.71,.1-.28,.09-.57-.05-.86-.2-.44-.6-.76-1.19-.97-.58-.21-1.2-.26-1.86-.16-.38,.06-.72,.16-1.01,.32-.29,.15-.5,.35-.64,.6-.21-.47-.28-.84-.22-1.12,.06-.27,.22-.5,.48-.68,.18-.13,.43-.22,.75-.27,.39-.06,.76-.03,1.09,.09,.2,.07,.4,.22,.6,.43l.94-.19c-.23-.35-.6-.6-1.09-.74-.5-.14-1.06-.17-1.69-.07-.84,.13-1.43,.41-1.77,.84-.38,.5-.37,1.19,.05,2.08Zm2.55-.75c.45-.07,.87-.03,1.25,.11,.38,.14,.64,.36,.79,.68,.15,.33,.12,.61-.08,.85-.21,.24-.52,.39-.93,.45-.29,.04-.59,.04-.89-.02-.3-.05-.56-.16-.79-.31-.22-.15-.38-.33-.47-.53-.14-.3-.09-.56,.14-.79,.22-.23,.55-.38,.98-.45Z"/>
    <path class="cls-1" d="M748.74,388.61l29.67-17.13c.12-.07,.12-.18,0-.24s-.31-.07-.42,0l-29.6,17.09-4.69-3.77-.03-.03-.78,.45-147.6-85.22,.78-.45-6.61-2.75,29.6-17.09c.12-.07,.12-.18,0-.24s-.31-.07-.42,0l-29.67,17.13h0s0,0,0,0l-3.35,1.94c-.12,.07-.12,.18,0,.24s.31,.07,.42,0l3.28-1.9,4.73,3.84,.82-.47,147.6,85.22-.82,.47,6.61,2.71-3.28,1.9c-.12,.07-.12,.18,0,.24s.31,.07,.42,0l3.35-1.94h0s0,0,0,0Z"/>
    <path class="cls-1" d="M672.23,334.71l-6.46,.65-.65,.38,2.54,1.47-1.4,.81,.72,.41,1.4-.81,.78,.45,.65-.38-.78-.45,3.79-2.19-.59-.34Zm-3.92,2.11l-1.83-1.06,4.47-.47-2.64,1.52Z"/>
    <path class="cls-1" d="M671.3,339c-.82,.28-1.47,.54-1.93,.81l.74,.42c.62-.31,1.25-.57,1.89-.77,.89-.29,1.84-.52,2.86-.69,1.02-.17,1.92-.26,2.69-.27l.56-.32-3.78-2.18-.69,.4,2.86,1.65c-.78,.03-1.64,.13-2.57,.29-.93,.16-1.8,.38-2.62,.65Z"/>
    <polygon class="cls-1" points="674.26 341.68 673.44 342.16 674.25 342.62 675.07 342.15 674.26 341.68"/>
    <path class="cls-1" d="M676.99,342.25c-.52,.3-.77,.65-.76,1.05,.02,.4,.32,.77,.89,1.1s1.21,.5,1.89,.51c.7,0,1.3-.13,1.79-.42,.36-.21,.57-.44,.64-.7,.08-.26,0-.52-.24-.8,.4,.1,.76,.14,1.1,.11,.34-.04,.65-.13,.93-.29,.42-.24,.63-.54,.61-.89,0-.35-.26-.67-.77-.97s-1.06-.44-1.66-.45c-.59,0-1.09,.11-1.52,.36-.28,.16-.45,.34-.51,.54-.06,.2,0,.42,.19,.65-.45-.15-.9-.21-1.35-.18-.44,.04-.85,.16-1.23,.38Zm3.65-.99c.24-.14,.54-.21,.89-.21,.36,0,.68,.08,.96,.24s.4,.34,.4,.54c0,.21-.12,.39-.39,.54s-.56,.22-.91,.22c-.34,0-.65-.08-.93-.24-.29-.17-.44-.35-.44-.55,0-.21,.14-.39,.41-.55Zm-1.76,1.13c.45,0,.84,.09,1.18,.29s.52,.43,.52,.7c0,.27-.16,.5-.51,.7s-.74,.29-1.19,.29c-.44,0-.84-.1-1.18-.3-.22-.13-.38-.28-.46-.45-.09-.17-.09-.34,0-.5,.1-.17,.25-.31,.45-.43,.34-.19,.73-.29,1.17-.29Z"/>
    <path class="cls-1" d="M429.37,100.41c.32-.18,.53-.4,.63-.65,.11-.25,.08-.48-.08-.7-.17-.22-.51-.48-1.03-.78l-2.58-1.49-5.84,3.37,.77,.45,2.59-1.5,.89,.52c.2,.12,.34,.2,.4,.27,.08,.08,.15,.18,.19,.29,.04,.11,.04,.26,0,.46-.04,.19-.12,.45-.24,.79l-.44,1.15,.97,.56,.58-1.5c.1-.29,.14-.57,.13-.82,0-.12-.07-.26-.17-.44,.64,.28,1.23,.42,1.77,.41,.56-.01,1.04-.14,1.46-.38Zm-1.47-.24c-.27,.03-.53,.01-.81-.06-.27-.07-.58-.21-.94-.41l-1.66-.96,1.93-1.12,1.85,1.07c.43,.25,.66,.48,.68,.7,.02,.22-.1,.41-.38,.57-.19,.11-.42,.18-.68,.21Z"/>
    <path class="cls-1" d="M430.1,102.93c-.32-.14-.57-.24-.75-.3-.24-.08-.49-.14-.75-.16-.26-.03-.52-.02-.79,.02-.26,.05-.5,.13-.71,.25-.35,.2-.52,.44-.5,.71,.02,.28,.27,.55,.74,.82,.28,.16,.59,.29,.93,.38,.34,.09,.75,.14,1.25,.17-.18,.13-.31,.26-.39,.38l.75,.44c.07-.14,.17-.28,.32-.4,.14-.12,.55-.37,1.22-.76l.96-.55c.32-.18,.52-.32,.63-.4,.15-.14,.24-.28,.26-.41,.02-.13-.04-.29-.18-.47-.14-.18-.38-.37-.75-.58s-.73-.36-1.1-.47c-.37-.1-.73-.14-1.06-.12s-.68,.1-1.05,.23l.61,.47c.37-.13,.7-.18,.97-.16,.29,.03,.6,.13,.94,.33,.36,.21,.55,.41,.56,.61,.02,.15-.11,.31-.4,.48-.03,.01-.09,.05-.19,.1-.37-.1-.88-.3-1.53-.6Zm.7,1.07c-.31,.18-.59,.3-.83,.35-.32,.06-.64,.06-.98,.01-.33-.06-.63-.16-.91-.32s-.44-.32-.46-.48c-.01-.16,.08-.29,.27-.4,.13-.07,.27-.12,.44-.14,.17-.02,.34-.01,.51,.03,.18,.04,.43,.13,.77,.28,.6,.25,1.08,.43,1.44,.52l-.27,.15Z"/>
    <path class="cls-1" d="M435.55,108.89l5.87-3.39-.46-.27c-.38,.08-.86,.11-1.43,.09-.57-.02-1.14-.09-1.73-.21l-.69,.4c.3,.08,.67,.15,1.11,.22,.45,.07,.84,.1,1.19,.11l-4.57,2.64,.71,.41Z"/>
    <path class="cls-1" d="M436.88,110.63l-.12,.29c.34,.07,.65,.09,.94,.04,.29-.04,.59-.15,.89-.32l.82-.47-.82-.47-.82,.47,.4,.23c-.25,.13-.47,.22-.67,.25-.2,.03-.41,.02-.63-.02Z"/>
    <path class="cls-1" d="M446.16,109.14c.29,.03,.55,.11,.78,.24,.29,.17,.43,.36,.41,.59-.01,.14-.13,.31-.34,.52l.76,.38c.4-.3,.59-.61,.55-.92-.04-.32-.28-.61-.74-.88-.61-.35-1.33-.51-2.14-.46-.93,.06-1.96,.41-3.09,1.06-1.01,.58-1.54,1.11-1.61,1.58-.06,.47,.21,.88,.81,1.23,.35,.2,.75,.33,1.19,.4,.45,.06,.91,.05,1.38-.04,.47-.09,.89-.24,1.26-.45,.56-.32,.84-.68,.86-1.08,.02-.4-.21-.74-.69-1.01-.28-.16-.61-.27-.99-.35-.37-.07-.78-.07-1.21-.02,.59-.34,1.11-.56,1.55-.66,.45-.11,.87-.15,1.26-.11Zm-2.57,1.15c.46,0,.85,.09,1.17,.27s.49,.42,.47,.67c-.02,.26-.23,.5-.63,.74s-.86,.37-1.32,.38c-.46,.02-.84-.06-1.14-.23-.21-.12-.35-.27-.42-.45-.07-.18-.04-.36,.07-.55,.12-.19,.31-.36,.56-.5,.37-.22,.79-.32,1.25-.33Z"/>
    <path class="cls-1" d="M447.91,116.02l4.23-2.44-.71-.41-1.8,1.04c-.65,.38-1.1,.6-1.35,.66-.25,.07-.52,.09-.81,.05-.28-.03-.53-.1-.74-.22s-.33-.25-.38-.41c-.04-.15,0-.3,.11-.46,.13-.15,.52-.42,1.17-.79l1.79-1.04-.71-.41-5.85,3.38,.71,.41,2.04-1.18c-.04,.21-.03,.36,.03,.47,.08,.15,.24,.29,.46,.41,.24,.14,.52,.23,.82,.28,.21,.03,.49,.02,.85-.02l-.51,.29,.64,.37Z"/>
    <path class="cls-1" d="M454.82,120.02l2.91-1.68c.48-.28,.72-.55,.73-.81,0-.27-.2-.52-.62-.76-.54-.31-1.22-.42-2.04-.33,.14-.18,.18-.37,.11-.56-.07-.19-.26-.37-.57-.55-.28-.16-.6-.27-.95-.32-.34-.06-.69-.06-1.03-.02l.6-.35-.64-.37-4.23,2.44,.72,.41,2.2-1.27c.38-.22,.71-.37,.99-.44,.28-.07,.57-.09,.84-.06,.28,.03,.52,.11,.73,.23,.27,.16,.38,.31,.34,.47-.05,.16-.23,.33-.54,.52l-2.75,1.59,.72,.41,2.46-1.42c.43-.25,.85-.38,1.24-.38,.4,0,.75,.08,1.04,.25,.17,.1,.27,.2,.31,.32,.05,.11,.03,.22-.06,.32-.08,.1-.25,.23-.54,.4l-2.67,1.54,.72,.41Z"/>
    <path class="cls-1" d="M850.11,310.22l41.71,24.08c.12,.07,.31,.07,.42,0s.12-.18,0-.24l-35.27-20.36,34.16-5.28,38.91,22.46c.12,.07,.31,.07,.42,0s.12-.18,0-.24l-39.03-22.53c-.08-.04-.19-.06-.29-.04l-34.32,5.31,3.57-7.68c.04-.09-.05-.19-.21-.21-.16-.02-.32,.03-.37,.12l-3.57,7.68-5.71-3.29c-.12-.07-.31-.07-.42,0s-.12,.18,0,.24Z"/>
    <path class="cls-1" d="M896.01,316.24c.32-.18,.53-.4,.63-.65,.11-.25,.08-.48-.08-.7-.17-.22-.51-.48-1.03-.78l-2.58-1.49-5.84,3.37,.77,.45,2.59-1.5,.89,.52c.2,.12,.34,.2,.4,.27,.08,.09,.15,.18,.19,.29,.04,.11,.04,.26,0,.46-.04,.19-.12,.45-.24,.79l-.44,1.15,.97,.56,.58-1.5c.1-.29,.14-.57,.13-.82,0-.12-.07-.26-.17-.44,.64,.28,1.23,.42,1.78,.41,.56-.01,1.04-.14,1.46-.38Zm-1.47-.24c-.27,.03-.53,.01-.81-.06-.27-.07-.58-.21-.94-.41l-1.66-.96,1.93-1.12,1.85,1.07c.43,.25,.66,.48,.68,.7,.02,.22-.1,.41-.38,.57-.19,.11-.42,.18-.68,.21Z"/>
    <path class="cls-1" d="M896.74,318.75c-.32-.14-.57-.24-.74-.3-.24-.08-.49-.14-.75-.16-.26-.03-.52-.02-.79,.02-.26,.05-.5,.13-.71,.25-.35,.2-.52,.44-.5,.71,.02,.28,.27,.55,.74,.82,.28,.16,.59,.29,.93,.38,.34,.09,.75,.14,1.25,.17-.18,.13-.31,.26-.39,.38l.75,.44c.07-.14,.17-.28,.32-.4,.15-.12,.55-.37,1.22-.76l.96-.55c.32-.18,.53-.32,.63-.4,.15-.14,.24-.28,.26-.41,.02-.13-.04-.29-.18-.47-.14-.18-.38-.37-.74-.58s-.73-.36-1.1-.47c-.37-.1-.73-.14-1.06-.12-.33,.02-.68,.1-1.05,.23l.61,.47c.37-.13,.7-.18,.97-.16,.29,.03,.6,.13,.94,.33,.36,.21,.55,.41,.56,.61,.02,.15-.11,.31-.4,.48-.03,.01-.09,.05-.19,.1-.37-.1-.88-.3-1.53-.59Zm.7,1.07c-.31,.18-.59,.3-.83,.35-.31,.06-.64,.06-.97,.01-.33-.06-.63-.16-.91-.32s-.44-.32-.46-.48c-.01-.16,.08-.29,.27-.4,.13-.07,.27-.12,.44-.14,.17-.02,.34-.01,.51,.03,.18,.04,.44,.13,.77,.28,.6,.25,1.08,.43,1.44,.51l-.27,.15Z"/>
    <path class="cls-1" d="M905.99,321.03c.29,.03,.55,.11,.78,.24,.29,.17,.42,.36,.41,.59-.01,.14-.13,.31-.34,.52l.76,.38c.4-.3,.59-.61,.55-.92-.04-.32-.28-.61-.74-.88-.61-.35-1.33-.51-2.14-.46-.93,.06-1.96,.41-3.09,1.06-1.01,.58-1.54,1.11-1.61,1.58-.06,.47,.21,.88,.81,1.23,.35,.2,.75,.33,1.19,.4,.45,.06,.91,.05,1.38-.04,.47-.09,.89-.24,1.26-.45,.56-.32,.84-.68,.85-1.08,.02-.4-.21-.74-.69-1.01-.28-.16-.6-.27-.98-.35-.37-.07-.78-.07-1.21-.02,.59-.34,1.11-.56,1.55-.66,.45-.11,.87-.15,1.26-.11Zm-2.57,1.15c.46,0,.85,.09,1.17,.27s.49,.42,.47,.67c-.02,.26-.23,.5-.63,.74s-.86,.37-1.32,.38c-.46,.02-.84-.06-1.14-.23-.21-.12-.35-.27-.42-.45-.07-.18-.04-.37,.07-.55,.12-.19,.31-.36,.56-.5,.37-.21,.79-.32,1.25-.33Z"/>
    <path class="cls-1" d="M903.52,326.46l-.12,.29c.34,.07,.65,.09,.94,.04,.29-.04,.59-.15,.89-.32l.82-.47-.82-.47-.82,.47,.4,.23c-.25,.13-.47,.22-.67,.25-.2,.03-.41,.02-.63-.02Z"/>
    <path class="cls-1" d="M908.64,327.88c-.29-.17-.44-.36-.46-.57-.01-.22,.14-.47,.46-.75l-.81-.36c-.44,.31-.65,.65-.62,1.03,.03,.37,.31,.7,.83,1,.57,.33,1.21,.5,1.93,.51,.73,.01,1.35-.13,1.87-.43,.37-.22,.59-.45,.65-.71,.06-.25-.04-.51-.31-.75,.39,.08,.76,.11,1.09,.07,.34-.04,.64-.14,.9-.29s.44-.34,.53-.55c.1-.22,.08-.45-.06-.68-.13-.24-.35-.45-.67-.63-.46-.27-.98-.41-1.56-.44-.58-.03-1.15,.07-1.71,.3l.59,.49c.4-.17,.78-.25,1.14-.24,.36,0,.68,.09,.97,.25s.42,.34,.43,.55c0,.2-.12,.38-.39,.53-.33,.19-.7,.26-1.1,.21-.41-.05-.76-.16-1.07-.34-.03-.02-.07-.04-.1-.07l-.71,.31c.25,.09,.44,.17,.58,.25,.33,.19,.49,.41,.5,.66,0,.24-.16,.46-.49,.65-.35,.2-.76,.3-1.22,.3-.46,0-.86-.09-1.2-.29Z"/>
    <path class="cls-1" d="M914.54,331.85l4.23-2.44-.71-.41-1.8,1.04c-.65,.38-1.1,.6-1.35,.66-.25,.07-.52,.08-.81,.05-.28-.03-.53-.1-.74-.22s-.33-.25-.38-.41c-.04-.15,0-.3,.11-.46,.13-.15,.52-.42,1.17-.79l1.79-1.04-.71-.41-5.85,3.38,.71,.41,2.04-1.18c-.04,.21-.03,.36,.03,.47,.08,.15,.24,.29,.46,.41,.24,.14,.52,.23,.82,.28,.21,.03,.49,.03,.85-.02l-.51,.29,.64,.37Z"/>
    <path class="cls-1" d="M921.46,335.84l2.91-1.68c.48-.28,.72-.55,.73-.81,0-.27-.2-.52-.62-.76-.54-.31-1.22-.42-2.04-.33,.14-.18,.18-.37,.11-.56-.07-.19-.26-.37-.57-.55-.28-.16-.6-.27-.95-.32-.34-.06-.69-.06-1.03-.02l.6-.34-.64-.37-4.23,2.44,.72,.41,2.2-1.27c.38-.22,.71-.37,.99-.44,.28-.07,.57-.09,.84-.06,.28,.03,.52,.11,.73,.23,.27,.16,.38,.31,.34,.47-.05,.16-.22,.33-.54,.52l-2.75,1.59,.72,.41,2.46-1.42c.43-.25,.85-.38,1.24-.38,.4,0,.75,.08,1.04,.25,.17,.1,.27,.2,.31,.32,.05,.11,.03,.22-.06,.32-.08,.1-.26,.23-.54,.4l-2.67,1.54,.72,.41Z"/>
    <path class="cls-1" d="M246.18,256.48l-40.08,.82-.06-.68-8.22,.97-.29,.03,8.59,.66h.06s-.06-.63-.06-.63l40.07-.82c.16,0,.29-.08,.29-.18,0-.1-.15-.17-.31-.17Z"/>
    <path class="cls-1" d="M275.81,242.29l-2.47-1.42-.69,.4,1.71,.99-1.09,.63c-.31-.01-.69-.07-1.14-.18-.45-.11-.84-.26-1.17-.45-.39-.22-.67-.48-.85-.78-.17-.3-.17-.6,0-.9,.18-.31,.53-.61,1.05-.91,.42-.24,.88-.42,1.39-.55,.3-.07,.61-.12,.95-.12,.34-.01,.69,.03,1.05,.12,.37,.08,.73,.23,1.08,.44,.29,.17,.51,.35,.64,.55,.14,.2,.19,.38,.15,.55-.04,.18-.16,.37-.37,.59l.88,.3c.29-.28,.46-.55,.52-.81,.05-.25-.03-.52-.24-.8-.2-.28-.51-.54-.93-.78-.58-.34-1.22-.57-1.9-.69-.68-.12-1.39-.1-2.12,.05-.73,.15-1.38,.38-1.95,.71s-.97,.7-1.2,1.1c-.23,.41-.23,.82,0,1.23,.23,.41,.63,.79,1.21,1.12,.42,.24,.91,.44,1.47,.58,.56,.15,1.17,.24,1.85,.28l2.17-1.25Z"/>
    <path class="cls-1" d="M276.81,243.75c.3-.17,.62-.31,.96-.41,.21-.07,.43-.09,.64-.07,.23,.02,.42,.07,.57,.16,.18,.1,.3,.24,.38,.4l.91-.24c-.1-.23-.27-.42-.52-.56-.17-.1-.37-.16-.61-.18-.23-.03-.57,0-1.04,.08l.64-.37-.64-.37-4.23,2.44,.72,.41,2.22-1.28Z"/>
    <path class="cls-1" d="M279.88,247.48c-.18,.13-.31,.26-.39,.38l.75,.44c.07-.14,.17-.28,.32-.4,.14-.12,.55-.37,1.22-.76l.96-.55c.32-.18,.52-.32,.63-.4,.15-.14,.24-.28,.26-.41,.02-.14-.04-.29-.18-.47-.14-.18-.38-.37-.75-.58s-.73-.36-1.1-.47c-.37-.1-.73-.14-1.06-.12-.33,.02-.68,.1-1.05,.23l.61,.47c.37-.13,.7-.18,.98-.16,.29,.03,.6,.13,.94,.33,.36,.21,.55,.41,.56,.61,.02,.15-.11,.31-.4,.48-.03,.01-.09,.05-.19,.1-.37-.1-.88-.3-1.53-.59-.32-.14-.57-.24-.74-.3-.24-.08-.49-.14-.75-.16-.26-.03-.52-.02-.79,.02-.26,.05-.5,.13-.71,.25-.35,.2-.52,.44-.5,.71,.02,.28,.27,.55,.74,.82,.28,.16,.59,.29,.93,.38,.34,.09,.75,.15,1.25,.17Zm-1.9-1.25c-.01-.16,.08-.29,.27-.4,.13-.07,.27-.12,.44-.14,.17-.02,.34-.01,.51,.03,.18,.04,.44,.13,.77,.28,.6,.25,1.08,.43,1.44,.51l-.27,.15c-.31,.18-.59,.3-.83,.35-.32,.06-.64,.06-.98,.01-.33-.06-.63-.16-.91-.32s-.44-.32-.46-.48Z"/>
    <path class="cls-1" d="M288.07,247.93l-3.52,.95c-.43,.11-.79,.21-1.07,.31,.21-.22,.4-.44,.58-.65l1.63-1.98-.76-.44-2.62,3.37,.67,.39,5.83-1.52-.74-.42Z"/>
    <path class="cls-1" d="M289.07,250.58c-.32-.14-.57-.24-.74-.3-.24-.08-.49-.14-.75-.16-.26-.03-.52-.02-.79,.02-.26,.05-.5,.13-.71,.25-.35,.2-.52,.44-.5,.71,.02,.28,.27,.55,.74,.82,.28,.16,.59,.29,.93,.38,.34,.09,.75,.14,1.25,.17-.18,.13-.31,.26-.39,.38l.75,.44c.07-.14,.17-.28,.32-.4,.15-.12,.55-.37,1.22-.76l.96-.55c.32-.18,.52-.32,.63-.4,.15-.14,.24-.28,.26-.41,.02-.14-.04-.29-.18-.47-.14-.18-.38-.37-.74-.58s-.73-.36-1.1-.47c-.38-.1-.73-.14-1.06-.12-.33,.02-.68,.1-1.05,.23l.61,.47c.37-.13,.7-.18,.98-.16,.29,.03,.6,.13,.94,.33,.36,.21,.55,.41,.56,.61,.02,.15-.11,.31-.41,.48-.03,.01-.09,.05-.19,.1-.37-.1-.88-.3-1.53-.59Zm.7,1.07c-.31,.18-.59,.3-.83,.35-.31,.06-.64,.06-.97,.01-.33-.06-.63-.16-.91-.32s-.44-.32-.46-.48c-.01-.16,.08-.29,.27-.4,.13-.07,.27-.12,.44-.14,.17-.02,.34-.01,.51,.03,.18,.04,.43,.13,.77,.28,.6,.25,1.08,.43,1.44,.52l-.27,.15Z"/>
    <path class="cls-1" d="M290.94,254.52l-.63,.2c.19,.11,.31,.19,.37,.26,.05,.07,.08,.12,.07,.16,0,.04-.03,.07-.08,.1-.07,.04-.18,.06-.31,.04-.17-.02-.37-.1-.63-.24-.08-.05-.2-.12-.36-.23l-.52,.24c.14,.11,.31,.23,.53,.36,.39,.22,.75,.34,1.09,.37,.34,.02,.61-.02,.81-.14,.14-.08,.2-.19,.2-.32,0-.13-.1-.27-.29-.41l.21-.06c.45,.25,.95,.39,1.52,.41,.59,.02,1.17-.08,1.74-.32l-.62-.45c-.41,.17-.8,.25-1.16,.24-.36,0-.68-.09-.96-.25-.35-.2-.51-.44-.47-.72,.04-.27,.34-.57,.91-.9s1.08-.5,1.56-.52c.48-.02,.91,.08,1.27,.29,.24,.14,.37,.3,.39,.48,.03,.18-.06,.37-.28,.57l.81,.34c.34-.3,.48-.6,.41-.9-.06-.3-.31-.58-.77-.85-.36-.21-.79-.35-1.27-.44-.48-.08-.97-.06-1.46,.05-.49,.11-.96,.3-1.42,.56-.71,.41-1.07,.82-1.1,1.24-.02,.3,.13,.58,.42,.83Z"/>
    <path class="cls-1" d="M297.68,255.55c-.32-.14-.57-.24-.74-.3-.24-.08-.49-.14-.75-.16-.26-.03-.52-.02-.79,.02-.26,.05-.5,.13-.71,.25-.35,.2-.52,.44-.5,.71,.02,.28,.27,.55,.74,.82,.28,.16,.59,.29,.93,.38,.34,.09,.75,.15,1.25,.17-.18,.13-.31,.25-.39,.38l.75,.44c.07-.15,.17-.28,.32-.4,.14-.12,.55-.37,1.22-.76l.96-.55c.32-.18,.52-.32,.63-.4,.15-.14,.24-.28,.26-.41,.02-.14-.04-.29-.18-.47-.14-.18-.38-.37-.74-.58s-.73-.36-1.1-.47c-.37-.1-.73-.14-1.06-.12-.33,.02-.68,.1-1.05,.23l.61,.47c.37-.13,.7-.18,.98-.16,.29,.03,.6,.13,.94,.33,.36,.21,.55,.41,.56,.61,.02,.15-.11,.31-.41,.48-.03,.01-.09,.05-.19,.1-.37-.1-.88-.3-1.53-.59Zm.7,1.07c-.31,.18-.59,.3-.83,.35-.32,.06-.64,.06-.97,.01-.33-.06-.64-.16-.91-.32s-.44-.32-.46-.48c-.01-.16,.08-.29,.27-.4,.13-.07,.27-.12,.44-.14,.17-.02,.34-.01,.52,.03,.18,.04,.43,.13,.77,.28,.6,.25,1.08,.43,1.44,.52l-.27,.15Z"/>
    <path class="cls-1" d="M299.96,253.74c.11,0,.22,.02,.31,.07,.08,.05,.16,.15,.25,.3,.12,.25,.27,.42,.43,.52,.22,.13,.48,.19,.77,.18,.3,0,.6-.09,.92-.25l-.52-.3c-.16,.07-.29,.11-.38,.11-.09,0-.17-.03-.26-.07-.09-.05-.18-.15-.26-.29-.14-.25-.29-.42-.45-.52-.24-.14-.51-.2-.83-.19-.32,0-.62,.09-.89,.25l.53,.31c.12-.07,.24-.11,.37-.12Z"/>
    <path class="cls-1" d="M299.99,259.8c.37,.21,.8,.36,1.28,.44,.48,.08,.96,.08,1.43-.01,.48-.08,.99-.28,1.53-.59,.67-.39,1.02-.8,1.03-1.23,.01-.43-.27-.82-.86-1.15-.52-.3-1.12-.47-1.8-.5-.81-.04-1.61,.17-2.39,.63-.72,.41-1.08,.84-1.09,1.27,0,.43,.29,.81,.87,1.15Zm2.53-2.49c.51-.02,.94,.08,1.3,.28s.51,.45,.48,.74c-.03,.29-.31,.59-.83,.89-.56,.32-1.09,.49-1.6,.51-.51,.02-.93-.07-1.29-.28s-.52-.45-.49-.75c.03-.29,.32-.59,.86-.9s1.06-.48,1.56-.5Z"/>
    <polygon class="cls-1" points="262.25 246.43 260.04 245.16 259.33 245.57 261.53 246.85 262.25 246.43"/>
    <polygon class="cls-1" points="268.03 251.18 269.55 246.76 268.76 246.31 262.92 249.68 263.66 250.1 268.25 247.45 266.73 251.88 267.52 252.33 273.36 248.96 272.62 248.53 268.03 251.18"/>
    <path class="cls-1" d="M274.77,251.52c-.52-.3-1.12-.47-1.8-.5-.81-.04-1.61,.17-2.39,.63-.72,.41-1.08,.84-1.09,1.27,0,.43,.28,.81,.87,1.15,.37,.21,.8,.36,1.28,.44,.48,.08,.96,.08,1.43-.01,.48-.09,.99-.28,1.53-.6,.67-.39,1.02-.8,1.03-1.23,.01-.43-.27-.82-.86-1.15Zm-2.54,2.49c-.51,.02-.93-.07-1.29-.28s-.52-.45-.49-.75c.03-.29,.32-.59,.86-.9s1.06-.48,1.56-.5c.51-.02,.94,.08,1.3,.28s.51,.45,.48,.74c-.03,.29-.31,.59-.83,.89-.56,.32-1.09,.49-1.6,.51Z"/>
    <path class="cls-1" d="M278.28,258.54l.72,.41,2.91-1.68c.48-.28,.72-.55,.73-.81,0-.27-.2-.52-.62-.76-.54-.31-1.22-.42-2.04-.33,.14-.18,.18-.37,.11-.56-.07-.19-.26-.37-.57-.55-.28-.16-.6-.27-.95-.32-.34-.06-.69-.06-1.03-.02l.6-.35-.64-.37-4.23,2.44,.72,.41,2.2-1.27c.38-.22,.71-.37,.99-.44,.29-.07,.57-.09,.84-.06,.28,.03,.52,.11,.73,.23,.27,.16,.38,.31,.34,.47-.05,.16-.23,.33-.54,.52l-2.75,1.59,.72,.41,2.46-1.42c.43-.25,.85-.38,1.24-.38,.4,0,.74,.08,1.04,.25,.17,.1,.27,.2,.31,.32,.05,.11,.03,.22-.06,.32-.08,.1-.25,.23-.54,.4l-2.67,1.54Z"/>
    <path class="cls-1" d="M284.97,260.94l-.65-.48c-.41,.11-.78,.16-1.1,.13-.32-.03-.61-.12-.87-.27-.36-.21-.53-.45-.52-.73,0-.28,.24-.56,.68-.84l3.15,1.82,.19-.11c.7-.4,1.06-.82,1.09-1.24,.03-.43-.24-.81-.81-1.14s-1.25-.5-2.01-.48c-.76,.01-1.5,.23-2.21,.64s-1.04,.81-1.06,1.24c-.01,.43,.29,.83,.91,1.18,.49,.28,1.01,.45,1.56,.49,.56,.04,1.11-.02,1.66-.2Zm-.6-2.81c.45,0,.84,.1,1.17,.29,.37,.21,.53,.46,.48,.75-.03,.19-.21,.39-.53,.62l-2.36-1.36c.39-.2,.81-.3,1.25-.3Z"/>
    <path class="cls-1" d="M294.14,260.84c-.31-.18-.62-.29-.9-.32-.29-.03-.56-.02-.82,.05-.19,.05-.43,.16-.71,.32l-.45,.26-.63-.37-.56,.32,.63,.37-3.67,2.12,.72,.41,3.67-2.12,.82,.47,.56-.32-.82-.47,.39-.22c.26-.15,.47-.23,.65-.23,.18,0,.39,.06,.61,.19,.13,.07,.25,.16,.38,.26l.74-.3c-.2-.17-.4-.31-.6-.43Z"/>
    <path class="cls-1" d="M295.17,263.3c-.52-.3-1.12-.47-1.8-.5-.81-.04-1.61,.17-2.39,.63-.72,.41-1.08,.84-1.09,1.27,0,.43,.28,.81,.87,1.15,.37,.21,.8,.36,1.28,.44,.48,.08,.96,.08,1.43-.01,.48-.08,.99-.28,1.53-.59,.67-.39,1.02-.8,1.03-1.23,.01-.43-.27-.82-.86-1.15Zm-2.54,2.49c-.51,.02-.93-.07-1.29-.28s-.52-.45-.49-.75c.03-.29,.32-.59,.86-.9s1.06-.48,1.56-.5c.51-.02,.94,.08,1.3,.28s.51,.45,.48,.74c-.03,.29-.31,.59-.83,.89-.56,.32-1.09,.49-1.6,.51Z"/>
    <path class="cls-1" d="M296.6,266.56c.3-.17,.62-.31,.96-.41,.21-.07,.43-.09,.64-.07,.23,.02,.42,.07,.57,.16,.18,.1,.3,.23,.38,.4l.91-.24c-.1-.23-.27-.42-.51-.56-.17-.1-.37-.16-.61-.18-.23-.03-.58,0-1.04,.08l.64-.37-.64-.37-4.23,2.44,.72,.41,2.22-1.28Z"/>
    <path class="cls-1" d="M303.38,268.62c.04-.15,0-.31-.12-.48-.12-.17-.3-.33-.56-.48-.59-.34-1.27-.47-2.03-.38l.6-.35-.65-.38-4.23,2.44,.72,.41,2.31-1.33c.55-.31,1.02-.46,1.44-.45,.42,.02,.79,.11,1.09,.29,.19,.11,.31,.23,.37,.36,.05,.13,.04,.25-.05,.37-.09,.12-.28,.26-.57,.43l-2.58,1.49,.72,.41,2.6-1.5c.33-.19,.55-.33,.66-.42,.16-.14,.26-.29,.29-.44Z"/>
    <path class="cls-1" d="M306.98,270.12c-.58-.34-1.26-.5-2.01-.48-.76,.01-1.5,.23-2.21,.64s-1.04,.81-1.06,1.24c-.01,.43,.29,.83,.91,1.18,.49,.28,1.01,.45,1.56,.49,.56,.04,1.11-.02,1.66-.2l-.65-.48c-.41,.11-.78,.16-1.1,.13-.32-.03-.61-.12-.87-.27-.36-.21-.53-.45-.52-.73,0-.28,.24-.56,.68-.84l3.16,1.82,.19-.11c.7-.4,1.06-.82,1.08-1.24,.03-.43-.24-.81-.81-1.14Zm-3,.35c.39-.2,.81-.3,1.25-.3,.45,0,.84,.1,1.17,.29,.37,.21,.53,.46,.48,.75-.03,.19-.21,.39-.53,.62l-2.36-1.36Z"/>
    <path class="cls-1" d="M308.61,275.18c-.36,0-.68-.09-.96-.25-.35-.2-.51-.44-.47-.72,.04-.27,.35-.57,.91-.9s1.09-.5,1.56-.52c.48-.02,.91,.08,1.27,.29,.24,.14,.37,.3,.39,.48,.03,.18-.06,.37-.28,.57l.81,.34c.34-.3,.48-.6,.41-.9-.06-.3-.31-.58-.77-.85-.36-.21-.79-.35-1.27-.44-.48-.08-.97-.06-1.46,.05-.49,.11-.96,.3-1.42,.56-.71,.41-1.07,.82-1.1,1.24-.03,.42,.25,.79,.84,1.13,.46,.27,.98,.41,1.57,.44,.59,.02,1.17-.08,1.74-.32l-.62-.45c-.41,.17-.8,.25-1.16,.24Z"/>
    <path class="cls-1" d="M315.59,275.09c-.58-.34-1.26-.5-2.01-.48-.76,.01-1.5,.23-2.21,.64s-1.04,.81-1.06,1.24c-.01,.43,.29,.83,.91,1.18,.49,.28,1.01,.45,1.56,.49,.56,.04,1.11-.02,1.66-.2l-.65-.48c-.41,.11-.77,.16-1.1,.13-.32-.03-.61-.12-.87-.27-.36-.21-.53-.45-.52-.73,0-.28,.24-.56,.68-.84l3.15,1.82,.19-.11c.7-.4,1.06-.82,1.09-1.24,.03-.43-.24-.81-.81-1.14Zm-3,.35c.39-.2,.81-.3,1.25-.3,.45,0,.84,.1,1.17,.29,.37,.21,.53,.46,.48,.75-.03,.19-.21,.39-.53,.62l-2.36-1.36Z"/>
    <path class="cls-1" d="M322.61,277.39l-2.1,1.21c.04-.17,.01-.35-.08-.53-.09-.18-.25-.34-.51-.48-.35-.2-.76-.33-1.22-.39-.46-.06-.94-.03-1.43,.09-.49,.12-.94,.3-1.35,.54-.44,.25-.75,.52-.93,.8-.17,.28-.21,.56-.11,.83,.1,.27,.31,.5,.65,.7,.52,.3,1.12,.41,1.81,.32l-.53,.31,.66,.38,5.84-3.37-.71-.41Zm-5.24,2.71c-.47,.02-.86-.06-1.17-.24s-.45-.41-.42-.7c.04-.29,.34-.59,.88-.9s1.07-.5,1.55-.52c.48-.03,.88,.05,1.2,.23s.46,.42,.41,.71c-.05,.29-.35,.6-.93,.93-.53,.31-1.03,.47-1.51,.49Z"/>
    <path class="cls-1" d="M320.23,282.87c.37,.21,.8,.36,1.28,.44,.48,.08,.96,.08,1.43-.01,.48-.09,.99-.28,1.53-.59,.67-.39,1.02-.8,1.03-1.23,.01-.43-.27-.82-.86-1.15-.52-.3-1.12-.47-1.8-.5-.81-.04-1.61,.17-2.39,.63-.72,.41-1.08,.84-1.09,1.27,0,.43,.28,.81,.87,1.15Zm2.53-2.49c.51-.02,.94,.08,1.3,.28s.51,.45,.48,.74c-.03,.3-.31,.59-.83,.89-.56,.32-1.09,.49-1.6,.51-.51,.02-.93-.07-1.29-.28s-.52-.45-.49-.75c.03-.29,.32-.59,.86-.9s1.06-.48,1.56-.5Z"/>
    <path class="cls-1" d="M326.07,283.58c.3-.17,.62-.31,.96-.41,.21-.07,.43-.09,.64-.07,.23,.02,.42,.07,.57,.16,.18,.1,.3,.23,.38,.4l.91-.24c-.1-.23-.27-.42-.52-.56-.17-.1-.37-.16-.61-.18-.23-.03-.57,0-1.04,.08l.64-.37-.64-.37-4.23,2.44,.72,.41,2.22-1.28Z"/>
    <polygon class="cls-1" points="252.54 252.04 250.33 250.77 249.61 251.18 251.82 252.46 252.54 252.04"/>
    <polygon class="cls-1" points="258.32 256.79 259.84 252.37 259.05 251.91 253.21 255.29 253.95 255.71 258.54 253.06 257.02 257.48 257.81 257.94 263.65 254.57 262.91 254.14 258.32 256.79"/>
    <path class="cls-1" d="M265.91,255.76c-.39-.22-.84-.33-1.35-.31-.51,.01-1,.15-1.48,.43s-.71,.55-.73,.84c-.01,.29,.17,.55,.56,.77s.82,.32,1.33,.31c.51-.01,1-.16,1.47-.42s.71-.55,.73-.84c.02-.3-.15-.56-.53-.78Zm-1.72,1.59c-.29,.01-.54-.05-.74-.16s-.32-.27-.29-.43c.02-.16,.2-.34,.54-.54s.65-.3,.93-.31c.28-.01,.53,.04,.75,.17,.21,.12,.3,.26,.28,.43-.02,.17-.19,.34-.51,.53-.35,.2-.67,.31-.96,.32Z"/>
    <path class="cls-1" d="M271.14,260.97c-.09-.27-.32-.5-.68-.71-.28-.16-.57-.26-.87-.31-.3-.05-.63-.06-1-.03l.55-.32-.65-.38-5.85,3.38,.72,.41,2.06-1.19c-.03,.16,0,.32,.08,.49,.09,.16,.26,.32,.5,.46,.33,.19,.74,.32,1.21,.38,.48,.06,.96,.04,1.46-.07,.51-.11,.98-.29,1.41-.54,.4-.23,.7-.49,.9-.76,.2-.28,.26-.55,.17-.82Zm-3.38,1.68c-.5,.03-.91-.06-1.22-.24s-.45-.41-.41-.69c.04-.28,.33-.57,.87-.89s1.07-.49,1.59-.52c.53-.03,.94,.05,1.25,.22s.43,.41,.39,.69c-.04,.28-.34,.58-.87,.89-.57,.33-1.1,.5-1.59,.53Z"/>
    <path class="cls-1" d="M274.85,262.79c-.58-.34-1.26-.5-2.01-.48-.76,.01-1.5,.23-2.21,.64s-1.04,.81-1.06,1.24c-.01,.43,.29,.83,.91,1.18,.49,.28,1.01,.45,1.56,.49,.56,.04,1.11-.02,1.66-.2l-.65-.48c-.41,.11-.77,.16-1.1,.13-.32-.03-.61-.12-.87-.27-.36-.21-.53-.45-.52-.73,0-.28,.24-.56,.68-.84l3.15,1.82,.19-.11c.7-.4,1.06-.82,1.09-1.24,.03-.43-.24-.81-.81-1.14Zm-3,.35c.39-.2,.81-.3,1.25-.3,.45,0,.84,.1,1.17,.29,.37,.21,.53,.46,.48,.75-.03,.19-.21,.39-.53,.62l-2.36-1.36Z"/>
    <path class="cls-1" d="M279.78,266.3c.04-.17,.01-.35-.08-.53-.09-.18-.25-.34-.51-.48-.35-.2-.76-.33-1.22-.39-.46-.06-.94-.03-1.43,.09-.49,.12-.94,.3-1.35,.54-.44,.25-.75,.52-.93,.8-.17,.28-.21,.56-.11,.83,.1,.27,.31,.5,.65,.7,.52,.3,1.12,.41,1.81,.32l-.53,.31,.66,.38,5.84-3.37-.71-.41-2.1,1.21Zm-3.15,1.5c-.47,.02-.86-.06-1.17-.24s-.45-.41-.42-.7c.04-.29,.34-.59,.88-.9s1.07-.5,1.55-.52c.48-.03,.88,.05,1.2,.23s.46,.42,.41,.71c-.05,.29-.35,.6-.93,.93-.53,.31-1.03,.47-1.51,.49Z"/>
    <polygon class="cls-1" points="282.88 266.63 283.6 267.04 284.43 266.57 283.71 266.15 282.88 266.63"/>
    <polygon class="cls-1" points="277.87 269.52 278.59 269.94 282.82 267.5 282.1 267.08 277.87 269.52"/>
    <path class="cls-1" d="M286.12,269.96c.04-.17,.01-.35-.08-.53-.09-.18-.26-.34-.51-.48-.35-.2-.76-.33-1.22-.39-.46-.06-.94-.03-1.42,.09-.49,.12-.94,.3-1.35,.54-.44,.25-.75,.52-.93,.8-.17,.28-.21,.56-.11,.83,.1,.27,.31,.5,.65,.7,.52,.3,1.12,.41,1.81,.32l-.53,.31,.66,.38,5.84-3.37-.71-.41-2.1,1.21Zm-3.15,1.5c-.47,.02-.86-.06-1.17-.24s-.46-.41-.42-.7c.04-.29,.34-.59,.88-.9s1.07-.5,1.55-.52c.48-.03,.88,.05,1.2,.23s.46,.42,.4,.71c-.05,.29-.35,.6-.93,.93-.53,.31-1.03,.47-1.51,.49Z"/>
    <path class="cls-1" d="M290.26,271.68c-.52-.3-1.12-.47-1.8-.5-.81-.04-1.61,.17-2.39,.63-.72,.41-1.08,.84-1.1,1.27,0,.43,.29,.81,.87,1.15,.37,.21,.8,.36,1.28,.44,.48,.08,.96,.08,1.43-.01,.48-.08,.99-.28,1.53-.59,.67-.39,1.02-.8,1.03-1.23,.01-.43-.27-.82-.86-1.15Zm-2.54,2.49c-.51,.02-.93-.07-1.29-.28s-.52-.45-.49-.75c.03-.29,.32-.59,.86-.9s1.06-.48,1.56-.5c.51-.02,.94,.08,1.3,.28s.51,.45,.48,.74c-.03,.29-.31,.59-.83,.89-.56,.32-1.09,.49-1.6,.51Z"/>
  </g>
  <g>
    <path class="cls-1" d="M623.45,444.34c2.91,1.69,6.74,2.53,10.57,2.53,3.83,0,7.66-.84,10.57-2.53,2.92-1.69,4.53-3.96,4.53-6.4s-1.61-4.72-4.53-6.4c-5.83-3.37-15.31-3.37-21.14,0-2.92,1.69-4.53,3.96-4.53,6.4s1.61,4.72,4.53,6.4Zm6.04,1.11c2.94-.57,6.13-.57,9.07,0-2.94,.57-6.13,.57-9.07,0Zm-5.54-13.05c2.78-1.61,6.42-2.41,10.07-2.41s7.29,.8,10.07,2.41c2.6,1.5,4.03,3.47,4.03,5.54s-1.43,4.04-4.03,5.54c-1.03,.59-2.18,1.08-3.4,1.45-4.19-1.21-9.15-1.21-13.34,0-1.22-.37-2.37-.86-3.4-1.45-2.6-1.5-4.03-3.47-4.03-5.54s1.43-4.04,4.03-5.54Z"/>
    <path class="cls-1" d="M647.28,429.99c-7.31-4.23-19.22-4.23-26.53,0-3.64,2.1-5.64,4.92-5.64,7.94,0,0,0,.02,0,.03,0,0,0,0,0,.01v4.82s0,.02,0,.03c.06,6.1,8.51,11.06,18.9,11.06s18.84-4.95,18.9-11.06c0,0,0-.02,0-.03v-4.82s0,0,0,0c0-.01,0-.02,0-.03,0-3.02-2-5.84-5.64-7.94Zm-26.03,.87c3.52-2.03,8.14-3.05,12.76-3.05s9.25,1.02,12.76,3.05c3.32,1.91,5.14,4.43,5.14,7.08,0,2.65-1.83,5.17-5.14,7.08-7.04,4.07-18.49,4.06-25.53,0-3.32-1.91-5.14-4.43-5.14-7.08s1.83-5.16,5.14-7.08Zm30.67,11.9c0,5.58-8.03,10.12-17.9,10.12s-17.91-4.54-17.91-10.12v-1.25c.93,1.64,2.49,3.13,4.64,4.37,3.66,2.11,8.46,3.17,13.26,3.17,4.8,0,9.61-1.06,13.26-3.17,2.15-1.24,3.71-2.73,4.64-4.37v1.25Z"/>
    <path class="cls-1" d="M596.74,437.93c0,.84,.09,1.67,.25,2.5,0,.02,0,.04,.01,.07,.97,4.87,4.7,9.37,10.76,12.87,7.24,4.18,16.74,6.26,26.25,6.26,9.5,0,19.01-2.09,26.25-6.26,6.06-3.49,9.79-7.99,10.76-12.86,0-.03,.01-.05,.02-.08,.16-.82,.25-1.65,.25-2.49,0-5.85-3.92-11.33-11.02-15.43-14.48-8.35-38.03-8.35-52.5,0-7.11,4.1-11.02,9.58-11.02,15.43Zm63.03,14.57c-14.2,8.19-37.3,8.19-51.5,0-5.78-3.33-9.34-7.58-10.27-12.15,2.15-10.44,17.6-18.3,36.02-18.3s33.86,7.86,36.02,18.3c-.93,4.57-4.49,8.82-10.27,12.15Zm-51.5-29.13c7.1-4.1,16.43-6.14,25.75-6.14s18.65,2.05,25.75,6.14c6.71,3.87,10.44,8.97,10.52,14.39-3.91-9.68-18.79-16.71-36.27-16.71s-32.36,7.03-36.27,16.71c.08-5.41,3.8-10.52,10.52-14.39Z"/>
    <path class="cls-1" d="M622.79,502.17c-2.56-1.48-6.58-1.48-9.14,0-1.31,.76-2.04,1.81-2.04,2.94s.72,2.17,2.04,2.94c1.28,.74,2.93,1.11,4.57,1.11s3.29-.37,4.57-1.11c1.31-.76,2.04-1.81,2.04-2.94s-.72-2.17-2.04-2.94Zm-.5,5.01c-2.24,1.3-5.89,1.3-8.14,0-.99-.58-1.54-1.31-1.54-2.07s.55-1.5,1.54-2.07c2.24-1.3,5.89-1.3,8.14,0,.99,.58,1.54,1.31,1.54,2.07s-.55,1.49-1.54,2.07Z"/>
    <path class="cls-1" d="M507.96,446.95c1.28,.74,2.93,1.11,4.57,1.11s3.29-.37,4.57-1.11c1.32-.76,2.04-1.81,2.04-2.94s-.72-2.18-2.04-2.94c-2.56-1.49-6.58-1.49-9.14,0-1.31,.76-2.04,1.8-2.04,2.94s.72,2.18,2.04,2.94Zm.5-5.01c1.12-.65,2.59-.98,4.07-.98s2.95,.33,4.07,.98c.99,.58,1.54,1.31,1.54,2.07s-.55,1.5-1.54,2.07c-2.24,1.3-5.89,1.3-8.14,0-.99-.58-1.54-1.31-1.54-2.07s.55-1.5,1.54-2.07Z"/>
    <path class="cls-1" d="M592.48,398.15c1.28,.74,2.93,1.11,4.57,1.11s3.29-.37,4.57-1.11c1.32-.76,2.04-1.81,2.04-2.94,0-1.13-.73-2.17-2.04-2.93-2.56-1.48-6.58-1.48-9.14,0-1.31,.76-2.04,1.8-2.04,2.93,0,1.13,.72,2.18,2.04,2.94Zm.5-5.01s0,0,0,0c1.12-.65,2.59-.97,4.07-.97s2.95,.32,4.07,.98c.99,.57,1.54,1.31,1.54,2.07,0,.76-.55,1.5-1.54,2.07-2.24,1.3-5.9,1.3-8.14,0-.99-.58-1.54-1.31-1.54-2.07,0-.76,.55-1.49,1.54-2.07Z"/>
    <path class="cls-1" d="M764.17,464.24l-59.93-34.56-108.49-62.73-43.43-25.06-16.48-9.56c-.93-.53-1.99-.81-3.08-.81-2.2,0-4.46,1.1-6.35,3.1-2.25,2.39-3.66,5.7-3.67,8.65l-.04,18.38c-.41-.55-.91-1.03-1.48-1.41l-.11-.07-.11-.07-16.61-9.64c-.93-.54-1.99-.82-3.08-.82-3.04,0-6.18,2.14-8.21,5.58l-.02,.03-.05,.08-.05,.08-43.43,75.19-.54,.93v18.4l2,1.16,184.92,106.86,2,1.16,2-1.16,124.22-71.76,2-1.15v-19.64l-2-1.15Zm-267.22-106.67c1.41-2.43,3.65-3.86,5.02-3.27,.04,.05,.09,.09,.15,.13l14.62,8.48c-1.46,.46-2.98,1.79-4.06,3.59-.06,.04-.12,.09-.16,.16l-43.18,74.83-15.63-9.07,43.18-74.75s.01-.04,.02-.05c.01-.02,.03-.02,.04-.04Zm36.47-21.42c.04,.05,.09,.1,.15,.14l14.69,8.45c-.93,.27-1.91,.9-2.81,1.85-1.63,1.72-2.69,4.16-2.7,6.23,0,.03-.02,.05-.02,.08v45.83l-15.58-8.92v-46.27c.05-.08,.09-.17,.09-.27,0-1.8,.98-4.04,2.43-5.57,1.29-1.37,2.76-1.96,3.74-1.55Zm104.35,202.62l-15.63-9.07,43.13-74.73s.09-.06,.12-.11c1.41-2.43,3.66-3.86,5.02-3.27,.04,.05,.09,.1,.15,.13l14.69,8.45c-1.48,.44-3.03,1.79-4.13,3.62-.06,.04-.12,.09-.16,.16l-43.18,74.83Zm-117.48-125.36s.03-.03,.05-.04c.03-.02,.05-.04,.08-.07,.02-.02,.04-.05,.05-.08,.02-.03,.03-.05,.04-.09,.01-.03,.02-.07,.02-.1,0-.02,.01-.04,.01-.06v-18.78l6.11-3.52,16.33,9.35s0,0,0,0c.08,.04,.16,.07,.25,.07s.17-.02,.25-.07h0s50.26-29.04,50.26-29.04l106.35,61.49c-.9,.28-1.85,.9-2.72,1.82-1.64,1.73-2.7,4.19-2.71,6.26,0,0,0,0,0,0,0,.02-.01,.03-.01,.05v46.78c0,.18,.1,.34,.25,.43l15.75,9.06-21.62,12.51v-45.91s-.01-.05-.01-.07c0-1.19-.37-2.17-1.04-2.77-.15-.14-.32-.25-.5-.35l-16.25-9.35c-.04-.07-.1-.14-.17-.18-1.85-1.07-4.67,.44-6.47,3.44-.06,.04-.11,.09-.14,.15l-43.18,74.83-150.74-87.03,49.76-28.75Zm29.76-67.64h.01s42.68,24.64,42.68,24.64l-49.01,28.32v-45.81s.01-.05,.01-.07c0-1.8,.98-4.04,2.43-5.57,1.36-1.44,2.91-2.03,3.88-1.5Zm151.94,87.8s0,0,0,0l14.69,8.45c-.93,.27-1.91,.9-2.81,1.85-1.6,1.69-2.64,4.07-2.69,6.1-.01,.04-.03,.08-.03,.12v45.92l-15.5-8.92v-46.49h0s0-.03,0-.05c0-1.8,.98-4.04,2.43-5.57,1.19-1.26,2.53-1.87,3.5-1.64l.39,.23Zm-63.54,106.01l43.3-75.03s.1-.07,.13-.13c1.09-1.9,2.76-3.27,4.14-3.41,.37-.04,.7,.02,.98,.16l.05,.03s.01,0,.02,0c.09,.05,.18,.11,.26,.18,.46,.42,.71,1.15,.71,2.07,0,.02,0,.03,.01,.05v46.75c0,.18,.1,.34,.25,.43,.08,.04,.16,.07,.25,.07s.17-.02,.25-.07l23.12-13.38c.07-.04,.13-.1,.17-.17,0,0,0,0,.01-.01,.04-.07,.06-.15,.06-.23,0,0,0-.02,0-.02v-46.67s.02-.05,.02-.08c0-1.8,.97-4.04,2.43-5.57,1.36-1.44,2.91-2.03,3.88-1.5h.01s43.18,24.93,43.18,24.93v14.44l-123.22,71.18v-14.02Zm-118.91-173.38v46.48l-48.65,28.11,42.43-73.53s.1-.08,.13-.13c1.09-1.9,2.76-3.27,4.14-3.41,.23-.02,.44,0,.64,.04l.38,.22c.06,.03,.12,.04,.19,.05,.03,.02,.06,.04,.09,.06,.43,.39,.67,1.06,.7,1.89-.03,.07-.05,.14-.05,.21Zm-66.01,67.26l15.75,9.14s0,0,0,0c0,0,0,0,0,0l151.92,87.71,16.25,9.43v13.87l-183.92-106.28v-13.87Z"/>
  </g>
</svg>