<svg width="2872" height="455" viewBox="0 0 2872 455" fill="none" xmlns="http://www.w3.org/2000/svg">
<path fill-rule="evenodd" clip-rule="evenodd" d="M227 454C352.369 454 454 352.369 454 227C454 101.631 352.369 0 227 0C101.631 0 0 101.631 0 227C0 352.369 101.631 454 227 454ZM145.327 240.895C132.852 244.133 120.772 249.419 111.658 258.533L111.665 258.54C89.1269 281.918 89.3868 319.141 112.445 342.199C135.503 365.258 172.727 365.517 196.104 342.979L196.111 342.986C205.225 333.872 210.511 321.793 213.749 309.317C219.525 287.06 231.131 266.002 248.567 248.567C266.19 230.944 287.513 219.276 310.036 213.565C322.064 210.515 333.687 205.41 342.462 196.636L342.461 196.635C365.52 173.294 365.433 135.679 342.199 112.445C318.966 89.2115 281.351 89.1243 258.009 112.184L258.009 112.183C249.234 120.957 244.13 132.581 241.08 144.609C235.368 167.131 223.701 188.455 206.078 206.078C188.642 223.513 167.585 235.119 145.327 240.895ZM182.49 299.973C182.49 315.337 170.035 327.791 154.672 327.791C139.308 327.791 126.853 315.337 126.853 299.973C126.853 284.609 139.308 272.154 154.672 272.154C170.035 272.154 182.49 284.609 182.49 299.973ZM272.154 154.672C272.154 170.035 284.609 182.49 299.973 182.49C315.337 182.49 327.791 170.035 327.791 154.672C327.791 139.308 315.337 126.853 299.973 126.853C284.609 126.853 272.154 139.308 272.154 154.672ZM192.14 143.51C192.14 169.838 170.797 191.18 144.469 191.18C118.142 191.18 96.799 169.838 96.799 143.51C96.799 117.183 118.142 95.8399 144.469 95.8399C170.797 95.8399 192.14 117.183 192.14 143.51ZM311.315 358.026C337.643 358.026 358.985 336.684 358.985 310.356C358.985 284.029 337.643 262.686 311.315 262.686C284.988 262.686 263.645 284.029 263.645 310.356C263.645 336.684 284.988 358.026 311.315 358.026Z" fill="white"/>
<path d="M670.336 207.06V4.06H753.856C766.616 4.06 777.829 6.67 787.496 11.89C797.356 16.9167 804.993 24.07 810.406 33.35C816.013 42.63 818.816 53.65 818.816 66.41V70.47C818.816 83.0367 815.916 94.0567 810.116 103.53C804.509 112.81 796.776 120.06 786.916 125.28C777.249 130.307 766.229 132.82 753.856 132.82H708.616V207.06H670.336ZM708.616 98.02H750.086C759.173 98.02 766.519 95.5067 772.126 90.48C777.733 85.4533 780.536 78.59 780.536 69.89V66.99C780.536 58.29 777.733 51.4267 772.126 46.4C766.519 41.3733 759.173 38.86 750.086 38.86H708.616V98.02Z" fill="white"/>
<path d="M878.706 207.06V4.06H1009.21V38.86H916.986V87.29H1001.09V122.09H916.986V172.26H1010.95V207.06H878.706Z" fill="white"/>
<path d="M1072.63 207.06V4.06H1203.13V38.86H1110.91V87.29H1195.01V122.09H1110.91V172.26H1204.87V207.06H1072.63Z" fill="white"/>
<path d="M1266.56 207.06V4.06H1354.72C1367.48 4.06 1378.59 6.28333 1388.07 10.73C1397.54 15.1767 1404.89 21.46 1410.11 29.58C1415.33 37.7 1417.94 47.27 1417.94 58.29V61.77C1417.94 73.95 1415.04 83.81 1409.24 91.35C1403.44 98.89 1396.28 104.4 1387.78 107.88V113.1C1395.51 113.487 1401.5 116.193 1405.76 121.22C1410.01 126.053 1412.14 132.53 1412.14 140.65V207.06H1373.86V146.16C1373.86 141.52 1372.6 137.75 1370.09 134.85C1367.77 131.95 1363.8 130.5 1358.2 130.5H1304.84V207.06H1266.56ZM1304.84 95.7H1350.66C1359.74 95.7 1366.8 93.2833 1371.83 88.45C1377.05 83.4233 1379.66 76.85 1379.66 68.73V65.83C1379.66 57.71 1377.14 51.2333 1372.12 46.4C1367.09 41.3733 1359.94 38.86 1350.66 38.86H1304.84V95.7Z" fill="white"/>
<path d="M1477.34 207.06V173.42H1504.02V37.7H1477.34V4.06H1560.86C1588.12 4.06 1608.81 11.02 1622.92 24.94C1637.23 38.6667 1644.38 59.16 1644.38 86.42V124.7C1644.38 151.96 1637.23 172.55 1622.92 186.47C1608.81 200.197 1588.12 207.06 1560.86 207.06H1477.34ZM1542.3 172.26H1561.44C1576.91 172.26 1588.22 168.2 1595.37 160.08C1602.52 151.96 1606.1 140.553 1606.1 125.86V85.26C1606.1 70.3733 1602.52 58.9667 1595.37 51.04C1588.22 42.92 1576.91 38.86 1561.44 38.86H1542.3V172.26Z" fill="white"/>
<path d="M1787.93 211.12C1771.31 211.12 1757 208.123 1745.01 202.13C1733.22 195.943 1724.13 187.243 1717.75 176.03C1711.57 164.623 1708.47 151.187 1708.47 135.72V4.06H1746.75V136.88C1746.75 149.253 1750.23 159.017 1757.19 166.17C1764.35 173.323 1774.59 176.9 1787.93 176.9C1801.27 176.9 1811.42 173.323 1818.38 166.17C1825.54 159.017 1829.11 149.253 1829.11 136.88V4.06H1867.39V135.72C1867.39 151.187 1864.2 164.623 1857.82 176.03C1851.64 187.243 1842.55 195.943 1830.56 202.13C1818.77 208.123 1804.56 211.12 1787.93 211.12Z" fill="white"/>
<path d="M2008.3 211.12C1992.64 211.12 1978.82 208.317 1966.83 202.71C1954.84 197.103 1945.47 189.08 1938.7 178.64C1931.93 168.2 1928.55 155.633 1928.55 140.94V132.82H1966.25V140.94C1966.25 153.12 1970.02 162.303 1977.56 168.49C1985.1 174.483 1995.35 177.48 2008.3 177.48C2021.45 177.48 2031.21 174.87 2037.59 169.65C2044.16 164.43 2047.45 157.76 2047.45 149.64C2047.45 144.033 2045.81 139.49 2042.52 136.01C2039.43 132.53 2034.79 129.727 2028.6 127.6C2022.61 125.28 2015.26 123.153 2006.56 121.22L1999.89 119.77C1985.97 116.677 1973.98 112.81 1963.93 108.17C1954.07 103.337 1946.43 97.0533 1941.02 89.32C1935.8 81.5867 1933.19 71.5333 1933.19 59.16C1933.19 46.7867 1936.09 36.25 1941.89 27.55C1947.88 18.6567 1956.2 11.89 1966.83 7.25001C1977.66 2.41667 1990.32 0 2004.82 0C2019.32 0 2032.18 2.51334 2043.39 7.54001C2054.8 12.3733 2063.69 19.72 2070.07 29.58C2076.64 39.2467 2079.93 51.4267 2079.93 66.12V74.82H2042.23V66.12C2042.23 58.3867 2040.68 52.2 2037.59 47.56C2034.69 42.7267 2030.44 39.2467 2024.83 37.12C2019.22 34.8 2012.55 33.64 2004.82 33.64C1993.22 33.64 1984.62 35.8633 1979.01 40.31C1973.6 44.5633 1970.89 50.46 1970.89 58C1970.89 63.0267 1972.15 67.28 1974.66 70.76C1977.37 74.24 1981.33 77.14 1986.55 79.46C1991.77 81.78 1998.44 83.81 2006.56 85.55L2013.23 87C2027.73 90.0933 2040.3 94.0567 2050.93 98.89C2061.76 103.723 2070.17 110.103 2076.16 118.03C2082.15 125.957 2085.15 136.107 2085.15 148.48C2085.15 160.853 2081.96 171.777 2075.58 181.25C2069.39 190.53 2060.5 197.877 2048.9 203.29C2037.49 208.51 2023.96 211.12 2008.3 211.12Z" fill="white"/>
<path d="M2187.51 207.06V38.86H2128.35V4.06H2284.95V38.86H2225.79V207.06H2187.51Z" fill="white"/>
<path d="M2344.37 207.06V4.06H2432.53C2445.29 4.06 2456.41 6.28333 2465.88 10.73C2475.36 15.1767 2482.7 21.46 2487.92 29.58C2493.14 37.7 2495.75 47.27 2495.75 58.29V61.77C2495.75 73.95 2492.85 83.81 2487.05 91.35C2481.25 98.89 2474.1 104.4 2465.59 107.88V113.1C2473.33 113.487 2479.32 116.193 2483.57 121.22C2487.83 126.053 2489.95 132.53 2489.95 140.65V207.06H2451.67V146.16C2451.67 141.52 2450.42 137.75 2447.9 134.85C2445.58 131.95 2441.62 130.5 2436.01 130.5H2382.65V207.06H2344.37ZM2382.65 95.7H2428.47C2437.56 95.7 2444.62 93.2833 2449.64 88.45C2454.86 83.4233 2457.47 76.85 2457.47 68.73V65.83C2457.47 57.71 2454.96 51.2333 2449.93 46.4C2444.91 41.3733 2437.75 38.86 2428.47 38.86H2382.65V95.7Z" fill="white"/>
<path d="M2608.06 207.06V137.17L2539.04 4.06H2581.67L2624.59 91.06H2629.81L2672.73 4.06H2715.36L2646.34 137.17V207.06H2608.06Z" fill="white"/>
<path d="M701.442 417.612C693.941 417.612 687.345 415.931 681.654 412.568C676.093 409.076 671.76 404.291 668.656 398.212C665.552 392.133 664 385.149 664 377.26V319.836H688.444V375.32C688.444 382.563 690.19 387.995 693.682 391.616C697.303 395.237 702.412 397.048 709.008 397.048C716.509 397.048 722.329 394.591 726.468 389.676C730.607 384.632 732.676 377.648 732.676 368.724V319.836H757.12V416.06H733.064V403.45H729.572C728.02 406.683 725.11 409.852 720.842 412.956C716.574 416.06 710.107 417.612 701.442 417.612Z" fill="white"/>
<path d="M837.865 418.776C825.32 418.776 815.038 416.06 807.019 410.628C799 405.196 794.15 397.436 792.469 387.348L814.973 381.528C815.878 386.055 817.366 389.611 819.435 392.198C821.634 394.785 824.285 396.66 827.389 397.824C830.622 398.859 834.114 399.376 837.865 399.376C843.556 399.376 847.759 398.406 850.475 396.466C853.191 394.397 854.549 391.875 854.549 388.9C854.549 385.925 853.256 383.662 850.669 382.11C848.082 380.429 843.944 379.071 838.253 378.036L832.821 377.066C826.096 375.773 819.952 374.027 814.391 371.828C808.83 369.5 804.368 366.331 801.005 362.322C797.642 358.313 795.961 353.139 795.961 346.802C795.961 337.231 799.453 329.924 806.437 324.88C813.421 319.707 822.604 317.12 833.985 317.12C844.72 317.12 853.644 319.513 860.757 324.298C867.87 329.083 872.526 335.356 874.725 343.116L852.027 350.1C850.992 345.185 848.858 341.693 845.625 339.624C842.521 337.555 838.641 336.52 833.985 336.52C829.329 336.52 825.772 337.361 823.315 339.042C820.858 340.594 819.629 342.793 819.629 345.638C819.629 348.742 820.922 351.07 823.509 352.622C826.096 354.045 829.588 355.144 833.985 355.92L839.417 356.89C846.66 358.183 853.191 359.929 859.011 362.128C864.96 364.197 869.616 367.237 872.979 371.246C876.471 375.126 878.217 380.429 878.217 387.154C878.217 397.242 874.531 405.067 867.159 410.628C859.916 416.06 850.152 418.776 837.865 418.776Z" fill="white"/>
<path d="M913.217 416.06V319.836H937.661V416.06H913.217ZM925.439 308.584C921.042 308.584 917.291 307.161 914.187 304.316C911.213 301.471 909.725 297.72 909.725 293.064C909.725 288.408 911.213 284.657 914.187 281.812C917.291 278.967 921.042 277.544 925.439 277.544C929.966 277.544 933.717 278.967 936.691 281.812C939.666 284.657 941.153 288.408 941.153 293.064C941.153 297.72 939.666 301.471 936.691 304.316C933.717 307.161 929.966 308.584 925.439 308.584Z" fill="white"/>
<path d="M978.328 416.06V319.836H1002.38V332.446H1005.88C1007.43 329.083 1010.34 325.915 1014.61 322.94C1018.87 319.836 1025.34 318.284 1034.01 318.284C1041.51 318.284 1048.04 320.03 1053.6 323.522C1059.29 326.885 1063.69 331.605 1066.79 337.684C1069.9 343.633 1071.45 350.617 1071.45 358.636V416.06H1047V360.576C1047 353.333 1045.19 347.901 1041.57 344.28C1038.08 340.659 1033.04 338.848 1026.44 338.848C1018.94 338.848 1013.12 341.37 1008.98 346.414C1004.84 351.329 1002.77 358.248 1002.77 367.172V416.06H978.328Z" fill="white"/>
<path d="M1141.33 418.776C1134.47 418.776 1128.33 417.612 1122.9 415.284C1117.47 412.827 1113.13 409.335 1109.9 404.808C1106.8 400.152 1105.25 394.526 1105.25 387.93C1105.25 381.334 1106.8 375.837 1109.9 371.44C1113.13 366.913 1117.53 363.551 1123.09 361.352C1128.78 359.024 1135.25 357.86 1142.49 357.86H1168.88V352.428C1168.88 347.901 1167.45 344.215 1164.61 341.37C1161.76 338.395 1157.24 336.908 1151.03 336.908C1144.95 336.908 1140.42 338.331 1137.45 341.176C1134.47 343.892 1132.53 347.449 1131.63 351.846L1109.13 344.28C1110.68 339.365 1113.13 334.903 1116.5 330.894C1119.99 326.755 1124.58 323.457 1130.27 321C1136.09 318.413 1143.14 317.12 1151.42 317.12C1164.09 317.12 1174.12 320.289 1181.49 326.626C1188.86 332.963 1192.55 342.146 1192.55 354.174V390.064C1192.55 393.944 1194.36 395.884 1197.98 395.884H1205.74V416.06H1189.44C1184.66 416.06 1180.71 414.896 1177.61 412.568C1174.5 410.24 1172.95 407.136 1172.95 403.256V403.062H1169.27C1168.75 404.614 1167.58 406.683 1165.77 409.27C1163.96 411.727 1161.12 413.926 1157.24 415.866C1153.36 417.806 1148.05 418.776 1141.33 418.776ZM1145.6 398.988C1152.45 398.988 1158.01 397.113 1162.28 393.362C1166.68 389.482 1168.88 384.373 1168.88 378.036V376.096H1144.24C1139.71 376.096 1136.16 377.066 1133.57 379.006C1130.98 380.946 1129.69 383.662 1129.69 387.154C1129.69 390.646 1131.05 393.491 1133.76 395.69C1136.48 397.889 1140.42 398.988 1145.6 398.988Z" fill="white"/>
<path d="M1230.64 368.336V365.232C1230.64 355.144 1232.64 346.543 1236.65 339.43C1240.66 332.187 1245.97 326.691 1252.56 322.94C1259.29 319.06 1266.59 317.12 1274.48 317.12C1283.28 317.12 1289.94 318.672 1294.47 321.776C1298.99 324.88 1302.29 328.113 1304.36 331.476H1307.85V319.836H1331.91V433.132C1331.91 439.728 1329.97 444.966 1326.09 448.846C1322.21 452.855 1317.03 454.86 1310.57 454.86H1246.16V433.52H1302.03C1305.65 433.52 1307.46 431.58 1307.46 427.7V402.674H1303.97C1302.68 404.743 1300.87 406.877 1298.54 409.076C1296.21 411.145 1293.11 412.891 1289.23 414.314C1285.35 415.737 1280.43 416.448 1274.48 416.448C1266.59 416.448 1259.29 414.573 1252.56 410.822C1245.97 406.942 1240.66 401.445 1236.65 394.332C1232.64 387.089 1230.64 378.424 1230.64 368.336ZM1281.47 395.108C1288.97 395.108 1295.24 392.715 1300.29 387.93C1305.33 383.145 1307.85 376.419 1307.85 367.754V365.814C1307.85 357.019 1305.33 350.294 1300.29 345.638C1295.37 340.853 1289.1 338.46 1281.47 338.46C1273.97 338.46 1267.69 340.853 1262.65 345.638C1257.61 350.294 1255.08 357.019 1255.08 365.814V367.754C1255.08 376.419 1257.61 383.145 1262.65 387.93C1267.69 392.715 1273.97 395.108 1281.47 395.108Z" fill="white"/>
<path d="M1416.43 418.776C1406.86 418.776 1398.39 416.771 1391.02 412.762C1383.78 408.623 1378.08 402.868 1373.95 395.496C1369.94 387.995 1367.93 379.2 1367.93 369.112V366.784C1367.93 356.696 1369.94 347.966 1373.95 340.594C1377.96 333.093 1383.58 327.337 1390.82 323.328C1398.07 319.189 1406.47 317.12 1416.04 317.12C1425.49 317.12 1433.7 319.254 1440.68 323.522C1447.67 327.661 1453.1 333.481 1456.98 340.982C1460.86 348.354 1462.8 356.955 1462.8 366.784V375.126H1392.76C1393.02 381.722 1395.48 387.089 1400.14 391.228C1404.79 395.367 1410.48 397.436 1417.21 397.436C1424.06 397.436 1429.11 395.949 1432.34 392.974C1435.57 389.999 1438.03 386.701 1439.71 383.08L1459.69 393.556C1457.88 396.919 1455.23 400.605 1451.74 404.614C1448.38 408.494 1443.85 411.857 1438.16 414.702C1432.47 417.418 1425.23 418.776 1416.43 418.776ZM1392.96 356.89H1437.97C1437.45 351.329 1435.19 346.867 1431.18 343.504C1427.3 340.141 1422.19 338.46 1415.85 338.46C1409.25 338.46 1404.02 340.141 1400.14 343.504C1396.26 346.867 1393.86 351.329 1392.96 356.89Z" fill="white"/>
<path d="M1498.13 416.06V319.836H1522.19V330.312H1525.68C1527.36 327.079 1530.14 324.298 1534.02 321.97C1537.9 319.513 1543.01 318.284 1549.35 318.284C1556.21 318.284 1561.7 319.642 1565.84 322.358C1569.98 324.945 1573.15 328.372 1575.35 332.64H1578.84C1581.04 328.501 1584.14 325.074 1588.15 322.358C1592.16 319.642 1597.85 318.284 1605.22 318.284C1611.17 318.284 1616.54 319.577 1621.32 322.164C1626.24 324.621 1630.12 328.437 1632.96 333.61C1635.94 338.654 1637.43 345.056 1637.43 352.816V416.06H1612.98V354.562C1612.98 349.259 1611.62 345.315 1608.91 342.728C1606.19 340.012 1602.38 338.654 1597.46 338.654C1591.9 338.654 1587.57 340.465 1584.46 344.086C1581.49 347.578 1580 352.622 1580 359.218V416.06H1555.56V354.562C1555.56 349.259 1554.2 345.315 1551.48 342.728C1548.77 340.012 1544.95 338.654 1540.04 338.654C1534.48 338.654 1530.14 340.465 1527.04 344.086C1524.07 347.578 1522.58 352.622 1522.58 359.218V416.06H1498.13Z" fill="white"/>
<path d="M1785.34 418.776C1776.02 418.776 1767.55 416.836 1759.92 412.956C1752.42 409.076 1746.47 403.45 1742.07 396.078C1737.68 388.706 1735.48 379.782 1735.48 369.306V366.59C1735.48 356.114 1737.68 347.19 1742.07 339.818C1746.47 332.446 1752.42 326.82 1759.92 322.94C1767.55 319.06 1776.02 317.12 1785.34 317.12C1794.52 317.12 1802.41 318.737 1809 321.97C1815.6 325.203 1820.9 329.665 1824.91 335.356C1829.05 340.917 1831.77 347.255 1833.06 354.368L1809.39 359.412C1808.88 355.532 1807.71 352.04 1805.9 348.936C1804.09 345.832 1801.5 343.375 1798.14 341.564C1794.91 339.753 1790.83 338.848 1785.92 338.848C1781 338.848 1776.54 339.947 1772.53 342.146C1768.65 344.215 1765.55 347.384 1763.22 351.652C1761.02 355.791 1759.92 360.899 1759.92 366.978V368.918C1759.92 374.997 1761.02 380.17 1763.22 384.438C1765.55 388.577 1768.65 391.745 1772.53 393.944C1776.54 396.013 1781 397.048 1785.92 397.048C1793.29 397.048 1798.85 395.173 1802.6 391.422C1806.48 387.542 1808.94 382.498 1809.97 376.29L1833.64 381.916C1831.96 388.771 1829.05 395.043 1824.91 400.734C1820.9 406.295 1815.6 410.693 1809 413.926C1802.41 417.159 1794.52 418.776 1785.34 418.776Z" fill="white"/>
<path d="M1913.17 418.776C1903.6 418.776 1895 416.836 1887.37 412.956C1879.74 409.076 1873.72 403.45 1869.33 396.078C1864.93 388.706 1862.73 379.847 1862.73 369.5V366.396C1862.73 356.049 1864.93 347.19 1869.33 339.818C1873.72 332.446 1879.74 326.82 1887.37 322.94C1895 319.06 1903.6 317.12 1913.17 317.12C1922.74 317.12 1931.34 319.06 1938.97 322.94C1946.6 326.82 1952.62 332.446 1957.01 339.818C1961.41 347.19 1963.61 356.049 1963.61 366.396V369.5C1963.61 379.847 1961.41 388.706 1957.01 396.078C1952.62 403.45 1946.6 409.076 1938.97 412.956C1931.34 416.836 1922.74 418.776 1913.17 418.776ZM1913.17 397.048C1920.67 397.048 1926.88 394.655 1931.79 389.87C1936.71 384.955 1939.17 377.971 1939.17 368.918V366.978C1939.17 357.925 1936.71 351.005 1931.79 346.22C1927.01 341.305 1920.8 338.848 1913.17 338.848C1905.67 338.848 1899.46 341.305 1894.55 346.22C1889.63 351.005 1887.17 357.925 1887.17 366.978V368.918C1887.17 377.971 1889.63 384.955 1894.55 389.87C1899.46 394.655 1905.67 397.048 1913.17 397.048Z" fill="white"/>
<path d="M1999.75 416.06V319.836H2023.81V332.446H2027.3C2028.85 329.083 2031.76 325.915 2036.03 322.94C2040.3 319.836 2046.77 318.284 2055.43 318.284C2062.93 318.284 2069.46 320.03 2075.03 323.522C2080.72 326.885 2085.11 331.605 2088.22 337.684C2091.32 343.633 2092.87 350.617 2092.87 358.636V416.06H2068.43V360.576C2068.43 353.333 2066.62 347.901 2063 344.28C2059.51 340.659 2054.46 338.848 2047.87 338.848C2040.36 338.848 2034.54 341.37 2030.41 346.414C2026.27 351.329 2024.2 358.248 2024.2 367.172V416.06H1999.75Z" fill="white"/>
<path d="M2176.72 418.776C2167.15 418.776 2158.68 416.771 2151.31 412.762C2144.07 408.623 2138.38 402.868 2134.24 395.496C2130.23 387.995 2128.22 379.2 2128.22 369.112V366.784C2128.22 356.696 2130.23 347.966 2134.24 340.594C2138.25 333.093 2143.87 327.337 2151.11 323.328C2158.36 319.189 2166.76 317.12 2176.33 317.12C2185.78 317.12 2193.99 319.254 2200.97 323.522C2207.96 327.661 2213.39 333.481 2217.27 340.982C2221.15 348.354 2223.09 356.955 2223.09 366.784V375.126H2153.05C2153.31 381.722 2155.77 387.089 2160.43 391.228C2165.08 395.367 2170.77 397.436 2177.5 397.436C2184.35 397.436 2189.4 395.949 2192.63 392.974C2195.86 389.999 2198.32 386.701 2200 383.08L2219.98 393.556C2218.17 396.919 2215.52 400.605 2212.03 404.614C2208.67 408.494 2204.14 411.857 2198.45 414.702C2192.76 417.418 2185.52 418.776 2176.72 418.776ZM2153.25 356.89H2198.26C2197.74 351.329 2195.48 346.867 2191.47 343.504C2187.59 340.141 2182.48 338.46 2176.14 338.46C2169.54 338.46 2164.31 340.141 2160.43 343.504C2156.55 346.867 2154.15 351.329 2153.25 356.89Z" fill="white"/>
<path d="M2303.63 418.776C2294.32 418.776 2285.84 416.836 2278.21 412.956C2270.71 409.076 2264.76 403.45 2260.37 396.078C2255.97 388.706 2253.77 379.782 2253.77 369.306V366.59C2253.77 356.114 2255.97 347.19 2260.37 339.818C2264.76 332.446 2270.71 326.82 2278.21 322.94C2285.84 319.06 2294.32 317.12 2303.63 317.12C2312.81 317.12 2320.7 318.737 2327.3 321.97C2333.89 325.203 2339.19 329.665 2343.2 335.356C2347.34 340.917 2350.06 347.255 2351.35 354.368L2327.68 359.412C2327.17 355.532 2326 352.04 2324.19 348.936C2322.38 345.832 2319.79 343.375 2316.43 341.564C2313.2 339.753 2309.12 338.848 2304.21 338.848C2299.29 338.848 2294.83 339.947 2290.82 342.146C2286.94 344.215 2283.84 347.384 2281.51 351.652C2279.31 355.791 2278.21 360.899 2278.21 366.978V368.918C2278.21 374.997 2279.31 380.17 2281.51 384.438C2283.84 388.577 2286.94 391.745 2290.82 393.944C2294.83 396.013 2299.29 397.048 2304.21 397.048C2311.58 397.048 2317.14 395.173 2320.89 391.422C2324.77 387.542 2327.23 382.498 2328.27 376.29L2351.93 381.916C2350.25 388.771 2347.34 395.043 2343.2 400.734C2339.19 406.295 2333.89 410.693 2327.3 413.926C2320.7 417.159 2312.81 418.776 2303.63 418.776Z" fill="white"/>
<path d="M2419.32 416.06C2412.98 416.06 2407.81 414.12 2403.8 410.24C2399.92 406.231 2397.98 400.928 2397.98 394.332V340.012H2373.92V319.836H2397.98V289.96H2422.42V319.836H2448.8V340.012H2422.42V390.064C2422.42 393.944 2424.23 395.884 2427.85 395.884H2446.48V416.06H2419.32Z" fill="white"/>
<path d="M2514.39 418.776C2507.53 418.776 2501.39 417.612 2495.96 415.284C2490.53 412.827 2486.19 409.335 2482.96 404.808C2479.86 400.152 2478.3 394.526 2478.3 387.93C2478.3 381.334 2479.86 375.837 2482.96 371.44C2486.19 366.913 2490.59 363.551 2496.15 361.352C2501.84 359.024 2508.31 357.86 2515.55 357.86H2541.94V352.428C2541.94 347.901 2540.51 344.215 2537.67 341.37C2534.82 338.395 2530.3 336.908 2524.09 336.908C2518.01 336.908 2513.48 338.331 2510.51 341.176C2507.53 343.892 2505.59 347.449 2504.69 351.846L2482.18 344.28C2483.74 339.365 2486.19 334.903 2489.56 330.894C2493.05 326.755 2497.64 323.457 2503.33 321C2509.15 318.413 2516.2 317.12 2524.48 317.12C2537.15 317.12 2547.17 320.289 2554.55 326.626C2561.92 332.963 2565.6 342.146 2565.6 354.174V390.064C2565.6 393.944 2567.41 395.884 2571.04 395.884H2578.8V416.06H2562.5C2557.71 416.06 2553.77 414.896 2550.67 412.568C2547.56 410.24 2546.01 407.136 2546.01 403.256V403.062H2542.32C2541.81 404.614 2540.64 406.683 2538.83 409.27C2537.02 411.727 2534.18 413.926 2530.3 415.866C2526.42 417.806 2521.11 418.776 2514.39 418.776ZM2518.66 398.988C2525.51 398.988 2531.07 397.113 2535.34 393.362C2539.74 389.482 2541.94 384.373 2541.94 378.036V376.096H2517.3C2512.77 376.096 2509.21 377.066 2506.63 379.006C2504.04 380.946 2502.75 383.662 2502.75 387.154C2502.75 390.646 2504.11 393.491 2506.82 395.69C2509.54 397.889 2513.48 398.988 2518.66 398.988Z" fill="white"/>
<path d="M2647.15 418.776C2639.52 418.776 2632.34 416.901 2625.62 413.15C2619.02 409.27 2613.72 403.644 2609.71 396.272C2605.7 388.9 2603.7 379.976 2603.7 369.5V366.396C2603.7 355.92 2605.7 346.996 2609.71 339.624C2613.72 332.252 2619.02 326.691 2625.62 322.94C2632.21 319.06 2639.39 317.12 2647.15 317.12C2652.97 317.12 2657.82 317.831 2661.7 319.254C2665.71 320.547 2668.95 322.229 2671.4 324.298C2673.86 326.367 2675.74 328.566 2677.03 330.894H2680.52V280.26H2704.96V416.06H2680.91V404.42H2677.42C2675.22 408.041 2671.79 411.339 2667.13 414.314C2662.61 417.289 2655.95 418.776 2647.15 418.776ZM2654.52 397.436C2662.03 397.436 2668.3 395.043 2673.34 390.258C2678.39 385.343 2680.91 378.23 2680.91 368.918V366.978C2680.91 357.666 2678.39 350.617 2673.34 345.832C2668.43 340.917 2662.16 338.46 2654.52 338.46C2647.02 338.46 2640.75 340.917 2635.71 345.832C2630.66 350.617 2628.14 357.666 2628.14 366.978V368.918C2628.14 378.23 2630.66 385.343 2635.71 390.258C2640.75 395.043 2647.02 397.436 2654.52 397.436Z" fill="white"/>
<path d="M2775.52 418.776C2768.67 418.776 2762.52 417.612 2757.09 415.284C2751.66 412.827 2747.33 409.335 2744.09 404.808C2740.99 400.152 2739.44 394.526 2739.44 387.93C2739.44 381.334 2740.99 375.837 2744.09 371.44C2747.33 366.913 2751.72 363.551 2757.29 361.352C2762.98 359.024 2769.44 357.86 2776.69 357.86H2803.07V352.428C2803.07 347.901 2801.65 344.215 2798.8 341.37C2795.96 338.395 2791.43 336.908 2785.22 336.908C2779.14 336.908 2774.62 338.331 2771.64 341.176C2768.67 343.892 2766.73 347.449 2765.82 351.846L2743.32 344.28C2744.87 339.365 2747.33 334.903 2750.69 330.894C2754.18 326.755 2758.77 323.457 2764.46 321C2770.28 318.413 2777.33 317.12 2785.61 317.12C2798.28 317.12 2808.31 320.289 2815.68 326.626C2823.05 332.963 2826.74 342.146 2826.74 354.174V390.064C2826.74 393.944 2828.55 395.884 2832.17 395.884H2839.93V416.06H2823.63C2818.85 416.06 2814.9 414.896 2811.8 412.568C2808.7 410.24 2807.14 407.136 2807.14 403.256V403.062H2803.46C2802.94 404.614 2801.78 406.683 2799.97 409.27C2798.16 411.727 2795.31 413.926 2791.43 415.866C2787.55 417.806 2782.25 418.776 2775.52 418.776ZM2779.79 398.988C2786.64 398.988 2792.21 397.113 2796.47 393.362C2800.87 389.482 2803.07 384.373 2803.07 378.036V376.096H2778.43C2773.91 376.096 2770.35 377.066 2767.76 379.006C2765.18 380.946 2763.88 383.662 2763.88 387.154C2763.88 390.646 2765.24 393.491 2767.96 395.69C2770.67 397.889 2774.62 398.988 2779.79 398.988Z" fill="white"/>
</svg>
