<svg width="31" height="30" viewBox="0 0 31 30" fill="none" xmlns="http://www.w3.org/2000/svg">
<path d="M12.4431 19.7939C12.4431 20.8076 11.5939 21.6295 10.5463 21.6295C9.49869 21.6295 8.64947 20.8076 8.64947 19.7939C8.64947 18.7801 9.49869 17.9582 10.5463 17.9582C11.5939 17.9582 12.4431 18.7801 12.4431 19.7939Z" fill="#F7F9FB"/>
<path d="M18.5568 10.2061C18.5568 11.2199 19.4061 12.0417 20.4536 12.0417C21.5012 12.0417 22.3504 11.2199 22.3504 10.2061C22.3504 9.19229 21.5012 8.37045 20.4536 8.37045C19.4061 8.37045 18.5568 9.19229 18.5568 10.2061Z" fill="#F7F9FB"/>
<path fill-rule="evenodd" clip-rule="evenodd" d="M15.5 30C24.0604 30 31 23.2843 31 15C31 6.71572 24.0604 0 15.5 0C6.93957 0 0 6.71572 0 15C0 23.2843 6.93957 30 15.5 30ZM9.90912 15.8956C9.05847 16.1092 8.23484 16.4581 7.61343 17.0594L7.61393 17.0599C6.07711 18.6025 6.09485 21.0587 7.66708 22.5802C9.23931 24.1017 11.7774 24.1188 13.3713 22.6316L13.3718 22.6321C13.9932 22.0307 14.3537 21.2336 14.5745 20.4104C14.9683 18.9418 15.7597 17.5523 16.9485 16.4018C18.1501 15.2389 19.6041 14.4691 21.1398 14.0922C21.9599 13.8909 22.7525 13.5541 23.3507 12.9751C24.923 11.4349 24.9171 8.95282 23.3329 7.41974C21.7487 5.88667 19.1839 5.88091 17.5923 7.40243C16.994 7.98141 16.646 8.74839 16.438 9.54206C16.0486 11.0282 15.253 12.4353 14.0514 13.5981C12.8626 14.7486 11.4268 15.5145 9.90912 15.8956ZM13.101 9.46959C13.101 11.2068 11.6458 12.6151 9.85063 12.6151C8.05548 12.6151 6.60022 11.2068 6.60022 9.46959C6.60022 7.73236 8.05548 6.32404 9.85063 6.32404C11.6458 6.32404 13.101 7.73236 13.101 9.46959ZM21.227 23.6245C23.0222 23.6245 24.4774 22.2162 24.4774 20.479C24.4774 18.7418 23.0222 17.3335 21.227 17.3335C19.4319 17.3335 17.9766 18.7418 17.9766 20.479C17.9766 22.2162 19.4319 23.6245 21.227 23.6245Z" fill="#F7F9FB"/>
</svg>
