<svg width="2748" height="460" viewBox="0 0 2748 460" fill="none" xmlns="http://www.w3.org/2000/svg">
<mask id="path-1-outside-1_321_49" maskUnits="userSpaceOnUse" x="0" y="0" width="2748" height="460" fill="black">
<rect fill="white" width="2748" height="460"/>
<path fill-rule="evenodd" clip-rule="evenodd" d="M230 457C355.369 457 457 355.369 457 230C457 104.631 355.369 3 230 3C104.631 3 3 104.631 3 230C3 355.369 104.631 457 230 457ZM148.327 243.895C135.852 247.133 123.772 252.419 114.658 261.533L114.665 261.54C92.1269 284.918 92.3868 322.141 115.445 345.199C138.503 368.257 175.727 368.517 199.104 345.979L199.111 345.986C208.225 336.872 213.511 324.793 216.749 312.317C222.525 290.06 234.131 269.002 251.567 251.567C269.19 233.944 290.513 222.276 313.036 216.565C325.064 213.515 336.687 208.41 345.462 199.636L345.461 199.635C368.52 176.294 368.433 138.679 345.199 115.445C321.966 92.2115 284.351 92.1243 261.009 115.184L261.009 115.183C252.234 123.957 247.13 135.581 244.08 147.609C238.368 170.131 226.701 191.455 209.078 209.078C191.642 226.513 170.585 238.119 148.327 243.895ZM185.49 302.973C185.49 318.337 173.035 330.791 157.672 330.791C142.308 330.791 129.853 318.337 129.853 302.973C129.853 287.609 142.308 275.154 157.672 275.154C173.035 275.154 185.49 287.609 185.49 302.973ZM275.154 157.672C275.154 173.035 287.609 185.49 302.973 185.49C318.337 185.49 330.791 173.035 330.791 157.672C330.791 142.308 318.337 129.853 302.973 129.853C287.609 129.853 275.154 142.308 275.154 157.672ZM195.14 146.51C195.14 172.838 173.797 194.18 147.469 194.18C121.142 194.18 99.799 172.838 99.799 146.51C99.799 120.183 121.142 98.8399 147.469 98.8399C173.797 98.8399 195.14 120.183 195.14 146.51ZM314.315 361.026C340.643 361.026 361.985 339.684 361.985 313.356C361.985 287.029 340.643 265.686 314.315 265.686C287.988 265.686 266.645 287.029 266.645 313.356C266.645 339.684 287.988 361.026 314.315 361.026Z"/>
<path d="M665 224.998V24H751.482C770.948 24 785.13 28.0887 794.029 36.2662C803.298 44.0719 807.932 56.0593 807.932 72.2283V100.942C807.932 116.554 803.298 128.82 794.029 137.741C784.759 146.662 771.69 151.122 754.819 151.122H693.92V224.998H665ZM693.92 53.2715V122.129H754.541C763.254 122.129 769.558 120.457 773.451 117.111C777.344 113.766 779.29 107.912 779.29 99.5484V73.6222C779.29 60.0551 771.226 53.2715 755.097 53.2715H693.92Z"/>
<path d="M1014.39 224.998H936.807C919.01 224.998 905.662 220.352 896.763 211.059C888.05 201.581 883.694 188.199 883.694 170.915V74.1797C883.694 62.2853 886.382 51.9706 891.758 43.2356C897.134 34.5006 905.384 28.7392 916.507 25.9514C919.473 25.3939 922.995 24.9293 927.074 24.5575C931.152 24.1858 936.158 24 942.09 24H1014.95V53.2715H930.411C925.405 53.2715 921.142 55.3159 917.619 59.4046C914.282 63.3075 912.614 68.5113 912.614 75.0161V109.306H1014.95V138.577H912.614V177.885C912.614 182.531 914.56 186.713 918.453 190.43C921.605 193.031 925.035 194.797 928.742 195.726H1014.39V224.998Z"/>
<path d="M1227.38 224.998H1149.8C1132 224.998 1118.65 220.352 1109.75 211.059C1101.04 201.581 1096.68 188.199 1096.68 170.915V74.1797C1096.68 62.2853 1099.37 51.9706 1104.75 43.2356C1110.12 34.5006 1118.37 28.7392 1129.5 25.9514C1132.46 25.3939 1135.99 24.9293 1140.06 24.5575C1144.14 24.1858 1149.15 24 1155.08 24H1227.94V53.2715H1143.4C1138.4 53.2715 1134.13 55.3159 1130.61 59.4046C1127.27 63.3075 1125.6 68.5113 1125.6 75.0161V109.306H1227.94V138.577H1125.6V177.885C1125.6 182.531 1127.55 186.713 1131.44 190.43C1134.6 193.031 1138.03 194.797 1141.73 195.726H1227.38V224.998Z"/>
<path d="M1309.68 224.998V24H1410.9C1423.87 24 1434.72 28.925 1443.43 38.7751C1449.73 45.6516 1452.89 54.6654 1452.89 65.8165V100.664C1452.89 110.514 1448.99 119.527 1441.21 127.705C1433.61 135.696 1424.8 139.692 1414.79 139.692L1380.86 139.413L1454.55 224.998H1415.9L1343.6 141.086C1341.19 138.112 1339.99 134.767 1339.99 131.05C1339.99 124.917 1341.93 119.992 1345.83 116.275C1349.9 112.372 1355.19 110.421 1361.68 110.421H1405.61C1410.62 110.421 1414.97 108.841 1418.68 105.681C1422.39 102.522 1424.24 98.7121 1424.24 94.2516V71.9495C1424.24 59.4975 1418.22 53.2715 1406.17 53.2715H1338.6V224.998H1309.68Z"/>
<path d="M1533.26 224.998V24H1635.03C1647.27 24 1657.37 28.4604 1665.34 37.3813C1673.32 46.1163 1677.3 57.1744 1677.3 70.5557V173.703C1677.3 188.199 1672.76 200.373 1663.68 210.223C1654.59 220.073 1643.28 224.998 1629.75 224.998H1533.26ZM1562.18 53.2715V195.726H1628.08C1641.62 195.726 1648.38 187.735 1648.38 171.751V76.1312C1648.38 67.582 1646.81 61.6348 1643.65 58.2895C1640.87 54.9442 1635.5 53.2715 1627.53 53.2715H1562.18Z"/>
<path d="M1904.92 24V175.654C1904.92 189.779 1900.56 201.581 1891.85 211.059C1883.14 220.352 1872.1 224.998 1858.76 224.998H1808.7C1795.73 224.998 1784.7 220.352 1775.61 211.059C1766.9 201.395 1762.54 189.593 1762.54 175.654V24H1791.46V172.03C1791.46 181.137 1793.04 187.363 1796.19 190.708C1799.34 194.054 1805 195.726 1813.15 195.726H1854.31C1862.28 195.726 1867.84 194.147 1870.99 190.987C1874.33 187.642 1876 181.88 1876 173.703V24H1904.92Z"/>
<path d="M1984.35 224.998V195.726H2064.44C2069.81 195.726 2074.36 194.147 2078.06 190.987C2081.77 187.828 2083.62 183.925 2083.62 179.278V153.91C2083.62 142.573 2076.58 136.904 2062.49 136.904H2032.46C2018.93 136.904 2007.52 133.094 1998.25 125.475C1988.99 117.669 1984.35 107.912 1984.35 96.2031V71.1132C1984.35 53.4574 1990.47 40.262 2002.7 31.527C2009.93 26.509 2019.94 24 2032.74 24H2113.94V53.2715H2031.35C2019.48 53.2715 2013.55 58.7541 2013.55 69.7193V89.7912C2013.55 103.544 2019.85 110.421 2032.46 110.421H2067.5C2079.92 110.421 2090.58 114.231 2099.48 121.851C2108.37 129.47 2112.82 138.577 2112.82 149.171V180.672C2112.82 193.31 2108.56 203.904 2100.03 212.453C2091.69 220.816 2080.94 224.998 2067.77 224.998H1984.35Z"/>
<path d="M2187.86 53.2715V24H2304.09V53.2715H2260.43V224.998H2231.24V53.2715H2187.86Z"/>
<path d="M2373.26 224.998V24H2474.48C2487.46 24 2498.3 28.925 2507.02 38.7751C2513.32 45.6516 2516.47 54.6654 2516.47 65.8165V100.664C2516.47 110.514 2512.58 119.527 2504.79 127.705C2497.19 135.696 2488.39 139.692 2478.37 139.692L2444.45 139.413L2518.14 224.998H2479.49L2407.19 141.086C2404.78 138.112 2403.57 134.767 2403.57 131.05C2403.57 124.917 2405.52 119.992 2409.41 116.275C2413.49 112.372 2418.77 110.421 2425.26 110.421H2469.2C2474.2 110.421 2478.56 108.841 2482.27 105.681C2485.98 102.522 2487.83 98.7121 2487.83 94.2516V71.9495C2487.83 59.4975 2481.8 53.2715 2469.75 53.2715H2402.18V224.998H2373.26Z"/>
<path d="M2569.03 24H2603.52L2654.96 107.354L2707.52 24H2742L2669.42 138.856V224.998H2640.5L2640.22 138.856L2569.03 24Z"/>
<path d="M727.195 332.8H748.483V398.884C748.483 406.304 746.73 412.796 743.223 418.361C739.748 423.926 734.881 428.265 728.62 431.379C722.36 434.46 715.067 436 706.742 436C698.383 436 691.074 434.46 684.814 431.379C678.553 428.265 673.686 423.926 670.212 418.361C666.737 412.796 665 406.304 665 398.884V332.8H686.289V397.045C686.289 400.921 687.125 404.366 688.796 407.38C690.501 410.395 692.893 412.763 695.974 414.485C699.055 416.208 702.644 417.069 706.742 417.069C710.871 417.069 714.461 416.208 717.509 414.485C720.59 412.763 722.966 410.395 724.638 407.38C726.342 404.366 727.195 400.921 727.195 397.045V332.8Z"/>
<path d="M845.543 362.065C845.149 358.057 843.461 354.944 840.479 352.724C837.496 350.505 833.448 349.395 828.335 349.395C824.86 349.395 821.927 349.892 819.534 350.886C817.141 351.846 815.306 353.188 814.027 354.91C812.782 356.633 812.159 358.587 812.159 360.774C812.094 362.595 812.47 364.185 813.29 365.544C814.142 366.902 815.306 368.078 816.781 369.071C818.256 370.032 819.96 370.877 821.894 371.605C823.828 372.301 825.893 372.897 828.089 373.394L837.135 375.58C841.527 376.574 845.559 377.899 849.23 379.555C852.901 381.212 856.08 383.249 858.768 385.667C861.456 388.085 863.537 390.934 865.012 394.213C866.52 397.492 867.29 401.252 867.323 405.492C867.29 411.719 865.717 417.119 862.603 421.69C859.522 426.228 855.064 429.756 849.23 432.273C843.428 434.758 836.431 436 828.236 436C820.108 436 813.028 434.741 806.997 432.224C800.999 429.706 796.311 425.98 792.935 421.044C789.592 416.075 787.839 409.931 787.675 402.61H808.275C808.504 406.022 809.471 408.871 811.176 411.156C812.913 413.409 815.224 415.115 818.108 416.274C821.025 417.4 824.319 417.964 827.99 417.964C831.596 417.964 834.726 417.434 837.381 416.374C840.069 415.314 842.15 413.839 843.625 411.951C845.1 410.063 845.838 407.894 845.838 405.442C845.838 403.157 845.166 401.236 843.822 399.679C842.511 398.122 840.577 396.797 838.02 395.704C835.496 394.611 832.399 393.617 828.728 392.722L817.764 389.94C809.275 387.853 802.572 384.59 797.655 380.152C792.739 375.713 790.297 369.734 790.33 362.214C790.297 356.053 791.919 350.67 795.197 346.066C798.507 341.462 803.047 337.868 808.816 335.284C814.585 332.7 821.14 331.408 828.482 331.408C835.955 331.408 842.478 332.7 848.05 335.284C853.655 337.868 858.014 341.462 861.128 346.066C864.242 350.67 865.848 356.004 865.946 362.065H845.543Z"/>
<path d="M927.852 332.8V434.559H906.564V332.8H927.852Z"/>
<path d="M1054.51 332.8V434.559H1036.12L992.315 370.512H991.577V434.559H970.289V332.8H988.972L1032.43 396.797H1033.32V332.8H1054.51Z"/>
<path d="M1114.37 434.559H1091.56L1126.32 332.8H1153.76L1188.47 434.559H1165.65L1140.43 356.053H1139.65L1114.37 434.559ZM1112.95 394.561H1166.83V411.355H1112.95V394.561Z"/>
<path d="M1287.54 365.693C1286.85 363.274 1285.89 361.138 1284.64 359.283C1283.4 357.395 1281.87 355.805 1280.07 354.513C1278.3 353.188 1276.27 352.178 1273.97 351.482C1271.71 350.786 1269.2 350.439 1266.45 350.439C1261.3 350.439 1256.78 351.73 1252.88 354.314C1249.01 356.898 1246 360.658 1243.83 365.593C1241.67 370.496 1240.59 376.491 1240.59 383.58C1240.59 390.669 1241.65 396.697 1243.79 401.666C1245.92 406.635 1248.93 410.428 1252.83 413.045C1256.73 415.628 1261.34 416.92 1266.65 416.92C1271.47 416.92 1275.58 416.059 1278.99 414.336C1282.43 412.581 1285.05 410.113 1286.85 406.933C1288.69 403.753 1289.61 399.993 1289.61 395.654L1293.93 396.3H1267.97V380.102H1310.11V392.921C1310.11 401.865 1308.24 409.55 1304.5 415.976C1300.77 422.369 1295.62 427.305 1289.07 430.783C1282.51 434.228 1275.01 435.95 1266.55 435.95C1257.11 435.95 1248.82 433.847 1241.67 429.64C1234.53 425.4 1228.95 419.388 1224.95 411.604C1220.99 403.786 1219.01 394.511 1219.01 383.779C1219.01 375.531 1220.19 368.177 1222.55 361.718C1224.94 355.225 1228.28 349.726 1232.58 345.221C1236.87 340.716 1241.87 337.288 1247.57 334.936C1253.27 332.584 1259.45 331.408 1266.11 331.408C1271.81 331.408 1277.12 332.253 1282.04 333.942C1286.95 335.599 1291.31 337.951 1295.11 340.998C1298.95 344.046 1302.08 347.673 1304.5 351.88C1306.93 356.053 1308.49 360.658 1309.18 365.693H1287.54Z"/>
<path d="M1351.02 434.559V332.8H1418.87V350.538H1372.31V374.785H1415.38V392.524H1372.31V416.821H1419.07V434.559H1351.02Z"/>
<path d="M1460.72 332.8H1486.97L1514.7 401.169H1515.88L1543.61 332.8H1569.86V434.559H1549.21V368.326H1548.38L1522.32 434.062H1508.26L1482.2 368.078H1481.37V434.559H1460.72V332.8Z"/>
<path d="M1758.13 368.425H1736.6C1736.2 365.61 1735.4 363.109 1734.19 360.923C1732.98 358.703 1731.42 356.815 1729.52 355.258C1727.62 353.701 1725.42 352.509 1722.93 351.681C1720.47 350.853 1717.8 350.439 1714.92 350.439C1709.7 350.439 1705.16 351.747 1701.3 354.364C1697.43 356.948 1694.43 360.724 1692.3 365.693C1690.17 370.628 1689.1 376.624 1689.1 383.679C1689.1 390.934 1690.17 397.029 1692.3 401.964C1694.46 406.9 1697.48 410.626 1701.35 413.144C1705.21 415.661 1709.69 416.92 1714.77 416.92C1717.62 416.92 1720.26 416.539 1722.68 415.777C1725.14 415.015 1727.32 413.906 1729.22 412.448C1731.12 410.958 1732.7 409.152 1733.94 407.032C1735.22 404.912 1736.11 402.494 1736.6 399.778L1758.13 399.877C1757.58 404.548 1756.18 409.053 1753.95 413.392C1751.76 417.699 1748.79 421.558 1745.05 424.969C1741.35 428.348 1736.93 431.031 1731.78 433.019C1726.67 434.973 1720.88 435.95 1714.42 435.95C1705.44 435.95 1697.41 433.897 1690.33 429.789C1683.29 425.682 1677.71 419.736 1673.62 411.951C1669.55 404.167 1667.52 394.743 1667.52 383.679C1667.52 372.583 1669.59 363.142 1673.72 355.358C1677.85 347.573 1683.45 341.644 1690.53 337.57C1697.61 333.462 1705.57 331.408 1714.42 331.408C1720.26 331.408 1725.67 332.237 1730.65 333.893C1735.66 335.549 1740.11 337.967 1743.97 341.147C1747.84 344.294 1750.99 348.153 1753.41 352.724C1755.87 357.295 1757.44 362.529 1758.13 368.425Z"/>
<path d="M1890.85 383.679C1890.85 394.776 1888.77 404.217 1884.61 412.001C1880.48 419.785 1874.84 425.731 1867.69 429.839C1860.58 433.913 1852.58 435.95 1843.7 435.95C1834.75 435.95 1826.72 433.897 1819.61 429.789C1812.5 425.682 1806.87 419.736 1802.74 411.951C1798.61 404.167 1796.55 394.743 1796.55 383.679C1796.55 372.583 1798.61 363.142 1802.74 355.358C1806.87 347.573 1812.5 341.644 1819.61 337.57C1826.72 333.462 1834.75 331.408 1843.7 331.408C1852.58 331.408 1860.58 333.462 1867.69 337.57C1874.84 341.644 1880.48 347.573 1884.61 355.358C1888.77 363.142 1890.85 372.583 1890.85 383.679ZM1869.27 383.679C1869.27 376.491 1868.2 370.429 1866.07 365.494C1863.97 360.558 1861.01 356.815 1857.17 354.265C1853.34 351.714 1848.85 350.439 1843.7 350.439C1838.55 350.439 1834.06 351.714 1830.23 354.265C1826.39 356.815 1823.41 360.558 1821.28 365.494C1819.18 370.429 1818.13 376.491 1818.13 383.679C1818.13 390.867 1819.18 396.929 1821.28 401.865C1823.41 406.8 1826.39 410.544 1830.23 413.094C1834.06 415.645 1838.55 416.92 1843.7 416.92C1848.85 416.92 1853.34 415.645 1857.17 413.094C1861.01 410.544 1863.97 406.8 1866.07 401.865C1868.2 396.929 1869.27 390.867 1869.27 383.679Z"/>
<path d="M2015.76 332.8V434.559H1997.37L1953.57 370.512H1952.83V434.559H1931.54V332.8H1950.22L1993.69 396.797H1994.57V332.8H2015.76Z"/>
<path d="M2058.27 434.559V332.8H2126.12V350.538H2079.56V374.785H2122.63V392.524H2079.56V416.821H2126.32V434.559H2058.27Z"/>
<path d="M2256.81 368.425H2235.27C2234.88 365.61 2234.08 363.109 2232.86 360.923C2231.65 358.703 2230.09 356.815 2228.19 355.258C2226.29 353.701 2224.1 352.509 2221.61 351.681C2219.15 350.853 2216.48 350.439 2213.59 350.439C2208.38 350.439 2203.84 351.747 2199.97 354.364C2196.1 356.948 2193.11 360.724 2190.98 365.693C2188.84 370.628 2187.78 376.624 2187.78 383.679C2187.78 390.934 2188.84 397.029 2190.98 401.964C2193.14 406.9 2196.15 410.626 2200.02 413.144C2203.89 415.661 2208.36 416.92 2213.44 416.92C2216.3 416.92 2218.93 416.539 2221.36 415.777C2223.82 415.015 2226 413.906 2227.9 412.448C2229.8 410.958 2231.37 409.152 2232.62 407.032C2233.9 404.912 2234.78 402.494 2235.27 399.778L2256.81 399.877C2256.25 404.548 2254.86 409.053 2252.63 413.392C2250.43 417.699 2247.47 421.558 2243.73 424.969C2240.03 428.348 2235.6 431.031 2230.46 433.019C2225.34 434.973 2219.56 435.95 2213.1 435.95C2204.12 435.95 2196.09 433.897 2189.01 429.789C2181.96 425.682 2176.39 419.736 2172.29 411.951C2168.23 404.167 2166.2 394.743 2166.2 383.679C2166.2 372.583 2168.26 363.142 2172.39 355.358C2176.52 347.573 2182.13 341.644 2189.21 337.57C2196.29 333.462 2204.25 331.408 2213.1 331.408C2218.93 331.408 2224.34 332.237 2229.32 333.893C2234.34 335.549 2238.78 337.967 2242.65 341.147C2246.52 344.294 2249.66 348.153 2252.09 352.724C2254.55 357.295 2256.12 362.529 2256.81 368.425Z"/>
<path d="M2293.16 350.538V332.8H2375.86V350.538H2345.03V434.559H2323.99V350.538H2293.16Z"/>
<path d="M2419.45 434.559H2396.64L2431.4 332.8H2458.83L2493.54 434.559H2470.73L2445.51 356.053H2444.72L2419.45 434.559ZM2418.02 394.561H2471.91V411.355H2418.02V394.561Z"/>
<path d="M2566.28 434.559H2530.58V332.8H2566.57C2576.7 332.8 2585.42 334.837 2592.73 338.911C2600.04 342.952 2605.66 348.766 2609.59 356.351C2613.56 363.937 2615.54 373.013 2615.54 383.58C2615.54 394.18 2613.56 403.289 2609.59 410.908C2605.66 418.527 2600 424.373 2592.63 428.448C2585.29 432.522 2576.5 434.559 2566.28 434.559ZM2551.87 416.125H2565.39C2571.68 416.125 2576.98 414.999 2581.27 412.746C2585.6 410.461 2588.84 406.933 2591.01 402.163C2593.2 397.36 2594.3 391.166 2594.3 383.58C2594.3 376.061 2593.2 369.916 2591.01 365.146C2588.84 360.376 2585.61 356.865 2581.32 354.612C2577.03 352.36 2571.73 351.234 2565.44 351.234H2551.87V416.125Z"/>
<path d="M2667.91 434.559H2645.09L2679.85 332.8H2707.29L2742 434.559H2719.19L2693.97 356.053H2693.18L2667.91 434.559ZM2666.48 394.561H2720.37V411.355H2666.48V394.561Z"/>
</mask>
<path fill-rule="evenodd" clip-rule="evenodd" d="M230 457C355.369 457 457 355.369 457 230C457 104.631 355.369 3 230 3C104.631 3 3 104.631 3 230C3 355.369 104.631 457 230 457ZM148.327 243.895C135.852 247.133 123.772 252.419 114.658 261.533L114.665 261.54C92.1269 284.918 92.3868 322.141 115.445 345.199C138.503 368.257 175.727 368.517 199.104 345.979L199.111 345.986C208.225 336.872 213.511 324.793 216.749 312.317C222.525 290.06 234.131 269.002 251.567 251.567C269.19 233.944 290.513 222.276 313.036 216.565C325.064 213.515 336.687 208.41 345.462 199.636L345.461 199.635C368.52 176.294 368.433 138.679 345.199 115.445C321.966 92.2115 284.351 92.1243 261.009 115.184L261.009 115.183C252.234 123.957 247.13 135.581 244.08 147.609C238.368 170.131 226.701 191.455 209.078 209.078C191.642 226.513 170.585 238.119 148.327 243.895ZM185.49 302.973C185.49 318.337 173.035 330.791 157.672 330.791C142.308 330.791 129.853 318.337 129.853 302.973C129.853 287.609 142.308 275.154 157.672 275.154C173.035 275.154 185.49 287.609 185.49 302.973ZM275.154 157.672C275.154 173.035 287.609 185.49 302.973 185.49C318.337 185.49 330.791 173.035 330.791 157.672C330.791 142.308 318.337 129.853 302.973 129.853C287.609 129.853 275.154 142.308 275.154 157.672ZM195.14 146.51C195.14 172.838 173.797 194.18 147.469 194.18C121.142 194.18 99.799 172.838 99.799 146.51C99.799 120.183 121.142 98.8399 147.469 98.8399C173.797 98.8399 195.14 120.183 195.14 146.51ZM314.315 361.026C340.643 361.026 361.985 339.684 361.985 313.356C361.985 287.029 340.643 265.686 314.315 265.686C287.988 265.686 266.645 287.029 266.645 313.356C266.645 339.684 287.988 361.026 314.315 361.026Z" fill="white"/>
<path d="M665 224.998V24H751.482C770.948 24 785.13 28.0887 794.029 36.2662C803.298 44.0719 807.932 56.0593 807.932 72.2283V100.942C807.932 116.554 803.298 128.82 794.029 137.741C784.759 146.662 771.69 151.122 754.819 151.122H693.92V224.998H665ZM693.92 53.2715V122.129H754.541C763.254 122.129 769.558 120.457 773.451 117.111C777.344 113.766 779.29 107.912 779.29 99.5484V73.6222C779.29 60.0551 771.226 53.2715 755.097 53.2715H693.92Z" fill="white"/>
<path d="M1014.39 224.998H936.807C919.01 224.998 905.662 220.352 896.763 211.059C888.05 201.581 883.694 188.199 883.694 170.915V74.1797C883.694 62.2853 886.382 51.9706 891.758 43.2356C897.134 34.5006 905.384 28.7392 916.507 25.9514C919.473 25.3939 922.995 24.9293 927.074 24.5575C931.152 24.1858 936.158 24 942.09 24H1014.95V53.2715H930.411C925.405 53.2715 921.142 55.3159 917.619 59.4046C914.282 63.3075 912.614 68.5113 912.614 75.0161V109.306H1014.95V138.577H912.614V177.885C912.614 182.531 914.56 186.713 918.453 190.43C921.605 193.031 925.035 194.797 928.742 195.726H1014.39V224.998Z" fill="white"/>
<path d="M1227.38 224.998H1149.8C1132 224.998 1118.65 220.352 1109.75 211.059C1101.04 201.581 1096.68 188.199 1096.68 170.915V74.1797C1096.68 62.2853 1099.37 51.9706 1104.75 43.2356C1110.12 34.5006 1118.37 28.7392 1129.5 25.9514C1132.46 25.3939 1135.99 24.9293 1140.06 24.5575C1144.14 24.1858 1149.15 24 1155.08 24H1227.94V53.2715H1143.4C1138.4 53.2715 1134.13 55.3159 1130.61 59.4046C1127.27 63.3075 1125.6 68.5113 1125.6 75.0161V109.306H1227.94V138.577H1125.6V177.885C1125.6 182.531 1127.55 186.713 1131.44 190.43C1134.6 193.031 1138.03 194.797 1141.73 195.726H1227.38V224.998Z" fill="white"/>
<path d="M1309.68 224.998V24H1410.9C1423.87 24 1434.72 28.925 1443.43 38.7751C1449.73 45.6516 1452.89 54.6654 1452.89 65.8165V100.664C1452.89 110.514 1448.99 119.527 1441.21 127.705C1433.61 135.696 1424.8 139.692 1414.79 139.692L1380.86 139.413L1454.55 224.998H1415.9L1343.6 141.086C1341.19 138.112 1339.99 134.767 1339.99 131.05C1339.99 124.917 1341.93 119.992 1345.83 116.275C1349.9 112.372 1355.19 110.421 1361.68 110.421H1405.61C1410.62 110.421 1414.97 108.841 1418.68 105.681C1422.39 102.522 1424.24 98.7121 1424.24 94.2516V71.9495C1424.24 59.4975 1418.22 53.2715 1406.17 53.2715H1338.6V224.998H1309.68Z" fill="white"/>
<path d="M1533.26 224.998V24H1635.03C1647.27 24 1657.37 28.4604 1665.34 37.3813C1673.32 46.1163 1677.3 57.1744 1677.3 70.5557V173.703C1677.3 188.199 1672.76 200.373 1663.68 210.223C1654.59 220.073 1643.28 224.998 1629.75 224.998H1533.26ZM1562.18 53.2715V195.726H1628.08C1641.62 195.726 1648.38 187.735 1648.38 171.751V76.1312C1648.38 67.582 1646.81 61.6348 1643.65 58.2895C1640.87 54.9442 1635.5 53.2715 1627.53 53.2715H1562.18Z" fill="white"/>
<path d="M1904.92 24V175.654C1904.92 189.779 1900.56 201.581 1891.85 211.059C1883.14 220.352 1872.1 224.998 1858.76 224.998H1808.7C1795.73 224.998 1784.7 220.352 1775.61 211.059C1766.9 201.395 1762.54 189.593 1762.54 175.654V24H1791.46V172.03C1791.46 181.137 1793.04 187.363 1796.19 190.708C1799.34 194.054 1805 195.726 1813.15 195.726H1854.31C1862.28 195.726 1867.84 194.147 1870.99 190.987C1874.33 187.642 1876 181.88 1876 173.703V24H1904.92Z" fill="white"/>
<path d="M1984.35 224.998V195.726H2064.44C2069.81 195.726 2074.36 194.147 2078.06 190.987C2081.77 187.828 2083.62 183.925 2083.62 179.278V153.91C2083.62 142.573 2076.58 136.904 2062.49 136.904H2032.46C2018.93 136.904 2007.52 133.094 1998.25 125.475C1988.99 117.669 1984.35 107.912 1984.35 96.2031V71.1132C1984.35 53.4574 1990.47 40.262 2002.7 31.527C2009.93 26.509 2019.94 24 2032.74 24H2113.94V53.2715H2031.35C2019.48 53.2715 2013.55 58.7541 2013.55 69.7193V89.7912C2013.55 103.544 2019.85 110.421 2032.46 110.421H2067.5C2079.92 110.421 2090.58 114.231 2099.48 121.851C2108.37 129.47 2112.82 138.577 2112.82 149.171V180.672C2112.82 193.31 2108.56 203.904 2100.03 212.453C2091.69 220.816 2080.94 224.998 2067.77 224.998H1984.35Z" fill="white"/>
<path d="M2187.86 53.2715V24H2304.09V53.2715H2260.43V224.998H2231.24V53.2715H2187.86Z" fill="white"/>
<path d="M2373.26 224.998V24H2474.48C2487.46 24 2498.3 28.925 2507.02 38.7751C2513.32 45.6516 2516.47 54.6654 2516.47 65.8165V100.664C2516.47 110.514 2512.58 119.527 2504.79 127.705C2497.19 135.696 2488.39 139.692 2478.37 139.692L2444.45 139.413L2518.14 224.998H2479.49L2407.19 141.086C2404.78 138.112 2403.57 134.767 2403.57 131.05C2403.57 124.917 2405.52 119.992 2409.41 116.275C2413.49 112.372 2418.77 110.421 2425.26 110.421H2469.2C2474.2 110.421 2478.56 108.841 2482.27 105.681C2485.98 102.522 2487.83 98.7121 2487.83 94.2516V71.9495C2487.83 59.4975 2481.8 53.2715 2469.75 53.2715H2402.18V224.998H2373.26Z" fill="white"/>
<path d="M2569.03 24H2603.52L2654.96 107.354L2707.52 24H2742L2669.42 138.856V224.998H2640.5L2640.22 138.856L2569.03 24Z" fill="white"/>
<path d="M727.195 332.8H748.483V398.884C748.483 406.304 746.73 412.796 743.223 418.361C739.748 423.926 734.881 428.265 728.62 431.379C722.36 434.46 715.067 436 706.742 436C698.383 436 691.074 434.46 684.814 431.379C678.553 428.265 673.686 423.926 670.212 418.361C666.737 412.796 665 406.304 665 398.884V332.8H686.289V397.045C686.289 400.921 687.125 404.366 688.796 407.38C690.501 410.395 692.893 412.763 695.974 414.485C699.055 416.208 702.644 417.069 706.742 417.069C710.871 417.069 714.461 416.208 717.509 414.485C720.59 412.763 722.966 410.395 724.638 407.38C726.342 404.366 727.195 400.921 727.195 397.045V332.8Z" fill="white"/>
<path d="M845.543 362.065C845.149 358.057 843.461 354.944 840.479 352.724C837.496 350.505 833.448 349.395 828.335 349.395C824.86 349.395 821.927 349.892 819.534 350.886C817.141 351.846 815.306 353.188 814.027 354.91C812.782 356.633 812.159 358.587 812.159 360.774C812.094 362.595 812.47 364.185 813.29 365.544C814.142 366.902 815.306 368.078 816.781 369.071C818.256 370.032 819.96 370.877 821.894 371.605C823.828 372.301 825.893 372.897 828.089 373.394L837.135 375.58C841.527 376.574 845.559 377.899 849.23 379.555C852.901 381.212 856.08 383.249 858.768 385.667C861.456 388.085 863.537 390.934 865.012 394.213C866.52 397.492 867.29 401.252 867.323 405.492C867.29 411.719 865.717 417.119 862.603 421.69C859.522 426.228 855.064 429.756 849.23 432.273C843.428 434.758 836.431 436 828.236 436C820.108 436 813.028 434.741 806.997 432.224C800.999 429.706 796.311 425.98 792.935 421.044C789.592 416.075 787.839 409.931 787.675 402.61H808.275C808.504 406.022 809.471 408.871 811.176 411.156C812.913 413.409 815.224 415.115 818.108 416.274C821.025 417.4 824.319 417.964 827.99 417.964C831.596 417.964 834.726 417.434 837.381 416.374C840.069 415.314 842.15 413.839 843.625 411.951C845.1 410.063 845.838 407.894 845.838 405.442C845.838 403.157 845.166 401.236 843.822 399.679C842.511 398.122 840.577 396.797 838.02 395.704C835.496 394.611 832.399 393.617 828.728 392.722L817.764 389.94C809.275 387.853 802.572 384.59 797.655 380.152C792.739 375.713 790.297 369.734 790.33 362.214C790.297 356.053 791.919 350.67 795.197 346.066C798.507 341.462 803.047 337.868 808.816 335.284C814.585 332.7 821.14 331.408 828.482 331.408C835.955 331.408 842.478 332.7 848.05 335.284C853.655 337.868 858.014 341.462 861.128 346.066C864.242 350.67 865.848 356.004 865.946 362.065H845.543Z" fill="white"/>
<path d="M927.852 332.8V434.559H906.564V332.8H927.852Z" fill="white"/>
<path d="M1054.51 332.8V434.559H1036.12L992.315 370.512H991.577V434.559H970.289V332.8H988.972L1032.43 396.797H1033.32V332.8H1054.51Z" fill="white"/>
<path d="M1114.37 434.559H1091.56L1126.32 332.8H1153.76L1188.47 434.559H1165.65L1140.43 356.053H1139.65L1114.37 434.559ZM1112.95 394.561H1166.83V411.355H1112.95V394.561Z" fill="white"/>
<path d="M1287.54 365.693C1286.85 363.274 1285.89 361.138 1284.64 359.283C1283.4 357.395 1281.87 355.805 1280.07 354.513C1278.3 353.188 1276.27 352.178 1273.97 351.482C1271.71 350.786 1269.2 350.439 1266.45 350.439C1261.3 350.439 1256.78 351.73 1252.88 354.314C1249.01 356.898 1246 360.658 1243.83 365.593C1241.67 370.496 1240.59 376.491 1240.59 383.58C1240.59 390.669 1241.65 396.697 1243.79 401.666C1245.92 406.635 1248.93 410.428 1252.83 413.045C1256.73 415.628 1261.34 416.92 1266.65 416.92C1271.47 416.92 1275.58 416.059 1278.99 414.336C1282.43 412.581 1285.05 410.113 1286.85 406.933C1288.69 403.753 1289.61 399.993 1289.61 395.654L1293.93 396.3H1267.97V380.102H1310.11V392.921C1310.11 401.865 1308.24 409.55 1304.5 415.976C1300.77 422.369 1295.62 427.305 1289.07 430.783C1282.51 434.228 1275.01 435.95 1266.55 435.95C1257.11 435.95 1248.82 433.847 1241.67 429.64C1234.53 425.4 1228.95 419.388 1224.95 411.604C1220.99 403.786 1219.01 394.511 1219.01 383.779C1219.01 375.531 1220.19 368.177 1222.55 361.718C1224.94 355.225 1228.28 349.726 1232.58 345.221C1236.87 340.716 1241.87 337.288 1247.57 334.936C1253.27 332.584 1259.45 331.408 1266.11 331.408C1271.81 331.408 1277.12 332.253 1282.04 333.942C1286.95 335.599 1291.31 337.951 1295.11 340.998C1298.95 344.046 1302.08 347.673 1304.5 351.88C1306.93 356.053 1308.49 360.658 1309.18 365.693H1287.54Z" fill="white"/>
<path d="M1351.02 434.559V332.8H1418.87V350.538H1372.31V374.785H1415.38V392.524H1372.31V416.821H1419.07V434.559H1351.02Z" fill="white"/>
<path d="M1460.72 332.8H1486.97L1514.7 401.169H1515.88L1543.61 332.8H1569.86V434.559H1549.21V368.326H1548.38L1522.32 434.062H1508.26L1482.2 368.078H1481.37V434.559H1460.72V332.8Z" fill="white"/>
<path d="M1758.13 368.425H1736.6C1736.2 365.61 1735.4 363.109 1734.19 360.923C1732.98 358.703 1731.42 356.815 1729.52 355.258C1727.62 353.701 1725.42 352.509 1722.93 351.681C1720.47 350.853 1717.8 350.439 1714.92 350.439C1709.7 350.439 1705.16 351.747 1701.3 354.364C1697.43 356.948 1694.43 360.724 1692.3 365.693C1690.17 370.628 1689.1 376.624 1689.1 383.679C1689.1 390.934 1690.17 397.029 1692.3 401.964C1694.46 406.9 1697.48 410.626 1701.35 413.144C1705.21 415.661 1709.69 416.92 1714.77 416.92C1717.62 416.92 1720.26 416.539 1722.68 415.777C1725.14 415.015 1727.32 413.906 1729.22 412.448C1731.12 410.958 1732.7 409.152 1733.94 407.032C1735.22 404.912 1736.11 402.494 1736.6 399.778L1758.13 399.877C1757.58 404.548 1756.18 409.053 1753.95 413.392C1751.76 417.699 1748.79 421.558 1745.05 424.969C1741.35 428.348 1736.93 431.031 1731.78 433.019C1726.67 434.973 1720.88 435.95 1714.42 435.95C1705.44 435.95 1697.41 433.897 1690.33 429.789C1683.29 425.682 1677.71 419.736 1673.62 411.951C1669.55 404.167 1667.52 394.743 1667.52 383.679C1667.52 372.583 1669.59 363.142 1673.72 355.358C1677.85 347.573 1683.45 341.644 1690.53 337.57C1697.61 333.462 1705.57 331.408 1714.42 331.408C1720.26 331.408 1725.67 332.237 1730.65 333.893C1735.66 335.549 1740.11 337.967 1743.97 341.147C1747.84 344.294 1750.99 348.153 1753.41 352.724C1755.87 357.295 1757.44 362.529 1758.13 368.425Z" fill="white"/>
<path d="M1890.85 383.679C1890.85 394.776 1888.77 404.217 1884.61 412.001C1880.48 419.785 1874.84 425.731 1867.69 429.839C1860.58 433.913 1852.58 435.95 1843.7 435.95C1834.75 435.95 1826.72 433.897 1819.61 429.789C1812.5 425.682 1806.87 419.736 1802.74 411.951C1798.61 404.167 1796.55 394.743 1796.55 383.679C1796.55 372.583 1798.61 363.142 1802.74 355.358C1806.87 347.573 1812.5 341.644 1819.61 337.57C1826.72 333.462 1834.75 331.408 1843.7 331.408C1852.58 331.408 1860.58 333.462 1867.69 337.57C1874.84 341.644 1880.48 347.573 1884.61 355.358C1888.77 363.142 1890.85 372.583 1890.85 383.679ZM1869.27 383.679C1869.27 376.491 1868.2 370.429 1866.07 365.494C1863.97 360.558 1861.01 356.815 1857.17 354.265C1853.34 351.714 1848.85 350.439 1843.7 350.439C1838.55 350.439 1834.06 351.714 1830.23 354.265C1826.39 356.815 1823.41 360.558 1821.28 365.494C1819.18 370.429 1818.13 376.491 1818.13 383.679C1818.13 390.867 1819.18 396.929 1821.28 401.865C1823.41 406.8 1826.39 410.544 1830.23 413.094C1834.06 415.645 1838.55 416.92 1843.7 416.92C1848.85 416.92 1853.34 415.645 1857.17 413.094C1861.01 410.544 1863.97 406.8 1866.07 401.865C1868.2 396.929 1869.27 390.867 1869.27 383.679Z" fill="white"/>
<path d="M2015.76 332.8V434.559H1997.37L1953.57 370.512H1952.83V434.559H1931.54V332.8H1950.22L1993.69 396.797H1994.57V332.8H2015.76Z" fill="white"/>
<path d="M2058.27 434.559V332.8H2126.12V350.538H2079.56V374.785H2122.63V392.524H2079.56V416.821H2126.32V434.559H2058.27Z" fill="white"/>
<path d="M2256.81 368.425H2235.27C2234.88 365.61 2234.08 363.109 2232.86 360.923C2231.65 358.703 2230.09 356.815 2228.19 355.258C2226.29 353.701 2224.1 352.509 2221.61 351.681C2219.15 350.853 2216.48 350.439 2213.59 350.439C2208.38 350.439 2203.84 351.747 2199.97 354.364C2196.1 356.948 2193.11 360.724 2190.98 365.693C2188.84 370.628 2187.78 376.624 2187.78 383.679C2187.78 390.934 2188.84 397.029 2190.98 401.964C2193.14 406.9 2196.15 410.626 2200.02 413.144C2203.89 415.661 2208.36 416.92 2213.44 416.92C2216.3 416.92 2218.93 416.539 2221.36 415.777C2223.82 415.015 2226 413.906 2227.9 412.448C2229.8 410.958 2231.37 409.152 2232.62 407.032C2233.9 404.912 2234.78 402.494 2235.27 399.778L2256.81 399.877C2256.25 404.548 2254.86 409.053 2252.63 413.392C2250.43 417.699 2247.47 421.558 2243.73 424.969C2240.03 428.348 2235.6 431.031 2230.46 433.019C2225.34 434.973 2219.56 435.95 2213.1 435.95C2204.12 435.95 2196.09 433.897 2189.01 429.789C2181.96 425.682 2176.39 419.736 2172.29 411.951C2168.23 404.167 2166.2 394.743 2166.2 383.679C2166.2 372.583 2168.26 363.142 2172.39 355.358C2176.52 347.573 2182.13 341.644 2189.21 337.57C2196.29 333.462 2204.25 331.408 2213.1 331.408C2218.93 331.408 2224.34 332.237 2229.32 333.893C2234.34 335.549 2238.78 337.967 2242.65 341.147C2246.52 344.294 2249.66 348.153 2252.09 352.724C2254.55 357.295 2256.12 362.529 2256.81 368.425Z" fill="white"/>
<path d="M2293.16 350.538V332.8H2375.86V350.538H2345.03V434.559H2323.99V350.538H2293.16Z" fill="white"/>
<path d="M2419.45 434.559H2396.64L2431.4 332.8H2458.83L2493.54 434.559H2470.73L2445.51 356.053H2444.72L2419.45 434.559ZM2418.02 394.561H2471.91V411.355H2418.02V394.561Z" fill="white"/>
<path d="M2566.28 434.559H2530.58V332.8H2566.57C2576.7 332.8 2585.42 334.837 2592.73 338.911C2600.04 342.952 2605.66 348.766 2609.59 356.351C2613.56 363.937 2615.54 373.013 2615.54 383.58C2615.54 394.18 2613.56 403.289 2609.59 410.908C2605.66 418.527 2600 424.373 2592.63 428.448C2585.29 432.522 2576.5 434.559 2566.28 434.559ZM2551.87 416.125H2565.39C2571.68 416.125 2576.98 414.999 2581.27 412.746C2585.6 410.461 2588.84 406.933 2591.01 402.163C2593.2 397.36 2594.3 391.166 2594.3 383.58C2594.3 376.061 2593.2 369.916 2591.01 365.146C2588.84 360.376 2585.61 356.865 2581.32 354.612C2577.03 352.36 2571.73 351.234 2565.44 351.234H2551.87V416.125Z" fill="white"/>
<path d="M2667.91 434.559H2645.09L2679.85 332.8H2707.29L2742 434.559H2719.19L2693.97 356.053H2693.18L2667.91 434.559ZM2666.48 394.561H2720.37V411.355H2666.48V394.561Z" fill="white"/>
<path fill-rule="evenodd" clip-rule="evenodd" d="M230 457C355.369 457 457 355.369 457 230C457 104.631 355.369 3 230 3C104.631 3 3 104.631 3 230C3 355.369 104.631 457 230 457ZM148.327 243.895C135.852 247.133 123.772 252.419 114.658 261.533L114.665 261.54C92.1269 284.918 92.3868 322.141 115.445 345.199C138.503 368.257 175.727 368.517 199.104 345.979L199.111 345.986C208.225 336.872 213.511 324.793 216.749 312.317C222.525 290.06 234.131 269.002 251.567 251.567C269.19 233.944 290.513 222.276 313.036 216.565C325.064 213.515 336.687 208.41 345.462 199.636L345.461 199.635C368.52 176.294 368.433 138.679 345.199 115.445C321.966 92.2115 284.351 92.1243 261.009 115.184L261.009 115.183C252.234 123.957 247.13 135.581 244.08 147.609C238.368 170.131 226.701 191.455 209.078 209.078C191.642 226.513 170.585 238.119 148.327 243.895ZM185.49 302.973C185.49 318.337 173.035 330.791 157.672 330.791C142.308 330.791 129.853 318.337 129.853 302.973C129.853 287.609 142.308 275.154 157.672 275.154C173.035 275.154 185.49 287.609 185.49 302.973ZM275.154 157.672C275.154 173.035 287.609 185.49 302.973 185.49C318.337 185.49 330.791 173.035 330.791 157.672C330.791 142.308 318.337 129.853 302.973 129.853C287.609 129.853 275.154 142.308 275.154 157.672ZM195.14 146.51C195.14 172.838 173.797 194.18 147.469 194.18C121.142 194.18 99.799 172.838 99.799 146.51C99.799 120.183 121.142 98.8399 147.469 98.8399C173.797 98.8399 195.14 120.183 195.14 146.51ZM314.315 361.026C340.643 361.026 361.985 339.684 361.985 313.356C361.985 287.029 340.643 265.686 314.315 265.686C287.988 265.686 266.645 287.029 266.645 313.356C266.645 339.684 287.988 361.026 314.315 361.026Z" stroke="white" stroke-width="6" mask="url(#path-1-outside-1_321_49)"/>
<path d="M665 224.998V24H751.482C770.948 24 785.13 28.0887 794.029 36.2662C803.298 44.0719 807.932 56.0593 807.932 72.2283V100.942C807.932 116.554 803.298 128.82 794.029 137.741C784.759 146.662 771.69 151.122 754.819 151.122H693.92V224.998H665ZM693.92 53.2715V122.129H754.541C763.254 122.129 769.558 120.457 773.451 117.111C777.344 113.766 779.29 107.912 779.29 99.5484V73.6222C779.29 60.0551 771.226 53.2715 755.097 53.2715H693.92Z" stroke="white" stroke-width="6" mask="url(#path-1-outside-1_321_49)"/>
<path d="M1014.39 224.998H936.807C919.01 224.998 905.662 220.352 896.763 211.059C888.05 201.581 883.694 188.199 883.694 170.915V74.1797C883.694 62.2853 886.382 51.9706 891.758 43.2356C897.134 34.5006 905.384 28.7392 916.507 25.9514C919.473 25.3939 922.995 24.9293 927.074 24.5575C931.152 24.1858 936.158 24 942.09 24H1014.95V53.2715H930.411C925.405 53.2715 921.142 55.3159 917.619 59.4046C914.282 63.3075 912.614 68.5113 912.614 75.0161V109.306H1014.95V138.577H912.614V177.885C912.614 182.531 914.56 186.713 918.453 190.43C921.605 193.031 925.035 194.797 928.742 195.726H1014.39V224.998Z" stroke="white" stroke-width="6" mask="url(#path-1-outside-1_321_49)"/>
<path d="M1227.38 224.998H1149.8C1132 224.998 1118.65 220.352 1109.75 211.059C1101.04 201.581 1096.68 188.199 1096.68 170.915V74.1797C1096.68 62.2853 1099.37 51.9706 1104.75 43.2356C1110.12 34.5006 1118.37 28.7392 1129.5 25.9514C1132.46 25.3939 1135.99 24.9293 1140.06 24.5575C1144.14 24.1858 1149.15 24 1155.08 24H1227.94V53.2715H1143.4C1138.4 53.2715 1134.13 55.3159 1130.61 59.4046C1127.27 63.3075 1125.6 68.5113 1125.6 75.0161V109.306H1227.94V138.577H1125.6V177.885C1125.6 182.531 1127.55 186.713 1131.44 190.43C1134.6 193.031 1138.03 194.797 1141.73 195.726H1227.38V224.998Z" stroke="white" stroke-width="6" mask="url(#path-1-outside-1_321_49)"/>
<path d="M1309.68 224.998V24H1410.9C1423.87 24 1434.72 28.925 1443.43 38.7751C1449.73 45.6516 1452.89 54.6654 1452.89 65.8165V100.664C1452.89 110.514 1448.99 119.527 1441.21 127.705C1433.61 135.696 1424.8 139.692 1414.79 139.692L1380.86 139.413L1454.55 224.998H1415.9L1343.6 141.086C1341.19 138.112 1339.99 134.767 1339.99 131.05C1339.99 124.917 1341.93 119.992 1345.83 116.275C1349.9 112.372 1355.19 110.421 1361.68 110.421H1405.61C1410.62 110.421 1414.97 108.841 1418.68 105.681C1422.39 102.522 1424.24 98.7121 1424.24 94.2516V71.9495C1424.24 59.4975 1418.22 53.2715 1406.17 53.2715H1338.6V224.998H1309.68Z" stroke="white" stroke-width="6" mask="url(#path-1-outside-1_321_49)"/>
<path d="M1533.26 224.998V24H1635.03C1647.27 24 1657.37 28.4604 1665.34 37.3813C1673.32 46.1163 1677.3 57.1744 1677.3 70.5557V173.703C1677.3 188.199 1672.76 200.373 1663.68 210.223C1654.59 220.073 1643.28 224.998 1629.75 224.998H1533.26ZM1562.18 53.2715V195.726H1628.08C1641.62 195.726 1648.38 187.735 1648.38 171.751V76.1312C1648.38 67.582 1646.81 61.6348 1643.65 58.2895C1640.87 54.9442 1635.5 53.2715 1627.53 53.2715H1562.18Z" stroke="white" stroke-width="6" mask="url(#path-1-outside-1_321_49)"/>
<path d="M1904.92 24V175.654C1904.92 189.779 1900.56 201.581 1891.85 211.059C1883.14 220.352 1872.1 224.998 1858.76 224.998H1808.7C1795.73 224.998 1784.7 220.352 1775.61 211.059C1766.9 201.395 1762.54 189.593 1762.54 175.654V24H1791.46V172.03C1791.46 181.137 1793.04 187.363 1796.19 190.708C1799.34 194.054 1805 195.726 1813.15 195.726H1854.31C1862.28 195.726 1867.84 194.147 1870.99 190.987C1874.33 187.642 1876 181.88 1876 173.703V24H1904.92Z" stroke="white" stroke-width="6" mask="url(#path-1-outside-1_321_49)"/>
<path d="M1984.35 224.998V195.726H2064.44C2069.81 195.726 2074.36 194.147 2078.06 190.987C2081.77 187.828 2083.62 183.925 2083.62 179.278V153.91C2083.62 142.573 2076.58 136.904 2062.49 136.904H2032.46C2018.93 136.904 2007.52 133.094 1998.25 125.475C1988.99 117.669 1984.35 107.912 1984.35 96.2031V71.1132C1984.35 53.4574 1990.47 40.262 2002.7 31.527C2009.93 26.509 2019.94 24 2032.74 24H2113.94V53.2715H2031.35C2019.48 53.2715 2013.55 58.7541 2013.55 69.7193V89.7912C2013.55 103.544 2019.85 110.421 2032.46 110.421H2067.5C2079.92 110.421 2090.58 114.231 2099.48 121.851C2108.37 129.47 2112.82 138.577 2112.82 149.171V180.672C2112.82 193.31 2108.56 203.904 2100.03 212.453C2091.69 220.816 2080.94 224.998 2067.77 224.998H1984.35Z" stroke="white" stroke-width="6" mask="url(#path-1-outside-1_321_49)"/>
<path d="M2187.86 53.2715V24H2304.09V53.2715H2260.43V224.998H2231.24V53.2715H2187.86Z" stroke="white" stroke-width="6" mask="url(#path-1-outside-1_321_49)"/>
<path d="M2373.26 224.998V24H2474.48C2487.46 24 2498.3 28.925 2507.02 38.7751C2513.32 45.6516 2516.47 54.6654 2516.47 65.8165V100.664C2516.47 110.514 2512.58 119.527 2504.79 127.705C2497.19 135.696 2488.39 139.692 2478.37 139.692L2444.45 139.413L2518.14 224.998H2479.49L2407.19 141.086C2404.78 138.112 2403.57 134.767 2403.57 131.05C2403.57 124.917 2405.52 119.992 2409.41 116.275C2413.49 112.372 2418.77 110.421 2425.26 110.421H2469.2C2474.2 110.421 2478.56 108.841 2482.27 105.681C2485.98 102.522 2487.83 98.7121 2487.83 94.2516V71.9495C2487.83 59.4975 2481.8 53.2715 2469.75 53.2715H2402.18V224.998H2373.26Z" stroke="white" stroke-width="6" mask="url(#path-1-outside-1_321_49)"/>
<path d="M2569.03 24H2603.52L2654.96 107.354L2707.52 24H2742L2669.42 138.856V224.998H2640.5L2640.22 138.856L2569.03 24Z" stroke="white" stroke-width="6" mask="url(#path-1-outside-1_321_49)"/>
<path d="M727.195 332.8H748.483V398.884C748.483 406.304 746.73 412.796 743.223 418.361C739.748 423.926 734.881 428.265 728.62 431.379C722.36 434.46 715.067 436 706.742 436C698.383 436 691.074 434.46 684.814 431.379C678.553 428.265 673.686 423.926 670.212 418.361C666.737 412.796 665 406.304 665 398.884V332.8H686.289V397.045C686.289 400.921 687.125 404.366 688.796 407.38C690.501 410.395 692.893 412.763 695.974 414.485C699.055 416.208 702.644 417.069 706.742 417.069C710.871 417.069 714.461 416.208 717.509 414.485C720.59 412.763 722.966 410.395 724.638 407.38C726.342 404.366 727.195 400.921 727.195 397.045V332.8Z" stroke="white" stroke-width="6" mask="url(#path-1-outside-1_321_49)"/>
<path d="M845.543 362.065C845.149 358.057 843.461 354.944 840.479 352.724C837.496 350.505 833.448 349.395 828.335 349.395C824.86 349.395 821.927 349.892 819.534 350.886C817.141 351.846 815.306 353.188 814.027 354.91C812.782 356.633 812.159 358.587 812.159 360.774C812.094 362.595 812.47 364.185 813.29 365.544C814.142 366.902 815.306 368.078 816.781 369.071C818.256 370.032 819.96 370.877 821.894 371.605C823.828 372.301 825.893 372.897 828.089 373.394L837.135 375.58C841.527 376.574 845.559 377.899 849.23 379.555C852.901 381.212 856.08 383.249 858.768 385.667C861.456 388.085 863.537 390.934 865.012 394.213C866.52 397.492 867.29 401.252 867.323 405.492C867.29 411.719 865.717 417.119 862.603 421.69C859.522 426.228 855.064 429.756 849.23 432.273C843.428 434.758 836.431 436 828.236 436C820.108 436 813.028 434.741 806.997 432.224C800.999 429.706 796.311 425.98 792.935 421.044C789.592 416.075 787.839 409.931 787.675 402.61H808.275C808.504 406.022 809.471 408.871 811.176 411.156C812.913 413.409 815.224 415.115 818.108 416.274C821.025 417.4 824.319 417.964 827.99 417.964C831.596 417.964 834.726 417.434 837.381 416.374C840.069 415.314 842.15 413.839 843.625 411.951C845.1 410.063 845.838 407.894 845.838 405.442C845.838 403.157 845.166 401.236 843.822 399.679C842.511 398.122 840.577 396.797 838.02 395.704C835.496 394.611 832.399 393.617 828.728 392.722L817.764 389.94C809.275 387.853 802.572 384.59 797.655 380.152C792.739 375.713 790.297 369.734 790.33 362.214C790.297 356.053 791.919 350.67 795.197 346.066C798.507 341.462 803.047 337.868 808.816 335.284C814.585 332.7 821.14 331.408 828.482 331.408C835.955 331.408 842.478 332.7 848.05 335.284C853.655 337.868 858.014 341.462 861.128 346.066C864.242 350.67 865.848 356.004 865.946 362.065H845.543Z" stroke="white" stroke-width="6" mask="url(#path-1-outside-1_321_49)"/>
<path d="M927.852 332.8V434.559H906.564V332.8H927.852Z" stroke="white" stroke-width="6" mask="url(#path-1-outside-1_321_49)"/>
<path d="M1054.51 332.8V434.559H1036.12L992.315 370.512H991.577V434.559H970.289V332.8H988.972L1032.43 396.797H1033.32V332.8H1054.51Z" stroke="white" stroke-width="6" mask="url(#path-1-outside-1_321_49)"/>
<path d="M1114.37 434.559H1091.56L1126.32 332.8H1153.76L1188.47 434.559H1165.65L1140.43 356.053H1139.65L1114.37 434.559ZM1112.95 394.561H1166.83V411.355H1112.95V394.561Z" stroke="white" stroke-width="6" mask="url(#path-1-outside-1_321_49)"/>
<path d="M1287.54 365.693C1286.85 363.274 1285.89 361.138 1284.64 359.283C1283.4 357.395 1281.87 355.805 1280.07 354.513C1278.3 353.188 1276.27 352.178 1273.97 351.482C1271.71 350.786 1269.2 350.439 1266.45 350.439C1261.3 350.439 1256.78 351.73 1252.88 354.314C1249.01 356.898 1246 360.658 1243.83 365.593C1241.67 370.496 1240.59 376.491 1240.59 383.58C1240.59 390.669 1241.65 396.697 1243.79 401.666C1245.92 406.635 1248.93 410.428 1252.83 413.045C1256.73 415.628 1261.34 416.92 1266.65 416.92C1271.47 416.92 1275.58 416.059 1278.99 414.336C1282.43 412.581 1285.05 410.113 1286.85 406.933C1288.69 403.753 1289.61 399.993 1289.61 395.654L1293.93 396.3H1267.97V380.102H1310.11V392.921C1310.11 401.865 1308.24 409.55 1304.5 415.976C1300.77 422.369 1295.62 427.305 1289.07 430.783C1282.51 434.228 1275.01 435.95 1266.55 435.95C1257.11 435.95 1248.82 433.847 1241.67 429.64C1234.53 425.4 1228.95 419.388 1224.95 411.604C1220.99 403.786 1219.01 394.511 1219.01 383.779C1219.01 375.531 1220.19 368.177 1222.55 361.718C1224.94 355.225 1228.28 349.726 1232.58 345.221C1236.87 340.716 1241.87 337.288 1247.57 334.936C1253.27 332.584 1259.45 331.408 1266.11 331.408C1271.81 331.408 1277.12 332.253 1282.04 333.942C1286.95 335.599 1291.31 337.951 1295.11 340.998C1298.95 344.046 1302.08 347.673 1304.5 351.88C1306.93 356.053 1308.49 360.658 1309.18 365.693H1287.54Z" stroke="white" stroke-width="6" mask="url(#path-1-outside-1_321_49)"/>
<path d="M1351.02 434.559V332.8H1418.87V350.538H1372.31V374.785H1415.38V392.524H1372.31V416.821H1419.07V434.559H1351.02Z" stroke="white" stroke-width="6" mask="url(#path-1-outside-1_321_49)"/>
<path d="M1460.72 332.8H1486.97L1514.7 401.169H1515.88L1543.61 332.8H1569.86V434.559H1549.21V368.326H1548.38L1522.32 434.062H1508.26L1482.2 368.078H1481.37V434.559H1460.72V332.8Z" stroke="white" stroke-width="6" mask="url(#path-1-outside-1_321_49)"/>
<path d="M1758.13 368.425H1736.6C1736.2 365.61 1735.4 363.109 1734.19 360.923C1732.98 358.703 1731.42 356.815 1729.52 355.258C1727.62 353.701 1725.42 352.509 1722.93 351.681C1720.47 350.853 1717.8 350.439 1714.92 350.439C1709.7 350.439 1705.16 351.747 1701.3 354.364C1697.43 356.948 1694.43 360.724 1692.3 365.693C1690.17 370.628 1689.1 376.624 1689.1 383.679C1689.1 390.934 1690.17 397.029 1692.3 401.964C1694.46 406.9 1697.48 410.626 1701.35 413.144C1705.21 415.661 1709.69 416.92 1714.77 416.92C1717.62 416.92 1720.26 416.539 1722.68 415.777C1725.14 415.015 1727.32 413.906 1729.22 412.448C1731.12 410.958 1732.7 409.152 1733.94 407.032C1735.22 404.912 1736.11 402.494 1736.6 399.778L1758.13 399.877C1757.58 404.548 1756.18 409.053 1753.95 413.392C1751.76 417.699 1748.79 421.558 1745.05 424.969C1741.35 428.348 1736.93 431.031 1731.78 433.019C1726.67 434.973 1720.88 435.95 1714.42 435.95C1705.44 435.95 1697.41 433.897 1690.33 429.789C1683.29 425.682 1677.71 419.736 1673.62 411.951C1669.55 404.167 1667.52 394.743 1667.52 383.679C1667.52 372.583 1669.59 363.142 1673.72 355.358C1677.85 347.573 1683.45 341.644 1690.53 337.57C1697.61 333.462 1705.57 331.408 1714.42 331.408C1720.26 331.408 1725.67 332.237 1730.65 333.893C1735.66 335.549 1740.11 337.967 1743.97 341.147C1747.84 344.294 1750.99 348.153 1753.41 352.724C1755.87 357.295 1757.44 362.529 1758.13 368.425Z" stroke="white" stroke-width="6" mask="url(#path-1-outside-1_321_49)"/>
<path d="M1890.85 383.679C1890.85 394.776 1888.77 404.217 1884.61 412.001C1880.48 419.785 1874.84 425.731 1867.69 429.839C1860.58 433.913 1852.58 435.95 1843.7 435.95C1834.75 435.95 1826.72 433.897 1819.61 429.789C1812.5 425.682 1806.87 419.736 1802.74 411.951C1798.61 404.167 1796.55 394.743 1796.55 383.679C1796.55 372.583 1798.61 363.142 1802.74 355.358C1806.87 347.573 1812.5 341.644 1819.61 337.57C1826.72 333.462 1834.75 331.408 1843.7 331.408C1852.58 331.408 1860.58 333.462 1867.69 337.57C1874.84 341.644 1880.48 347.573 1884.61 355.358C1888.77 363.142 1890.85 372.583 1890.85 383.679ZM1869.27 383.679C1869.27 376.491 1868.2 370.429 1866.07 365.494C1863.97 360.558 1861.01 356.815 1857.17 354.265C1853.34 351.714 1848.85 350.439 1843.7 350.439C1838.55 350.439 1834.06 351.714 1830.23 354.265C1826.39 356.815 1823.41 360.558 1821.28 365.494C1819.18 370.429 1818.13 376.491 1818.13 383.679C1818.13 390.867 1819.18 396.929 1821.28 401.865C1823.41 406.8 1826.39 410.544 1830.23 413.094C1834.06 415.645 1838.55 416.92 1843.7 416.92C1848.85 416.92 1853.34 415.645 1857.17 413.094C1861.01 410.544 1863.97 406.8 1866.07 401.865C1868.2 396.929 1869.27 390.867 1869.27 383.679Z" stroke="white" stroke-width="6" mask="url(#path-1-outside-1_321_49)"/>
<path d="M2015.76 332.8V434.559H1997.37L1953.57 370.512H1952.83V434.559H1931.54V332.8H1950.22L1993.69 396.797H1994.57V332.8H2015.76Z" stroke="white" stroke-width="6" mask="url(#path-1-outside-1_321_49)"/>
<path d="M2058.27 434.559V332.8H2126.12V350.538H2079.56V374.785H2122.63V392.524H2079.56V416.821H2126.32V434.559H2058.27Z" stroke="white" stroke-width="6" mask="url(#path-1-outside-1_321_49)"/>
<path d="M2256.81 368.425H2235.27C2234.88 365.61 2234.08 363.109 2232.86 360.923C2231.65 358.703 2230.09 356.815 2228.19 355.258C2226.29 353.701 2224.1 352.509 2221.61 351.681C2219.15 350.853 2216.48 350.439 2213.59 350.439C2208.38 350.439 2203.84 351.747 2199.97 354.364C2196.1 356.948 2193.11 360.724 2190.98 365.693C2188.84 370.628 2187.78 376.624 2187.78 383.679C2187.78 390.934 2188.84 397.029 2190.98 401.964C2193.14 406.9 2196.15 410.626 2200.02 413.144C2203.89 415.661 2208.36 416.92 2213.44 416.92C2216.3 416.92 2218.93 416.539 2221.36 415.777C2223.82 415.015 2226 413.906 2227.9 412.448C2229.8 410.958 2231.37 409.152 2232.62 407.032C2233.9 404.912 2234.78 402.494 2235.27 399.778L2256.81 399.877C2256.25 404.548 2254.86 409.053 2252.63 413.392C2250.43 417.699 2247.47 421.558 2243.73 424.969C2240.03 428.348 2235.6 431.031 2230.46 433.019C2225.34 434.973 2219.56 435.95 2213.1 435.95C2204.12 435.95 2196.09 433.897 2189.01 429.789C2181.96 425.682 2176.39 419.736 2172.29 411.951C2168.23 404.167 2166.2 394.743 2166.2 383.679C2166.2 372.583 2168.26 363.142 2172.39 355.358C2176.52 347.573 2182.13 341.644 2189.21 337.57C2196.29 333.462 2204.25 331.408 2213.1 331.408C2218.93 331.408 2224.34 332.237 2229.32 333.893C2234.34 335.549 2238.78 337.967 2242.65 341.147C2246.52 344.294 2249.66 348.153 2252.09 352.724C2254.55 357.295 2256.12 362.529 2256.81 368.425Z" stroke="white" stroke-width="6" mask="url(#path-1-outside-1_321_49)"/>
<path d="M2293.16 350.538V332.8H2375.86V350.538H2345.03V434.559H2323.99V350.538H2293.16Z" stroke="white" stroke-width="6" mask="url(#path-1-outside-1_321_49)"/>
<path d="M2419.45 434.559H2396.64L2431.4 332.8H2458.83L2493.54 434.559H2470.73L2445.51 356.053H2444.72L2419.45 434.559ZM2418.02 394.561H2471.91V411.355H2418.02V394.561Z" stroke="white" stroke-width="6" mask="url(#path-1-outside-1_321_49)"/>
<path d="M2566.28 434.559H2530.58V332.8H2566.57C2576.7 332.8 2585.42 334.837 2592.73 338.911C2600.04 342.952 2605.66 348.766 2609.59 356.351C2613.56 363.937 2615.54 373.013 2615.54 383.58C2615.54 394.18 2613.56 403.289 2609.59 410.908C2605.66 418.527 2600 424.373 2592.63 428.448C2585.29 432.522 2576.5 434.559 2566.28 434.559ZM2551.87 416.125H2565.39C2571.68 416.125 2576.98 414.999 2581.27 412.746C2585.6 410.461 2588.84 406.933 2591.01 402.163C2593.2 397.36 2594.3 391.166 2594.3 383.58C2594.3 376.061 2593.2 369.916 2591.01 365.146C2588.84 360.376 2585.61 356.865 2581.32 354.612C2577.03 352.36 2571.73 351.234 2565.44 351.234H2551.87V416.125Z" stroke="white" stroke-width="6" mask="url(#path-1-outside-1_321_49)"/>
<path d="M2667.91 434.559H2645.09L2679.85 332.8H2707.29L2742 434.559H2719.19L2693.97 356.053H2693.18L2667.91 434.559ZM2666.48 394.561H2720.37V411.355H2666.48V394.561Z" stroke="white" stroke-width="6" mask="url(#path-1-outside-1_321_49)"/>
</svg>
