<svg width="2745" height="454" viewBox="0 0 2745 454" fill="none" xmlns="http://www.w3.org/2000/svg">
<path fill-rule="evenodd" clip-rule="evenodd" d="M227 454C352.369 454 454 352.369 454 227C454 101.631 352.369 0 227 0C101.631 0 0 101.631 0 227C0 352.369 101.631 454 227 454ZM145.327 240.895C132.852 244.133 120.772 249.419 111.658 258.533L111.665 258.54C89.1269 281.918 89.3868 319.141 112.445 342.199C135.503 365.257 172.727 365.517 196.104 342.979L196.111 342.986C205.225 333.872 210.511 321.793 213.749 309.317C219.525 287.06 231.131 266.002 248.567 248.567C266.19 230.944 287.513 219.276 310.036 213.565C322.064 210.515 333.687 205.41 342.462 196.636L342.461 196.635C365.52 173.294 365.433 135.679 342.199 112.445C318.966 89.2115 281.351 89.1243 258.009 112.184L258.009 112.183C249.234 120.957 244.13 132.581 241.08 144.609C235.368 167.131 223.701 188.455 206.078 206.078C188.642 223.513 167.585 235.119 145.327 240.895ZM182.49 299.973C182.49 315.337 170.035 327.791 154.672 327.791C139.308 327.791 126.853 315.337 126.853 299.973C126.853 284.609 139.308 272.154 154.672 272.154C170.035 272.154 182.49 284.609 182.49 299.973ZM272.154 154.672C272.154 170.035 284.609 182.49 299.973 182.49C315.337 182.49 327.791 170.035 327.791 154.672C327.791 139.308 315.337 126.853 299.973 126.853C284.609 126.853 272.154 139.308 272.154 154.672ZM192.14 143.51C192.14 169.838 170.797 191.18 144.469 191.18C118.142 191.18 96.799 169.838 96.799 143.51C96.799 117.183 118.142 95.8399 144.469 95.8399C170.797 95.8399 192.14 117.183 192.14 143.51ZM311.315 358.026C337.643 358.026 358.985 336.684 358.985 310.356C358.985 284.029 337.643 262.686 311.315 262.686C284.988 262.686 263.645 284.029 263.645 310.356C263.645 336.684 284.988 358.026 311.315 358.026Z" fill="#00437F"/>
<mask id="path-2-outside-1_321_47" maskUnits="userSpaceOnUse" x="659" y="18" width="2086" height="418" fill="black">
<rect fill="white" x="659" y="18" width="2086" height="418"/>
<path d="M662 221.998V21H748.482C767.948 21 782.13 25.0887 791.029 33.2662C800.298 41.0719 804.932 53.0593 804.932 69.2283V97.9423C804.932 113.554 800.298 125.82 791.029 134.741C781.759 143.662 768.69 148.122 751.819 148.122H690.92V221.998H662ZM690.92 50.2715V119.129H751.541C760.254 119.129 766.558 117.457 770.451 114.111C774.344 110.766 776.29 104.912 776.29 96.5484V70.6222C776.29 57.0551 768.226 50.2715 752.098 50.2715H690.92Z"/>
<path d="M1011.39 221.998H933.807C916.01 221.998 902.662 217.352 893.763 208.059C885.05 198.581 880.694 185.199 880.694 167.915V71.1797C880.694 59.2853 883.382 48.9706 888.758 40.2356C894.134 31.5006 902.384 25.7392 913.507 22.9514C916.473 22.3939 919.995 21.9293 924.074 21.5575C928.152 21.1858 933.158 21 939.09 21H1011.95V50.2715H927.411C922.405 50.2715 918.142 52.3159 914.619 56.4046C911.282 60.3075 909.614 65.5113 909.614 72.0161V106.306H1011.95V135.577H909.614V174.885C909.614 179.531 911.56 183.712 915.454 187.43C918.605 190.031 922.035 191.797 925.742 192.726H1011.39V221.998Z"/>
<path d="M1224.38 221.998H1146.8C1129 221.998 1115.65 217.352 1106.75 208.059C1098.04 198.581 1093.68 185.199 1093.68 167.915V71.1797C1093.68 59.2853 1096.37 48.9706 1101.75 40.2356C1107.13 31.5006 1115.37 25.7392 1126.5 22.9514C1129.46 22.3939 1132.99 21.9293 1137.06 21.5575C1141.14 21.1858 1146.15 21 1152.08 21H1224.94V50.2715H1140.4C1135.4 50.2715 1131.13 52.3159 1127.61 56.4046C1124.27 60.3075 1122.6 65.5113 1122.6 72.0161V106.306H1224.94V135.577H1122.6V174.885C1122.6 179.531 1124.55 183.712 1128.44 187.43C1131.6 190.031 1135.03 191.797 1138.73 192.726H1224.38V221.998Z"/>
<path d="M1306.68 221.998V21H1407.9C1420.87 21 1431.72 25.925 1440.43 35.7751C1446.73 42.6516 1449.89 51.6654 1449.89 62.8165V97.6635C1449.89 107.514 1445.99 116.527 1438.21 124.705C1430.61 132.696 1421.8 136.692 1411.79 136.692L1377.86 136.413L1451.55 221.998H1412.9L1340.6 138.086C1338.19 135.112 1336.99 131.767 1336.99 128.05C1336.99 121.917 1338.93 116.992 1342.83 113.275C1346.9 109.372 1352.19 107.421 1358.68 107.421H1402.61C1407.62 107.421 1411.97 105.841 1415.68 102.681C1419.39 99.522 1421.24 95.7121 1421.24 91.2516V68.9495C1421.24 56.4975 1415.22 50.2715 1403.17 50.2715H1335.6V221.998H1306.68Z"/>
<path d="M1530.26 221.998V21H1632.03C1644.27 21 1654.37 25.4604 1662.34 34.3813C1670.32 43.1163 1674.3 54.1744 1674.3 67.5557V170.703C1674.3 185.199 1669.76 197.373 1660.68 207.223C1651.59 217.073 1640.28 221.998 1626.75 221.998H1530.26ZM1559.18 50.2715V192.726H1625.08C1638.62 192.726 1645.38 184.735 1645.38 168.751V73.1312C1645.38 64.582 1643.81 58.6348 1640.65 55.2895C1637.87 51.9442 1632.5 50.2715 1624.53 50.2715H1559.18Z"/>
<path d="M1901.92 21V172.654C1901.92 186.779 1897.56 198.581 1888.85 208.059C1880.14 217.352 1869.1 221.998 1855.76 221.998H1805.7C1792.73 221.998 1781.7 217.352 1772.61 208.059C1763.9 198.395 1759.54 186.593 1759.54 172.654V21H1788.46V169.03C1788.46 178.137 1790.04 184.363 1793.19 187.708C1796.34 191.054 1802 192.726 1810.15 192.726H1851.31C1859.28 192.726 1864.84 191.147 1867.99 187.987C1871.33 184.642 1873 178.88 1873 170.703V21H1901.92Z"/>
<path d="M1981.35 221.998V192.726H2061.44C2066.81 192.726 2071.36 191.147 2075.06 187.987C2078.77 184.828 2080.62 180.925 2080.62 176.278V150.91C2080.62 139.573 2073.58 133.904 2059.49 133.904H2029.46C2015.93 133.904 2004.52 130.094 1995.25 122.475C1985.99 114.669 1981.35 104.912 1981.35 93.2031V68.1132C1981.35 50.4574 1987.47 37.262 1999.7 28.527C2006.93 23.509 2016.94 21 2029.74 21H2110.94V50.2715H2028.35C2016.48 50.2715 2010.55 55.7541 2010.55 66.7193V86.7912C2010.55 100.544 2016.85 107.421 2029.46 107.421H2064.5C2076.92 107.421 2087.58 111.231 2096.48 118.851C2105.37 126.47 2109.82 135.577 2109.82 146.171V177.672C2109.82 190.31 2105.56 200.904 2097.03 209.453C2088.69 217.816 2077.94 221.998 2064.77 221.998H1981.35Z"/>
<path d="M2184.86 50.2715V21H2301.09V50.2715H2257.43V221.998H2228.24V50.2715H2184.86Z"/>
<path d="M2370.26 221.998V21H2471.48C2484.46 21 2495.3 25.925 2504.02 35.7751C2510.32 42.6516 2513.47 51.6654 2513.47 62.8165V97.6635C2513.47 107.514 2509.58 116.527 2501.79 124.705C2494.19 132.696 2485.39 136.692 2475.37 136.692L2441.45 136.413L2515.14 221.998H2476.49L2404.19 138.086C2401.78 135.112 2400.57 131.767 2400.57 128.05C2400.57 121.917 2402.52 116.992 2406.41 113.275C2410.49 109.372 2415.77 107.421 2422.26 107.421H2466.2C2471.2 107.421 2475.56 105.841 2479.27 102.681C2482.98 99.522 2484.83 95.7121 2484.83 91.2516V68.9495C2484.83 56.4975 2478.8 50.2715 2466.75 50.2715H2399.18V221.998H2370.26Z"/>
<path d="M2566.03 21H2600.52L2651.96 104.354L2704.52 21H2739L2666.42 135.856V221.998H2637.5L2637.22 135.856L2566.03 21Z"/>
<path d="M724.195 329.8H745.483V395.884C745.483 403.304 743.73 409.796 740.223 415.361C736.748 420.926 731.881 425.265 725.62 428.379C719.36 431.46 712.067 433 703.742 433C695.383 433 688.074 431.46 681.814 428.379C675.553 425.265 670.686 420.926 667.212 415.361C663.737 409.796 662 403.304 662 395.884V329.8H683.289V394.045C683.289 397.921 684.125 401.366 685.796 404.38C687.501 407.395 689.893 409.763 692.974 411.485C696.055 413.208 699.644 414.069 703.742 414.069C707.872 414.069 711.461 413.208 714.509 411.485C717.59 409.763 719.966 407.395 721.638 404.38C723.342 401.366 724.195 397.921 724.195 394.045V329.8Z"/>
<path d="M842.543 359.065C842.149 355.057 840.461 351.944 837.479 349.724C834.496 347.505 830.448 346.395 825.335 346.395C821.86 346.395 818.927 346.892 816.534 347.886C814.141 348.846 812.306 350.188 811.027 351.91C809.782 353.633 809.159 355.587 809.159 357.774C809.094 359.595 809.47 361.185 810.29 362.544C811.142 363.902 812.306 365.078 813.781 366.071C815.256 367.032 816.96 367.877 818.894 368.605C820.828 369.301 822.893 369.897 825.089 370.394L834.135 372.58C838.527 373.574 842.559 374.899 846.23 376.555C849.901 378.212 853.08 380.249 855.768 382.667C858.456 385.085 860.537 387.934 862.012 391.213C863.52 394.492 864.29 398.252 864.323 402.492C864.29 408.719 862.717 414.119 859.603 418.69C856.522 423.228 852.064 426.756 846.23 429.273C840.428 431.758 833.431 433 825.236 433C817.108 433 810.028 431.741 803.997 429.224C797.999 426.706 793.311 422.98 789.935 418.044C786.592 413.075 784.839 406.931 784.675 399.61H805.275C805.504 403.022 806.471 405.871 808.176 408.156C809.913 410.409 812.224 412.115 815.108 413.274C818.025 414.4 821.319 414.964 824.99 414.964C828.596 414.964 831.726 414.434 834.381 413.374C837.069 412.314 839.15 410.84 840.625 408.951C842.1 407.063 842.838 404.894 842.838 402.442C842.838 400.157 842.166 398.236 840.822 396.679C839.511 395.122 837.577 393.797 835.02 392.704C832.496 391.611 829.399 390.617 825.728 389.722L814.764 386.94C806.275 384.853 799.572 381.59 794.655 377.152C789.739 372.713 787.297 366.734 787.33 359.214C787.297 353.053 788.919 347.67 792.197 343.066C795.507 338.462 800.047 334.868 805.816 332.284C811.585 329.7 818.14 328.408 825.482 328.408C832.955 328.408 839.478 329.7 845.05 332.284C850.655 334.868 855.014 338.462 858.128 343.066C861.242 347.67 862.848 353.004 862.946 359.065H842.543Z"/>
<path d="M924.852 329.8V431.559H903.564V329.8H924.852Z"/>
<path d="M1051.51 329.8V431.559H1033.12L989.315 367.512H988.577V431.559H967.289V329.8H985.972L1029.43 393.797H1030.32V329.8H1051.51Z"/>
<path d="M1111.37 431.559H1088.56L1123.32 329.8H1150.76L1185.47 431.559H1162.65L1137.43 353.053H1136.65L1111.37 431.559ZM1109.95 391.561H1163.83V408.355H1109.95V391.561Z"/>
<path d="M1284.54 362.693C1283.85 360.274 1282.89 358.138 1281.64 356.283C1280.4 354.395 1278.87 352.805 1277.07 351.513C1275.3 350.188 1273.27 349.178 1270.97 348.482C1268.71 347.786 1266.2 347.439 1263.45 347.439C1258.3 347.439 1253.78 348.73 1249.88 351.314C1246.01 353.898 1243 357.658 1240.83 362.593C1238.67 367.496 1237.59 373.491 1237.59 380.58C1237.59 387.669 1238.65 393.697 1240.79 398.666C1242.92 403.635 1245.93 407.428 1249.83 410.045C1253.73 412.628 1258.34 413.92 1263.65 413.92C1268.47 413.92 1272.58 413.059 1275.99 411.336C1279.43 409.581 1282.05 407.113 1283.85 403.933C1285.69 400.753 1286.61 396.993 1286.61 392.654L1290.93 393.3H1264.97V377.102H1307.11V389.921C1307.11 398.865 1305.24 406.55 1301.5 412.976C1297.77 419.369 1292.62 424.305 1286.07 427.783C1279.51 431.228 1272.01 432.95 1263.55 432.95C1254.11 432.95 1245.82 430.847 1238.67 426.64C1231.53 422.4 1225.95 416.388 1221.95 408.604C1217.99 400.786 1216.01 391.511 1216.01 380.779C1216.01 372.531 1217.19 365.177 1219.55 358.718C1221.94 352.225 1225.28 346.726 1229.58 342.221C1233.87 337.716 1238.87 334.288 1244.57 331.936C1250.27 329.584 1256.45 328.408 1263.11 328.408C1268.81 328.408 1274.12 329.253 1279.04 330.942C1283.95 332.599 1288.31 334.951 1292.11 337.998C1295.95 341.046 1299.08 344.673 1301.5 348.88C1303.93 353.053 1305.49 357.658 1306.18 362.693H1284.54Z"/>
<path d="M1348.02 431.559V329.8H1415.87V347.538H1369.31V371.785H1412.38V389.524H1369.31V413.821H1416.07V431.559H1348.02Z"/>
<path d="M1457.72 329.8H1483.97L1511.7 398.169H1512.88L1540.61 329.8H1566.86V431.559H1546.21V365.326H1545.38L1519.32 431.062H1505.26L1479.2 365.078H1478.37V431.559H1457.72V329.8Z"/>
<path d="M1755.13 365.425H1733.6C1733.2 362.61 1732.4 360.109 1731.19 357.923C1729.98 355.703 1728.42 353.815 1726.52 352.258C1724.62 350.701 1722.42 349.509 1719.93 348.681C1717.47 347.853 1714.8 347.439 1711.92 347.439C1706.7 347.439 1702.16 348.747 1698.3 351.364C1694.43 353.948 1691.43 357.724 1689.3 362.693C1687.17 367.628 1686.1 373.624 1686.1 380.679C1686.1 387.934 1687.17 394.029 1689.3 398.964C1691.46 403.9 1694.48 407.626 1698.35 410.144C1702.21 412.661 1706.69 413.92 1711.77 413.92C1714.62 413.92 1717.26 413.539 1719.68 412.777C1722.14 412.015 1724.32 410.906 1726.22 409.448C1728.12 407.958 1729.7 406.152 1730.94 404.032C1732.22 401.912 1733.11 399.494 1733.6 396.778L1755.13 396.877C1754.58 401.548 1753.18 406.053 1750.95 410.392C1748.76 414.699 1745.79 418.558 1742.05 421.969C1738.35 425.348 1733.93 428.031 1728.78 430.019C1723.67 431.973 1717.88 432.95 1711.42 432.95C1702.44 432.95 1694.41 430.897 1687.33 426.789C1680.29 422.682 1674.71 416.736 1670.62 408.951C1666.55 401.167 1664.52 391.743 1664.52 380.679C1664.52 369.583 1666.59 360.142 1670.72 352.358C1674.84 344.573 1680.45 338.644 1687.53 334.57C1694.61 330.462 1702.57 328.408 1711.42 328.408C1717.26 328.408 1722.67 329.237 1727.65 330.893C1732.66 332.549 1737.11 334.967 1740.97 338.147C1744.84 341.294 1747.99 345.153 1750.41 349.724C1752.87 354.295 1754.44 359.529 1755.13 365.425Z"/>
<path d="M1887.85 380.679C1887.85 391.776 1885.77 401.217 1881.61 409.001C1877.48 416.785 1871.84 422.731 1864.69 426.839C1857.58 430.913 1849.58 432.95 1840.7 432.95C1831.75 432.95 1823.72 430.897 1816.61 426.789C1809.5 422.682 1803.87 416.736 1799.74 408.951C1795.61 401.167 1793.55 391.743 1793.55 380.679C1793.55 369.583 1795.61 360.142 1799.74 352.358C1803.87 344.573 1809.5 338.644 1816.61 334.57C1823.72 330.462 1831.75 328.408 1840.7 328.408C1849.58 328.408 1857.58 330.462 1864.69 334.57C1871.84 338.644 1877.48 344.573 1881.61 352.358C1885.77 360.142 1887.85 369.583 1887.85 380.679ZM1866.27 380.679C1866.27 373.491 1865.2 367.429 1863.07 362.494C1860.97 357.558 1858.01 353.815 1854.17 351.265C1850.34 348.714 1845.85 347.439 1840.7 347.439C1835.55 347.439 1831.06 348.714 1827.23 351.265C1823.39 353.815 1820.41 357.558 1818.28 362.494C1816.18 367.429 1815.13 373.491 1815.13 380.679C1815.13 387.867 1816.18 393.929 1818.28 398.865C1820.41 403.8 1823.39 407.544 1827.23 410.094C1831.06 412.645 1835.55 413.92 1840.7 413.92C1845.85 413.92 1850.34 412.645 1854.17 410.094C1858.01 407.544 1860.97 403.8 1863.07 398.865C1865.2 393.929 1866.27 387.867 1866.27 380.679Z"/>
<path d="M2012.76 329.8V431.559H1994.37L1950.57 367.512H1949.83V431.559H1928.54V329.8H1947.22L1990.69 393.797H1991.57V329.8H2012.76Z"/>
<path d="M2055.27 431.559V329.8H2123.12V347.538H2076.56V371.785H2119.63V389.524H2076.56V413.821H2123.32V431.559H2055.27Z"/>
<path d="M2253.81 365.425H2232.27C2231.88 362.61 2231.08 360.109 2229.86 357.923C2228.65 355.703 2227.09 353.815 2225.19 352.258C2223.29 350.701 2221.1 349.509 2218.61 348.681C2216.15 347.853 2213.48 347.439 2210.59 347.439C2205.38 347.439 2200.84 348.747 2196.97 351.364C2193.1 353.948 2190.11 357.724 2187.98 362.693C2185.84 367.628 2184.78 373.624 2184.78 380.679C2184.78 387.934 2185.84 394.029 2187.98 398.964C2190.14 403.9 2193.15 407.626 2197.02 410.144C2200.89 412.661 2205.36 413.92 2210.44 413.92C2213.3 413.92 2215.93 413.539 2218.36 412.777C2220.82 412.015 2223 410.906 2224.9 409.448C2226.8 407.958 2228.37 406.152 2229.62 404.032C2230.9 401.912 2231.78 399.494 2232.27 396.778L2253.81 396.877C2253.25 401.548 2251.86 406.053 2249.63 410.392C2247.43 414.699 2244.47 418.558 2240.73 421.969C2237.03 425.348 2232.6 428.031 2227.46 430.019C2222.34 431.973 2216.56 432.95 2210.1 432.95C2201.12 432.95 2193.09 430.897 2186.01 426.789C2178.96 422.682 2173.39 416.736 2169.29 408.951C2165.23 401.167 2163.2 391.743 2163.2 380.679C2163.2 369.583 2165.26 360.142 2169.39 352.358C2173.52 344.573 2179.13 338.644 2186.21 334.57C2193.29 330.462 2201.25 328.408 2210.1 328.408C2215.93 328.408 2221.34 329.237 2226.32 330.893C2231.34 332.549 2235.78 334.967 2239.65 338.147C2243.52 341.294 2246.66 345.153 2249.09 349.724C2251.55 354.295 2253.12 359.529 2253.81 365.425Z"/>
<path d="M2290.16 347.538V329.8H2372.86V347.538H2342.03V431.559H2320.99V347.538H2290.16Z"/>
<path d="M2416.45 431.559H2393.64L2428.4 329.8H2455.83L2490.54 431.559H2467.73L2442.51 353.053H2441.72L2416.45 431.559ZM2415.02 391.561H2468.91V408.355H2415.02V391.561Z"/>
<path d="M2563.28 431.559H2527.58V329.8H2563.57C2573.7 329.8 2582.42 331.837 2589.73 335.911C2597.04 339.952 2602.66 345.766 2606.59 353.351C2610.56 360.937 2612.54 370.013 2612.54 380.58C2612.54 391.18 2610.56 400.289 2606.59 407.908C2602.66 415.527 2597 421.373 2589.63 425.448C2582.29 429.522 2573.5 431.559 2563.28 431.559ZM2548.87 413.125H2562.39C2568.68 413.125 2573.98 411.999 2578.27 409.746C2582.6 407.461 2585.84 403.933 2588.01 399.163C2590.2 394.36 2591.3 388.166 2591.3 380.58C2591.3 373.061 2590.2 366.916 2588.01 362.146C2585.84 357.376 2582.61 353.865 2578.32 351.612C2574.03 349.36 2568.73 348.234 2562.44 348.234H2548.87V413.125Z"/>
<path d="M2664.91 431.559H2642.09L2676.85 329.8H2704.29L2739 431.559H2716.19L2690.97 353.053H2690.18L2664.91 431.559ZM2663.48 391.561H2717.37V408.355H2663.48V391.561Z"/>
</mask>
<path d="M662 221.998V21H748.482C767.948 21 782.13 25.0887 791.029 33.2662C800.298 41.0719 804.932 53.0593 804.932 69.2283V97.9423C804.932 113.554 800.298 125.82 791.029 134.741C781.759 143.662 768.69 148.122 751.819 148.122H690.92V221.998H662ZM690.92 50.2715V119.129H751.541C760.254 119.129 766.558 117.457 770.451 114.111C774.344 110.766 776.29 104.912 776.29 96.5484V70.6222C776.29 57.0551 768.226 50.2715 752.098 50.2715H690.92Z" fill="#00437F"/>
<path d="M1011.39 221.998H933.807C916.01 221.998 902.662 217.352 893.763 208.059C885.05 198.581 880.694 185.199 880.694 167.915V71.1797C880.694 59.2853 883.382 48.9706 888.758 40.2356C894.134 31.5006 902.384 25.7392 913.507 22.9514C916.473 22.3939 919.995 21.9293 924.074 21.5575C928.152 21.1858 933.158 21 939.09 21H1011.95V50.2715H927.411C922.405 50.2715 918.142 52.3159 914.619 56.4046C911.282 60.3075 909.614 65.5113 909.614 72.0161V106.306H1011.95V135.577H909.614V174.885C909.614 179.531 911.56 183.712 915.454 187.43C918.605 190.031 922.035 191.797 925.742 192.726H1011.39V221.998Z" fill="#00437F"/>
<path d="M1224.38 221.998H1146.8C1129 221.998 1115.65 217.352 1106.75 208.059C1098.04 198.581 1093.68 185.199 1093.68 167.915V71.1797C1093.68 59.2853 1096.37 48.9706 1101.75 40.2356C1107.13 31.5006 1115.37 25.7392 1126.5 22.9514C1129.46 22.3939 1132.99 21.9293 1137.06 21.5575C1141.14 21.1858 1146.15 21 1152.08 21H1224.94V50.2715H1140.4C1135.4 50.2715 1131.13 52.3159 1127.61 56.4046C1124.27 60.3075 1122.6 65.5113 1122.6 72.0161V106.306H1224.94V135.577H1122.6V174.885C1122.6 179.531 1124.55 183.712 1128.44 187.43C1131.6 190.031 1135.03 191.797 1138.73 192.726H1224.38V221.998Z" fill="#00437F"/>
<path d="M1306.68 221.998V21H1407.9C1420.87 21 1431.72 25.925 1440.43 35.7751C1446.73 42.6516 1449.89 51.6654 1449.89 62.8165V97.6635C1449.89 107.514 1445.99 116.527 1438.21 124.705C1430.61 132.696 1421.8 136.692 1411.79 136.692L1377.86 136.413L1451.55 221.998H1412.9L1340.6 138.086C1338.19 135.112 1336.99 131.767 1336.99 128.05C1336.99 121.917 1338.93 116.992 1342.83 113.275C1346.9 109.372 1352.19 107.421 1358.68 107.421H1402.61C1407.62 107.421 1411.97 105.841 1415.68 102.681C1419.39 99.522 1421.24 95.7121 1421.24 91.2516V68.9495C1421.24 56.4975 1415.22 50.2715 1403.17 50.2715H1335.6V221.998H1306.68Z" fill="#00437F"/>
<path d="M1530.26 221.998V21H1632.03C1644.27 21 1654.37 25.4604 1662.34 34.3813C1670.32 43.1163 1674.3 54.1744 1674.3 67.5557V170.703C1674.3 185.199 1669.76 197.373 1660.68 207.223C1651.59 217.073 1640.28 221.998 1626.75 221.998H1530.26ZM1559.18 50.2715V192.726H1625.08C1638.62 192.726 1645.38 184.735 1645.38 168.751V73.1312C1645.38 64.582 1643.81 58.6348 1640.65 55.2895C1637.87 51.9442 1632.5 50.2715 1624.53 50.2715H1559.18Z" fill="#00437F"/>
<path d="M1901.92 21V172.654C1901.92 186.779 1897.56 198.581 1888.85 208.059C1880.14 217.352 1869.1 221.998 1855.76 221.998H1805.7C1792.73 221.998 1781.7 217.352 1772.61 208.059C1763.9 198.395 1759.54 186.593 1759.54 172.654V21H1788.46V169.03C1788.46 178.137 1790.04 184.363 1793.19 187.708C1796.34 191.054 1802 192.726 1810.15 192.726H1851.31C1859.28 192.726 1864.84 191.147 1867.99 187.987C1871.33 184.642 1873 178.88 1873 170.703V21H1901.92Z" fill="#00437F"/>
<path d="M1981.35 221.998V192.726H2061.44C2066.81 192.726 2071.36 191.147 2075.06 187.987C2078.77 184.828 2080.62 180.925 2080.62 176.278V150.91C2080.62 139.573 2073.58 133.904 2059.49 133.904H2029.46C2015.93 133.904 2004.52 130.094 1995.25 122.475C1985.99 114.669 1981.35 104.912 1981.35 93.2031V68.1132C1981.35 50.4574 1987.47 37.262 1999.7 28.527C2006.93 23.509 2016.94 21 2029.74 21H2110.94V50.2715H2028.35C2016.48 50.2715 2010.55 55.7541 2010.55 66.7193V86.7912C2010.55 100.544 2016.85 107.421 2029.46 107.421H2064.5C2076.92 107.421 2087.58 111.231 2096.48 118.851C2105.37 126.47 2109.82 135.577 2109.82 146.171V177.672C2109.82 190.31 2105.56 200.904 2097.03 209.453C2088.69 217.816 2077.94 221.998 2064.77 221.998H1981.35Z" fill="#00437F"/>
<path d="M2184.86 50.2715V21H2301.09V50.2715H2257.43V221.998H2228.24V50.2715H2184.86Z" fill="#00437F"/>
<path d="M2370.26 221.998V21H2471.48C2484.46 21 2495.3 25.925 2504.02 35.7751C2510.32 42.6516 2513.47 51.6654 2513.47 62.8165V97.6635C2513.47 107.514 2509.58 116.527 2501.79 124.705C2494.19 132.696 2485.39 136.692 2475.37 136.692L2441.45 136.413L2515.14 221.998H2476.49L2404.19 138.086C2401.78 135.112 2400.57 131.767 2400.57 128.05C2400.57 121.917 2402.52 116.992 2406.41 113.275C2410.49 109.372 2415.77 107.421 2422.26 107.421H2466.2C2471.2 107.421 2475.56 105.841 2479.27 102.681C2482.98 99.522 2484.83 95.7121 2484.83 91.2516V68.9495C2484.83 56.4975 2478.8 50.2715 2466.75 50.2715H2399.18V221.998H2370.26Z" fill="#00437F"/>
<path d="M2566.03 21H2600.52L2651.96 104.354L2704.52 21H2739L2666.42 135.856V221.998H2637.5L2637.22 135.856L2566.03 21Z" fill="#00437F"/>
<path d="M724.195 329.8H745.483V395.884C745.483 403.304 743.73 409.796 740.223 415.361C736.748 420.926 731.881 425.265 725.62 428.379C719.36 431.46 712.067 433 703.742 433C695.383 433 688.074 431.46 681.814 428.379C675.553 425.265 670.686 420.926 667.212 415.361C663.737 409.796 662 403.304 662 395.884V329.8H683.289V394.045C683.289 397.921 684.125 401.366 685.796 404.38C687.501 407.395 689.893 409.763 692.974 411.485C696.055 413.208 699.644 414.069 703.742 414.069C707.872 414.069 711.461 413.208 714.509 411.485C717.59 409.763 719.966 407.395 721.638 404.38C723.342 401.366 724.195 397.921 724.195 394.045V329.8Z" fill="#00437F"/>
<path d="M842.543 359.065C842.149 355.057 840.461 351.944 837.479 349.724C834.496 347.505 830.448 346.395 825.335 346.395C821.86 346.395 818.927 346.892 816.534 347.886C814.141 348.846 812.306 350.188 811.027 351.91C809.782 353.633 809.159 355.587 809.159 357.774C809.094 359.595 809.47 361.185 810.29 362.544C811.142 363.902 812.306 365.078 813.781 366.071C815.256 367.032 816.96 367.877 818.894 368.605C820.828 369.301 822.893 369.897 825.089 370.394L834.135 372.58C838.527 373.574 842.559 374.899 846.23 376.555C849.901 378.212 853.08 380.249 855.768 382.667C858.456 385.085 860.537 387.934 862.012 391.213C863.52 394.492 864.29 398.252 864.323 402.492C864.29 408.719 862.717 414.119 859.603 418.69C856.522 423.228 852.064 426.756 846.23 429.273C840.428 431.758 833.431 433 825.236 433C817.108 433 810.028 431.741 803.997 429.224C797.999 426.706 793.311 422.98 789.935 418.044C786.592 413.075 784.839 406.931 784.675 399.61H805.275C805.504 403.022 806.471 405.871 808.176 408.156C809.913 410.409 812.224 412.115 815.108 413.274C818.025 414.4 821.319 414.964 824.99 414.964C828.596 414.964 831.726 414.434 834.381 413.374C837.069 412.314 839.15 410.84 840.625 408.951C842.1 407.063 842.838 404.894 842.838 402.442C842.838 400.157 842.166 398.236 840.822 396.679C839.511 395.122 837.577 393.797 835.02 392.704C832.496 391.611 829.399 390.617 825.728 389.722L814.764 386.94C806.275 384.853 799.572 381.59 794.655 377.152C789.739 372.713 787.297 366.734 787.33 359.214C787.297 353.053 788.919 347.67 792.197 343.066C795.507 338.462 800.047 334.868 805.816 332.284C811.585 329.7 818.14 328.408 825.482 328.408C832.955 328.408 839.478 329.7 845.05 332.284C850.655 334.868 855.014 338.462 858.128 343.066C861.242 347.67 862.848 353.004 862.946 359.065H842.543Z" fill="#00437F"/>
<path d="M924.852 329.8V431.559H903.564V329.8H924.852Z" fill="#00437F"/>
<path d="M1051.51 329.8V431.559H1033.12L989.315 367.512H988.577V431.559H967.289V329.8H985.972L1029.43 393.797H1030.32V329.8H1051.51Z" fill="#00437F"/>
<path d="M1111.37 431.559H1088.56L1123.32 329.8H1150.76L1185.47 431.559H1162.65L1137.43 353.053H1136.65L1111.37 431.559ZM1109.95 391.561H1163.83V408.355H1109.95V391.561Z" fill="#00437F"/>
<path d="M1284.54 362.693C1283.85 360.274 1282.89 358.138 1281.64 356.283C1280.4 354.395 1278.87 352.805 1277.07 351.513C1275.3 350.188 1273.27 349.178 1270.97 348.482C1268.71 347.786 1266.2 347.439 1263.45 347.439C1258.3 347.439 1253.78 348.73 1249.88 351.314C1246.01 353.898 1243 357.658 1240.83 362.593C1238.67 367.496 1237.59 373.491 1237.59 380.58C1237.59 387.669 1238.65 393.697 1240.79 398.666C1242.92 403.635 1245.93 407.428 1249.83 410.045C1253.73 412.628 1258.34 413.92 1263.65 413.92C1268.47 413.92 1272.58 413.059 1275.99 411.336C1279.43 409.581 1282.05 407.113 1283.85 403.933C1285.69 400.753 1286.61 396.993 1286.61 392.654L1290.93 393.3H1264.97V377.102H1307.11V389.921C1307.11 398.865 1305.24 406.55 1301.5 412.976C1297.77 419.369 1292.62 424.305 1286.07 427.783C1279.51 431.228 1272.01 432.95 1263.55 432.95C1254.11 432.95 1245.82 430.847 1238.67 426.64C1231.53 422.4 1225.95 416.388 1221.95 408.604C1217.99 400.786 1216.01 391.511 1216.01 380.779C1216.01 372.531 1217.19 365.177 1219.55 358.718C1221.94 352.225 1225.28 346.726 1229.58 342.221C1233.87 337.716 1238.87 334.288 1244.57 331.936C1250.27 329.584 1256.45 328.408 1263.11 328.408C1268.81 328.408 1274.12 329.253 1279.04 330.942C1283.95 332.599 1288.31 334.951 1292.11 337.998C1295.95 341.046 1299.08 344.673 1301.5 348.88C1303.93 353.053 1305.49 357.658 1306.18 362.693H1284.54Z" fill="#00437F"/>
<path d="M1348.02 431.559V329.8H1415.87V347.538H1369.31V371.785H1412.38V389.524H1369.31V413.821H1416.07V431.559H1348.02Z" fill="#00437F"/>
<path d="M1457.72 329.8H1483.97L1511.7 398.169H1512.88L1540.61 329.8H1566.86V431.559H1546.21V365.326H1545.38L1519.32 431.062H1505.26L1479.2 365.078H1478.37V431.559H1457.72V329.8Z" fill="#00437F"/>
<path d="M1755.13 365.425H1733.6C1733.2 362.61 1732.4 360.109 1731.19 357.923C1729.98 355.703 1728.42 353.815 1726.52 352.258C1724.62 350.701 1722.42 349.509 1719.93 348.681C1717.47 347.853 1714.8 347.439 1711.92 347.439C1706.7 347.439 1702.16 348.747 1698.3 351.364C1694.43 353.948 1691.43 357.724 1689.3 362.693C1687.17 367.628 1686.1 373.624 1686.1 380.679C1686.1 387.934 1687.17 394.029 1689.3 398.964C1691.46 403.9 1694.48 407.626 1698.35 410.144C1702.21 412.661 1706.69 413.92 1711.77 413.92C1714.62 413.92 1717.26 413.539 1719.68 412.777C1722.14 412.015 1724.32 410.906 1726.22 409.448C1728.12 407.958 1729.7 406.152 1730.94 404.032C1732.22 401.912 1733.11 399.494 1733.6 396.778L1755.13 396.877C1754.58 401.548 1753.18 406.053 1750.95 410.392C1748.76 414.699 1745.79 418.558 1742.05 421.969C1738.35 425.348 1733.93 428.031 1728.78 430.019C1723.67 431.973 1717.88 432.95 1711.42 432.95C1702.44 432.95 1694.41 430.897 1687.33 426.789C1680.29 422.682 1674.71 416.736 1670.62 408.951C1666.55 401.167 1664.52 391.743 1664.52 380.679C1664.52 369.583 1666.59 360.142 1670.72 352.358C1674.84 344.573 1680.45 338.644 1687.53 334.57C1694.61 330.462 1702.57 328.408 1711.42 328.408C1717.26 328.408 1722.67 329.237 1727.65 330.893C1732.66 332.549 1737.11 334.967 1740.97 338.147C1744.84 341.294 1747.99 345.153 1750.41 349.724C1752.87 354.295 1754.44 359.529 1755.13 365.425Z" fill="#00437F"/>
<path d="M1887.85 380.679C1887.85 391.776 1885.77 401.217 1881.61 409.001C1877.48 416.785 1871.84 422.731 1864.69 426.839C1857.58 430.913 1849.58 432.95 1840.7 432.95C1831.75 432.95 1823.72 430.897 1816.61 426.789C1809.5 422.682 1803.87 416.736 1799.74 408.951C1795.61 401.167 1793.55 391.743 1793.55 380.679C1793.55 369.583 1795.61 360.142 1799.74 352.358C1803.87 344.573 1809.5 338.644 1816.61 334.57C1823.72 330.462 1831.75 328.408 1840.7 328.408C1849.58 328.408 1857.58 330.462 1864.69 334.57C1871.84 338.644 1877.48 344.573 1881.61 352.358C1885.77 360.142 1887.85 369.583 1887.85 380.679ZM1866.27 380.679C1866.27 373.491 1865.2 367.429 1863.07 362.494C1860.97 357.558 1858.01 353.815 1854.17 351.265C1850.34 348.714 1845.85 347.439 1840.7 347.439C1835.55 347.439 1831.06 348.714 1827.23 351.265C1823.39 353.815 1820.41 357.558 1818.28 362.494C1816.18 367.429 1815.13 373.491 1815.13 380.679C1815.13 387.867 1816.18 393.929 1818.28 398.865C1820.41 403.8 1823.39 407.544 1827.23 410.094C1831.06 412.645 1835.55 413.92 1840.7 413.92C1845.85 413.92 1850.34 412.645 1854.17 410.094C1858.01 407.544 1860.97 403.8 1863.07 398.865C1865.2 393.929 1866.27 387.867 1866.27 380.679Z" fill="#00437F"/>
<path d="M2012.76 329.8V431.559H1994.37L1950.57 367.512H1949.83V431.559H1928.54V329.8H1947.22L1990.69 393.797H1991.57V329.8H2012.76Z" fill="#00437F"/>
<path d="M2055.27 431.559V329.8H2123.12V347.538H2076.56V371.785H2119.63V389.524H2076.56V413.821H2123.32V431.559H2055.27Z" fill="#00437F"/>
<path d="M2253.81 365.425H2232.27C2231.88 362.61 2231.08 360.109 2229.86 357.923C2228.65 355.703 2227.09 353.815 2225.19 352.258C2223.29 350.701 2221.1 349.509 2218.61 348.681C2216.15 347.853 2213.48 347.439 2210.59 347.439C2205.38 347.439 2200.84 348.747 2196.97 351.364C2193.1 353.948 2190.11 357.724 2187.98 362.693C2185.84 367.628 2184.78 373.624 2184.78 380.679C2184.78 387.934 2185.84 394.029 2187.98 398.964C2190.14 403.9 2193.15 407.626 2197.02 410.144C2200.89 412.661 2205.36 413.92 2210.44 413.92C2213.3 413.92 2215.93 413.539 2218.36 412.777C2220.82 412.015 2223 410.906 2224.9 409.448C2226.8 407.958 2228.37 406.152 2229.62 404.032C2230.9 401.912 2231.78 399.494 2232.27 396.778L2253.81 396.877C2253.25 401.548 2251.86 406.053 2249.63 410.392C2247.43 414.699 2244.47 418.558 2240.73 421.969C2237.03 425.348 2232.6 428.031 2227.46 430.019C2222.34 431.973 2216.56 432.95 2210.1 432.95C2201.12 432.95 2193.09 430.897 2186.01 426.789C2178.96 422.682 2173.39 416.736 2169.29 408.951C2165.23 401.167 2163.2 391.743 2163.2 380.679C2163.2 369.583 2165.26 360.142 2169.39 352.358C2173.52 344.573 2179.13 338.644 2186.21 334.57C2193.29 330.462 2201.25 328.408 2210.1 328.408C2215.93 328.408 2221.34 329.237 2226.32 330.893C2231.34 332.549 2235.78 334.967 2239.65 338.147C2243.52 341.294 2246.66 345.153 2249.09 349.724C2251.55 354.295 2253.12 359.529 2253.81 365.425Z" fill="#00437F"/>
<path d="M2290.16 347.538V329.8H2372.86V347.538H2342.03V431.559H2320.99V347.538H2290.16Z" fill="#00437F"/>
<path d="M2416.45 431.559H2393.64L2428.4 329.8H2455.83L2490.54 431.559H2467.73L2442.51 353.053H2441.72L2416.45 431.559ZM2415.02 391.561H2468.91V408.355H2415.02V391.561Z" fill="#00437F"/>
<path d="M2563.28 431.559H2527.58V329.8H2563.57C2573.7 329.8 2582.42 331.837 2589.73 335.911C2597.04 339.952 2602.66 345.766 2606.59 353.351C2610.56 360.937 2612.54 370.013 2612.54 380.58C2612.54 391.18 2610.56 400.289 2606.59 407.908C2602.66 415.527 2597 421.373 2589.63 425.448C2582.29 429.522 2573.5 431.559 2563.28 431.559ZM2548.87 413.125H2562.39C2568.68 413.125 2573.98 411.999 2578.27 409.746C2582.6 407.461 2585.84 403.933 2588.01 399.163C2590.2 394.36 2591.3 388.166 2591.3 380.58C2591.3 373.061 2590.2 366.916 2588.01 362.146C2585.84 357.376 2582.61 353.865 2578.32 351.612C2574.03 349.36 2568.73 348.234 2562.44 348.234H2548.87V413.125Z" fill="#00437F"/>
<path d="M2664.91 431.559H2642.09L2676.85 329.8H2704.29L2739 431.559H2716.19L2690.97 353.053H2690.18L2664.91 431.559ZM2663.48 391.561H2717.37V408.355H2663.48V391.561Z" fill="#00437F"/>
<path d="M662 221.998V21H748.482C767.948 21 782.13 25.0887 791.029 33.2662C800.298 41.0719 804.932 53.0593 804.932 69.2283V97.9423C804.932 113.554 800.298 125.82 791.029 134.741C781.759 143.662 768.69 148.122 751.819 148.122H690.92V221.998H662ZM690.92 50.2715V119.129H751.541C760.254 119.129 766.558 117.457 770.451 114.111C774.344 110.766 776.29 104.912 776.29 96.5484V70.6222C776.29 57.0551 768.226 50.2715 752.098 50.2715H690.92Z" stroke="#00437F" stroke-width="6" mask="url(#path-2-outside-1_321_47)"/>
<path d="M1011.39 221.998H933.807C916.01 221.998 902.662 217.352 893.763 208.059C885.05 198.581 880.694 185.199 880.694 167.915V71.1797C880.694 59.2853 883.382 48.9706 888.758 40.2356C894.134 31.5006 902.384 25.7392 913.507 22.9514C916.473 22.3939 919.995 21.9293 924.074 21.5575C928.152 21.1858 933.158 21 939.09 21H1011.95V50.2715H927.411C922.405 50.2715 918.142 52.3159 914.619 56.4046C911.282 60.3075 909.614 65.5113 909.614 72.0161V106.306H1011.95V135.577H909.614V174.885C909.614 179.531 911.56 183.712 915.454 187.43C918.605 190.031 922.035 191.797 925.742 192.726H1011.39V221.998Z" stroke="#00437F" stroke-width="6" mask="url(#path-2-outside-1_321_47)"/>
<path d="M1224.38 221.998H1146.8C1129 221.998 1115.65 217.352 1106.75 208.059C1098.04 198.581 1093.68 185.199 1093.68 167.915V71.1797C1093.68 59.2853 1096.37 48.9706 1101.75 40.2356C1107.13 31.5006 1115.37 25.7392 1126.5 22.9514C1129.46 22.3939 1132.99 21.9293 1137.06 21.5575C1141.14 21.1858 1146.15 21 1152.08 21H1224.94V50.2715H1140.4C1135.4 50.2715 1131.13 52.3159 1127.61 56.4046C1124.27 60.3075 1122.6 65.5113 1122.6 72.0161V106.306H1224.94V135.577H1122.6V174.885C1122.6 179.531 1124.55 183.712 1128.44 187.43C1131.6 190.031 1135.03 191.797 1138.73 192.726H1224.38V221.998Z" stroke="#00437F" stroke-width="6" mask="url(#path-2-outside-1_321_47)"/>
<path d="M1306.68 221.998V21H1407.9C1420.87 21 1431.72 25.925 1440.43 35.7751C1446.73 42.6516 1449.89 51.6654 1449.89 62.8165V97.6635C1449.89 107.514 1445.99 116.527 1438.21 124.705C1430.61 132.696 1421.8 136.692 1411.79 136.692L1377.86 136.413L1451.55 221.998H1412.9L1340.6 138.086C1338.19 135.112 1336.99 131.767 1336.99 128.05C1336.99 121.917 1338.93 116.992 1342.83 113.275C1346.9 109.372 1352.19 107.421 1358.68 107.421H1402.61C1407.62 107.421 1411.97 105.841 1415.68 102.681C1419.39 99.522 1421.24 95.7121 1421.24 91.2516V68.9495C1421.24 56.4975 1415.22 50.2715 1403.17 50.2715H1335.6V221.998H1306.68Z" stroke="#00437F" stroke-width="6" mask="url(#path-2-outside-1_321_47)"/>
<path d="M1530.26 221.998V21H1632.03C1644.27 21 1654.37 25.4604 1662.34 34.3813C1670.32 43.1163 1674.3 54.1744 1674.3 67.5557V170.703C1674.3 185.199 1669.76 197.373 1660.68 207.223C1651.59 217.073 1640.28 221.998 1626.75 221.998H1530.26ZM1559.18 50.2715V192.726H1625.08C1638.62 192.726 1645.38 184.735 1645.38 168.751V73.1312C1645.38 64.582 1643.81 58.6348 1640.65 55.2895C1637.87 51.9442 1632.5 50.2715 1624.53 50.2715H1559.18Z" stroke="#00437F" stroke-width="6" mask="url(#path-2-outside-1_321_47)"/>
<path d="M1901.92 21V172.654C1901.92 186.779 1897.56 198.581 1888.85 208.059C1880.14 217.352 1869.1 221.998 1855.76 221.998H1805.7C1792.73 221.998 1781.7 217.352 1772.61 208.059C1763.9 198.395 1759.54 186.593 1759.54 172.654V21H1788.46V169.03C1788.46 178.137 1790.04 184.363 1793.19 187.708C1796.34 191.054 1802 192.726 1810.15 192.726H1851.31C1859.28 192.726 1864.84 191.147 1867.99 187.987C1871.33 184.642 1873 178.88 1873 170.703V21H1901.92Z" stroke="#00437F" stroke-width="6" mask="url(#path-2-outside-1_321_47)"/>
<path d="M1981.35 221.998V192.726H2061.44C2066.81 192.726 2071.36 191.147 2075.06 187.987C2078.77 184.828 2080.62 180.925 2080.62 176.278V150.91C2080.62 139.573 2073.58 133.904 2059.49 133.904H2029.46C2015.93 133.904 2004.52 130.094 1995.25 122.475C1985.99 114.669 1981.35 104.912 1981.35 93.2031V68.1132C1981.35 50.4574 1987.47 37.262 1999.7 28.527C2006.93 23.509 2016.94 21 2029.74 21H2110.94V50.2715H2028.35C2016.48 50.2715 2010.55 55.7541 2010.55 66.7193V86.7912C2010.55 100.544 2016.85 107.421 2029.46 107.421H2064.5C2076.92 107.421 2087.58 111.231 2096.48 118.851C2105.37 126.47 2109.82 135.577 2109.82 146.171V177.672C2109.82 190.31 2105.56 200.904 2097.03 209.453C2088.69 217.816 2077.94 221.998 2064.77 221.998H1981.35Z" stroke="#00437F" stroke-width="6" mask="url(#path-2-outside-1_321_47)"/>
<path d="M2184.86 50.2715V21H2301.09V50.2715H2257.43V221.998H2228.24V50.2715H2184.86Z" stroke="#00437F" stroke-width="6" mask="url(#path-2-outside-1_321_47)"/>
<path d="M2370.26 221.998V21H2471.48C2484.46 21 2495.3 25.925 2504.02 35.7751C2510.32 42.6516 2513.47 51.6654 2513.47 62.8165V97.6635C2513.47 107.514 2509.58 116.527 2501.79 124.705C2494.19 132.696 2485.39 136.692 2475.37 136.692L2441.45 136.413L2515.14 221.998H2476.49L2404.19 138.086C2401.78 135.112 2400.57 131.767 2400.57 128.05C2400.57 121.917 2402.52 116.992 2406.41 113.275C2410.49 109.372 2415.77 107.421 2422.26 107.421H2466.2C2471.2 107.421 2475.56 105.841 2479.27 102.681C2482.98 99.522 2484.83 95.7121 2484.83 91.2516V68.9495C2484.83 56.4975 2478.8 50.2715 2466.75 50.2715H2399.18V221.998H2370.26Z" stroke="#00437F" stroke-width="6" mask="url(#path-2-outside-1_321_47)"/>
<path d="M2566.03 21H2600.52L2651.96 104.354L2704.52 21H2739L2666.42 135.856V221.998H2637.5L2637.22 135.856L2566.03 21Z" stroke="#00437F" stroke-width="6" mask="url(#path-2-outside-1_321_47)"/>
<path d="M724.195 329.8H745.483V395.884C745.483 403.304 743.73 409.796 740.223 415.361C736.748 420.926 731.881 425.265 725.62 428.379C719.36 431.46 712.067 433 703.742 433C695.383 433 688.074 431.46 681.814 428.379C675.553 425.265 670.686 420.926 667.212 415.361C663.737 409.796 662 403.304 662 395.884V329.8H683.289V394.045C683.289 397.921 684.125 401.366 685.796 404.38C687.501 407.395 689.893 409.763 692.974 411.485C696.055 413.208 699.644 414.069 703.742 414.069C707.872 414.069 711.461 413.208 714.509 411.485C717.59 409.763 719.966 407.395 721.638 404.38C723.342 401.366 724.195 397.921 724.195 394.045V329.8Z" stroke="#00437F" stroke-width="6" mask="url(#path-2-outside-1_321_47)"/>
<path d="M842.543 359.065C842.149 355.057 840.461 351.944 837.479 349.724C834.496 347.505 830.448 346.395 825.335 346.395C821.86 346.395 818.927 346.892 816.534 347.886C814.141 348.846 812.306 350.188 811.027 351.91C809.782 353.633 809.159 355.587 809.159 357.774C809.094 359.595 809.47 361.185 810.29 362.544C811.142 363.902 812.306 365.078 813.781 366.071C815.256 367.032 816.96 367.877 818.894 368.605C820.828 369.301 822.893 369.897 825.089 370.394L834.135 372.58C838.527 373.574 842.559 374.899 846.23 376.555C849.901 378.212 853.08 380.249 855.768 382.667C858.456 385.085 860.537 387.934 862.012 391.213C863.52 394.492 864.29 398.252 864.323 402.492C864.29 408.719 862.717 414.119 859.603 418.69C856.522 423.228 852.064 426.756 846.23 429.273C840.428 431.758 833.431 433 825.236 433C817.108 433 810.028 431.741 803.997 429.224C797.999 426.706 793.311 422.98 789.935 418.044C786.592 413.075 784.839 406.931 784.675 399.61H805.275C805.504 403.022 806.471 405.871 808.176 408.156C809.913 410.409 812.224 412.115 815.108 413.274C818.025 414.4 821.319 414.964 824.99 414.964C828.596 414.964 831.726 414.434 834.381 413.374C837.069 412.314 839.15 410.84 840.625 408.951C842.1 407.063 842.838 404.894 842.838 402.442C842.838 400.157 842.166 398.236 840.822 396.679C839.511 395.122 837.577 393.797 835.02 392.704C832.496 391.611 829.399 390.617 825.728 389.722L814.764 386.94C806.275 384.853 799.572 381.59 794.655 377.152C789.739 372.713 787.297 366.734 787.33 359.214C787.297 353.053 788.919 347.67 792.197 343.066C795.507 338.462 800.047 334.868 805.816 332.284C811.585 329.7 818.14 328.408 825.482 328.408C832.955 328.408 839.478 329.7 845.05 332.284C850.655 334.868 855.014 338.462 858.128 343.066C861.242 347.67 862.848 353.004 862.946 359.065H842.543Z" stroke="#00437F" stroke-width="6" mask="url(#path-2-outside-1_321_47)"/>
<path d="M924.852 329.8V431.559H903.564V329.8H924.852Z" stroke="#00437F" stroke-width="6" mask="url(#path-2-outside-1_321_47)"/>
<path d="M1051.51 329.8V431.559H1033.12L989.315 367.512H988.577V431.559H967.289V329.8H985.972L1029.43 393.797H1030.32V329.8H1051.51Z" stroke="#00437F" stroke-width="6" mask="url(#path-2-outside-1_321_47)"/>
<path d="M1111.37 431.559H1088.56L1123.32 329.8H1150.76L1185.47 431.559H1162.65L1137.43 353.053H1136.65L1111.37 431.559ZM1109.95 391.561H1163.83V408.355H1109.95V391.561Z" stroke="#00437F" stroke-width="6" mask="url(#path-2-outside-1_321_47)"/>
<path d="M1284.54 362.693C1283.85 360.274 1282.89 358.138 1281.64 356.283C1280.4 354.395 1278.87 352.805 1277.07 351.513C1275.3 350.188 1273.27 349.178 1270.97 348.482C1268.71 347.786 1266.2 347.439 1263.45 347.439C1258.3 347.439 1253.78 348.73 1249.88 351.314C1246.01 353.898 1243 357.658 1240.83 362.593C1238.67 367.496 1237.59 373.491 1237.59 380.58C1237.59 387.669 1238.65 393.697 1240.79 398.666C1242.92 403.635 1245.93 407.428 1249.83 410.045C1253.73 412.628 1258.34 413.92 1263.65 413.92C1268.47 413.92 1272.58 413.059 1275.99 411.336C1279.43 409.581 1282.05 407.113 1283.85 403.933C1285.69 400.753 1286.61 396.993 1286.61 392.654L1290.93 393.3H1264.97V377.102H1307.11V389.921C1307.11 398.865 1305.24 406.55 1301.5 412.976C1297.77 419.369 1292.62 424.305 1286.07 427.783C1279.51 431.228 1272.01 432.95 1263.55 432.95C1254.11 432.95 1245.82 430.847 1238.67 426.64C1231.53 422.4 1225.95 416.388 1221.95 408.604C1217.99 400.786 1216.01 391.511 1216.01 380.779C1216.01 372.531 1217.19 365.177 1219.55 358.718C1221.94 352.225 1225.28 346.726 1229.58 342.221C1233.87 337.716 1238.87 334.288 1244.57 331.936C1250.27 329.584 1256.45 328.408 1263.11 328.408C1268.81 328.408 1274.12 329.253 1279.04 330.942C1283.95 332.599 1288.31 334.951 1292.11 337.998C1295.95 341.046 1299.08 344.673 1301.5 348.88C1303.93 353.053 1305.49 357.658 1306.18 362.693H1284.54Z" stroke="#00437F" stroke-width="6" mask="url(#path-2-outside-1_321_47)"/>
<path d="M1348.02 431.559V329.8H1415.87V347.538H1369.31V371.785H1412.38V389.524H1369.31V413.821H1416.07V431.559H1348.02Z" stroke="#00437F" stroke-width="6" mask="url(#path-2-outside-1_321_47)"/>
<path d="M1457.72 329.8H1483.97L1511.7 398.169H1512.88L1540.61 329.8H1566.86V431.559H1546.21V365.326H1545.38L1519.32 431.062H1505.26L1479.2 365.078H1478.37V431.559H1457.72V329.8Z" stroke="#00437F" stroke-width="6" mask="url(#path-2-outside-1_321_47)"/>
<path d="M1755.13 365.425H1733.6C1733.2 362.61 1732.4 360.109 1731.19 357.923C1729.98 355.703 1728.42 353.815 1726.52 352.258C1724.62 350.701 1722.42 349.509 1719.93 348.681C1717.47 347.853 1714.8 347.439 1711.92 347.439C1706.7 347.439 1702.16 348.747 1698.3 351.364C1694.43 353.948 1691.43 357.724 1689.3 362.693C1687.17 367.628 1686.1 373.624 1686.1 380.679C1686.1 387.934 1687.17 394.029 1689.3 398.964C1691.46 403.9 1694.48 407.626 1698.35 410.144C1702.21 412.661 1706.69 413.92 1711.77 413.92C1714.62 413.92 1717.26 413.539 1719.68 412.777C1722.14 412.015 1724.32 410.906 1726.22 409.448C1728.12 407.958 1729.7 406.152 1730.94 404.032C1732.22 401.912 1733.11 399.494 1733.6 396.778L1755.13 396.877C1754.58 401.548 1753.18 406.053 1750.95 410.392C1748.76 414.699 1745.79 418.558 1742.05 421.969C1738.35 425.348 1733.93 428.031 1728.78 430.019C1723.67 431.973 1717.88 432.95 1711.42 432.95C1702.44 432.95 1694.41 430.897 1687.33 426.789C1680.29 422.682 1674.71 416.736 1670.62 408.951C1666.55 401.167 1664.52 391.743 1664.52 380.679C1664.52 369.583 1666.59 360.142 1670.72 352.358C1674.84 344.573 1680.45 338.644 1687.53 334.57C1694.61 330.462 1702.57 328.408 1711.42 328.408C1717.26 328.408 1722.67 329.237 1727.65 330.893C1732.66 332.549 1737.11 334.967 1740.97 338.147C1744.84 341.294 1747.99 345.153 1750.41 349.724C1752.87 354.295 1754.44 359.529 1755.13 365.425Z" stroke="#00437F" stroke-width="6" mask="url(#path-2-outside-1_321_47)"/>
<path d="M1887.85 380.679C1887.85 391.776 1885.77 401.217 1881.61 409.001C1877.48 416.785 1871.84 422.731 1864.69 426.839C1857.58 430.913 1849.58 432.95 1840.7 432.95C1831.75 432.95 1823.72 430.897 1816.61 426.789C1809.5 422.682 1803.87 416.736 1799.74 408.951C1795.61 401.167 1793.55 391.743 1793.55 380.679C1793.55 369.583 1795.61 360.142 1799.74 352.358C1803.87 344.573 1809.5 338.644 1816.61 334.57C1823.72 330.462 1831.75 328.408 1840.7 328.408C1849.58 328.408 1857.58 330.462 1864.69 334.57C1871.84 338.644 1877.48 344.573 1881.61 352.358C1885.77 360.142 1887.85 369.583 1887.85 380.679ZM1866.27 380.679C1866.27 373.491 1865.2 367.429 1863.07 362.494C1860.97 357.558 1858.01 353.815 1854.17 351.265C1850.34 348.714 1845.85 347.439 1840.7 347.439C1835.55 347.439 1831.06 348.714 1827.23 351.265C1823.39 353.815 1820.41 357.558 1818.28 362.494C1816.18 367.429 1815.13 373.491 1815.13 380.679C1815.13 387.867 1816.18 393.929 1818.28 398.865C1820.41 403.8 1823.39 407.544 1827.23 410.094C1831.06 412.645 1835.55 413.92 1840.7 413.92C1845.85 413.92 1850.34 412.645 1854.17 410.094C1858.01 407.544 1860.97 403.8 1863.07 398.865C1865.2 393.929 1866.27 387.867 1866.27 380.679Z" stroke="#00437F" stroke-width="6" mask="url(#path-2-outside-1_321_47)"/>
<path d="M2012.76 329.8V431.559H1994.37L1950.57 367.512H1949.83V431.559H1928.54V329.8H1947.22L1990.69 393.797H1991.57V329.8H2012.76Z" stroke="#00437F" stroke-width="6" mask="url(#path-2-outside-1_321_47)"/>
<path d="M2055.27 431.559V329.8H2123.12V347.538H2076.56V371.785H2119.63V389.524H2076.56V413.821H2123.32V431.559H2055.27Z" stroke="#00437F" stroke-width="6" mask="url(#path-2-outside-1_321_47)"/>
<path d="M2253.81 365.425H2232.27C2231.88 362.61 2231.08 360.109 2229.86 357.923C2228.65 355.703 2227.09 353.815 2225.19 352.258C2223.29 350.701 2221.1 349.509 2218.61 348.681C2216.15 347.853 2213.48 347.439 2210.59 347.439C2205.38 347.439 2200.84 348.747 2196.97 351.364C2193.1 353.948 2190.11 357.724 2187.98 362.693C2185.84 367.628 2184.78 373.624 2184.78 380.679C2184.78 387.934 2185.84 394.029 2187.98 398.964C2190.14 403.9 2193.15 407.626 2197.02 410.144C2200.89 412.661 2205.36 413.92 2210.44 413.92C2213.3 413.92 2215.93 413.539 2218.36 412.777C2220.82 412.015 2223 410.906 2224.9 409.448C2226.8 407.958 2228.37 406.152 2229.62 404.032C2230.9 401.912 2231.78 399.494 2232.27 396.778L2253.81 396.877C2253.25 401.548 2251.86 406.053 2249.63 410.392C2247.43 414.699 2244.47 418.558 2240.73 421.969C2237.03 425.348 2232.6 428.031 2227.46 430.019C2222.34 431.973 2216.56 432.95 2210.1 432.95C2201.12 432.95 2193.09 430.897 2186.01 426.789C2178.96 422.682 2173.39 416.736 2169.29 408.951C2165.23 401.167 2163.2 391.743 2163.2 380.679C2163.2 369.583 2165.26 360.142 2169.39 352.358C2173.52 344.573 2179.13 338.644 2186.21 334.57C2193.29 330.462 2201.25 328.408 2210.1 328.408C2215.93 328.408 2221.34 329.237 2226.32 330.893C2231.34 332.549 2235.78 334.967 2239.65 338.147C2243.52 341.294 2246.66 345.153 2249.09 349.724C2251.55 354.295 2253.12 359.529 2253.81 365.425Z" stroke="#00437F" stroke-width="6" mask="url(#path-2-outside-1_321_47)"/>
<path d="M2290.16 347.538V329.8H2372.86V347.538H2342.03V431.559H2320.99V347.538H2290.16Z" stroke="#00437F" stroke-width="6" mask="url(#path-2-outside-1_321_47)"/>
<path d="M2416.45 431.559H2393.64L2428.4 329.8H2455.83L2490.54 431.559H2467.73L2442.51 353.053H2441.72L2416.45 431.559ZM2415.02 391.561H2468.91V408.355H2415.02V391.561Z" stroke="#00437F" stroke-width="6" mask="url(#path-2-outside-1_321_47)"/>
<path d="M2563.28 431.559H2527.58V329.8H2563.57C2573.7 329.8 2582.42 331.837 2589.73 335.911C2597.04 339.952 2602.66 345.766 2606.59 353.351C2610.56 360.937 2612.54 370.013 2612.54 380.58C2612.54 391.18 2610.56 400.289 2606.59 407.908C2602.66 415.527 2597 421.373 2589.63 425.448C2582.29 429.522 2573.5 431.559 2563.28 431.559ZM2548.87 413.125H2562.39C2568.68 413.125 2573.98 411.999 2578.27 409.746C2582.6 407.461 2585.84 403.933 2588.01 399.163C2590.2 394.36 2591.3 388.166 2591.3 380.58C2591.3 373.061 2590.2 366.916 2588.01 362.146C2585.84 357.376 2582.61 353.865 2578.32 351.612C2574.03 349.36 2568.73 348.234 2562.44 348.234H2548.87V413.125Z" stroke="#00437F" stroke-width="6" mask="url(#path-2-outside-1_321_47)"/>
<path d="M2664.91 431.559H2642.09L2676.85 329.8H2704.29L2739 431.559H2716.19L2690.97 353.053H2690.18L2664.91 431.559ZM2663.48 391.561H2717.37V408.355H2663.48V391.561Z" stroke="#00437F" stroke-width="6" mask="url(#path-2-outside-1_321_47)"/>
</svg>
