<svg width="2742" height="456" viewBox="0 0 2742 456" fill="none" xmlns="http://www.w3.org/2000/svg">
<mask id="path-1-outside-1_321_49" maskUnits="userSpaceOnUse" x="0" y="0" width="2742" height="456" fill="black">
<rect fill="white" width="2742" height="456"/>
<path fill-rule="evenodd" clip-rule="evenodd" d="M228 455C353.369 455 455 353.369 455 228C455 102.631 353.369 1 228 1C102.631 1 1 102.631 1 228C1 353.369 102.631 455 228 455ZM146.327 241.895C133.852 245.133 121.772 250.419 112.658 259.533L112.665 259.54C90.1269 282.918 90.3868 320.141 113.445 343.199C136.503 366.257 173.727 366.517 197.104 343.979L197.111 343.986C206.225 334.872 211.511 322.793 214.749 310.317C220.525 288.06 232.131 267.002 249.567 249.567C267.19 231.944 288.513 220.276 311.036 214.565C323.064 211.515 334.687 206.41 343.462 197.636L343.461 197.635C366.52 174.294 366.433 136.679 343.199 113.445C319.966 90.2115 282.351 90.1243 259.009 113.184L259.009 113.183C250.234 121.957 245.13 133.581 242.08 145.609C236.368 168.131 224.701 189.455 207.078 207.078C189.642 224.513 168.585 236.119 146.327 241.895ZM183.49 300.973C183.49 316.337 171.035 328.791 155.672 328.791C140.308 328.791 127.853 316.337 127.853 300.973C127.853 285.609 140.308 273.154 155.672 273.154C171.035 273.154 183.49 285.609 183.49 300.973ZM273.154 155.672C273.154 171.035 285.609 183.49 300.973 183.49C316.337 183.49 328.791 171.035 328.791 155.672C328.791 140.308 316.337 127.853 300.973 127.853C285.609 127.853 273.154 140.308 273.154 155.672ZM193.14 144.51C193.14 170.838 171.797 192.18 145.469 192.18C119.142 192.18 97.799 170.838 97.799 144.51C97.799 118.183 119.142 96.8399 145.469 96.8399C171.797 96.8399 193.14 118.183 193.14 144.51ZM312.315 359.026C338.643 359.026 359.985 337.684 359.985 311.356C359.985 285.029 338.643 263.686 312.315 263.686C285.988 263.686 264.645 285.029 264.645 311.356C264.645 337.684 285.988 359.026 312.315 359.026Z"/>
<path d="M663 222.998V22H749.482C768.948 22 783.13 26.0887 792.029 34.2662C801.298 42.0719 805.932 54.0593 805.932 70.2283V98.9423C805.932 114.554 801.298 126.82 792.029 135.741C782.759 144.662 769.69 149.122 752.819 149.122H691.92V222.998H663ZM691.92 51.2715V120.129H752.541C761.254 120.129 767.558 118.457 771.451 115.111C775.344 111.766 777.29 105.912 777.29 97.5484V71.6222C777.29 58.0551 769.226 51.2715 753.097 51.2715H691.92Z"/>
<path d="M1012.39 222.998H934.807C917.01 222.998 903.662 218.352 894.763 209.059C886.05 199.581 881.694 186.199 881.694 168.915V72.1797C881.694 60.2853 884.382 49.9706 889.758 41.2356C895.134 32.5006 903.384 26.7392 914.507 23.9514C917.473 23.3939 920.995 22.9293 925.074 22.5575C929.152 22.1858 934.158 22 940.09 22H1012.95V51.2715H928.411C923.405 51.2715 919.142 53.3159 915.619 57.4046C912.282 61.3075 910.614 66.5113 910.614 73.0161V107.306H1012.95V136.577H910.614V175.885C910.614 180.531 912.56 184.713 916.453 188.43C919.605 191.031 923.035 192.797 926.742 193.726H1012.39V222.998Z"/>
<path d="M1225.38 222.998H1147.8C1130 222.998 1116.65 218.352 1107.75 209.059C1099.04 199.581 1094.68 186.199 1094.68 168.915V72.1797C1094.68 60.2853 1097.37 49.9706 1102.75 41.2356C1108.12 32.5006 1116.37 26.7392 1127.5 23.9514C1130.46 23.3939 1133.99 22.9293 1138.06 22.5575C1142.14 22.1858 1147.15 22 1153.08 22H1225.94V51.2715H1141.4C1136.4 51.2715 1132.13 53.3159 1128.61 57.4046C1125.27 61.3075 1123.6 66.5113 1123.6 73.0161V107.306H1225.94V136.577H1123.6V175.885C1123.6 180.531 1125.55 184.713 1129.44 188.43C1132.6 191.031 1136.03 192.797 1139.73 193.726H1225.38V222.998Z"/>
<path d="M1307.68 222.998V22H1408.9C1421.87 22 1432.72 26.925 1441.43 36.7751C1447.73 43.6516 1450.89 52.6654 1450.89 63.8165V98.6635C1450.89 108.514 1446.99 117.527 1439.21 125.705C1431.61 133.696 1422.8 137.692 1412.79 137.692L1378.86 137.413L1452.55 222.998H1413.9L1341.6 139.086C1339.19 136.112 1337.99 132.767 1337.99 129.05C1337.99 122.917 1339.93 117.992 1343.83 114.275C1347.9 110.372 1353.19 108.421 1359.68 108.421H1403.61C1408.62 108.421 1412.97 106.841 1416.68 103.681C1420.39 100.522 1422.24 96.7121 1422.24 92.2516V69.9495C1422.24 57.4975 1416.22 51.2715 1404.17 51.2715H1336.6V222.998H1307.68Z"/>
<path d="M1531.26 222.998V22H1633.03C1645.27 22 1655.37 26.4604 1663.34 35.3813C1671.32 44.1163 1675.3 55.1744 1675.3 68.5557V171.703C1675.3 186.199 1670.76 198.373 1661.68 208.223C1652.59 218.073 1641.28 222.998 1627.75 222.998H1531.26ZM1560.18 51.2715V193.726H1626.08C1639.62 193.726 1646.38 185.735 1646.38 169.751V74.1312C1646.38 65.582 1644.81 59.6348 1641.65 56.2895C1638.87 52.9442 1633.5 51.2715 1625.53 51.2715H1560.18Z"/>
<path d="M1902.92 22V173.654C1902.92 187.779 1898.56 199.581 1889.85 209.059C1881.14 218.352 1870.1 222.998 1856.76 222.998H1806.7C1793.73 222.998 1782.7 218.352 1773.61 209.059C1764.9 199.395 1760.54 187.593 1760.54 173.654V22H1789.46V170.03C1789.46 179.137 1791.04 185.363 1794.19 188.708C1797.34 192.054 1803 193.726 1811.15 193.726H1852.31C1860.28 193.726 1865.84 192.147 1868.99 188.987C1872.33 185.642 1874 179.88 1874 171.703V22H1902.92Z"/>
<path d="M1982.35 222.998V193.726H2062.44C2067.81 193.726 2072.36 192.147 2076.06 188.987C2079.77 185.828 2081.62 181.925 2081.62 177.278V151.91C2081.62 140.573 2074.58 134.904 2060.49 134.904H2030.46C2016.93 134.904 2005.52 131.094 1996.25 123.475C1986.99 115.669 1982.35 105.912 1982.35 94.2031V69.1132C1982.35 51.4574 1988.47 38.262 2000.7 29.527C2007.93 24.509 2017.94 22 2030.74 22H2111.94V51.2715H2029.35C2017.48 51.2715 2011.55 56.7541 2011.55 67.7193V87.7912C2011.55 101.544 2017.85 108.421 2030.46 108.421H2065.5C2077.92 108.421 2088.58 112.231 2097.48 119.851C2106.37 127.47 2110.82 136.577 2110.82 147.171V178.672C2110.82 191.31 2106.56 201.904 2098.03 210.453C2089.69 218.816 2078.94 222.998 2065.77 222.998H1982.35Z"/>
<path d="M2185.86 51.2715V22H2302.09V51.2715H2258.43V222.998H2229.24V51.2715H2185.86Z"/>
<path d="M2371.26 222.998V22H2472.48C2485.46 22 2496.3 26.925 2505.02 36.7751C2511.32 43.6516 2514.47 52.6654 2514.47 63.8165V98.6635C2514.47 108.514 2510.58 117.527 2502.79 125.705C2495.19 133.696 2486.39 137.692 2476.37 137.692L2442.45 137.413L2516.14 222.998H2477.49L2405.19 139.086C2402.78 136.112 2401.57 132.767 2401.57 129.05C2401.57 122.917 2403.52 117.992 2407.41 114.275C2411.49 110.372 2416.77 108.421 2423.26 108.421H2467.2C2472.2 108.421 2476.56 106.841 2480.27 103.681C2483.98 100.522 2485.83 96.7121 2485.83 92.2516V69.9495C2485.83 57.4975 2479.8 51.2715 2467.75 51.2715H2400.18V222.998H2371.26Z"/>
<path d="M2567.03 22H2601.52L2652.96 105.354L2705.52 22H2740L2667.42 136.856V222.998H2638.5L2638.22 136.856L2567.03 22Z"/>
<path d="M725.195 330.8H746.483V396.884C746.483 404.304 744.73 410.796 741.223 416.361C737.748 421.926 732.881 426.265 726.62 429.379C720.36 432.46 713.067 434 704.742 434C696.383 434 689.074 432.46 682.814 429.379C676.553 426.265 671.686 421.926 668.212 416.361C664.737 410.796 663 404.304 663 396.884V330.8H684.289V395.045C684.289 398.921 685.125 402.366 686.796 405.38C688.501 408.395 690.893 410.763 693.974 412.485C697.055 414.208 700.644 415.069 704.742 415.069C708.871 415.069 712.461 414.208 715.509 412.485C718.59 410.763 720.966 408.395 722.638 405.38C724.342 402.366 725.195 398.921 725.195 395.045V330.8Z"/>
<path d="M843.543 360.065C843.149 356.057 841.461 352.944 838.479 350.724C835.496 348.505 831.448 347.395 826.335 347.395C822.86 347.395 819.927 347.892 817.534 348.886C815.141 349.846 813.306 351.188 812.027 352.91C810.782 354.633 810.159 356.587 810.159 358.774C810.094 360.595 810.47 362.185 811.29 363.544C812.142 364.902 813.306 366.078 814.781 367.071C816.256 368.032 817.96 368.877 819.894 369.605C821.828 370.301 823.893 370.897 826.089 371.394L835.135 373.58C839.527 374.574 843.559 375.899 847.23 377.555C850.901 379.212 854.08 381.249 856.768 383.667C859.456 386.085 861.537 388.934 863.012 392.213C864.52 395.492 865.29 399.252 865.323 403.492C865.29 409.719 863.717 415.119 860.603 419.69C857.522 424.228 853.064 427.756 847.23 430.273C841.428 432.758 834.431 434 826.236 434C818.108 434 811.028 432.741 804.997 430.224C798.999 427.706 794.311 423.98 790.935 419.044C787.592 414.075 785.839 407.931 785.675 400.61H806.275C806.504 404.022 807.471 406.871 809.176 409.156C810.913 411.409 813.224 413.115 816.108 414.274C819.025 415.4 822.319 415.964 825.99 415.964C829.596 415.964 832.726 415.434 835.381 414.374C838.069 413.314 840.15 411.839 841.625 409.951C843.1 408.063 843.838 405.894 843.838 403.442C843.838 401.157 843.166 399.236 841.822 397.679C840.511 396.122 838.577 394.797 836.02 393.704C833.496 392.611 830.399 391.617 826.728 390.722L815.764 387.94C807.275 385.853 800.572 382.59 795.655 378.152C790.739 373.713 788.297 367.734 788.33 360.214C788.297 354.053 789.919 348.67 793.197 344.066C796.507 339.462 801.047 335.868 806.816 333.284C812.585 330.7 819.14 329.408 826.482 329.408C833.955 329.408 840.478 330.7 846.05 333.284C851.655 335.868 856.014 339.462 859.128 344.066C862.242 348.67 863.848 354.004 863.946 360.065H843.543Z"/>
<path d="M925.852 330.8V432.559H904.564V330.8H925.852Z"/>
<path d="M1052.51 330.8V432.559H1034.12L990.315 368.512H989.577V432.559H968.289V330.8H986.972L1030.43 394.797H1031.32V330.8H1052.51Z"/>
<path d="M1112.37 432.559H1089.56L1124.32 330.8H1151.76L1186.47 432.559H1163.65L1138.43 354.053H1137.65L1112.37 432.559ZM1110.95 392.561H1164.83V409.355H1110.95V392.561Z"/>
<path d="M1285.54 363.693C1284.85 361.274 1283.89 359.138 1282.64 357.283C1281.4 355.395 1279.87 353.805 1278.07 352.513C1276.3 351.188 1274.27 350.178 1271.97 349.482C1269.71 348.786 1267.2 348.439 1264.45 348.439C1259.3 348.439 1254.78 349.73 1250.88 352.314C1247.01 354.898 1244 358.658 1241.83 363.593C1239.67 368.496 1238.59 374.491 1238.59 381.58C1238.59 388.669 1239.65 394.697 1241.79 399.666C1243.92 404.635 1246.93 408.428 1250.83 411.045C1254.73 413.628 1259.34 414.92 1264.65 414.92C1269.47 414.92 1273.58 414.059 1276.99 412.336C1280.43 410.581 1283.05 408.113 1284.85 404.933C1286.69 401.753 1287.61 397.993 1287.61 393.654L1291.93 394.3H1265.97V378.102H1308.11V390.921C1308.11 399.865 1306.24 407.55 1302.5 413.976C1298.77 420.369 1293.62 425.305 1287.07 428.783C1280.51 432.228 1273.01 433.95 1264.55 433.95C1255.11 433.95 1246.82 431.847 1239.67 427.64C1232.53 423.4 1226.95 417.388 1222.95 409.604C1218.99 401.786 1217.01 392.511 1217.01 381.779C1217.01 373.531 1218.19 366.177 1220.55 359.718C1222.94 353.225 1226.28 347.726 1230.58 343.221C1234.87 338.716 1239.87 335.288 1245.57 332.936C1251.27 330.584 1257.45 329.408 1264.11 329.408C1269.81 329.408 1275.12 330.253 1280.04 331.942C1284.95 333.599 1289.31 335.951 1293.11 338.998C1296.95 342.046 1300.08 345.673 1302.5 349.88C1304.93 354.053 1306.49 358.658 1307.18 363.693H1285.54Z"/>
<path d="M1349.02 432.559V330.8H1416.87V348.538H1370.31V372.785H1413.38V390.524H1370.31V414.821H1417.07V432.559H1349.02Z"/>
<path d="M1458.72 330.8H1484.97L1512.7 399.169H1513.88L1541.61 330.8H1567.86V432.559H1547.21V366.326H1546.38L1520.32 432.062H1506.26L1480.2 366.078H1479.37V432.559H1458.72V330.8Z"/>
<path d="M1756.13 366.425H1734.6C1734.2 363.61 1733.4 361.109 1732.19 358.923C1730.98 356.703 1729.42 354.815 1727.52 353.258C1725.62 351.701 1723.42 350.509 1720.93 349.681C1718.47 348.853 1715.8 348.439 1712.92 348.439C1707.7 348.439 1703.16 349.747 1699.3 352.364C1695.43 354.948 1692.43 358.724 1690.3 363.693C1688.17 368.628 1687.1 374.624 1687.1 381.679C1687.1 388.934 1688.17 395.029 1690.3 399.964C1692.46 404.9 1695.48 408.626 1699.35 411.144C1703.21 413.661 1707.69 414.92 1712.77 414.92C1715.62 414.92 1718.26 414.539 1720.68 413.777C1723.14 413.015 1725.32 411.906 1727.22 410.448C1729.12 408.958 1730.7 407.152 1731.94 405.032C1733.22 402.912 1734.11 400.494 1734.6 397.778L1756.13 397.877C1755.58 402.548 1754.18 407.053 1751.95 411.392C1749.76 415.699 1746.79 419.558 1743.05 422.969C1739.35 426.348 1734.93 429.031 1729.78 431.019C1724.67 432.973 1718.88 433.95 1712.42 433.95C1703.44 433.95 1695.41 431.897 1688.33 427.789C1681.29 423.682 1675.71 417.736 1671.62 409.951C1667.55 402.167 1665.52 392.743 1665.52 381.679C1665.52 370.583 1667.59 361.142 1671.72 353.358C1675.85 345.573 1681.45 339.644 1688.53 335.57C1695.61 331.462 1703.57 329.408 1712.42 329.408C1718.26 329.408 1723.67 330.237 1728.65 331.893C1733.66 333.549 1738.11 335.967 1741.97 339.147C1745.84 342.294 1748.99 346.153 1751.41 350.724C1753.87 355.295 1755.44 360.529 1756.13 366.425Z"/>
<path d="M1888.85 381.679C1888.85 392.776 1886.77 402.217 1882.61 410.001C1878.48 417.785 1872.84 423.731 1865.69 427.839C1858.58 431.913 1850.58 433.95 1841.7 433.95C1832.75 433.95 1824.72 431.897 1817.61 427.789C1810.5 423.682 1804.87 417.736 1800.74 409.951C1796.61 402.167 1794.55 392.743 1794.55 381.679C1794.55 370.583 1796.61 361.142 1800.74 353.358C1804.87 345.573 1810.5 339.644 1817.61 335.57C1824.72 331.462 1832.75 329.408 1841.7 329.408C1850.58 329.408 1858.58 331.462 1865.69 335.57C1872.84 339.644 1878.48 345.573 1882.61 353.358C1886.77 361.142 1888.85 370.583 1888.85 381.679ZM1867.27 381.679C1867.27 374.491 1866.2 368.429 1864.07 363.494C1861.97 358.558 1859.01 354.815 1855.17 352.265C1851.34 349.714 1846.85 348.439 1841.7 348.439C1836.55 348.439 1832.06 349.714 1828.23 352.265C1824.39 354.815 1821.41 358.558 1819.28 363.494C1817.18 368.429 1816.13 374.491 1816.13 381.679C1816.13 388.867 1817.18 394.929 1819.28 399.865C1821.41 404.8 1824.39 408.544 1828.23 411.094C1832.06 413.645 1836.55 414.92 1841.7 414.92C1846.85 414.92 1851.34 413.645 1855.17 411.094C1859.01 408.544 1861.97 404.8 1864.07 399.865C1866.2 394.929 1867.27 388.867 1867.27 381.679Z"/>
<path d="M2013.76 330.8V432.559H1995.37L1951.57 368.512H1950.83V432.559H1929.54V330.8H1948.22L1991.69 394.797H1992.57V330.8H2013.76Z"/>
<path d="M2056.27 432.559V330.8H2124.12V348.538H2077.56V372.785H2120.63V390.524H2077.56V414.821H2124.32V432.559H2056.27Z"/>
<path d="M2254.81 366.425H2233.27C2232.88 363.61 2232.08 361.109 2230.86 358.923C2229.65 356.703 2228.09 354.815 2226.19 353.258C2224.29 351.701 2222.1 350.509 2219.61 349.681C2217.15 348.853 2214.48 348.439 2211.59 348.439C2206.38 348.439 2201.84 349.747 2197.97 352.364C2194.1 354.948 2191.11 358.724 2188.98 363.693C2186.84 368.628 2185.78 374.624 2185.78 381.679C2185.78 388.934 2186.84 395.029 2188.98 399.964C2191.14 404.9 2194.15 408.626 2198.02 411.144C2201.89 413.661 2206.36 414.92 2211.44 414.92C2214.3 414.92 2216.93 414.539 2219.36 413.777C2221.82 413.015 2224 411.906 2225.9 410.448C2227.8 408.958 2229.37 407.152 2230.62 405.032C2231.9 402.912 2232.78 400.494 2233.27 397.778L2254.81 397.877C2254.25 402.548 2252.86 407.053 2250.63 411.392C2248.43 415.699 2245.47 419.558 2241.73 422.969C2238.03 426.348 2233.6 429.031 2228.46 431.019C2223.34 432.973 2217.56 433.95 2211.1 433.95C2202.12 433.95 2194.09 431.897 2187.01 427.789C2179.96 423.682 2174.39 417.736 2170.29 409.951C2166.23 402.167 2164.2 392.743 2164.2 381.679C2164.2 370.583 2166.26 361.142 2170.39 353.358C2174.52 345.573 2180.13 339.644 2187.21 335.57C2194.29 331.462 2202.25 329.408 2211.1 329.408C2216.93 329.408 2222.34 330.237 2227.32 331.893C2232.34 333.549 2236.78 335.967 2240.65 339.147C2244.52 342.294 2247.66 346.153 2250.09 350.724C2252.55 355.295 2254.12 360.529 2254.81 366.425Z"/>
<path d="M2291.16 348.538V330.8H2373.86V348.538H2343.03V432.559H2321.99V348.538H2291.16Z"/>
<path d="M2417.45 432.559H2394.64L2429.4 330.8H2456.83L2491.54 432.559H2468.73L2443.51 354.053H2442.72L2417.45 432.559ZM2416.02 392.561H2469.91V409.355H2416.02V392.561Z"/>
<path d="M2564.28 432.559H2528.58V330.8H2564.57C2574.7 330.8 2583.42 332.837 2590.73 336.911C2598.04 340.952 2603.66 346.766 2607.59 354.351C2611.56 361.937 2613.54 371.013 2613.54 381.58C2613.54 392.18 2611.56 401.289 2607.59 408.908C2603.66 416.527 2598 422.373 2590.63 426.448C2583.29 430.522 2574.5 432.559 2564.28 432.559ZM2549.87 414.125H2563.39C2569.68 414.125 2574.98 412.999 2579.27 410.746C2583.6 408.461 2586.84 404.933 2589.01 400.163C2591.2 395.36 2592.3 389.166 2592.3 381.58C2592.3 374.061 2591.2 367.916 2589.01 363.146C2586.84 358.376 2583.61 354.865 2579.32 352.612C2575.03 350.36 2569.73 349.234 2563.44 349.234H2549.87V414.125Z"/>
<path d="M2665.91 432.559H2643.09L2677.85 330.8H2705.29L2740 432.559H2717.19L2691.97 354.053H2691.18L2665.91 432.559ZM2664.48 392.561H2718.37V409.355H2664.48V392.561Z"/>
</mask>
<path fill-rule="evenodd" clip-rule="evenodd" d="M228 455C353.369 455 455 353.369 455 228C455 102.631 353.369 1 228 1C102.631 1 1 102.631 1 228C1 353.369 102.631 455 228 455ZM146.327 241.895C133.852 245.133 121.772 250.419 112.658 259.533L112.665 259.54C90.1269 282.918 90.3868 320.141 113.445 343.199C136.503 366.257 173.727 366.517 197.104 343.979L197.111 343.986C206.225 334.872 211.511 322.793 214.749 310.317C220.525 288.06 232.131 267.002 249.567 249.567C267.19 231.944 288.513 220.276 311.036 214.565C323.064 211.515 334.687 206.41 343.462 197.636L343.461 197.635C366.52 174.294 366.433 136.679 343.199 113.445C319.966 90.2115 282.351 90.1243 259.009 113.184L259.009 113.183C250.234 121.957 245.13 133.581 242.08 145.609C236.368 168.131 224.701 189.455 207.078 207.078C189.642 224.513 168.585 236.119 146.327 241.895ZM183.49 300.973C183.49 316.337 171.035 328.791 155.672 328.791C140.308 328.791 127.853 316.337 127.853 300.973C127.853 285.609 140.308 273.154 155.672 273.154C171.035 273.154 183.49 285.609 183.49 300.973ZM273.154 155.672C273.154 171.035 285.609 183.49 300.973 183.49C316.337 183.49 328.791 171.035 328.791 155.672C328.791 140.308 316.337 127.853 300.973 127.853C285.609 127.853 273.154 140.308 273.154 155.672ZM193.14 144.51C193.14 170.838 171.797 192.18 145.469 192.18C119.142 192.18 97.799 170.838 97.799 144.51C97.799 118.183 119.142 96.8399 145.469 96.8399C171.797 96.8399 193.14 118.183 193.14 144.51ZM312.315 359.026C338.643 359.026 359.985 337.684 359.985 311.356C359.985 285.029 338.643 263.686 312.315 263.686C285.988 263.686 264.645 285.029 264.645 311.356C264.645 337.684 285.988 359.026 312.315 359.026Z" fill="white"/>
<path d="M663 222.998V22H749.482C768.948 22 783.13 26.0887 792.029 34.2662C801.298 42.0719 805.932 54.0593 805.932 70.2283V98.9423C805.932 114.554 801.298 126.82 792.029 135.741C782.759 144.662 769.69 149.122 752.819 149.122H691.92V222.998H663ZM691.92 51.2715V120.129H752.541C761.254 120.129 767.558 118.457 771.451 115.111C775.344 111.766 777.29 105.912 777.29 97.5484V71.6222C777.29 58.0551 769.226 51.2715 753.097 51.2715H691.92Z" fill="white"/>
<path d="M1012.39 222.998H934.807C917.01 222.998 903.662 218.352 894.763 209.059C886.05 199.581 881.694 186.199 881.694 168.915V72.1797C881.694 60.2853 884.382 49.9706 889.758 41.2356C895.134 32.5006 903.384 26.7392 914.507 23.9514C917.473 23.3939 920.995 22.9293 925.074 22.5575C929.152 22.1858 934.158 22 940.09 22H1012.95V51.2715H928.411C923.405 51.2715 919.142 53.3159 915.619 57.4046C912.282 61.3075 910.614 66.5113 910.614 73.0161V107.306H1012.95V136.577H910.614V175.885C910.614 180.531 912.56 184.713 916.453 188.43C919.605 191.031 923.035 192.797 926.742 193.726H1012.39V222.998Z" fill="white"/>
<path d="M1225.38 222.998H1147.8C1130 222.998 1116.65 218.352 1107.75 209.059C1099.04 199.581 1094.68 186.199 1094.68 168.915V72.1797C1094.68 60.2853 1097.37 49.9706 1102.75 41.2356C1108.12 32.5006 1116.37 26.7392 1127.5 23.9514C1130.46 23.3939 1133.99 22.9293 1138.06 22.5575C1142.14 22.1858 1147.15 22 1153.08 22H1225.94V51.2715H1141.4C1136.4 51.2715 1132.13 53.3159 1128.61 57.4046C1125.27 61.3075 1123.6 66.5113 1123.6 73.0161V107.306H1225.94V136.577H1123.6V175.885C1123.6 180.531 1125.55 184.713 1129.44 188.43C1132.6 191.031 1136.03 192.797 1139.73 193.726H1225.38V222.998Z" fill="white"/>
<path d="M1307.68 222.998V22H1408.9C1421.87 22 1432.72 26.925 1441.43 36.7751C1447.73 43.6516 1450.89 52.6654 1450.89 63.8165V98.6635C1450.89 108.514 1446.99 117.527 1439.21 125.705C1431.61 133.696 1422.8 137.692 1412.79 137.692L1378.86 137.413L1452.55 222.998H1413.9L1341.6 139.086C1339.19 136.112 1337.99 132.767 1337.99 129.05C1337.99 122.917 1339.93 117.992 1343.83 114.275C1347.9 110.372 1353.19 108.421 1359.68 108.421H1403.61C1408.62 108.421 1412.97 106.841 1416.68 103.681C1420.39 100.522 1422.24 96.7121 1422.24 92.2516V69.9495C1422.24 57.4975 1416.22 51.2715 1404.17 51.2715H1336.6V222.998H1307.68Z" fill="white"/>
<path d="M1531.26 222.998V22H1633.03C1645.27 22 1655.37 26.4604 1663.34 35.3813C1671.32 44.1163 1675.3 55.1744 1675.3 68.5557V171.703C1675.3 186.199 1670.76 198.373 1661.68 208.223C1652.59 218.073 1641.28 222.998 1627.75 222.998H1531.26ZM1560.18 51.2715V193.726H1626.08C1639.62 193.726 1646.38 185.735 1646.38 169.751V74.1312C1646.38 65.582 1644.81 59.6348 1641.65 56.2895C1638.87 52.9442 1633.5 51.2715 1625.53 51.2715H1560.18Z" fill="white"/>
<path d="M1902.92 22V173.654C1902.92 187.779 1898.56 199.581 1889.85 209.059C1881.14 218.352 1870.1 222.998 1856.76 222.998H1806.7C1793.73 222.998 1782.7 218.352 1773.61 209.059C1764.9 199.395 1760.54 187.593 1760.54 173.654V22H1789.46V170.03C1789.46 179.137 1791.04 185.363 1794.19 188.708C1797.34 192.054 1803 193.726 1811.15 193.726H1852.31C1860.28 193.726 1865.84 192.147 1868.99 188.987C1872.33 185.642 1874 179.88 1874 171.703V22H1902.92Z" fill="white"/>
<path d="M1982.35 222.998V193.726H2062.44C2067.81 193.726 2072.36 192.147 2076.06 188.987C2079.77 185.828 2081.62 181.925 2081.62 177.278V151.91C2081.62 140.573 2074.58 134.904 2060.49 134.904H2030.46C2016.93 134.904 2005.52 131.094 1996.25 123.475C1986.99 115.669 1982.35 105.912 1982.35 94.2031V69.1132C1982.35 51.4574 1988.47 38.262 2000.7 29.527C2007.93 24.509 2017.94 22 2030.74 22H2111.94V51.2715H2029.35C2017.48 51.2715 2011.55 56.7541 2011.55 67.7193V87.7912C2011.55 101.544 2017.85 108.421 2030.46 108.421H2065.5C2077.92 108.421 2088.58 112.231 2097.48 119.851C2106.37 127.47 2110.82 136.577 2110.82 147.171V178.672C2110.82 191.31 2106.56 201.904 2098.03 210.453C2089.69 218.816 2078.94 222.998 2065.77 222.998H1982.35Z" fill="white"/>
<path d="M2185.86 51.2715V22H2302.09V51.2715H2258.43V222.998H2229.24V51.2715H2185.86Z" fill="white"/>
<path d="M2371.26 222.998V22H2472.48C2485.46 22 2496.3 26.925 2505.02 36.7751C2511.32 43.6516 2514.47 52.6654 2514.47 63.8165V98.6635C2514.47 108.514 2510.58 117.527 2502.79 125.705C2495.19 133.696 2486.39 137.692 2476.37 137.692L2442.45 137.413L2516.14 222.998H2477.49L2405.19 139.086C2402.78 136.112 2401.57 132.767 2401.57 129.05C2401.57 122.917 2403.52 117.992 2407.41 114.275C2411.49 110.372 2416.77 108.421 2423.26 108.421H2467.2C2472.2 108.421 2476.56 106.841 2480.27 103.681C2483.98 100.522 2485.83 96.7121 2485.83 92.2516V69.9495C2485.83 57.4975 2479.8 51.2715 2467.75 51.2715H2400.18V222.998H2371.26Z" fill="white"/>
<path d="M2567.03 22H2601.52L2652.96 105.354L2705.52 22H2740L2667.42 136.856V222.998H2638.5L2638.22 136.856L2567.03 22Z" fill="white"/>
<path d="M725.195 330.8H746.483V396.884C746.483 404.304 744.73 410.796 741.223 416.361C737.748 421.926 732.881 426.265 726.62 429.379C720.36 432.46 713.067 434 704.742 434C696.383 434 689.074 432.46 682.814 429.379C676.553 426.265 671.686 421.926 668.212 416.361C664.737 410.796 663 404.304 663 396.884V330.8H684.289V395.045C684.289 398.921 685.125 402.366 686.796 405.38C688.501 408.395 690.893 410.763 693.974 412.485C697.055 414.208 700.644 415.069 704.742 415.069C708.871 415.069 712.461 414.208 715.509 412.485C718.59 410.763 720.966 408.395 722.638 405.38C724.342 402.366 725.195 398.921 725.195 395.045V330.8Z" fill="white"/>
<path d="M843.543 360.065C843.149 356.057 841.461 352.944 838.479 350.724C835.496 348.505 831.448 347.395 826.335 347.395C822.86 347.395 819.927 347.892 817.534 348.886C815.141 349.846 813.306 351.188 812.027 352.91C810.782 354.633 810.159 356.587 810.159 358.774C810.094 360.595 810.47 362.185 811.29 363.544C812.142 364.902 813.306 366.078 814.781 367.071C816.256 368.032 817.96 368.877 819.894 369.605C821.828 370.301 823.893 370.897 826.089 371.394L835.135 373.58C839.527 374.574 843.559 375.899 847.23 377.555C850.901 379.212 854.08 381.249 856.768 383.667C859.456 386.085 861.537 388.934 863.012 392.213C864.52 395.492 865.29 399.252 865.323 403.492C865.29 409.719 863.717 415.119 860.603 419.69C857.522 424.228 853.064 427.756 847.23 430.273C841.428 432.758 834.431 434 826.236 434C818.108 434 811.028 432.741 804.997 430.224C798.999 427.706 794.311 423.98 790.935 419.044C787.592 414.075 785.839 407.931 785.675 400.61H806.275C806.504 404.022 807.471 406.871 809.176 409.156C810.913 411.409 813.224 413.115 816.108 414.274C819.025 415.4 822.319 415.964 825.99 415.964C829.596 415.964 832.726 415.434 835.381 414.374C838.069 413.314 840.15 411.839 841.625 409.951C843.1 408.063 843.838 405.894 843.838 403.442C843.838 401.157 843.166 399.236 841.822 397.679C840.511 396.122 838.577 394.797 836.02 393.704C833.496 392.611 830.399 391.617 826.728 390.722L815.764 387.94C807.275 385.853 800.572 382.59 795.655 378.152C790.739 373.713 788.297 367.734 788.33 360.214C788.297 354.053 789.919 348.67 793.197 344.066C796.507 339.462 801.047 335.868 806.816 333.284C812.585 330.7 819.14 329.408 826.482 329.408C833.955 329.408 840.478 330.7 846.05 333.284C851.655 335.868 856.014 339.462 859.128 344.066C862.242 348.67 863.848 354.004 863.946 360.065H843.543Z" fill="white"/>
<path d="M925.852 330.8V432.559H904.564V330.8H925.852Z" fill="white"/>
<path d="M1052.51 330.8V432.559H1034.12L990.315 368.512H989.577V432.559H968.289V330.8H986.972L1030.43 394.797H1031.32V330.8H1052.51Z" fill="white"/>
<path d="M1112.37 432.559H1089.56L1124.32 330.8H1151.76L1186.47 432.559H1163.65L1138.43 354.053H1137.65L1112.37 432.559ZM1110.95 392.561H1164.83V409.355H1110.95V392.561Z" fill="white"/>
<path d="M1285.54 363.693C1284.85 361.274 1283.89 359.138 1282.64 357.283C1281.4 355.395 1279.87 353.805 1278.07 352.513C1276.3 351.188 1274.27 350.178 1271.97 349.482C1269.71 348.786 1267.2 348.439 1264.45 348.439C1259.3 348.439 1254.78 349.73 1250.88 352.314C1247.01 354.898 1244 358.658 1241.83 363.593C1239.67 368.496 1238.59 374.491 1238.59 381.58C1238.59 388.669 1239.65 394.697 1241.79 399.666C1243.92 404.635 1246.93 408.428 1250.83 411.045C1254.73 413.628 1259.34 414.92 1264.65 414.92C1269.47 414.92 1273.58 414.059 1276.99 412.336C1280.43 410.581 1283.05 408.113 1284.85 404.933C1286.69 401.753 1287.61 397.993 1287.61 393.654L1291.93 394.3H1265.97V378.102H1308.11V390.921C1308.11 399.865 1306.24 407.55 1302.5 413.976C1298.77 420.369 1293.62 425.305 1287.07 428.783C1280.51 432.228 1273.01 433.95 1264.55 433.95C1255.11 433.95 1246.82 431.847 1239.67 427.64C1232.53 423.4 1226.95 417.388 1222.95 409.604C1218.99 401.786 1217.01 392.511 1217.01 381.779C1217.01 373.531 1218.19 366.177 1220.55 359.718C1222.94 353.225 1226.28 347.726 1230.58 343.221C1234.87 338.716 1239.87 335.288 1245.57 332.936C1251.27 330.584 1257.45 329.408 1264.11 329.408C1269.81 329.408 1275.12 330.253 1280.04 331.942C1284.95 333.599 1289.31 335.951 1293.11 338.998C1296.95 342.046 1300.08 345.673 1302.5 349.88C1304.93 354.053 1306.49 358.658 1307.18 363.693H1285.54Z" fill="white"/>
<path d="M1349.02 432.559V330.8H1416.87V348.538H1370.31V372.785H1413.38V390.524H1370.31V414.821H1417.07V432.559H1349.02Z" fill="white"/>
<path d="M1458.72 330.8H1484.97L1512.7 399.169H1513.88L1541.61 330.8H1567.86V432.559H1547.21V366.326H1546.38L1520.32 432.062H1506.26L1480.2 366.078H1479.37V432.559H1458.72V330.8Z" fill="white"/>
<path d="M1756.13 366.425H1734.6C1734.2 363.61 1733.4 361.109 1732.19 358.923C1730.98 356.703 1729.42 354.815 1727.52 353.258C1725.62 351.701 1723.42 350.509 1720.93 349.681C1718.47 348.853 1715.8 348.439 1712.92 348.439C1707.7 348.439 1703.16 349.747 1699.3 352.364C1695.43 354.948 1692.43 358.724 1690.3 363.693C1688.17 368.628 1687.1 374.624 1687.1 381.679C1687.1 388.934 1688.17 395.029 1690.3 399.964C1692.46 404.9 1695.48 408.626 1699.35 411.144C1703.21 413.661 1707.69 414.92 1712.77 414.92C1715.62 414.92 1718.26 414.539 1720.68 413.777C1723.14 413.015 1725.32 411.906 1727.22 410.448C1729.12 408.958 1730.7 407.152 1731.94 405.032C1733.22 402.912 1734.11 400.494 1734.6 397.778L1756.13 397.877C1755.58 402.548 1754.18 407.053 1751.95 411.392C1749.76 415.699 1746.79 419.558 1743.05 422.969C1739.35 426.348 1734.93 429.031 1729.78 431.019C1724.67 432.973 1718.88 433.95 1712.42 433.95C1703.44 433.95 1695.41 431.897 1688.33 427.789C1681.29 423.682 1675.71 417.736 1671.62 409.951C1667.55 402.167 1665.52 392.743 1665.52 381.679C1665.52 370.583 1667.59 361.142 1671.72 353.358C1675.85 345.573 1681.45 339.644 1688.53 335.57C1695.61 331.462 1703.57 329.408 1712.42 329.408C1718.26 329.408 1723.67 330.237 1728.65 331.893C1733.66 333.549 1738.11 335.967 1741.97 339.147C1745.84 342.294 1748.99 346.153 1751.41 350.724C1753.87 355.295 1755.44 360.529 1756.13 366.425Z" fill="white"/>
<path d="M1888.85 381.679C1888.85 392.776 1886.77 402.217 1882.61 410.001C1878.48 417.785 1872.84 423.731 1865.69 427.839C1858.58 431.913 1850.58 433.95 1841.7 433.95C1832.75 433.95 1824.72 431.897 1817.61 427.789C1810.5 423.682 1804.87 417.736 1800.74 409.951C1796.61 402.167 1794.55 392.743 1794.55 381.679C1794.55 370.583 1796.61 361.142 1800.74 353.358C1804.87 345.573 1810.5 339.644 1817.61 335.57C1824.72 331.462 1832.75 329.408 1841.7 329.408C1850.58 329.408 1858.58 331.462 1865.69 335.57C1872.84 339.644 1878.48 345.573 1882.61 353.358C1886.77 361.142 1888.85 370.583 1888.85 381.679ZM1867.27 381.679C1867.27 374.491 1866.2 368.429 1864.07 363.494C1861.97 358.558 1859.01 354.815 1855.17 352.265C1851.34 349.714 1846.85 348.439 1841.7 348.439C1836.55 348.439 1832.06 349.714 1828.23 352.265C1824.39 354.815 1821.41 358.558 1819.28 363.494C1817.18 368.429 1816.13 374.491 1816.13 381.679C1816.13 388.867 1817.18 394.929 1819.28 399.865C1821.41 404.8 1824.39 408.544 1828.23 411.094C1832.06 413.645 1836.55 414.92 1841.7 414.92C1846.85 414.92 1851.34 413.645 1855.17 411.094C1859.01 408.544 1861.97 404.8 1864.07 399.865C1866.2 394.929 1867.27 388.867 1867.27 381.679Z" fill="white"/>
<path d="M2013.76 330.8V432.559H1995.37L1951.57 368.512H1950.83V432.559H1929.54V330.8H1948.22L1991.69 394.797H1992.57V330.8H2013.76Z" fill="white"/>
<path d="M2056.27 432.559V330.8H2124.12V348.538H2077.56V372.785H2120.63V390.524H2077.56V414.821H2124.32V432.559H2056.27Z" fill="white"/>
<path d="M2254.81 366.425H2233.27C2232.88 363.61 2232.08 361.109 2230.86 358.923C2229.65 356.703 2228.09 354.815 2226.19 353.258C2224.29 351.701 2222.1 350.509 2219.61 349.681C2217.15 348.853 2214.48 348.439 2211.59 348.439C2206.38 348.439 2201.84 349.747 2197.97 352.364C2194.1 354.948 2191.11 358.724 2188.98 363.693C2186.84 368.628 2185.78 374.624 2185.78 381.679C2185.78 388.934 2186.84 395.029 2188.98 399.964C2191.14 404.9 2194.15 408.626 2198.02 411.144C2201.89 413.661 2206.36 414.92 2211.44 414.92C2214.3 414.92 2216.93 414.539 2219.36 413.777C2221.82 413.015 2224 411.906 2225.9 410.448C2227.8 408.958 2229.37 407.152 2230.62 405.032C2231.9 402.912 2232.78 400.494 2233.27 397.778L2254.81 397.877C2254.25 402.548 2252.86 407.053 2250.63 411.392C2248.43 415.699 2245.47 419.558 2241.73 422.969C2238.03 426.348 2233.6 429.031 2228.46 431.019C2223.34 432.973 2217.56 433.95 2211.1 433.95C2202.12 433.95 2194.09 431.897 2187.01 427.789C2179.96 423.682 2174.39 417.736 2170.29 409.951C2166.23 402.167 2164.2 392.743 2164.2 381.679C2164.2 370.583 2166.26 361.142 2170.39 353.358C2174.52 345.573 2180.13 339.644 2187.21 335.57C2194.29 331.462 2202.25 329.408 2211.1 329.408C2216.93 329.408 2222.34 330.237 2227.32 331.893C2232.34 333.549 2236.78 335.967 2240.65 339.147C2244.52 342.294 2247.66 346.153 2250.09 350.724C2252.55 355.295 2254.12 360.529 2254.81 366.425Z" fill="white"/>
<path d="M2291.16 348.538V330.8H2373.86V348.538H2343.03V432.559H2321.99V348.538H2291.16Z" fill="white"/>
<path d="M2417.45 432.559H2394.64L2429.4 330.8H2456.83L2491.54 432.559H2468.73L2443.51 354.053H2442.72L2417.45 432.559ZM2416.02 392.561H2469.91V409.355H2416.02V392.561Z" fill="white"/>
<path d="M2564.28 432.559H2528.58V330.8H2564.57C2574.7 330.8 2583.42 332.837 2590.73 336.911C2598.04 340.952 2603.66 346.766 2607.59 354.351C2611.56 361.937 2613.54 371.013 2613.54 381.58C2613.54 392.18 2611.56 401.289 2607.59 408.908C2603.66 416.527 2598 422.373 2590.63 426.448C2583.29 430.522 2574.5 432.559 2564.28 432.559ZM2549.87 414.125H2563.39C2569.68 414.125 2574.98 412.999 2579.27 410.746C2583.6 408.461 2586.84 404.933 2589.01 400.163C2591.2 395.36 2592.3 389.166 2592.3 381.58C2592.3 374.061 2591.2 367.916 2589.01 363.146C2586.84 358.376 2583.61 354.865 2579.32 352.612C2575.03 350.36 2569.73 349.234 2563.44 349.234H2549.87V414.125Z" fill="white"/>
<path d="M2665.91 432.559H2643.09L2677.85 330.8H2705.29L2740 432.559H2717.19L2691.97 354.053H2691.18L2665.91 432.559ZM2664.48 392.561H2718.37V409.355H2664.48V392.561Z" fill="white"/>
<path fill-rule="evenodd" clip-rule="evenodd" d="M228 455C353.369 455 455 353.369 455 228C455 102.631 353.369 1 228 1C102.631 1 1 102.631 1 228C1 353.369 102.631 455 228 455ZM146.327 241.895C133.852 245.133 121.772 250.419 112.658 259.533L112.665 259.54C90.1269 282.918 90.3868 320.141 113.445 343.199C136.503 366.257 173.727 366.517 197.104 343.979L197.111 343.986C206.225 334.872 211.511 322.793 214.749 310.317C220.525 288.06 232.131 267.002 249.567 249.567C267.19 231.944 288.513 220.276 311.036 214.565C323.064 211.515 334.687 206.41 343.462 197.636L343.461 197.635C366.52 174.294 366.433 136.679 343.199 113.445C319.966 90.2115 282.351 90.1243 259.009 113.184L259.009 113.183C250.234 121.957 245.13 133.581 242.08 145.609C236.368 168.131 224.701 189.455 207.078 207.078C189.642 224.513 168.585 236.119 146.327 241.895ZM183.49 300.973C183.49 316.337 171.035 328.791 155.672 328.791C140.308 328.791 127.853 316.337 127.853 300.973C127.853 285.609 140.308 273.154 155.672 273.154C171.035 273.154 183.49 285.609 183.49 300.973ZM273.154 155.672C273.154 171.035 285.609 183.49 300.973 183.49C316.337 183.49 328.791 171.035 328.791 155.672C328.791 140.308 316.337 127.853 300.973 127.853C285.609 127.853 273.154 140.308 273.154 155.672ZM193.14 144.51C193.14 170.838 171.797 192.18 145.469 192.18C119.142 192.18 97.799 170.838 97.799 144.51C97.799 118.183 119.142 96.8399 145.469 96.8399C171.797 96.8399 193.14 118.183 193.14 144.51ZM312.315 359.026C338.643 359.026 359.985 337.684 359.985 311.356C359.985 285.029 338.643 263.686 312.315 263.686C285.988 263.686 264.645 285.029 264.645 311.356C264.645 337.684 285.988 359.026 312.315 359.026Z" stroke="white" stroke-width="2" mask="url(#path-1-outside-1_321_49)"/>
<path d="M663 222.998V22H749.482C768.948 22 783.13 26.0887 792.029 34.2662C801.298 42.0719 805.932 54.0593 805.932 70.2283V98.9423C805.932 114.554 801.298 126.82 792.029 135.741C782.759 144.662 769.69 149.122 752.819 149.122H691.92V222.998H663ZM691.92 51.2715V120.129H752.541C761.254 120.129 767.558 118.457 771.451 115.111C775.344 111.766 777.29 105.912 777.29 97.5484V71.6222C777.29 58.0551 769.226 51.2715 753.097 51.2715H691.92Z" stroke="white" stroke-width="2" mask="url(#path-1-outside-1_321_49)"/>
<path d="M1012.39 222.998H934.807C917.01 222.998 903.662 218.352 894.763 209.059C886.05 199.581 881.694 186.199 881.694 168.915V72.1797C881.694 60.2853 884.382 49.9706 889.758 41.2356C895.134 32.5006 903.384 26.7392 914.507 23.9514C917.473 23.3939 920.995 22.9293 925.074 22.5575C929.152 22.1858 934.158 22 940.09 22H1012.95V51.2715H928.411C923.405 51.2715 919.142 53.3159 915.619 57.4046C912.282 61.3075 910.614 66.5113 910.614 73.0161V107.306H1012.95V136.577H910.614V175.885C910.614 180.531 912.56 184.713 916.453 188.43C919.605 191.031 923.035 192.797 926.742 193.726H1012.39V222.998Z" stroke="white" stroke-width="2" mask="url(#path-1-outside-1_321_49)"/>
<path d="M1225.38 222.998H1147.8C1130 222.998 1116.65 218.352 1107.75 209.059C1099.04 199.581 1094.68 186.199 1094.68 168.915V72.1797C1094.68 60.2853 1097.37 49.9706 1102.75 41.2356C1108.12 32.5006 1116.37 26.7392 1127.5 23.9514C1130.46 23.3939 1133.99 22.9293 1138.06 22.5575C1142.14 22.1858 1147.15 22 1153.08 22H1225.94V51.2715H1141.4C1136.4 51.2715 1132.13 53.3159 1128.61 57.4046C1125.27 61.3075 1123.6 66.5113 1123.6 73.0161V107.306H1225.94V136.577H1123.6V175.885C1123.6 180.531 1125.55 184.713 1129.44 188.43C1132.6 191.031 1136.03 192.797 1139.73 193.726H1225.38V222.998Z" stroke="white" stroke-width="2" mask="url(#path-1-outside-1_321_49)"/>
<path d="M1307.68 222.998V22H1408.9C1421.87 22 1432.72 26.925 1441.43 36.7751C1447.73 43.6516 1450.89 52.6654 1450.89 63.8165V98.6635C1450.89 108.514 1446.99 117.527 1439.21 125.705C1431.61 133.696 1422.8 137.692 1412.79 137.692L1378.86 137.413L1452.55 222.998H1413.9L1341.6 139.086C1339.19 136.112 1337.99 132.767 1337.99 129.05C1337.99 122.917 1339.93 117.992 1343.83 114.275C1347.9 110.372 1353.19 108.421 1359.68 108.421H1403.61C1408.62 108.421 1412.97 106.841 1416.68 103.681C1420.39 100.522 1422.24 96.7121 1422.24 92.2516V69.9495C1422.24 57.4975 1416.22 51.2715 1404.17 51.2715H1336.6V222.998H1307.68Z" stroke="white" stroke-width="2" mask="url(#path-1-outside-1_321_49)"/>
<path d="M1531.26 222.998V22H1633.03C1645.27 22 1655.37 26.4604 1663.34 35.3813C1671.32 44.1163 1675.3 55.1744 1675.3 68.5557V171.703C1675.3 186.199 1670.76 198.373 1661.68 208.223C1652.59 218.073 1641.28 222.998 1627.75 222.998H1531.26ZM1560.18 51.2715V193.726H1626.08C1639.62 193.726 1646.38 185.735 1646.38 169.751V74.1312C1646.38 65.582 1644.81 59.6348 1641.65 56.2895C1638.87 52.9442 1633.5 51.2715 1625.53 51.2715H1560.18Z" stroke="white" stroke-width="2" mask="url(#path-1-outside-1_321_49)"/>
<path d="M1902.92 22V173.654C1902.92 187.779 1898.56 199.581 1889.85 209.059C1881.14 218.352 1870.1 222.998 1856.76 222.998H1806.7C1793.73 222.998 1782.7 218.352 1773.61 209.059C1764.9 199.395 1760.54 187.593 1760.54 173.654V22H1789.46V170.03C1789.46 179.137 1791.04 185.363 1794.19 188.708C1797.34 192.054 1803 193.726 1811.15 193.726H1852.31C1860.28 193.726 1865.84 192.147 1868.99 188.987C1872.33 185.642 1874 179.88 1874 171.703V22H1902.92Z" stroke="white" stroke-width="2" mask="url(#path-1-outside-1_321_49)"/>
<path d="M1982.35 222.998V193.726H2062.44C2067.81 193.726 2072.36 192.147 2076.06 188.987C2079.77 185.828 2081.62 181.925 2081.62 177.278V151.91C2081.62 140.573 2074.58 134.904 2060.49 134.904H2030.46C2016.93 134.904 2005.52 131.094 1996.25 123.475C1986.99 115.669 1982.35 105.912 1982.35 94.2031V69.1132C1982.35 51.4574 1988.47 38.262 2000.7 29.527C2007.93 24.509 2017.94 22 2030.74 22H2111.94V51.2715H2029.35C2017.48 51.2715 2011.55 56.7541 2011.55 67.7193V87.7912C2011.55 101.544 2017.85 108.421 2030.46 108.421H2065.5C2077.92 108.421 2088.58 112.231 2097.48 119.851C2106.37 127.47 2110.82 136.577 2110.82 147.171V178.672C2110.82 191.31 2106.56 201.904 2098.03 210.453C2089.69 218.816 2078.94 222.998 2065.77 222.998H1982.35Z" stroke="white" stroke-width="2" mask="url(#path-1-outside-1_321_49)"/>
<path d="M2185.86 51.2715V22H2302.09V51.2715H2258.43V222.998H2229.24V51.2715H2185.86Z" stroke="white" stroke-width="2" mask="url(#path-1-outside-1_321_49)"/>
<path d="M2371.26 222.998V22H2472.48C2485.46 22 2496.3 26.925 2505.02 36.7751C2511.32 43.6516 2514.47 52.6654 2514.47 63.8165V98.6635C2514.47 108.514 2510.58 117.527 2502.79 125.705C2495.19 133.696 2486.39 137.692 2476.37 137.692L2442.45 137.413L2516.14 222.998H2477.49L2405.19 139.086C2402.78 136.112 2401.57 132.767 2401.57 129.05C2401.57 122.917 2403.52 117.992 2407.41 114.275C2411.49 110.372 2416.77 108.421 2423.26 108.421H2467.2C2472.2 108.421 2476.56 106.841 2480.27 103.681C2483.98 100.522 2485.83 96.7121 2485.83 92.2516V69.9495C2485.83 57.4975 2479.8 51.2715 2467.75 51.2715H2400.18V222.998H2371.26Z" stroke="white" stroke-width="2" mask="url(#path-1-outside-1_321_49)"/>
<path d="M2567.03 22H2601.52L2652.96 105.354L2705.52 22H2740L2667.42 136.856V222.998H2638.5L2638.22 136.856L2567.03 22Z" stroke="white" stroke-width="2" mask="url(#path-1-outside-1_321_49)"/>
<path d="M725.195 330.8H746.483V396.884C746.483 404.304 744.73 410.796 741.223 416.361C737.748 421.926 732.881 426.265 726.62 429.379C720.36 432.46 713.067 434 704.742 434C696.383 434 689.074 432.46 682.814 429.379C676.553 426.265 671.686 421.926 668.212 416.361C664.737 410.796 663 404.304 663 396.884V330.8H684.289V395.045C684.289 398.921 685.125 402.366 686.796 405.38C688.501 408.395 690.893 410.763 693.974 412.485C697.055 414.208 700.644 415.069 704.742 415.069C708.871 415.069 712.461 414.208 715.509 412.485C718.59 410.763 720.966 408.395 722.638 405.38C724.342 402.366 725.195 398.921 725.195 395.045V330.8Z" stroke="white" stroke-width="2" mask="url(#path-1-outside-1_321_49)"/>
<path d="M843.543 360.065C843.149 356.057 841.461 352.944 838.479 350.724C835.496 348.505 831.448 347.395 826.335 347.395C822.86 347.395 819.927 347.892 817.534 348.886C815.141 349.846 813.306 351.188 812.027 352.91C810.782 354.633 810.159 356.587 810.159 358.774C810.094 360.595 810.47 362.185 811.29 363.544C812.142 364.902 813.306 366.078 814.781 367.071C816.256 368.032 817.96 368.877 819.894 369.605C821.828 370.301 823.893 370.897 826.089 371.394L835.135 373.58C839.527 374.574 843.559 375.899 847.23 377.555C850.901 379.212 854.08 381.249 856.768 383.667C859.456 386.085 861.537 388.934 863.012 392.213C864.52 395.492 865.29 399.252 865.323 403.492C865.29 409.719 863.717 415.119 860.603 419.69C857.522 424.228 853.064 427.756 847.23 430.273C841.428 432.758 834.431 434 826.236 434C818.108 434 811.028 432.741 804.997 430.224C798.999 427.706 794.311 423.98 790.935 419.044C787.592 414.075 785.839 407.931 785.675 400.61H806.275C806.504 404.022 807.471 406.871 809.176 409.156C810.913 411.409 813.224 413.115 816.108 414.274C819.025 415.4 822.319 415.964 825.99 415.964C829.596 415.964 832.726 415.434 835.381 414.374C838.069 413.314 840.15 411.839 841.625 409.951C843.1 408.063 843.838 405.894 843.838 403.442C843.838 401.157 843.166 399.236 841.822 397.679C840.511 396.122 838.577 394.797 836.02 393.704C833.496 392.611 830.399 391.617 826.728 390.722L815.764 387.94C807.275 385.853 800.572 382.59 795.655 378.152C790.739 373.713 788.297 367.734 788.33 360.214C788.297 354.053 789.919 348.67 793.197 344.066C796.507 339.462 801.047 335.868 806.816 333.284C812.585 330.7 819.14 329.408 826.482 329.408C833.955 329.408 840.478 330.7 846.05 333.284C851.655 335.868 856.014 339.462 859.128 344.066C862.242 348.67 863.848 354.004 863.946 360.065H843.543Z" stroke="white" stroke-width="2" mask="url(#path-1-outside-1_321_49)"/>
<path d="M925.852 330.8V432.559H904.564V330.8H925.852Z" stroke="white" stroke-width="2" mask="url(#path-1-outside-1_321_49)"/>
<path d="M1052.51 330.8V432.559H1034.12L990.315 368.512H989.577V432.559H968.289V330.8H986.972L1030.43 394.797H1031.32V330.8H1052.51Z" stroke="white" stroke-width="2" mask="url(#path-1-outside-1_321_49)"/>
<path d="M1112.37 432.559H1089.56L1124.32 330.8H1151.76L1186.47 432.559H1163.65L1138.43 354.053H1137.65L1112.37 432.559ZM1110.95 392.561H1164.83V409.355H1110.95V392.561Z" stroke="white" stroke-width="2" mask="url(#path-1-outside-1_321_49)"/>
<path d="M1285.54 363.693C1284.85 361.274 1283.89 359.138 1282.64 357.283C1281.4 355.395 1279.87 353.805 1278.07 352.513C1276.3 351.188 1274.27 350.178 1271.97 349.482C1269.71 348.786 1267.2 348.439 1264.45 348.439C1259.3 348.439 1254.78 349.73 1250.88 352.314C1247.01 354.898 1244 358.658 1241.83 363.593C1239.67 368.496 1238.59 374.491 1238.59 381.58C1238.59 388.669 1239.65 394.697 1241.79 399.666C1243.92 404.635 1246.93 408.428 1250.83 411.045C1254.73 413.628 1259.34 414.92 1264.65 414.92C1269.47 414.92 1273.58 414.059 1276.99 412.336C1280.43 410.581 1283.05 408.113 1284.85 404.933C1286.69 401.753 1287.61 397.993 1287.61 393.654L1291.93 394.3H1265.97V378.102H1308.11V390.921C1308.11 399.865 1306.24 407.55 1302.5 413.976C1298.77 420.369 1293.62 425.305 1287.07 428.783C1280.51 432.228 1273.01 433.95 1264.55 433.95C1255.11 433.95 1246.82 431.847 1239.67 427.64C1232.53 423.4 1226.95 417.388 1222.95 409.604C1218.99 401.786 1217.01 392.511 1217.01 381.779C1217.01 373.531 1218.19 366.177 1220.55 359.718C1222.94 353.225 1226.28 347.726 1230.58 343.221C1234.87 338.716 1239.87 335.288 1245.57 332.936C1251.27 330.584 1257.45 329.408 1264.11 329.408C1269.81 329.408 1275.12 330.253 1280.04 331.942C1284.95 333.599 1289.31 335.951 1293.11 338.998C1296.95 342.046 1300.08 345.673 1302.5 349.88C1304.93 354.053 1306.49 358.658 1307.18 363.693H1285.54Z" stroke="white" stroke-width="2" mask="url(#path-1-outside-1_321_49)"/>
<path d="M1349.02 432.559V330.8H1416.87V348.538H1370.31V372.785H1413.38V390.524H1370.31V414.821H1417.07V432.559H1349.02Z" stroke="white" stroke-width="2" mask="url(#path-1-outside-1_321_49)"/>
<path d="M1458.72 330.8H1484.97L1512.7 399.169H1513.88L1541.61 330.8H1567.86V432.559H1547.21V366.326H1546.38L1520.32 432.062H1506.26L1480.2 366.078H1479.37V432.559H1458.72V330.8Z" stroke="white" stroke-width="2" mask="url(#path-1-outside-1_321_49)"/>
<path d="M1756.13 366.425H1734.6C1734.2 363.61 1733.4 361.109 1732.19 358.923C1730.98 356.703 1729.42 354.815 1727.52 353.258C1725.62 351.701 1723.42 350.509 1720.93 349.681C1718.47 348.853 1715.8 348.439 1712.92 348.439C1707.7 348.439 1703.16 349.747 1699.3 352.364C1695.43 354.948 1692.43 358.724 1690.3 363.693C1688.17 368.628 1687.1 374.624 1687.1 381.679C1687.1 388.934 1688.17 395.029 1690.3 399.964C1692.46 404.9 1695.48 408.626 1699.35 411.144C1703.21 413.661 1707.69 414.92 1712.77 414.92C1715.62 414.92 1718.26 414.539 1720.68 413.777C1723.14 413.015 1725.32 411.906 1727.22 410.448C1729.12 408.958 1730.7 407.152 1731.94 405.032C1733.22 402.912 1734.11 400.494 1734.6 397.778L1756.13 397.877C1755.58 402.548 1754.18 407.053 1751.95 411.392C1749.76 415.699 1746.79 419.558 1743.05 422.969C1739.35 426.348 1734.93 429.031 1729.78 431.019C1724.67 432.973 1718.88 433.95 1712.42 433.95C1703.44 433.95 1695.41 431.897 1688.33 427.789C1681.29 423.682 1675.71 417.736 1671.62 409.951C1667.55 402.167 1665.52 392.743 1665.52 381.679C1665.52 370.583 1667.59 361.142 1671.72 353.358C1675.85 345.573 1681.45 339.644 1688.53 335.57C1695.61 331.462 1703.57 329.408 1712.42 329.408C1718.26 329.408 1723.67 330.237 1728.65 331.893C1733.66 333.549 1738.11 335.967 1741.97 339.147C1745.84 342.294 1748.99 346.153 1751.41 350.724C1753.87 355.295 1755.44 360.529 1756.13 366.425Z" stroke="white" stroke-width="2" mask="url(#path-1-outside-1_321_49)"/>
<path d="M1888.85 381.679C1888.85 392.776 1886.77 402.217 1882.61 410.001C1878.48 417.785 1872.84 423.731 1865.69 427.839C1858.58 431.913 1850.58 433.95 1841.7 433.95C1832.75 433.95 1824.72 431.897 1817.61 427.789C1810.5 423.682 1804.87 417.736 1800.74 409.951C1796.61 402.167 1794.55 392.743 1794.55 381.679C1794.55 370.583 1796.61 361.142 1800.74 353.358C1804.87 345.573 1810.5 339.644 1817.61 335.57C1824.72 331.462 1832.75 329.408 1841.7 329.408C1850.58 329.408 1858.58 331.462 1865.69 335.57C1872.84 339.644 1878.48 345.573 1882.61 353.358C1886.77 361.142 1888.85 370.583 1888.85 381.679ZM1867.27 381.679C1867.27 374.491 1866.2 368.429 1864.07 363.494C1861.97 358.558 1859.01 354.815 1855.17 352.265C1851.34 349.714 1846.85 348.439 1841.7 348.439C1836.55 348.439 1832.06 349.714 1828.23 352.265C1824.39 354.815 1821.41 358.558 1819.28 363.494C1817.18 368.429 1816.13 374.491 1816.13 381.679C1816.13 388.867 1817.18 394.929 1819.28 399.865C1821.41 404.8 1824.39 408.544 1828.23 411.094C1832.06 413.645 1836.55 414.92 1841.7 414.92C1846.85 414.92 1851.34 413.645 1855.17 411.094C1859.01 408.544 1861.97 404.8 1864.07 399.865C1866.2 394.929 1867.27 388.867 1867.27 381.679Z" stroke="white" stroke-width="2" mask="url(#path-1-outside-1_321_49)"/>
<path d="M2013.76 330.8V432.559H1995.37L1951.57 368.512H1950.83V432.559H1929.54V330.8H1948.22L1991.69 394.797H1992.57V330.8H2013.76Z" stroke="white" stroke-width="2" mask="url(#path-1-outside-1_321_49)"/>
<path d="M2056.27 432.559V330.8H2124.12V348.538H2077.56V372.785H2120.63V390.524H2077.56V414.821H2124.32V432.559H2056.27Z" stroke="white" stroke-width="2" mask="url(#path-1-outside-1_321_49)"/>
<path d="M2254.81 366.425H2233.27C2232.88 363.61 2232.08 361.109 2230.86 358.923C2229.65 356.703 2228.09 354.815 2226.19 353.258C2224.29 351.701 2222.1 350.509 2219.61 349.681C2217.15 348.853 2214.48 348.439 2211.59 348.439C2206.38 348.439 2201.84 349.747 2197.97 352.364C2194.1 354.948 2191.11 358.724 2188.98 363.693C2186.84 368.628 2185.78 374.624 2185.78 381.679C2185.78 388.934 2186.84 395.029 2188.98 399.964C2191.14 404.9 2194.15 408.626 2198.02 411.144C2201.89 413.661 2206.36 414.92 2211.44 414.92C2214.3 414.92 2216.93 414.539 2219.36 413.777C2221.82 413.015 2224 411.906 2225.9 410.448C2227.8 408.958 2229.37 407.152 2230.62 405.032C2231.9 402.912 2232.78 400.494 2233.27 397.778L2254.81 397.877C2254.25 402.548 2252.86 407.053 2250.63 411.392C2248.43 415.699 2245.47 419.558 2241.73 422.969C2238.03 426.348 2233.6 429.031 2228.46 431.019C2223.34 432.973 2217.56 433.95 2211.1 433.95C2202.12 433.95 2194.09 431.897 2187.01 427.789C2179.96 423.682 2174.39 417.736 2170.29 409.951C2166.23 402.167 2164.2 392.743 2164.2 381.679C2164.2 370.583 2166.26 361.142 2170.39 353.358C2174.52 345.573 2180.13 339.644 2187.21 335.57C2194.29 331.462 2202.25 329.408 2211.1 329.408C2216.93 329.408 2222.34 330.237 2227.32 331.893C2232.34 333.549 2236.78 335.967 2240.65 339.147C2244.52 342.294 2247.66 346.153 2250.09 350.724C2252.55 355.295 2254.12 360.529 2254.81 366.425Z" stroke="white" stroke-width="2" mask="url(#path-1-outside-1_321_49)"/>
<path d="M2291.16 348.538V330.8H2373.86V348.538H2343.03V432.559H2321.99V348.538H2291.16Z" stroke="white" stroke-width="2" mask="url(#path-1-outside-1_321_49)"/>
<path d="M2417.45 432.559H2394.64L2429.4 330.8H2456.83L2491.54 432.559H2468.73L2443.51 354.053H2442.72L2417.45 432.559ZM2416.02 392.561H2469.91V409.355H2416.02V392.561Z" stroke="white" stroke-width="2" mask="url(#path-1-outside-1_321_49)"/>
<path d="M2564.28 432.559H2528.58V330.8H2564.57C2574.7 330.8 2583.42 332.837 2590.73 336.911C2598.04 340.952 2603.66 346.766 2607.59 354.351C2611.56 361.937 2613.54 371.013 2613.54 381.58C2613.54 392.18 2611.56 401.289 2607.59 408.908C2603.66 416.527 2598 422.373 2590.63 426.448C2583.29 430.522 2574.5 432.559 2564.28 432.559ZM2549.87 414.125H2563.39C2569.68 414.125 2574.98 412.999 2579.27 410.746C2583.6 408.461 2586.84 404.933 2589.01 400.163C2591.2 395.36 2592.3 389.166 2592.3 381.58C2592.3 374.061 2591.2 367.916 2589.01 363.146C2586.84 358.376 2583.61 354.865 2579.32 352.612C2575.03 350.36 2569.73 349.234 2563.44 349.234H2549.87V414.125Z" stroke="white" stroke-width="2" mask="url(#path-1-outside-1_321_49)"/>
<path d="M2665.91 432.559H2643.09L2677.85 330.8H2705.29L2740 432.559H2717.19L2691.97 354.053H2691.18L2665.91 432.559ZM2664.48 392.561H2718.37V409.355H2664.48V392.561Z" stroke="white" stroke-width="2" mask="url(#path-1-outside-1_321_49)"/>
</svg>
