<svg width="32" height="32" viewBox="0 0 32 32" fill="none" xmlns="http://www.w3.org/2000/svg">
<path d="M25.9989 14.1934C27.5074 13.7783 28.9638 13.1189 30.0524 12.0082C32.7429 9.16102 32.6366 4.70723 29.7907 1.99983C26.9449 -0.707557 22.4242 -0.655731 19.6301 2.09292C18.5415 3.20361 17.9226 4.65979 17.5542 6.15961C16.897 8.83545 15.5295 11.3807 13.4468 13.5056C11.3417 15.6533 8.77553 17.0967 6.05181 17.8302C4.59726 18.222 3.19587 18.8586 2.14786 19.928C-0.605966 22.772 -0.520741 27.2722 2.34674 30.0002C5.21423 32.7281 9.78219 32.6548 12.571 29.844C13.6191 28.7747 14.2159 27.3726 14.5623 25.9268C15.2112 23.2193 16.5857 20.6422 18.6907 18.4944C20.7734 16.3695 23.3075 14.9341 25.9989 14.1934Z" fill="#00437F"/>
<path d="M11.4222 5.84615C11.4222 9.07489 8.86528 11.6923 5.71112 11.6923C2.55696 11.6923 0 9.07489 0 5.84615C0 2.61741 2.55696 0 5.71112 0C8.86528 0 11.4222 2.61741 11.4222 5.84615Z" fill="#00437F"/>
<path d="M31.862 26.1538C31.862 29.3826 29.3051 32 26.1509 32C22.9967 32 20.4398 29.3826 20.4398 26.1538C20.4398 22.9251 22.9967 20.3077 26.1509 20.3077C29.3051 20.3077 31.862 22.9251 31.862 26.1538Z" fill="#00437F"/>
</svg>
