<svg width="2086" height="418" viewBox="0 0 2086 418" fill="none" xmlns="http://www.w3.org/2000/svg">
<mask id="path-1-outside-1_321_46" maskUnits="userSpaceOnUse" x="0" y="0" width="2086" height="418" fill="black">
<rect fill="white" width="2086" height="418"/>
<path d="M3 203.998V3H89.4825C108.948 3 123.13 7.08872 132.029 15.2662C141.298 23.0719 145.932 35.0593 145.932 51.2283V79.9423C145.932 95.5538 141.298 107.82 132.029 116.741C122.759 125.662 109.69 130.122 92.8194 130.122H31.9202V203.998H3ZM31.9202 32.2715V101.129H92.5413C101.254 101.129 107.558 99.4566 111.451 96.1113C115.344 92.766 117.29 86.9117 117.29 78.5484V52.6222C117.29 39.0551 109.226 32.2715 93.0975 32.2715H31.9202Z"/>
<path d="M352.391 203.998H274.807C257.01 203.998 243.662 199.352 234.763 190.059C226.05 180.581 221.694 167.199 221.694 149.915V53.1797C221.694 41.2853 224.382 30.9706 229.758 22.2356C235.134 13.5006 243.384 7.73919 254.507 4.95143C257.473 4.39388 260.995 3.92925 265.074 3.55755C269.152 3.18585 274.158 3 280.09 3H352.947V32.2715H268.411C263.405 32.2715 259.142 34.3159 255.619 38.4046C252.282 42.3075 250.614 47.5113 250.614 54.0161V88.3056H352.947V117.577H250.614V156.885C250.614 161.531 252.56 165.712 256.454 169.43C259.605 172.031 263.035 173.797 266.742 174.726H352.391V203.998Z"/>
<path d="M565.381 203.998H487.798C470.001 203.998 456.653 199.352 447.754 190.059C439.041 180.581 434.684 167.199 434.684 149.915V53.1797C434.684 41.2853 437.373 30.9706 442.749 22.2356C448.125 13.5006 456.375 7.73919 467.498 4.95143C470.464 4.39388 473.986 3.92925 478.065 3.55755C482.143 3.18585 487.149 3 493.081 3H565.938V32.2715H481.402C476.396 32.2715 472.132 34.3159 468.61 38.4046C465.273 42.3075 463.605 47.5113 463.605 54.0161V88.3056H565.938V117.577H463.605V156.885C463.605 161.531 465.551 165.712 469.444 169.43C472.596 172.031 476.026 173.797 479.733 174.726H565.381V203.998Z"/>
<path d="M647.675 203.998V3H748.896C761.873 3 772.718 7.92505 781.431 17.7751C787.734 24.6516 790.886 33.6654 790.886 44.8165V79.6635C790.886 89.5136 786.993 98.5274 779.206 106.705C771.606 114.696 762.8 118.692 752.789 118.692L718.864 118.413L792.554 203.998H753.901L681.601 120.086C679.191 117.112 677.986 113.767 677.986 110.05C677.986 103.917 679.933 98.992 683.826 95.275C687.904 91.3721 693.188 89.4207 699.676 89.4207H743.612C748.618 89.4207 752.974 87.841 756.682 84.6815C760.39 81.522 762.244 77.7121 762.244 73.2516V50.9495C762.244 38.4975 756.219 32.2715 744.169 32.2715H676.596V203.998H647.675Z"/>
<path d="M871.257 203.998V3H973.034C985.269 3 995.373 7.46042 1003.34 16.3813C1011.32 25.1163 1015.3 36.1744 1015.3 49.5557V152.703C1015.3 167.199 1010.76 179.373 1001.68 189.223C992.592 199.073 981.284 203.998 967.75 203.998H871.257ZM900.177 32.2715V174.726H966.082C979.615 174.726 986.382 166.735 986.382 150.751V55.1312C986.382 46.582 984.806 40.6348 981.654 37.2895C978.874 33.9442 973.497 32.2715 965.526 32.2715H900.177Z"/>
<path d="M1242.92 3V154.654C1242.92 168.779 1238.56 180.581 1229.85 190.059C1221.14 199.352 1210.1 203.998 1196.76 203.998H1146.7C1133.73 203.998 1122.7 199.352 1113.61 190.059C1104.9 180.395 1100.54 168.593 1100.54 154.654V3H1129.46V151.03C1129.46 160.137 1131.04 166.363 1134.19 169.708C1137.34 173.054 1143 174.726 1151.15 174.726H1192.31C1200.28 174.726 1205.84 173.147 1208.99 169.987C1212.33 166.642 1214 160.88 1214 152.703V3H1242.92Z"/>
<path d="M1322.35 203.998V174.726H1402.44C1407.81 174.726 1412.36 173.147 1416.06 169.987C1419.77 166.828 1421.62 162.925 1421.62 158.278V132.91C1421.62 121.573 1414.58 115.904 1400.49 115.904H1370.46C1356.93 115.904 1345.52 112.094 1336.25 104.475C1326.99 96.6689 1322.35 86.9117 1322.35 75.2031V50.1132C1322.35 32.4574 1328.47 19.262 1340.7 10.527C1347.93 5.50899 1357.94 3 1370.74 3H1451.94V32.2715H1369.35C1357.48 32.2715 1351.55 37.7541 1351.55 48.7193V68.7912C1351.55 82.5442 1357.85 89.4207 1370.46 89.4207H1405.5C1417.92 89.4207 1428.58 93.2306 1437.48 100.851C1446.37 108.47 1450.82 117.577 1450.82 128.171V159.672C1450.82 172.31 1446.56 182.904 1438.03 191.453C1429.69 199.816 1418.94 203.998 1405.77 203.998H1322.35Z"/>
<path d="M1525.86 32.2715V3H1642.09V32.2715H1598.43V203.998H1569.24V32.2715H1525.86Z"/>
<path d="M1711.26 203.998V3H1812.48C1825.46 3 1836.3 7.92505 1845.02 17.7751C1851.32 24.6516 1854.47 33.6654 1854.47 44.8165V79.6635C1854.47 89.5136 1850.58 98.5274 1842.79 106.705C1835.19 114.696 1826.39 118.692 1816.37 118.692L1782.45 118.413L1856.14 203.998H1817.49L1745.19 120.086C1742.78 117.112 1741.57 113.767 1741.57 110.05C1741.57 103.917 1743.52 98.992 1747.41 95.275C1751.49 91.3721 1756.77 89.4207 1763.26 89.4207H1807.2C1812.2 89.4207 1816.56 87.841 1820.27 84.6815C1823.98 81.522 1825.83 77.7121 1825.83 73.2516V50.9495C1825.83 38.4975 1819.8 32.2715 1807.75 32.2715H1740.18V203.998H1711.26Z"/>
<path d="M1907.03 3H1941.52L1992.96 86.3541L2045.52 3H2080L2007.42 117.856V203.998H1978.5L1978.22 117.856L1907.03 3Z"/>
<path d="M65.1945 311.8H86.4833V377.884C86.4833 385.304 84.7297 391.796 81.2225 397.361C77.7482 402.926 72.8808 407.265 66.6203 410.379C60.3599 413.46 53.067 415 44.7416 415C36.3834 415 29.0742 413.46 22.8138 410.379C16.5533 407.265 11.6859 402.926 8.21158 397.361C4.7372 391.796 3 385.304 3 377.884V311.8H24.2887V376.045C24.2887 379.921 25.1245 383.366 26.7962 386.38C28.5006 389.395 30.8933 391.763 33.9743 393.485C37.0554 395.208 40.6445 396.069 44.7416 396.069C48.8715 396.069 52.4606 395.208 55.5089 393.485C58.59 391.763 60.9663 389.395 62.6379 386.38C64.3423 383.366 65.1945 379.921 65.1945 376.045V311.8Z"/>
<path d="M183.543 341.065C183.149 337.057 181.461 333.944 178.479 331.724C175.496 329.505 171.448 328.395 166.335 328.395C162.86 328.395 159.927 328.892 157.534 329.886C155.141 330.846 153.306 332.188 152.027 333.91C150.782 335.633 150.159 337.587 150.159 339.774C150.094 341.595 150.47 343.185 151.29 344.544C152.142 345.902 153.306 347.078 154.781 348.071C156.256 349.032 157.96 349.877 159.894 350.605C161.828 351.301 163.893 351.897 166.089 352.394L175.135 354.58C179.527 355.574 183.559 356.899 187.23 358.555C190.901 360.212 194.08 362.249 196.768 364.667C199.456 367.085 201.537 369.934 203.012 373.213C204.52 376.492 205.29 380.252 205.323 384.492C205.29 390.719 203.717 396.119 200.603 400.69C197.522 405.228 193.064 408.756 187.23 411.273C181.428 413.758 174.431 415 166.236 415C158.108 415 151.028 413.741 144.997 411.224C138.999 408.706 134.311 404.98 130.935 400.044C127.592 395.075 125.839 388.931 125.675 381.61H146.275C146.504 385.022 147.471 387.871 149.176 390.156C150.913 392.409 153.224 394.115 156.108 395.274C159.025 396.4 162.319 396.964 165.99 396.964C169.596 396.964 172.726 396.434 175.381 395.374C178.069 394.314 180.15 392.84 181.625 390.951C183.1 389.063 183.838 386.894 183.838 384.442C183.838 382.157 183.166 380.236 181.822 378.679C180.511 377.122 178.577 375.797 176.02 374.704C173.496 373.611 170.399 372.617 166.728 371.722L155.764 368.94C147.275 366.853 140.572 363.59 135.655 359.152C130.739 354.713 128.297 348.734 128.33 341.214C128.297 335.053 129.919 329.67 133.197 325.066C136.507 320.462 141.047 316.868 146.816 314.284C152.585 311.7 159.14 310.408 166.482 310.408C173.955 310.408 180.478 311.7 186.05 314.284C191.655 316.868 196.014 320.462 199.128 325.066C202.242 329.67 203.848 335.004 203.946 341.065H183.543Z"/>
<path d="M265.852 311.8V413.559H244.564V311.8H265.852Z"/>
<path d="M392.509 311.8V413.559H374.121L330.315 349.512H329.577V413.559H308.289V311.8H326.972L370.434 375.797H371.319V311.8H392.509Z"/>
<path d="M452.375 413.559H429.562L464.322 311.8H491.757L526.467 413.559H503.655L478.433 335.053H477.646L452.375 413.559ZM450.949 373.561H504.835V390.355H450.949V373.561Z"/>
<path d="M625.543 344.693C624.854 342.274 623.887 340.138 622.642 338.283C621.396 336.395 619.872 334.805 618.069 333.513C616.299 332.188 614.267 331.178 611.973 330.482C609.711 329.786 607.204 329.439 604.451 329.439C599.305 329.439 594.781 330.73 590.881 333.314C587.013 335.898 583.998 339.658 581.834 344.593C579.671 349.496 578.589 355.491 578.589 362.58C578.589 369.669 579.655 375.697 581.785 380.666C583.916 385.635 586.931 389.428 590.832 392.045C594.732 394.628 599.337 395.92 604.647 395.92C609.465 395.92 613.579 395.059 616.988 393.336C620.429 391.581 623.052 389.113 624.854 385.933C626.69 382.753 627.608 378.993 627.608 374.654L631.934 375.3H605.975V359.102H648.11V371.921C648.11 380.865 646.241 388.55 642.505 394.976C638.768 401.369 633.622 406.305 627.067 409.783C620.511 413.228 613.005 414.95 604.549 414.95C595.109 414.95 586.816 412.847 579.671 408.64C572.526 404.4 566.954 398.388 562.955 390.604C558.989 382.786 557.006 373.511 557.006 362.779C557.006 354.531 558.186 347.177 560.546 340.718C562.938 334.225 566.282 328.726 570.575 324.221C574.869 319.716 579.868 316.288 585.571 313.936C591.274 311.584 597.453 310.408 604.106 310.408C609.81 310.408 615.119 311.253 620.036 312.942C624.953 314.599 629.312 316.951 633.114 319.998C636.949 323.046 640.079 326.673 642.505 330.88C644.93 335.053 646.487 339.658 647.175 344.693H625.543Z"/>
<path d="M689.022 413.559V311.8H756.87V329.538H710.311V353.785H753.38V371.524H710.311V395.821H757.067V413.559H689.022Z"/>
<path d="M798.717 311.8H824.971L852.701 380.169H853.881L881.61 311.8H907.864V413.559H887.215V347.326H886.379L860.321 413.062H846.26L820.202 347.078H819.366V413.559H798.717V311.8Z"/>
<path d="M1096.13 347.425H1074.6C1074.2 344.61 1073.4 342.109 1072.19 339.923C1070.98 337.703 1069.42 335.815 1067.52 334.258C1065.62 332.701 1063.42 331.509 1060.93 330.681C1058.47 329.853 1055.8 329.439 1052.92 329.439C1047.7 329.439 1043.16 330.747 1039.3 333.364C1035.43 335.948 1032.43 339.724 1030.3 344.693C1028.17 349.628 1027.1 355.624 1027.1 362.679C1027.1 369.934 1028.17 376.029 1030.3 380.964C1032.46 385.9 1035.48 389.626 1039.35 392.144C1043.21 394.661 1047.69 395.92 1052.77 395.92C1055.62 395.92 1058.26 395.539 1060.68 394.777C1063.14 394.015 1065.32 392.906 1067.22 391.448C1069.12 389.958 1070.7 388.152 1071.94 386.032C1073.22 383.912 1074.11 381.494 1074.6 378.778L1096.13 378.877C1095.58 383.548 1094.18 388.053 1091.95 392.392C1089.76 396.699 1086.79 400.558 1083.05 403.969C1079.35 407.348 1074.93 410.031 1069.78 412.019C1064.67 413.973 1058.88 414.95 1052.42 414.95C1043.44 414.95 1035.41 412.897 1028.33 408.789C1021.29 404.682 1015.71 398.736 1011.62 390.951C1007.55 383.167 1005.52 373.743 1005.52 362.679C1005.52 351.583 1007.59 342.142 1011.72 334.358C1015.84 326.573 1021.45 320.644 1028.53 316.57C1035.61 312.462 1043.57 310.408 1052.42 310.408C1058.26 310.408 1063.67 311.237 1068.65 312.893C1073.66 314.549 1078.11 316.967 1081.97 320.147C1085.84 323.294 1088.99 327.153 1091.41 331.724C1093.87 336.295 1095.44 341.529 1096.13 347.425Z"/>
<path d="M1228.85 362.679C1228.85 373.776 1226.77 383.217 1222.61 391.001C1218.48 398.785 1212.84 404.731 1205.69 408.839C1198.58 412.913 1190.58 414.95 1181.7 414.95C1172.75 414.95 1164.72 412.897 1157.61 408.789C1150.5 404.682 1144.87 398.736 1140.74 390.951C1136.61 383.167 1134.55 373.743 1134.55 362.679C1134.55 351.583 1136.61 342.142 1140.74 334.358C1144.87 326.573 1150.5 320.644 1157.61 316.57C1164.72 312.462 1172.75 310.408 1181.7 310.408C1190.58 310.408 1198.58 312.462 1205.69 316.57C1212.84 320.644 1218.48 326.573 1222.61 334.358C1226.77 342.142 1228.85 351.583 1228.85 362.679ZM1207.27 362.679C1207.27 355.491 1206.2 349.429 1204.07 344.494C1201.97 339.558 1199.01 335.815 1195.17 333.265C1191.34 330.714 1186.85 329.439 1181.7 329.439C1176.55 329.439 1172.06 330.714 1168.23 333.265C1164.39 335.815 1161.41 339.558 1159.28 344.494C1157.18 349.429 1156.13 355.491 1156.13 362.679C1156.13 369.867 1157.18 375.929 1159.28 380.865C1161.41 385.8 1164.39 389.544 1168.23 392.094C1172.06 394.645 1176.55 395.92 1181.7 395.92C1186.85 395.92 1191.34 394.645 1195.17 392.094C1199.01 389.544 1201.97 385.8 1204.07 380.865C1206.2 375.929 1207.27 369.867 1207.27 362.679Z"/>
<path d="M1353.76 311.8V413.559H1335.37L1291.57 349.512H1290.83V413.559H1269.54V311.8H1288.22L1331.69 375.797H1332.57V311.8H1353.76Z"/>
<path d="M1396.27 413.559V311.8H1464.12V329.538H1417.56V353.785H1460.63V371.524H1417.56V395.821H1464.32V413.559H1396.27Z"/>
<path d="M1594.81 347.425H1573.27C1572.88 344.61 1572.08 342.109 1570.86 339.923C1569.65 337.703 1568.09 335.815 1566.19 334.258C1564.29 332.701 1562.1 331.509 1559.61 330.681C1557.15 329.853 1554.48 329.439 1551.59 329.439C1546.38 329.439 1541.84 330.747 1537.97 333.364C1534.1 335.948 1531.11 339.724 1528.98 344.693C1526.84 349.628 1525.78 355.624 1525.78 362.679C1525.78 369.934 1526.84 376.029 1528.98 380.964C1531.14 385.9 1534.15 389.626 1538.02 392.144C1541.89 394.661 1546.36 395.92 1551.44 395.92C1554.3 395.92 1556.93 395.539 1559.36 394.777C1561.82 394.015 1564 392.906 1565.9 391.448C1567.8 389.958 1569.37 388.152 1570.62 386.032C1571.9 383.912 1572.78 381.494 1573.27 378.778L1594.81 378.877C1594.25 383.548 1592.86 388.053 1590.63 392.392C1588.43 396.699 1585.47 400.558 1581.73 403.969C1578.03 407.348 1573.6 410.031 1568.46 412.019C1563.34 413.973 1557.56 414.95 1551.1 414.95C1542.12 414.95 1534.09 412.897 1527.01 408.789C1519.96 404.682 1514.39 398.736 1510.29 390.951C1506.23 383.167 1504.2 373.743 1504.2 362.679C1504.2 351.583 1506.26 342.142 1510.39 334.358C1514.52 326.573 1520.13 320.644 1527.21 316.57C1534.29 312.462 1542.25 310.408 1551.1 310.408C1556.93 310.408 1562.34 311.237 1567.32 312.893C1572.34 314.549 1576.78 316.967 1580.65 320.147C1584.52 323.294 1587.66 327.153 1590.09 331.724C1592.55 336.295 1594.12 341.529 1594.81 347.425Z"/>
<path d="M1631.16 329.538V311.8H1713.86V329.538H1683.03V413.559H1661.99V329.538H1631.16Z"/>
<path d="M1757.45 413.559H1734.64L1769.4 311.8H1796.83L1831.54 413.559H1808.73L1783.51 335.053H1782.72L1757.45 413.559ZM1756.02 373.561H1809.91V390.355H1756.02V373.561Z"/>
<path d="M1904.28 413.559H1868.58V311.8H1904.57C1914.7 311.8 1923.42 313.837 1930.73 317.911C1938.04 321.952 1943.66 327.766 1947.59 335.351C1951.56 342.937 1953.54 352.013 1953.54 362.58C1953.54 373.18 1951.56 382.289 1947.59 389.908C1943.66 397.527 1938 403.373 1930.63 407.448C1923.29 411.522 1914.5 413.559 1904.28 413.559ZM1889.87 395.125H1903.39C1909.68 395.125 1914.98 393.999 1919.27 391.746C1923.6 389.461 1926.84 385.933 1929.01 381.163C1931.2 376.36 1932.3 370.166 1932.3 362.58C1932.3 355.061 1931.2 348.916 1929.01 344.146C1926.84 339.376 1923.61 335.865 1919.32 333.612C1915.03 331.36 1909.73 330.234 1903.44 330.234H1889.87V395.125Z"/>
<path d="M2005.91 413.559H1983.09L2017.85 311.8H2045.29L2080 413.559H2057.19L2031.97 335.053H2031.18L2005.91 413.559ZM2004.48 373.561H2058.37V390.355H2004.48V373.561Z"/>
</mask>
<path d="M3 203.998V3H89.4825C108.948 3 123.13 7.08872 132.029 15.2662C141.298 23.0719 145.932 35.0593 145.932 51.2283V79.9423C145.932 95.5538 141.298 107.82 132.029 116.741C122.759 125.662 109.69 130.122 92.8194 130.122H31.9202V203.998H3ZM31.9202 32.2715V101.129H92.5413C101.254 101.129 107.558 99.4566 111.451 96.1113C115.344 92.766 117.29 86.9117 117.29 78.5484V52.6222C117.29 39.0551 109.226 32.2715 93.0975 32.2715H31.9202Z" fill="#00437F"/>
<path d="M352.391 203.998H274.807C257.01 203.998 243.662 199.352 234.763 190.059C226.05 180.581 221.694 167.199 221.694 149.915V53.1797C221.694 41.2853 224.382 30.9706 229.758 22.2356C235.134 13.5006 243.384 7.73919 254.507 4.95143C257.473 4.39388 260.995 3.92925 265.074 3.55755C269.152 3.18585 274.158 3 280.09 3H352.947V32.2715H268.411C263.405 32.2715 259.142 34.3159 255.619 38.4046C252.282 42.3075 250.614 47.5113 250.614 54.0161V88.3056H352.947V117.577H250.614V156.885C250.614 161.531 252.56 165.712 256.454 169.43C259.605 172.031 263.035 173.797 266.742 174.726H352.391V203.998Z" fill="#00437F"/>
<path d="M565.381 203.998H487.798C470.001 203.998 456.653 199.352 447.754 190.059C439.041 180.581 434.684 167.199 434.684 149.915V53.1797C434.684 41.2853 437.373 30.9706 442.749 22.2356C448.125 13.5006 456.375 7.73919 467.498 4.95143C470.464 4.39388 473.986 3.92925 478.065 3.55755C482.143 3.18585 487.149 3 493.081 3H565.938V32.2715H481.402C476.396 32.2715 472.132 34.3159 468.61 38.4046C465.273 42.3075 463.605 47.5113 463.605 54.0161V88.3056H565.938V117.577H463.605V156.885C463.605 161.531 465.551 165.712 469.444 169.43C472.596 172.031 476.026 173.797 479.733 174.726H565.381V203.998Z" fill="#00437F"/>
<path d="M647.675 203.998V3H748.896C761.873 3 772.718 7.92505 781.431 17.7751C787.734 24.6516 790.886 33.6654 790.886 44.8165V79.6635C790.886 89.5136 786.993 98.5274 779.206 106.705C771.606 114.696 762.8 118.692 752.789 118.692L718.864 118.413L792.554 203.998H753.901L681.601 120.086C679.191 117.112 677.986 113.767 677.986 110.05C677.986 103.917 679.933 98.992 683.826 95.275C687.904 91.3721 693.188 89.4207 699.676 89.4207H743.612C748.618 89.4207 752.974 87.841 756.682 84.6815C760.39 81.522 762.244 77.7121 762.244 73.2516V50.9495C762.244 38.4975 756.219 32.2715 744.169 32.2715H676.596V203.998H647.675Z" fill="#00437F"/>
<path d="M871.257 203.998V3H973.034C985.269 3 995.373 7.46042 1003.34 16.3813C1011.32 25.1163 1015.3 36.1744 1015.3 49.5557V152.703C1015.3 167.199 1010.76 179.373 1001.68 189.223C992.592 199.073 981.284 203.998 967.75 203.998H871.257ZM900.177 32.2715V174.726H966.082C979.615 174.726 986.382 166.735 986.382 150.751V55.1312C986.382 46.582 984.806 40.6348 981.654 37.2895C978.874 33.9442 973.497 32.2715 965.526 32.2715H900.177Z" fill="#00437F"/>
<path d="M1242.92 3V154.654C1242.92 168.779 1238.56 180.581 1229.85 190.059C1221.14 199.352 1210.1 203.998 1196.76 203.998H1146.7C1133.73 203.998 1122.7 199.352 1113.61 190.059C1104.9 180.395 1100.54 168.593 1100.54 154.654V3H1129.46V151.03C1129.46 160.137 1131.04 166.363 1134.19 169.708C1137.34 173.054 1143 174.726 1151.15 174.726H1192.31C1200.28 174.726 1205.84 173.147 1208.99 169.987C1212.33 166.642 1214 160.88 1214 152.703V3H1242.92Z" fill="#00437F"/>
<path d="M1322.35 203.998V174.726H1402.44C1407.81 174.726 1412.36 173.147 1416.06 169.987C1419.77 166.828 1421.62 162.925 1421.62 158.278V132.91C1421.62 121.573 1414.58 115.904 1400.49 115.904H1370.46C1356.93 115.904 1345.52 112.094 1336.25 104.475C1326.99 96.6689 1322.35 86.9117 1322.35 75.2031V50.1132C1322.35 32.4574 1328.47 19.262 1340.7 10.527C1347.93 5.50899 1357.94 3 1370.74 3H1451.94V32.2715H1369.35C1357.48 32.2715 1351.55 37.7541 1351.55 48.7193V68.7912C1351.55 82.5442 1357.85 89.4207 1370.46 89.4207H1405.5C1417.92 89.4207 1428.58 93.2306 1437.48 100.851C1446.37 108.47 1450.82 117.577 1450.82 128.171V159.672C1450.82 172.31 1446.56 182.904 1438.03 191.453C1429.69 199.816 1418.94 203.998 1405.77 203.998H1322.35Z" fill="#00437F"/>
<path d="M1525.86 32.2715V3H1642.09V32.2715H1598.43V203.998H1569.24V32.2715H1525.86Z" fill="#00437F"/>
<path d="M1711.26 203.998V3H1812.48C1825.46 3 1836.3 7.92505 1845.02 17.7751C1851.32 24.6516 1854.47 33.6654 1854.47 44.8165V79.6635C1854.47 89.5136 1850.58 98.5274 1842.79 106.705C1835.19 114.696 1826.39 118.692 1816.37 118.692L1782.45 118.413L1856.14 203.998H1817.49L1745.19 120.086C1742.78 117.112 1741.57 113.767 1741.57 110.05C1741.57 103.917 1743.52 98.992 1747.41 95.275C1751.49 91.3721 1756.77 89.4207 1763.26 89.4207H1807.2C1812.2 89.4207 1816.56 87.841 1820.27 84.6815C1823.98 81.522 1825.83 77.7121 1825.83 73.2516V50.9495C1825.83 38.4975 1819.8 32.2715 1807.75 32.2715H1740.18V203.998H1711.26Z" fill="#00437F"/>
<path d="M1907.03 3H1941.52L1992.96 86.3541L2045.52 3H2080L2007.42 117.856V203.998H1978.5L1978.22 117.856L1907.03 3Z" fill="#00437F"/>
<path d="M65.1945 311.8H86.4833V377.884C86.4833 385.304 84.7297 391.796 81.2225 397.361C77.7482 402.926 72.8808 407.265 66.6203 410.379C60.3599 413.46 53.067 415 44.7416 415C36.3834 415 29.0742 413.46 22.8138 410.379C16.5533 407.265 11.6859 402.926 8.21158 397.361C4.7372 391.796 3 385.304 3 377.884V311.8H24.2887V376.045C24.2887 379.921 25.1245 383.366 26.7962 386.38C28.5006 389.395 30.8933 391.763 33.9743 393.485C37.0554 395.208 40.6445 396.069 44.7416 396.069C48.8715 396.069 52.4606 395.208 55.5089 393.485C58.59 391.763 60.9663 389.395 62.6379 386.38C64.3423 383.366 65.1945 379.921 65.1945 376.045V311.8Z" fill="#00437F"/>
<path d="M183.543 341.065C183.149 337.057 181.461 333.944 178.479 331.724C175.496 329.505 171.448 328.395 166.335 328.395C162.86 328.395 159.927 328.892 157.534 329.886C155.141 330.846 153.306 332.188 152.027 333.91C150.782 335.633 150.159 337.587 150.159 339.774C150.094 341.595 150.47 343.185 151.29 344.544C152.142 345.902 153.306 347.078 154.781 348.071C156.256 349.032 157.96 349.877 159.894 350.605C161.828 351.301 163.893 351.897 166.089 352.394L175.135 354.58C179.527 355.574 183.559 356.899 187.23 358.555C190.901 360.212 194.08 362.249 196.768 364.667C199.456 367.085 201.537 369.934 203.012 373.213C204.52 376.492 205.29 380.252 205.323 384.492C205.29 390.719 203.717 396.119 200.603 400.69C197.522 405.228 193.064 408.756 187.23 411.273C181.428 413.758 174.431 415 166.236 415C158.108 415 151.028 413.741 144.997 411.224C138.999 408.706 134.311 404.98 130.935 400.044C127.592 395.075 125.839 388.931 125.675 381.61H146.275C146.504 385.022 147.471 387.871 149.176 390.156C150.913 392.409 153.224 394.115 156.108 395.274C159.025 396.4 162.319 396.964 165.99 396.964C169.596 396.964 172.726 396.434 175.381 395.374C178.069 394.314 180.15 392.84 181.625 390.951C183.1 389.063 183.838 386.894 183.838 384.442C183.838 382.157 183.166 380.236 181.822 378.679C180.511 377.122 178.577 375.797 176.02 374.704C173.496 373.611 170.399 372.617 166.728 371.722L155.764 368.94C147.275 366.853 140.572 363.59 135.655 359.152C130.739 354.713 128.297 348.734 128.33 341.214C128.297 335.053 129.919 329.67 133.197 325.066C136.507 320.462 141.047 316.868 146.816 314.284C152.585 311.7 159.14 310.408 166.482 310.408C173.955 310.408 180.478 311.7 186.05 314.284C191.655 316.868 196.014 320.462 199.128 325.066C202.242 329.67 203.848 335.004 203.946 341.065H183.543Z" fill="#00437F"/>
<path d="M265.852 311.8V413.559H244.564V311.8H265.852Z" fill="#00437F"/>
<path d="M392.509 311.8V413.559H374.121L330.315 349.512H329.577V413.559H308.289V311.8H326.972L370.434 375.797H371.319V311.8H392.509Z" fill="#00437F"/>
<path d="M452.375 413.559H429.562L464.322 311.8H491.757L526.467 413.559H503.655L478.433 335.053H477.646L452.375 413.559ZM450.949 373.561H504.835V390.355H450.949V373.561Z" fill="#00437F"/>
<path d="M625.543 344.693C624.854 342.274 623.887 340.138 622.642 338.283C621.396 336.395 619.872 334.805 618.069 333.513C616.299 332.188 614.267 331.178 611.973 330.482C609.711 329.786 607.204 329.439 604.451 329.439C599.305 329.439 594.781 330.73 590.881 333.314C587.013 335.898 583.998 339.658 581.834 344.593C579.671 349.496 578.589 355.491 578.589 362.58C578.589 369.669 579.655 375.697 581.785 380.666C583.916 385.635 586.931 389.428 590.832 392.045C594.732 394.628 599.337 395.92 604.647 395.92C609.465 395.92 613.579 395.059 616.988 393.336C620.429 391.581 623.052 389.113 624.854 385.933C626.69 382.753 627.608 378.993 627.608 374.654L631.934 375.3H605.975V359.102H648.11V371.921C648.11 380.865 646.241 388.55 642.505 394.976C638.768 401.369 633.622 406.305 627.067 409.783C620.511 413.228 613.005 414.95 604.549 414.95C595.109 414.95 586.816 412.847 579.671 408.64C572.526 404.4 566.954 398.388 562.955 390.604C558.989 382.786 557.006 373.511 557.006 362.779C557.006 354.531 558.186 347.177 560.546 340.718C562.938 334.225 566.282 328.726 570.575 324.221C574.869 319.716 579.868 316.288 585.571 313.936C591.274 311.584 597.453 310.408 604.106 310.408C609.81 310.408 615.119 311.253 620.036 312.942C624.953 314.599 629.312 316.951 633.114 319.998C636.949 323.046 640.079 326.673 642.505 330.88C644.93 335.053 646.487 339.658 647.175 344.693H625.543Z" fill="#00437F"/>
<path d="M689.022 413.559V311.8H756.87V329.538H710.311V353.785H753.38V371.524H710.311V395.821H757.067V413.559H689.022Z" fill="#00437F"/>
<path d="M798.717 311.8H824.971L852.701 380.169H853.881L881.61 311.8H907.864V413.559H887.215V347.326H886.379L860.321 413.062H846.26L820.202 347.078H819.366V413.559H798.717V311.8Z" fill="#00437F"/>
<path d="M1096.13 347.425H1074.6C1074.2 344.61 1073.4 342.109 1072.19 339.923C1070.98 337.703 1069.42 335.815 1067.52 334.258C1065.62 332.701 1063.42 331.509 1060.93 330.681C1058.47 329.853 1055.8 329.439 1052.92 329.439C1047.7 329.439 1043.16 330.747 1039.3 333.364C1035.43 335.948 1032.43 339.724 1030.3 344.693C1028.17 349.628 1027.1 355.624 1027.1 362.679C1027.1 369.934 1028.17 376.029 1030.3 380.964C1032.46 385.9 1035.48 389.626 1039.35 392.144C1043.21 394.661 1047.69 395.92 1052.77 395.92C1055.62 395.92 1058.26 395.539 1060.68 394.777C1063.14 394.015 1065.32 392.906 1067.22 391.448C1069.12 389.958 1070.7 388.152 1071.94 386.032C1073.22 383.912 1074.11 381.494 1074.6 378.778L1096.13 378.877C1095.58 383.548 1094.18 388.053 1091.95 392.392C1089.76 396.699 1086.79 400.558 1083.05 403.969C1079.35 407.348 1074.93 410.031 1069.78 412.019C1064.67 413.973 1058.88 414.95 1052.42 414.95C1043.44 414.95 1035.41 412.897 1028.33 408.789C1021.29 404.682 1015.71 398.736 1011.62 390.951C1007.55 383.167 1005.52 373.743 1005.52 362.679C1005.52 351.583 1007.59 342.142 1011.72 334.358C1015.84 326.573 1021.45 320.644 1028.53 316.57C1035.61 312.462 1043.57 310.408 1052.42 310.408C1058.26 310.408 1063.67 311.237 1068.65 312.893C1073.66 314.549 1078.11 316.967 1081.97 320.147C1085.84 323.294 1088.99 327.153 1091.41 331.724C1093.87 336.295 1095.44 341.529 1096.13 347.425Z" fill="#00437F"/>
<path d="M1228.85 362.679C1228.85 373.776 1226.77 383.217 1222.61 391.001C1218.48 398.785 1212.84 404.731 1205.69 408.839C1198.58 412.913 1190.58 414.95 1181.7 414.95C1172.75 414.95 1164.72 412.897 1157.61 408.789C1150.5 404.682 1144.87 398.736 1140.74 390.951C1136.61 383.167 1134.55 373.743 1134.55 362.679C1134.55 351.583 1136.61 342.142 1140.74 334.358C1144.87 326.573 1150.5 320.644 1157.61 316.57C1164.72 312.462 1172.75 310.408 1181.7 310.408C1190.58 310.408 1198.58 312.462 1205.69 316.57C1212.84 320.644 1218.48 326.573 1222.61 334.358C1226.77 342.142 1228.85 351.583 1228.85 362.679ZM1207.27 362.679C1207.27 355.491 1206.2 349.429 1204.07 344.494C1201.97 339.558 1199.01 335.815 1195.17 333.265C1191.34 330.714 1186.85 329.439 1181.7 329.439C1176.55 329.439 1172.06 330.714 1168.23 333.265C1164.39 335.815 1161.41 339.558 1159.28 344.494C1157.18 349.429 1156.13 355.491 1156.13 362.679C1156.13 369.867 1157.18 375.929 1159.28 380.865C1161.41 385.8 1164.39 389.544 1168.23 392.094C1172.06 394.645 1176.55 395.92 1181.7 395.92C1186.85 395.92 1191.34 394.645 1195.17 392.094C1199.01 389.544 1201.97 385.8 1204.07 380.865C1206.2 375.929 1207.27 369.867 1207.27 362.679Z" fill="#00437F"/>
<path d="M1353.76 311.8V413.559H1335.37L1291.57 349.512H1290.83V413.559H1269.54V311.8H1288.22L1331.69 375.797H1332.57V311.8H1353.76Z" fill="#00437F"/>
<path d="M1396.27 413.559V311.8H1464.12V329.538H1417.56V353.785H1460.63V371.524H1417.56V395.821H1464.32V413.559H1396.27Z" fill="#00437F"/>
<path d="M1594.81 347.425H1573.27C1572.88 344.61 1572.08 342.109 1570.86 339.923C1569.65 337.703 1568.09 335.815 1566.19 334.258C1564.29 332.701 1562.1 331.509 1559.61 330.681C1557.15 329.853 1554.48 329.439 1551.59 329.439C1546.38 329.439 1541.84 330.747 1537.97 333.364C1534.1 335.948 1531.11 339.724 1528.98 344.693C1526.84 349.628 1525.78 355.624 1525.78 362.679C1525.78 369.934 1526.84 376.029 1528.98 380.964C1531.14 385.9 1534.15 389.626 1538.02 392.144C1541.89 394.661 1546.36 395.92 1551.44 395.92C1554.3 395.92 1556.93 395.539 1559.36 394.777C1561.82 394.015 1564 392.906 1565.9 391.448C1567.8 389.958 1569.37 388.152 1570.62 386.032C1571.9 383.912 1572.78 381.494 1573.27 378.778L1594.81 378.877C1594.25 383.548 1592.86 388.053 1590.63 392.392C1588.43 396.699 1585.47 400.558 1581.73 403.969C1578.03 407.348 1573.6 410.031 1568.46 412.019C1563.34 413.973 1557.56 414.95 1551.1 414.95C1542.12 414.95 1534.09 412.897 1527.01 408.789C1519.96 404.682 1514.39 398.736 1510.29 390.951C1506.23 383.167 1504.2 373.743 1504.2 362.679C1504.2 351.583 1506.26 342.142 1510.39 334.358C1514.52 326.573 1520.13 320.644 1527.21 316.57C1534.29 312.462 1542.25 310.408 1551.1 310.408C1556.93 310.408 1562.34 311.237 1567.32 312.893C1572.34 314.549 1576.78 316.967 1580.65 320.147C1584.52 323.294 1587.66 327.153 1590.09 331.724C1592.55 336.295 1594.12 341.529 1594.81 347.425Z" fill="#00437F"/>
<path d="M1631.16 329.538V311.8H1713.86V329.538H1683.03V413.559H1661.99V329.538H1631.16Z" fill="#00437F"/>
<path d="M1757.45 413.559H1734.64L1769.4 311.8H1796.83L1831.54 413.559H1808.73L1783.51 335.053H1782.72L1757.45 413.559ZM1756.02 373.561H1809.91V390.355H1756.02V373.561Z" fill="#00437F"/>
<path d="M1904.28 413.559H1868.58V311.8H1904.57C1914.7 311.8 1923.42 313.837 1930.73 317.911C1938.04 321.952 1943.66 327.766 1947.59 335.351C1951.56 342.937 1953.54 352.013 1953.54 362.58C1953.54 373.18 1951.56 382.289 1947.59 389.908C1943.66 397.527 1938 403.373 1930.63 407.448C1923.29 411.522 1914.5 413.559 1904.28 413.559ZM1889.87 395.125H1903.39C1909.68 395.125 1914.98 393.999 1919.27 391.746C1923.6 389.461 1926.84 385.933 1929.01 381.163C1931.2 376.36 1932.3 370.166 1932.3 362.58C1932.3 355.061 1931.2 348.916 1929.01 344.146C1926.84 339.376 1923.61 335.865 1919.32 333.612C1915.03 331.36 1909.73 330.234 1903.44 330.234H1889.87V395.125Z" fill="#00437F"/>
<path d="M2005.91 413.559H1983.09L2017.85 311.8H2045.29L2080 413.559H2057.19L2031.97 335.053H2031.18L2005.91 413.559ZM2004.48 373.561H2058.37V390.355H2004.48V373.561Z" fill="#00437F"/>
<path d="M3 203.998V3H89.4825C108.948 3 123.13 7.08872 132.029 15.2662C141.298 23.0719 145.932 35.0593 145.932 51.2283V79.9423C145.932 95.5538 141.298 107.82 132.029 116.741C122.759 125.662 109.69 130.122 92.8194 130.122H31.9202V203.998H3ZM31.9202 32.2715V101.129H92.5413C101.254 101.129 107.558 99.4566 111.451 96.1113C115.344 92.766 117.29 86.9117 117.29 78.5484V52.6222C117.29 39.0551 109.226 32.2715 93.0975 32.2715H31.9202Z" stroke="#00437F" stroke-width="6" mask="url(#path-1-outside-1_321_46)"/>
<path d="M352.391 203.998H274.807C257.01 203.998 243.662 199.352 234.763 190.059C226.05 180.581 221.694 167.199 221.694 149.915V53.1797C221.694 41.2853 224.382 30.9706 229.758 22.2356C235.134 13.5006 243.384 7.73919 254.507 4.95143C257.473 4.39388 260.995 3.92925 265.074 3.55755C269.152 3.18585 274.158 3 280.09 3H352.947V32.2715H268.411C263.405 32.2715 259.142 34.3159 255.619 38.4046C252.282 42.3075 250.614 47.5113 250.614 54.0161V88.3056H352.947V117.577H250.614V156.885C250.614 161.531 252.56 165.712 256.454 169.43C259.605 172.031 263.035 173.797 266.742 174.726H352.391V203.998Z" stroke="#00437F" stroke-width="6" mask="url(#path-1-outside-1_321_46)"/>
<path d="M565.381 203.998H487.798C470.001 203.998 456.653 199.352 447.754 190.059C439.041 180.581 434.684 167.199 434.684 149.915V53.1797C434.684 41.2853 437.373 30.9706 442.749 22.2356C448.125 13.5006 456.375 7.73919 467.498 4.95143C470.464 4.39388 473.986 3.92925 478.065 3.55755C482.143 3.18585 487.149 3 493.081 3H565.938V32.2715H481.402C476.396 32.2715 472.132 34.3159 468.61 38.4046C465.273 42.3075 463.605 47.5113 463.605 54.0161V88.3056H565.938V117.577H463.605V156.885C463.605 161.531 465.551 165.712 469.444 169.43C472.596 172.031 476.026 173.797 479.733 174.726H565.381V203.998Z" stroke="#00437F" stroke-width="6" mask="url(#path-1-outside-1_321_46)"/>
<path d="M647.675 203.998V3H748.896C761.873 3 772.718 7.92505 781.431 17.7751C787.734 24.6516 790.886 33.6654 790.886 44.8165V79.6635C790.886 89.5136 786.993 98.5274 779.206 106.705C771.606 114.696 762.8 118.692 752.789 118.692L718.864 118.413L792.554 203.998H753.901L681.601 120.086C679.191 117.112 677.986 113.767 677.986 110.05C677.986 103.917 679.933 98.992 683.826 95.275C687.904 91.3721 693.188 89.4207 699.676 89.4207H743.612C748.618 89.4207 752.974 87.841 756.682 84.6815C760.39 81.522 762.244 77.7121 762.244 73.2516V50.9495C762.244 38.4975 756.219 32.2715 744.169 32.2715H676.596V203.998H647.675Z" stroke="#00437F" stroke-width="6" mask="url(#path-1-outside-1_321_46)"/>
<path d="M871.257 203.998V3H973.034C985.269 3 995.373 7.46042 1003.34 16.3813C1011.32 25.1163 1015.3 36.1744 1015.3 49.5557V152.703C1015.3 167.199 1010.76 179.373 1001.68 189.223C992.592 199.073 981.284 203.998 967.75 203.998H871.257ZM900.177 32.2715V174.726H966.082C979.615 174.726 986.382 166.735 986.382 150.751V55.1312C986.382 46.582 984.806 40.6348 981.654 37.2895C978.874 33.9442 973.497 32.2715 965.526 32.2715H900.177Z" stroke="#00437F" stroke-width="6" mask="url(#path-1-outside-1_321_46)"/>
<path d="M1242.92 3V154.654C1242.92 168.779 1238.56 180.581 1229.85 190.059C1221.14 199.352 1210.1 203.998 1196.76 203.998H1146.7C1133.73 203.998 1122.7 199.352 1113.61 190.059C1104.9 180.395 1100.54 168.593 1100.54 154.654V3H1129.46V151.03C1129.46 160.137 1131.04 166.363 1134.19 169.708C1137.34 173.054 1143 174.726 1151.15 174.726H1192.31C1200.28 174.726 1205.84 173.147 1208.99 169.987C1212.33 166.642 1214 160.88 1214 152.703V3H1242.92Z" stroke="#00437F" stroke-width="6" mask="url(#path-1-outside-1_321_46)"/>
<path d="M1322.35 203.998V174.726H1402.44C1407.81 174.726 1412.36 173.147 1416.06 169.987C1419.77 166.828 1421.62 162.925 1421.62 158.278V132.91C1421.62 121.573 1414.58 115.904 1400.49 115.904H1370.46C1356.93 115.904 1345.52 112.094 1336.25 104.475C1326.99 96.6689 1322.35 86.9117 1322.35 75.2031V50.1132C1322.35 32.4574 1328.47 19.262 1340.7 10.527C1347.93 5.50899 1357.94 3 1370.74 3H1451.94V32.2715H1369.35C1357.48 32.2715 1351.55 37.7541 1351.55 48.7193V68.7912C1351.55 82.5442 1357.85 89.4207 1370.46 89.4207H1405.5C1417.92 89.4207 1428.58 93.2306 1437.48 100.851C1446.37 108.47 1450.82 117.577 1450.82 128.171V159.672C1450.82 172.31 1446.56 182.904 1438.03 191.453C1429.69 199.816 1418.94 203.998 1405.77 203.998H1322.35Z" stroke="#00437F" stroke-width="6" mask="url(#path-1-outside-1_321_46)"/>
<path d="M1525.86 32.2715V3H1642.09V32.2715H1598.43V203.998H1569.24V32.2715H1525.86Z" stroke="#00437F" stroke-width="6" mask="url(#path-1-outside-1_321_46)"/>
<path d="M1711.26 203.998V3H1812.48C1825.46 3 1836.3 7.92505 1845.02 17.7751C1851.32 24.6516 1854.47 33.6654 1854.47 44.8165V79.6635C1854.47 89.5136 1850.58 98.5274 1842.79 106.705C1835.19 114.696 1826.39 118.692 1816.37 118.692L1782.45 118.413L1856.14 203.998H1817.49L1745.19 120.086C1742.78 117.112 1741.57 113.767 1741.57 110.05C1741.57 103.917 1743.52 98.992 1747.41 95.275C1751.49 91.3721 1756.77 89.4207 1763.26 89.4207H1807.2C1812.2 89.4207 1816.56 87.841 1820.27 84.6815C1823.98 81.522 1825.83 77.7121 1825.83 73.2516V50.9495C1825.83 38.4975 1819.8 32.2715 1807.75 32.2715H1740.18V203.998H1711.26Z" stroke="#00437F" stroke-width="6" mask="url(#path-1-outside-1_321_46)"/>
<path d="M1907.03 3H1941.52L1992.96 86.3541L2045.52 3H2080L2007.42 117.856V203.998H1978.5L1978.22 117.856L1907.03 3Z" stroke="#00437F" stroke-width="6" mask="url(#path-1-outside-1_321_46)"/>
<path d="M65.1945 311.8H86.4833V377.884C86.4833 385.304 84.7297 391.796 81.2225 397.361C77.7482 402.926 72.8808 407.265 66.6203 410.379C60.3599 413.46 53.067 415 44.7416 415C36.3834 415 29.0742 413.46 22.8138 410.379C16.5533 407.265 11.6859 402.926 8.21158 397.361C4.7372 391.796 3 385.304 3 377.884V311.8H24.2887V376.045C24.2887 379.921 25.1245 383.366 26.7962 386.38C28.5006 389.395 30.8933 391.763 33.9743 393.485C37.0554 395.208 40.6445 396.069 44.7416 396.069C48.8715 396.069 52.4606 395.208 55.5089 393.485C58.59 391.763 60.9663 389.395 62.6379 386.38C64.3423 383.366 65.1945 379.921 65.1945 376.045V311.8Z" stroke="#00437F" stroke-width="6" mask="url(#path-1-outside-1_321_46)"/>
<path d="M183.543 341.065C183.149 337.057 181.461 333.944 178.479 331.724C175.496 329.505 171.448 328.395 166.335 328.395C162.86 328.395 159.927 328.892 157.534 329.886C155.141 330.846 153.306 332.188 152.027 333.91C150.782 335.633 150.159 337.587 150.159 339.774C150.094 341.595 150.47 343.185 151.29 344.544C152.142 345.902 153.306 347.078 154.781 348.071C156.256 349.032 157.96 349.877 159.894 350.605C161.828 351.301 163.893 351.897 166.089 352.394L175.135 354.58C179.527 355.574 183.559 356.899 187.23 358.555C190.901 360.212 194.08 362.249 196.768 364.667C199.456 367.085 201.537 369.934 203.012 373.213C204.52 376.492 205.29 380.252 205.323 384.492C205.29 390.719 203.717 396.119 200.603 400.69C197.522 405.228 193.064 408.756 187.23 411.273C181.428 413.758 174.431 415 166.236 415C158.108 415 151.028 413.741 144.997 411.224C138.999 408.706 134.311 404.98 130.935 400.044C127.592 395.075 125.839 388.931 125.675 381.61H146.275C146.504 385.022 147.471 387.871 149.176 390.156C150.913 392.409 153.224 394.115 156.108 395.274C159.025 396.4 162.319 396.964 165.99 396.964C169.596 396.964 172.726 396.434 175.381 395.374C178.069 394.314 180.15 392.84 181.625 390.951C183.1 389.063 183.838 386.894 183.838 384.442C183.838 382.157 183.166 380.236 181.822 378.679C180.511 377.122 178.577 375.797 176.02 374.704C173.496 373.611 170.399 372.617 166.728 371.722L155.764 368.94C147.275 366.853 140.572 363.59 135.655 359.152C130.739 354.713 128.297 348.734 128.33 341.214C128.297 335.053 129.919 329.67 133.197 325.066C136.507 320.462 141.047 316.868 146.816 314.284C152.585 311.7 159.14 310.408 166.482 310.408C173.955 310.408 180.478 311.7 186.05 314.284C191.655 316.868 196.014 320.462 199.128 325.066C202.242 329.67 203.848 335.004 203.946 341.065H183.543Z" stroke="#00437F" stroke-width="6" mask="url(#path-1-outside-1_321_46)"/>
<path d="M265.852 311.8V413.559H244.564V311.8H265.852Z" stroke="#00437F" stroke-width="6" mask="url(#path-1-outside-1_321_46)"/>
<path d="M392.509 311.8V413.559H374.121L330.315 349.512H329.577V413.559H308.289V311.8H326.972L370.434 375.797H371.319V311.8H392.509Z" stroke="#00437F" stroke-width="6" mask="url(#path-1-outside-1_321_46)"/>
<path d="M452.375 413.559H429.562L464.322 311.8H491.757L526.467 413.559H503.655L478.433 335.053H477.646L452.375 413.559ZM450.949 373.561H504.835V390.355H450.949V373.561Z" stroke="#00437F" stroke-width="6" mask="url(#path-1-outside-1_321_46)"/>
<path d="M625.543 344.693C624.854 342.274 623.887 340.138 622.642 338.283C621.396 336.395 619.872 334.805 618.069 333.513C616.299 332.188 614.267 331.178 611.973 330.482C609.711 329.786 607.204 329.439 604.451 329.439C599.305 329.439 594.781 330.73 590.881 333.314C587.013 335.898 583.998 339.658 581.834 344.593C579.671 349.496 578.589 355.491 578.589 362.58C578.589 369.669 579.655 375.697 581.785 380.666C583.916 385.635 586.931 389.428 590.832 392.045C594.732 394.628 599.337 395.92 604.647 395.92C609.465 395.92 613.579 395.059 616.988 393.336C620.429 391.581 623.052 389.113 624.854 385.933C626.69 382.753 627.608 378.993 627.608 374.654L631.934 375.3H605.975V359.102H648.11V371.921C648.11 380.865 646.241 388.55 642.505 394.976C638.768 401.369 633.622 406.305 627.067 409.783C620.511 413.228 613.005 414.95 604.549 414.95C595.109 414.95 586.816 412.847 579.671 408.64C572.526 404.4 566.954 398.388 562.955 390.604C558.989 382.786 557.006 373.511 557.006 362.779C557.006 354.531 558.186 347.177 560.546 340.718C562.938 334.225 566.282 328.726 570.575 324.221C574.869 319.716 579.868 316.288 585.571 313.936C591.274 311.584 597.453 310.408 604.106 310.408C609.81 310.408 615.119 311.253 620.036 312.942C624.953 314.599 629.312 316.951 633.114 319.998C636.949 323.046 640.079 326.673 642.505 330.88C644.93 335.053 646.487 339.658 647.175 344.693H625.543Z" stroke="#00437F" stroke-width="6" mask="url(#path-1-outside-1_321_46)"/>
<path d="M689.022 413.559V311.8H756.87V329.538H710.311V353.785H753.38V371.524H710.311V395.821H757.067V413.559H689.022Z" stroke="#00437F" stroke-width="6" mask="url(#path-1-outside-1_321_46)"/>
<path d="M798.717 311.8H824.971L852.701 380.169H853.881L881.61 311.8H907.864V413.559H887.215V347.326H886.379L860.321 413.062H846.26L820.202 347.078H819.366V413.559H798.717V311.8Z" stroke="#00437F" stroke-width="6" mask="url(#path-1-outside-1_321_46)"/>
<path d="M1096.13 347.425H1074.6C1074.2 344.61 1073.4 342.109 1072.19 339.923C1070.98 337.703 1069.42 335.815 1067.52 334.258C1065.62 332.701 1063.42 331.509 1060.93 330.681C1058.47 329.853 1055.8 329.439 1052.92 329.439C1047.7 329.439 1043.16 330.747 1039.3 333.364C1035.43 335.948 1032.43 339.724 1030.3 344.693C1028.17 349.628 1027.1 355.624 1027.1 362.679C1027.1 369.934 1028.17 376.029 1030.3 380.964C1032.46 385.9 1035.48 389.626 1039.35 392.144C1043.21 394.661 1047.69 395.92 1052.77 395.92C1055.62 395.92 1058.26 395.539 1060.68 394.777C1063.14 394.015 1065.32 392.906 1067.22 391.448C1069.12 389.958 1070.7 388.152 1071.94 386.032C1073.22 383.912 1074.11 381.494 1074.6 378.778L1096.13 378.877C1095.58 383.548 1094.18 388.053 1091.95 392.392C1089.76 396.699 1086.79 400.558 1083.05 403.969C1079.35 407.348 1074.93 410.031 1069.78 412.019C1064.67 413.973 1058.88 414.95 1052.42 414.95C1043.44 414.95 1035.41 412.897 1028.33 408.789C1021.29 404.682 1015.71 398.736 1011.62 390.951C1007.55 383.167 1005.52 373.743 1005.52 362.679C1005.52 351.583 1007.59 342.142 1011.72 334.358C1015.84 326.573 1021.45 320.644 1028.53 316.57C1035.61 312.462 1043.57 310.408 1052.42 310.408C1058.26 310.408 1063.67 311.237 1068.65 312.893C1073.66 314.549 1078.11 316.967 1081.97 320.147C1085.84 323.294 1088.99 327.153 1091.41 331.724C1093.87 336.295 1095.44 341.529 1096.13 347.425Z" stroke="#00437F" stroke-width="6" mask="url(#path-1-outside-1_321_46)"/>
<path d="M1228.85 362.679C1228.85 373.776 1226.77 383.217 1222.61 391.001C1218.48 398.785 1212.84 404.731 1205.69 408.839C1198.58 412.913 1190.58 414.95 1181.7 414.95C1172.75 414.95 1164.72 412.897 1157.61 408.789C1150.5 404.682 1144.87 398.736 1140.74 390.951C1136.61 383.167 1134.55 373.743 1134.55 362.679C1134.55 351.583 1136.61 342.142 1140.74 334.358C1144.87 326.573 1150.5 320.644 1157.61 316.57C1164.72 312.462 1172.75 310.408 1181.7 310.408C1190.58 310.408 1198.58 312.462 1205.69 316.57C1212.84 320.644 1218.48 326.573 1222.61 334.358C1226.77 342.142 1228.85 351.583 1228.85 362.679ZM1207.27 362.679C1207.27 355.491 1206.2 349.429 1204.07 344.494C1201.97 339.558 1199.01 335.815 1195.17 333.265C1191.34 330.714 1186.85 329.439 1181.7 329.439C1176.55 329.439 1172.06 330.714 1168.23 333.265C1164.39 335.815 1161.41 339.558 1159.28 344.494C1157.18 349.429 1156.13 355.491 1156.13 362.679C1156.13 369.867 1157.18 375.929 1159.28 380.865C1161.41 385.8 1164.39 389.544 1168.23 392.094C1172.06 394.645 1176.55 395.92 1181.7 395.92C1186.85 395.92 1191.34 394.645 1195.17 392.094C1199.01 389.544 1201.97 385.8 1204.07 380.865C1206.2 375.929 1207.27 369.867 1207.27 362.679Z" stroke="#00437F" stroke-width="6" mask="url(#path-1-outside-1_321_46)"/>
<path d="M1353.76 311.8V413.559H1335.37L1291.57 349.512H1290.83V413.559H1269.54V311.8H1288.22L1331.69 375.797H1332.57V311.8H1353.76Z" stroke="#00437F" stroke-width="6" mask="url(#path-1-outside-1_321_46)"/>
<path d="M1396.27 413.559V311.8H1464.12V329.538H1417.56V353.785H1460.63V371.524H1417.56V395.821H1464.32V413.559H1396.27Z" stroke="#00437F" stroke-width="6" mask="url(#path-1-outside-1_321_46)"/>
<path d="M1594.81 347.425H1573.27C1572.88 344.61 1572.08 342.109 1570.86 339.923C1569.65 337.703 1568.09 335.815 1566.19 334.258C1564.29 332.701 1562.1 331.509 1559.61 330.681C1557.15 329.853 1554.48 329.439 1551.59 329.439C1546.38 329.439 1541.84 330.747 1537.97 333.364C1534.1 335.948 1531.11 339.724 1528.98 344.693C1526.84 349.628 1525.78 355.624 1525.78 362.679C1525.78 369.934 1526.84 376.029 1528.98 380.964C1531.14 385.9 1534.15 389.626 1538.02 392.144C1541.89 394.661 1546.36 395.92 1551.44 395.92C1554.3 395.92 1556.93 395.539 1559.36 394.777C1561.82 394.015 1564 392.906 1565.9 391.448C1567.8 389.958 1569.37 388.152 1570.62 386.032C1571.9 383.912 1572.78 381.494 1573.27 378.778L1594.81 378.877C1594.25 383.548 1592.86 388.053 1590.63 392.392C1588.43 396.699 1585.47 400.558 1581.73 403.969C1578.03 407.348 1573.6 410.031 1568.46 412.019C1563.34 413.973 1557.56 414.95 1551.1 414.95C1542.12 414.95 1534.09 412.897 1527.01 408.789C1519.96 404.682 1514.39 398.736 1510.29 390.951C1506.23 383.167 1504.2 373.743 1504.2 362.679C1504.2 351.583 1506.26 342.142 1510.39 334.358C1514.52 326.573 1520.13 320.644 1527.21 316.57C1534.29 312.462 1542.25 310.408 1551.1 310.408C1556.93 310.408 1562.34 311.237 1567.32 312.893C1572.34 314.549 1576.78 316.967 1580.65 320.147C1584.52 323.294 1587.66 327.153 1590.09 331.724C1592.55 336.295 1594.12 341.529 1594.81 347.425Z" stroke="#00437F" stroke-width="6" mask="url(#path-1-outside-1_321_46)"/>
<path d="M1631.16 329.538V311.8H1713.86V329.538H1683.03V413.559H1661.99V329.538H1631.16Z" stroke="#00437F" stroke-width="6" mask="url(#path-1-outside-1_321_46)"/>
<path d="M1757.45 413.559H1734.64L1769.4 311.8H1796.83L1831.54 413.559H1808.73L1783.51 335.053H1782.72L1757.45 413.559ZM1756.02 373.561H1809.91V390.355H1756.02V373.561Z" stroke="#00437F" stroke-width="6" mask="url(#path-1-outside-1_321_46)"/>
<path d="M1904.28 413.559H1868.58V311.8H1904.57C1914.7 311.8 1923.42 313.837 1930.73 317.911C1938.04 321.952 1943.66 327.766 1947.59 335.351C1951.56 342.937 1953.54 352.013 1953.54 362.58C1953.54 373.18 1951.56 382.289 1947.59 389.908C1943.66 397.527 1938 403.373 1930.63 407.448C1923.29 411.522 1914.5 413.559 1904.28 413.559ZM1889.87 395.125H1903.39C1909.68 395.125 1914.98 393.999 1919.27 391.746C1923.6 389.461 1926.84 385.933 1929.01 381.163C1931.2 376.36 1932.3 370.166 1932.3 362.58C1932.3 355.061 1931.2 348.916 1929.01 344.146C1926.84 339.376 1923.61 335.865 1919.32 333.612C1915.03 331.36 1909.73 330.234 1903.44 330.234H1889.87V395.125Z" stroke="#00437F" stroke-width="6" mask="url(#path-1-outside-1_321_46)"/>
<path d="M2005.91 413.559H1983.09L2017.85 311.8H2045.29L2080 413.559H2057.19L2031.97 335.053H2031.18L2005.91 413.559ZM2004.48 373.561H2058.37V390.355H2004.48V373.561Z" stroke="#00437F" stroke-width="6" mask="url(#path-1-outside-1_321_46)"/>
</svg>
