<svg width="88" height="48" viewBox="0 0 88 48" fill="none" xmlns="http://www.w3.org/2000/svg">
<g clip-path="url(#clip0_196_2800)">
<path d="M19.2645 39.3069C19.2645 39.4464 19.3678 39.5584 19.496 39.5584C19.6127 39.5584 19.6964 39.4886 19.7414 39.3698L20.212 38.2295H22.6878L23.1584 39.356C23.2034 39.4675 23.2876 39.5584 23.41 39.5584C23.5454 39.5584 23.6549 39.4395 23.6549 39.2931C23.6549 39.2509 23.642 39.2017 23.6229 39.1526L21.7914 34.8166C21.7335 34.6629 21.6307 34.572 21.4757 34.572H21.4499C21.2887 34.572 21.1921 34.6629 21.128 34.8166L19.2965 39.16C19.2707 39.216 19.2645 39.2651 19.2645 39.3069ZM20.412 37.7265L21.4499 35.2219L22.4884 37.7265H20.412ZM25.8858 40.6564C26.4143 40.6564 26.8591 40.4958 27.1557 40.174C27.4264 39.8802 27.5814 39.4538 27.5814 38.8942V36.1455C27.5814 35.9986 27.4719 35.8729 27.3298 35.8729C27.1877 35.8729 27.0849 35.9986 27.0849 36.1455V36.5582C26.8137 36.1667 26.4076 35.8306 25.7825 35.8306C24.9894 35.8306 24.216 36.481 24.216 37.5373V37.551C24.216 38.5936 24.9832 39.244 25.7825 39.244C26.3947 39.244 26.8008 38.9011 27.0916 38.4815V38.9085C27.0916 39.7544 26.6143 40.1951 25.8796 40.1951C25.4472 40.1951 25.0478 40.0551 24.6996 39.803C24.6675 39.7819 24.635 39.7687 24.5901 39.7687C24.4738 39.7687 24.3643 39.887 24.3643 40.0065C24.3643 40.1042 24.4159 40.1882 24.4929 40.23C24.9124 40.5095 25.3764 40.6564 25.8858 40.6564ZM25.8796 38.7679C25.2601 38.7679 24.7254 38.2644 24.7254 37.5373V37.523C24.7254 36.7817 25.2472 36.3067 25.8796 36.3067C26.5109 36.3067 27.104 36.7891 27.104 37.5304V37.5436C27.104 38.2718 26.5109 38.7679 25.8796 38.7679ZM30.0701 34.8938L30.4503 35.2573C30.5604 35.3693 30.6435 35.3899 30.7665 35.3899C30.8373 35.3899 30.8884 35.3482 30.8884 35.2922C30.8884 35.2573 30.8693 35.2219 30.844 35.1733L30.3924 34.572C30.3217 34.4811 30.2571 34.4182 30.1346 34.4182H30.0184C29.896 34.4182 29.8314 34.4811 29.7606 34.572L29.3091 35.1733C29.2832 35.2219 29.2641 35.2573 29.2641 35.2922C29.2641 35.3482 29.3091 35.3899 29.3803 35.3899C29.5023 35.3899 29.5798 35.3693 29.6898 35.2573L30.0701 34.8938ZM28.9867 37.5162C29.0512 36.8097 29.4899 36.285 30.0701 36.285C30.7339 36.285 31.0822 36.8588 31.1338 37.5162H28.9867ZM31.4045 39.0622C31.4562 39.0131 31.482 38.9502 31.482 38.8868C31.482 38.7611 31.3849 38.6559 31.263 38.6559C31.2046 38.6559 31.1597 38.6839 31.1209 38.7193C30.8755 38.964 30.5733 39.1389 30.16 39.1389C29.5669 39.1389 29.0574 38.6982 28.9867 37.9151H31.3978C31.5208 37.9151 31.6303 37.8099 31.6303 37.6631C31.6303 36.7051 31.0692 35.8306 30.083 35.8306C29.1608 35.8306 28.484 36.6697 28.484 37.7122V37.7265C28.484 38.8456 29.2321 39.6075 30.1476 39.6075C30.7148 39.6075 31.0884 39.3909 31.4045 39.0622ZM32.5065 39.2857C32.5065 39.4395 32.6166 39.5584 32.7587 39.5584C32.9002 39.5584 33.0036 39.4395 33.0036 39.2857V37.4533C33.0036 36.7748 33.4293 36.3199 34.0027 36.3199C34.5896 36.3199 34.9244 36.74 34.9244 37.4115V39.2857C34.9244 39.4395 35.0345 39.5584 35.176 39.5584C35.3114 39.5584 35.4214 39.4395 35.4214 39.2857V37.2784C35.4214 36.4182 34.9508 35.8306 34.1448 35.8306C33.5708 35.8306 33.2226 36.1455 33.0036 36.5376V36.1455C33.0036 35.9918 32.894 35.8729 32.7519 35.8729C32.6166 35.8729 32.5065 35.9986 32.5065 36.1455V39.2857ZM37.9809 39.6075C38.5414 39.6075 38.9222 39.3698 39.2379 39.0268C39.2766 38.9851 39.3024 38.9222 39.3024 38.8588C39.3024 38.733 39.1996 38.6147 39.0767 38.6147C39.0121 38.6147 38.9671 38.6496 38.9351 38.6839C38.6897 38.9359 38.387 39.1251 38.0062 39.1251C37.3103 39.1251 36.7817 38.5021 36.7817 37.7191V37.7048C36.7817 36.9291 37.2974 36.3067 37.9742 36.3067C38.374 36.3067 38.6448 36.5022 38.8834 36.74C38.9222 36.7748 38.9801 36.8028 39.0446 36.8028C39.1738 36.8028 39.2833 36.6908 39.2833 36.5439C39.2833 36.4599 39.2441 36.3902 39.2058 36.3553C38.9093 36.0615 38.5352 35.8306 37.9809 35.8306C37.0075 35.8306 36.2718 36.6982 36.2718 37.7191V37.7333C36.2718 38.7473 37.0075 39.6075 37.9809 39.6075ZM40.1601 34.8658C40.1601 35.0333 40.2887 35.1521 40.4499 35.1521C40.6178 35.1521 40.7465 35.0333 40.7465 34.8658V34.7749C40.7465 34.5995 40.6178 34.488 40.4499 34.488C40.2887 34.488 40.1601 34.5995 40.1601 34.7749V34.8658ZM40.205 39.2857C40.205 39.4395 40.3145 39.5584 40.4566 39.5584C40.5987 39.5584 40.7015 39.4395 40.7015 39.2857V36.1455C40.7015 35.9918 40.592 35.8729 40.4499 35.8729C40.3145 35.8729 40.205 35.9986 40.205 36.1455V39.2857ZM42.8487 39.6007C43.4356 39.6007 43.822 39.3069 44.054 38.9777V39.3069C44.054 39.4464 44.1506 39.5584 44.2927 39.5584C44.428 39.5584 44.5314 39.4464 44.5314 39.2931V37.3133C44.5314 36.852 44.4151 36.5022 44.1894 36.2575C43.9445 35.9918 43.5833 35.8586 43.1127 35.8586C42.6875 35.8586 42.3522 35.95 42.0231 36.1033C41.9585 36.1313 41.8877 36.2153 41.8877 36.3273C41.8877 36.453 41.9905 36.5582 42.1073 36.5582C42.1326 36.5582 42.1651 36.5508 42.1977 36.5376C42.4421 36.4182 42.7262 36.3342 43.0615 36.3342C43.6867 36.3342 44.054 36.6697 44.054 37.3201V37.4464C43.7574 37.355 43.4542 37.2927 43.029 37.2927C42.1843 37.2927 41.6041 37.6979 41.6041 38.4604V38.4747C41.6041 39.216 42.2297 39.6007 42.8487 39.6007ZM42.9453 39.1737C42.4943 39.1737 42.1073 38.9085 42.1073 38.4535V38.4393C42.1073 37.9848 42.455 37.6911 43.0806 37.6911C43.4867 37.6911 43.8153 37.7682 44.0607 37.8448V38.1946C44.0607 38.7679 43.5575 39.1737 42.9453 39.1737ZM47.6064 39.244C47.6064 39.3972 47.7227 39.524 47.858 39.524H49.612C50.5978 39.524 51.2493 39.0268 51.2493 38.1878V38.1735C51.2493 37.5024 50.8173 37.1664 50.2821 36.992C50.637 36.824 50.9976 36.4953 50.9976 35.8586V35.8443C50.9976 35.5299 50.8943 35.2716 50.7078 35.0613C50.45 34.7886 50.0439 34.6275 49.5283 34.6275H47.858C47.7227 34.6275 47.6064 34.7537 47.6064 34.9075V39.244ZM48.1091 36.8097V35.1247H49.4823C50.1276 35.1247 50.482 35.4385 50.482 35.922V35.9358C50.482 36.5096 50.0563 36.8097 49.4441 36.8097H48.1091ZM48.1091 39.0268V37.2995H49.534C50.3208 37.2995 50.7331 37.6076 50.7331 38.1386V38.1529C50.7331 38.6982 50.3079 39.0268 49.6244 39.0268H48.1091ZM52.1777 39.2857C52.1777 39.4395 52.2872 39.5584 52.4287 39.5584C52.5708 39.5584 52.6741 39.4326 52.6741 39.2857V38.0551C52.6741 37.0126 53.2027 36.4879 53.8474 36.4044C53.9766 36.3833 54.0665 36.2787 54.0665 36.1313C54.0665 35.9775 53.9699 35.8586 53.8216 35.8586C53.4026 35.8586 52.919 36.2221 52.6741 36.824V36.1455C52.6741 35.9918 52.5646 35.8729 52.4225 35.8729C52.2872 35.8729 52.1777 35.9986 52.1777 36.1455V39.2857ZM55.6206 39.6007C56.2075 39.6007 56.5939 39.3069 56.8259 38.9777V39.3069C56.8259 39.4464 56.923 39.5584 57.0646 39.5584C57.2004 39.5584 57.3033 39.4464 57.3033 39.2931V37.3133C57.3033 36.852 57.1875 36.5022 56.9618 36.2575C56.7163 35.9918 56.3557 35.8586 55.8846 35.8586C55.4594 35.8586 55.1241 35.95 54.795 36.1033C54.7304 36.1313 54.6596 36.2153 54.6596 36.3273C54.6596 36.453 54.7629 36.5582 54.8787 36.5582C54.905 36.5582 54.937 36.5508 54.9691 36.5376C55.2145 36.4182 55.4981 36.3342 55.8334 36.3342C56.4585 36.3342 56.8259 36.6697 56.8259 37.3201V37.4464C56.5293 37.355 56.2266 37.2927 55.8009 37.2927C54.9562 37.2927 54.376 37.6979 54.376 38.4604V38.4747C54.376 39.216 55.0016 39.6007 55.6206 39.6007ZM55.7172 39.1737C55.2656 39.1737 54.8787 38.9085 54.8787 38.4535V38.4393C54.8787 37.9848 55.2274 37.6911 55.8525 37.6911C56.2586 37.6911 56.5872 37.7682 56.8331 37.8448V38.1946C56.8331 38.7679 56.3294 39.1737 55.7172 39.1737ZM59.4628 39.5933C60.1267 39.5933 60.649 39.1949 60.649 38.5095V38.4953C60.649 37.8448 60.0947 37.6282 59.5791 37.4607C59.1342 37.3133 58.7214 37.1806 58.7214 36.8377V36.824C58.7214 36.5233 58.973 36.2993 59.3662 36.2993C59.6498 36.2993 59.9531 36.4044 60.2367 36.5788C60.2626 36.5931 60.3008 36.6068 60.3463 36.6068C60.4687 36.6068 60.5653 36.5022 60.5653 36.3759C60.5653 36.2713 60.5075 36.1947 60.4434 36.1524C60.121 35.9638 59.734 35.8443 59.3791 35.8443C58.7214 35.8443 58.2446 36.2575 58.2446 36.88V36.8937C58.2446 37.5579 58.8248 37.7539 59.3471 37.9151C59.7852 38.0477 60.1789 38.1877 60.1789 38.5513V38.565C60.1789 38.9148 59.888 39.1389 59.4886 39.1389C59.1275 39.1389 58.7731 39.0057 58.4316 38.7542C58.3996 38.7262 58.3536 38.7124 58.3086 38.7124C58.1862 38.7124 58.0896 38.8171 58.0896 38.9428C58.0896 39.0342 58.135 39.1034 58.18 39.1389C58.5411 39.4184 59.0247 39.5933 59.4628 39.5933ZM61.5712 34.8658C61.5712 35.0333 61.7004 35.1521 61.8611 35.1521C62.029 35.1521 62.1576 35.0333 62.1576 34.8658V34.7749C62.1576 34.5995 62.029 34.488 61.8611 34.488C61.7004 34.488 61.5712 34.5995 61.5712 34.7749V34.8658ZM61.6167 39.2857C61.6167 39.4395 61.7262 39.5584 61.8678 39.5584C62.0099 39.5584 62.1132 39.4395 62.1132 39.2857V36.1455C62.1132 35.9918 62.0031 35.8729 61.8611 35.8729C61.7262 35.8729 61.6167 35.9986 61.6167 36.1455V39.2857ZM63.3123 39.2857C63.3123 39.4395 63.4218 39.5584 63.5634 39.5584C63.7055 39.5584 63.8083 39.4395 63.8083 39.2857V34.656C63.8083 34.5091 63.6987 34.3828 63.5572 34.3828C63.4218 34.3828 63.3123 34.5091 63.3123 34.656V39.2857ZM65.259 37.5162C65.3236 36.8097 65.7622 36.285 66.3424 36.285C67.0063 36.285 67.3545 36.8588 67.4062 37.5162H65.259ZM67.6769 39.0622C67.7286 39.0131 67.7544 38.9502 67.7544 38.8868C67.7544 38.7611 67.6573 38.6559 67.5353 38.6559C67.477 38.6559 67.432 38.6839 67.3927 38.7193C67.1484 38.964 66.8451 39.1389 66.4323 39.1389C65.8392 39.1389 65.3298 38.6982 65.259 37.9151H67.6702C67.7931 37.9151 67.9021 37.8099 67.9021 37.6631C67.9021 36.7051 67.3416 35.8306 66.3553 35.8306C65.4331 35.8306 64.7563 36.6697 64.7563 37.7122V37.7265C64.7563 38.8456 65.5039 39.6075 66.4194 39.6075C66.9872 39.6075 67.3607 39.3909 67.6769 39.0622ZM68.7794 34.8658C68.7794 35.0333 68.9086 35.1521 69.0698 35.1521C69.2371 35.1521 69.3658 35.0333 69.3658 34.8658V34.7749C69.3658 34.5995 69.2371 34.488 69.0698 34.488C68.9086 34.488 68.7794 34.5995 68.7794 34.7749V34.8658ZM68.8243 39.2857C68.8243 39.4395 68.9344 39.5584 69.076 39.5584C69.218 39.5584 69.3208 39.4395 69.3208 39.2857V36.1455C69.3208 35.9918 69.2113 35.8729 69.0698 35.8729C68.9344 35.8729 68.8243 35.9986 68.8243 36.1455V39.2857ZM70.475 39.2857C70.475 39.4395 70.5845 39.5584 70.7266 39.5584C70.8682 39.5584 70.9715 39.4326 70.9715 39.2857V38.0551C70.9715 37.0126 71.5005 36.4879 72.1448 36.4044C72.2734 36.3833 72.3639 36.2787 72.3639 36.1313C72.3639 35.9775 72.2672 35.8586 72.119 35.8586C71.7 35.8586 71.2164 36.2221 70.9715 36.824V36.1455C70.9715 35.9918 70.862 35.8729 70.7199 35.8729C70.5845 35.8729 70.475 35.9986 70.475 36.1455V39.2857ZM73.9179 39.6007C74.5048 39.6007 74.8913 39.3069 75.1238 38.9777V39.3069C75.1238 39.4464 75.2204 39.5584 75.3624 39.5584C75.4973 39.5584 75.6006 39.4464 75.6006 39.2931V37.3133C75.6006 36.852 75.4844 36.5022 75.2591 36.2575C75.0142 35.9918 74.6526 35.8586 74.1819 35.8586C73.7562 35.8586 73.4214 35.95 73.0923 36.1033C73.0283 36.1313 72.957 36.2153 72.957 36.3273C72.957 36.453 73.0603 36.5582 73.176 36.5582C73.2019 36.5582 73.2344 36.5508 73.2669 36.5376C73.5118 36.4182 73.7955 36.3342 74.1308 36.3342C74.7559 36.3342 75.1238 36.6697 75.1238 37.3201V37.4464C74.8267 37.355 74.5239 37.2927 74.0987 37.2927C73.254 37.2927 72.6733 37.6979 72.6733 38.4604V38.4747C72.6733 39.216 73.299 39.6007 73.9179 39.6007ZM74.0145 39.1737C73.5635 39.1737 73.176 38.9085 73.176 38.4535V38.4393C73.176 37.9848 73.5247 37.6911 74.1499 37.6911C74.556 37.6911 74.8851 37.7682 75.13 37.8448V38.1946C75.13 38.7679 74.6267 39.1737 74.0145 39.1737ZM81.7641 34.656C81.7641 34.5017 81.6546 34.3828 81.5125 34.3828C81.371 34.3828 81.2677 34.5017 81.2677 34.656V36.6005C81.0098 36.1947 80.61 35.8306 79.991 35.8306C79.1918 35.8306 78.3987 36.5302 78.3987 37.7122V37.7265C78.3987 38.9148 79.1918 39.6007 79.991 39.6007C80.6038 39.6007 80.9969 39.2297 81.2677 38.7959V39.2857C81.2677 39.4395 81.3777 39.5584 81.5193 39.5584C81.6546 39.5584 81.7641 39.4395 81.7641 39.2857V34.656ZM80.082 36.313C80.7004 36.313 81.2868 36.8726 81.2868 37.7048V37.7191C81.2868 38.5513 80.7004 39.1177 80.082 39.1177C79.4558 39.1177 78.9081 38.5724 78.9081 37.7191V37.7048C78.9081 36.8308 79.4367 36.313 80.082 36.313ZM83.1699 37.5162C83.234 36.8097 83.6726 36.285 84.2528 36.285C84.9172 36.285 85.2649 36.8588 85.3166 37.5162H83.1699ZM85.5873 39.0622C85.6389 39.0131 85.6648 38.9502 85.6648 38.8868C85.6648 38.7611 85.5682 38.6559 85.4457 38.6559C85.3873 38.6559 85.3424 38.6839 85.3036 38.7193C85.0588 38.964 84.7555 39.1389 84.3432 39.1389C83.7501 39.1389 83.2407 38.6982 83.1699 37.9151H85.5811C85.7035 37.9151 85.8131 37.8099 85.8131 37.6631C85.8131 36.7051 85.2525 35.8306 84.2657 35.8306C83.3435 35.8306 82.6667 36.6697 82.6667 37.7122V37.7265C82.6667 38.8456 83.4148 39.6075 84.3298 39.6075C84.8976 39.6075 85.2711 39.3909 85.5873 39.0622ZM0 47.6369C0 47.7907 0.115728 47.9165 0.251088 47.9165H1.56646C2.98464 47.9165 3.9647 46.8459 3.9647 45.469V45.4547C3.9647 44.0767 2.98464 43.0204 1.56646 43.0204H0.251088C0.115728 43.0204 0 43.1467 0 43.3004V47.6369ZM0.508892 47.406V43.5308H1.56646C2.70772 43.5308 3.43618 44.3847 3.43618 45.469V45.4827C3.43618 46.5664 2.70772 47.406 1.56646 47.406H0.508892ZM5.25424 45.9091C5.31882 45.2027 5.75693 44.6785 6.33764 44.6785C7.00152 44.6785 7.34974 45.2523 7.4014 45.9091H5.25424ZM7.67212 47.4546C7.72379 47.406 7.7491 47.3432 7.7491 47.2798C7.7491 47.154 7.65301 47.0488 7.53004 47.0488C7.47218 47.0488 7.42723 47.0769 7.38848 47.1123C7.14308 47.3569 6.84033 47.5318 6.42805 47.5318C5.83443 47.5318 5.32502 47.0906 5.25424 46.308H7.66592C7.78785 46.308 7.89789 46.2029 7.89789 46.056C7.89789 45.098 7.33682 44.2235 6.35004 44.2235C5.42835 44.2235 4.75103 45.0632 4.75103 46.1051V46.1194C4.75103 47.238 5.49913 48 6.41513 48C6.9824 48 7.35594 47.7833 7.67212 47.4546ZM9.87715 47.9862C10.541 47.9862 11.0634 47.5878 11.0634 46.902V46.8882C11.0634 46.2378 10.509 46.0211 9.99287 45.8531C9.54856 45.7062 9.13577 45.5731 9.13577 45.2307V45.2164C9.13577 44.9157 9.38685 44.6922 9.78002 44.6922C10.0637 44.6922 10.3669 44.7969 10.6506 44.9717C10.6764 44.9855 10.7151 44.9998 10.7601 44.9998C10.8825 44.9998 10.9797 44.8951 10.9797 44.7688C10.9797 44.6642 10.9213 44.5876 10.8567 44.5453C10.5348 44.3567 10.1479 44.2373 9.79293 44.2373C9.13577 44.2373 8.65839 44.6505 8.65839 45.2729V45.2867C8.65839 45.9509 9.23858 46.1469 9.7609 46.308C10.199 46.4401 10.5927 46.5807 10.5927 46.9442V46.9585C10.5927 47.3078 10.3023 47.5318 9.90246 47.5318C9.54185 47.5318 9.18691 47.3986 8.84541 47.1471C8.81286 47.1191 8.76792 47.1049 8.72297 47.1049C8.60053 47.1049 8.50391 47.21 8.50391 47.3358C8.50391 47.4266 8.54886 47.4969 8.59381 47.5318C8.95494 47.8113 9.43852 47.9862 9.87715 47.9862ZM12.2816 45.9091C12.3462 45.2027 12.7848 44.6785 13.365 44.6785C14.0289 44.6785 14.3771 45.2523 14.4288 45.9091H12.2816ZM14.6995 47.4546C14.7511 47.406 14.777 47.3432 14.777 47.2798C14.777 47.154 14.6804 47.0488 14.5579 47.0488C14.4995 47.0488 14.4546 47.0769 14.4158 47.1123C14.1709 47.3569 13.8682 47.5318 13.4554 47.5318C12.8623 47.5318 12.3524 47.0906 12.2816 46.308H14.6933C14.8157 46.308 14.9252 46.2029 14.9252 46.056C14.9252 45.098 14.3642 44.2235 13.3779 44.2235C12.4557 44.2235 11.7789 45.0632 11.7789 46.1051V46.1194C11.7789 47.238 12.5265 48 13.4425 48C14.0098 48 14.3838 47.7833 14.6995 47.4546ZM15.802 47.6787C15.802 47.8325 15.9115 47.9513 16.0536 47.9513C16.1952 47.9513 16.2985 47.8325 16.2985 47.6787V45.8462C16.2985 45.1678 16.7242 44.7134 17.2977 44.7134C17.8846 44.7134 18.2193 45.1329 18.2193 45.804V47.6787C18.2193 47.8325 18.3294 47.9513 18.471 47.9513C18.6068 47.9513 18.7164 47.8325 18.7164 47.6787V45.6713C18.7164 44.8111 18.2452 44.2235 17.4397 44.2235C16.8658 44.2235 16.5175 44.5385 16.2985 44.93V44.5385C16.2985 44.3847 16.1889 44.2658 16.0469 44.2658C15.9115 44.2658 15.802 44.3916 15.802 44.5385V47.6787ZM21.282 47.741L22.5395 44.6642C22.5524 44.6293 22.5653 44.5802 22.5653 44.5311C22.5653 44.3847 22.4558 44.2658 22.3204 44.2658C22.1913 44.2658 22.1205 44.3567 22.0885 44.4613L20.9922 47.3009L19.9155 44.4756C19.8767 44.3567 19.806 44.2658 19.6639 44.2658C19.5218 44.2658 19.4123 44.3916 19.4123 44.5311C19.4123 44.5802 19.4314 44.6294 19.4448 44.6785L20.6956 47.741C20.754 47.8811 20.8439 47.9719 20.9792 47.9719H21.0051C21.1404 47.9719 21.2241 47.8811 21.282 47.741ZM24.7766 48C25.7825 48 26.5244 47.1329 26.5244 46.112V46.0977C26.5244 45.0769 25.7892 44.2235 24.7895 44.2235C23.7836 44.2235 23.0489 45.0912 23.0489 46.112V46.1257C23.0489 47.1471 23.7774 48 24.7766 48ZM24.7895 47.5175C24.0868 47.5175 23.5578 46.8882 23.5578 46.112V46.0977C23.5578 45.3353 24.0548 44.6991 24.7766 44.6991C25.4792 44.6991 26.0144 45.3353 26.0144 46.112V46.1257C26.0144 46.8882 25.5117 47.5175 24.7895 47.5175ZM27.4652 47.6787C27.4652 47.8325 27.5747 47.9513 27.7168 47.9513C27.8583 47.9513 27.9617 47.8325 27.9617 47.6787V43.0484C27.9617 42.902 27.8521 42.7758 27.71 42.7758C27.5747 42.7758 27.4652 42.902 27.4652 43.0484V47.6787ZM30.7339 47.741L31.9915 44.6642C32.0044 44.6293 32.0173 44.5802 32.0173 44.5311C32.0173 44.3847 31.9072 44.2658 31.7719 44.2658C31.6432 44.2658 31.5719 44.3567 31.5399 44.4613L30.4436 47.3009L29.3669 44.4756C29.3287 44.3567 29.2579 44.2658 29.1153 44.2658C28.9743 44.2658 28.8642 44.3916 28.8642 44.5311C28.8642 44.5802 28.8839 44.6294 28.8963 44.6785L30.1476 47.741C30.2054 47.8811 30.2958 47.9719 30.4307 47.9719H30.457C30.5924 47.9719 30.6761 47.8811 30.7339 47.741ZM32.8806 43.2582C32.8806 43.4262 33.0098 43.5451 33.1709 43.5451C33.3389 43.5451 33.468 43.4262 33.468 43.2582V43.1673C33.468 42.9929 33.3389 42.8804 33.1709 42.8804C33.0098 42.8804 32.8806 42.9929 32.8806 43.1673V43.2582ZM32.9261 47.6787C32.9261 47.8325 33.0356 47.9513 33.1771 47.9513C33.3197 47.9513 33.4226 47.8325 33.4226 47.6787V44.5385C33.4226 44.3847 33.313 44.2658 33.1709 44.2658C33.0356 44.2658 32.9261 44.3916 32.9261 44.5385V47.6787ZM34.5767 47.6787C34.5767 47.8325 34.6863 47.9513 34.8283 47.9513C34.9699 47.9513 35.0732 47.8325 35.0732 47.6787V45.8531C35.0732 45.1884 35.4731 44.7134 36.0016 44.7134C36.5301 44.7134 36.8592 45.1118 36.8592 45.7902V47.6787C36.8592 47.8325 36.9683 47.9513 37.1041 47.9513C37.2457 47.9513 37.3552 47.8325 37.3552 47.6787V45.832C37.3552 45.1186 37.768 44.7134 38.2707 44.7134C38.8127 44.7134 39.1345 45.1049 39.1345 45.804V47.6787C39.1345 47.8325 39.2441 47.9513 39.3867 47.9513C39.5215 47.9513 39.631 47.8325 39.631 47.6787V45.6782C39.631 44.7831 39.1609 44.2235 38.3932 44.2235C37.813 44.2235 37.4585 44.5453 37.2199 44.9443C37.0396 44.5385 36.6913 44.2235 36.1494 44.2235C35.5888 44.2235 35.2923 44.5522 35.0732 44.9094V44.5385C35.0732 44.3847 34.9637 44.2658 34.8216 44.2658C34.6863 44.2658 34.5767 44.3916 34.5767 44.5385V47.6787ZM41.0043 45.9091C41.0694 45.2027 41.5075 44.6785 42.0877 44.6785C42.7515 44.6785 43.0998 45.2523 43.1514 45.9091H41.0043ZM43.4221 47.4546C43.4738 47.406 43.4991 47.3432 43.4991 47.2798C43.4991 47.154 43.403 47.0488 43.2806 47.0488C43.2227 47.0488 43.1772 47.0769 43.1385 47.1123C42.8936 47.3569 42.5903 47.5318 42.1781 47.5318C41.585 47.5318 41.0756 47.0906 41.0043 46.308H43.4154C43.5384 46.308 43.6479 46.2029 43.6479 46.056C43.6479 45.098 43.0868 44.2235 42.1006 44.2235C41.1789 44.2235 40.5016 45.0632 40.5016 46.1051V46.1194C40.5016 47.238 41.2497 48 42.1651 48C42.7324 48 43.1065 47.7833 43.4221 47.4546ZM44.5247 47.6787C44.5247 47.8325 44.6342 47.9513 44.7763 47.9513C44.9183 47.9513 45.0211 47.8325 45.0211 47.6787V45.8462C45.0211 45.1678 45.4463 44.7134 46.0203 44.7134C46.6072 44.7134 46.9425 45.1329 46.9425 45.804V47.6787C46.9425 47.8325 47.0521 47.9513 47.1936 47.9513C47.3295 47.9513 47.439 47.8325 47.439 47.6787V45.6713C47.439 44.8111 46.9684 44.2235 46.1624 44.2235C45.5884 44.2235 45.2402 44.5385 45.0211 44.93V44.5385C45.0211 44.3847 44.9116 44.2658 44.7695 44.2658C44.6342 44.2658 44.5247 44.3916 44.5247 44.5385V47.6787ZM49.612 47.9793C49.8052 47.9793 49.9597 47.9445 50.1013 47.8811C50.1855 47.8467 50.2434 47.769 50.2434 47.6713C50.2434 47.5461 50.1462 47.4409 50.0305 47.4409C49.9917 47.4409 49.9019 47.4895 49.7277 47.4895C49.3924 47.4895 49.1667 47.3289 49.1667 46.8882V44.7762H50.0305C50.1535 44.7762 50.2563 44.6711 50.2563 44.5385C50.2563 44.4122 50.1535 44.3007 50.0305 44.3007H49.1667V43.4473C49.1667 43.3004 49.0509 43.1747 48.9151 43.1747C48.773 43.1747 48.6702 43.3004 48.6702 43.4473V44.3007H48.3995C48.2832 44.3007 48.1804 44.4053 48.1804 44.5385C48.1804 44.6642 48.2832 44.7762 48.3995 44.7762H48.6702V46.9585C48.6702 47.6924 49.0768 47.9793 49.612 47.9793ZM52.5259 48C53.5313 48 54.2732 47.1329 54.2732 46.112V46.0977C54.2732 45.0769 53.538 44.2235 52.5383 44.2235C51.5329 44.2235 50.7982 45.0912 50.7982 46.112V46.1257C50.7982 47.1471 51.5262 48 52.5259 48ZM52.5383 47.5175C51.8362 47.5175 51.3071 46.8882 51.3071 46.112V46.0977C51.3071 45.3353 51.8036 44.6991 52.5259 44.6991C53.2285 44.6991 53.7637 45.3353 53.7637 46.112V46.1257C53.7637 46.8882 53.2605 47.5175 52.5383 47.5175ZM57.2325 47.6713C57.2325 47.8256 57.3482 47.9513 57.4836 47.9513C57.6256 47.9513 57.7419 47.8256 57.7419 47.6713V43.265C57.7419 43.1113 57.6256 42.9855 57.4836 42.9855C57.3482 42.9855 57.2325 43.1113 57.2325 43.265V47.6713ZM58.9798 47.6787C58.9798 47.8325 59.0893 47.9513 59.2308 47.9513C59.3734 47.9513 59.4762 47.8325 59.4762 47.6787V45.8462C59.4762 45.1678 59.9014 44.7134 60.4754 44.7134C61.0618 44.7134 61.3971 45.1329 61.3971 45.804V47.6787C61.3971 47.8325 61.5072 47.9513 61.6487 47.9513C61.7841 47.9513 61.8936 47.8325 61.8936 47.6787V45.6713C61.8936 44.8111 61.423 44.2235 60.6175 44.2235C60.043 44.2235 59.6953 44.5385 59.4762 44.93V44.5385C59.4762 44.3847 59.3662 44.2658 59.2246 44.2658C59.0893 44.2658 58.9798 44.3916 58.9798 44.5385V47.6787ZM66.1228 43.0484C66.1228 42.8946 66.0133 42.7758 65.8712 42.7758C65.7297 42.7758 65.6263 42.8946 65.6263 43.0484V44.9929C65.3685 44.5876 64.9687 44.2235 64.3502 44.2235C63.5505 44.2235 62.7579 44.9231 62.7579 46.1051V46.1194C62.7579 47.3078 63.5505 47.9936 64.3502 47.9936C64.963 47.9936 65.3561 47.6227 65.6263 47.1894V47.6787C65.6263 47.8325 65.7364 47.9513 65.8779 47.9513C66.0133 47.9513 66.1228 47.8325 66.1228 47.6787V43.0484ZM64.4401 44.706C65.0591 44.706 65.6455 45.2655 65.6455 46.0977V46.112C65.6455 46.9442 65.0591 47.5107 64.4401 47.5107C63.815 47.5107 63.2668 46.9648 63.2668 46.112V46.0977C63.2668 45.2238 63.7959 44.706 64.4401 44.706ZM70.0881 44.5385C70.0881 44.3847 69.9785 44.2658 69.8432 44.2658C69.7011 44.2658 69.5983 44.3847 69.5983 44.5385V46.3709C69.5983 47.0488 69.1658 47.5038 68.5986 47.5038C68.0122 47.5038 67.6769 47.0842 67.6769 46.4127V44.5385C67.6769 44.3847 67.5612 44.2658 67.4258 44.2658C67.2837 44.2658 67.1799 44.3847 67.1799 44.5385V46.5453C67.1799 47.406 67.6511 47.9936 68.457 47.9936C69.031 47.9936 69.3725 47.6787 69.5983 47.2866V47.6787C69.5983 47.8325 69.7073 47.9513 69.8432 47.9513C69.9852 47.9513 70.0881 47.8256 70.0881 47.6787V44.5385ZM72.306 47.9862C72.9699 47.9862 73.4922 47.5878 73.4922 46.902V46.8882C73.4922 46.2378 72.9378 46.0211 72.4217 45.8531C71.9769 45.7062 71.5646 45.5731 71.5646 45.2307V45.2164C71.5646 44.9157 71.8157 44.6922 72.2094 44.6922C72.493 44.6922 72.7963 44.7969 73.0794 44.9717C73.1052 44.9855 73.144 44.9998 73.1889 44.9998C73.3119 44.9998 73.4085 44.8951 73.4085 44.7688C73.4085 44.6642 73.3506 44.5876 73.2861 44.5453C72.9632 44.3567 72.5767 44.2373 72.2223 44.2373C71.5646 44.2373 71.0878 44.6505 71.0878 45.2729V45.2867C71.0878 45.9509 71.6674 46.1469 72.1898 46.308C72.6284 46.4401 73.021 46.5807 73.021 46.9442V46.9585C73.021 47.3078 72.7317 47.5318 72.3318 47.5318C71.9707 47.5318 71.6163 47.3986 71.2748 47.1471C71.2422 47.1191 71.1973 47.1049 71.1518 47.1049C71.0294 47.1049 70.9322 47.21 70.9322 47.3358C70.9322 47.4266 70.9772 47.4969 71.0232 47.5318C71.3838 47.8113 71.8674 47.9862 72.306 47.9862ZM75.4653 47.9793C75.6585 47.9793 75.813 47.9445 75.955 47.8811C76.0387 47.8467 76.0971 47.769 76.0971 47.6713C76.0971 47.5461 76.0005 47.4409 75.8843 47.4409C75.846 47.4409 75.7551 47.4895 75.5815 47.4895C75.2462 47.4895 75.0204 47.3289 75.0204 46.8882V44.7762H75.8843C76.0067 44.7762 76.1095 44.6711 76.1095 44.5385C76.1095 44.4122 76.0067 44.3007 75.8843 44.3007H75.0204V43.4473C75.0204 43.3004 74.9042 43.1747 74.7688 43.1747C74.6267 43.1747 74.5239 43.3004 74.5239 43.4473V44.3007H74.2532C74.137 44.3007 74.0342 44.4053 74.0342 44.5385C74.0342 44.6642 74.137 44.7762 74.2532 44.7762H74.5239V46.9585C74.5239 47.6924 74.93 47.9793 75.4653 47.9793ZM76.9542 47.6787C76.9542 47.8325 77.0643 47.9513 77.2058 47.9513C77.3479 47.9513 77.4507 47.8256 77.4507 47.6787V46.4475C77.4507 45.4056 77.9792 44.8814 78.6245 44.7968C78.7532 44.7762 78.8436 44.6711 78.8436 44.5242C78.8436 44.371 78.7464 44.2516 78.5987 44.2516C78.1797 44.2516 77.6956 44.6156 77.4507 45.2164V44.5385C77.4507 44.3847 77.3417 44.2658 77.1996 44.2658C77.0643 44.2658 76.9542 44.3916 76.9542 44.5385V47.6787ZM79.5653 43.2582C79.5653 43.4262 79.6945 43.5451 79.8562 43.5451C80.0231 43.5451 80.1522 43.4262 80.1522 43.2582V43.1673C80.1522 42.9929 80.0231 42.8804 79.8562 42.8804C79.6945 42.8804 79.5653 42.9929 79.5653 43.1673V43.2582ZM79.6108 47.6787C79.6108 47.8325 79.7203 47.9513 79.8619 47.9513C80.0039 47.9513 80.1073 47.8325 80.1073 47.6787V44.5385C80.1073 44.3847 79.9972 44.2658 79.8562 44.2658C79.7203 44.2658 79.6108 44.3916 79.6108 44.5385V47.6787ZM82.2539 47.9936C82.8408 47.9936 83.2278 47.6998 83.4598 47.3712V47.6998C83.4598 47.8393 83.5564 47.9513 83.6984 47.9513C83.8338 47.9513 83.9371 47.8393 83.9371 47.6856V45.7062C83.9371 45.2444 83.8209 44.8951 83.5951 44.6505C83.3507 44.3847 82.9891 44.2516 82.5184 44.2516C82.0927 44.2516 81.7574 44.3424 81.4288 44.4962C81.3643 44.5242 81.2935 44.6082 81.2935 44.7202C81.2935 44.8465 81.3968 44.9506 81.5125 44.9506C81.5384 44.9506 81.5709 44.9443 81.6035 44.93C81.8478 44.8111 82.1315 44.7271 82.4668 44.7271C83.0919 44.7271 83.4598 45.0632 83.4598 45.7136V45.8388C83.1632 45.7485 82.8599 45.6856 82.4347 45.6856C81.59 45.6856 81.0098 46.0909 81.0098 46.8533V46.8671C81.0098 47.6084 81.635 47.9936 82.2539 47.9936ZM82.3511 47.5667C81.8995 47.5667 81.5125 47.3009 81.5125 46.8459V46.8322C81.5125 46.3778 81.8608 46.0835 82.4859 46.0835C82.892 46.0835 83.2211 46.1612 83.466 46.2378V46.5876C83.466 47.1609 82.9633 47.5667 82.3511 47.5667ZM85.0396 47.6787C85.0396 47.8325 85.1492 47.9513 85.2907 47.9513C85.4328 47.9513 85.5356 47.8325 85.5356 47.6787V43.0484C85.5356 42.902 85.4266 42.7758 85.2845 42.7758C85.1492 42.7758 85.0396 42.902 85.0396 43.0484V47.6787Z" fill="#4A5567"/>
<path d="M61.1631 23.2402C63.2787 23.228 64.7026 22.809 65.7757 21.9847C66.842 21.1663 67.4775 19.8743 67.68 18.1206C67.8784 16.4044 67.5601 15.1231 66.7268 14.2813C65.8903 13.4375 64.6773 13.0206 62.7518 13.0206H62.3446L61.1631 23.2402ZM52.0604 31.2437L55.1111 4.96741H61.5754C63.9808 4.96741 65.2616 5.10373 66.9309 5.37321C68.5996 5.64375 69.2728 6.06382 70.2709 6.62867C72.3907 7.82917 73.935 9.3652 74.9119 11.3467C75.8879 13.326 76.2263 15.5865 75.9333 18.1206C75.6409 20.6495 74.7797 22.8957 73.3558 24.8645C71.9314 26.8332 70.1852 28.3751 67.7714 29.5825C66.608 30.1647 65.3205 30.5864 63.5954 30.8501C61.8709 31.1137 60.6743 31.2437 57.8323 31.2437H52.0604Z" fill="#4A5567"/>
<path d="M14.1203 21.6513H18.6833L17.4444 13.2547H17.2863C17.1664 13.9749 14.1203 21.6513 14.1203 21.6513ZM1.59436 31.2437L13.9318 4.96741H23.1336L29.1944 31.2437H19.5699L19.1152 27.9275H12.2738L11.0892 31.2437H1.59436Z" fill="#4A5567"/>
<path d="M39.0322 20.5576L38.545 24.7725H40.112C41.0477 24.7725 41.7932 24.5897 42.3382 24.2246C42.8859 23.8579 43.1933 23.3385 43.2718 22.6616C43.3503 21.9789 43.1607 21.4579 42.6994 21.0992C42.2354 20.7377 41.5343 20.5576 40.5992 20.5576H39.0322ZM40.1151 11.1866L39.6889 14.8784H40.9154C41.6749 14.8784 42.2705 14.7183 42.7087 14.3986C43.1395 14.0842 43.3932 13.6235 43.4624 13.0264C43.5317 12.4235 43.3855 11.9665 43.0254 11.6547C42.6622 11.3393 42.1016 11.1866 41.3421 11.1866H40.1151ZM30.0055 31.2437L33.0557 4.96741H44.1868C46.8594 4.96741 48.8701 5.60147 50.217 6.86855C51.5649 8.13616 52.1079 9.8455 51.847 12.1033C51.6806 13.5432 51.1898 14.7437 50.3751 15.6969C49.5536 16.657 48.4852 17.2784 47.158 17.5674C48.883 17.9362 50.1178 18.6395 50.8633 19.672C51.6099 20.7066 51.8827 22.0962 51.6817 23.8367C51.3965 26.3043 50.3601 28.1051 48.57 29.3611C46.7844 30.6144 44.35 31.2437 41.1618 31.2437H30.0055Z" fill="#4A5567"/>
<path d="M85.6973 12.9741L86.7585 12.9619L84.57 31.24H75.707L75.986 29.0419L76.0289 28.9985C81.1364 25.703 84.7984 20.2611 85.6142 13.7561C85.6462 13.4951 85.6741 13.234 85.6973 12.9741Z" fill="#4A5567"/>
<path d="M76.6251 23.8193L77.863 12.973H83.2485C82.1428 17.2646 79.7704 21.0098 76.6251 23.8193Z" fill="#4A5567"/>
<path d="M82.3397 0C82.4285 0 82.5174 0.00211356 82.6058 0.00634068C83.7599 3.17245 84.2022 6.65137 83.7553 10.2175C83.7119 10.5625 83.6607 10.9049 83.6018 11.2447C83.1958 11.3387 82.7731 11.3879 82.3397 11.3879C79.2223 11.3879 76.6794 8.82992 76.6794 5.6934C76.6794 2.55741 79.2223 0 82.3397 0ZM82.6905 0.0110962C85.6452 0.194448 88 2.67629 88 5.6934C88 7.52903 87.1284 9.16598 85.7815 10.2085C85.6297 6.52667 84.5271 3.03296 82.6905 0.0110962Z" fill="#4A5567"/>
</g>
<defs>
<clipPath id="clip0_196_2800">
<rect width="88" height="48" fill="white"/>
</clipPath>
</defs>
</svg>
