<svg width="96" height="26" viewBox="0 0 96 26" fill="none" xmlns="http://www.w3.org/2000/svg">
<path d="M31.356 4.98054L33.6432 13.2886H28.9055L31.356 4.98054ZM27.1972 19.1083L25.1161 26H37.2834L35.3266 19.1083H27.1972ZM58.9545 0H35.5965V7.40092H42.9658V26H54.8242C54.0926 25.5446 49.0601 21.5107 49.0601 13.9843C49.0601 7.72722 52.8211 1.60641 58.9545 0M63.0032 19.3413C65.7592 19.3413 67.9717 17.0321 67.9717 14.1134C67.9717 11.2125 65.8977 8.58779 63.1062 8.58779C60.3005 8.58779 58.0951 11.2125 58.0951 14.1134C58.0951 17.0321 60.1656 19.3413 63.0032 19.3413ZM87.5013 16.3437L82.7601 0H70.6211V26H78.2035V9.70295H78.2568L82.9554 26H95.1973V0H87.5475V16.3437H87.5013ZM15.4951 26L17.6864 18.7102H9.56416V16.505H18.3505L20.4388 9.51649H9.56416V7.40092H21.0425L23.2587 0H0.802673V26H15.4951Z" fill="#4A5567"/>
</svg>
