<svg width="130" height="54" viewBox="0 0 130 54" fill="none" xmlns="http://www.w3.org/2000/svg">
<path d="M5.59279 46.6186C3.79938 46.0749 3.01362 45.7299 3.01362 44.7041C3.01362 43.7862 4.23613 43.4604 5.28313 43.4604C6.199 43.4604 7.18345 43.7328 7.8522 44.1705C8.01056 44.2734 8.20524 44.3047 8.3868 44.2543C8.56836 44.2058 8.72167 44.0798 8.8064 43.9113L9.11102 43.3021C9.2603 43.0015 9.16246 42.6364 8.88104 42.4518C7.91777 41.8224 6.55102 41.432 5.31439 41.432C2.71607 41.432 0.969055 42.7665 0.969055 44.7525C0.969055 47.3327 3.14879 47.9853 4.89781 48.5108C6.72955 49.0595 7.53044 49.4126 7.52035 50.503C7.52035 51.5974 6.23228 51.9867 5.02692 51.9867C3.872 51.9867 2.6152 51.3724 1.85164 50.6674C1.69933 50.5272 1.50264 50.4465 1.29889 50.4697C1.09413 50.4929 0.911562 50.6109 0.805652 50.7884L0.454635 51.3815C0.298292 51.6427 0.341664 51.9766 0.558528 52.1905C1.69126 53.306 3.39692 54 5.01079 54C7.73419 54 9.56391 52.5869 9.56391 50.4919C9.58509 47.83 7.37107 47.1582 5.59279 46.6186Z" fill="#4A5567"/>
<path d="M17.5888 41.8494C17.4809 41.6144 17.2458 41.4631 16.9866 41.4631H16.2664C16.0062 41.4631 15.7712 41.6144 15.6642 41.8514L10.5866 53.0466C10.4938 53.2524 10.511 53.4894 10.632 53.6791C10.7551 53.8697 10.9639 53.9827 11.1888 53.9827H11.9251C12.1853 53.9827 12.4214 53.8304 12.5283 53.5933L13.7942 50.7953H19.4931L20.7742 53.5963C20.8821 53.8314 21.1171 53.9827 21.3753 53.9827H22.1127C22.3386 53.9827 22.5474 53.8677 22.6694 53.678C22.7915 53.4894 22.8076 53.2514 22.7138 53.0446L17.5888 41.8494ZM14.6808 48.7981L16.6215 44.4962L18.5843 48.7981H14.6808Z" fill="#4A5567"/>
<path d="M26.0445 41.4641H25.3727C25.0075 41.4641 24.711 41.7606 24.711 42.1258V53.321C24.711 53.6871 25.0075 53.9827 25.3727 53.9827H26.0445C26.4096 53.9827 26.7061 53.6871 26.7061 53.321V42.1258C26.7061 41.7606 26.4096 41.4641 26.0445 41.4641Z" fill="#4A5567"/>
<path d="M40.0079 41.4641H39.3513C38.9841 41.4641 38.6886 41.7606 38.6886 42.1258V50.2798L32.4046 41.7334C32.2795 41.5629 32.0818 41.4641 31.871 41.4641H31.0862C30.7201 41.4641 30.4246 41.7606 30.4246 42.1258V53.321C30.4246 53.6871 30.7201 53.9827 31.0862 53.9827H31.758C32.1242 53.9827 32.4207 53.6871 32.4207 53.321V45.1709L38.6886 53.7144C38.8126 53.8828 39.0113 53.9827 39.2232 53.9827H40.0079C40.373 53.9827 40.6696 53.6871 40.6696 53.321V42.1258C40.6696 41.7606 40.373 41.4641 40.0079 41.4641Z" fill="#4A5567"/>
<path d="M51.5543 41.4636H43.3206C42.9555 41.4636 42.6599 41.7602 42.6599 42.1253V42.7829C42.6599 43.1471 42.9555 43.4436 43.3206 43.4436H46.4404V53.3205C46.4404 53.6866 46.7369 53.9822 47.1021 53.9822H47.7728C48.14 53.9822 48.4366 53.6866 48.4366 53.3205V43.4436H51.5543C51.9205 43.4436 52.216 43.1471 52.216 42.7829V42.1253C52.216 41.7602 51.9205 41.4636 51.5543 41.4636Z" fill="#4A5567"/>
<path d="M56.4766 47.5663H52.9039C52.5387 47.5663 52.2422 47.8618 52.2422 48.228V48.7726C52.2422 49.1388 52.5387 49.4343 52.9039 49.4343H56.4766C56.8417 49.4343 57.1373 49.1388 57.1373 48.7726V48.228C57.1373 47.8618 56.8417 47.5663 56.4766 47.5663Z" fill="#4A5567"/>
<path d="M70.3803 47.1646H69.771C69.768 47.1646 69.764 47.1656 69.7599 47.1656H67.7728C67.4067 47.1656 67.1102 47.4622 67.1102 47.8273V48.5001C67.1102 48.8652 67.4067 49.1618 67.7728 49.1618H69.1103V51.2083C68.3306 51.7429 67.3936 52.0334 66.4404 52.0334C63.9702 52.0334 61.9609 50.0968 61.9609 47.7153C61.9609 45.3419 63.9702 43.4113 66.4404 43.4113C67.5873 43.4113 68.716 43.834 69.538 44.5713C69.6732 44.6924 69.8527 44.7539 70.0333 44.7388C70.2148 44.7246 70.3813 44.6359 70.4952 44.4947L70.8957 43.9984C71.1176 43.721 71.0843 43.3175 70.816 43.0835C69.6137 42.0295 68.0583 41.4465 66.4404 41.4465C62.8697 41.4465 59.9637 44.2576 59.9637 47.7153C59.9637 51.1801 62.8546 53.9973 66.4081 53.9973C68.0149 53.9973 69.6187 53.4083 70.813 52.3804C70.9582 52.2553 71.0429 52.0718 71.0429 51.8781V47.8263C71.0429 47.4622 70.7454 47.1646 70.3803 47.1646Z" fill="#4A5567"/>
<path d="M79.765 41.4465C76.2034 41.4465 73.3055 44.2576 73.3055 47.7143C73.3055 51.1801 76.2034 53.9973 79.765 53.9973C83.3267 53.9973 86.2256 51.1801 86.2256 47.7143C86.2256 44.2576 83.3267 41.4465 79.765 41.4465ZM79.765 52.0173C77.312 52.0173 75.3168 50.0867 75.3168 47.7143C75.3168 45.35 77.312 43.4275 79.765 43.4275C82.2171 43.4275 84.2123 45.35 84.2123 47.7143C84.2123 50.0867 82.2171 52.0173 79.765 52.0173Z" fill="#4A5567"/>
<path d="M96.833 47.3681C97.5068 46.7881 97.881 45.9338 97.881 44.8949C97.881 42.7777 96.2893 41.4624 93.7273 41.4624H89.1459C88.7818 41.4624 88.4852 41.7589 88.4852 42.124V53.3202C88.4852 53.6854 88.7818 53.9819 89.1459 53.9819H93.7596C96.6917 53.9819 98.4408 52.6091 98.4408 50.3104C98.4408 49.0092 97.8527 47.9743 96.833 47.3681ZM93.7111 46.54H90.4804V43.4434H93.7111C94.7016 43.4434 95.8848 43.7087 95.8848 44.9755C95.8848 46.0135 95.1535 46.54 93.7111 46.54ZM90.4804 48.52H93.7111C94.7319 48.52 96.4446 48.7419 96.4446 50.2287C96.4446 51.6943 94.9589 52.0019 93.7111 52.0019H90.4804V48.52Z" fill="#4A5567"/>
<path d="M106.564 41.8487C106.456 41.6137 106.221 41.4624 105.962 41.4624H105.242C104.98 41.4624 104.745 41.6137 104.637 41.8507L99.5608 53.0459C99.468 53.2517 99.4851 53.4887 99.6082 53.6783C99.7302 53.869 99.939 53.9819 100.165 53.9819H100.901C101.162 53.9819 101.398 53.8296 101.504 53.5926L102.77 50.7945H108.467L109.748 53.5956C109.856 53.8306 110.092 53.9819 110.35 53.9819H111.087C111.312 53.9819 111.523 53.8669 111.644 53.6773C111.766 53.4887 111.783 53.2506 111.689 53.0439L106.564 41.8487ZM103.656 48.7974L105.597 44.4954L107.559 48.7974H103.656Z" fill="#4A5567"/>
<path d="M115.01 41.4631H114.337C113.972 41.4631 113.675 41.7597 113.675 42.1248V53.32C113.675 53.6861 113.972 53.9817 114.337 53.9817H115.01C115.375 53.9817 115.674 53.6861 115.674 53.32V42.1248C115.674 41.7597 115.375 41.4631 115.01 41.4631Z" fill="#4A5567"/>
<path d="M128.978 41.4634H128.32C127.955 41.4634 127.66 41.7599 127.66 42.1251V50.2791L121.375 41.7327C121.251 41.5622 121.052 41.4634 120.841 41.4634H120.056C119.69 41.4634 119.394 41.7599 119.394 42.1251V53.3202C119.394 53.6864 119.69 53.9819 120.056 53.9819H120.729C121.094 53.9819 121.39 53.6864 121.39 53.3202V45.1702L127.66 53.7136C127.784 53.8821 127.981 53.9819 128.192 53.9819H128.978C129.343 53.9819 129.639 53.6864 129.639 53.3202V42.1251C129.639 41.7599 129.343 41.4634 128.978 41.4634Z" fill="#4A5567"/>
<path d="M73.0388 23.8971V34.9037H71.0124V22.3831L73.0388 23.8971ZM112.323 34.8674H104.352L104.295 34.8119L97.2841 27.8773C96.9986 27.5949 96.5589 27.5081 96.1867 27.6635C95.8094 27.8208 95.5653 28.186 95.5653 28.5945V34.9037H93.4824V19.2905C93.4824 19.0141 93.3664 18.7468 93.1657 18.5572L87.3407 13.0559C87.153 12.8784 86.9059 12.7806 86.6477 12.7806H83.7357C83.1789 12.7806 82.726 13.2335 82.726 13.7892V34.9037H80.6593V1.00639C80.6593 0.594852 80.4131 0.228718 80.0329 0.0733833C79.6597 -0.0799332 79.2118 0.0128555 78.9314 0.298306L69.2845 10.0874C69.0969 10.2771 68.994 10.5292 68.994 10.7955V18.3575L65.0441 15.4081C64.685 15.1408 64.1585 15.1499 63.8095 15.4293L54.8283 22.6292C54.5882 22.8219 54.4511 23.1093 54.4511 23.417V34.9037H52.4156V28.5723C52.4156 26.3492 50.8844 23.9859 48.049 23.9859C45.2127 23.9859 43.6825 26.3603 43.6825 28.5945V34.9037L41.6238 34.9027V30.6078C41.6238 28.8668 40.4255 27.0179 38.2044 27.0179C35.9834 27.0179 34.7851 28.8688 34.7851 30.6118V34.9047L32.7345 34.9057L32.7334 34.7151C32.7304 33.8496 32.7274 32.7411 32.7274 32.2963C32.7274 30.8176 31.3314 29.5214 29.7397 29.5214C28.148 29.5214 26.752 30.8115 26.752 32.2832V34.9037L17.7588 34.9027C17.202 34.9027 16.7501 35.3556 16.7491 35.9113C16.7491 36.1817 16.854 36.4348 17.0446 36.6255C17.2353 36.8161 17.4884 36.921 17.7578 36.921L27.7607 36.922C28.03 36.922 28.2842 36.8171 28.4738 36.6265C28.6645 36.4358 28.7704 36.1827 28.7704 35.9134V32.4657C28.7704 32.0925 29.1769 31.5388 29.7397 31.5388C30.2945 31.5388 30.7101 32.0451 30.7101 32.498C30.7101 32.7572 30.7201 35.9194 30.7201 35.9194C30.7232 36.4742 31.175 36.925 31.7288 36.925L35.7947 36.922C36.3505 36.922 36.8034 36.4691 36.8034 35.9134V30.6118C36.8034 30.0661 37.0959 29.0353 38.2044 29.0353C39.313 29.0353 39.6065 30.0631 39.6065 30.6078V35.9103C39.6065 36.4671 40.0584 36.92 40.6142 36.92L44.6902 36.922C44.9565 36.922 45.2167 36.8141 45.4043 36.6265C45.5919 36.4389 45.6999 36.1786 45.6999 35.9134V28.5945C45.6999 27.6988 46.1911 26.0032 48.049 26.0032C49.7718 26.0032 50.3972 27.5394 50.3972 28.5723V35.9134C50.3972 36.4691 50.8501 36.922 51.4059 36.922H55.4597C56.0165 36.922 56.4684 36.4691 56.4684 35.9134V23.9011L56.541 23.8426L64.4621 17.4921L68.994 20.8761V35.9134C68.994 36.4691 69.4469 36.922 70.0027 36.922H74.0485C74.6042 36.922 75.0571 36.4691 75.0571 35.9134V23.3907C75.0571 23.075 74.9048 22.7724 74.6516 22.5828L71.0124 19.8644V11.2091L71.0678 11.1526L78.6409 3.46754V35.9134C78.6409 36.4691 79.0938 36.922 79.6496 36.922H83.7357C84.2915 36.922 84.7444 36.4691 84.7444 35.9134V14.7979H86.2463L86.3017 14.8504L91.4641 19.7252V35.9134C91.4641 36.4691 91.917 36.922 92.4728 36.922H96.574C97.1308 36.922 97.5837 36.4691 97.5837 35.9134V31.0112L103.227 36.5932C103.418 36.7808 103.67 36.8847 103.936 36.8847H112.323C112.88 36.8847 113.333 36.4318 113.333 35.876C113.333 35.3192 112.88 34.8674 112.323 34.8674Z" fill="#4A5567"/>
</svg>
