<svg width="116" height="36" viewBox="0 0 116 36" fill="none" xmlns="http://www.w3.org/2000/svg">
<g clip-path="url(#clip0_196_2824)">
<path fill-rule="evenodd" clip-rule="evenodd" d="M34.6868 31.5949V4.22282H45.1907C45.1907 4.22282 53.8625 3.88863 56.3359 13.1848C56.61 14.4304 57.5571 20.5063 51.0534 24.6684C53.038 27.9798 55.1448 31.5949 55.1448 31.5949H48.6106L45.4655 26.0658H40.2442V31.5949H34.6868ZM40.2442 20.5671H45.7404C48.2747 20.5671 52.3662 17.3164 50.5647 13.4583C48.7633 9.63043 45.1907 9.90378 45.1907 9.90378H40.2442V20.5671Z" fill="#4A5567"/>
<path fill-rule="evenodd" clip-rule="evenodd" d="M87.3279 17.9241C87.3279 25.671 80.9159 31.9595 73.0075 31.9595C65.099 31.9595 58.687 25.671 58.687 17.9241C58.687 10.1772 65.099 3.88867 73.0075 3.88867C80.9159 3.88867 87.3279 10.1772 87.3279 17.9241ZM81.3739 18.0456C81.3739 13.4279 77.6181 9.69121 72.9769 9.69121C68.3358 9.69121 64.5799 13.4279 64.5799 18.0456C64.5799 22.6634 68.3358 26.4 72.9769 26.4C77.6181 26.4 81.3739 22.6634 81.3739 18.0456Z" fill="#4A5567"/>
<path fill-rule="evenodd" clip-rule="evenodd" d="M89.3434 31.5341V4.25321H103.633C103.633 4.25321 111.45 4.16205 111.144 13.5798C111.054 14.8557 110.321 16.9823 109.251 17.7721C110.107 18.8659 113.618 24.243 108.732 29.4684C107.969 30.1974 106.504 31.5341 103.633 31.5341H89.3434ZM102.808 15.1595C105.191 15.1285 105.557 13.7924 105.557 13.7924C106.656 9.75187 103.144 9.63043 103.144 9.63043H94.9312V15.1595C94.9312 15.1595 100.885 15.1905 102.808 15.1595ZM102.808 26.0962C105.16 26.0652 105.496 24.7291 105.496 24.7291C106.595 20.6886 103.144 20.5671 103.144 20.5671H95.0534V26.0962C95.0534 26.0962 100.916 26.1272 102.808 26.0962Z" fill="#4A5567"/>
<path fill-rule="evenodd" clip-rule="evenodd" d="M21.0687 21.9342V16.5266H31.9998C32.0621 17.0431 32.0902 17.5595 32.0902 18.0759C32.0902 25.5797 25.9224 31.6557 18.2889 31.6557C10.6858 31.6557 4.51773 25.5797 4.51773 18.0759C4.51773 10.5722 10.6858 4.49622 18.2889 4.49622C23.2659 4.49622 27.6017 7.04812 30.0445 10.9367L25.3422 13.8836C23.8767 11.5139 21.2507 9.90376 18.2583 9.90376C13.6783 9.90376 9.98341 13.6101 9.98341 18.1671C9.98341 22.724 13.6783 26.4304 18.2583 26.4304C20.7927 26.4304 23.0827 25.2759 24.6093 23.4835C24.6093 23.4835 25.2811 22.6025 25.2811 22.4202C25.2811 22.2379 25.2497 21.9342 25.2497 21.9342H21.0055H21.0677H21.0687Z" fill="#4A5567"/>
<path fill-rule="evenodd" clip-rule="evenodd" d="M110.717 2.09631H5.28249C3.51158 2.09631 2.10679 3.49379 2.10679 5.25582V30.714C2.10679 32.4761 3.51158 33.8735 5.28249 33.8735H110.717C112.488 33.8735 113.893 32.4761 113.893 30.714V5.25582C113.893 3.49379 112.488 2.09631 110.717 2.09631ZM110.717 0.00012207C113.648 0.00012207 116 2.33938 116 5.25582V30.714C116 33.6304 113.648 36.0001 110.717 36.0001H5.28249C2.35113 36.0001 0 33.6304 0 30.714V5.25582C0 2.33938 2.35113 0.00012207 5.28249 0.00012207H110.717Z" fill="#4A5567"/>
</g>
<defs>
<clipPath id="clip0_196_2824">
<rect width="116" height="36" fill="white"/>
</clipPath>
</defs>
</svg>
