<svg width="92" height="50" viewBox="0 0 92 50" fill="none" xmlns="http://www.w3.org/2000/svg">
<path fill-rule="evenodd" clip-rule="evenodd" d="M0.0921631 0.916016H91.9078V15.084H0.0921631V0.916016ZM73.2034 8.583C67.6834 13.551 63.2061 11.6497 63.0221 8.767C63.6968 4.47368 67.0701 4.41235 73.2034 8.583ZM75.6567 6.80434C80.502 3.00169 84.182 1.83636 86.1447 4.71901C82.894 3.79902 79.95 5.08701 77.1287 7.72433C82.9554 11.711 87.31 12.263 88.414 5.82301C90.622 8.52166 88.3527 12.3856 84.366 12.999C81.7287 13.4283 78.3554 11.8337 74.7981 9.44166C64.6168 16.3723 61.9181 10.9137 61.5501 9.44166C60.5074 5.88434 65.1074 -1.47563 75.6567 6.80434Z" fill="#4A5567"/>
<path d="M91.8773 33.1744H86.5413L80.8987 22.4475V33.1744H77.1573V17.3853H82.8L88.2587 27.8109V17.3853H91.9387C91.8773 17.3853 91.8773 33.1744 91.8773 33.1744ZM72.0053 25.4004C72.0053 23.8335 71.6987 22.568 71.208 21.664C70.5947 20.519 69.736 19.9766 68.448 19.9766C67.16 19.9766 66.3013 20.5793 65.688 21.7243C65.1973 22.6885 65.0133 23.8938 65.0133 25.4606C65.0133 26.8467 65.32 27.9917 65.8107 28.8957C66.424 30.0407 67.4053 30.6433 68.5707 30.6433C69.736 30.6433 70.656 30.1612 71.2693 29.0765C71.6987 28.1122 72.0053 26.8467 72.0053 25.4004ZM76.2987 25.2798C76.2987 27.9314 75.624 29.9804 74.336 31.4267C73.048 32.8731 71.1467 33.5962 68.6933 33.5962C65.9947 33.5962 64.032 32.8128 62.6827 31.3665C61.3947 29.9201 60.7813 27.9314 60.7813 25.3401C60.7813 22.809 61.456 20.8806 62.8667 19.3137C64.2773 17.7469 66.1173 17.084 68.632 17.084C71.208 17.084 73.1707 17.8674 74.4587 19.4945C75.5627 20.8203 76.2987 22.7488 76.2987 25.2798ZM59.432 33.1744H55.4453V17.3853H59.432V33.1744ZM54.5867 33.1744H49.3733L46.1227 28.293L42.872 33.1744H38.1493L43.792 24.858L38.456 17.2648H43.792L46.552 21.5435L49.312 17.2648H54.1573L49.0053 24.858L54.5867 33.1744ZM30.8507 27.148L28.4587 20.6998L26.312 27.148H30.8507ZM37.72 33.1744H33.12L32.016 30.2215H25.208L24.104 33.1744H20.1173L26.4347 17.3853H31.096L37.72 33.1744ZM19.504 33.1744H15.64V20.5793L11.408 33.1744H7.85067L3.68 20.3985V33.1744H0V17.3853H6.624L9.81333 27.4493L13.0027 17.3853H19.4427V33.1744H19.504ZM0 36.1876H91.8773V38.0557H0V36.1876ZM47.472 48.9032L46.184 41.0689H48.392L49.0667 46.7337L50.3547 41.0689H53.0533L54.2187 46.7337L55.016 41.0689H56.9787L55.568 48.9032H52.9307L51.6427 43.1179H51.52L50.1707 48.9032H47.472ZM57.2853 48.9032V41.0689H59.432V44.0821H62.2533V41.0689H64.4V48.9032H62.2533V45.649H59.432V48.9032H57.2853ZM65.3813 48.9032V41.0689H71.4533V42.5755H67.5893V44.2026H71.1467V45.649H67.5893V47.3363H71.4533V48.9032H65.3813ZM72.1893 48.9032V41.0689H78.2613V42.5755H74.3973V44.2026H77.9547V45.649H74.3973V47.3363H78.2613V48.9032H72.1893ZM79.0587 48.9032V41.0689H81.2053V47.3363H84.7627V48.9032H79.0587ZM89.5467 43.2987C89.5467 42.9974 89.424 42.8166 89.24 42.6358C89.056 42.5152 88.7493 42.455 88.4427 42.455C87.952 42.455 87.4613 42.7563 87.4613 43.1179C87.4613 43.7205 88.136 43.9013 88.7493 44.0218C90.0373 44.3834 92 44.5039 92 46.6734C92 48.3608 90.344 49.084 88.5653 49.084C86.664 49.084 85.1307 48.6019 85.1307 46.4324H87.2773C87.2773 47.2158 87.768 47.5774 88.5653 47.5774C89.056 47.5774 89.7307 47.2761 89.7307 46.794C89.7307 45.7092 88.136 45.89 86.3573 45.2271C85.56 44.8655 85.192 44.1424 85.192 43.3589C85.3147 41.4908 86.9707 41.0087 88.5653 41.0087C90.2213 41.0087 91.816 41.6113 91.7547 43.4192H89.5467V43.2987Z" fill="#4A5567"/>
</svg>
