<svg width="124" height="22" viewBox="0 0 124 22" fill="none" xmlns="http://www.w3.org/2000/svg">
<path fill-rule="evenodd" clip-rule="evenodd" d="M14.6916 7.11437H22.4164C22.2152 5.89607 21.8322 4.90024 21.2667 4.12689C20.7018 3.35355 19.9731 2.74406 19.0812 2.29977C18.1893 1.85548 17.1282 1.53575 15.8972 1.34258C14.6662 1.14941 13.2847 1.03351 11.752 0.994873C8.51144 1.03351 6.04952 1.53575 4.36627 2.50293C2.68303 3.47012 1.70319 4.66843 1.42676 6.09923C1.17563 7.53002 1.37014 8.6664 2.01093 9.50702C2.65172 10.3483 3.56828 11.0244 4.76194 11.5373C5.95493 12.0502 7.31778 12.4465 8.85049 12.7263C10.3825 13.0074 11.9152 13.2925 13.4473 13.5822C14.1507 13.7561 14.6409 14.0125 14.9174 14.3503C15.1938 14.6893 15.2757 15.0224 15.1625 15.3514C15.0493 15.6798 14.7668 15.9702 14.3145 16.2214C13.8623 16.4731 13.2721 16.589 12.5434 16.5691C11.746 16.5658 10.9552 16.4236 10.2067 16.1487C9.428 15.8683 8.9131 15.3314 8.66198 14.5388H0.937836C0.937836 15.6985 1.25224 16.6896 1.87971 17.5116C2.50784 18.3329 3.3498 19.0003 4.40424 19.5132C5.45935 20.0261 6.67832 20.4025 8.05982 20.6443C9.44132 20.8854 10.8608 21.0066 12.3182 21.0066C13.725 21.0066 15.0939 20.8568 16.4254 20.557C17.757 20.2573 18.9313 19.827 19.9491 19.2661C20.9669 18.7053 21.7769 18.0038 22.3791 17.1632C22.9819 16.3219 23.2583 15.3701 23.2084 14.3063C23.1331 13.4364 22.8693 12.687 22.417 12.0589C21.9647 11.4307 21.3306 10.8885 20.5146 10.4349C19.698 9.98062 18.7241 9.59361 17.5938 9.27455C16.4634 8.95549 15.1945 8.67039 13.7883 8.41927C13.1355 8.30337 12.4008 8.18214 11.5835 8.05691C10.7669 7.93168 10.1081 7.77182 9.60518 7.57798C9.25348 7.44276 9.02101 7.27357 8.90844 7.07041C8.7952 6.86725 8.7952 6.65942 8.90844 6.44627C9.02101 6.23378 9.24149 6.04528 9.56788 5.88075C9.89427 5.71622 10.3212 5.61497 10.8488 5.57634C11.8786 5.51839 12.7579 5.59565 13.4866 5.80814C14.2153 6.02063 14.6163 6.45693 14.6916 7.11437V7.11437Z" fill="#4A5567"/>
<path fill-rule="evenodd" clip-rule="evenodd" d="M39.2995 8.76618H46.8738C46.8232 8.14737 46.6287 7.39333 46.2896 6.50409C45.9506 5.61484 45.3351 4.76355 44.4432 3.95157C43.5513 3.13959 42.3077 2.44352 40.7123 1.86334C39.117 1.28316 37.0261 0.993408 34.4383 0.993408C32.7804 0.993408 31.2104 1.19191 29.7283 1.58824C28.2462 1.98457 26.9526 2.59872 25.8469 3.43002C24.7412 4.26198 23.8626 5.32508 23.2091 6.62066C22.5564 7.91623 22.2293 9.46292 22.2293 11.2614C22.2293 14.2003 23.3097 16.501 25.4699 18.1636C27.6307 19.8268 30.6955 20.6968 34.6648 20.774C36.398 20.832 38.006 20.6681 39.4881 20.2811C40.9701 19.8948 42.2704 19.3439 43.3881 18.6285C44.5065 17.9131 45.4044 17.0765 46.0825 16.1193C46.7606 15.1621 47.1502 14.1423 47.2508 13.0592H39.2995C39.1483 13.678 38.9165 14.1856 38.6021 14.5819C38.3072 14.9614 37.9428 15.2812 37.5284 15.5245C37.1313 15.7548 36.6983 15.9167 36.2475 16.0034C35.7952 16.09 35.3682 16.134 34.9659 16.134C33.9108 16.134 33.0442 15.8775 32.3661 15.3653C31.688 14.8524 31.1791 14.2102 30.84 13.4362C30.501 12.6622 30.3378 11.8216 30.3504 10.913C30.3631 10.0045 30.5389 9.16317 30.878 8.38916C31.1997 7.63898 31.6973 6.97731 32.3288 6.46013C32.9569 5.94789 33.7356 5.69144 34.6655 5.69144C34.866 5.69144 35.155 5.6961 35.5321 5.70543C35.9091 5.71542 36.3174 5.80734 36.757 5.9812C37.1967 6.15505 37.6423 6.4548 38.0946 6.88044C38.5455 7.30674 38.9472 7.93488 39.2995 8.76618V8.76618Z" fill="#4A5567"/>
<path fill-rule="evenodd" clip-rule="evenodd" d="M51.9578 1.63159L43.1405 20.4257H51.3929L52.1842 17.9898H60.1349L60.9262 20.4257H69.1779L60.4366 1.63159H51.9578ZM53.7289 14.0744L56.1029 7.95425L58.5149 14.0744H53.7289Z" fill="#4A5567"/>
<path fill-rule="evenodd" clip-rule="evenodd" d="M66.5054 1.63159V20.4257H74.2296V13.4656L74.0045 10.3909L82.4826 20.4257H90.2068V1.63159H82.1809V8.36057L82.4826 11.406L74.0045 1.63159H66.5054ZM91.7148 1.63159V20.4257H99.8913V1.63159H91.7148Z" fill="#4A5567"/>
<path fill-rule="evenodd" clip-rule="evenodd" d="M105.84 1.63159L97.0235 20.4257H105.276L106.067 17.9898H114.018L114.81 20.4257H123.062L114.32 1.63159H105.84V1.63159ZM107.613 14.0744L109.985 7.95425L112.397 14.0744H107.613V14.0744Z" fill="#4A5567"/>
</svg>
