<svg width="124" height="28" viewBox="0 0 124 28" fill="none" xmlns="http://www.w3.org/2000/svg">
<path d="M115.132 27.2615V17.6369H108.296V27.2615H100.091V0.681267H108.296V9.76062H115.132V0.681267H123.337V27.2615H115.132ZM89.538 8.55754V27.2615H81.3328V8.55754H75.7545V0.681267H95.1163V8.55754H89.538ZM62.5743 0.681267H70.7794V27.2615H62.5743V0.681267ZM50.1038 13.9731C50.1038 17.4733 47.3159 20.3174 43.8149 20.3174C40.3147 20.3174 37.4706 17.4733 37.4706 13.9731C37.4706 10.473 40.3147 7.68423 43.8149 7.68423C44.642 7.67975 45.4618 7.83936 46.2268 8.15383C46.9918 8.46829 47.6869 8.93136 48.2718 9.51623C48.8567 10.1011 49.3197 10.7962 49.6342 11.5612C49.9486 12.3262 50.1083 13.146 50.1038 13.9731M57.6538 13.9731C57.6538 6.31583 51.473 0.135986 43.8149 0.135986C36.1584 0.135986 29.9232 6.31583 29.9232 13.9723C29.9232 21.6287 36.1584 27.8639 43.8149 27.8639C51.473 27.8639 57.6538 21.6287 57.6538 13.9723M20.6811 0.682133L15.211 15.5596L9.74176 0.681267H0.663269L12.0951 27.2615H18.275L29.7605 0.681267H20.6811V0.682133Z" fill="#4A5567"/>
</svg>
