<svg width="140" height="14" viewBox="0 0 140 14" fill="none" xmlns="http://www.w3.org/2000/svg">
<path d="M83.0572 0.268373H78.6231L73.2789 13.7764H77.1762L78.203 10.9137H83.2439L83.5939 11.8754C84.084 13.262 84.8308 13.7764 86.4877 13.7764H88.5181L83.0572 0.268373ZM79.1365 8.00639L80.7935 3.57827L82.3337 8.00639H79.1365ZM51.2952 0C47.8413 0 44.3874 2.28115 44.3874 6.93291C44.3874 11.4728 47.2812 14 51.2952 14C54.9592 14 58.273 11.6965 58.273 6.93291C58.273 2.50479 55.3792 0 51.2952 0ZM51.2952 10.6454C49.1482 10.6454 48.4014 9.21406 48.4014 6.95527C48.4014 4.65176 49.4749 3.377 51.2952 3.377C53.4422 3.377 54.2357 4.80831 54.2357 6.95527C54.2357 9.30352 53.1855 10.6454 51.2952 10.6454ZM70.1284 8.67732C71.6219 8.00639 72.4387 6.57508 72.4387 4.89776C72.4387 1.83386 70.5718 0.246008 66.5578 0.246008H60.3967V13.754H64.2707V9.46007H66.6744L67.7713 11.8083C68.4014 13.1502 69.1015 13.7764 70.8751 13.7764H72.9522L70.1284 8.67732ZM66.021 6.48562H64.2707V3.30991H66.1143C67.818 3.30991 68.4014 3.77955 68.4014 4.89776C68.4014 6.01597 67.7246 6.48562 66.021 6.48562ZM125.064 0.268373H128.961L132.602 6.39617L136.056 0.268373H138.086C139.487 0.268373 140 0.894567 140 2.10223V13.7764H136.289V5.63579L133.839 9.88499H131.155L128.705 5.63579V13.754H125.018L125.064 0.268373ZM118.18 0.268373H120.28C121.587 0.268373 122.147 0.894567 122.147 2.10223V13.7764H118.156L118.18 0.268373ZM116.499 3.60064H112.322V13.7764H108.331V3.60064H103.991V0.268373H114.586C115.916 0.268373 116.476 0.894567 116.476 2.10223L116.499 3.60064ZM89.6616 0.268373H93.2322L98.6231 7.98403V0.268373H100.42C101.75 0.268373 102.31 0.894567 102.31 2.10223V13.7764H98.7865L93.3489 6.28435V13.7764H89.6383L89.6616 0.268373ZM43.4539 3.60064H39.2999V13.7764H35.3092V3.60064H30.9685V0.268373H41.5636C42.8938 0.268373 43.4539 0.894567 43.4539 2.10223V3.60064ZM23.0572 0C19.6033 0 16.1494 2.28115 16.1494 6.93291C16.1494 11.4728 19.0432 14 23.0572 14C26.7211 14 30.035 11.6965 30.035 6.93291C30.035 2.50479 27.1179 0 23.0572 0ZM23.0572 10.6454C20.9102 10.6454 20.1634 9.21406 20.1634 6.95527C20.1634 4.65176 21.2369 3.377 23.0572 3.377C25.2042 3.377 25.9977 4.80831 25.9977 6.95527C25.9977 9.30352 24.9475 10.6454 23.0572 10.6454ZM5.22754 2.1246C4.73746 0.738019 3.73396 0.246008 2.07701 0.246008H0L4.80747 11.5399C5.46091 13.1054 6.37106 13.9329 8.028 13.9329C8.51809 13.9329 8.91482 13.8658 9.28822 13.7316L5.22754 2.1246ZM11.8086 0.268373L8.84481 7.89457C8.65811 8.34186 8.65811 8.85623 8.82147 9.30352L10.1984 13.1725C10.5951 12.8147 10.8985 12.3227 11.1552 11.6965L15.986 0.268373H11.8086Z" fill="#4A5567"/>
</svg>
