<svg width="502" height="407" viewBox="0 0 502 407" fill="none" xmlns="http://www.w3.org/2000/svg">
<g clip-path="url(#clip0_933_585)">
<path d="M271.152 406.985C151.888 407.612 29.2311 388.921 6.01141 262.781C-19.169 125.975 39.3779 67.5596 95.6356 62.8904C151.893 58.2212 254.212 107.288 254.212 107.288C254.212 107.288 213.391 77.5701 240.224 47.9817C267.056 18.3933 302.632 30.5791 376.511 58.042C409.45 70.2875 468.534 82.5978 471.375 122.157C474.854 170.537 379.397 158.809 379.397 158.809C379.397 158.809 477.148 188.751 494.466 240.675C511.783 292.599 520.437 405.681 271.157 406.99L271.152 406.985Z" fill="white"/>
<path d="M253.884 309.767C253.884 309.767 255.098 323.237 256.387 324.756C257.676 326.274 293.6 320.838 315.715 319.808C315.715 319.808 339.079 308.677 347.061 308.244C355.043 307.811 365.523 316.811 366.877 319.141C368.23 321.47 370.624 334.413 368.808 334.916C366.991 335.418 363.548 334.159 362.896 329.101C362.244 324.044 361.388 321.097 355.297 318.713C355.297 318.713 358.148 321.455 358.9 323.471C359.651 325.487 359.79 338.48 358.92 339.649C358.049 340.819 353.456 339.973 352.804 335.692C352.152 331.411 353.321 325.662 348.594 323.511C348.594 323.511 350.32 325.069 351.147 327.2C351.973 329.33 351.978 338.654 351.599 341.103C351.221 343.552 347.111 343.935 345.678 339.913C344.244 335.891 345.389 330.505 344.224 328.708C343.717 327.927 342.025 327.145 342.025 327.145C342.025 327.145 343.747 328.937 344.006 330.535C344.264 332.133 344.926 344.08 343.622 345.588C342.816 346.524 338.586 345.747 338.352 341.367C338.118 336.986 338.327 334.99 337.442 335.503C337.442 335.503 332.659 339.097 324.871 340.446C317.083 341.795 310.291 338.405 310.291 338.405C272.789 354.205 240.905 360.746 237.342 358.441C233.779 356.136 232.217 354.1 225.673 341.163C219.134 328.22 216.745 310.753 216.745 310.753L253.884 309.777V309.767Z" fill="#E58E73"/>
<path d="M177.746 177.615C177.746 177.615 150.848 156.499 137.472 166.425C131.5 170.855 137.318 176.356 130.983 181.418C121.329 189.134 108.773 180.856 101.896 191.712C96.2776 200.583 102.926 206.661 102.792 214.765C102.657 222.869 95.6904 221.241 95.6307 229.982C95.5709 238.723 104.802 251.019 122.702 242.965L169.092 213.082L177.741 177.615H177.746Z" fill="#10203F"/>
<path d="M227.504 326.304C227.504 326.304 229.077 322.874 230.913 316.975C245.822 314.855 254.207 310.843 254.207 310.843C254.207 310.843 250.316 251.422 235.879 236.623C224.031 224.482 212.371 222.063 203.588 215.571C200.005 212.923 200.891 207.731 200.891 207.731L186.33 186.67L166.23 191.344C166.23 191.344 164.051 204.69 157.238 209.698C151.515 213.904 124.578 220.793 117.273 236.055C109.968 251.317 108.679 286.352 111.903 309.349C111.903 309.349 120.174 313.6 134.212 315.159C141.343 315.95 147.285 315.85 151.844 315.452L129.977 337.554L106.28 369.532L225.673 371.777L232.137 358.844L228.604 347.53L227.514 326.299L227.504 326.304Z" fill="#FDC94E"/>
<path d="M203.588 215.576C200.005 212.928 200.891 207.736 200.891 207.736L186.33 186.675L166.23 191.349C166.23 191.349 164.051 204.695 157.238 209.702C157.233 209.702 157.223 209.712 157.218 209.717C160.423 214.123 169.753 226.498 177.745 232.531C189.44 241.362 202.642 242.049 207.708 218.259C206.275 217.428 204.901 216.547 203.588 215.581V215.576Z" fill="#E58E73"/>
<path d="M244.899 174.97C246.564 163.058 241.485 152.502 233.553 151.393C225.621 150.283 217.842 159.04 216.177 170.952C214.511 182.864 219.591 193.42 227.523 194.529C235.455 195.639 243.234 186.882 244.899 174.97Z" fill="#60C0F6"/>
<path d="M226.917 179.054C226.917 179.054 266.006 143.173 233.64 107.159C201.274 71.1437 119.134 103.928 157.168 174.175C179.383 215.203 226.912 179.059 226.912 179.059L226.917 179.054Z" fill="#10203F"/>
<path d="M176.676 148.858C176.676 148.858 220.955 148.858 237.671 136.219C237.671 136.219 240.99 214.212 200.537 209.488C160.084 204.764 164.17 164.045 164.17 164.045C164.17 164.045 174.506 160.855 176.676 148.858Z" fill="#F8A280"/>
<path d="M230.913 316.961C245.822 314.84 254.207 310.828 254.207 310.828C254.207 310.828 250.316 251.407 235.879 236.608C232.63 233.278 229.395 230.679 226.23 228.529C229.679 237.265 233.814 250.561 235.82 267.64C238.248 288.278 234.172 306.502 230.913 316.961Z" fill="#F0B142"/>
<path d="M180.741 74.4788C201.302 74.4788 217.969 57.8061 217.969 37.2394C217.969 16.6726 201.302 0 180.741 0C160.181 0 143.513 16.6726 143.513 37.2394C143.513 57.8061 160.181 74.4788 180.741 74.4788Z" fill="#285B8E"/>
<path d="M337.387 101.578C358.747 101.578 376.063 84.2571 376.063 62.8903C376.063 41.5236 358.747 24.2024 337.387 24.2024C316.027 24.2024 298.711 41.5236 298.711 62.8903C298.711 84.2571 316.027 101.578 337.387 101.578Z" fill="#285B8E"/>
<path d="M123.757 136.13C126.967 130.584 128.808 124.148 128.808 117.283C128.808 96.4561 111.928 79.5762 91.1122 79.5762C70.2961 79.5762 53.4163 96.4611 53.4163 117.283C53.4163 138.106 70.2961 154.991 91.1122 154.991C97.9795 154.991 104.409 153.144 109.953 149.938L118.686 152.278L128.808 154.991L126.096 144.866L123.757 136.13Z" fill="#285B8E"/>
<path d="M353.67 130.569H287.902C283.14 130.569 279.283 134.427 279.283 139.191V146.19L275.197 148.549L271.112 150.909L275.197 153.268L279.283 155.628V162.627C279.283 167.391 283.14 171.248 287.902 171.248H353.67C358.432 171.248 362.289 167.391 362.289 162.627V139.191C362.289 134.427 358.432 130.569 353.67 130.569Z" fill="#285B8E"/>
<path d="M491.978 374.684H42.7271C39.8856 374.684 37.5815 372.379 37.5815 369.536C37.5815 366.694 39.8856 364.389 42.7271 364.389H491.978C494.819 364.389 497.123 366.694 497.123 369.536C497.123 372.379 494.819 374.684 491.978 374.684Z" fill="#00437F"/>
<path d="M162.891 49.5645L180.741 37.4284V15.8345" stroke="white" stroke-width="8" stroke-miterlimit="10" stroke-linecap="round"/>
<path d="M208.121 205.491C208.121 205.491 176.148 208.035 163.419 179.522" stroke="#4291C4" stroke-width="6" stroke-miterlimit="10"/>
<path d="M157.79 314.671C157.79 314.671 157.88 328.196 159.039 329.818C160.199 331.441 196.452 329.007 218.572 329.818C218.572 329.818 242.777 320.664 250.769 320.898C258.761 321.132 268.455 330.973 269.614 333.402C270.774 335.832 272.082 348.933 270.226 349.282C268.37 349.63 265.051 348.092 264.817 342.995C264.583 337.897 263.981 334.891 258.104 332.009C258.104 332.009 260.721 334.98 261.299 337.051C261.876 339.122 260.94 352.079 259.975 353.174C259.009 354.27 254.506 353.045 254.207 348.724C253.909 344.403 255.556 338.769 251.022 336.235C251.022 336.235 252.615 337.927 253.257 340.122C253.899 342.318 253.137 351.606 252.555 354.011C251.973 356.415 247.848 356.46 246.753 352.333C245.658 348.207 247.245 342.93 246.235 341.043C245.797 340.222 244.17 339.301 244.17 339.301C244.17 339.301 245.738 341.233 245.867 342.845C245.996 344.458 245.663 356.42 244.235 357.819C243.354 358.68 239.204 357.56 239.333 353.174C239.462 348.789 239.841 346.818 238.915 347.256C238.915 347.256 233.854 350.442 225.976 351.138C218.099 351.835 211.615 347.893 211.615 347.893C172.928 360.522 140.612 364.39 137.253 361.796C133.894 359.203 132.506 357.047 127.061 343.607C121.617 330.167 120.692 312.56 120.692 312.56L157.78 314.676L157.79 314.671Z" fill="#F8A280"/>
<path d="M117.273 236.06C109.968 251.322 108.679 286.356 111.903 309.354C111.903 309.354 120.174 313.605 134.212 315.163C151.923 317.13 162.324 313.605 162.324 313.605C160.721 277.411 153.162 245.613 153.162 245.613L117.278 236.055L117.273 236.06Z" fill="#FDC94E"/>
<path d="M207.111 211.594C212.696 211.594 217.223 208.646 217.223 205.008C217.223 201.371 212.696 198.423 207.111 198.423C201.526 198.423 196.999 201.371 196.999 205.008C196.999 208.646 201.526 211.594 207.111 211.594Z" fill="#4291C4"/>
<path d="M233.64 107.153C228.733 101.693 222.687 97.82 216.088 95.4107C207.231 92.9815 198.064 93.7082 188.873 97.6507C173.755 104.137 163.911 116.661 160.398 133.87C157.78 146.693 159.582 157.48 159.661 157.933L164.568 157.091C164.548 156.987 162.841 146.643 165.31 134.711C168.549 119.031 177.138 108.104 190.838 102.225C206.295 95.5899 221.154 99.0744 235.004 112.564C238.223 115.7 241.015 119.046 243.349 122.187C241.314 117.244 238.183 112.196 233.65 107.148L233.64 107.153Z" fill="#4291C4"/>
<path d="M200.933 175.096C202.422 174.805 203.294 172.856 202.88 170.744C202.467 168.631 200.925 167.155 199.436 167.446C197.947 167.737 197.075 169.686 197.489 171.799C197.902 173.911 199.444 175.388 200.933 175.096Z" fill="#10203F"/>
<path d="M229.872 169.919C229.979 167.769 229.006 165.974 227.699 165.909C226.393 165.844 225.247 167.535 225.141 169.685C225.034 171.834 226.007 173.63 227.313 173.695C228.62 173.76 229.766 172.069 229.872 169.919Z" fill="#10203F"/>
<path d="M216.596 177.854C216.596 177.854 218.358 186.058 216.596 188.168" stroke="#ED8E6E" stroke-width="4" stroke-miterlimit="10" stroke-linecap="round"/>
<path d="M337.387 63.7415C343.73 63.7415 348.872 58.5977 348.872 52.2526C348.872 45.9074 343.73 40.7637 337.387 40.7637C331.044 40.7637 325.902 45.9074 325.902 52.2526C325.902 58.5977 331.044 63.7415 337.387 63.7415Z" fill="white"/>
<path d="M337.387 96.6503C344.777 96.6503 351.604 94.2758 357.163 90.2487C358.92 88.9744 359.771 86.7891 359.363 84.6536L357.89 76.9678C356.869 71.6664 352.212 67.6592 346.613 67.6592H330.55C324.941 67.6592 320.273 71.6813 319.263 77.0026L317.546 86.0673C317.108 88.387 318.163 90.7365 320.194 91.9412C325.23 94.9329 331.107 96.6552 337.392 96.6552L337.387 96.6503Z" fill="white"/>
<path d="M180.741 41.7791C183.248 41.7791 185.28 39.7465 185.28 37.2393C185.28 34.732 183.248 32.6995 180.741 32.6995C178.235 32.6995 176.203 34.732 176.203 37.2393C176.203 39.7465 178.235 41.7791 180.741 41.7791Z" fill="white"/>
<path d="M493.397 175.294H485.41C484.718 175.294 484.116 174.831 483.917 174.169C482.941 170.928 481.643 167.827 480.06 164.905C479.727 164.292 479.826 163.541 480.319 163.048L485.927 157.438C486.534 156.831 486.534 155.845 485.927 155.238L469.595 138.9C468.988 138.293 468.002 138.293 467.395 138.9L461.747 144.55C461.254 145.043 460.508 145.138 459.896 144.814C456.97 143.241 453.865 141.952 450.62 140.991C449.953 140.792 449.49 140.19 449.49 139.493V131.558C449.49 130.697 448.794 130 447.933 130H424.837C423.977 130 423.28 130.697 423.28 131.558V139.548C423.28 140.239 422.817 140.842 422.155 141.041C418.916 142.017 415.815 143.316 412.894 144.899C412.282 145.232 411.531 145.133 411.038 144.64L405.43 139.03C404.823 138.423 403.837 138.423 403.23 139.03L386.898 155.367C386.291 155.974 386.291 156.96 386.898 157.567L392.546 163.217C393.039 163.71 393.133 164.457 392.81 165.069C391.237 167.996 389.948 171.102 388.988 174.348C388.789 175.015 388.187 175.478 387.49 175.478H379.558C378.697 175.478 378 176.175 378 177.036V200.138C378 200.999 378.697 201.696 379.558 201.696H387.545C388.236 201.696 388.839 202.159 389.038 202.821C390.013 206.062 391.312 209.163 392.894 212.085C393.228 212.697 393.128 213.449 392.635 213.942L387.027 219.552C386.42 220.159 386.42 221.145 387.027 221.752L403.36 238.089C403.967 238.697 404.952 238.697 405.559 238.089L411.207 232.439C411.7 231.947 412.446 231.852 413.058 232.176C415.985 233.749 419.09 235.038 422.334 235.999C423.001 236.198 423.464 236.8 423.464 237.497V245.432C423.464 246.293 424.161 246.99 425.022 246.99H448.117C448.978 246.99 449.674 246.293 449.674 245.432V237.442C449.674 236.75 450.137 236.148 450.799 235.949C454.039 234.973 457.139 233.674 460.06 232.091C460.672 231.757 461.424 231.857 461.916 232.35L467.525 237.96C468.132 238.567 469.117 238.567 469.724 237.96L486.057 221.623C486.664 221.015 486.664 220.03 486.057 219.422L480.408 213.772C479.916 213.28 479.821 212.533 480.145 211.921C481.717 208.994 483.006 205.888 483.967 202.642C484.166 201.975 484.768 201.512 485.464 201.512H493.397C494.258 201.512 494.954 200.815 494.954 199.954V176.852C494.954 175.99 494.258 175.294 493.397 175.294ZM436.472 210.756C424.181 210.756 414.218 200.79 414.218 188.495C414.218 176.2 424.181 166.234 436.472 166.234C448.764 166.234 458.726 176.2 458.726 188.495C458.726 200.79 448.764 210.756 436.472 210.756Z" fill="#A5C5E9"/>
<path d="M335.895 222.719H331.889C331.541 222.719 331.242 222.49 331.138 222.156C330.65 220.529 329.998 218.976 329.202 217.507C329.038 217.199 329.082 216.82 329.331 216.576L332.143 213.764C332.446 213.46 332.446 212.962 332.143 212.659L323.952 204.465C323.648 204.161 323.15 204.161 322.847 204.465L320.01 207.303C319.767 207.546 319.388 207.596 319.08 207.432C317.612 206.64 316.054 205.998 314.427 205.515C314.094 205.416 313.86 205.112 313.86 204.764V200.782C313.86 200.348 313.511 200 313.078 200H301.493C301.06 200 300.712 200.348 300.712 200.782V204.789C300.712 205.137 300.483 205.436 300.15 205.54C298.523 206.028 296.97 206.68 295.502 207.477C295.193 207.641 294.815 207.596 294.571 207.347L291.76 204.535C291.456 204.231 290.958 204.231 290.655 204.535L282.464 212.728C282.16 213.032 282.16 213.53 282.464 213.833L285.3 216.671C285.544 216.915 285.594 217.293 285.43 217.602C284.638 219.07 283.997 220.628 283.514 222.256C283.414 222.59 283.111 222.824 282.762 222.824H278.781C278.348 222.824 278 223.172 278 223.605V235.193C278 235.627 278.348 235.975 278.781 235.975H282.787C283.136 235.975 283.434 236.204 283.539 236.538C284.026 238.165 284.678 239.718 285.474 241.187C285.639 241.495 285.594 241.874 285.345 242.118L282.533 244.93C282.23 245.234 282.23 245.732 282.533 246.035L290.725 254.229C291.028 254.532 291.526 254.532 291.829 254.229L294.666 251.391C294.91 251.148 295.288 251.098 295.596 251.262C297.064 252.054 298.622 252.696 300.249 253.179C300.583 253.278 300.817 253.582 300.817 253.93V257.912C300.817 258.346 301.165 258.694 301.598 258.694H313.183C313.616 258.694 313.964 258.346 313.964 257.912V253.905C313.964 253.557 314.193 253.258 314.526 253.154C316.154 252.666 317.706 252.014 319.174 251.217C319.483 251.053 319.861 251.098 320.105 251.347L322.917 254.159C323.22 254.463 323.718 254.463 324.021 254.159L332.212 245.966C332.516 245.662 332.516 245.164 332.212 244.86L329.376 242.023C329.132 241.779 329.082 241.401 329.247 241.092C330.038 239.624 330.68 238.066 331.162 236.438C331.262 236.104 331.566 235.87 331.914 235.87H335.895C336.328 235.87 336.676 235.522 336.676 235.089V223.501C336.676 223.067 336.328 222.719 335.895 222.719ZM307.341 240.51C301.175 240.51 296.174 235.512 296.174 229.34C296.174 223.167 301.17 218.169 307.341 218.169C313.511 218.169 318.508 223.167 318.508 229.34C318.508 235.512 313.511 240.51 307.341 240.51Z" fill="#A5C5E9"/>
<path d="M469.868 261.925H343.234C341.184 261.925 339.263 262.936 338.104 264.628L276.526 354.479C275.695 355.693 274.317 356.42 272.844 356.42H219.597C218.024 356.42 216.75 357.694 216.75 359.267V364.39H396.74V360.85C399.683 360.85 402.458 359.482 404.249 357.147L473.336 267.107C473.69 266.649 473.729 266.027 473.451 265.524L472.182 263.274C471.709 262.438 470.828 261.925 469.873 261.925H469.868Z" fill="#1C5B96"/>
<path d="M399.865 360.85H280.388C279.243 360.85 278.571 359.571 279.218 358.625L340.731 268.864C341.811 267.291 343.592 266.351 345.498 266.351H472.097C472.838 266.351 473.261 267.202 472.809 267.794L402.343 359.626C401.751 360.397 400.836 360.85 399.865 360.85Z" fill="#104D87"/>
<path fill-rule="evenodd" clip-rule="evenodd" d="M383.921 322.725C381.896 325.617 377.905 327.961 375.003 327.961C372.102 327.961 371.396 325.617 373.416 322.725C375.441 319.833 379.432 317.488 382.334 317.488C385.235 317.488 385.946 319.833 383.921 322.725Z" fill="#1C5B96"/>
<path fill-rule="evenodd" clip-rule="evenodd" d="M367.867 304.396C369.893 301.504 373.884 299.16 376.785 299.16C379.686 299.16 380.398 301.504 378.372 304.396C376.347 307.289 372.356 309.633 369.455 309.633C366.554 309.633 365.842 307.289 367.867 304.396Z" fill="#1C5B96"/>
<path fill-rule="evenodd" clip-rule="evenodd" d="M390.848 310.23C389.206 311.196 387.534 311.754 385.976 312.092C383.055 312.719 379.811 314.004 376.511 315.94C373.252 317.856 370.35 320.171 368.002 322.615C366.683 323.984 365.175 325.313 363.468 326.314C359.159 328.788 355.078 328.763 354.312 326.229C353.545 323.695 356.377 319.604 360.662 317.035C362.368 316.035 364.105 315.452 365.727 315.099C368.624 314.466 371.838 313.187 375.098 311.276C378.392 309.339 381.318 306.995 383.682 304.521C384.941 303.202 386.399 301.922 388.041 300.957C392.386 298.423 396.526 298.433 397.297 300.986C398.069 303.54 395.187 307.672 390.853 310.235L390.848 310.23Z" fill="#1C5B96"/>
<path d="M96.805 104.456H85.4141C84.3591 104.456 83.3788 105.018 82.8513 105.934L77.1583 115.8C76.6308 116.716 76.6308 117.846 77.1583 118.757L82.8513 128.623C83.3788 129.539 84.3541 130.102 85.4141 130.102H96.805C97.86 130.102 98.8403 129.539 99.3678 128.623L105.061 118.757C105.588 117.841 105.588 116.711 105.061 115.8L99.3678 105.934C98.8403 105.018 97.8649 104.456 96.805 104.456Z" fill="white"/>
<path d="M166.489 194.254C174.349 192.715 178.849 181.899 176.54 170.096C174.231 158.292 165.988 149.97 158.128 151.508C150.269 153.046 145.769 163.862 148.077 175.666C150.386 187.47 158.629 195.792 166.489 194.254Z" fill="#60BFF7"/>
<path d="M161.411 188.556C166.263 187.606 168.898 180.196 167.296 172.004C165.694 163.813 160.461 157.943 155.609 158.892C150.757 159.842 148.122 167.252 149.724 175.443C151.326 183.635 156.559 189.505 161.411 188.556Z" fill="#4782DC"/>
</g>
<defs>
<clipPath id="clip0_933_585">
<rect width="502" height="407" fill="white"/>
</clipPath>
</defs>
</svg>
