<?xml version="1.0" encoding="UTF-8"?>
<svg id="Layer_4" data-name="Layer 4" xmlns="http://www.w3.org/2000/svg" xmlns:xlink="http://www.w3.org/1999/xlink" viewBox="0 0 277.92 186.23">
  <defs>
    <style>
      .cls-1 {
        fill: url(#linear-gradient);
      }

      .cls-2 {
        fill: #f2f2f2;
      }

      .cls-3 {
        fill: #050505;
      }

      .cls-4 {
        fill: #7f7f7f;
      }

      .cls-5 {
        fill: #848484;
      }

      .cls-6 {
        fill: #b7b7b7;
      }

      .cls-7 {
        fill: #9e9e9e;
      }

      .cls-8 {
        fill: #c1c1c1;
      }

      .cls-9 {
        fill: #666;
      }

      .cls-10 {
        fill: #aaaaac;
      }

      .cls-11 {
        fill: #bcbcbc;
      }

      .cls-12 {
        fill: #d8d8d8;
      }

      .cls-13 {
        fill: #c7c9ca;
      }

      .cls-14 {
        fill: #d3d3d3;
      }

      .cls-15 {
        fill: #444;
      }

      .cls-16 {
        fill: #a3a3a3;
      }

      .cls-17 {
        fill: #9b9b9b;
      }

      .cls-18 {
        fill: #727272;
      }

      .cls-19 {
        fill: #353536;
      }

      .cls-20 {
        fill: #353535;
      }

      .cls-21 {
        fill: #494949;
      }

      .cls-22 {
        fill: #606060;
      }

      .cls-23 {
        opacity: .5;
      }

      .cls-23, .cls-24 {
        fill: #d7e9f4;
      }

      .cls-24 {
        opacity: .8;
      }
    </style>
    <linearGradient id="linear-gradient" x1="62.22" y1="17.22" x2="145.27" y2="119.84" gradientUnits="userSpaceOnUse">
      <stop offset=".03" stop-color="#66b3f6"/>
      <stop offset="1" stop-color="#447db4"/>
    </linearGradient>
  </defs>
  <g>
    <g>
      <g>
        <path class="cls-12" d="M227.83,100.94c-.78,0-1.52-.21-2.09-.59-.68-.45-1.07-1.12-1.07-1.84l.08-15.25c-1.26-.31-2.41-.81-3.38-1.45-1.89-1.26-2.92-2.96-2.92-4.8l.04-7.73c-1.58-1.45-2.42-3.2-2.4-5.03-1.92-1.76-2.96-3.92-2.96-6.14l.05-3.34-12.08-6.98v-13.72l-4.27-2.47c-.78-.45-1.28-.51-1.51-.51-.13,0-.24,.02-.31,.06-.18,.1-.51,.61-.51,1.8v14.99c0,3.04-1.17,5.38-3.29,6.61-.93,.54-1.97,.81-3.08,.81-1.39,0-2.84-.43-4.29-1.26l-6.49-3.75c-.64-.37-1.1-.97-1.29-1.69-.19-.72-.09-1.46,.28-2.11,.49-.86,1.42-1.39,2.41-1.39,.48,0,.96,.13,1.39,.37l6.49,3.75c.78,.45,1.28,.52,1.51,.52,.13,0,.24-.02,.31-.06,.18-.1,.51-.61,.51-1.8v-14.99c0-3.04,1.17-5.38,3.29-6.61,.93-.54,1.97-.81,3.08-.81,1.39,0,2.84,.43,4.29,1.26l1.5,.81v-10.89L227.48,1.48l.57-.33,26.95,15.56v31.08l-12.04,6.95-.05,3.57c-.01,2.22-1.08,4.38-3.02,6.11,0,1.83-.85,3.57-2.45,4.99l-.04,7.71c0,1.84-1.05,3.52-2.94,4.76-.98,.64-2.15,1.12-3.42,1.42l-.08,15.24c0,.71-.4,1.38-1.08,1.83-.56,.37-1.29,.57-2.04,.57Z"/>
        <path d="M228.04,2.31l25.95,14.98v29.93l-12.04,6.95v.02s-.05,4.12-.05,4.12v-.02c0,2.02-1.01,4.03-3.02,5.68l-.03-.04c.19,1.79-.63,3.6-2.45,5.05l.03,.04-.04,8.11h0c0,1.42-.83,2.84-2.49,3.92-1.11,.72-2.44,1.2-3.85,1.43v-.02s-.1,16.08-.1,16.08h0c0,.36-.21,.72-.63,.99-.41,.27-.95,.41-1.5,.41s-1.11-.14-1.54-.42c-.42-.28-.63-.64-.63-1h0s.08-16.08,.08-16.08v.02c-1.4-.25-2.73-.75-3.82-1.48-1.65-1.1-2.48-2.54-2.48-3.97h0s.04-8.12,.04-8.12l.03-.03c-1.78-1.46-2.59-3.27-2.4-5.03-1.99-1.67-2.99-3.69-2.99-5.7l.06-3.89v-.02c-6.17-3.57-12.09-6.99-12.09-6.99v-13.72l-4.77-2.76c-.74-.43-1.44-.65-2.01-.65-.31,0-.58,.06-.81,.19-.64,.37-1.01,1.34-1.01,2.66v14.99c0,2.66-.99,4.7-2.79,5.74-.78,.45-1.65,.68-2.58,.68h0c-1.2,0-2.49-.38-3.79-1.13l-6.49-3.75c-.85-.49-1.14-1.58-.65-2.43,.33-.57,.93-.89,1.54-.89,.3,0,.61,.08,.89,.24l6.49,3.75c.74,.43,1.44,.65,2.01,.65,.31,0,.58-.06,.81-.19,.64-.37,1.01-1.34,1.01-2.66v-14.99c0-2.66,.99-4.7,2.79-5.74,.78-.45,1.65-.68,2.58-.68,1.2,0,2.49,.38,3.79,1.13l3,1.62v-11.99l25.95-14.98m0,0l-25.95,14.98,25.89-14.95,.06-.04m0-2.31l-1,.58h0l-.06,.04-25.89,14.95-1,.58v9.79h-.02c-1.6-.93-3.2-1.4-4.76-1.4-1.29,0-2.49,.32-3.58,.94-2.44,1.41-3.79,4.07-3.79,7.47v14.99c0,.37-.04,.63-.08,.81-.18-.05-.43-.15-.74-.33l-6.49-3.75c-.57-.33-1.23-.51-1.89-.51-1.35,0-2.6,.72-3.27,1.89-1.04,1.8-.42,4.12,1.38,5.16l6.49,3.75c1.61,.93,3.22,1.4,4.79,1.4,1.29,0,2.49-.32,3.58-.94,2.44-1.41,3.79-4.07,3.79-7.47v-14.99c0-.37,.04-.63,.08-.81,.18,.05,.43,.15,.74,.33l3.77,2.18v13.72l1,.58,11.07,6.39-.04,2.74c0,2.4,1.05,4.71,2.97,6.6,.11,1.81,.94,3.56,2.38,5.01l-.04,7.28c0,2.18,1.23,4.23,3.37,5.66,.86,.57,1.85,1.04,2.93,1.38l-.07,14.49c0,1.06,.55,2.04,1.52,2.68,.74,.49,1.68,.76,2.65,.76s1.87-.26,2.59-.73c.97-.63,1.53-1.6,1.54-2.66h0l.07-14.48c1.09-.33,2.1-.78,2.97-1.35,2.15-1.4,3.38-3.44,3.39-5.59h0l.04-7.28c1.46-1.43,2.31-3.17,2.44-4.97,1.95-1.87,3.02-4.16,3.04-6.55h0l.04-3.01,11.05-6.38,1-.58V16.14l-1-.58L229.04,.58l-1-.58h0Z"/>
      </g>
      <g>
        <path class="cls-2" d="M230.04,82.46l-.08,16.08h0c0,.36-.21,.72-.63,.99-.84,.55-2.2,.54-3.03-.02-.42-.28-.63-.64-.63-1,0,0,.08-16.08,.08-16.08l4.29,.03Z"/>
        <path class="cls-8" d="M236.44,69.02l-.04,8.11h0c0,1.42-.83,2.84-2.49,3.92-3.31,2.16-8.68,2.13-11.99-.08-1.65-1.1-2.48-2.54-2.48-3.97h0s.04-8.13,.04-8.13l16.95,.14Z"/>
        <path class="cls-11" d="M236.44,69c0,1.43-.83,2.86-2.49,3.94-3.31,2.16-8.68,2.13-11.99-.08-1.65-1.1-2.48-2.54-2.48-3.97l16.95,.11Z"/>
        <path class="cls-18" d="M238.86,63.93c.21,2.01-.84,4.06-3.17,5.58-4.26,2.78-11.16,2.74-15.41-.1-2.31-1.54-3.37-3.59-3.16-5.59l21.75,.11Z"/>
        <path class="cls-16" d="M241.97,54.19l-.06,4.12v-.02c0,2.35-1.36,4.68-4.08,6.45-5.43,3.54-14.23,3.49-19.65-.12-.39-.26-.74-.53-1.07-.8-1.99-1.67-2.99-3.69-2.99-5.7l.06-3.89,27.79-.04Z"/>
        <polygon class="cls-7" points="254 47.22 254 17.29 228.04 32.28 228.04 62.21 254 47.22"/>
        <polygon class="cls-14" points="254 17.29 228.04 2.31 202.09 17.29 202.09 17.29 228.04 32.28 254 17.29"/>
        <polygon class="cls-15" points="246.22 33.83 236.05 39.69 236.05 40.59 246.22 34.73 246.22 33.83"/>
        <polygon class="cls-15" points="246.22 35.45 236.05 41.31 236.05 42.21 246.22 36.35 246.22 35.45"/>
        <polygon class="cls-15" points="246.22 37.07 236.05 42.93 236.05 43.83 246.22 37.97 246.22 37.07"/>
        <polygon class="cls-15" points="246.22 38.69 236.05 44.55 236.05 45.45 246.22 39.59 246.22 38.69"/>
        <polygon class="cls-15" points="246.22 40.3 236.05 46.17 236.05 47.07 246.22 41.2 246.22 40.3"/>
        <polygon class="cls-15" points="246.22 41.92 236.05 47.79 236.05 48.69 246.22 42.82 246.22 41.92"/>
        <ellipse class="cls-7" cx="222.14" cy="76.69" rx="1.19" ry="1.8" transform="translate(-8.81 120.16) rotate(-29.71)"/>
        <ellipse class="cls-9" cx="236.44" cy="61.21" rx="1.75" ry="1.15" transform="translate(64.32 234.49) rotate(-59.71)"/>
        <path class="cls-15" d="M202.1,33.5l-4.78-2.76c-1.14-.66-2.17-.83-2.81-.45-.64,.37-1.01,1.34-1.01,2.66v14.99c0,2.66-.99,4.7-2.79,5.74-.78,.45-1.65,.68-2.58,.68-1.2,0-2.49-.38-3.79-1.13l-6.49-3.75c-.85-.49-1.14-1.58-.65-2.43,.49-.85,1.58-1.14,2.43-.65l6.49,3.75c1.14,.66,2.17,.83,2.81,.45,.64-.37,1.01-1.34,1.01-2.66v-14.99c0-2.66,.99-4.7,2.79-5.74,1.8-1.04,4.06-.88,6.37,.45l3,1.62v4.22Z"/>
        <polygon class="cls-11" points="228.04 32.28 202.09 17.29 202.09 47.22 228.04 62.21 228.04 32.28"/>
      </g>
    </g>
    <g>
      <path d="M227.8,108.34l48.13,27.79v5.71l-4.14,2.39,.06,3.67,4.08,2.34v5.9l-48.13,27.79-48.13-27.63v-6.05l4.08-2.34v-3.57l-4.08-2.34v-6.05l48.13-27.59m0-2.31l-1,.57-48.13,27.59-1.01,.58v8.37l1,.58,3.07,1.76v1.25l-3.07,1.76-1.01,.58v8.37l1,.58,48.13,27.63,1,.57,1-.58,48.13-27.79,1-.58v-8.21l-1.01-.58-3.09-1.77-.02-1.36,3.12-1.8,1-.58v-8.02l-1-.58-48.13-27.79-1-.58h0Z"/>
      <g>
        <polygon class="cls-17" points="227.8 183.92 179.67 156.28 179.67 150.23 227.86 177.98 227.8 183.92"/>
        <polygon class="cls-11" points="271.85 147.9 275.92 150.23 227.86 177.98 227.76 177.92 179.67 150.23 183.75 147.9 183.75 150.23 227.8 175.52 271.85 150.23 271.85 147.9"/>
        <path class="cls-14" d="M179.67,135.94l48.09,27.69-48.09-27.69Z"/>
        <polygon class="cls-11" points="227.86 163.68 275.92 136.13 227.8 108.34 179.67 135.94 227.86 163.68"/>
        <polygon class="cls-17" points="179.67 135.94 179.67 141.99 227.8 169.62 227.86 163.68 179.67 135.94"/>
        <path class="cls-14" d="M242.92,137.79c-.55-1.97-1.98-3.85-4.3-5.38-6.05-3.99-15.84-4-21.86-.03-2.28,1.51-3.69,3.37-4.24,5.32,.55,1.97,1.98,3.85,4.3,5.38,6.05,3.99,15.84,4,21.86,.03,2.28-1.51,3.69-3.37,4.24-5.32Z"/>
        <ellipse class="cls-22" cx="227.76" cy="117.66" rx="1.85" ry="2.81" transform="translate(108.94 344.82) rotate(-89.71)"/>
        <ellipse class="cls-22" cx="191.78" cy="135.69" rx="1.85" ry="2.81" transform="translate(55.11 326.77) rotate(-89.71)"/>
        <ellipse class="cls-22" cx="263.66" cy="135.69" rx="1.85" ry="2.81" transform="translate(126.63 398.65) rotate(-89.71)"/>
        <ellipse class="cls-22" cx="227.76" cy="156.32" rx="1.85" ry="2.81" transform="translate(70.28 383.28) rotate(-89.71)"/>
        <polygon class="cls-4" points="227.86 177.98 275.92 150.23 275.92 156.13 227.8 183.92 227.86 177.98"/>
        <path class="cls-7" d="M212.52,137.7c.55-1.95,1.96-3.81,4.24-5.32,6.02-3.98,15.81-3.96,21.86,.03,2.31,1.52,3.75,3.41,4.3,5.38,.9-3.2-.54-6.63-4.3-9.11-6.05-3.99-15.84-4-21.86-.03-3.72,2.46-5.13,5.86-4.24,9.04Z"/>
        <polygon class="cls-4" points="227.86 163.68 227.8 169.62 275.92 141.84 275.92 136.13 227.86 163.68"/>
        <polygon class="cls-20" points="227.8 169.62 227.8 175.52 271.85 150.23 271.79 144.22 227.8 169.62"/>
      </g>
    </g>
    <polygon class="cls-21" points="227.8 169.62 227.8 175.52 183.75 150.23 183.75 144.33 227.8 169.62"/>
  </g>
  <g>
    <g>
      <path class="cls-10" d="M145.63,58.11L63.81,10.87c-.45-.26-.96-.2-1.33,.05h0s-1.11,.63-1.11,.63c0,0,0,0,0,0h0s0,0,0,0c-.37,.21-.63,.61-.63,1.09v63.8c0,1.53,.82,2.94,2.14,3.71l82.79,47.8c.4,.23,.85,.19,1.19-.03h0s1.11-.64,1.11-.64h0c.35-.19,.6-.55,.6-1.01V63.2c0-2.1-1.12-4.03-2.93-5.08Z"/>
      <path class="cls-20" d="M147.39,63.88v63.09c0,.88-.96,1.44-1.72,.99L62.88,80.16c-1.33-.77-2.14-2.18-2.14-3.71V12.65c0-.97,1.05-1.58,1.9-1.1l81.82,47.24c1.82,1.05,2.93,2.99,2.93,5.08Z"/>
      <polygon class="cls-1" points="146.09 63.15 145.73 122.8 61.93 74.55 62.28 14.9 146.09 63.15"/>
      <path class="cls-21" d="M62.88,80.16l82.79,47.8c.76,.44,1.72-.11,1.72-.99v-2L60.74,75.07v1.38c0,1.53,.82,2.94,2.14,3.71Z"/>
    </g>
    <path class="cls-10" d="M145.24,126.2s-7.26-4.19-7.26-4.19l-1.1,.63-68.27-39.41,1.1-.63-6.98-4.03c-1.27-.73-2.84-.73-4.11,0L2.81,110.79c-.54,.31-.81,.72-.81,1.13v2.33c0,.41,.27,.82,.81,1.13l82.7,47.75c.99,.57,2.21,.57,3.2,0l56.53-32.64c.38-.22,.57-.6,.57-.98v-2.33c0-.38-.19-.76-.57-.98Z"/>
    <path class="cls-13" d="M137.98,122.01l-1.1,.63-68.27-39.41s1.1-.63,1.1-.63l-6.98-4.03c-1.27-.73-2.84-.73-4.11,0L2.81,110.79c-.54,.31-.81,.72-.81,1.13,0,.41,.27,.82,.81,1.13l82.7,47.75c.99,.57,2.21,.57,3.2,0l56.53-32.64c.75-.44,.75-1.52,0-1.96,0,0-7.26-4.19-7.26-4.19Z"/>
    <path class="cls-6" d="M88.35,133.18c0,.37-.25,.74-.74,1.03,0,0-20.76,12-20.76,12-.49,.28-1.14,.43-1.78,.43-.64,0-1.29-.14-1.78-.43,0,0-35.46-20.46-35.46-20.46-.49-.28-.74-.66-.74-1.03,0-.37,.25-.74,.74-1.03,0,0,20.69-11.99,20.69-11.99,.49-.28,1.14-.43,1.78-.43,.64,0,1.29,.14,1.78,.43l35.53,20.45c.49,.28,.74,.66,.74,1.03Z"/>
    <path class="cls-5" d="M50.24,139.94l.04,.32c.02,.14-.02,.27-.11,.38l-.31,.36c-.15,.17-.4,.21-.6,.1l-10.86-6.27c-.15-.09-.24-.24-.24-.41v-.67c0-.17,.09-.33,.24-.41l.14-.08c.15-.09,.33-.09,.48,0l10.99,6.35c.13,.07,.22,.2,.23,.35Z"/>
    <path class="cls-3" d="M134.78,135.84l-1.53,.88c-.15,.09-.28,0-.28-.21h0c0-.2,.13-.44,.28-.53l1.53-.88c.15-.09,.28,0,.28,.21h0c0,.2-.13,.44-.28,.53Z"/>
    <path class="cls-3" d="M138.31,133.72l-1.53,.88c-.15,.09-.28,0-.28-.21h0c0-.2,.13-.44,.28-.53l1.53-.88c.15-.09,.28,0,.28,.21h0c0,.2-.13,.44-.28,.53Z"/>
    <path class="cls-19" d="M130.63,125.33c0,.37-.25,.74-.74,1.03,0,0-22.79,13.45-22.79,13.45-.49,.28-1.14,.43-1.78,.43-.64,0-1.29-.14-1.78-.43,0,0-64.64-37.15-64.64-37.15-.49-.28-.74-.66-.74-1.03,0-.37,.25-.74,.74-1.03,0,0,22.72-13.43,22.72-13.43,.49-.28,1.14-.43,1.78-.43s1.29,.14,1.78,.43l64.71,37.14c.49,.28,.74,.66,.74,1.03Z"/>
    <path d="M63.33,10.77c.18,0,.35,.03,.48,.1l81.82,47.24c1.82,1.05,2.93,2.99,2.93,5.08v63.09c0,.45-.25,.81-.6,1l-1.11,.64h0c-.16,.1-.35,.17-.55,.18,0,0-.02,0-.03,0,0,0-.02,0-.02,0,0,0,0,0-.01,0-.07,0-.15-.01-.22-.03-.02,0-.04,0-.05,0-.05-.01-.11-.04-.16-.06v1.49c0,.38-.19,.76-.57,.98l-56.53,32.64c-.5,.29-1.05,.43-1.6,.43s-1.11-.14-1.6-.43L2.81,115.38c-.54-.31-.81-.72-.81-1.13v-2.33h0c0-.31,.15-.61,.46-.88,.1-.09,.22-.17,.35-.25l55.81-32.22c.64-.37,1.35-.55,2.06-.55,.01,0,.02,0,.03,0,.11,0,.22,.01,.33,.02-.2-.5-.31-1.03-.31-1.58V12.65c0-.12,.02-.24,.05-.35,.02-.08,.06-.15,.1-.23,.01-.03,.02-.05,.03-.08,.05-.09,.12-.17,.19-.24,0,0,0-.01,.01-.01,.08-.07,.16-.14,.25-.19h0s0,0,0,0c0,0,0,0,0,0,0,0,0,0,0,0h0s1.11-.64,1.11-.64c0,0,.44-.15,.85-.15m0-2c-.7,0-1.33,.2-1.51,.26l-.18,.06-.17,.1-1.11,.64-.15,.09-.03,.03c-.17,.11-.33,.24-.47,.38l-.13,.13-.03,.04c-.13,.14-.25,.31-.35,.48l-.1,.16-.05,.13c-.06,.13-.14,.3-.2,.51-.08,.29-.12,.59-.12,.89v63.68c-.39,.13-.76,.3-1.11,.5L1.81,109.06c-.24,.14-.47,.3-.67,.48-.74,.64-1.14,1.49-1.14,2.38v2.33c0,1.15,.66,2.2,1.81,2.86l82.7,47.75c.79,.46,1.69,.7,2.6,.7s1.81-.24,2.6-.7l56.53-32.64c.91-.53,1.5-1.48,1.56-2.52l.06-.04,1.09-.63c.99-.56,1.61-1.61,1.61-2.74V63.2c0-2.8-1.51-5.41-3.93-6.82L64.81,9.14c-.43-.25-.93-.37-1.48-.37h0Z"/>
    <g>
      <polygon class="cls-23" points="120.66 58.03 91.13 40.98 91.13 75.08 120.66 92.13 120.66 58.03"/>
      <path class="cls-24" d="M115.55,60.88l-29.53-17.05v34.1s29.53,17.05,29.53,17.05c0,0,0-34.1,0-34.1Zm-14.57,19.11c-4.9-2.83-8.87-9.71-8.87-15.37s3.97-7.95,8.87-5.12c4.9,2.83,8.87,9.71,8.87,15.37s-3.97,7.95-8.87,5.12Z"/>
      <polygon class="cls-23" points="86.02 43.83 91.13 40.98 120.66 58.03 115.55 60.88 86.02 43.83"/>
      <polygon class="cls-23" points="115.55 94.99 120.66 92.13 120.66 58.03 115.55 60.88 115.55 94.99"/>
      <polygon class="cls-23" points="91.13 75.08 86.02 77.94 115.55 94.99 120.66 92.13 91.13 75.08"/>
    </g>
  </g>
</svg>