<?xml version="1.0" encoding="UTF-8"?>
<svg id="Layer_4" data-name="Layer 4" xmlns="http://www.w3.org/2000/svg" viewBox="0 0 95.25 83.09">
  <defs>
    <style>
      .cls-1 {
        fill: #e5e5e5;
      }

      .cls-2 {
        fill: #e2e2e2;
      }

      .cls-3 {
        fill: #7c7c7c;
      }

      .cls-4 {
        fill: #666;
      }

      .cls-5 {
        fill: #333;
      }

      .cls-6 {
        fill: #b2b2b2;
      }

      .cls-7 {
        fill: #dbdbdb;
      }

      .cls-8 {
        fill: #d3d3d3;
      }

      .cls-9 {
        fill: #adadad;
      }

      .cls-10 {
        fill: #c6c6c6;
      }

      .cls-11 {
        fill: #212121;
      }

      .cls-12 {
        fill: #141414;
      }

      .cls-13 {
        fill: #545454;
      }

      .cls-14 {
        fill: #4584bf;
      }

      .cls-15 {
        fill: #5b5b5b;
      }

      .cls-16 {
        fill: #474747;
      }

      .cls-17 {
        fill: #4f4f4f;
      }

      .cls-18 {
        fill: #757575;
      }
    </style>
  </defs>
  <polygon class="cls-12" points="81.82 24.63 89.51 23.94 89.51 13.32 81.55 3.42 73.59 4.13 73.59 14.75 73.62 14.78 81.82 24.63"/>
  <path class="cls-6" d="M76.16,13.32c-.25-.89-.38-1.78-.38-2.62,0-3.69,2.59-5.18,5.78-3.34,3.19,1.84,5.78,6.33,5.78,10.01s-2.59,5.18-5.78,3.34c-.73-.42-1.43-.98-2.08-1.64"/>
  <path class="cls-8" d="M72.49,15.44s7.4-4.27,7.4-4.27c.42-.25,1.01-.21,1.66,.16,1.3,.75,2.35,2.57,2.35,4.06,0,.75-.26,1.27-.69,1.52l-4.66,2.69-6.06-4.16Z"/>
  <path class="cls-17" d="M73.85,69.2c.33,3.09-1.54,6.25-5.64,8.61-7.57,4.37-19.83,4.37-27.4,0-4.09-2.36-5.97-5.52-5.64-8.61h38.67Z"/>
  <path class="cls-9" d="M65.94,59.46c.8,.34,1.56,.71,2.28,1.13,7.57,4.37,7.57,11.45,0,15.82-7.57,4.37-19.83,4.37-27.4,0-7.57-4.37-7.57-11.45,0-15.82,.72-.42,1.48-.79,2.28-1.13h22.84Z"/>
  <path class="cls-10" d="M65.94,61.2c2.74,2.86,2.01,6.54-2.2,8.97-5.09,2.94-13.35,2.94-18.45,0-4.21-2.43-4.94-6.1-2.2-8.97h22.84Z"/>
  <path class="cls-13" d="M64.04,65.13c-.12,1.31-1.04,2.6-2.78,3.6-3.72,2.15-9.76,2.15-13.48,0-1.73-1-2.66-2.29-2.78-3.6h19.04Z"/>
  <path class="cls-4" d="M43.1,54.12s0,7.37,0,7.37c0,1.69,1.12,3.37,3.35,4.66,4.46,2.58,11.69,2.58,16.15,0,2.23-1.29,3.35-2.97,3.34-4.66v-7.37h-22.84Z"/>
  <path class="cls-5" d="M78.69,46.44c-1.28,1.77-3.16,3.43-5.66,4.87-10.22,5.9-26.8,5.9-37.03,0-2.17-1.25-3.88-2.67-5.13-4.19l47.82-.68Z"/>
  <path class="cls-16" d="M82.32,27.69s0,10.72,0,10.72c0,4.11-2.71,8.22-8.14,11.35-10.86,6.27-28.46,6.27-39.32,0-1.47-.85-2.74-1.76-3.81-2.73l-3.8-5.46c-.36-1.04-.54-2.1-.54-3.16,0,0,0-10.72,0-10.72h55.61Z"/>
  <ellipse class="cls-4" cx="54.52" cy="27.69" rx="27.81" ry="16.05"/>
  <ellipse class="cls-3" cx="54.52" cy="26.65" rx="26" ry="15.01"/>
  <polygon class="cls-18" points="81.55 3.42 86.38 2.09 79.51 2.7 73.59 4.13 81.55 3.42"/>
  <polygon class="cls-11" points="89.51 23.94 93.25 19.79 93.25 10.63 89.51 13.32 89.51 23.94"/>
  <path class="cls-8" d="M27.37,41.49s2.89-1.67,2.89-1.67c.42-.25,1.01-.21,1.66,.16,1.3,.75,2.35,2.57,2.35,4.06,0,.75-.26,1.27-.69,1.52l-2.89,1.67-3.32-5.75Z"/>
  <path class="cls-8" d="M78.18,72.79c0-1.5,1.05-3.31,2.35-4.06,.65-.37,1.23-.41,1.66-.16l-18.03-10.41c-.42-.25-1.01-.21-1.66,.16-1.3,.75-2.35,2.57-2.35,4.06,0,.75,.26,1.27,.69,1.52l18.03,10.41h0c-.42-.25-.69-.77-.69-1.52Z"/>
  <ellipse class="cls-2" cx="80.52" cy="71.44" rx="3.32" ry="1.92" transform="translate(-21.6 105.45) rotate(-60)"/>
  <polygon class="cls-15" points="81.55 3.42 89.51 13.32 93.25 10.63 86.38 2.09 81.55 3.42"/>
  <ellipse class="cls-1" cx="29.02" cy="44.36" rx="1.92" ry="3.32" transform="translate(-18.29 20.46) rotate(-30)"/>
  <ellipse class="cls-8" cx="28.5" cy="44.67" rx="1.31" ry="2.26" transform="translate(-18.52 20.23) rotate(-30)"/>
  <path class="cls-14" d="M0,71.93c0-4.15,3.37-7.52,7.52-7.52s7.52,3.37,7.52,7.52v-.06c0,1.11-.73,2.22-2.2,3.07-1.47,.85-3.39,1.27-5.32,1.27-1.93,0-3.85-.42-5.32-1.27S0,72.97,0,71.86v.06Z"/>
  <path class="cls-14" d="M17.41,58.88c0-2.26,1.83-4.1,4.1-4.1s4.1,1.83,4.1,4.1v-.03c0,.61-.4,1.21-1.2,1.67-.8,.46-1.85,.69-2.9,.69-1.05,0-2.1-.23-2.9-.69s-1.2-1.07-1.2-1.67v.03Z"/>
  <path class="cls-14" d="M12.65,77.97c0-1.7,1.37-3.07,3.07-3.07s3.07,1.37,3.07,3.07v-.03c0,.45-.3,.91-.9,1.25-.6,.35-1.38,.52-2.17,.52-.79,0-1.57-.17-2.17-.52s-.9-.8-.9-1.25v.03Z"/>
  <path class="cls-14" d="M7.05,79.06c0-1.25,1.02-2.27,2.27-2.27s2.27,1.02,2.27,2.27v-.02c0,.34-.22,.67-.66,.93-.44,.26-1.02,.38-1.6,.38-.58,0-1.16-.13-1.6-.38s-.66-.59-.66-.93v.02Z"/>
  <path d="M86.38,2.09l6.87,8.55v9.16l-3.74,4.15-7.7,.69h0c.34,1.01,.51,2.03,.51,3.06v10.72c0,2.78-1.25,5.56-3.73,8.04h.1c-1.28,1.77-3.16,3.43-5.66,4.87-2.13,1.23-4.53,2.2-7.09,2.91v4.96l16.24,9.38s-.03-.02-.05-.02c.04,.02,.08,.05,.12,.07,0,0,0,0,0,0,.05,.04,.1,.08,.14,.12,0,0,0,0,.01,.01,.04,.04,.08,.09,.12,.14,0,0,.01,.01,.02,.02,.03,.05,.06,.1,.09,.15,0,.01,.01,.02,.02,.04,.03,.05,.05,.1,.07,.16,0,.02,.01,.03,.02,.05,.02,.05,.03,.11,.05,.17,0,.02,.01,.04,.02,.07,.01,.06,.02,.12,.03,.19,0,.02,0,.05,.01,.07,0,.09,.01,.18,.01,.28,0,0,0,0,0,0,0,.75-.26,1.58-.69,2.31-.05,.09-.11,.18-.17,.27-.12,.18-.24,.35-.37,.51-.33,.4-.71,.74-1.12,.97-.08,.05-.17,.09-.25,.13-.02,.01-.04,.02-.06,.03-.06,.03-.12,.05-.18,.07-.02,0-.04,.01-.07,.02-.06,.02-.11,.03-.17,.04-.02,0-.04,0-.05,0-.06,0-.12,.02-.17,.02-.01,0-.03,0-.04,0-.02,0-.04,0-.05,0-.04,0-.08,0-.12,0,0,0-.02,0-.03,0-.06,0-.12-.02-.18-.03,0,0,0,0-.01,0-.06-.02-.12-.04-.18-.07,0,0,0,0,0,0-.03-.02-.07-.03-.1-.05,0,0,.01,0,.02,.01l-5.14-2.97c-.53,2.36-2.36,4.65-5.51,6.47-3.78,2.18-8.74,3.28-13.7,3.28s-9.92-1.09-13.7-3.28c-4.09-2.36-5.97-5.52-5.64-8.61h0c-.33-3.09,1.54-6.25,5.63-8.61,.72-.42,1.48-.79,2.28-1.13v-5.24c-2.56-.72-4.97-1.69-7.09-2.91-2.17-1.25-3.88-2.67-5.13-4.19h.29s-.08-.07-.11-.1h0s-.37,.21-.37,.21c-.18,.1-.38,.16-.61,.16-.32,0-.67-.1-1.05-.32-.59-.34-1.13-.91-1.54-1.57-.01-.02-.02-.04-.03-.05-.05-.08-.1-.17-.15-.25-.01-.02-.03-.05-.04-.07-.36-.69-.58-1.44-.58-2.12s.22-1.17,.58-1.44h0c-.36-1.04-.54-2.1-.54-3.16v-10.72c0-4.11,2.71-8.22,8.14-11.35,5.11-2.95,11.72-4.51,18.41-4.68,.42-.01,.83-.02,1.25-.02s.83,0,1.25,.02c5.99,.15,11.91,1.43,16.76,3.81l-.03-.02s.45-.26,1.13-.65l-.03-.04V4.13l5.92-1.43,6.87-.61m.89-2.09l-1.07,.1-6.87,.61h-.15s-.14,.05-.14,.05l-5.92,1.43-1.53,.37V12.84c-4.62-1.94-10.03-3.04-15.77-3.19-.43-.01-.87-.02-1.3-.02s-.87,0-1.3,.02c-7.28,.19-14.15,1.95-19.36,4.95-5.9,3.4-9.14,8.05-9.14,13.08v10.72c0,.93,.12,1.87,.35,2.79-.25,.53-.38,1.14-.38,1.81,0,.99,.28,2.05,.82,3.06v.02s.04,.05,.04,.05c.08,.14,.14,.25,.21,.36,.02,.04,.05,.08,.07,.11,.58,.93,1.36,1.7,2.21,2.19,.68,.39,1.36,.59,2.05,.59,.05,0,.1,0,.15,0,1.3,1.34,2.91,2.57,4.79,3.66,1.82,1.05,3.87,1.95,6.09,2.67v2.47c-.44,.22-.87,.44-1.28,.68-4.55,2.63-6.96,6.37-6.64,10.31-.34,3.96,2.07,7.73,6.64,10.37,3.96,2.29,9.18,3.54,14.7,3.54s10.74-1.26,14.7-3.54c2.55-1.47,4.42-3.28,5.53-5.3l3.12,1.8h0c.07,.04,.14,.08,.22,.11l.04,.02,.05,.02h0c.15,.07,.28,.11,.42,.15,.19,.05,.34,.08,.5,.1h.02s.04,0,.04,0c.11,.01,.21,.01,.32,.01h.12s.05,0,.05,0h.04c.12-.01,.25-.03,.38-.05,.02,0,.06,0,.11-.02,.12-.02,.24-.05,.35-.09,.02,0,.07-.02,.12-.03,.11-.04,.21-.08,.31-.12,.05-.02,.1-.04,.15-.06,.13-.06,.27-.13,.41-.21,.6-.35,1.16-.83,1.66-1.43,.18-.22,.35-.45,.51-.69,.08-.12,.15-.24,.22-.36,.62-1.07,.96-2.24,.96-3.31v-.1c0-.13-.01-.26-.02-.38v-.06s-.02-.09-.02-.09c-.02-.12-.03-.22-.05-.33v-.06s-.04-.1-.04-.1c-.02-.09-.05-.2-.09-.31l-.02-.06-.04-.09c-.03-.09-.08-.21-.14-.32l-.02-.05-.04-.07c-.05-.1-.13-.22-.21-.34l-.02-.03-.03-.04c-.09-.11-.19-.23-.3-.34-.12-.12-.23-.21-.34-.3l-.02-.02-.08-.05c-.07-.05-.13-.09-.2-.13h0s-15.24-8.8-15.24-8.8v-2.32c2.23-.72,4.27-1.61,6.09-2.67,2.69-1.55,4.8-3.38,6.28-5.43l.22-.3c2.49-2.69,3.79-5.76,3.79-8.91v-10.72c0-.42-.02-.85-.07-1.27l5.44-.49,.78-.07,.53-.58,3.74-4.15,.51-.57V9.93l-.44-.55L87.94,.83l-.67-.83h0Zm-5.96,70.36s-.07-.03-.12-.06l.7-1.23-.58,1.29h0Z"/>
  <path class="cls-7" d="M50.71,72.05l-3.9,6.71c4.94,1.24,10.59,1.23,15.53-.03l-3.76-6.73c-2.55,.48-5.3,.5-7.86,.05Z"/>
</svg>