<?xml version="1.0" encoding="UTF-8"?>
<svg id="Layer_4" data-name="Layer 4" xmlns="http://www.w3.org/2000/svg" viewBox="0 0 59.93 109.15">
  <defs>
    <style>
      .cls-1, .cls-2 {
        stroke: #000;
        stroke-miterlimit: 10;
      }

      .cls-3 {
        fill: #f2f2f2;
      }

      .cls-4 {
        fill: #7f7f7f;
      }

      .cls-5 {
        fill: #7c7c7c;
      }

      .cls-6 {
        fill: #9e9e9e;
      }

      .cls-7 {
        fill: #666;
      }

      .cls-8 {
        fill: #bcbcbc;
      }

      .cls-9 {
        fill: #9b9b9b;
      }

      .cls-10 {
        fill: #2b2b2b;
      }

      .cls-11 {
        fill: #565656;
      }

      .cls-12 {
        fill: #353535;
      }

      .cls-13 {
        fill: #3d3d3d;
      }

      .cls-2 {
        fill: none;
      }
    </style>
  </defs>
  <path class="cls-3" d="M22.91,49.03l-.06,11.55h0c0,.26-.15,.52-.45,.71-.6,.39-1.58,.39-2.18-.01-.3-.2-.45-.46-.45-.72,0,0,.06-11.55,.06-11.55l3.08,.02Z"/>
  <path class="cls-11" d="M27.5,39.38l-.03,5.82h0c0,1.02-.6,2.04-1.79,2.82-2.38,1.55-6.23,1.53-8.61-.05-1.19-.79-1.78-1.82-1.78-2.85h0s.03-5.83,.03-5.83l12.17,.1Z"/>
  <path class="cls-7" d="M27.5,39.37c0,1.03-.6,2.05-1.79,2.83-2.38,1.55-6.23,1.53-8.61-.05-1.19-.79-1.78-1.82-1.78-2.85l12.17,.08Z"/>
  <path class="cls-10" d="M25.82,40.35c-.22,.25-.49,.48-.81,.69-1.98,1.29-5.19,1.27-7.16-.05-.33-.22-.6-.46-.82-.71l8.8,.07Z"/>
  <path class="cls-13" d="M29.24,35.72c.15,1.44-.61,2.91-2.28,4-3.06,2-8.02,1.97-11.07-.07-1.66-1.11-2.42-2.58-2.27-4.01l15.62,.08Z"/>
  <path class="cls-11" d="M31.47,9.12l-.04,22.57v-.02c0,1.68-.98,3.36-2.93,4.64-3.9,2.55-10.22,2.51-14.11-.09-.28-.18-.53-.38-.77-.58-1.43-1.2-2.15-2.65-2.14-4.1v-.02s0-22.41,0-22.41H31.47Z"/>
  <polygon class="cls-8" points="2.54 81.61 29.97 97.45 57.39 81.61 29.97 65.78 2.54 81.61"/>
  <ellipse class="cls-7" cx="21.5" cy="9.12" rx="6.58" ry="9.98" transform="translate(12.16 30.52) rotate(-89.41)"/>
  <ellipse class="cls-5" cx="21.51" cy="8.18" rx="5.65" ry="8.56" transform="translate(13.1 29.61) rotate(-89.41)"/>
  <ellipse class="cls-6" cx="17.02" cy="45.2" rx=".88" ry="1.33" transform="translate(-20.16 14.38) rotate(-29.71)"/>
  <ellipse class="cls-12" cx="28.05" cy="31.69" rx="2.35" ry="1.55" transform="translate(-13.46 39.92) rotate(-59.71)"/>
  <polygon class="cls-9" points="2.54 81.61 2.54 89.82 2.54 89.82 29.97 105.66 29.97 97.45 2.54 81.61"/>
  <ellipse class="cls-1" cx="21.48" cy="86.69" rx="1.9" ry="1.1"/>
  <ellipse class="cls-1" cx="39.96" cy="76.02" rx="1.9" ry="1.1"/>
  <path class="cls-2" d="M22.82,87.46l3.28,1.89c1.28,.74,2.95,1.11,4.62,1.11,1.67,0,3.34-.37,4.62-1.1,1.28-.74,1.91-1.7,1.91-2.67,0-.97-.64-1.93-1.91-2.67l-9.24-5.34c-1.28-.74-1.91-1.7-1.91-2.67,0-.97,.64-1.93,1.91-2.67,1.28-.74,2.95-1.1,4.62-1.1,1.67,0,3.34,.37,4.62,1.1l3.28,1.89"/>
  <polygon class="cls-4" points="29.97 97.45 29.97 105.66 57.39 89.22 57.39 81.61 29.97 97.45"/>
  <path d="M29.97,65.78l27.42,15.83v7.61s-27.42,16.43-27.42,16.43L2.54,89.82v-8.21s27.42-15.83,27.42-15.83m.56,31.34l.25-.14c-.09,.05-.17,.1-.25,.14m-.56,.32h0l.44-.25c-.28,.16-.44,.25-.44,.25m0-33.67c-.35,0-.69,.09-1,.27L1.54,79.88c-.62,.36-1,1.02-1,1.73v8.21c0,.71,.38,1.37,1,1.73l27.42,15.83c.31,.18,.65,.27,1,.27s.71-.09,1.03-.28l13.71-8.22,9.43-5.65,3.11-1.86c1.47-.88,2.34-1.4,2.15-2.62v-7.41c0-.71-.38-1.37-1-1.73l-27.42-15.83c-.31-.18-.65-.27-1-.27h0Z"/>
  <path d="M21.44,2.53s.07,0,.1,0c.28,0,.55,.01,.83,.03,2.27,.14,4.48,.78,6.22,1.94,1.92,1.28,2.89,2.95,2.91,4.61h0v.06s-.04,22.5-.04,22.5c0,1.46-.73,2.9-2.19,4.09,.12,1.28-.48,2.57-1.79,3.6h.05s0,0,0,.01h0l-.03,5.82h0c0,1.02-.6,2.04-1.79,2.82-.8,.52-1.76,.86-2.78,1.03l-.06,11.54h0c0,.26-.15,.52-.45,.71-.3,.19-.69,.29-1.07,.29s-.8-.1-1.1-.3c-.3-.2-.45-.46-.45-.72,0,0,.06-11.28,.06-11.54-1.01-.18-1.96-.53-2.75-1.06-1.19-.79-1.78-1.82-1.78-2.85h0s.03-5.83,.03-5.83h.06c-1.3-1.05-1.9-2.36-1.76-3.64-1.43-1.2-2.15-2.65-2.14-4.1V9.12h.05c-.02-1.71,.95-3.41,2.92-4.7,1.93-1.26,4.44-1.88,6.96-1.88m0-2h0c-3.01,0-5.87,.78-8.05,2.21-2.3,1.5-3.67,3.63-3.82,5.9-.04,.15-.06,.31-.06,.47V31.53c0,1.81,.76,3.55,2.15,4.99,.13,1.28,.71,2.52,1.69,3.57l-.03,5.01c0,1.76,.97,3.4,2.67,4.54,.55,.37,1.18,.68,1.85,.92l-.05,9.69v.32c0,.95,.49,1.82,1.34,2.39,.62,.41,1.4,.64,2.21,.64s1.56-.22,2.17-.62c.86-.56,1.35-1.42,1.36-2.37h0s.05-10,.05-10c.68-.24,1.32-.54,1.88-.91,1.7-1.11,2.68-2.73,2.69-4.47,0,0,0-.01,0-.02l.03-5c.99-1.03,1.59-2.26,1.73-3.54,1.43-1.43,2.21-3.18,2.21-4.99,0,0,.04-22.5,.04-22.5v-.06c0-.06,0-.12,0-.18-.09-2.35-1.43-4.51-3.8-6.09-1.98-1.32-4.47-2.11-7.21-2.27-.3-.02-.62-.03-.94-.04h-.11Z"/>
</svg>