<?xml version="1.0" encoding="UTF-8"?>
<svg id="Layer_4" data-name="Layer 4" xmlns="http://www.w3.org/2000/svg" viewBox="0 0 92.02 75.68">
  <defs>
    <style>
      .cls-1 {
        fill: #f2f2f2;
      }

      .cls-2 {
        fill: #656565;
      }

      .cls-3 {
        fill: #7c7c7c;
      }

      .cls-4 {
        fill: #9e9e9e;
      }

      .cls-5 {
        fill: #666;
      }

      .cls-6 {
        fill: #727272;
      }

      .cls-7 {
        fill: #898989;
      }

      .cls-8 {
        fill: #2b2b2b;
      }

      .cls-9 {
        fill: #565656;
      }

      .cls-10 {
        fill: #353535;
      }

      .cls-11 {
        fill: #3d3d3d;
      }

      .cls-12 {
        fill: #4c4c4c;
      }
    </style>
  </defs>
  <g>
    <path d="M20.15,2c1.22,0,2.32,.29,3.27,.83l13.3,7.68h0c2.06,1.04,3.48,3.22,3.89,6.37h0s10.67,6.16,10.67,6.16c1.81,1.05,2.93,3.29,2.93,6.49,0,6.39-4.49,14.16-10.02,17.35-1.61,.93-3.13,1.37-4.47,1.37-.97,0-1.85-.23-2.61-.67l-10.68-6.17v.02c-1.37,.56-2.66,.83-3.84,.83-1.25,0-2.38-.3-3.34-.88h0s-13.55-7.82-13.55-7.82c-2.27-1.31-3.68-4.12-3.68-8.12s1.4-8.43,3.68-12.37S11.08,5.71,14.55,3.71c2.01-1.16,3.92-1.71,5.6-1.71m0-2c-2.1,0-4.33,.67-6.6,1.98-3.65,2.11-7.06,5.69-9.6,10.1C1.4,16.48,0,21.23,0,25.45c0,4.62,1.66,8.12,4.68,9.86l13.55,7.82,1.75,1.01,.12-.21c.78,.23,1.61,.34,2.47,.34,1.18,0,2.42-.22,3.68-.64l9.85,5.69c1.07,.62,2.29,.93,3.61,.93,1.75,0,3.59-.55,5.47-1.64,6.18-3.57,11.02-11.95,11.02-19.08,0-3.83-1.4-6.75-3.93-8.22l-9.85-5.69c-.48-2.4-1.54-4.36-3.06-5.71l.07-.13-1.71-1L24.42,1.1c-1.27-.73-2.7-1.1-4.27-1.1h0Z"/>
    <path class="cls-7" d="M19.23,41.39l-13.55-7.82c-2.27-1.31-3.68-4.12-3.68-8.12h0c0-4,1.4-8.43,3.68-12.37,2.27-3.93,5.41-7.37,8.87-9.37s6.6-2.19,8.87-.88l13.3,7.68-17.49,30.88Z"/>
    <path class="cls-6" d="M26.4,41.44c-6.09,2.52-10.78-.82-10.78-8.12,0-8,5.62-17.73,12.55-21.73,6.34-3.66,11.58-1.26,12.43,5.3l-14.2,24.55Z"/>
    <path class="cls-7" d="M51.26,23.04l-14.14-8.17c-1.81-1.05-4.32-.9-7.08,.7-5.53,3.19-10.02,10.96-10.02,17.35,0,3.19,1.12,5.44,2.93,6.49l14.14,8.17,14.17-24.54Z"/>
    <ellipse class="cls-6" cx="44.18" cy="35.31" rx="14.17" ry="8.18" transform="translate(-8.49 55.91) rotate(-60)"/>
    <ellipse class="cls-2" cx="44.18" cy="35.31" rx="9.66" ry="5.57" transform="translate(-8.49 55.91) rotate(-60)"/>
    <path class="cls-12" d="M47.07,26.5c-.88,.03-1.86,.33-2.89,.93-3.77,2.18-6.83,7.47-6.83,11.83,0,1.19,.23,2.19,.64,2.97,.88-.03,1.86-.33,2.89-.93,3.77-2.18,6.83-7.47,6.83-11.83,0-1.19-.23-2.19-.64-2.97Z"/>
  </g>
  <g>
    <path class="cls-1" d="M52.9,48.7l-10.66-6.23h0c-.24-.14-.4-.42-.42-.8-.04-.77,.49-1.67,1.18-2.01,.35-.17,.67-.17,.91-.03,0,0,10.66,6.23,10.66,6.23l-1.67,2.84Z"/>
    <path class="cls-9" d="M59.38,58.12l-5.38-3.14h0c-.95-.55-1.58-1.64-1.66-3.16-.17-3.03,1.92-6.59,4.65-7.94,1.37-.68,2.64-.67,3.59-.12h0s5.38,3.15,5.38,3.15l-6.6,11.22Z"/>
    <path class="cls-5" d="M59.39,58.12c-.95-.55-1.58-1.65-1.66-3.17-.17-3.03,1.92-6.59,4.65-7.94,1.37-.68,2.64-.67,3.59-.12l-6.58,11.23Z"/>
    <path class="cls-8" d="M59.39,56.04c-.11-.33-.19-.71-.21-1.12-.14-2.52,1.6-5.48,3.87-6.61,.38-.19,.75-.31,1.1-.38l-4.76,8.11Z"/>
    <path class="cls-11" d="M61.84,61.68c-1.42-.63-2.37-2.12-2.49-4.25-.21-3.9,2.47-8.47,5.98-10.21,1.91-.95,3.68-.86,4.93,.04l-8.42,14.42Z"/>
    <path class="cls-9" d="M76.55,72.93l-12.15-7.06h.02c-1.56-.89-2.59-2.69-2.73-5.18-.27-4.97,3.14-10.8,7.63-13.02,.32-.16,.63-.29,.95-.41,1.88-.68,3.6-.57,4.94,.2h.02s12.02,6.95,12.02,6.95l-10.69,18.52Z"/>
    <ellipse class="cls-5" cx="81.88" cy="63.69" rx="10.67" ry="7.04" transform="translate(-14.61 101.77) rotate(-59.41)"/>
    <ellipse class="cls-3" cx="82.74" cy="64.2" rx="9.16" ry="6.04" transform="translate(-14.63 102.76) rotate(-59.41)"/>
    <ellipse class="cls-4" cx="59.59" cy="45.3" rx=".94" ry="1.42" transform="translate(13.99 104.66) rotate(-89.71)"/>
    <ellipse class="cls-10" cx="66.21" cy="62.73" rx="1.66" ry="2.51" transform="translate(-22.39 41.06) rotate(-29.71)"/>
    <path d="M43.51,39.53c.15,0,.28,.04,.39,.1,0,0,10.41,6.08,10.65,6.22,.71-.83,1.54-1.53,2.45-1.98,.72-.35,1.41-.52,2.04-.52,.57,0,1.1,.14,1.55,.4h0s5.38,3.15,5.38,3.15l-.03,.05c.7-.27,1.38-.4,2.01-.4,.87,0,1.65,.25,2.3,.71h0c.84-.3,1.64-.45,2.4-.45,.94,0,1.8,.23,2.54,.65h.02s12.02,6.95,12.02,6.95l-.02,.04c1.59,.89,2.65,2.7,2.79,5.22,.14,2.49-.65,5.19-2.03,7.55-.15,.26-.31,.51-.47,.75-1.34,2.03-3.12,3.73-5.12,4.72-1.17,.58-2.3,.85-3.34,.85-.92,0-1.76-.22-2.49-.62h0s-.05-.03-.05-.03c0,0,0,0-.01,0l-12.07-7.02c-1.35-.78-2.3-2.23-2.62-4.22-1.25-.57-2.12-1.82-2.38-3.58l-.03,.04s0,0,0,0h0s-5.38-3.14-5.38-3.14h0c-.95-.55-1.58-1.64-1.66-3.16-.06-1.02,.15-2.09,.54-3.12l-10.65-6.22h0c-.24-.14-.4-.42-.42-.8-.04-.77,.49-1.67,1.18-2.01,.18-.09,.36-.13,.52-.13m0-2h0c-.48,0-.95,.11-1.4,.34-1.41,.7-2.37,2.34-2.29,3.91,.06,1.05,.57,1.93,1.42,2.42l9.3,5.43c-.16,.78-.22,1.55-.18,2.29,.12,2.13,1.09,3.88,2.66,4.79l4.65,2.72c.42,1.48,1.24,2.69,2.36,3.5,.55,2.08,1.73,3.72,3.39,4.68l12.06,7.01,.06,.04,1.75,1.02,.17-.3c.51,.11,1.03,.16,1.57,.16,1.38,0,2.8-.36,4.23-1.06,2.26-1.12,4.3-2.99,5.9-5.41,.18-.27,.36-.55,.53-.84,1.64-2.79,2.46-5.87,2.3-8.67-.12-2.27-.9-4.21-2.19-5.59l.15-.25-1.71-1.04-12.02-6.94c-1.07-.62-2.26-.93-3.55-.93-.71,0-1.43,.1-2.16,.28-.78-.36-1.64-.55-2.54-.55-.55,0-1.12,.07-1.68,.21l-4.67-2.73c-.77-.45-1.65-.68-2.57-.68-.96,0-1.95,.25-2.93,.73-.65,.32-1.29,.75-1.89,1.26l-3.36-1.96-4.05-2.37c-.97-.57-1.55-.9-1.92-1.1v-.02c-.41-.24-.89-.37-1.38-.37h0Z"/>
  </g>
</svg>