<?xml version="1.0" encoding="UTF-8"?>
<svg id="Layer_4" data-name="Layer 4" xmlns="http://www.w3.org/2000/svg" xmlns:xlink="http://www.w3.org/1999/xlink" viewBox="0 0 203.26 124.46">
  <defs>
    <style>
      .cls-1, .cls-2 {
        fill: #656565;
      }

      .cls-3 {
        fill: #9f702d;
      }

      .cls-4 {
        fill: #9e9e9e;
      }

      .cls-5 {
        fill: #ab844c;
      }

      .cls-6 {
        fill: #bcbcbc;
      }

      .cls-7 {
        fill: #b2b2b2;
      }

      .cls-8 {
        fill: #bfbfbf;
      }

      .cls-9 {
        fill: #deaa47;
      }

      .cls-10 {
        fill: #cc9233;
      }

      .cls-11 {
        fill: #d3d3d3;
      }

      .cls-12 {
        fill: #9b9b9b;
      }

      .cls-13 {
        fill: #727272;
      }

      .cls-14 {
        fill: #898989;
      }

      .cls-15 {
        fill: #3a3a3a;
      }

      .cls-2, .cls-16 {
        stroke: #545454;
        stroke-miterlimit: 10;
      }

      .cls-16 {
        fill: none;
      }

      .cls-17 {
        fill: #606060;
        filter: url(#drop-shadow-4);
      }
    </style>
    <filter id="drop-shadow-4" filterUnits="userSpaceOnUse">
      <feOffset dx=".1" dy="1"/>
      <feGaussianBlur result="blur" stdDeviation="0"/>
      <feFlood flood-color="#3f3f3f" flood-opacity="1"/>
      <feComposite in2="blur" operator="in"/>
      <feComposite in="SourceGraphic"/>
    </filter>
  </defs>
  <path class="cls-1" d="M45.17,106.63L11.93,87.44c-6.14-3.55-9.93-11.16-9.93-21.98,0-21.66,15.21-48,33.96-58.82C44.99,1.43,53.19,.76,59.27,3.87v-.02s33.93,19.59,33.93,19.59L45.17,106.63Z"/>
  <path class="cls-14" d="M80.85,44.85l12.36-21.41-13.22-7.62c-6.08-3.12-14.28-2.45-23.31,2.76-18.76,10.83-33.96,37.17-33.96,58.82,0,10.82,3.8,18.43,9.93,21.98l12.52,7.25,12.36-21.41,23.31-40.38Z"/>
  <path class="cls-13" d="M101.85,56.98c.85-3.92,1.3-7.8,1.3-11.55,0-21.66-15.21-30.44-33.96-19.61-9.38,5.41-17.87,14.71-24.02,25.35-6.15,10.65-9.95,22.64-9.95,33.47s3.8,18.44,9.95,21.99c6.15,3.55,14.64,3.04,24.02-2.38,3.24-1.87,6.38-4.21,9.35-6.9l23.31-40.38Z"/>
  <path class="cls-8" d="M90.73,104.39l-33.2-19.17c-2.98-1.72-4.83-5.42-4.83-10.67h0c0-5.26,1.84-11.08,4.83-16.25,2.98-5.17,7.1-9.68,11.66-12.3s8.67-2.88,11.66-1.15l32.87,18.97-22.98,40.57Z"/>
  <path class="cls-11" d="M100.15,104.45c-8,3.31-14.16-1.07-14.16-10.67,0-10.51,7.38-23.29,16.48-28.55,8.33-4.81,15.21-1.65,16.33,6.97l-18.65,32.25Z"/>
  <path class="cls-8" d="M142.12,85.66l-27.89-16.1c-2.38-1.37-5.67-1.18-9.31,.92-7.27,4.2-13.16,14.4-13.16,22.79,0,4.2,1.47,7.14,3.85,8.52l27.89,16.1,18.61-32.24Z"/>
  <ellipse class="cls-11" cx="132.82" cy="101.77" rx="18.61" ry="10.75" transform="translate(-21.73 165.91) rotate(-60)"/>
  <ellipse class="cls-12" cx="132.82" cy="101.77" rx="12.68" ry="7.32" transform="translate(-21.73 165.91) rotate(-60)"/>
  <path class="cls-16" d="M45.17,106.63c-6.15-3.55-9.95-11.16-9.95-21.99"/>
  <path class="cls-16" d="M45.17,51.17c-6.15,10.65-9.95,22.64-9.95,33.47"/>
  <path class="cls-16" d="M78.54,97.35c-2.97,2.69-6.11,5.03-9.35,6.9"/>
  <path class="cls-16" d="M103.15,45.43c0,3.74-.45,7.63-1.3,11.55"/>
  <path class="cls-16" d="M69.19,25.82c18.76-10.83,33.96-2.05,33.96,19.61"/>
  <path class="cls-16" d="M45.17,106.63c6.15,3.55,14.64,3.04,24.02-2.38"/>
  <path class="cls-16" d="M69.19,25.82c-9.38,5.41-17.87,14.71-24.02,25.35"/>
  <line class="cls-16" x1="103.15" y1="45.43" x2="92.5" y2="51.58"/>
  <line class="cls-16" x1="35.23" y1="84.65" x2="52.71" y2="74.56"/>
  <line class="cls-16" x1="69.19" y1="25.82" x2="69.19" y2="46"/>
  <line class="cls-16" x1="69.19" y1="91.96" x2="69.19" y2="104.25"/>
  <line class="cls-16" x1="45.17" y1="51.17" x2="57.53" y2="58.31"/>
  <line class="cls-16" x1="32.81" y1="44.07" x2="45.17" y2="51.2"/>
  <line class="cls-16" x1="56.68" y1="18.58" x2="69.19" y2="25.82"/>
  <line class="cls-16" x1="31.15" y1="82.29" x2="35.23" y2="84.65"/>
  <line class="cls-16" x1="22.72" y1="77.41" x2="25.95" y2="79.28"/>
  <path class="cls-16" d="M57.53,85.23l-12.36,21.41-12.52-7.25c-6.14-3.55-9.93-11.16-9.93-21.98,0-21.66,15.21-48,33.96-58.82,9.02-5.21,17.23-5.88,23.31-2.76l13.22,7.62-12.36,21.41"/>
  <ellipse class="cls-2" cx="28.55" cy="80.71" rx="2.12" ry="3.68" transform="translate(-36.53 25.09) rotate(-30)"/>
  <path d="M51.13,2c2.99,0,5.73,.64,8.14,1.87v-.02s33.93,19.59,33.93,19.59c6.15,3.55,9.95,11.16,9.95,21.99,0,3.74-.45,7.63-1.3,11.55h0l11.86,6.85v.02c2.7,1.35,4.56,4.22,5.09,8.35h0s23.32,13.46,23.32,13.46c2.38,1.38,3.85,4.32,3.85,8.52,0,8.39-5.89,18.6-13.16,22.79-2.11,1.22-4.11,1.8-5.88,1.8-1.27,0-2.43-.3-3.43-.88l-23.34-13.48-.02,.03c-1.78,.74-3.48,1.09-5.03,1.09-1.64,0-3.12-.4-4.39-1.15h0s-12.19-7.04-12.19-7.04h0c-2.97,2.69-6.11,5.03-9.35,6.9-5.45,3.15-10.6,4.64-15.17,4.64-3.29,0-6.27-.77-8.85-2.26L11.93,87.44c-6.14-3.55-9.93-11.16-9.93-21.98C2,43.8,17.21,17.47,35.96,6.64c5.45-3.15,10.6-4.64,15.17-4.64M51.13,0c-5.09,0-10.53,1.65-16.17,4.91C15.68,16.04,0,43.2,0,65.46c0,11.21,3.88,19.63,10.93,23.71l33.24,19.19c2.91,1.68,6.22,2.53,9.85,2.53,5.09,0,10.53-1.65,16.17-4.91,2.92-1.68,5.8-3.76,8.6-6.18l10.95,6.32,1.79,1.03,.09-.17c1.1,.37,2.27,.56,3.51,.56,1.57,0,3.21-.3,4.9-.9l22.49,12.98c1.31,.76,2.8,1.14,4.43,1.14,2.19,0,4.5-.69,6.88-2.07,7.94-4.58,14.16-15.36,14.16-24.53,0-4.8-1.72-8.44-4.85-10.25l-22.49-12.98c-.62-3.34-2.09-6.02-4.26-7.75l.05-.09-1.09-.64c-.07-.04-.14-.08-.21-.12l-.41-.24-10.61-6.13c.7-3.63,1.05-7.17,1.05-10.54,0-11.22-3.89-19.64-10.95-23.72L60.28,2.12l-1.83-1.06-.11,.21C56.12,.43,53.7,0,51.13,0h0Z"/>
  <path d="M76.55,43.75c1.6,0,3.04,.38,4.29,1.1l32.87,18.97v.02c2.7,1.35,4.56,4.22,5.09,8.35h0s23.32,13.46,23.32,13.46c2.38,1.38,3.85,4.32,3.85,8.52,0,8.39-5.89,18.6-13.16,22.79-2.11,1.22-4.11,1.8-5.88,1.8-1.27,0-2.43-.3-3.43-.88l-23.34-13.48-.02,.03c-1.78,.74-3.48,1.09-5.03,1.09-1.64,0-3.12-.4-4.39-1.15h0s-33.2-19.16-33.2-19.16c-2.98-1.72-4.83-5.42-4.83-10.67s1.84-11.08,4.83-16.25c2.98-5.17,7.1-9.68,11.66-12.3,2.65-1.53,5.15-2.25,7.36-2.25m0-2c-2.65,0-5.47,.85-8.36,2.52-4.7,2.71-9.1,7.34-12.39,13.04-3.29,5.69-5.1,11.82-5.1,17.25,0,5.83,2.07,10.23,5.83,12.4l33.2,19.17,1.79,1.03,.09-.17c1.09,.37,2.27,.56,3.51,.56,1.57,0,3.21-.3,4.9-.9l22.49,12.98c1.31,.76,2.8,1.14,4.43,1.14,2.19,0,4.5-.69,6.88-2.07,7.94-4.58,14.16-15.36,14.16-24.53,0-4.8-1.72-8.44-4.85-10.25l-22.49-12.98c-.62-3.34-2.09-6.02-4.26-7.75l.05-.08-1.09-.64c-.07-.04-.14-.08-.21-.12l-.41-.24-32.87-18.97c-1.57-.91-3.35-1.36-5.29-1.36h0Z"/>
  <g>
    <path class="cls-11" d="M149.98,90.2v18.51c0,1.84,.98,3.54,2.58,4.46l16.21,9.3h6.55l25.93-14.97v-21.5s-21.71-12.65-21.71-12.65l-29.56,16.85Z"/>
    <path class="cls-6" d="M149.98,90.2l18.8,10.85v21.42l-16.73-9.6c-1.28-.73-2.06-2.09-2.06-3.56v-19.11Z"/>
    <path class="cls-9" d="M158.72,95.23l-19.23-11.1,14.1-8.14c3.17-1.83,7.09-1.83,10.26,0l14.1,8.14-19.23,11.1Z"/>
    <ellipse class="cls-17" cx="158.72" cy="84.15" rx="7.68" ry="4.44"/>
    <polygon class="cls-3" points="158.72 101.79 139.49 90.69 139.49 84.13 158.72 95.23 158.72 101.79"/>
    <polygon class="cls-5" points="158.72 101.79 177.95 90.69 177.95 84.13 158.72 95.23 158.72 101.79"/>
    <polygon class="cls-7" points="175.33 122.46 168.78 122.46 168.78 101.04 175.33 100.97 175.33 122.46"/>
    <polygon class="cls-4" points="175.33 100.97 201.26 85.99 201.26 107.49 175.33 122.46 175.33 100.97"/>
    <polygon class="cls-15" points="155.31 84.85 157.81 86.29 161.22 85.76 162.13 83.79 159.63 82.35 156.22 82.88 155.31 84.85"/>
    <path class="cls-10" d="M158.72,77.61c1.27,0,2.53,.34,3.63,.97l9.6,5.54-13.23,7.64-13.23-7.64,9.6-5.54c1.1-.64,2.36-.97,3.63-.97m0-3c-1.77,0-3.54,.46-5.13,1.37l-14.1,8.14,19.23,11.1,19.23-11.1-14.1-8.14c-1.59-.92-3.36-1.37-5.13-1.37h0Z"/>
  </g>
  <path d="M179.55,73.34l21.71,12.65v21.5l-25.93,14.97h-6.55l-14.99-8.59-1.74-1c-1.28-.73-2.06-2.09-2.06-3.56v-12.56l-10.5-6.06v-6.56l14.1-8.14c1.59-.92,3.36-1.37,5.13-1.37s3.54,.46,5.13,1.37l5.49,3.17,10.2-5.82m.01-2.31l-1,.57-9.21,5.25-4.5-2.6c-1.86-1.07-3.98-1.64-6.13-1.64s-4.27,.57-6.13,1.64l-14.1,8.14-1,.58v8.86l1,.58,9.5,5.48v11.41c0,2.18,1.18,4.21,3.07,5.3l1.74,1,14.99,8.59,.46,.27h7.62l.46-.27,25.93-14.97,1-.58v-23.8l-.99-.58-21.71-12.65-1-.58h0Z"/>
</svg>