<svg width="52" height="52" viewBox="0 0 52 52" fill="none" xmlns="http://www.w3.org/2000/svg">
<path d="M52 26.0002C52 40.3598 40.3576 51.9998 25.999 51.9998C11.6397 51.9998 0.00012207 40.3598 0.00012207 26.0002C0.00012207 11.6427 11.6397 0.000244149 25.999 0.000244149C40.3576 -0.000108183 52 11.6427 52 26.0002Z" fill="#4A5567"/>
<path d="M12.0342 43.2133C12.1181 43.349 12.228 43.4589 12.3636 43.5406C12.5017 43.6185 12.6575 43.6816 12.8312 43.7136C13.0017 43.7482 13.1807 43.7686 13.3614 43.7665C13.5048 43.7686 13.65 43.7584 13.8043 43.7341C13.9579 43.7119 14.0985 43.6749 14.2285 43.6181C14.3585 43.5625 14.4678 43.4797 14.552 43.3712C14.6362 43.2633 14.6777 43.1231 14.6777 42.9547C14.6777 42.7264 14.5886 42.5471 14.4135 42.4294C14.2398 42.3089 14.0168 42.2116 13.7564 42.1405C13.4943 42.0644 13.2061 41.9978 12.8971 41.9386C12.587 41.8822 12.3027 41.7948 12.0402 41.6867C11.7742 41.5785 11.5582 41.4256 11.3813 41.2265C11.2052 41.0313 11.1164 40.7558 11.1164 40.4084C11.1164 40.1346 11.1784 39.8979 11.3024 39.6974C11.4233 39.5064 11.5825 39.3444 11.7742 39.2193C11.9704 39.0995 12.1861 39.0079 12.427 38.9476C12.6716 38.8877 12.9115 38.8578 13.1458 38.8578C13.4597 38.8578 13.742 38.8839 14.0051 38.9371C14.2655 38.9892 14.491 39.0805 14.6943 39.2122C14.8941 39.3419 15.0537 39.5174 15.1731 39.7383C15.294 39.9564 15.3609 40.2329 15.3831 40.5652H14.4875C14.4737 40.3862 14.4276 40.241 14.3536 40.1272C14.2712 40.0113 14.1736 39.918 14.0541 39.8468C13.935 39.7774 13.8071 39.7266 13.6613 39.6963C13.5179 39.6629 13.3727 39.647 13.2254 39.6495C13.0887 39.647 12.9548 39.6558 12.8171 39.6784C12.6804 39.6977 12.5564 39.7383 12.4461 39.7897C12.3309 39.8429 12.241 39.912 12.172 39.9986C12.0994 40.0888 12.0652 40.2026 12.0652 40.3429C12.0652 40.4965 12.1212 40.6247 12.2283 40.728C12.3397 40.8298 12.4757 40.9129 12.6455 40.9806C12.8157 41.0479 13.0024 41.1025 13.2128 41.1479C13.4259 41.1969 13.6348 41.2434 13.8462 41.2924C14.0714 41.3407 14.2877 41.403 14.5044 41.4689C14.7172 41.5422 14.9106 41.6359 15.0727 41.7501C15.2372 41.8635 15.3708 42.0126 15.4737 42.1873C15.5744 42.3624 15.6259 42.5781 15.6259 42.8391C15.6259 43.1689 15.5575 43.4444 15.4208 43.6611C15.2841 43.8789 15.1055 44.0543 14.8824 44.1882C14.6608 44.3203 14.411 44.4126 14.1383 44.4676C13.8596 44.5226 13.5823 44.5469 13.3093 44.5469C13.008 44.5469 12.717 44.5141 12.444 44.4528C12.1723 44.388 11.9274 44.284 11.7178 44.1371C11.5061 43.9955 11.3391 43.8073 11.2115 43.572C11.0857 43.3373 11.0131 43.0488 10.9998 42.7148H11.8982C11.9024 42.9096 11.9503 43.0787 12.0342 43.2133Z" fill="white"/>
<path d="M17.5217 38.9831V39.7745H16.4355V43.1586C16.4355 43.2625 16.4461 43.3439 16.4612 43.4074C16.4802 43.4711 16.5141 43.5222 16.5627 43.555C16.6127 43.5891 16.6768 43.6131 16.7667 43.6254C16.8548 43.6339 16.9714 43.6402 17.1088 43.6402H17.5242L17.5217 44.4291H16.8357C16.605 44.4291 16.4066 44.4115 16.2417 44.3805C16.0772 44.3505 15.9405 44.2931 15.8425 44.2093C15.7396 44.1226 15.6642 44.006 15.6156 43.8495C15.5628 43.6948 15.542 43.4912 15.542 43.2393V39.7745H14.615V38.9831H15.542V37.3494H16.4355V38.9831H17.5217Z" fill="white"/>
<path d="M21.27 44.5462C21.0396 44.5462 20.8536 44.481 20.7169 44.351C20.5819 44.2199 20.5136 44.0082 20.5136 43.7119C20.2655 44.0085 19.9812 44.2199 19.6549 44.351C19.3262 44.481 18.9728 44.5462 18.5944 44.5462C18.3481 44.5462 18.1181 44.5222 17.8986 44.4669C17.6805 44.4141 17.4888 44.3242 17.326 44.2016C17.1597 44.0818 17.0315 43.9275 16.9357 43.7295C16.8416 43.5357 16.7926 43.3021 16.7926 43.0297C16.7926 42.7204 16.8458 42.4671 16.9519 42.2712C17.0572 42.0753 17.1943 41.915 17.3687 41.7899C17.5413 41.668 17.7372 41.5746 17.9553 41.5116C18.1797 41.4502 18.4049 41.3953 18.6367 41.3534C18.8819 41.3051 19.1162 41.2699 19.3393 41.2434C19.5573 41.2184 19.7539 41.1839 19.9206 41.1395C20.0904 41.0926 20.2222 41.0274 20.3223 40.9383C20.4202 40.8485 20.4709 40.722 20.4709 40.5525C20.4709 40.3559 20.4304 40.2012 20.3575 40.0783C20.2867 39.9613 20.1898 39.8697 20.0742 39.807C19.9583 39.7435 19.8283 39.6977 19.6877 39.6787C19.5401 39.6572 19.3988 39.6498 19.2575 39.6498C18.8784 39.6498 18.5613 39.721 18.3115 39.8665C18.0578 40.0082 17.9204 40.2805 17.8982 40.679H17.0026C17.0177 40.3432 17.0882 40.0582 17.2161 39.8292C17.3422 39.5938 17.5103 39.4095 17.7192 39.2647C17.9327 39.1203 18.1723 39.0142 18.4457 38.9533C18.7199 38.8877 19.0098 38.8578 19.3107 38.8578C19.557 38.8578 19.8012 38.8765 20.0436 38.9085C20.2839 38.9455 20.5058 39.0177 20.7021 39.1266C20.8997 39.2344 21.0551 39.3888 21.177 39.5839C21.2975 39.7823 21.3542 40.0363 21.3542 40.3534V43.1591C21.3542 43.3655 21.3669 43.5227 21.393 43.6185C21.4159 43.7196 21.4976 43.7689 21.6389 43.7668C21.7161 43.7668 21.8073 43.7481 21.9116 43.7122V44.4098C21.7601 44.5 21.5441 44.5462 21.27 44.5462ZM20.0175 41.8033C19.8346 41.8396 19.6444 41.8716 19.4414 41.8963C19.2431 41.9188 19.0405 41.9491 18.8372 41.9794C18.6342 42.0122 18.45 42.0644 18.29 42.1345C18.1286 42.2028 17.9962 42.3043 17.8943 42.434C17.7925 42.5633 17.7418 42.7405 17.7418 42.9642C17.7418 43.1154 17.7717 43.2355 17.8313 43.3391C17.8922 43.4406 17.9676 43.5223 18.0642 43.5868C18.1589 43.6488 18.2685 43.6935 18.3975 43.7256C18.5292 43.7524 18.6596 43.7686 18.7949 43.7686C19.0909 43.7686 19.3428 43.7256 19.5545 43.6463C19.7652 43.5625 19.935 43.461 20.0686 43.3391C20.2035 43.2161 20.2997 43.0826 20.3659 42.9378C20.428 42.794 20.4597 42.6594 20.4597 42.5354V41.618C20.3469 41.7022 20.2004 41.7645 20.0175 41.8033Z" fill="white"/>
<path d="M22.757 38.9833V40.1347H22.7778C22.9582 39.633 23.201 39.4801 23.4723 39.2895C23.7788 39.0692 24.2946 38.9776 24.7791 38.9917V39.807C24.4229 39.807 24.1139 39.8532 23.8626 39.9522C23.6072 40.053 23.4057 40.1974 23.2521 40.3863C23.0995 40.5734 22.985 40.8055 22.9166 41.0761C22.8451 41.3446 22.8092 41.6561 22.8092 42.0084V44.43H21.9128V38.9836H22.757V38.9833Z" fill="white"/>
<path d="M27.5528 38.9831V39.7745H26.4676L26.469 43.1586C26.4676 43.2625 26.4757 43.3439 26.4951 43.4074C26.5117 43.4711 26.5444 43.5222 26.5941 43.555C26.6445 43.5891 26.7111 43.6131 26.8016 43.6254C26.8876 43.6339 27 43.6402 27.1385 43.6402H27.5542L27.5528 44.4291H26.8672C26.636 44.4291 26.4363 44.4115 26.2724 44.3805C26.1075 44.3505 25.9726 44.2913 25.8697 44.2093C25.7711 44.1226 25.6943 44.0049 25.646 43.8495C25.5967 43.6948 25.5713 43.4912 25.5709 43.2393V39.7745H24.645V38.9831H25.5713L25.5709 37.3494H26.4676V38.9831H27.5528Z" fill="white"/>
<path d="M31.0399 44.4295V43.5649H31.0202C30.8303 43.9031 30.5872 44.1498 30.2919 44.3059C29.9981 44.4672 29.6482 44.5444 29.2504 44.5465C28.8903 44.5465 28.5926 44.5003 28.3537 44.4038C28.1155 44.3062 27.9211 44.1758 27.7748 43.9993C27.6269 43.8239 27.5201 43.6139 27.4623 43.3718C27.4024 43.1305 27.3735 42.8616 27.3735 42.5671V38.9839H28.2695V42.6696C28.2681 43.0079 28.3689 43.2749 28.563 43.4719C28.761 43.6695 29.0302 43.7671 29.3737 43.7671C29.6478 43.7671 29.8832 43.7245 30.0872 43.6414C30.2848 43.5561 30.4543 43.4377 30.5868 43.2834C30.7179 43.1284 30.8186 42.9469 30.8856 42.7373C30.9539 42.534 30.9885 42.305 30.9895 42.0601V38.9839H31.8827V44.4302H31.0399V44.4295Z" fill="white"/>
<path d="M32.6421 38.9831L32.641 39.7223H32.6628C32.8136 39.4197 33.0412 39.2012 33.3576 39.0645C33.6769 38.9261 34.0232 38.8556 34.4048 38.8556C34.824 38.8556 35.1908 38.9328 35.5033 39.0892C35.8162 39.2435 36.0759 39.451 36.2823 39.716C36.4895 39.9788 36.6456 40.2846 36.7502 40.6282C36.8556 40.9699 36.9088 41.3385 36.9088 41.7232C36.9102 42.1104 36.8573 42.4761 36.7573 42.8204C36.6562 43.1635 36.4997 43.4606 36.2933 43.7174C36.0843 43.9743 35.8278 44.1793 35.5129 44.3217C35.201 44.4703 34.8353 44.5461 34.4238 44.5461C34.2899 44.5461 34.1402 44.5316 33.9749 44.5052C33.8104 44.4763 33.6462 44.4295 33.4841 44.3678C33.3245 44.3044 33.1698 44.2163 33.0264 44.1064C32.8841 44.0003 32.7601 43.8643 32.6628 43.7037H32.6417L32.6406 46.5058H31.7457V38.9828H32.6421V38.9831ZM35.8624 40.9167C35.7944 40.6733 35.6922 40.4587 35.5562 40.2677C35.4188 40.0778 35.2437 39.9274 35.0287 39.8157C34.8156 39.7037 34.564 39.6466 34.2793 39.6466C33.9749 39.6466 33.7177 39.7082 33.506 39.8301C33.2953 39.9454 33.1244 40.1007 32.9909 40.2942C32.8584 40.4901 32.7608 40.7085 32.7027 40.9509C32.641 41.1979 32.6114 41.4498 32.6132 41.7017C32.6114 41.9667 32.6414 42.2253 32.7076 42.4758C32.7717 42.726 32.8679 42.9458 33.005 43.1332C33.1427 43.3239 33.3214 43.4768 33.5363 43.5909C33.7551 43.7097 34.0197 43.766 34.328 43.766C34.6377 43.7681 34.8959 43.7068 35.1027 43.5863C35.311 43.4648 35.4748 43.3105 35.6041 43.1146C35.7288 42.9155 35.8204 42.6911 35.8765 42.4392C35.9342 42.1862 35.961 41.9237 35.961 41.6566C35.961 41.4079 35.9293 41.1591 35.8624 40.9167Z" fill="white"/>
<path d="M37.4678 43.2133C37.5502 43.349 37.6619 43.4589 37.8007 43.5406C37.9328 43.6185 38.0886 43.6794 38.2616 43.7136C38.4335 43.7482 38.6107 43.7686 38.7929 43.7686C38.9363 43.7686 39.0822 43.7584 39.2372 43.7341C39.3915 43.7119 39.5345 43.6749 39.6624 43.6181C39.7914 43.5625 39.901 43.4797 39.9845 43.3712C40.0697 43.2633 40.1113 43.1231 40.1113 42.9547C40.1113 42.7264 40.0243 42.5471 39.8481 42.4294C39.6716 42.3089 39.451 42.2116 39.1903 42.1405C38.9257 42.0644 38.6382 41.9957 38.3303 41.9386C38.0237 41.8822 37.7348 41.7948 37.4738 41.6867C37.2077 41.5785 36.989 41.4256 36.8131 41.2265C36.638 41.0313 36.5503 40.7558 36.5503 40.4084C36.5503 40.1346 36.6102 39.8979 36.7367 39.6974C36.8582 39.5064 37.0171 39.3444 37.2078 39.2193C37.4015 39.0995 37.6189 39.0079 37.8613 38.9476C38.1037 38.8877 38.3447 38.8578 38.5854 38.8578C38.8919 38.8578 39.1762 38.8839 39.4362 38.9371C39.697 38.9892 39.9267 39.0805 40.1272 39.2122C40.3259 39.3419 40.4865 39.5174 40.6067 39.7383C40.7251 39.9564 40.7962 40.2329 40.8174 40.5652H39.92C39.9063 40.3862 39.8622 40.241 39.7851 40.1272C39.7072 40.0113 39.6096 39.918 39.4884 39.8468C39.3718 39.7774 39.2393 39.7266 39.0955 39.6963C38.95 39.6629 38.8052 39.6495 38.659 39.6495C38.5262 39.6495 38.3891 39.6558 38.2535 39.6784C38.115 39.6977 37.9913 39.7383 37.8782 39.7897C37.7669 39.8429 37.6735 39.912 37.6048 39.9986C37.5326 40.0888 37.4991 40.2026 37.4991 40.3429C37.5009 40.4965 37.5523 40.6247 37.6626 40.728C37.7708 40.8298 37.9107 40.9129 38.0787 40.9788C38.2457 41.0451 38.4395 41.1021 38.6474 41.1476C38.8595 41.1966 39.0695 41.2431 39.2784 41.292C39.5042 41.3403 39.7241 41.4027 39.9369 41.4686C40.1515 41.5418 40.3414 41.6356 40.5045 41.7497C40.6729 41.8632 40.804 42.0122 40.9065 42.187C41.0083 42.3621 41.0591 42.5777 41.0598 42.8388C41.0591 43.1686 40.9932 43.4441 40.8554 43.6608C40.7187 43.876 40.5394 44.054 40.3174 44.1879C40.0944 44.32 39.8481 44.4123 39.5726 44.4673C39.2907 44.5222 39.0184 44.5465 38.7439 44.5465C38.4423 44.5465 38.1523 44.5138 37.8786 44.4525C37.6052 44.3876 37.3614 44.2837 37.1521 44.1368C36.9428 43.9951 36.7712 43.807 36.6451 43.5716C36.5214 43.337 36.4492 43.0484 36.4358 42.7144H37.3304C37.336 42.9096 37.3843 43.0787 37.4678 43.2133Z" fill="white"/>
<path fill-rule="evenodd" clip-rule="evenodd" d="M22.7725 7.05786C24.2329 7.05786 25.4946 7.39751 26.5485 8.07681C27.6054 8.75082 28.425 9.78702 28.9979 11.1815C29.0345 11.2699 29.07 11.3605 29.1043 11.4533C29.3531 10.7455 29.6618 10.1379 30.0302 9.63023C31.2884 7.91614 33.0458 7.05786 35.2962 7.05786C36.7562 7.05786 38.0119 7.39751 39.0725 8.07681C40.1263 8.75082 40.9447 9.78702 41.5183 11.1815C42.0976 12.574 42.3851 14.5118 42.3851 17.001C42.3851 19.5103 42.0909 21.4682 41.5049 22.8641C40.9222 24.2604 40.1344 25.291 39.1447 25.9435C38.1557 26.6013 36.9081 26.9279 35.4029 26.9279C33.8974 26.9279 32.6304 26.5975 31.6073 25.9396C30.5802 25.2759 29.7801 24.2752 29.1984 22.9276C29.1562 22.83 29.1156 22.7294 29.0765 22.6258C29.0455 22.707 29.0135 22.7864 28.9806 22.8641C28.3996 24.2604 27.6139 25.291 26.6249 25.9435C25.6342 26.5992 24.3862 26.9279 22.8807 26.9279C21.3748 26.9279 20.1089 26.5975 19.084 25.9396C18.0587 25.2759 17.2571 24.2752 16.6758 22.9276C16.5384 22.6075 16.4171 22.255 16.312 21.8701V26.9287L12.318 26.9262V12.2738H9.67517L10.9245 7.53251H16.312V12.3492C16.5928 11.2467 16.9904 10.3406 17.5052 9.63023C18.7669 7.91614 20.5218 7.05786 22.7725 7.05786Z" fill="white"/>
<path d="M11.3886 30.8806C11.5631 30.3398 11.8312 29.867 12.1789 29.4664C12.5295 29.0647 12.9643 28.7497 13.4797 28.5172C13.9987 28.2878 14.5885 28.1722 15.2597 28.1722C15.9411 28.1722 16.5369 28.2878 17.0478 28.5172C17.5611 28.7497 17.9896 29.065 18.3419 29.4664C18.6939 29.867 18.9578 30.3398 19.1315 30.8806C19.3073 31.4264 19.395 32.013 19.395 32.6342C19.395 33.2613 19.3073 33.8465 19.1315 34.3814C18.9578 34.9208 18.6928 35.3915 18.3419 35.7921C17.9896 36.1931 17.558 36.5063 17.0478 36.7307C16.5369 36.9566 15.9408 37.0676 15.2587 37.0676C14.5889 37.0676 13.9987 36.9566 13.4797 36.7307C12.9643 36.5063 12.5313 36.1931 12.1789 35.7921C11.8312 35.3915 11.562 34.9208 11.3886 34.3814C11.2114 33.8465 11.1248 33.2613 11.1248 32.6342C11.1248 32.013 11.2114 31.4264 11.3886 30.8806ZM12.8156 34.0128C12.9509 34.412 13.1415 34.7499 13.3839 35.017C13.6221 35.2883 13.9071 35.4955 14.2309 35.635C14.5572 35.778 14.9007 35.8492 15.2597 35.8492C15.6233 35.8492 15.9658 35.778 16.2899 35.635C16.6127 35.4958 16.8963 35.2883 17.1376 35.017C17.3786 34.7499 17.5689 34.412 17.7067 34.0128C17.8444 33.6129 17.911 33.1503 17.911 32.6345C17.911 32.1222 17.8412 31.6607 17.7049 31.2622C17.5685 30.8609 17.3783 30.523 17.1376 30.2478C16.8959 29.9751 16.6127 29.7637 16.2899 29.6214C15.9658 29.4804 15.6212 29.4093 15.2587 29.4093C14.9007 29.4093 14.5572 29.4801 14.2309 29.6214C13.9071 29.7662 13.6217 29.9751 13.3839 30.2478C13.1404 30.523 12.9509 30.8609 12.8156 31.2622C12.6775 31.661 12.6063 32.1222 12.6063 32.6345C12.6077 33.15 12.6775 33.6129 12.8156 34.0128Z" fill="white"/>
<path d="M20.4203 28.3721V29.5253H20.4503C20.6803 29.0507 21.045 28.7093 21.5407 28.4951C22.0322 28.2798 22.5766 28.172 23.1696 28.172C23.8298 28.172 24.4034 28.2939 24.8911 28.536C25.3812 28.7784 25.7874 29.1036 26.1115 29.514C26.4364 29.9284 26.6777 30.4019 26.8405 30.9403C27.0086 31.4786 27.0924 32.0508 27.0924 32.6533C27.0924 33.2572 27.0114 33.8273 26.8511 34.3667C26.6918 34.9065 26.4484 35.3744 26.1288 35.775C25.8025 36.1745 25.3959 36.4919 24.908 36.7234C24.4193 36.9517 23.8492 37.0655 23.2013 37.0655C22.9948 37.0655 22.7602 37.0451 22.5012 37.0049C22.2436 36.9581 21.9896 36.8859 21.7366 36.789C21.4847 36.6893 21.2441 36.5526 21.02 36.3866C20.7942 36.2129 20.605 36.0033 20.4503 35.7531H20.4203L20.4186 39.4265H19.0177V28.3714H20.4203V28.3721ZM25.4516 31.3916C25.3452 31.0157 25.186 30.6778 24.9742 30.3797C24.7593 30.0845 24.4838 29.847 24.148 29.6712C23.8168 29.4968 23.4218 29.409 22.9698 29.409C22.5005 29.409 22.0992 29.501 21.7691 29.6856C21.4389 29.8769 21.1708 30.1218 20.9612 30.4213C20.7515 30.7239 20.6032 31.0664 20.507 31.4487C20.4154 31.8352 20.3685 32.2242 20.3685 32.6195C20.3685 33.038 20.42 33.4432 20.5165 33.8294C20.6152 34.2205 20.772 34.5622 20.9858 34.8628C21.1986 35.157 21.4763 35.3955 21.8198 35.5784C22.157 35.7577 22.5692 35.8493 23.054 35.8493C23.5381 35.8493 23.9394 35.7559 24.2643 35.5688C24.5902 35.3853 24.8505 35.1355 25.0482 34.8251C25.2452 34.5224 25.3886 34.168 25.4756 33.7705C25.564 33.3784 25.6073 32.9732 25.6073 32.5543C25.6073 32.1569 25.5542 31.7721 25.4516 31.3916Z" fill="white"/>
<path d="M33.0146 36.3461C32.3766 36.8259 31.5757 37.068 30.6103 37.0662C29.9296 37.068 29.3402 36.9588 28.8381 36.7382C28.3388 36.5233 27.9189 36.2108 27.5789 35.8141C27.2382 35.4205 26.9831 34.9491 26.8101 34.4005C26.6445 33.8502 26.5469 33.2522 26.5254 32.6025C26.5254 31.9553 26.6219 31.3648 26.8206 30.8233C27.0194 30.2863 27.2945 29.8198 27.6536 29.4231C28.0091 29.0281 28.4329 28.7209 28.9209 28.5014C29.4092 28.2794 29.9469 28.1716 30.5265 28.1716C31.2854 28.1716 31.9118 28.3281 32.4146 28.6395C32.9114 28.9552 33.3134 29.3516 33.6154 29.8378C33.9169 30.3209 34.1255 30.8469 34.2429 31.4159C34.3567 31.9898 34.4049 32.5314 34.3831 33.0479H28.0076C27.996 33.4228 28.0401 33.7744 28.1401 34.1105C28.2374 34.4463 28.3963 34.7412 28.6151 35.0005C28.8342 35.2609 29.1168 35.4642 29.4578 35.6189C29.7978 35.7735 30.1995 35.8486 30.6582 35.8468C31.2526 35.8486 31.7385 35.7119 32.1162 35.4381C32.4978 35.1608 32.7472 34.744 32.867 34.1842H34.251C34.0628 35.1422 33.6538 35.8602 33.0146 36.3461ZM32.6789 30.8733C32.5538 30.5788 32.3797 30.3233 32.1652 30.107C31.9527 29.8931 31.7001 29.7268 31.4094 29.5986C31.1152 29.4728 30.7953 29.409 30.4444 29.409C30.0832 29.409 29.7549 29.4728 29.4635 29.5986C29.1746 29.7268 28.9209 29.8984 28.7169 30.1151C28.5065 30.3349 28.3427 30.5918 28.2212 30.8832C28.0996 31.1742 28.0298 31.4811 28.008 31.8151H32.8991C32.8751 31.4811 32.8029 31.1721 32.6789 30.8733Z" fill="white"/>
<path d="M35.2023 28.372V29.7211H35.2361C35.8171 28.6888 36.7374 28.1722 38.0043 28.1722C38.5638 28.1722 39.0272 28.2494 39.4027 28.4058C39.7755 28.5566 40.0782 28.773 40.31 29.045C40.5394 29.3205 40.7 29.6457 40.7955 30.0262C40.8892 30.4043 40.934 30.8235 40.9364 31.2833L40.934 36.885L39.5345 36.8861V31.1206C39.5345 30.5938 39.3802 30.1763 39.073 29.8715C38.7664 29.5594 38.344 29.4086 37.8039 29.4086C37.3758 29.4086 37.0034 29.4766 36.693 29.6045C36.3801 29.7373 36.119 29.9237 35.9101 30.1636C35.7008 30.4081 35.5447 30.6889 35.4408 31.0152C35.3344 31.3383 35.2847 31.6906 35.2847 32.0771L35.284 36.885L33.8817 36.8861L33.8835 28.3717H35.2023V28.372Z" fill="white"/>
</svg>
