<svg width="132" height="20" viewBox="0 0 132 20" fill="none" xmlns="http://www.w3.org/2000/svg">
<g clip-path="url(#clip0_196_2831)">
<path d="M13.7864 1.73823C14.153 0.492707 15.0417 0.231361 16.1139 0.258291C16.8884 0.277877 17.6634 0.258903 18.4385 0.264412C18.6487 0.265636 18.8601 0.284609 19.0691 0.307255C19.8412 0.391718 20.3293 0.832395 20.5908 1.55584C20.9285 2.48983 21.2686 3.42321 21.6081 4.35659C21.8045 4.89642 22.0026 5.43563 22.2261 6.04768C22.5813 5.0733 22.9093 4.17419 23.2355 3.27509C23.4397 2.71384 23.6475 2.15381 23.8427 1.58889C24.1368 0.739975 24.7409 0.301135 25.6114 0.276653C26.5961 0.248498 27.5826 0.26992 28.6101 0.26992C28.4186 0.804853 28.2356 1.32387 28.0471 1.84044C26.8546 5.11369 25.6592 8.38633 24.4733 11.662C24.4202 11.8095 24.3996 12.006 24.4498 12.1498C24.8164 13.2026 25.2049 14.2473 25.5873 15.2939C25.6072 15.349 25.6362 15.4004 25.6827 15.5014C25.9243 14.8429 26.1515 14.2308 26.3744 13.6175C27.8121 9.65695 29.2481 5.69637 30.6852 1.73578C31.0724 0.668977 31.5968 0.282161 32.7143 0.267472C33.6295 0.255231 34.5447 0.265024 35.5046 0.265024C35.4629 0.388046 35.4303 0.488422 35.3947 0.586963C33.2924 6.37452 31.1842 12.159 29.0934 17.9509C28.7376 18.9363 28.0356 19.3372 27.0588 19.3433C26.0935 19.3494 25.1282 19.3304 24.1622 19.3212C23.2065 19.3127 22.5553 18.8726 22.246 17.8774C22.1784 18.0157 22.1288 18.1051 22.0896 18.1987C21.7954 18.8946 21.2656 19.2796 20.528 19.298C19.3833 19.3267 18.2373 19.3255 17.0919 19.3035C16.2746 19.2876 15.7092 18.8616 15.4234 18.0837C14.9655 16.8375 14.5155 15.589 14.0618 14.3416C13.9754 14.1041 13.8878 13.8673 13.7809 13.5753C13.7066 13.7534 13.645 13.8856 13.5955 14.0221C13.1406 15.2793 12.6579 16.5266 12.2441 17.7972C11.895 18.8708 11.1809 19.3469 10.102 19.3476C9.24662 19.3476 8.39123 19.3476 7.53644 19.3457C7.5002 19.3457 7.46335 19.3292 7.39267 19.3127C7.57208 18.812 7.74304 18.3285 7.91823 17.8468C9.1107 14.5736 10.3014 11.2997 11.5011 8.02951C11.5977 7.76632 11.602 7.53925 11.5011 7.27423C11.109 6.24232 10.7393 5.20183 10.3346 4.09279C10.2712 4.24152 10.2265 4.33272 10.192 4.4282C8.55977 8.92004 6.91786 13.4088 5.30493 17.908C4.93704 18.9338 4.2224 19.3402 3.20934 19.3469C2.34429 19.3531 1.47863 19.3469 0.613569 19.3457C0.586385 19.3457 0.559201 19.3274 0.5 19.3059C0.660688 18.8561 0.818356 18.4111 0.979044 17.9674C2.94657 12.5489 4.9153 7.13285 6.88282 1.71681C7.25977 0.679382 7.79801 0.281549 8.89686 0.266248C9.80239 0.253395 10.7079 0.267472 11.6134 0.260739C12.5969 0.253395 13.3689 0.575334 13.7139 1.59195C13.7235 1.62072 13.7411 1.64642 13.787 1.73823H13.7864ZM18.7429 15.4329C18.7659 15.4353 18.7894 15.4378 18.8124 15.4402C19.2232 14.311 19.6382 13.183 20.0387 12.0501C20.0731 11.9528 20.0357 11.8138 19.997 11.7073C19.3482 9.90728 18.694 8.10968 18.0404 6.31148C17.7764 5.5862 17.51 4.86153 17.2261 4.08484C17.1614 4.24274 17.1167 4.34312 17.0787 4.44656C16.7204 5.42523 16.3556 6.40206 16.0142 7.38685C15.9575 7.55027 15.9599 7.76877 16.0179 7.93219C16.5857 9.53576 17.1705 11.1326 17.7528 12.7307C18.0808 13.6322 18.4131 14.5319 18.7435 15.4323L18.7429 15.4329Z" fill="#4A5567"/>
<path d="M82.5627 10.4331C83.8397 7.20143 85.1325 3.93859 86.4143 0.671456C86.5213 0.399094 86.6463 0.290148 86.9544 0.294433C88.4634 0.31463 89.9724 0.303614 91.5322 0.303614C92.0414 6.6512 92.5495 12.989 93.0611 19.3653H92.1592C91.4144 19.3653 90.6702 19.3653 89.9253 19.3653C88.7854 19.3653 88.1946 18.861 88.104 17.7079C87.9197 15.3601 87.7596 13.0092 87.6177 10.6583C87.5706 9.87916 87.6104 9.09512 87.6104 8.31781C87.6002 8.33128 87.5627 8.35943 87.5536 8.39554C86.9719 10.6742 85.9341 12.7748 85.0515 14.9359C84.8908 15.3295 84.7126 15.7151 84.5574 16.1105C84.4957 16.2671 84.4124 16.3198 84.2451 16.3185C83.1583 16.3106 82.0715 16.3106 80.9848 16.3185C80.8096 16.3198 80.7226 16.269 80.6537 16.0994C79.6207 13.5404 78.3739 11.0665 77.6484 8.38514C77.6435 8.368 77.6315 8.3527 77.5831 8.26395C77.5831 8.53693 77.5898 8.73952 77.5819 8.94149C77.5282 10.4123 77.4865 11.8836 77.4122 13.3532C77.3463 14.6507 77.2521 15.9476 77.1512 17.2427C77.1216 17.6241 77.0642 18.0121 76.9525 18.3757C76.7567 19.0128 76.2608 19.3329 75.6313 19.3513C74.4866 19.3849 73.34 19.3611 72.1608 19.3611C72.1814 19.0477 72.1965 18.749 72.2206 18.4515C72.3946 16.3265 72.574 14.2021 72.7444 12.077C72.8954 10.195 73.0355 8.31169 73.1848 6.42902C73.3412 4.45577 73.5043 2.48313 73.659 0.509263C73.6717 0.348293 73.7345 0.303001 73.8825 0.303001C75.412 0.306062 76.9416 0.307898 78.4705 0.301165C78.6669 0.300553 78.691 0.43092 78.743 0.561287C79.4794 2.40295 80.2321 4.23788 80.9497 6.08689C81.5019 7.50991 82.0105 8.95068 82.5391 10.3835C82.5524 10.4202 82.5723 10.4539 82.5627 10.4343V10.4331Z" fill="#4A5567"/>
<path d="M129.667 15.316C130.276 15.8289 130.876 16.3345 131.5 16.8596C130.566 17.9117 129.649 18.9442 128.712 20C128.077 19.3972 127.456 18.8096 126.833 18.219C124.932 19.4816 122.83 19.8507 120.626 19.6542C116.039 19.2448 112.715 15.9605 111.943 11.7698C111.424 8.95802 111.869 6.32803 113.546 3.98571C115.116 1.79335 117.282 0.550882 119.912 0.14448C122.198 -0.208674 124.404 0.0685854 126.463 1.17701C129.129 2.61288 130.744 4.85666 131.321 7.85082C131.824 10.4667 131.249 12.8623 129.815 15.07C129.766 15.1446 129.723 15.223 129.667 15.316H129.667ZM126.028 12.0746C126.064 12.0532 126.101 12.0324 126.138 12.0109C126.643 10.6387 126.737 9.24323 126.245 7.85021C125.587 5.98712 124.292 4.79913 122.347 4.498C120.468 4.20728 118.896 4.87502 117.739 6.41005C116.752 7.71984 116.507 9.22671 116.772 10.826C117.155 13.1243 118.848 15.0314 121.212 15.2548C121.923 15.3221 122.62 15.2524 123.347 14.9928C122.784 14.5038 122.263 14.0509 121.725 13.5827C122.651 12.53 123.563 11.4931 124.529 10.3951C125.045 10.9735 125.536 11.5244 126.027 12.0746H126.028Z" fill="#4A5567"/>
<path d="M62.8759 9.37848C64.4037 9.90056 65.3551 10.9331 65.6735 12.4675C66.2395 15.1936 65.2011 17.736 62.2362 18.8077C61.2068 19.1799 60.1406 19.361 59.0478 19.3635C57.3274 19.3684 55.6069 19.3653 53.8865 19.3647C52.7115 19.3641 52.1491 18.82 52.1026 17.632C52.0857 17.2054 52.0827 16.7788 52.0827 16.3516C52.0815 11.1449 52.0821 5.93814 52.0821 0.731422V0.303598C52.2204 0.303598 52.3279 0.303598 52.4348 0.303598C54.5782 0.303598 56.7209 0.294417 58.8642 0.306658C60.2252 0.314615 61.5475 0.539238 62.7485 1.23086C64.4659 2.21993 65.1793 3.75312 65.0374 5.7123C64.9244 7.26813 64.2194 8.48795 62.8765 9.37848H62.8759ZM56.8423 11.4674C56.8423 12.6034 56.8314 13.74 56.8489 14.8759C56.8538 15.1875 57.0567 15.3368 57.3739 15.3392C58.0076 15.3441 58.6431 15.368 59.2744 15.3282C59.5625 15.3099 59.8712 15.2083 60.1213 15.0589C60.7852 14.6635 61.0903 13.7228 60.8879 12.8458C60.7 12.0323 60.2572 11.55 59.4399 11.4827C58.5923 11.4129 57.7345 11.4674 56.8417 11.4674H56.8423ZM56.8326 4.3615C56.8326 5.42524 56.8296 6.47797 56.8411 7.5307C56.8411 7.58334 56.9667 7.68004 57.0338 7.68004C57.6457 7.68249 58.2589 7.69106 58.869 7.65372C59.6725 7.60476 60.2216 6.99026 60.2651 6.14379C60.3164 5.14248 59.9062 4.47473 59.0539 4.37802C58.3332 4.29662 57.5962 4.3615 56.8332 4.3615H56.8326Z" fill="#4A5567"/>
<path d="M111.609 19.3585C110.398 19.3585 109.221 19.3854 108.046 19.3493C107.256 19.3249 106.717 18.8781 106.453 18.1203C106.166 17.299 105.882 16.4764 105.621 15.647C105.551 15.4242 105.445 15.3796 105.237 15.3802C103.607 15.3875 101.978 15.3894 100.348 15.3783C100.125 15.3771 100.04 15.4536 99.9756 15.6593C99.7484 16.3833 99.4989 17.1 99.2603 17.8198C98.8737 18.9852 98.3572 19.364 97.1514 19.3646C96.2054 19.3646 95.26 19.3646 94.314 19.3646H93.9812C94.2524 18.5494 94.5098 17.7739 94.7683 16.9978C96.5908 11.5267 98.4158 6.05619 100.232 0.58323C100.307 0.359219 100.411 0.295565 100.638 0.297402C102.087 0.308419 103.536 0.307807 104.985 0.297402C105.203 0.295565 105.294 0.366563 105.363 0.574049C106.865 5.0965 108.375 9.61588 109.883 14.1365C110.437 15.7964 110.989 17.4575 111.541 19.118C111.563 19.1847 111.58 19.2526 111.609 19.3585H111.609ZM104.48 11.4839C103.902 9.3986 103.331 7.34028 102.802 5.43129C102.269 7.35313 101.698 9.41329 101.124 11.4839H104.48Z" fill="#4A5567"/>
<path d="M51.2478 19.3647C50.4226 19.3647 49.6198 19.3708 48.8176 19.3622C48.3566 19.3573 47.8933 19.3524 47.4354 19.3035C46.8072 19.2367 46.3783 18.856 46.1578 18.2783C45.8618 17.504 45.6105 16.712 45.3447 15.9262C45.1622 15.3851 45.1658 15.3839 44.6155 15.3839C43.086 15.3839 41.5564 15.3912 40.0275 15.3771C39.7665 15.3747 39.6662 15.4647 39.5907 15.7058C39.3466 16.488 39.0881 17.2653 38.8132 18.0371C38.4804 18.9711 37.921 19.3598 36.9442 19.3634C35.8477 19.3677 34.7519 19.3647 33.6162 19.3647C33.8512 18.651 34.0747 17.9618 34.3037 17.2751C36.1564 11.7177 38.011 6.16026 39.8583 0.601C39.935 0.369645 40.0389 0.294362 40.283 0.29681C41.7219 0.310276 43.1609 0.308439 44.5992 0.298035C44.8282 0.296198 44.9266 0.366584 45.0003 0.589371C46.1904 4.1815 47.3919 7.76996 48.5886 11.3596C49.4434 13.9223 50.2952 16.4856 51.1481 19.0488C51.1796 19.1437 51.208 19.2398 51.2466 19.3647H51.2478ZM42.4354 5.43865C41.8953 7.38253 41.3281 9.42556 40.7596 11.471H44.1099C43.539 9.41454 42.973 7.37457 42.4354 5.43865Z" fill="#4A5567"/>
<path d="M71.2221 0.321899V19.3438H66.7778V0.321899H71.2221Z" fill="#4A5567"/>
</g>
<defs>
<clipPath id="clip0_196_2831">
<rect width="131" height="20" fill="white" transform="translate(0.5)"/>
</clipPath>
</defs>
</svg>
