<svg width="80" height="36" viewBox="0 0 80 36" fill="none" xmlns="http://www.w3.org/2000/svg">
<g clip-path="url(#clip0_196_2852)">
<path d="M36.9355 0.0229492H0V35.9667H36.9355C39.2601 30.1144 40.2146 23.9602 40.2354 17.996C40.258 11.516 39.1709 5.3046 36.9355 0.0229492Z" fill="#CDD5E0"/>
<path d="M36.9355 0.0229492H0V35.9667H36.9355C39.2601 30.1144 40.2146 23.9602 40.2354 17.996C40.258 11.516 39.1709 5.3046 36.9355 0.0229492Z" fill="#CDD5E0" stroke="#D2DDEA" stroke-width="0.1266" stroke-miterlimit="3.8637"/>
<path d="M80.037 35.9667H36.9355C39.2208 30.1914 40.2053 24.1178 40.2345 17.9955C40.2654 11.6658 39.1875 5.30235 36.9346 0.0229492H80.037V35.9667Z" fill="#364153"/>
<path fill-rule="evenodd" clip-rule="evenodd" d="M61.495 6.59964C61.495 6.27294 61.7683 6.00879 62.1054 6.00879H63.3267C63.6633 6.00879 63.9371 6.27294 63.9371 6.59964L63.9361 17.3938C63.9361 17.7205 63.6615 17.986 63.3253 17.986H62.1128C61.7757 17.986 61.4968 17.7218 61.4968 17.3938V12.9464H56.541L56.5429 17.3938C56.5429 17.7205 56.2696 17.986 55.9311 17.986H54.7112C54.3741 17.986 54.1008 17.7205 54.1008 17.3938V6.59964C54.1008 6.27294 54.3755 6.00879 54.7126 6.00879H55.9357C56.2728 6.00879 56.5475 6.27294 56.5475 6.59964V10.9417H61.4968L61.495 6.59964Z" fill="white"/>
<path fill-rule="evenodd" clip-rule="evenodd" d="M76.5724 6.59967C76.8744 6.27297 76.9197 6.00567 76.5091 6.00882L74.701 6.01917C74.3657 6.01917 74.042 5.94807 73.5015 6.47322L68.9419 11.4295V6.61047C68.9419 6.28332 68.682 6.01962 68.3468 6.01962H67.1052C66.7671 6.01962 66.4938 6.28377 66.4938 6.61047V17.4037C66.4938 17.7291 66.7671 17.995 67.1029 17.995H68.35C68.689 17.995 68.9424 17.7291 68.9424 17.4037V14.89L71.04 12.622L74.0703 17.4037C74.2788 17.7291 74.5678 17.995 74.9049 17.995H76.6566C76.9937 17.995 77.0992 17.7291 76.8929 17.4037L72.6876 10.8315L76.5724 6.59967Z" fill="white"/>
<path fill-rule="evenodd" clip-rule="evenodd" d="M47.9593 6.00879C48.4199 6.00879 48.6631 6.27294 48.7778 6.59964L52.5641 17.3938C52.6793 17.7205 52.4985 17.986 52.1618 17.986H50.9489C50.6118 17.986 50.2349 17.7205 50.1211 17.3938L49.3137 14.962H45.1468L44.3445 17.3938C44.2284 17.7205 43.8525 17.986 43.514 17.986H42.3024C41.9644 17.986 41.7845 17.7205 41.8987 17.3938L45.6869 6.59964C45.8011 6.27294 46.0439 6.00879 46.5045 6.00879H47.9593ZM45.5954 12.9437H48.3769L46.9951 8.75874L45.5954 12.9437Z" fill="white"/>
<path fill-rule="evenodd" clip-rule="evenodd" d="M3.57782 24.8391H4.17528L5.66013 26.613L7.14776 24.8391H7.74753V29.1461H7.10707V25.7702L5.71054 27.4626H5.6125L4.21597 25.7828V29.1461H3.57782V24.8391Z" fill="#1D1D1B"/>
<path fill-rule="evenodd" clip-rule="evenodd" d="M8.76904 29.1461V24.8391H11.2907V25.3962H9.40812V26.7053H11.2208V27.2628H9.40812V28.589H11.3508V29.1461H8.76904Z" fill="#1D1D1B"/>
<path fill-rule="evenodd" clip-rule="evenodd" d="M12.2414 29.1461V24.8391H13.3582C13.8197 24.8391 14.179 24.9476 14.4324 25.1676C14.6867 25.3854 14.8139 25.6833 14.8139 26.0609C14.8139 26.5595 14.5679 26.9091 14.0777 27.1085C14.2678 27.2142 14.5078 27.4829 14.7982 27.9122C14.9489 28.1304 15.1108 28.3613 15.2819 28.5984C15.4539 28.8374 15.5843 29.0205 15.6735 29.1461H14.9152L14.3565 28.3059C14.1998 28.0647 14.025 27.8352 13.8312 27.6147C13.6389 27.3947 13.4118 27.284 13.1505 27.284H12.88V29.1465H12.2414V29.1461ZM12.8805 26.726H13.3105C13.8747 26.726 14.1558 26.5037 14.1558 26.0609C14.1558 25.6181 13.8779 25.3962 13.3193 25.3962H12.8805V26.726Z" fill="#1D1D1B"/>
<path fill-rule="evenodd" clip-rule="evenodd" d="M19.4502 25.1326V25.8116C18.9304 25.4953 18.4203 25.3387 17.9269 25.3387C17.4146 25.3387 16.9887 25.4957 16.6488 25.8116C16.3131 26.1271 16.1438 26.5253 16.1438 27.0064C16.1438 27.4829 16.3057 27.8762 16.6331 28.1854C16.9605 28.4932 17.3873 28.6493 17.9145 28.6493C18.4472 28.6493 18.9766 28.4909 19.5024 28.175V28.8428C18.966 29.0917 18.4425 29.2159 17.9343 29.2159C17.1875 29.2159 16.5928 29.0008 16.1503 28.5688C15.7064 28.1377 15.4858 27.6319 15.4858 27.0469C15.4858 26.3836 15.7147 25.8382 16.1716 25.4111C16.6321 24.985 17.2139 24.7712 17.9186 24.7712C18.0726 24.7712 18.2599 24.791 18.4818 24.8306C18.7034 24.8698 19.0271 24.9706 19.4502 25.1326Z" fill="#1D1D1B"/>
<path fill-rule="evenodd" clip-rule="evenodd" d="M19.8497 26.9933C19.8497 26.3804 20.0694 25.8571 20.511 25.4237C20.954 24.9881 21.5302 24.7717 22.2405 24.7708C22.9304 24.7708 23.4997 24.9805 23.9519 25.4021C24.4023 25.8202 24.6289 26.3521 24.6289 26.9933C24.6289 27.6188 24.4037 28.1453 23.9538 28.5742C23.5071 29.0008 22.9304 29.2154 22.2224 29.2154C21.5283 29.2154 20.96 29.0026 20.5142 28.5769C20.0703 28.1534 19.8497 27.6247 19.8497 26.9933ZM20.5078 26.9933C20.5078 27.4676 20.6715 27.8632 20.9998 28.1773C21.3286 28.4923 21.7424 28.6484 22.24 28.6484C22.7385 28.6484 23.1505 28.49 23.4775 28.1741C23.8058 27.8573 23.9695 27.4627 23.9695 26.9933C23.9695 26.5204 23.8058 26.1271 23.4775 25.8112C23.151 25.4948 22.7376 25.3382 22.2377 25.3382C21.7374 25.3382 21.324 25.493 20.9966 25.8049C20.6715 26.1145 20.5078 26.51 20.5078 26.9933Z" fill="#1D1D1B"/>
<path fill-rule="evenodd" clip-rule="evenodd" d="M25.1681 28.0252C25.4886 28.4468 25.8687 28.6592 26.3122 28.6592C26.5161 28.6592 26.684 28.6088 26.8185 28.5089C26.9535 28.4104 27.0211 28.2763 27.0211 28.1102C27.0211 27.9581 26.9757 27.824 26.8819 27.7102C26.7908 27.5972 26.5734 27.4384 26.2285 27.2336C25.9182 27.0428 25.6541 26.8534 25.4386 26.6711C25.2245 26.4857 25.1172 26.2373 25.1172 25.9313C25.1172 25.57 25.2403 25.2865 25.489 25.0795C25.7364 24.8738 26.0648 24.7717 26.4703 24.7712C26.8379 24.7712 27.1653 24.8734 27.4571 25.0772V25.7608C27.342 25.651 27.1931 25.5529 27.0081 25.4656C26.8264 25.3742 26.6275 25.3283 26.4107 25.3279C26.2007 25.3279 26.0296 25.3796 25.8988 25.4809C25.7702 25.5817 25.7045 25.7036 25.7045 25.8463C25.7045 26.0011 25.7651 26.1352 25.8863 26.2481C26.0065 26.3593 26.2137 26.4979 26.5073 26.663C26.9429 26.9263 27.2356 27.1526 27.3831 27.3448C27.5344 27.5311 27.6093 27.7642 27.6093 28.0427C27.6093 28.3852 27.4941 28.6673 27.2629 28.8883C27.0326 29.1061 26.7367 29.2163 26.3787 29.2163C25.9043 29.2163 25.5011 29.0818 25.1681 28.8163V28.0252Z" fill="#1D1D1B"/>
<path fill-rule="evenodd" clip-rule="evenodd" d="M28.1711 24.8391H28.8125V27.4131C28.8125 27.8627 28.936 28.1795 29.1862 28.3671C29.4368 28.5548 29.7198 28.6488 30.0347 28.6488H30.0611C30.4347 28.6488 30.7422 28.5597 30.9864 28.3856C31.2324 28.2092 31.3624 27.9126 31.3772 27.4968V27.3555V24.8391H32.0162V27.4541C32.0162 28.0278 31.8377 28.4657 31.4817 28.7654C31.1256 29.066 30.6585 29.2149 30.0796 29.2149C29.4965 29.2149 29.0326 29.066 28.6877 28.7694C28.3432 28.4715 28.1711 28.0499 28.1711 27.5049V24.8391Z" fill="#1D1D1B"/>
<path fill-rule="evenodd" clip-rule="evenodd" d="M32.8014 24.8391H33.4391V28.589H35.4243V29.1461H32.8014V24.8391Z" fill="#1D1D1B"/>
<path d="M2.01154 24.0471C8.81986 21.7616 23.3147 18.7403 37.5315 21.0825" stroke="#1D1D1B" stroke-width="0.6315" stroke-miterlimit="3.8637"/>
<path fill-rule="evenodd" clip-rule="evenodd" d="M16.4352 12.4434L15.4044 12.78L15.0557 13.7858L14.7071 12.78L13.6772 12.4434L14.7071 12.1028L15.0557 11.0997L15.4044 12.1028L16.4352 12.4434Z" fill="#1D1D1B"/>
<path fill-rule="evenodd" clip-rule="evenodd" d="M19.8664 9.22769L18.8356 9.56699L18.4865 10.57L18.1397 9.56699L17.1085 9.22769L18.1397 8.88839L18.4865 7.88489L18.8356 8.88839L19.8664 9.22769Z" fill="#1D1D1B"/>
<path fill-rule="evenodd" clip-rule="evenodd" d="M23.976 11.3099L22.9448 11.6483L22.5961 12.6527L22.2488 11.6483L21.2167 11.3099L22.2488 10.971L22.5961 9.96887L22.9448 10.971L23.976 11.3099Z" fill="#1D1D1B"/>
<path fill-rule="evenodd" clip-rule="evenodd" d="M21.2865 18.463L20.2552 18.8005L19.908 19.8036L19.5593 18.8005L18.5281 18.463L19.5593 18.1228L19.908 17.1198L20.2552 18.1228L21.2865 18.463Z" fill="#1D1D1B"/>
</g>
<defs>
<clipPath id="clip0_196_2852">
<rect width="80" height="36" fill="white"/>
</clipPath>
</defs>
</svg>
