<svg width="126" height="18" viewBox="0 0 126 18" fill="none" xmlns="http://www.w3.org/2000/svg">
<path d="M22.8444 7.34134V5.13672L19.8209 5.37818V16.9997H22.8444V10.6903C22.8444 9.57745 23.2538 8.65361 23.9782 8.00272C24.7026 7.35184 25.7419 6.9739 27.0332 6.9739C27.9045 6.9739 28.5974 7.26785 29.0698 7.78226C29.5422 8.29667 29.8152 9.05254 29.8152 9.97638V16.9997H32.8387V9.17852C32.8387 7.93974 32.3978 6.91091 31.5579 6.20753C30.7075 5.50416 29.4898 5.14722 28.0095 5.14722C26.8967 5.14722 25.8259 5.36768 24.8915 5.78761C24.0622 6.16554 23.3588 6.70095 22.8444 7.34134Z" fill="#4A5567"/>
<path d="M49.6778 16.9891V0.769409L46.6543 1.01087V6.95284C45.3735 5.78754 43.7043 5.14715 41.9091 5.14715C40.1034 5.14715 38.5602 5.68256 37.4684 6.72188C36.3556 7.7717 35.7782 9.27294 35.7782 11.0471C35.7782 12.9053 36.3766 14.459 37.4684 15.5404C38.5497 16.6217 40.1034 17.2306 41.9616 17.2306C43.9563 17.2306 45.7514 16.5062 46.9167 15.2149V16.9996L49.6778 16.9891ZM40.0089 8.04466C40.6703 7.27829 41.5942 6.80587 42.6755 6.80587C43.8303 6.80587 44.8276 7.27829 45.5415 8.04466C46.2554 8.81102 46.6963 9.89234 46.6963 11.1626C46.6963 12.4749 46.2764 13.5667 45.573 14.3436C44.8696 15.1099 43.8723 15.5614 42.686 15.5614C41.5837 15.5614 40.6493 15.1099 39.9879 14.3331C39.3266 13.5562 38.9276 12.4434 38.9276 11.1101C38.9381 9.87134 39.3581 8.81102 40.0089 8.04466Z" fill="#4A5567"/>
<path d="M81.2038 6.85842C80.9729 6.44899 80.6159 6.12355 80.1435 5.88209C79.2302 5.37818 77.7709 5.14722 75.7448 5.14722C73.8656 5.14722 71.766 5.39917 69.7608 5.8191L69.5719 5.86109L70.0758 7.15237L70.2017 7.13137C72.0389 6.88992 73.6976 6.80593 75.2514 6.80593C76.4797 6.80593 77.309 6.94241 77.8234 7.21536C78.0754 7.35184 78.2539 7.51981 78.3588 7.70877C78.4743 7.90824 78.5268 8.1497 78.5268 8.43315V9.27301C78.5268 9.27301 74.6005 9.50396 73.2987 9.59845C71.9025 9.73493 70.7581 10.1549 69.9708 10.8267C69.1729 11.4986 68.7425 12.4225 68.7425 13.5143C68.7425 14.7216 69.2254 15.6664 70.1703 16.3068C71.0626 16.9157 72.3644 17.2201 73.9076 17.2201C75.3983 17.2201 77.2775 16.8527 78.7683 15.11V16.9892H81.5398V8.30717C81.5398 7.74027 81.4348 7.25735 81.2038 6.85842ZM78.5373 12.9264C78.5373 13.4828 78.1699 14.0917 77.5085 14.5641C76.8261 15.0365 76.0597 15.362 74.8839 15.362C73.9286 15.362 73.1937 15.1835 72.6898 14.858C72.1649 14.5116 71.8919 13.9972 71.8919 13.3148C71.8919 12.6324 72.1229 12.076 72.5218 11.6666C72.9208 11.2572 73.5192 10.9947 74.2645 10.9212C75.3249 10.8372 78.5373 10.6273 78.5373 10.6273V12.9264Z" fill="#4A5567"/>
<path d="M87.0093 5.37805H83.5239L89.5709 16.9995H91.9225L98.0954 5.37805H96.0693L91.4711 14.0391L87.0093 5.37805Z" fill="#4A5567"/>
<path d="M106.106 5.14722C104.016 5.14722 102.2 5.68262 100.888 6.71145C99.5127 7.79276 98.7883 9.34649 98.7883 11.1837C98.7883 13.0209 99.5127 14.5641 100.888 15.6454C102.211 16.6847 104.016 17.2306 106.106 17.2306C108.184 17.2306 109.99 16.6847 111.292 15.6454C112.656 14.5641 113.37 13.0104 113.37 11.1837C113.37 9.34649 112.646 7.79276 111.292 6.71145C109.979 5.68262 108.184 5.14722 106.106 5.14722ZM103.135 7.98173C103.869 7.19436 104.888 6.65896 106.085 6.65896C108.489 6.65896 110.179 8.51714 110.179 11.1417C110.189 12.4645 109.738 13.5668 109.014 14.3541C108.289 15.152 107.271 15.6979 106.085 15.6979C104.888 15.6979 103.869 15.152 103.135 14.3541C102.4 13.5563 101.948 12.454 101.948 11.1417C101.948 9.85041 102.41 8.75859 103.135 7.98173Z" fill="#4A5567"/>
<path d="M119.207 7.90824V5.13672L116.184 5.37818V16.9997H119.207V12.118C119.207 10.7847 119.606 9.65094 120.352 8.85308C121.129 8.01322 121.664 7.5408 122.63 7.24686C123.365 7.02639 123.9 7.01589 124.519 7.01589C124.666 7.01589 124.824 7.01589 124.992 7.01589H125.086L126 5.2627L125.779 5.2312C125.422 5.17871 124.719 5.14722 124.194 5.14722C122.157 5.14722 120.278 6.19704 119.207 7.90824Z" fill="#4A5567"/>
<path d="M3.49626 10.0814C4.04217 7.18387 6.99216 5.14722 10.1206 5.14722C14.8448 5.14722 16.5455 8.54863 16.5455 10.3858C16.5455 10.7637 16.472 11.0577 16.2621 11.2572C16.0521 11.4566 15.7581 11.5196 15.4012 11.5196H6.39376C6.55124 12.8424 7.14963 13.8502 8.01048 14.5326C8.91333 15.257 10.1206 15.6244 11.4224 15.6244C13.0076 15.6244 14.4144 15.2675 15.8316 14.6796L15.9786 14.6166L16.514 15.9079L16.367 15.9709C14.2884 16.9052 12.4197 17.2201 10.2886 17.2201C8.47241 17.2201 6.7507 16.7057 5.48042 15.6769C4.30462 14.7216 3.52776 13.3253 3.41228 11.5091H0.000366211L0.766734 10.0814H3.49626ZM6.40426 10.0814H12.2203C12.7977 10.0814 13.1546 9.99738 13.3646 9.8714C13.5535 9.75592 13.6375 9.57745 13.6375 9.34649C13.6375 8.10771 12.3147 6.60646 10.1311 6.60646C8.96582 6.60646 8.08397 7.04739 7.45408 7.72977C6.88718 8.35966 6.53024 9.21002 6.40426 10.0814Z" fill="#4A5567"/>
<path d="M59.5671 5.14722C56.0922 5.14722 52.8588 7.65628 52.8588 11.0577C52.8588 13.1048 53.6671 14.6586 54.9374 15.6874C56.2077 16.7162 57.9294 17.2306 59.7456 17.2306C61.8767 17.2306 63.7454 16.9052 65.824 15.9813L65.971 15.9184L65.4356 14.6271L65.2886 14.6901C63.8714 15.278 62.4646 15.6349 60.8794 15.6349C59.5776 15.6349 58.3808 15.257 57.4675 14.5431C56.6066 13.8607 55.9977 12.8529 55.8507 11.5301H64.8477C65.2046 11.5301 65.5091 11.4671 65.7086 11.2677C65.9185 11.0682 65.992 10.7742 65.992 10.3963C66.0025 8.54863 64.2913 5.14722 59.5671 5.14722ZM61.6772 10.0814H55.8612C55.9872 9.19952 56.3337 8.35966 56.9216 7.72977C57.541 7.05789 58.4333 6.60646 59.5986 6.60646C61.7717 6.60646 63.105 8.10771 63.105 9.34649C63.105 9.57745 63.0315 9.75592 62.832 9.8714C62.6221 10.0079 62.2651 10.0919 61.6772 10.0814Z" fill="#4A5567"/>
</svg>
