<svg width="66" height="40" viewBox="0 0 66 40" fill="none" xmlns="http://www.w3.org/2000/svg">
<g clip-path="url(#clip0_196_2840)">
<path d="M21.2058 24.1377C24.4102 21.9436 28.5458 22.677 30.4911 27.2946C32.176 25.3182 33.8241 23.3865 35.4692 21.4518C36.1492 20.6528 36.814 19.839 37.5155 19.058C38.407 18.0653 39.5251 17.7522 40.8179 18.1726C42.0892 18.5869 42.849 19.6095 42.8643 20.9539C42.8888 22.993 42.9102 25.032 42.8367 27.0681C42.8214 27.4586 42.3588 27.8312 42.1015 28.2128C41.8289 27.8402 41.3387 27.4735 41.3234 27.0919C41.2437 25.1691 41.2682 23.2374 41.2958 21.3116C41.305 20.5306 41.1028 19.7704 40.2941 19.6691C39.7396 19.6005 38.9155 19.8956 38.551 20.313C35.316 24.0125 32.1331 27.7537 29.0114 31.5397C28.6285 32.0047 28.46 32.8543 28.5826 33.4476C28.7541 34.2704 29.6302 34.2495 30.3808 34.2435C32.5926 34.2286 34.8075 34.2733 37.0162 34.2227C38.0179 34.1988 38.4223 34.5625 38.3335 35.5224C38.2936 35.9636 38.312 36.4108 38.3335 36.8549C38.3794 37.7463 38.8297 38.4021 39.7672 38.426C40.6586 38.4468 41.0844 37.7463 41.2468 36.9801C41.3448 36.5181 41.3111 36.0173 41.2744 35.5403C41.2039 34.5923 41.5991 34.1571 42.6039 34.2316C43.4617 34.2942 44.1111 33.9991 44.2459 33.072C44.4021 31.9958 43.863 31.3698 42.7172 31.3578C40.7352 31.334 38.7501 31.3519 36.7681 31.3519C36.1891 31.3519 35.5151 31.4145 35.509 30.6066C35.5029 29.8256 36.1431 29.8137 36.7405 29.8137C38.6858 29.8166 40.6311 29.8107 42.5763 29.8137C44.4175 29.8196 45.6551 30.7646 45.8297 32.279C46.0441 34.1451 45.2017 35.3078 43.2962 35.7698C43.186 35.7967 43.0757 35.8175 42.9654 35.8414C42.9256 38.6943 41.5746 39.9046 39.8009 39.9821C37.9567 40.0626 37.0652 38.8493 36.6271 35.7818C34.5195 35.7818 32.3904 35.8384 30.2674 35.7519C29.4709 35.7192 28.6928 35.3406 27.8963 35.1557C27.5686 35.0782 27.1795 34.9858 26.8823 35.0812C24.9463 35.6983 23.1327 35.6059 21.4693 34.3657C20.9515 35.0007 18.6294 35.4837 17.9034 35.0395C17.6767 34.8994 17.5052 34.4939 17.5052 34.2078C17.4807 29.2771 17.4715 24.3494 17.5266 19.4187C17.5297 19.1176 18.0811 18.8195 18.3813 18.5243C18.3997 18.5065 18.4548 18.5214 18.4947 18.5214C21.7296 18.5243 21.1568 18.268 21.2027 20.9688C21.2211 21.9615 21.2027 22.9572 21.2027 24.1317L21.2058 24.1377ZM26.913 29.1489C26.8946 27.4437 25.7795 26.3586 24.0517 26.3705C22.3485 26.3824 21.2211 27.5093 21.2211 29.1996C21.2211 30.9286 22.4036 32.0703 24.1651 32.0375C25.8622 32.0077 26.9344 30.8779 26.916 29.1459L26.913 29.1489Z" fill="#4A5567"/>
<path d="M38.796 9.71237C40.0153 6.89525 41.1549 4.32855 42.2271 1.73502C42.5579 0.936093 42.9929 0.614138 43.9181 0.626062C46.9693 0.670778 46.9693 0.632024 46.9693 3.63396C46.9693 7.48849 46.9325 11.343 46.9938 15.1975C47.0122 16.2588 46.6323 16.5331 45.6061 16.5003C42.8674 16.4108 43.1737 16.864 43.1584 14.1333C43.1461 11.9541 43.1584 9.77795 42.9256 7.53916C42.1597 9.28309 41.3326 11.0032 40.6586 12.7799C40.2971 13.7338 39.7978 14.0588 38.744 14.0588C37.7055 14.0588 37.2705 13.6533 36.9273 12.7888C36.2044 10.9704 35.3864 9.1877 34.3939 7.41694C34.3939 9.71833 34.4061 12.0227 34.3908 14.3241C34.3724 16.7298 34.7462 16.4645 32.2311 16.4794C30.6442 16.4883 30.6412 16.4794 30.6412 14.9769C30.6412 10.6395 30.6626 6.305 30.6228 1.96754C30.6136 0.98379 30.8709 0.578365 31.9738 0.626062C35.5733 0.778097 34.5134 0.0149426 35.9991 3.28816C36.9304 5.33913 37.8035 7.41694 38.7991 9.70938L38.796 9.71237Z" fill="#4A5567"/>
<path d="M61.2449 10.6782C60.0808 10.6782 59.0852 10.7378 58.1049 10.6424C57.8016 10.6126 57.3329 10.1923 57.2961 9.90906C56.999 7.51824 57.0235 7.51525 59.5141 7.51525C61.0397 7.51525 62.5652 7.54208 64.0908 7.50333C64.8444 7.48544 65.2243 7.68816 65.2121 8.49007C65.1845 10.7497 65.1998 13.0123 65.2029 15.272C65.2029 15.901 64.9547 16.2587 64.2501 16.2081C63.9469 16.1872 63.6405 16.2081 63.3342 16.2081C62.2803 16.2081 61.6891 15.7102 61.5604 14.7145C57.5167 17.4899 53.0043 16.9354 50.3268 13.3343C47.5881 9.6497 48.3907 4.21223 52.0607 1.59485C55.7613 -1.0434 61.2878 -0.321979 63.9285 3.20463C64.4217 3.86642 64.6514 4.71305 65.0037 5.47322C64.244 5.57458 63.4843 5.6819 62.7215 5.77431C61.8821 5.87567 61.2633 5.66103 60.6537 4.96644C59.3517 3.4759 56.7447 3.16289 54.8484 4.10193C53.0778 4.98135 52.1404 7.05915 52.5325 9.23831C53.0992 12.3804 56.1473 14.0229 59.1832 12.8007C60.1176 12.4251 60.862 11.8348 61.2449 10.6782Z" fill="#4A5567"/>
<path d="M46.4301 28.4573C46.5312 25.3779 47.5942 22.3223 50.1951 19.9076C51.4358 18.754 52.897 17.9759 54.6891 18.0057C56.1075 18.0296 57.3114 18.9984 57.5381 20.2713C57.8077 21.7797 57.2104 23.0378 55.7491 23.473C51.2183 24.8175 51.6288 31.3251 54.0795 33.4417C55.2834 34.4851 56.6988 34.488 57.8782 33.4178C58.9963 32.4043 59.4436 31.0837 59.6029 29.6468C59.6397 29.3159 59.5723 28.9403 59.7193 28.669C59.8541 28.4216 60.2186 28.1384 60.4698 28.1503C60.718 28.1622 61.0887 28.4812 61.1622 28.7346C61.8392 31.0032 59.5661 34.8398 57.1644 35.5821C55.6725 36.0442 54.3797 35.6536 53.2218 34.7325C50.0297 32.2016 49.8581 26.0009 52.9399 23.3359C53.5495 22.8082 54.3277 22.4266 55.0874 22.1047C55.8532 21.7797 56.1443 21.3028 55.985 20.5396C55.8134 19.7258 55.167 19.3472 54.4624 19.5857C53.3412 19.9673 52.1036 20.3637 51.2581 21.1179C47.0642 24.8592 46.9509 32.2433 50.9089 36.2081C53.9202 39.225 58.2856 39.1594 61.2081 36.0531C65.3101 31.6918 64.7219 24.1557 60.0256 20.3935C59.7162 20.1461 59.4283 19.4217 59.5753 19.1683C59.9552 18.5185 60.5618 18.8464 61.0243 19.219C64.5779 22.0957 65.8278 25.8817 65.4387 30.2281C65.212 32.7531 64.2532 35.0455 62.4856 36.9594C58.5889 41.1835 52.6152 40.96 49.0371 36.4585C47.245 34.2048 46.4638 31.6173 46.4362 28.4484L46.4301 28.4573Z" fill="#4A5567"/>
<path d="M22.5874 6.77006C24.0578 6.77006 25.4272 6.79987 26.7935 6.75814C27.6359 6.73131 27.9423 7.05624 27.9361 7.86709C27.9116 10.6544 28.0556 10.1715 25.565 10.2043C24.6154 10.2162 23.6626 10.2043 22.618 10.2043V12.9528C24.0486 12.9528 25.516 12.9528 26.9803 12.9528C28.073 12.9528 28.6203 13.4924 28.6223 14.5715C28.6223 14.9412 28.7265 15.3585 28.5886 15.6686C28.4447 15.9905 28.0679 16.4377 27.783 16.4436C25.0779 16.5033 22.3729 16.4615 19.6679 16.4883C18.8071 16.4973 18.801 16.0024 18.801 15.4003C18.8102 11.4742 18.804 7.54812 18.804 3.62503C18.804 1.64163 19.816 0.649923 21.8399 0.649923C23.7086 0.649923 25.5742 0.670791 27.4429 0.64098C28.1598 0.629056 28.4845 0.837731 28.4692 1.58598C28.4079 4.65946 28.8398 4.14374 25.9418 4.18547C24.8451 4.20336 23.7515 4.18547 22.5904 4.18547V6.7641L22.5874 6.77006Z" fill="#4A5567"/>
<path d="M4.37527 4.30771V7.37225C5.88555 7.37225 7.35906 7.41696 8.82951 7.35734C9.83432 7.31561 10.1682 7.67333 10.1345 8.64516C10.0488 11.2596 10.4501 10.869 7.82777 10.8989C6.72799 10.9108 5.62516 10.8989 4.33545 10.8989C4.33545 12.3238 4.27724 13.6802 4.35383 15.0276C4.4151 16.1038 4.12407 16.5569 2.90482 16.5062C0.172239 16.3959 0.539851 16.8014 0.530661 14.184C0.51228 10.1089 0.555169 6.03077 0.500027 1.95266C0.487773 0.921211 0.812497 0.599255 1.87245 0.629066C4.23436 0.69763 6.60546 0.69763 8.96737 0.629066C10.012 0.599255 10.2724 0.983813 10.2571 1.91987C10.2111 4.57004 10.3827 4.15865 7.91661 4.18548C6.84747 4.19741 5.78139 4.19741 4.71225 4.20635C4.64179 4.20635 4.57133 4.2451 4.37527 4.30473V4.30771Z" fill="#4A5567"/>
<path d="M12.3279 34.5089C10.2479 35.8056 7.84305 35.7401 6.42468 34.4045C5.25445 33.3015 4.99099 31.3311 5.81812 29.8703C6.84437 28.0578 8.78966 27.6912 12.3586 28.6362C12.6312 26.9221 12.1196 26.1112 10.8299 26.2573C10.5389 26.2901 10.1131 26.3616 9.99971 26.5554C9.20016 27.9297 7.87369 27.411 6.73103 27.4169C6.49208 27.4169 6.19799 26.8982 6.0295 26.5673C5.95291 26.4183 6.10302 26.144 6.17348 25.9353C6.88726 23.8516 9.29819 22.5876 11.8255 22.9662C14.4172 23.3537 16.0286 24.9635 16.0684 27.2947C16.1051 29.5573 16.0469 31.82 16.096 34.0796C16.1143 34.9382 15.759 35.2452 14.9472 35.126C14.0649 34.9948 13.008 35.5612 12.3279 34.5089ZM10.787 32.9289C11.5192 32.8037 12.4566 32.7799 12.4321 31.7186C12.4045 30.6365 11.4671 30.6633 10.6675 30.6395C9.84041 30.6156 9.0623 30.8243 9.08681 31.7901C9.11132 32.7471 9.93538 32.8753 10.787 32.9289Z" fill="#4A5567"/>
<path d="M4.20675 27.0175C4.20675 29.4619 4.18225 31.9094 4.22207 34.3539C4.23432 35.1588 3.97393 35.4867 3.11923 35.4777C-0.00547224 35.4479 0.545946 35.6477 0.530629 33.0124C0.506122 28.5676 0.54901 24.1199 0.503058 19.6751C0.493868 18.7033 0.797148 18.3724 1.80808 18.4051C4.58049 18.4946 4.18225 18.0713 4.20675 20.6797C4.22513 22.7903 4.20982 24.9039 4.20982 27.0145L4.20675 27.0175Z" fill="#4A5567"/>
<path d="M12.2452 8.5467C12.2452 6.29003 12.2728 4.03336 12.233 1.77967C12.2177 0.909198 12.5485 0.614072 13.44 0.637921C16.4697 0.715429 16.0378 0.253363 16.05 3.15991C16.0715 7.19031 16.0255 11.2237 16.0745 15.2541C16.0868 16.2468 15.7406 16.533 14.7542 16.5032C11.9236 16.4137 12.2636 16.8758 12.2422 14.0975C12.2299 12.2492 12.2422 10.3979 12.2422 8.54968L12.2452 8.5467Z" fill="#4A5567"/>
<path d="M45.9951 35.7788C47.2388 35.755 48.1824 36.6254 48.2069 37.8208C48.2283 38.9894 47.2817 39.9732 46.0992 40C44.9504 40.0298 43.8905 39.049 43.8537 37.9192C43.817 36.7745 44.7881 35.8026 45.9951 35.7788ZM47.4226 37.8208C46.7762 37.3975 46.3474 36.9086 46.0686 36.9832C45.6918 37.0815 45.4283 37.6062 45.1189 37.946C45.4498 38.2233 45.7714 38.7002 46.1176 38.7181C46.4485 38.733 46.8069 38.271 47.4226 37.8238V37.8208Z" fill="#4A5567"/>
</g>
<defs>
<clipPath id="clip0_196_2840">
<rect width="65" height="40" fill="white" transform="translate(0.5)"/>
</clipPath>
</defs>
</svg>
