<svg width="108" height="40" viewBox="0 0 108 40" fill="none" xmlns="http://www.w3.org/2000/svg">
<g clip-path="url(#clip0_196_2809)">
<path d="M43.063 29.6158V9.86914H47.4606V25.6884H55.8601V29.6143H43.0645L43.063 29.6158Z" fill="#4A5567"/>
<path d="M59.0722 9.86914H63.4682V29.6158H59.0722V9.86914Z" fill="#4A5567"/>
<path d="M81.1127 19.5592H85.5379V26.5649C83.583 28.7492 80.8769 29.842 77.4204 29.842C74.5261 29.842 72.0978 28.8818 70.1344 26.9599C68.1706 25.0394 67.1897 22.6144 67.1897 19.6861C67.1897 16.7579 68.1909 14.3141 70.192 12.3561C72.1926 10.3982 74.6068 9.41772 77.4346 9.41772C80.2629 9.41772 82.7195 10.3506 84.8055 12.2148L82.5228 15.5193C81.6395 14.748 80.8264 14.216 80.0846 13.9233C79.3423 13.6321 78.5382 13.485 77.6751 13.485C76.0018 13.485 74.5936 14.0545 73.4471 15.1935C72.3006 16.3325 71.728 17.8349 71.728 19.6991C71.728 21.5633 72.2775 23.0555 73.3768 24.1758C74.4757 25.2961 75.7863 25.857 77.3082 25.857C78.8301 25.857 80.0987 25.5657 81.1127 24.9818V19.5578V19.5592Z" fill="#4A5567"/>
<path d="M103.322 29.6159L101.489 25.3512H93.2309L91.3982 29.6159H86.7202L95.2319 9.87073H99.4883L108 29.6159H103.322ZM97.375 15.746L94.8952 21.48H99.8278L97.375 15.746Z" fill="#4A5567"/>
<path d="M46.6952 39.6389H45.5157L43.004 33.3759H44.1836L46.1055 38.0529L48.0275 33.3759H49.207L46.6952 39.6389Z" fill="#4A5567"/>
<path d="M56.7085 33.3759V34.3707H53.3742V36.0287H56.3694V36.9688H53.3742V38.6441H56.8165V39.6389H52.3196V33.3759H56.7085Z" fill="#4A5567"/>
<path d="M65.0665 33.3759H66.121V39.6389H64.9773L61.4369 35.07V39.6389H60.3828V33.3759H61.4369L65.0665 38.0529V33.3759Z" fill="#4A5567"/>
<path d="M72.4331 34.3433V39.6389H71.3786V34.3433H69.4841V33.3759H74.329V34.3433H72.4345H72.4331Z" fill="#4A5567"/>
<path d="M79.0933 38.2058C79.3795 38.5403 79.7663 38.7075 80.2553 38.7075C80.7449 38.7075 81.1316 38.5403 81.4178 38.2058C81.7041 37.8713 81.8465 37.4171 81.8465 36.8433V33.3759H82.9011V36.888C82.9011 37.7906 82.6535 38.484 82.1588 38.9714C81.664 39.4587 81.0292 39.7009 80.2539 39.7009C79.4786 39.7009 78.8442 39.4573 78.3495 38.9714C77.8548 38.484 77.6072 37.7906 77.6072 36.888V33.3759H78.6617V36.8433C78.6617 37.4171 78.8042 37.8713 79.0904 38.2058H79.0933Z" fill="#4A5567"/>
<path d="M91.7594 35.4102C91.7594 36.444 91.309 37.0942 90.4101 37.3638L92.0457 39.6389H90.7049L89.2118 37.534H87.8266V39.6389H86.7721V33.3759H89.0967C90.0503 33.3759 90.7323 33.5373 91.1435 33.8603C91.5552 34.1832 91.7608 34.6994 91.7608 35.4102H91.7594ZM90.3554 36.2969C90.5695 36.1123 90.6775 35.8153 90.6775 35.4059C90.6775 34.9964 90.5667 34.7152 90.3465 34.5639C90.1267 34.411 89.7324 34.336 89.167 34.336H87.8266V36.5766H89.141C89.7367 36.5766 90.1423 36.4843 90.3568 36.2983L90.3554 36.2969Z" fill="#4A5567"/>
<path d="M99.8854 33.3759V34.3707H96.5511V36.0287H99.5458V36.9688H96.5511V38.6441H99.9934V39.6389H95.4965V33.3759H99.8854Z" fill="#4A5567"/>
<path d="M105.451 34.2006C105.144 34.2006 104.893 34.2626 104.696 34.388C104.499 34.5134 104.401 34.7037 104.401 34.9575C104.401 35.2112 104.499 35.4059 104.696 35.54C104.893 35.6741 105.311 35.8197 105.952 35.974C106.592 36.1297 107.075 36.3474 107.4 36.6285C107.725 36.9097 107.888 37.3235 107.888 37.8699C107.888 38.4163 107.682 38.8604 107.271 39.2007C106.859 39.5409 106.32 39.7111 105.652 39.7111C104.674 39.7111 103.808 39.3737 103.051 38.6989L103.713 37.9016C104.345 38.4509 105.001 38.7263 105.68 38.7263C106.019 38.7263 106.289 38.6528 106.488 38.5072C106.688 38.3615 106.787 38.1669 106.787 37.9247C106.787 37.6825 106.694 37.4951 106.505 37.3595C106.318 37.2254 105.995 37.1029 105.536 36.9919C105.077 36.8808 104.729 36.7799 104.49 36.6876C104.251 36.5953 104.04 36.4742 103.855 36.3243C103.486 36.0432 103.302 35.6135 103.302 35.0339C103.302 34.4543 103.512 34.0073 103.932 33.6945C104.352 33.3816 104.871 33.2245 105.491 33.2245C105.89 33.2245 106.287 33.2908 106.681 33.422C107.074 33.5532 107.415 33.7392 107.7 33.9771L107.136 34.7744C106.951 34.6072 106.7 34.4702 106.385 34.3621C106.068 34.2539 105.757 34.2006 105.451 34.2006Z" fill="#4A5567"/>
<path fill-rule="evenodd" clip-rule="evenodd" d="M17.019 0L0 9.85748V29.5724L17.019 39.4299L34.0379 29.5724V9.85748L17.019 0ZM25.1422 7.5261L31.0674 10.959L25.1422 14.3875V7.5261ZM25.1422 16.2705L31.1062 19.7207L25.1422 23.1723V16.2705ZM16.4781 18.7807L10.5184 15.3319L16.4781 11.8831V18.7807ZM16.4781 27.5597L10.5025 24.1008L16.4781 20.642V27.5582V27.5597ZM17.5512 20.6434L23.531 24.1037L17.5512 27.564V20.6434ZM17.5512 11.8789L23.5152 15.329L17.5512 18.7807V11.8789ZM17.5512 3.12867L23.5023 6.57743L17.5512 10.0218V3.12722V3.12867ZM16.4781 3.13299V10.016L10.5342 6.57595L16.4781 3.13155V3.13299ZM9.98755 7.50305L15.9458 10.9503L9.98755 14.3976V7.50157V7.50305ZM9.98755 16.2676L15.9415 19.7135L9.98755 23.1593V16.2676ZM2.42388 11.8904L8.37208 15.3333L2.42388 18.7749V11.8904ZM2.42388 20.6694L8.35628 24.1022L2.42388 27.5351V20.6694ZM8.91443 31.9484L2.93167 28.4824L8.91443 25.0207V31.9484ZM8.91443 23.1824L2.93311 19.7207L8.91443 16.259V23.181V23.1824ZM8.91443 14.4034L2.96619 10.9619L8.91443 7.516V14.4049V14.4034ZM9.98755 25.0466L15.9458 28.4954L9.98755 31.9441V25.048V25.0466ZM16.4781 29.4282V36.3315L10.5169 32.877L16.4781 29.4268V29.4282ZM17.5512 36.3358V29.4239L23.5195 32.8784L17.5512 36.3372V36.3358ZM24.0676 31.9528L18.0921 28.494L24.0676 25.0351V31.9513V31.9528ZM24.0676 23.1738L18.0877 19.7135L24.0676 16.2532V23.1738ZM24.0676 14.4091L18.0906 10.9518L24.0676 7.49438V14.4106V14.4091ZM25.1407 31.9398V25.038L31.1005 28.4867L25.1407 31.9398ZM31.6125 27.5409L25.6773 24.1066L31.6125 20.6723V27.5409ZM31.6125 18.7749L25.6615 15.3305L31.6125 11.886V18.7734V18.7749Z" fill="#4A5567"/>
</g>
<defs>
<clipPath id="clip0_196_2809">
<rect width="108" height="40" fill="white"/>
</clipPath>
</defs>
</svg>
