<svg width="100" height="28" viewBox="0 0 100 28" fill="none" xmlns="http://www.w3.org/2000/svg">
<path fill-rule="evenodd" clip-rule="evenodd" d="M78.8208 2.33527C78.8208 1.55197 78.1249 0.855469 77.2541 0.855469H75.0772C74.2064 0.855469 73.5099 1.55197 73.5099 2.33527L73.5974 25.6716C73.5974 26.4549 74.2064 27.1514 75.0772 27.1514H77.2541C78.1249 27.1514 78.8208 26.4549 78.8208 25.6716V2.33527V2.33527Z" fill="#4A5567"/>
<path fill-rule="evenodd" clip-rule="evenodd" d="M81.6081 3.03178V4.07686C81.6081 4.59839 81.9567 4.94697 82.4789 4.94697H97.8031C98.5003 4.94697 99.1093 4.33864 99.1093 3.64214V1.81241C99.1093 1.11591 98.5003 0.419419 97.8031 0.507573C97.8031 0.507573 83.0004 1.98738 82.4789 2.07419C81.956 2.07419 81.6081 2.50891 81.6081 3.03178V3.03178Z" fill="#4A5567"/>
<path fill-rule="evenodd" clip-rule="evenodd" d="M69.156 27.1513C65.3249 27.1513 62.9736 24.2779 62.9736 21.0565V11.7389H61.8411C61.3189 11.7389 60.796 11.216 60.796 10.6938V9.12588C60.796 8.51754 61.3182 8.0808 61.8411 8.0808H62.9736V2.33453C62.9736 1.55123 63.5826 0.854736 64.4534 0.854736H66.6304C67.4137 0.854736 68.0234 1.55123 68.0234 2.33453V8.0808H71.4191C72.0288 8.0808 72.4642 8.51686 72.4642 9.12588V10.6938C72.4642 11.2154 72.0294 11.7389 71.4191 11.7389H68.0234V20.36C68.0234 22.0134 69.0685 23.2335 70.8969 23.2335H71.2455C71.8551 23.2335 72.378 23.6682 72.378 24.3654V26.0201C72.378 26.6298 71.8558 27.152 71.2455 27.152H69.156V27.1514V27.1513Z" fill="#4A5567"/>
<path fill-rule="evenodd" clip-rule="evenodd" d="M43.0337 17.3124C43.0337 12.3494 40.0734 7.38647 33.3682 7.38647C27.1859 7.38647 23.7902 12.2613 23.7902 17.3124C23.7902 22.7101 27.447 27.5001 33.455 27.5001C37.5478 27.5001 41.5532 25.4106 42.3365 21.8406C42.4233 21.4059 42.0754 20.7087 41.4657 20.7087H38.5054C37.9832 20.7087 37.5478 20.9692 37.2861 21.4052C36.4153 22.6239 35.1966 23.2336 33.455 23.2336C30.8426 23.2336 29.1011 21.2303 28.9268 18.9672H41.3782C42.5115 18.9672 43.0337 18.3575 43.0337 17.3124V17.3124ZM29.0143 15.2229C29.1885 13.0466 31.1037 11.3918 33.3682 11.3918C35.7195 11.3918 37.6347 13.0466 37.8964 15.2229H29.0143V15.2229Z" fill="#4A5567"/>
<path fill-rule="evenodd" clip-rule="evenodd" d="M99.6323 17.3124C99.6323 12.3494 96.672 7.38647 89.9668 7.38647C83.7844 7.38647 80.3894 12.2613 80.3894 17.3124C80.3894 22.7101 84.0469 27.5001 90.0543 27.5001C94.1471 27.5001 98.1518 25.4106 98.9358 21.8406C99.0232 21.4059 98.674 20.7087 98.065 20.7087H95.1047C94.5825 20.7087 94.1471 20.9692 93.8853 21.4052C93.0145 22.6239 91.7958 23.2336 89.9668 23.2336C87.4419 23.2336 85.7003 21.2303 85.526 18.9672H97.9782C99.11 18.9672 99.6323 18.3575 99.6323 17.3124V17.3124ZM85.6135 15.2229C85.7871 13.0466 87.7023 11.3918 89.9668 11.3918C92.318 11.3918 94.2339 13.0466 94.4082 15.2229H85.6135Z" fill="#4A5567"/>
<path fill-rule="evenodd" clip-rule="evenodd" d="M58.794 1.11587H18.5655C17.6079 1.11587 16.9114 1.90052 16.9114 2.77064L16.9982 18.6191C16.9982 18.6191 8.37777 2.9456 7.94238 2.16095C7.50766 1.37764 6.54939 0.681152 5.33069 0.681152H2.02183C1.06423 0.681152 0.367737 1.4658 0.367737 2.33592V25.4973C0.367737 26.4555 1.06423 27.152 2.02183 27.152H4.11132C5.06892 27.152 5.76608 26.4555 5.76608 25.4973L5.67927 9.30222C5.67927 9.30222 14.3865 25.0625 14.8219 25.6722C15.2573 26.5424 16.1281 27.152 17.3468 27.152H20.3945C21.3521 27.152 22.0486 26.4555 22.0486 25.4973V5.03577H58.794C59.403 5.03577 59.9259 4.51289 59.9259 3.90387V2.24911C59.9259 1.63875 59.4037 1.11587 58.794 1.11587V1.11587Z" fill="#4A5567"/>
<path fill-rule="evenodd" clip-rule="evenodd" d="M52.2631 11.2161C54.0047 11.2161 55.3109 11.8258 55.8338 12.9577C56.008 13.4806 56.4428 13.5674 57.0531 13.5674H59.4912C59.8398 13.5674 60.362 13.2188 60.362 12.6973C60.362 9.91062 56.9656 7.38574 52.2638 7.38574C47.3876 7.38574 44.1663 9.73566 44.1663 13.3938C44.1663 16.2673 46.43 17.922 49.1292 18.7053C50.4354 18.9671 52.6124 19.4886 53.6568 19.8372C54.7019 20.099 55.7463 20.4469 55.7463 21.4052C55.7463 22.9718 54.179 23.4072 52.3506 23.4072C50.6958 23.4072 49.0417 22.7107 48.6063 21.492C48.3452 20.7955 47.8224 20.7087 47.1259 20.7087H44.6878C44.2524 20.7087 43.7302 21.1434 43.7302 21.6656V22.0142C43.7302 24.714 47.3876 27.5 52.4374 27.5C55.9206 27.5 60.8842 26.0202 60.8842 21.317C60.8842 18.5304 59.0551 16.6158 56.008 15.8325C54.8755 15.5707 52.0895 14.7874 51.4798 14.6993C50.3472 14.3507 49.3028 14.0028 49.3028 13.1327C49.3028 11.6529 50.609 11.2161 52.2631 11.2161V11.2161Z" fill="#4A5567"/>
</svg>
