<svg width="153" height="30" viewBox="0 0 153 30" fill="none" xmlns="http://www.w3.org/2000/svg">
<path d="M12.4431 19.7938C12.4431 20.8076 11.5939 21.6295 10.5463 21.6295C9.49869 21.6295 8.64947 20.8076 8.64947 19.7938C8.64947 18.7801 9.49869 17.9582 10.5463 17.9582C11.5939 17.9582 12.4431 18.7801 12.4431 19.7938Z" fill="#F7F9FB"/>
<path d="M18.5568 10.2061C18.5568 11.2199 19.4061 12.0417 20.4536 12.0417C21.5012 12.0417 22.3504 11.2199 22.3504 10.2061C22.3504 9.19229 21.5012 8.37045 20.4536 8.37045C19.4061 8.37045 18.5568 9.19229 18.5568 10.2061Z" fill="#F7F9FB"/>
<path fill-rule="evenodd" clip-rule="evenodd" d="M15.5 30C24.0604 30 31 23.2843 31 15C31 6.71572 24.0604 0 15.5 0C6.93957 0 0 6.71572 0 15C0 23.2843 6.93957 30 15.5 30ZM9.90912 15.8956C9.05847 16.1092 8.23484 16.4581 7.61343 17.0594L7.61393 17.0599C6.07711 18.6025 6.09485 21.0587 7.66708 22.5802C9.23931 24.1017 11.7774 24.1188 13.3713 22.6316L13.3718 22.6321C13.9932 22.0307 14.3537 21.2336 14.5745 20.4104C14.9683 18.9418 15.7597 17.5523 16.9485 16.4018C18.1501 15.2389 19.6041 14.4691 21.1398 14.0922C21.9599 13.8909 22.7525 13.5541 23.3507 12.9751C24.923 11.4349 24.9171 8.95282 23.3329 7.41974C21.7487 5.88667 19.1839 5.88091 17.5923 7.40243C16.994 7.98141 16.646 8.74839 16.438 9.54206C16.0486 11.0282 15.253 12.4353 14.0514 13.5981C12.8626 14.7486 11.4268 15.5145 9.90912 15.8956ZM13.1011 9.46959C13.1011 11.2068 11.6458 12.6151 9.85063 12.6151C8.05548 12.6151 6.60022 11.2068 6.60022 9.46959C6.60022 7.73236 8.05548 6.32404 9.85063 6.32404C11.6458 6.32404 13.1011 7.73236 13.1011 9.46959ZM21.227 23.6245C23.0222 23.6245 24.4774 22.2162 24.4774 20.479C24.4774 18.7418 23.0222 17.3335 21.227 17.3335C19.4319 17.3335 17.9767 18.7418 17.9767 20.479C17.9767 22.2162 19.4319 23.6245 21.227 23.6245Z" fill="#F7F9FB"/>
<path d="M47 20V10H51.4136C52.4071 10 53.1309 10.2034 53.585 10.6103C54.058 10.9986 54.2946 11.595 54.2946 12.3994V13.828C54.2946 14.6047 54.058 15.215 53.585 15.6588C53.1119 16.1026 52.4449 16.3245 51.5839 16.3245H48.4759V20H47ZM48.4759 11.4563V14.8821H51.5698C52.0144 14.8821 52.3361 14.7989 52.5348 14.6325C52.7335 14.466 52.8328 14.1748 52.8328 13.7587V12.4688C52.8328 11.7938 52.4213 11.4563 51.5981 11.4563H48.4759Z" fill="#F7F9FB"/>
<path d="M64.8312 20H60.8717C59.9634 20 59.2822 19.7688 58.8281 19.3065C58.3834 18.835 58.1611 18.1692 58.1611 17.3093V12.4965C58.1611 11.9048 58.2983 11.3916 58.5726 10.957C58.847 10.5224 59.268 10.2358 59.8357 10.0971C59.9871 10.0693 60.1668 10.0462 60.375 10.0277C60.5831 10.0092 60.8386 10 61.1413 10H64.8596V11.4563H60.5453C60.2898 11.4563 60.0722 11.558 59.8925 11.7614C59.7222 11.9556 59.637 12.2145 59.637 12.5381V14.2441H64.8596V15.7004H59.637V17.656C59.637 17.8872 59.7364 18.0952 59.935 18.2802C60.0959 18.4096 60.2709 18.4975 60.4601 18.5437H64.8312V20Z" fill="#F7F9FB"/>
<path d="M75.7012 20H71.7417C70.8334 20 70.1522 19.7688 69.6981 19.3065C69.2534 18.835 69.0311 18.1692 69.0311 17.3093V12.4965C69.0311 11.9048 69.1683 11.3916 69.4426 10.957C69.717 10.5224 70.138 10.2358 70.7057 10.0971C70.8571 10.0693 71.0369 10.0462 71.245 10.0277C71.4531 10.0092 71.7086 10 72.0114 10H75.7296V11.4563H71.4153C71.1599 11.4563 70.9422 11.558 70.7625 11.7614C70.5922 11.9556 70.507 12.2145 70.507 12.5381V14.2441H75.7296V15.7004H70.507V17.656C70.507 17.8872 70.6064 18.0952 70.8051 18.2802C70.9659 18.4096 71.1409 18.4975 71.3302 18.5437H75.7012V20Z" fill="#F7F9FB"/>
<path d="M79.9011 20V10H85.0669C85.7292 10 86.2827 10.245 86.7274 10.7351C87.049 11.0772 87.2099 11.5257 87.2099 12.0804V13.8141C87.2099 14.3042 87.0112 14.7527 86.6138 15.1595C86.2259 15.5571 85.7765 15.7559 85.2656 15.7559L83.5342 15.742L87.295 20H85.3224L81.6325 15.8252C81.5095 15.6773 81.448 15.5109 81.448 15.3259C81.448 15.0208 81.5474 14.7758 81.746 14.5908C81.9542 14.3967 82.2238 14.2996 82.555 14.2996H84.7973C85.0527 14.2996 85.2751 14.221 85.4643 14.0638C85.6535 13.9066 85.7481 13.7171 85.7481 13.4951V12.3856C85.7481 11.7661 85.4406 11.4563 84.8257 11.4563H81.377V20H79.9011Z" fill="#F7F9FB"/>
<path d="M91.3116 20V10H96.5058C97.1303 10 97.6459 10.2219 98.0527 10.6657C98.4596 11.1003 98.663 11.6505 98.663 12.3162V17.448C98.663 18.1692 98.4312 18.7748 97.9676 19.2649C97.504 19.755 96.9268 20 96.2362 20H91.3116ZM92.7876 11.4563V18.5437H96.151C96.8417 18.5437 97.187 18.1461 97.187 17.3509V12.5936C97.187 12.1683 97.1066 11.8724 96.9458 11.706C96.8039 11.5395 96.5295 11.4563 96.1226 11.4563H92.7876Z" fill="#F7F9FB"/>
<path d="M110.279 10V17.5451C110.279 18.2478 110.057 18.835 109.612 19.3065C109.168 19.7688 108.605 20 107.924 20H105.369C104.707 20 104.144 19.7688 103.68 19.3065C103.236 18.8257 103.013 18.2386 103.013 17.5451V10H104.489V17.3648C104.489 17.8178 104.57 18.1276 104.73 18.294C104.891 18.4605 105.18 18.5437 105.596 18.5437H107.696C108.103 18.5437 108.387 18.4651 108.548 18.3079C108.718 18.1415 108.803 17.8548 108.803 17.448V10H110.279Z" fill="#F7F9FB"/>
<path d="M114.333 20V18.5437H118.42C118.695 18.5437 118.927 18.4651 119.116 18.3079C119.305 18.1507 119.4 17.9565 119.4 17.7254V16.4632C119.4 15.8992 119.04 15.6172 118.321 15.6172H116.788C116.098 15.6172 115.516 15.4276 115.043 15.0485C114.57 14.6602 114.333 14.1748 114.333 13.5922V12.344C114.333 11.4656 114.645 10.8091 115.27 10.3745C115.639 10.1248 116.15 10 116.803 10H120.947V11.4563H116.732C116.126 11.4563 115.823 11.7291 115.823 12.2746V13.2732C115.823 13.9575 116.145 14.2996 116.788 14.2996H118.577C119.21 14.2996 119.755 14.4891 120.209 14.8682C120.663 15.2473 120.89 15.7004 120.89 16.2275V17.7947C120.89 18.4235 120.672 18.9505 120.237 19.3759C119.811 19.792 119.263 20 118.591 20H114.333Z" fill="#F7F9FB"/>
<path d="M124.719 11.4563V10H130.651V11.4563H128.423V20H126.933V11.4563H124.719Z" fill="#F7F9FB"/>
<path d="M134.181 20V10H139.347C140.009 10 140.563 10.245 141.008 10.7351C141.329 11.0772 141.49 11.5257 141.49 12.0804V13.8141C141.49 14.3042 141.291 14.7527 140.894 15.1595C140.506 15.5571 140.057 15.7559 139.546 15.7559L137.814 15.742L141.575 20H139.603L135.913 15.8252C135.79 15.6773 135.728 15.5109 135.728 15.3259C135.728 15.0208 135.828 14.7758 136.026 14.5908C136.234 14.3967 136.504 14.2996 136.835 14.2996H139.078C139.333 14.2996 139.555 14.221 139.745 14.0638C139.934 13.9066 140.028 13.7171 140.028 13.4951V12.3856C140.028 11.7661 139.721 11.4563 139.106 11.4563H135.657V20H134.181Z" fill="#F7F9FB"/>
<path d="M144.173 10H145.932L148.558 14.147L151.24 10H153L149.296 15.7143V20H147.82L147.806 15.7143L144.173 10Z" fill="#F7F9FB"/>
</svg>
